<svg xmlns="http://www.w3.org/2000/svg" viewBox="0 0 71 36"><defs><style>.a{fill:#29abe2;}</style></defs><path class="a" d="M9.47,9.5a.13.13,0,0,1,.1,0,.34.34,0,0,1,0,.16,1,1,0,0,1-.14.25v.23s0,0,.06,0a.1.1,0,0,1,0,.16l-.06,0v.86a.05.05,0,0,1,0,0c0,.05,0,.1,0,.15l0,0v.27l.06,0a.32.32,0,0,1,.06.2,1,1,0,0,1-.1.21s0,.08,0,.12,0,.27,0,.42a.09.09,0,0,1,.08,0c.09.11.06.26-.08.45a1,1,0,0,1,0,.16h0c0,.05,0,.11,0,.19v.06a2.24,2.24,0,0,1,0,.52,1.3,1.3,0,0,1-.11.43.15.15,0,0,1,0,.14h0a1.56,1.56,0,0,1-.92.77H8.21a1,1,0,0,1-.33.06H7.57l-.08,0s-.07,0-.08,0a2,2,0,0,1-.31-.08.17.17,0,0,1-.14,0,.12.12,0,0,1-.09,0,.09.09,0,0,1,0-.11,2,2,0,0,1-.31-.25,8.07,8.07,0,0,1-2,.35H4.32a4.58,4.58,0,0,1-.83-.08l-.12,0h0a.29.29,0,0,1-.13-.08l0,0a3.85,3.85,0,0,1-1.27-.62.38.38,0,0,1-.13,0,.18.18,0,0,1-.1,0,.23.23,0,0,1,0-.14.18.18,0,0,1,0-.08l-.18-.15-.23-.27-.08,0a.17.17,0,0,1,0-.1,2.85,2.85,0,0,1-.26-.41l-.06,0a.1.1,0,0,1,0-.13C.77,13.17.7,13,.63,12.82a.13.13,0,0,1-.1,0,.11.11,0,0,1,0-.17h0a1.8,1.8,0,0,1-.05-.19.18.18,0,0,1-.12-.08c-.07-.07-.06-.17,0-.31A8.83,8.83,0,0,1,.26,10.2l-.07-.08a.19.19,0,0,1,0-.08A.12.12,0,0,1,.2,10s0,0,.1-.06A7.23,7.23,0,0,1,.61,8.65v0a.16.16,0,0,1,0-.09.41.41,0,0,1,.05-.09,0,0,0,0,0,0,0l0,0L.86,8c-.06-.11.08-.33.41-.66L1.6,7l0-.06,0,0A7.14,7.14,0,0,1,2.92,5.83a2.41,2.41,0,0,1,.33-.19.05.05,0,0,1,0,0,.13.13,0,0,1,.1,0,4.47,4.47,0,0,1,1-.35.79.79,0,0,1,.37-.16.31.31,0,0,1,.15.08h.39a.74.74,0,0,1,.18,0,.2.2,0,0,1,.15.06,1.75,1.75,0,0,1,.41.08l.08,0a.08.08,0,0,1,.08,0,.05.05,0,0,1,0,0l.21.07.11,0,.1,0a1.82,1.82,0,0,1,1-.38A.48.48,0,0,1,7.8,5H8a1.89,1.89,0,0,1,.47.06,1.6,1.6,0,0,1,.82.62l.05,0a.23.23,0,0,1,0,.14,1.36,1.36,0,0,1,.12.48l.08,0c0,.07,0,.15-.08.26s0,.22,0,.35l.08,0c.07.1,0,.24-.08.43v.27a.22.22,0,0,1,0,.16c0,.43,0,.81,0,1.16l.1.06a.12.12,0,0,1,0,.18l-.08,0ZM3.31,9.15l.35-.25a2.52,2.52,0,0,1,.51-.39A4,4,0,0,1,4.75,8a.57.57,0,0,1,.19-.1l0,0a.13.13,0,0,1,.1,0C6.8,6.59,7.69,5.76,7.74,5.38c0,0,0-.09,0-.11a1.35,1.35,0,0,0-.78.54l-.05.1-.12-.08,0,0a3.22,3.22,0,0,1-.54.57c-.27.24-.57.49-.89.73s-.77.59-1.37,1c-.35.25-.61.44-.77.57L1.54,10.28a12.25,12.25,0,0,1-1,1v.06A19.41,19.41,0,0,1,3.31,9.15ZM.57,10.34v0a2.41,2.41,0,0,0,.31-.24l-.27.1A.3.3,0,0,1,.57,10.34Zm.06-.86s0,.11,0,.18l.26-.22a.45.45,0,0,1-.18,0Zm.88.51a4,4,0,0,0-.86.85l.72-.72A.6.6,0,0,1,1.51,10ZM.67,12.07v0a3.48,3.48,0,0,0,.52-.4l1.11-1A9.35,9.35,0,0,1,3.56,9.54c0-.09.06-.18.1-.27l-.29.23-.27.27c-1,.9-1.58,1.47-1.91,1.71A3.72,3.72,0,0,0,.67,12.07Zm1.18-1.56a3.31,3.31,0,0,1-.34.27,4.17,4.17,0,0,0-.8.72A2.12,2.12,0,0,0,1,11.29C1.24,11.07,1.52,10.81,1.85,10.51ZM.73,12.36a.14.14,0,0,1,0,.06l.15-.16ZM3.23,6.9C1.85,8.17,1,8.94.79,9.21a4.26,4.26,0,0,0,.7-.52c.28-.26.77-.75,1.47-1.46l.7-.72Zm-2.42,3A6.69,6.69,0,0,0,2.09,9l.39-.37c.8-.78,1.41-1.37,1.84-1.77l-.23.17c-.31.29-.67.61-1.09,1S1.81,9,1.14,9.52A4.92,4.92,0,0,0,.81,9.91Zm0-1.24a1.54,1.54,0,0,1,0,.17,3.82,3.82,0,0,1,.35-.35A1.3,1.3,0,0,1,.86,8.67Zm0,4.15,1.21-1.05.72-.6a1.81,1.81,0,0,0,.5-.64,3.52,3.52,0,0,0-.85.62c-.3.26-.72.66-1.27,1.19l-.34.35Zm.14.33,1-.91.23-.19c.4-.37.71-.66.92-.88L3,11.35l-.77.72L1,13.06ZM1.18,8a.44.44,0,0,0-.08.11l.54-.39c.2-.16.46-.42.8-.75Zm1.2,4.39c-.7.6-1.06,1-1.07,1.2a1.25,1.25,0,0,0,.39-.23l.12-.1A14.19,14.19,0,0,1,3,12.18c.16-.17.31-.33.47-.48,0-.07,0-.13,0-.18C3.06,11.82,2.7,12.11,2.38,12.4Zm-.76,1.65c0-.17.26-.48.74-.92,0,0,0,0-.08.08a2,2,0,0,1-.33.27l-.21.22-.23.23Zm.25.21,0,0Zm.34-.64c-.1.1-.17.19-.24.25.12-.1.32-.3.6-.58l0,0A5.39,5.39,0,0,0,2.21,13.62Zm.11,1v0l1.46-1.57-.78.7c-.43.4-.71.66-.85.77ZM4,12.36H4a1.93,1.93,0,0,0-.41.31c-.16.14-.43.4-.79.77l-.31.32.21-.18q.68-.54.93-.78A1.84,1.84,0,0,0,4,12.36ZM2.92,14.75A17.9,17.9,0,0,0,5,12.67H4.89a14.35,14.35,0,0,0-2.28,2l-.07.07.23.12a.17.17,0,0,1,.06-.06ZM4.67,5.88c-.3.26-.81.77-1.53,1.5-.16.17-.29.32-.41.43l1.2-.93a10.15,10.15,0,0,0,1.52-1.5.2.2,0,0,1-.1,0A3.92,3.92,0,0,0,4.67,5.88ZM3.1,6.12l0,0,.52-.41-.15.08L3.22,6Zm.1,8.94.07-.14L3.1,15Zm.23-5-.21.22a.34.34,0,0,1,.15,0,0,0,0,0,1,0,0A1.36,1.36,0,0,1,3.43,10.1Zm1.09,4.22c.4-.34,1.08-1,2.06-1.85.25-.22.46-.4.62-.56l-.57.45c-1.08.84-1.83,1.43-2.25,1.78a5.07,5.07,0,0,0-.95,1h0A7.09,7.09,0,0,0,4.52,14.32Zm1.36-3q-.11-.12.09-.39c0-.41,0-1,0-1.87,0-.37,0-.6,0-.69A.14.14,0,0,0,6,8.24h0a.12.12,0,0,1-.11,0v0a1.15,1.15,0,0,0-.41-.08H5.33a.48.48,0,0,1-.21.06c-.25.18-.53.38-.86.6a2.74,2.74,0,0,0-.44.78,0,0,0,0,1,0,0s0,.1,0,.16l-.08.07a4.36,4.36,0,0,0-.12.84.12.12,0,0,1,.1.06c.06.07,0,.2-.1.37a2.73,2.73,0,0,0,.1.54l0,0a.13.13,0,0,1,0,.13l0,.08,0,0a.13.13,0,0,1,0,.08.57.57,0,0,0,.14.13h0a.21.21,0,0,1,.16.08.13.13,0,0,1,0,.08l.16.06h.06a.11.11,0,0,1,.11.06l.24.06h0a.48.48,0,0,1,.25-.08.19.19,0,0,1,.15.06.82.82,0,0,0,.47-.28.1.1,0,0,1,0-.09l.12-.1a.39.39,0,0,0,0-.06.61.61,0,0,0,0-.15l0,0a.2.2,0,0,1,0-.18.35.35,0,0,1,.06-.19ZM4,15.21l1.87-1.73a26,26,0,0,1-2,1.71ZM9.24,9.66V9.39a3.27,3.27,0,0,0-.51.38c-.22.2-.6.56-1.14,1.09A9.06,9.06,0,0,1,6,12.24a1.19,1.19,0,0,1-.68.41,1.53,1.53,0,0,1-.21.31c-.14.17-.36.4-.64.7-.16.15-.34.34-.56.54Q5.47,13,9.16,9.72A.16.16,0,0,1,9.24,9.66ZM4.55,15.17l1-.93-1.21,1h.14Zm0-2.56,0,0,0,0-.06.08A.44.44,0,0,1,4.54,12.61ZM6.4,5.83c-.41.31-.92.73-1.51,1.24l-.2.18c.44-.33.79-.6,1-.82A5.37,5.37,0,0,0,6.4,5.83ZM4.79,5.44a.08.08,0,0,1,0,0l.12-.1h0Zm1.13.45a5.29,5.29,0,0,0-.68.54L5,6.63C5.35,6.34,5.64,6.1,5.92,5.89ZM5.2,15.15l2-1.86-.39.33c-.49.45-.88.8-1.15,1L5,15.17A.47.47,0,0,0,5.2,15.15ZM5.7,5.4a.79.79,0,0,1-.19.29l.35-.25ZM5.76,15c.62-.43,1.24-.89,1.84-1.38l.18-.14c.28-.26.67-.6,1.17-1l0,0v0l.08-.07.08-.1L5.66,15.08h.06A.05.05,0,0,1,5.76,15Zm.16-7.25a4.7,4.7,0,0,0,.46-.35c.21-.19.55-.51,1-1l-.33.29c-.41.39-.76.7-1,.94A.2.2,0,0,0,5.92,7.77Zm.27,3.85v0L8.27,9.72c-.33.28-.82.73-1.48,1.34C6.47,11.35,6.26,11.54,6.19,11.62Zm0-1c.18-.2.43-.45.75-.76l-.68.6a.06.06,0,0,1,0,0A.32.32,0,0,0,6.23,10.63Zm0-.45Q6.94,9.54,7.57,9c.29-.26.55-.48.77-.66a9,9,0,0,0,.86-.9c-.2.16-.57.49-1.13,1a10.81,10.81,0,0,1-1.82,1.5Zm0-.81.24-.26a.35.35,0,0,1-.24.08ZM8.77,6.26c-.26.2-.61.5-1,.87l0,0L6.28,8.36v.07L6.87,8c.27-.24.53-.45.77-.64C8.14,6.88,8.51,6.53,8.77,6.26ZM6.4,8.88A31.44,31.44,0,0,0,9.24,6.51V6.39c-.09.09-.39.33-.88.72S7.26,8,7,8.26A4,4,0,0,0,6.4,8.88Zm1.52-.64c.71-.65,1.15-1,1.32-1.15V6.88c-.12.12-.35.32-.68.62-.69.62-1.18,1.08-1.48,1.38s-.48.47-.62.62C6.7,9.32,7.19,8.9,7.92,8.24ZM6.65,14.88l.06-.13a1.19,1.19,0,0,1-.15.09l.07,0ZM9.22,11v-.33L6.67,13l2.49-2A.09.09,0,0,1,9.22,11ZM6.85,5.52l0,0h0ZM9.24,8.43V8.16l-.06,0q-.18.18-.72.66C7.73,9.51,7.22,10,6.91,10.3l-.06,0,.75-.62C8.12,9.29,8.67,8.86,9.24,8.43Zm-.06,4.72c-.47.35-1.23,1-2.29,1.95l.11.07.1-.09c.09-.09.29-.26.58-.51q.78-.68,1.11-1A4.32,4.32,0,0,0,9.18,13.15Zm0-.29v-.29a10.67,10.67,0,0,1-1.13,1l-.23.19-.14.14c-.26.26-.46.47-.6.64L8,13.83C8.56,13.33,9,13,9.2,12.86ZM7.59,15.19c.06-.07.2-.22.42-.44a4.18,4.18,0,0,1,.37-.37c-.1.07-.24.2-.43.37l-.62.54.14,0Zm.91-.33.48-.6A9.11,9.11,0,0,0,7.8,15.35h.06l.27-.06.09-.11C8.26,15.12,8.36,15,8.5,14.86ZM7.93,6.39l.9-.77s0,0,0,0l0,0ZM9.2,11.91c0-.09,0-.15,0-.17L7.93,12.92ZM8,5.4a.2.2,0,0,1,0,.1l.26-.23a1.1,1.1,0,0,0-.26,0A.39.39,0,0,1,8,5.4Zm.51,0c-.13.15-.31.32-.53.53a6.09,6.09,0,0,1,.59-.51A.07.07,0,0,1,8.5,5.36Zm.68,8.55v0l0,0Z"/><path class="a" d="M20,12.59c.06.09.05.21,0,.37a6.09,6.09,0,0,1,0,.95,1.55,1.55,0,0,1-.95,1.4.32.32,0,0,1-.17.08h0a.15.15,0,0,0-.1,0,2.09,2.09,0,0,1-.35,0l-.23,0-.08,0h0a.18.18,0,0,1-.08-.06l0,0-.31-.12h-.06a.1.1,0,0,1-.09,0,.11.11,0,0,1,0-.08L17.12,15a1.62,1.62,0,0,1-.4-.78.09.09,0,0,1-.06,0A.19.19,0,0,1,16.6,14a.73.73,0,0,1,.06-.14s0,0,0,0-.05-.18,0-.31a.62.62,0,0,1,0-.19.17.17,0,0,1,0-.18c0-.13,0-.22,0-.29v-.13a.13.13,0,0,1,0-.18l0,0a2,2,0,0,0,0-.35.09.09,0,0,1-.07,0c-.06-.06,0-.15.09-.27a18.1,18.1,0,0,0-.06-2,.05.05,0,0,1,0,0,.1.1,0,0,1,0-.17h0a1.8,1.8,0,0,0,0-.22h0s-.07,0-.08,0-.06-.2.06-.35a.77.77,0,0,0,0-.15c-.05,0-.09,0-.12,0s0-.11,0-.17h0l-.1-.06a.16.16,0,0,1,0-.09.41.41,0,0,1,.05-.09l0,0s0,0,0-.05a.25.25,0,0,0-.09,0h0l-.06,0h-.12a1.45,1.45,0,0,0-1,.4l-.12.1a1.86,1.86,0,0,0-.5,1v.07a.08.08,0,0,1,0,0c0,.17,0,.39,0,.66a.15.15,0,0,1,.06,0,.13.13,0,0,1,0,.13.92.92,0,0,1-.1.2v.17a.19.19,0,0,1,0,.12,1,1,0,0,1,0,.1v.4a.25.25,0,0,1,.1.08c.08.09,0,.24-.1.45,0,.67,0,1.16-.06,1.46,0,.07,0,.17,0,.29s-.05.24-.07.33a1.49,1.49,0,0,1-1,1,.64.64,0,0,1-.33.17.11.11,0,0,1-.11-.06h-.37a1.42,1.42,0,0,1-1.21-.88.19.19,0,0,1-.07-.06.1.1,0,0,1,0-.13,3.89,3.89,0,0,1-.12-.49,3.22,3.22,0,0,1,0-.5.34.34,0,0,1,0-.16.24.24,0,0,1,0-.08l0,0A.41.41,0,0,1,11,13a.74.74,0,0,1,.07-.21v-.17h0a.25.25,0,0,1,0-.19.35.35,0,0,1,.06-.18v-.58q0-1.23,0-2.1c0-.22,0-.46,0-.72l0,0c0-.06,0-.13,0-.21s0-.31,0-.47l0,0a.17.17,0,0,1,0-.14.6.6,0,0,1,.09-.21l0,0c-.08-.09,0-.23.08-.42s.06-.55.07-.7a2.33,2.33,0,0,1,.12-.49,1.66,1.66,0,0,1,.16-.33.08.08,0,0,1,0-.08v0A1.56,1.56,0,0,1,12.89,5a.43.43,0,0,1,.23-.11.29.29,0,0,1,.14.08.13.13,0,0,1,0,.07l.17,0A.31.31,0,0,1,13.65,5a.22.22,0,0,1,.07.06.1.1,0,0,1,0,.12.3.3,0,0,1,.14.06,1.15,1.15,0,0,1,.33.29.1.1,0,0,1,.08,0,.15.15,0,0,1,0,.11.88.88,0,0,1,.09.2c.17-.12.35-.23.55-.35l.1-.06.07,0a4.57,4.57,0,0,1,.9-.31l.07-.06a.12.12,0,0,1,.18,0l.35,0h.21l0,0a.16.16,0,0,1,.09,0l.09,0s0,0,0,0a3.81,3.81,0,0,1,.79.25h.06a.13.13,0,0,1,.1,0,.31.31,0,0,1,0,.09l.15.12.08,0a.13.13,0,0,1,.1,0,.15.15,0,0,1,0,.11l.17.16,0,0a0,0,0,0,0,0,0,1,1,0,0,0,.14.15l.09,0a.08.08,0,0,1,.08.06.2.2,0,0,1,.06.18v.06l.08.11a4.55,4.55,0,0,1,.5.92h0a.1.1,0,0,1,.08,0,.13.13,0,0,1,0,.18l0,0a1,1,0,0,0,.08.21.06.06,0,0,1,0,0s0,0,0,.08V8l0,.09.06,0a.14.14,0,0,1,0,.18.15.15,0,0,1,0,.08s.07,0,.1,0,0,.13-.06.23a4.68,4.68,0,0,1,.06.76v.09l0,0a.13.13,0,0,1,0,.18h0c0,.32,0,.64,0,1h0l.08.06q.08.09-.06.21l0,0c0,.23,0,.46,0,.68a.17.17,0,0,1,0,.17l0,0v.31a0,0,0,0,1,0,0c.05.06.05.13,0,.22v.19ZM11.33,9.83c0,.11,0,.21,0,.31a4.27,4.27,0,0,1,.37-.41A.59.59,0,0,1,11.33,9.83Zm0,1.32.24-.19a.3.3,0,0,1-.16,0h-.08ZM15,8.08c.86-.79,1.77-1.64,2.7-2.56a.34.34,0,0,1-.12-.06,7.45,7.45,0,0,1-1.69,1.4c-.3.27-.63.57-1,.89-.78.64-1.82,1.45-3.13,2.43a2.23,2.23,0,0,1-.25.18,1,1,0,0,0-.12.27.3.3,0,0,0,0,.1h0Q12,10.77,15,8.08Zm-3.6,1.09a1.56,1.56,0,0,1,0,.31c1.17-1,2.2-1.95,3.09-2.78l-3,2.43A.09.09,0,0,1,11.35,9.17Zm.1,2.39a.58.58,0,0,0-.12.27l.14-.09a2.85,2.85,0,0,0,.23-.26A.9.9,0,0,1,11.45,11.56Zm2.84-1.15v-.27l-1.42,1.21a13.09,13.09,0,0,0-1.48,1.43,9,9,0,0,1,.84-.7l.45-.4c.54-.52.92-.86,1.13-1s.36-.25.44-.24ZM11.43,8a1.67,1.67,0,0,1,0,.31l.27-.28c.54-.53,1-1,1.25-1.26-.25.2-.57.45-.95.78L11.51,8Zm0,6.09a.14.14,0,0,0,0,.06l.27-.25.2-.19A3.74,3.74,0,0,1,11.43,14.12Zm.08-6.76a.58.58,0,0,0,0,.1l0,0c.13-.11.31-.26.54-.43s.53-.47,1-.87l.75-.7-.19-.1c-.38.34-.72.66-1,1A8.41,8.41,0,0,0,11.51,7.36Zm2.76,4.84v-.13a8.91,8.91,0,0,0-1.46,1.18q-.6.54-1.26,1.2a1.58,1.58,0,0,0,.13.26s0,0,0,0q.71-.59,1.38-1.23A11.77,11.77,0,0,0,14.27,12.2ZM11.61,6.43a.32.32,0,0,0,0,.14l.19-.18a.28.28,0,0,1-.15,0Zm.11,5.42a.19.19,0,0,0-.07.06l-.06.06Zm-.11,1.48,1.78-1.44-.13.1A13.25,13.25,0,0,0,11.61,13.33Zm2.11-3.61.86-.78c-.75.61-1.59,1.25-2.51,1.94l-.31.31A11.84,11.84,0,0,0,13.72,9.72ZM14,6l-.62.66L11.86,8.24l0,0c.53-.39,1.33-1.08,2.41-2.06l0-.12a.65.65,0,0,0-.06-.21Zm-2,9c0-.06.13-.16.24-.27a1,1,0,0,1-.43.21A.87.87,0,0,0,12,15Zm.33-9.56a6.41,6.41,0,0,0-.5.61l.43-.45.25-.25-.14,0A.05.05,0,0,1,12.38,5.4Zm3.71.06L15.55,6c-.4.38-1,.9-1.69,1.55-.58.53-1.22,1.11-1.92,1.73.51-.36,1.3-1,2.35-1.93C15,6.73,15.78,6,16.58,5.29a2.22,2.22,0,0,0-.37,0Zm-1.84,7.81c0-.09,0-.19,0-.31-.87.88-1.49,1.53-1.85,1.94l.39-.33c.22-.19.54-.49.95-.89A2.39,2.39,0,0,1,14.25,13.27Zm-1.81,1.9s0,0,0,0S12.44,15.19,12.44,15.17Zm.45-9.85c-.09.08-.23.22-.41.41l0,0A6.27,6.27,0,0,0,12.89,5.32ZM13,15.19a.35.35,0,0,1,.09-.07.31.31,0,0,0-.11.09h0Zm1.34-5.46a.76.76,0,0,1,0-.15l-.5.39-.25.23A2.78,2.78,0,0,1,14.35,9.73Zm-.08,2.88v0l-.16.16Zm-.06,1.15s0,0,0,0l-.1.09,0,0A.26.26,0,0,1,14.21,13.76Zm.25-7.39-.06,0,1.11-.89a2.12,2.12,0,0,0-.31.14l0,0L15,5.85Zm1.54,0-.66.55.35-.25A2.91,2.91,0,0,1,16,6.37Zm-.08,1.15c.39-.34.72-.63,1-.89s.5-.51.66-.7C17,6.5,16.42,7,15.86,7.56,15.87,7.56,15.89,7.55,15.92,7.52Zm.29.52a1.06,1.06,0,0,1,.16-.19l-.28.21.08,0Zm.58-2.62a2,2,0,0,1-.21.2l.15-.1A.37.37,0,0,0,16.79,5.42ZM16.7,8.26a.52.52,0,0,1,.11-.1l.37-.35a14.56,14.56,0,0,1,1.3-1.16l.18-.22L18,7a16.08,16.08,0,0,1-1.34,1.15A.21.21,0,0,0,16.7,8.26Zm.62-1-.53.46C16.94,7.64,17.11,7.48,17.32,7.29Zm-.39-1.62-.12.18.39-.33Zm-.08,3.07a.31.31,0,0,1,0,.08l.8-.7.76-.64ZM17,7.05l-.06,0,0,0Zm0,6.84V14a2,2,0,0,0,.54-.39l.28-.25a3,3,0,0,1-.82.54Zm.76-5.17c-.35.29-.6.48-.74.59l0,0v.07Zm-.47,1a1.14,1.14,0,0,1-.23.13s0,.07,0,.08ZM17,14.24a.05.05,0,0,0,0,0l0,0Zm0-1.61v.17a.1.1,0,0,1,.06-.05c.16-.16.48-.43.95-.82s1-.8,1.18-1,.49-.5.49-.6c-.17,0-.63.31-1.38,1Zm0-2.08.19-.16-.14.1s0,0,0,0ZM17,12v.25c.32-.34.62-.65.91-.93l.17-.16.86-.87C18.41,10.74,17.76,11.31,17,12Zm0-1a5,5,0,0,1,.48-.53l-.48.39Zm0,.5,0,0v0A.16.16,0,0,0,17.08,11.52Zm.1,3.13a1,1,0,0,1,0-.1.2.2,0,0,1-.1,0Zm.88-4.33a1.75,1.75,0,0,0,.19-.2l-.47.45c-.26.26-.44.46-.56.6C17.36,11,17.64,10.76,18.06,10.32Zm-.84,4a3.79,3.79,0,0,0,.54-.41c.21-.18.54-.49,1-.93a9.92,9.92,0,0,1,.87-.8V12.1a14.1,14.1,0,0,1-1.07,1c-.47.38-.79.66-1,.81A3.34,3.34,0,0,0,17.22,14.3Zm2.45-3.07a.1.1,0,0,1,0-.06v0l-.43.35c-.71.59-1.24,1-1.57,1.32l-.35.31,1.18-.91a2.14,2.14,0,0,0,.27-.21l.1-.08A4.55,4.55,0,0,1,19.67,11.23Zm-2.16,3.69.08-.06a.41.41,0,0,1-.16,0l.06.06A.08.08,0,0,1,17.51,14.92Zm2.14-2.31-.06.06-.8.72c-.73.66-1.18,1.08-1.34,1.26a6.25,6.25,0,0,0,1.23-1l1-1Zm-1.71,2.54,1.16-1.32c-.24.24-.57.53-1,.9-.19.17-.32.28-.38.35A.48.48,0,0,0,17.94,15.15Zm.33-9.22L18,6.18,18.31,6Zm1.3,2.21c-.44.34-.85.67-1.22,1Zm-.89,7a3,3,0,0,1,.33-.48l0,0,0,0c-.25.22-.44.38-.58.48a.62.62,0,0,0,.23,0A.2.2,0,0,0,18.68,15.13Zm-.12-9,0,0,0,0Zm.58.83a1.94,1.94,0,0,1-.46.57l.46-.41.08,0C19.19,7.1,19.17,7.05,19.14,7Zm.18.35a1.23,1.23,0,0,1-.08.12,2.2,2.2,0,0,1-.27.29l-.27.29.66-.6Zm.33,6.43a1.64,1.64,0,0,0,0-.23l-.74.84c.23-.2.47-.39.72-.59Zm-.16-6,0,0v0l-.15.14Zm.2,1-.33.31A.51.51,0,0,1,19.61,9a.16.16,0,0,1,.1,0A1.54,1.54,0,0,0,19.69,8.8Zm-.27,5.77a.51.51,0,0,0,.07-.15.22.22,0,0,1-.06.07l-.05.1A.05.05,0,0,1,19.42,14.57Zm0-4.91a1.43,1.43,0,0,1,.33-.22v0l0,0A2.27,2.27,0,0,0,19.4,9.66Zm.07-1.07.18-.14,0,0Zm.24,1.49V9.89l-.22.21a.4.4,0,0,1,.18,0Zm0,.7v0a.61.61,0,0,1-.16.16l.12-.08,0,0Z"/><path class="a" d="M30.29,12.59c.07.09.06.21,0,.37a6.07,6.07,0,0,1,0,.95,1.58,1.58,0,0,1-1,1.4.29.29,0,0,1-.17.08h0a.16.16,0,0,0-.1,0,2,2,0,0,1-.35,0l-.23,0-.08,0h0a.14.14,0,0,1-.07-.06s0,0,0,0l-.31-.12h-.06a.13.13,0,0,1-.1,0,.19.19,0,0,1,0-.08L27.46,15a1.55,1.55,0,0,1-.41-.78.09.09,0,0,1-.06,0,.21.21,0,0,1-.06-.19,1,1,0,0,0,.06-.14s0,0,0,0,0-.18,0-.31a1.23,1.23,0,0,1,0-.19.17.17,0,0,1,0-.18c0-.13,0-.22,0-.29v-.13a.13.13,0,0,1,0-.18l0,0c0-.11,0-.23,0-.35a.1.1,0,0,1-.08,0c-.05-.06,0-.15.1-.27q0-.78-.06-2s0,0,0,0a.11.11,0,0,1,0-.17h0a1.8,1.8,0,0,0,0-.22h0a.08.08,0,0,1-.08,0c-.08-.09-.06-.2.06-.35a.77.77,0,0,0,0-.15s-.09,0-.12,0,0-.11,0-.17h0l-.09-.06a.09.09,0,0,1,0-.09.2.2,0,0,1,.05-.09l0,0a.08.08,0,0,0,0-.05l-.1,0h0l-.06,0h-.11a1.49,1.49,0,0,0-1,.4l-.11.1a2,2,0,0,0-.51,1v.07s0,0,0,0c0,.17,0,.39,0,.66l.06,0a.13.13,0,0,1,0,.13.46.46,0,0,1-.1.2v.17a.19.19,0,0,1,0,.12.3.3,0,0,1,0,.1v.4a.2.2,0,0,1,.1.08c.08.09.05.24-.1.45,0,.67,0,1.16-.05,1.46.05.07,0,.17,0,.29s-.05.24-.08.33a1.46,1.46,0,0,1-1,1,.64.64,0,0,1-.33.17.14.14,0,0,1-.12-.06h-.37a1.4,1.4,0,0,1-1.2-.88.21.21,0,0,1-.08-.06.1.1,0,0,1,0-.13,3.89,3.89,0,0,1-.12-.49,4.9,4.9,0,0,1,0-.5.25.25,0,0,1,0-.16.12.12,0,0,1,0-.08s0,0,0,0a.22.22,0,0,1,0-.16.52.52,0,0,1,.07-.21v-.17h0a.25.25,0,0,1,0-.19.35.35,0,0,1,.06-.18v-.58q0-1.23,0-2.1c0-.22,0-.46,0-.72l0,0a.17.17,0,0,1,0-.21c0-.16,0-.31,0-.47l0,0a.21.21,0,0,1,0-.14.43.43,0,0,1,.08-.21s0,0,0,0-.05-.23.08-.42.07-.55.08-.7a1.53,1.53,0,0,1,.12-.49,1.61,1.61,0,0,1,.15-.33.08.08,0,0,1,0-.08l0,0A1.53,1.53,0,0,1,23.22,5a.42.42,0,0,1,.24-.11.26.26,0,0,1,.13.08.09.09,0,0,1,0,.07l.17,0A.34.34,0,0,1,24,5a.18.18,0,0,1,.08.06.16.16,0,0,1,0,.12.31.31,0,0,1,.13.06,1.15,1.15,0,0,1,.33.29.09.09,0,0,1,.08,0,.12.12,0,0,1,0,.11,1.86,1.86,0,0,1,.1.2l.54-.35.1-.06.08,0a4.28,4.28,0,0,1,.89-.31l.08-.06a.11.11,0,0,1,.17,0l.35,0h.22V5a.16.16,0,0,1,.09,0l.09,0s0,0,0,0a3.9,3.9,0,0,1,.8.25h.05a.13.13,0,0,1,.1,0,.16.16,0,0,1,0,.09l.16.12.07,0a.13.13,0,0,1,.1,0,.12.12,0,0,1,0,.11l.17.16,0,0,0,0,.14.15.1,0a.07.07,0,0,1,.07.06.16.16,0,0,1,.06.18v.06a1,1,0,0,1,.08.11,4.11,4.11,0,0,1,.5.92h0s.07,0,.08,0a.13.13,0,0,1,0,.18l0,0c0,.08.05.15.08.21a.08.08,0,0,1,0,0,.07.07,0,0,1,0,.08V8l0,.09.06,0a.15.15,0,0,1,0,.18.45.45,0,0,1,0,.08s.07,0,.09,0,0,.13-.06.23a4.68,4.68,0,0,1,.06.76v.09l0,0a.13.13,0,0,1,0,.18h0c0,.32,0,.64,0,1h0a.16.16,0,0,1,.08.06q.07.09-.06.21l0,0c0,.23,0,.46,0,.68a.17.17,0,0,1,0,.17v.35s0,0,0,0,.05.13,0,.22v.19ZM21.67,9.83c0,.11,0,.21,0,.31A2.62,2.62,0,0,1,22,9.73.61.61,0,0,1,21.67,9.83Zm0,1.32.23-.19a.26.26,0,0,1-.15,0h-.08Zm3.63-3.07c.87-.79,1.77-1.64,2.7-2.56a.24.24,0,0,1-.11-.06,7.73,7.73,0,0,1-1.69,1.4l-1,.89c-.78.64-1.82,1.45-3.13,2.43l-.25.18a.62.62,0,0,0-.12.27.3.3,0,0,0,0,.1h0Q22.32,10.77,25.28,8.08ZM21.69,9.17a3,3,0,0,1,0,.31c1.16-1,2.19-1.95,3.09-2.78l-3,2.43A.12.12,0,0,1,21.69,9.17Zm.1,2.39a.58.58,0,0,0-.12.27l.13-.09.24-.26A1,1,0,0,1,21.79,11.56Zm2.83-1.15v-.27L23.2,11.35a12.75,12.75,0,0,0-1.47,1.43,10,10,0,0,1,.83-.7l.45-.4c.54-.52.92-.86,1.13-1s.36-.25.44-.24ZM21.77,8c0,.1,0,.2,0,.31L22,8.06,23.26,6.8l-1,.78L21.84,8Zm0,6.09a.07.07,0,0,0,0,.06c.06-.06.15-.15.27-.25l.19-.19A4.12,4.12,0,0,1,21.77,14.12Zm.07-6.76a.58.58,0,0,0,0,.1l0,0c.13-.11.31-.26.55-.43l.95-.87c.44-.41.69-.65.76-.7l-.2-.1c-.37.34-.72.66-1,1A9.22,9.22,0,0,0,21.84,7.36ZM24.6,12.2v-.13a9.37,9.37,0,0,0-1.46,1.18q-.6.54-1.26,1.2a1.59,1.59,0,0,0,.14.26l0,0q.69-.59,1.38-1.23A12.51,12.51,0,0,0,24.6,12.2ZM21.94,6.43a.59.59,0,0,0,0,.14l.2-.18a.34.34,0,0,1-.16,0Zm.12,5.42a.21.21,0,0,0-.08.06l-.06.06Zm-.12,1.48,1.79-1.44a.71.71,0,0,0-.14.1A13.25,13.25,0,0,0,21.94,13.33Zm2.12-3.61.85-.78c-.75.61-1.58,1.25-2.5,1.94l-.31.31A12.28,12.28,0,0,0,24.06,9.72ZM24.37,6l-.62.66L22.19,8.24l0,0c.53-.39,1.34-1.08,2.41-2.06l0-.12a1.08,1.08,0,0,0-.05-.21Zm-2,9,.23-.27a1,1,0,0,1-.43.21l.14.12Zm.33-9.56a5.32,5.32,0,0,0-.51.61c.09-.1.24-.24.43-.45s.19-.19.25-.25l-.13,0A.07.07,0,0,1,22.72,5.4Zm3.71.06L25.88,6c-.4.38-1,.9-1.69,1.55S23,8.67,22.27,9.29c.52-.36,1.3-1,2.35-1.93.73-.63,1.49-1.32,2.29-2.07a2.22,2.22,0,0,0-.37,0Zm-1.85,7.81c0-.09,0-.19,0-.31-.87.88-1.48,1.53-1.84,1.94l.38-.33c.22-.19.54-.49,1-.89A2.22,2.22,0,0,1,24.58,13.27Zm-1.8,1.9s0,0,0,0S22.78,15.19,22.78,15.17Zm.44-9.85-.41.41,0,0A5.8,5.8,0,0,0,23.22,5.32Zm.12,9.87.1-.07a.47.47,0,0,0-.12.09h0Zm1.34-5.46a.77.77,0,0,1,0-.15l-.51.39a3.22,3.22,0,0,1-.25.23A3,3,0,0,1,24.68,9.73Zm-.08,2.88v0l-.15.16Zm-.06,1.15s0,0,0,0l-.09.09s0,0,0,0Zm.26-7.39-.06,0,1.11-.89a2.22,2.22,0,0,0-.32.14s0,0,0,0a1.42,1.42,0,0,1-.17.16Zm1.53,0-.66.55L26,6.67C26.12,6.56,26.23,6.46,26.33,6.37Zm-.08,1.15c.39-.34.72-.63,1-.89a7.58,7.58,0,0,0,.66-.7c-.58.57-1.15,1.11-1.71,1.63A.07.07,0,0,0,26.25,7.52Zm.29.52a1.06,1.06,0,0,1,.16-.19l-.27.21.08,0Zm.59-2.62-.22.2.16-.1S27.11,5.45,27.13,5.42ZM27,8.26l.12-.1c.07-.08.2-.19.37-.35a13.22,13.22,0,0,1,1.3-1.16L29,6.43c-.11.11-.34.31-.68.6A14.52,14.52,0,0,1,27,8.18.21.21,0,0,0,27,8.26Zm.62-1-.52.46C27.27,7.64,27.44,7.48,27.65,7.29Zm-.39-1.62a1.08,1.08,0,0,0-.11.18l.38-.33Zm-.08,3.07a.13.13,0,0,1,0,.08l.8-.7c.36-.3.62-.51.76-.64Zm.1-1.69-.06,0,0,0Zm0,6.84V14a2.19,2.19,0,0,0,.55-.39l.27-.25a3,3,0,0,1-.82.54ZM28,8.72c-.35.29-.59.48-.74.59l0,0v.07C27.53,9.19,27.77,9,28,8.72Zm-.47,1a.93.93,0,0,1-.23.13.13.13,0,0,0,0,.08Zm-.23,4.54a.05.05,0,0,0,0,0l0,0Zm0-1.61v.17a.1.1,0,0,1,.06-.05c.17-.16.49-.43.95-.82s1-.8,1.19-1,.48-.5.48-.6c-.17,0-.63.31-1.38,1Zm0-2.08.19-.16-.13.1s0,0-.06,0Zm0,1.44v.25c.32-.34.63-.65.91-.93a1.45,1.45,0,0,0,.18-.16l.85-.87C28.75,10.74,28.1,11.31,27.36,12Zm0-1a6.77,6.77,0,0,1,.49-.53l-.49.39Zm.06.5,0,0v0A.15.15,0,0,0,27.42,11.52Zm.1,3.13,0-.1a.16.16,0,0,1-.09,0A.21.21,0,0,0,27.52,14.65Zm.87-4.33a1.17,1.17,0,0,0,.19-.2l-.46.45q-.39.39-.57.6C27.7,11,28,10.76,28.39,10.32Zm-.84,4a4.36,4.36,0,0,0,.55-.41c.2-.18.54-.49,1-.93a11.78,11.78,0,0,1,.87-.8V12.1a12.3,12.3,0,0,1-1.07,1l-1,.81A3.34,3.34,0,0,0,27.55,14.3ZM30,11.23l0-.06v0c-.09.08-.23.2-.43.35L28,12.8l-.35.31,1.19-.91a3.32,3.32,0,0,0,.27-.21.36.36,0,0,0,.09-.08A4.55,4.55,0,0,1,30,11.23Zm-2.15,3.69.07-.06a.34.34,0,0,1-.15,0,.09.09,0,0,0,.06.06A0,0,0,0,1,27.85,14.92ZM30,12.61l-.06.06-.79.72c-.74.66-1.19,1.08-1.34,1.26a6.6,6.6,0,0,0,1.22-1c.31-.3.64-.62,1-1Zm-1.71,2.54,1.17-1.32c-.25.24-.58.53-1,.9a4.51,4.51,0,0,0-.39.35A.52.52,0,0,0,28.27,15.15Zm.33-9.22-.23.25L28.64,6Zm1.3,2.21c-.44.34-.84.67-1.22,1Zm-.89,7a3,3,0,0,1,.33-.48l0,0a.05.05,0,0,1,0,0,6.44,6.44,0,0,1-.58.48.59.59,0,0,0,.23,0A.2.2,0,0,0,29,15.13Zm-.12-9,0,0,0,0Zm.59.83a2,2,0,0,1-.47.57l.47-.41.07,0C29.53,7.1,29.5,7.05,29.48,7Zm.17.35a.49.49,0,0,1-.08.12,2.2,2.2,0,0,1-.27.29L29,8.06l.66-.6A.3.3,0,0,0,29.65,7.36ZM30,13.79a.86.86,0,0,0,0-.23l-.74.84.72-.59Zm-.15-6,0,0v0l-.16.14Zm.19,1-.33.31A.54.54,0,0,1,29.94,9,.16.16,0,0,1,30,9,1.54,1.54,0,0,0,30,8.8Zm-.27,5.77a.55.55,0,0,0,.08-.15l-.06.07a.64.64,0,0,0-.06.1Zm0-4.91a1.43,1.43,0,0,1,.33-.22v0a.08.08,0,0,0,0,0A3,3,0,0,0,29.73,9.66Zm.08-1.07L30,8.45l0,0ZM30,10.08V9.89l-.21.21a.35.35,0,0,1,.17,0Zm0,.7v0a.75.75,0,0,1-.15.16l.11-.08,0,0Z"/><path class="a" d="M39.68,9.37l.07,0a.13.13,0,0,1,0,.18l-.09.08c-.08.66-.18,1.24-.29,1.75.06.07,0,.19-.1.34l-.1.3a.14.14,0,0,1,0,.09.66.66,0,0,1-.15.35,5.57,5.57,0,0,1-1.54,2.29,2.47,2.47,0,0,1-.66.49.18.18,0,0,1-.17.08,2.76,2.76,0,0,1-.43.15.46.46,0,0,1-.23.1l-.1,0-.39,0a2.9,2.9,0,0,1-1.9-.7,4.9,4.9,0,0,1-.47-.43.06.06,0,0,1-.08,0l-.08,0a.27.27,0,0,1,0-.2,3.67,3.67,0,0,1-.49-.68.09.09,0,0,1-.06-.06.1.1,0,0,1,0-.09s0,0,0,0a.18.18,0,0,1-.09-.08.16.16,0,0,1,0-.12.07.07,0,0,1,0-.06l0,0v0l-.06,0a.21.21,0,0,1,0-.16c0-.06,0-.13-.08-.21l-.06,0a.07.07,0,0,1-.07-.06.16.16,0,0,1-.06-.18s0,0,0,0l-.06,0q-.07-.08.06-.24s0,0,0,0a1.24,1.24,0,0,1-.06-.29l-.1,0c-.05-.07-.05-.13,0-.18l0,0c0-.1,0-.21,0-.31a.21.21,0,0,1-.1-.06q-.07-.09.06-.27c0-.28-.06-.57-.08-.85a.08.08,0,0,1-.07,0c-.07-.08,0-.2.05-.35s0-.44,0-.64a.19.19,0,0,1,0-.16.13.13,0,0,1,0-.08l0,0c-.06-.06,0-.15,0-.25s0-.36,0-.54a.24.24,0,0,1,0-.08,11,11,0,0,1,.18-1.28l0,0a.22.22,0,0,1,.06-.2,2.53,2.53,0,0,1,.25-.56,1.58,1.58,0,0,1,.54-.52.34.34,0,0,1,.12-.06,1.44,1.44,0,0,1,.62-.14h.16A.3.3,0,0,1,33.72,5a.18.18,0,0,1,.09,0s0,0,0,.08l.17.06.08,0h.06a.12.12,0,0,1,.08,0l0,0a1.55,1.55,0,0,1,.58.78v0a1.75,1.75,0,0,1,.06.56l0,0a.18.18,0,0,1,0,.2.07.07,0,0,0,0,.06,4.2,4.2,0,0,0-.12.93.05.05,0,0,1,0,0c.07.08,0,.18,0,.31s0,.23,0,.35l0,0a.2.2,0,0,1,0,.25c0,.12,0,.24,0,.37a.18.18,0,0,1,0,.19l0,.39a.09.09,0,0,1,0,.08.12.12,0,0,1,0,.1s0,.06,0,.07l.07.06c.06.07,0,.16,0,.27s0,.23,0,.37l0,0q0,.31.06.45l.06.06a.19.19,0,0,1,0,.08.07.07,0,0,1,0,.07,1.52,1.52,0,0,0,.39.78l.1,0,0,0,.09,0a2.5,2.5,0,0,0,.39-.91l0,0c0-.05,0-.1,0-.16l.05,0,0,0c.08-.31.15-.66.21-1a.25.25,0,0,0,0-.12s0,0,0,0,0-.12,0-.19a.05.05,0,0,1,0,0c0-.35.1-.69.14-1a.32.32,0,0,1,0-.14s0-.07,0-.09a1.37,1.37,0,0,0,0-.16l-.06,0q-.07-.09.06-.27V7.58a.08.08,0,0,1,0-.1s0,0,0,0,0-.26-.06-.35a2.45,2.45,0,0,1,0-.27.21.21,0,0,1-.08-.06c-.06-.08,0-.2.1-.39A1.14,1.14,0,0,1,36.68,6a.12.12,0,0,1,0-.14l0,0,.08-.06a1.43,1.43,0,0,1,.53-.48.4.4,0,0,1,.29-.14h0l.07,0a2.71,2.71,0,0,1,.41,0h.08A.24.24,0,0,1,38.37,5a.32.32,0,0,1,.14.08v0a1.61,1.61,0,0,1,.33.12A.24.24,0,0,1,39,5.19a.11.11,0,0,1,.09,0,.21.21,0,0,1,0,.19,1.86,1.86,0,0,1,.29.27.13.13,0,1,1,.16.2l0,0a1.5,1.5,0,0,1,.17.46,9.82,9.82,0,0,1,0,2.63s0,.07,0,.09A2.62,2.62,0,0,0,39.68,9.37ZM31.87,8a.77.77,0,0,1,0,.15c.23-.26.73-.75,1.49-1.48.37-.33.6-.57.72-.69a6.34,6.34,0,0,0-1.13.91C32.59,7.25,32.23,7.62,31.87,8Zm.06.66a.38.38,0,0,0-.08.13c.19-.14.57-.44,1.12-.91a.87.87,0,0,0,.14-.12c.45-.4,1-.83,1.5-1.28l0,0V6.37l0,0-1,.84C32.7,8,32.13,8.51,31.93,8.67Zm-.08,1.05a28.44,28.44,0,0,0,2.7-2.3v0a1.3,1.3,0,0,1,0-.21l-.35.29c-.72.62-1.24,1.09-1.58,1.4A5.76,5.76,0,0,0,31.85,9.72Zm0,.38s0,0,0,0l.23-.27-.29.2A.22.22,0,0,0,31.89,10.1Zm0-2.72a.5.5,0,0,1,0,.12c.05,0,.1-.11.17-.17A.5.5,0,0,1,31.93,7.38Zm0,3a1.06,1.06,0,0,0,0,.26l.07-.08c.16-.16.46-.43.92-.84A18,18,0,0,0,34.51,8.2V8.14a4,4,0,0,0-.95.72c-.34.3-.78.73-1.32,1.28A1.22,1.22,0,0,1,31.91,10.39Zm.09.94c.66-.59,1.23-1.12,1.71-1.6L33.4,10A13.38,13.38,0,0,1,32,11.13,1.36,1.36,0,0,0,32,11.33Zm.06-4.68a1.24,1.24,0,0,0-.06.29l.7-.64a6.47,6.47,0,0,0,.72-.78C33.08,5.79,32.63,6.17,32.06,6.65Zm0,5.24c.09-.1.28-.28.56-.54a23.08,23.08,0,0,0,1.85-1.87c-.12.08-.26.19-.43.33s-.51.47-.95.92a12.53,12.53,0,0,1-1.07,1S32.09,11.83,32.1,11.89Zm.17.72c.16-.18.57-.56,1.23-1.15L34,11c-.5.41-1.09.91-1.76,1.49A.49.49,0,0,0,32.27,12.61Zm2.24-3.92V8.57c-.23.25-.71.69-1.44,1.34-.26.23-.45.41-.56.52C33.06,10,33.73,9.4,34.51,8.69ZM33,5.4a.62.62,0,0,1-.15.27l.39-.33ZM33,14a8.79,8.79,0,0,1,1.4-1.42l-.52.45c-.3.28-.61.59-.94.91Zm1.71-3.21a.51.51,0,0,1,0-.13c-.17.17-.52.49-1.07,1l-.39.35.2-.16c.41-.36.82-.7,1.2-1Zm-.56-4.58c-.12.12-.34.34-.68.66a1.53,1.53,0,0,0-.22.21c.37-.28.76-.58,1.19-.89l.12-.08a1.27,1.27,0,0,0-.12-.23A2.24,2.24,0,0,1,34.18,6.22Zm-.84,8.14c0-.07.14-.17.26-.31l.29-.29-.61.54Zm.47-9a2.92,2.92,0,0,1-.35.49l.45-.45Zm0,9.06-.06.11a2.79,2.79,0,0,0,.29-.15c.13-.15.3-.31.51-.51Zm1.22-2.12-.46.44-.8.72.25-.21a10,10,0,0,1,1.17-.93l-.08-.1Zm-.72-.6a1.94,1.94,0,0,0,.29-.31A7.5,7.5,0,0,0,34,12Zm4.92-1.23,0-.19-.35.31-2.08,1.86a29.55,29.55,0,0,1-2.64,2.12,1.45,1.45,0,0,0-.18.21q.57-.35,3.4-2.81C38.56,11,39.16,10.54,39.27,10.49Zm-4.66-.74-.49.53.51-.37A.41.41,0,0,1,34.61,9.75ZM34.2,5.6s0,.06-.06.09l.14,0Zm.21,9.26-.23.16,0,0A1.83,1.83,0,0,1,34.41,14.86ZM34.33,8a.67.67,0,0,1,.18-.08V7.77A1.62,1.62,0,0,1,34.33,8Zm.55,3.67-.39.27-.12.14c.26-.22.44-.33.53-.31A.16.16,0,0,1,34.88,11.64Zm-.08,3.63.12-.12a2.78,2.78,0,0,1,.29-.27h0l-.45.39Zm4-3c0-.05,0-.1.08-.16-.35.33-1.06.92-2.12,1.79l-1.38,1.15-.25.25.27,0,.26-.22c.81-.64,1.46-1.19,2-1.63a8.93,8.93,0,0,0,1.16-1.14l0-.06Zm-3.3.25-.1.1Zm3.92-3a.62.62,0,0,0,0-.19L36.12,12a.05.05,0,0,1,0,0,.19.19,0,0,1,0,.09c.18-.15.37-.3.57-.44C37.47,11,38.41,10.26,39.4,9.52Zm-3,1.71c0,.07,0,.12-.06.18l.16-.16,1.19-1.17.75-.73c-.13.11-.26.24-.39.37l-.66.58A11.74,11.74,0,0,1,36.37,11.23Zm.18-.72a.79.79,0,0,1-.06.22l.7-.61,0,0A15.71,15.71,0,0,1,39,8.51a1.71,1.71,0,0,1,.11-.14c-.61.48-1.42,1.19-2.44,2.12A.13.13,0,0,1,36.55,10.51ZM37,14.44l.06,0-.1,0-.46.45C36.64,14.81,36.81,14.66,37,14.44ZM36.64,10s0,0,0,.09a.38.38,0,0,1,.11-.11l.72-.7c.56-.53,1-.94,1.22-1.21l-2,1.67A2,2,0,0,1,36.64,10Zm.1-.7.14-.15L37,9a.46.46,0,0,1-.23.07h0A2,2,0,0,1,36.74,9.33Zm.14-2.12h-.06a.08.08,0,0,0,0,0Zm-.06,1.48v0l.1-.09Zm.45-2.8c-.2.22-.34.39-.43.5.12-.1.29-.28.52-.52s.4-.4.51-.51h-.08l-.1,0A3.47,3.47,0,0,1,37.27,5.89Zm2.08.19L38.24,7c-.38.33-.68.58-.91.76a3.46,3.46,0,0,0-.49.6,28.5,28.5,0,0,0,2.54-2.13s0,0,0,0ZM36.86,7.56v.08l0,0a2.25,2.25,0,0,1,.31-.31l-.31.21A.15.15,0,0,1,36.86,7.56Zm1.53-2.2c-.26.24-.5.47-.71.7a5,5,0,0,0-.71.82c.2-.14.6-.49,1.21-1l.45-.41ZM39.46,9a3,3,0,0,1,0-.31l-1.92,1.84ZM38.24,13.5a1,1,0,0,0,.11-.21l-.27.25a.24.24,0,0,1,.14-.06Zm0-2.6.58-.49.41-.36C38.85,10.33,38.52,10.62,38.2,10.9Zm.52-4.74c-.11.12-.28.27-.48.47.3-.26.62-.52,1-.78l-.12-.12A1.8,1.8,0,0,1,38.72,6.16Zm.8.72L38.26,8.14q1.08-.89,1.26-1ZM38.32,12l.4-.33a2.11,2.11,0,0,1-.31.21A.47.47,0,0,0,38.32,12Zm.75-.56s0,0,0,0l-.17.11Zm.45-3.62V7.6L39,8.1A2.24,2.24,0,0,1,39.52,7.79Zm-.16,2.12.14-1.55V8.3l0,0A0,0,0,0,1,39.5,8.36Z"/><path class="a" d="M50,9.5a.13.13,0,0,1,.1,0,.34.34,0,0,1,0,.16A1,1,0,0,1,50,10v.23a.05.05,0,0,1,.06,0,.1.1,0,0,1,0,.16l-.06,0v.86a.05.05,0,0,1,0,0c.05.05.05.1,0,.15l0,0v.27l.06,0a.32.32,0,0,1,.06.2.65.65,0,0,1-.1.21s0,.08,0,.12,0,.27,0,.42a.09.09,0,0,1,.08,0c.09.11.06.26-.08.45a.47.47,0,0,1,0,.16h0c0,.05,0,.11,0,.19v.06a1.8,1.8,0,0,1,0,.52,1.3,1.3,0,0,1-.11.43.15.15,0,0,1,0,.14h0a1.57,1.57,0,0,1-.91.77h-.08a.92.92,0,0,1-.33.06h-.31l-.08,0s-.07,0-.08,0l-.31-.08a.17.17,0,0,1-.13,0,.12.12,0,0,1-.1,0,.11.11,0,0,1,0-.11,2,2,0,0,1-.31-.25,8.07,8.07,0,0,1-2,.35H44.8a4.58,4.58,0,0,1-.83-.08l-.12,0h0a.35.35,0,0,1-.13-.08l0,0a3.85,3.85,0,0,1-1.27-.62.38.38,0,0,1-.13,0,.18.18,0,0,1-.1,0,.33.33,0,0,1,0-.14.54.54,0,0,1,0-.08L42,14.32l-.24-.27a.13.13,0,0,1-.07,0,.13.13,0,0,1,0-.1,4.1,4.1,0,0,1-.26-.41.1.1,0,0,1,0,0,.09.09,0,0,1,0-.13c-.08-.16-.15-.33-.22-.51a.1.1,0,0,1-.09,0,.1.1,0,0,1,0-.17h0a.82.82,0,0,1-.06-.19.25.25,0,0,1-.12-.08c-.06-.07-.06-.17,0-.31a9.58,9.58,0,0,1-.14-1.83l-.06-.08a.11.11,0,0,1,0-.08.1.1,0,0,1,0-.09l.09-.06a7.23,7.23,0,0,1,.31-1.24v0a.16.16,0,0,1,0-.09.41.41,0,0,1,0-.09s0,0,0,0l0,0c.05-.13.1-.25.16-.37s.07-.33.4-.66l.33-.4,0-.06,0,0A7.54,7.54,0,0,1,43.4,5.83a3.45,3.45,0,0,1,.34-.19s0,0,0,0a.1.1,0,0,1,.09,0,4.64,4.64,0,0,1,1-.35.83.83,0,0,1,.37-.16.4.4,0,0,1,.16.08h.38a.74.74,0,0,1,.18,0,.19.19,0,0,1,.15.06,1.75,1.75,0,0,1,.41.08l.08,0s.07,0,.08,0a.05.05,0,0,1,0,0l.21.07.11,0,.11,0a1.79,1.79,0,0,1,1-.38.47.47,0,0,1,.17,0h.18a1.82,1.82,0,0,1,.46.06,1.6,1.6,0,0,1,.82.62l.06,0a.32.32,0,0,1,0,.14,1.36,1.36,0,0,1,.12.48l.08,0c0,.07,0,.15-.08.26s0,.22,0,.35a.13.13,0,0,1,.08,0c.08.1.05.24-.08.43v.27a.15.15,0,0,1,0,.16c0,.43,0,.81,0,1.16l.1.06a.12.12,0,0,1,0,.18l-.08,0Zm-6.16-.35.35-.25a2.52,2.52,0,0,1,.51-.39A4,4,0,0,1,45.23,8a.54.54,0,0,1,.2-.1l0,0a.13.13,0,0,1,.1,0c1.72-1.28,2.61-2.11,2.66-2.49a.09.09,0,0,0,0-.11,1.3,1.3,0,0,0-.77.54l-.06.1-.12-.08,0,0a3.22,3.22,0,0,1-.54.57c-.27.24-.57.49-.89.73s-.77.59-1.36,1l-.78.57L42,10.28c-.6.61-.93.93-1,1v.06A19,19,0,0,1,43.79,9.15Zm-2.74,1.19v0a3.19,3.19,0,0,0,.32-.24l-.28.1A.3.3,0,0,1,41.05,10.34Zm.06-.86s0,.11,0,.18l.26-.22a.45.45,0,0,1-.18,0ZM42,10a4.23,4.23,0,0,0-.86.85l.72-.72A.6.6,0,0,1,42,10Zm-.84,2.08v0a3.45,3.45,0,0,0,.53-.4l1.1-1a9.14,9.14,0,0,1,1.27-1.15,1.43,1.43,0,0,1,.09-.27l-.29.23a3.37,3.37,0,0,1-.27.27c-.95.9-1.58,1.47-1.9,1.71A3.42,3.42,0,0,0,41.15,12.07Zm1.19-1.56-.35.27a4.17,4.17,0,0,0-.8.72,2.12,2.12,0,0,0,.31-.21Q41.83,11,42.34,10.51Zm-1.13,1.85a.14.14,0,0,1,0,.06l.16-.16ZM43.72,6.9c-1.39,1.27-2.21,2-2.45,2.31a4.26,4.26,0,0,0,.7-.52c.28-.26.77-.75,1.47-1.46l.7-.72Zm-2.43,3A6.4,6.4,0,0,0,42.57,9L43,8.65c.8-.78,1.42-1.37,1.84-1.77l-.23.17c-.31.29-.67.61-1.09,1s-1.19,1-1.86,1.51A4.92,4.92,0,0,0,41.29,9.91Zm.06-1.24-.06.17a3.82,3.82,0,0,1,.35-.35A1.54,1.54,0,0,1,41.35,8.67Zm0,4.15,1.2-1.05.72-.6a1.81,1.81,0,0,0,.5-.64,3.52,3.52,0,0,0-.85.62c-.3.26-.72.66-1.26,1.19l-.35.35A.93.93,0,0,0,41.37,12.82Zm.13.33,1-.91.23-.19c.4-.37.71-.66.92-.88l-.24.18c-.2.2-.46.44-.77.72l-1.23,1ZM41.66,8a.44.44,0,0,0-.08.11l.54-.39c.2-.16.46-.42.8-.75Zm1.2,4.39c-.7.6-1,1-1.07,1.2a1.25,1.25,0,0,0,.39-.23l.12-.1a16,16,0,0,1,1.2-1.09c.16-.17.31-.33.47-.48,0-.07,0-.13,0-.18C43.54,11.82,43.18,12.11,42.86,12.4Zm-.76,1.65c0-.17.26-.48.74-.92,0,0,0,0-.08.08a2,2,0,0,1-.33.27l-.21.22-.23.23Zm.26.21,0,0Zm.33-.64a3,3,0,0,1-.24.25c.12-.1.32-.3.6-.58l0,0Zm.11,1v0l1.46-1.57-.78.7c-.43.4-.71.66-.85.77Zm1.67-2.29h0a1.71,1.71,0,0,0-.4.31c-.17.14-.44.4-.8.77l-.31.32.21-.18c.46-.36.77-.62.94-.78A2,2,0,0,0,44.47,12.36ZM43.4,14.75a17.9,17.9,0,0,0,2.06-2.08h-.09a14.35,14.35,0,0,0-2.28,2l-.07.07.23.12a.17.17,0,0,1,.06-.06Zm1.75-8.87c-.3.26-.81.77-1.53,1.5-.16.17-.29.32-.41.43l1.21-.93a10.4,10.4,0,0,0,1.51-1.5.2.2,0,0,1-.1,0A3.92,3.92,0,0,0,45.15,5.88Zm-1.57.24,0,0,.53-.41a.79.79,0,0,0-.16.08L43.7,6Zm.1,8.94.08-.14-.18.1Zm.23-5-.21.22a.34.34,0,0,1,.15,0,0,0,0,0,1,0,0A1.36,1.36,0,0,1,43.91,10.1ZM45,14.32c.4-.34,1.09-1,2.06-1.85.26-.22.46-.4.62-.56l-.56.45c-1.09.84-1.84,1.43-2.26,1.78a5.07,5.07,0,0,0-1,1h0A7.09,7.09,0,0,0,45,14.32Zm1.36-3c-.07-.08,0-.21.09-.39,0-.41,0-1,0-1.87,0-.37,0-.6,0-.69a.15.15,0,0,0-.07-.12h0a.15.15,0,0,1-.12,0v0a1.15,1.15,0,0,0-.41-.08h-.08a.45.45,0,0,1-.21.06l-.85.6a2.56,2.56,0,0,0-.45.78,0,0,0,0,1,0,0s0,.1,0,.16l-.08.07a5.31,5.31,0,0,0-.12.84.11.11,0,0,1,.1.06c.07.07,0,.2-.1.37a2.73,2.73,0,0,0,.1.54l0,0a.13.13,0,0,1,0,.13l0,.08,0,0s0,.05,0,.08a.53.53,0,0,0,.13.13h0a.19.19,0,0,1,.16.08s0,.05,0,.08l.15.06h.06a.14.14,0,0,1,.12.06l.23.06h0a.51.51,0,0,1,.25-.08.23.23,0,0,1,.16.06.83.83,0,0,0,.46-.28.13.13,0,0,1,0-.09l.12-.1a.39.39,0,0,0,0-.06.61.61,0,0,0,0-.15l0,0a.23.23,0,0,1,0-.18.35.35,0,0,1,.06-.19Zm-1.89,3.9,1.87-1.73a26,26,0,0,1-2,1.71Zm5.25-5.55V9.39a3.27,3.27,0,0,0-.51.38c-.22.2-.6.56-1.14,1.09a9.6,9.6,0,0,1-1.63,1.38,1.26,1.26,0,0,1-.68.41,2.36,2.36,0,0,1-.22.31c-.14.17-.35.4-.64.7-.15.15-.34.34-.56.54q1.6-1.25,5.3-4.48A.21.21,0,0,1,49.72,9.66ZM45,15.17l1-.93-1.21,1H45Zm0-2.56,0,0,0,0a.21.21,0,0,1-.06.08Zm1.86-6.78c-.41.31-.92.73-1.51,1.24l-.2.18c.44-.33.79-.6,1-.82A5.37,5.37,0,0,0,46.88,5.83Zm-1.61-.39,0,0,.12-.1h0Zm1.13.45a6.08,6.08,0,0,0-.68.54l-.22.2C45.83,6.34,46.12,6.1,46.4,5.89Zm-.72,9.26,2-1.86-.39.33c-.49.45-.87.8-1.15,1l-.62.52A.44.44,0,0,0,45.68,15.15Zm.5-9.75a.79.79,0,0,1-.19.29l.35-.25ZM46.24,15c.62-.43,1.24-.89,1.85-1.38l.17-.14c.29-.26.67-.6,1.17-1l0,0,0,0,.07-.07a.39.39,0,0,0,.08-.1l-3.48,2.82h.06A.07.07,0,0,1,46.24,15Zm.16-7.25a4.7,4.7,0,0,0,.46-.35c.21-.19.55-.51,1-1a4.28,4.28,0,0,1-.33.29c-.41.39-.76.7-1,.94A.2.2,0,0,0,46.4,7.77Zm.27,3.85v0l2.08-1.92c-.33.28-.82.73-1.48,1.34Zm0-1c.18-.2.43-.45.76-.76l-.68.6-.06,0A.32.32,0,0,0,46.71,10.63Zm0-.45q.69-.64,1.32-1.2l.77-.66a8,8,0,0,0,.86-.9c-.2.16-.57.49-1.13,1a10.81,10.81,0,0,1-1.82,1.5Zm0-.81A2.53,2.53,0,0,1,47,9.11a.33.33,0,0,1-.23.08Zm2.5-3.11c-.26.2-.61.5-1,.87l0,0L46.77,8.36v.07L47.35,8c.27-.24.53-.45.78-.64C48.62,6.88,49,6.53,49.25,6.26ZM46.88,8.88a30,30,0,0,0,2.84-2.37V6.39c-.09.09-.38.33-.88.72s-1.1.9-1.37,1.15A3.75,3.75,0,0,0,46.88,8.88Zm1.52-.64c.71-.65,1.15-1,1.32-1.15V6.88c-.12.12-.34.32-.68.62-.69.62-1.18,1.08-1.48,1.38s-.48.47-.62.62C47.19,9.32,47.67,8.9,48.4,8.24Zm-1.26,6.64a1.12,1.12,0,0,1,0-.13,1.19,1.19,0,0,1-.15.09l.08,0ZM49.7,11v-.33L47.15,13l2.49-2A.09.09,0,0,1,49.7,11ZM47.33,5.52l0,0h0Zm2.39,2.91V8.16l-.06,0q-.18.18-.72.66c-.72.65-1.24,1.13-1.55,1.44l-.06,0,.76-.62C48.6,9.29,49.15,8.86,49.72,8.43Zm-.06,4.72c-.47.35-1.23,1-2.29,1.95l.11.07.1-.09c.09-.09.29-.26.58-.51q.78-.68,1.11-1A4.32,4.32,0,0,0,49.66,13.15Zm0-.29v-.29a10.67,10.67,0,0,1-1.13,1l-.23.19a1.84,1.84,0,0,1-.14.14c-.26.26-.46.47-.6.64l.86-.74A15.7,15.7,0,0,1,49.68,12.86Zm-1.61,2.33c.06-.07.2-.22.42-.44a4.18,4.18,0,0,1,.37-.37,4.58,4.58,0,0,0-.42.37l-.63.54.14,0Zm.91-.33.49-.6a8.45,8.45,0,0,0-1.19,1.09h.06a1.31,1.31,0,0,0,.27-.06l.09-.11C48.74,15.12,48.84,15,49,14.86Zm-.56-8.47.89-.77s0,0,0,0l0,0Zm1.26,5.52c0-.09,0-.15,0-.17l-1.28,1.18ZM48.47,5.4a.38.38,0,0,1,0,.1l.25-.23a1,1,0,0,0-.25,0A.76.76,0,0,1,48.47,5.4Zm.51,0c-.13.15-.3.32-.52.53A5.23,5.23,0,0,1,49,5.38Zm.68,8.55v0l0,0Z"/><path class="a" d="M55,8.76s0,0,0,0,0,0,0,0v.33l0,0a.2.2,0,0,1,0,.25c0,.37,0,.76,0,1.17a.09.09,0,0,1,.08,0,.24.24,0,0,1,0,.19.58.58,0,0,1-.14.25v.39q.09.1,0,.18h0v.7c0,.35,0,.76-.06,1.24a.23.23,0,0,1,0,.25,1.71,1.71,0,0,1-.12.47.17.17,0,0,1,0,.14h0a1.65,1.65,0,0,1-.43.6,1.44,1.44,0,0,1-.64.32.33.33,0,0,1-.13.06h0l0,0h-.17a2.59,2.59,0,0,1-.41,0s0,0,0,0h0l-.09,0-.09-.05a.12.12,0,0,1,0-.1,1.52,1.52,0,0,1-.54-.41l0,0a.08.08,0,0,1-.09,0,.1.1,0,0,1-.08-.05c-.06-.06-.05-.14,0-.23l0-.08,0,0a.11.11,0,0,1,0-.09c0-.1-.07-.19-.1-.28s0,0,0,0a.15.15,0,0,1,0-.15.44.44,0,0,1,0-.1c0-.15,0-.32,0-.48a.17.17,0,0,1,0-.14V13a.09.09,0,0,1-.07,0q-.1-.13.09-.39v-.8c0-.9,0-1.54.06-1.9,0,0,0,0,0,0s0-.14,0-.23c0-.53,0-1,0-1.38,0,0,0,0,0,0s0-.15.06-.25v-.1a.19.19,0,0,1-.08,0,.29.29,0,0,1-.06-.19.7.7,0,0,1,.14-.27V7.27a.21.21,0,0,1,0-.2V6.86l0,0a.24.24,0,0,1-.06-.19.55.55,0,0,1,.08-.18v0a.19.19,0,0,1-.06-.17.91.91,0,0,1,.08-.2V5.93a.06.06,0,0,1,0-.08V5.79a1.62,1.62,0,0,1,0-.33.12.12,0,0,1,0-.14c0-.5,0-.86,0-1.08a2.64,2.64,0,0,0,0-.29s0,0,0,0,0-.16,0-.28,0-.25,0-.4a.1.1,0,0,1,0-.16l0,0c0-.18,0-.39.06-.62a.11.11,0,0,1,0-.06c0-.06,0-.14,0-.23a.05.05,0,0,0,0,0c0-.07,0-.17.08-.31a.08.08,0,0,1,0,0,1.64,1.64,0,0,1,.14-.33.12.12,0,0,1,0-.14s0,0,0,0l0,0a1.44,1.44,0,0,1,.68-.55l0,0a1.62,1.62,0,0,1,.49-.08h.13a1.52,1.52,0,0,1,.8.31l.14,0,.13,0a.28.28,0,0,1,0,.28A1.53,1.53,0,0,1,55,2.29c0,.15,0,.31,0,.49a.1.1,0,0,1,.08,0,.21.21,0,0,1,0,.14.54.54,0,0,1-.14.23v.6l0,0A.25.25,0,0,1,55,4,.69.69,0,0,1,55,4.1v.45a.09.09,0,0,1,.06,0,.15.15,0,0,1,0,.13A.5.5,0,0,1,55,4.9.54.54,0,0,1,55,5a.31.31,0,0,1,0,.09.1.1,0,0,1,0,.14c0,.37,0,.67,0,.89v.39c.09.1.09.24,0,.41v.66a.21.21,0,0,1,.08.06c0,.06,0,.14-.06.23l0,0v.7a.05.05,0,0,1,.06,0C55.07,8.66,55.07,8.71,55,8.76ZM51.84,13a6.42,6.42,0,0,1,.48-.45c.51-.45.9-.81,1.19-1.09l-1.67,1.36V13Zm0-1.13V12a28.43,28.43,0,0,0,2.82-2.56,3.57,3.57,0,0,0-.6.44c-.25.22-.64.59-1.19,1.11A6.4,6.4,0,0,1,51.85,11.87Zm0-.52a.69.69,0,0,0,0,.13l.32-.31,0,0A1,1,0,0,1,51.87,11.35Zm0,2.52a.6.6,0,0,0,.14-.11l-.06,0A.34.34,0,0,1,51.87,13.87Zm0-4.12v.18l.24-.25c.26-.26.61-.61,1.07-1l.07-.08Zm0-.58v.18c.13-.12.39-.33.78-.65.7-.56,1.19-1,1.48-1.26a3,3,0,0,0,.48-.5Zm0-1.07v.26l.25-.26c.25-.24.59-.59,1-1Zm2.78.53v-.1l-.39.31c-.71.58-1.24,1-1.59,1.34a4.46,4.46,0,0,0-.8.86c.18-.13.64-.53,1.38-1.21A16.39,16.39,0,0,1,54.71,8.63ZM52,7.42v0c.21-.15.63-.52,1.27-1.1a9.71,9.71,0,0,0-.86.69A3.19,3.19,0,0,0,52,7.42Zm0-.89c.3-.21.85-.65,1.65-1.34l0,0c-.58.43-1,.73-1.2.91A3.08,3.08,0,0,0,52,6.53ZM52,4.9v.17l.52-.48a20,20,0,0,0,2.06-2,5.32,5.32,0,0,0-1.36,1c-.42.42-.82.82-1.18,1.21Zm.1-1.63a.23.23,0,0,0,0,.09l.85-.75a14.31,14.31,0,0,0,1.42-1.36,13,13,0,0,0-1.13,1A9.44,9.44,0,0,1,52.11,3.27ZM52.94,5c.52-.42,1.08-.9,1.67-1.41a.13.13,0,0,1,.1,0v-.1c-.18.17-.53.46-1.05.88s-1,.77-1.18,1a2.35,2.35,0,0,0-.39.4l.09-.07Zm.57-.11-.41.31c-.31.26-.57.46-.76.6a2.51,2.51,0,0,1-.25.23C52.39,5.8,52.86,5.42,53.51,4.88Zm1.16-3.09L54.46,2l-.74.64a14.37,14.37,0,0,0-1.61,1.5,2.72,2.72,0,0,0,.62-.45c.17-.13.37-.29.6-.5A1.45,1.45,0,0,1,53.51,3c.38-.36.78-.75,1.18-1.16A.24.24,0,0,0,54.67,1.79Zm-2.5.74a1.83,1.83,0,0,1,0,.21l.44-.5A2.47,2.47,0,0,1,52.17,2.53ZM53.7,7l.47-.44a2.16,2.16,0,0,1,.28-.26,1.37,1.37,0,0,1,.18-.15.19.19,0,0,1,.12,0V5.85L52.2,8.43a3.71,3.71,0,0,0,.39-.31C52.83,7.92,53.2,7.55,53.7,7ZM52.53,14.8l.18-.15c.52-.48.91-.86,1.18-1.15s.37-.4.49-.54l-2.16,1.75a2.18,2.18,0,0,0,.22.21Zm2.2-7V7.5c-1.1,1-1.92,1.83-2.45,2.37.34-.32.92-.83,1.75-1.51l.68-.59S54.73,7.77,54.73,7.75Zm-.1,4.3a1,1,0,0,0,0-.2c-.92.79-1.64,1.45-2.15,2,.09-.07.22-.2.4-.37A8.85,8.85,0,0,1,54.63,12.05Zm0-1.85s0-.06,0-.12l-.17.16-.92.8c-.44.36-.75.63-1,.81Zm-2,4.86.12-.12-.14.12Zm1.9-10.38-.68.63-1,.91c.56-.45,1.17-1,1.83-1.54V4.59A.74.74,0,0,1,54.59,4.68Zm-1.3,10.49a3.33,3.33,0,0,1,.72-.83l.35-.35c-.34.27-.78.66-1.34,1.16a1.14,1.14,0,0,0,.25,0ZM53,1l.06,0h0Zm1,0L53,2.1h0c.56-.54.92-.89,1.11-1Zm.29,12.57c-.19.16-.5.44-.93.86l-.16.13.2-.15A12.16,12.16,0,0,0,54.32,13.56ZM53.7.88a1.05,1.05,0,0,1-.15.21L53.76.9Zm.76,13.42,0-.08a3.59,3.59,0,0,0-.31.29,5.09,5.09,0,0,0-.41.41C54,14.75,54.2,14.55,54.46,14.3Zm.29-8.78a.13.13,0,0,1,0-.08l-.8.72.29-.23c.28-.22.43-.35.47-.37A.15.15,0,0,0,54.75,5.52Zm-.23-4.08A6.77,6.77,0,0,1,54,2l.58-.48Zm.15,9.3v-.07l-.46.48Zm0-2.56s0,0,0-.06l-.31.31Zm-.1,4.93v0s0,0,0,.05Zm.12-10.82h0l-.1.09h0l.08,0v-.1Zm0,4.26v0h0l-.1.12.08-.06Zm0,2.56v0a.05.05,0,0,0,0,0s0,0,0,0Zm-.06-6.17.06,0v0A.33.33,0,0,1,54.65,2.94Z"/><path class="a" d="M60,8.76s0,0,0,0,0,0,0,0v.33l0,0a.21.21,0,0,1,0,.25c0,.37,0,.76,0,1.17a.09.09,0,0,1,.07,0,.21.21,0,0,1,0,.19.54.54,0,0,1-.13.25v.39a.13.13,0,0,1,0,.18h0v.7c0,.35,0,.76-.06,1.24a.23.23,0,0,1,0,.25,1.21,1.21,0,0,1-.12.47.14.14,0,0,1,0,.14h0a1.54,1.54,0,0,1-.43.6,1.45,1.45,0,0,1-.63.32.35.35,0,0,1-.14.06h0l0,0h-.17a2.59,2.59,0,0,1-.41,0s0,0,0,0h0a.14.14,0,0,1-.09,0l-.08-.05a.08.08,0,0,1,0-.1,1.56,1.56,0,0,1-.55-.41l0,0a.07.07,0,0,1-.08,0,.11.11,0,0,1-.09-.05.17.17,0,0,1,0-.23s0-.05,0-.08l0,0a.11.11,0,0,1,0-.09c0-.1-.07-.19-.1-.28l0,0a.15.15,0,0,1,0-.15.2.2,0,0,1,0-.1,3.77,3.77,0,0,1,0-.48.12.12,0,0,1,0-.14V13a.09.09,0,0,1-.08,0c-.07-.09,0-.22.1-.39v-.8c0-.9,0-1.54,0-1.9l0,0c0-.06,0-.14,0-.23,0-.53,0-1,0-1.38,0,0,0,0,0,0s0-.15.06-.25v-.1l-.08,0a.36.36,0,0,1,0-.19.55.55,0,0,1,.13-.27V7.27a.24.24,0,0,1,0-.2V6.86l0,0a.24.24,0,0,1-.06-.19.91.91,0,0,1,.08-.18v0a.19.19,0,0,1-.06-.17,2.05,2.05,0,0,1,.08-.2V5.93a.11.11,0,0,1,0-.08V5.79a2.92,2.92,0,0,1,0-.33.12.12,0,0,1,0-.14c0-.5,0-.86,0-1.08a2.64,2.64,0,0,0,0-.29s0,0,0,0,0-.16,0-.28,0-.25,0-.4a.1.1,0,0,1,0-.16l0,0c0-.18,0-.39.06-.62,0,0,0,0,0-.06a2,2,0,0,1,0-.23l0,0c-.06-.07,0-.17.07-.31a.08.08,0,0,1,0,0,2.52,2.52,0,0,1,.14-.33.11.11,0,0,1,0-.14l0,0,0,0A1.4,1.4,0,0,1,57.9.72l0,0a1.62,1.62,0,0,1,.49-.08h.14a1.52,1.52,0,0,1,.79.31l.14,0,.13,0a.24.24,0,0,1,0,.28,1.54,1.54,0,0,1,.32,1.06,3.78,3.78,0,0,0,0,.49.09.09,0,0,1,.07,0A.21.21,0,0,1,60,3a.61.61,0,0,1-.13.23v.6l0,0A.35.35,0,0,1,60,4l0,.13v.45a.1.1,0,0,1,0,0,.15.15,0,0,1,0,.13.34.34,0,0,1-.08.18.32.32,0,0,0,0,.08s0,.07,0,.09a.12.12,0,0,1,0,.14c0,.37,0,.67,0,.89v.39c.1.1.09.24,0,.41v.66a.19.19,0,0,1,.07.06c.05.06,0,.14-.06.23l0,0v.7a.05.05,0,0,1,0,0C60,8.66,60,8.71,60,8.76ZM56.79,13l.48-.45c.51-.45.9-.81,1.19-1.09l-1.67,1.36V13Zm0-1.13V12a27.85,27.85,0,0,0,2.81-2.56,3.57,3.57,0,0,0-.6.44c-.24.22-.64.59-1.18,1.11A6.91,6.91,0,0,1,56.81,11.87Zm0-.52a.32.32,0,0,0,0,.13l.31-.31.06,0A1.08,1.08,0,0,1,56.83,11.35Zm0,2.52a.58.58,0,0,0,.13-.11l-.05,0Zm0-4.12v.18a2.51,2.51,0,0,1,.23-.25c.26-.26.61-.61,1.07-1l.08-.08Zm0-.58v.18c.13-.12.39-.33.77-.65.7-.56,1.19-1,1.48-1.26a3,3,0,0,0,.48-.5Zm0-1.07v.26l.25-.26,1-1Zm2.77.53v-.1l-.39.31c-.71.58-1.24,1-1.59,1.34a4.3,4.3,0,0,0-.79.86c.18-.13.64-.53,1.37-1.21A18.27,18.27,0,0,1,59.66,8.63ZM56.91,7.42v0c.2-.15.62-.52,1.26-1.1-.38.28-.66.51-.86.69A3,3,0,0,0,56.91,7.42Zm0-.89c.3-.21.85-.65,1.66-1.34l0,0c-.59.43-1,.73-1.21.91A3.86,3.86,0,0,0,56.92,6.53ZM57,4.9v.17l.53-.48a22.73,22.73,0,0,0,2.06-2,5.15,5.15,0,0,0-1.36,1c-.43.42-.83.82-1.19,1.21Zm.1-1.63,0,.09.86-.75a13.74,13.74,0,0,0,1.41-1.36,13.52,13.52,0,0,0-1.12,1A10,10,0,0,1,57.06,3.27ZM57.9,5c.51-.42,1.07-.9,1.67-1.41a.1.1,0,0,1,.09,0v-.1c-.18.17-.53.46-1,.88s-1,.77-1.18,1a2.35,2.35,0,0,0-.39.4l.1-.07C57.32,5.46,57.57,5.25,57.9,5Zm.56-.11-.41.31c-.31.26-.56.46-.76.6A2.51,2.51,0,0,1,57,6C57.34,5.8,57.81,5.42,58.46,4.88Zm1.16-3.09s-.11.11-.21.21l-.74.64a15.43,15.43,0,0,0-1.61,1.5,2.72,2.72,0,0,0,.62-.45c.17-.13.37-.29.6-.5.06,0,.11-.11.18-.16.39-.36.78-.75,1.18-1.16A.12.12,0,0,0,59.62,1.79Zm-2.5.74a1.83,1.83,0,0,1,0,.21l.45-.5A2.88,2.88,0,0,1,57.12,2.53ZM58.65,7l.47-.44a3.08,3.08,0,0,1,.28-.26l.19-.15a.15.15,0,0,1,.11,0V5.85L57.16,8.43l.39-.31C57.78,7.92,58.15,7.55,58.65,7ZM57.49,14.8l.17-.15c.52-.48.92-.86,1.19-1.15s.37-.4.48-.54l-2.15,1.75a1.39,1.39,0,0,0,.21.21Zm2.19-7V7.5c-1.1,1-1.91,1.83-2.44,2.37.33-.32.91-.83,1.74-1.51l.68-.59S59.68,7.77,59.68,7.75Zm-.09,4.3c0-.11,0-.17,0-.2-.91.79-1.63,1.45-2.15,2,.09-.07.23-.2.41-.37A8.53,8.53,0,0,1,59.59,12.05Zm0-1.85s0-.06,0-.12l-.17.16-.91.8q-.66.54-1,.81Zm-2,4.86.12-.12-.14.12ZM59.55,4.68c-.12.11-.35.31-.68.63l-1,.91c.55-.45,1.16-1,1.82-1.54V4.59A.59.59,0,0,1,59.55,4.68Zm-1.3,10.49a3.44,3.44,0,0,1,.71-.83l.35-.35c-.33.27-.78.66-1.34,1.16a1.18,1.18,0,0,0,.26,0ZM58,1l.06,0h0Zm1,0L58,2.1h0c.56-.54.93-.89,1.11-1Zm.29,12.57c-.19.16-.5.44-.93.86l-.15.13a1.25,1.25,0,0,1,.19-.15A12.16,12.16,0,0,0,59.27,13.56ZM58.65.88a.59.59,0,0,1-.15.21L58.71.9Zm.76,13.42,0-.08-.31.29a5.09,5.09,0,0,0-.41.41C58.93,14.75,59.15,14.55,59.41,14.3Zm.29-8.78a.13.13,0,0,1,0-.08l-.79.72.29-.23c.27-.22.42-.35.46-.37A.15.15,0,0,0,59.7,5.52Zm-.23-4.08c-.12.14-.3.33-.54.56l.58-.48S59.48,1.47,59.47,1.44Zm.15,9.3v-.07c-.11.13-.27.29-.46.48Zm0-2.56a.08.08,0,0,0,0-.06l-.31.31Zm-.09,4.93v0s0,0,0,.05A.05.05,0,0,1,59.57,13.11Zm.11-10.82h0a.75.75,0,0,0-.09.09h0l.08,0v-.1Zm0,4.26v0h0a.94.94,0,0,1-.09.12.14.14,0,0,1,.07-.06Zm0,2.56v0l0,0,0,0ZM59.6,2.94l.06,0v0A.33.33,0,0,1,59.6,2.94Z"/><path class="a" d="M70.35,6.32a1.63,1.63,0,0,1,0,.54A10.32,10.32,0,0,1,70,7.93a.11.11,0,0,1,0,.17l0,0c-.09.3-.21.63-.35,1v.1a.82.82,0,0,1-.16.33.68.68,0,0,1-.08.19.15.15,0,0,1,0,.09.16.16,0,0,1,0,.09L69.3,10l-.12.27q-.14.38-.21.54a4,4,0,0,1-.16.43.39.39,0,0,1,0,.23,1.06,1.06,0,0,1-.33.55c0,.13-.1.23-.13.31a.16.16,0,0,1,0,.15h0a.05.05,0,0,1,0,0l-.12.31a.35.35,0,0,1,0,.2,1.31,1.31,0,0,1-.31.58,5.64,5.64,0,0,0-.21.56.09.09,0,0,1,0,.1.4.4,0,0,1-.15.25,1.21,1.21,0,0,1-.07.2.72.72,0,0,1-.07.15l-.5,1.38a.22.22,0,0,1,0,.14.76.76,0,0,1-.2.33c-.06.17-.12.32-.17.45h0c.09.11,0,.28-.22.53l-.15.41a.11.11,0,0,1,0,.11,2.13,2.13,0,0,1-.14.35c0,.07,0,.15-.07.24l0,0c0,.06,0,.14-.06.23l-.06.06a2.82,2.82,0,0,1-.18.44.13.13,0,0,1,0,.06.11.11,0,0,1,0,.14l0,0,0,0a1.51,1.51,0,0,1-1.32.7,1.81,1.81,0,0,1-.51-.08.94.94,0,0,1-.15-.06.14.14,0,0,1-.12,0,.13.13,0,0,1-.1,0,.12.12,0,0,1,0-.12l-.15-.11a.19.19,0,0,1-.12,0,.13.13,0,0,1-.09,0A.12.12,0,0,1,63,20h0a.25.25,0,0,1-.14-.08.21.21,0,0,1,0-.17.16.16,0,0,1,0-.1,1.59,1.59,0,0,1-.12-.27l-.05,0a.1.1,0,0,1-.08-.06c-.07-.08,0-.19.08-.35a1.12,1.12,0,0,1,0-.41l0-.11v-.06a.34.34,0,0,1,.08-.2.41.41,0,0,0,0-.07l.23-.68v0s0-.05,0-.08l.16-.49c-.05-.06,0-.16.1-.29v0l0-.07,0,0a.37.37,0,0,1-.07-.29,1.26,1.26,0,0,1,.27-.51v0a.64.64,0,0,1,.21-.31.1.1,0,0,0,0-.06.51.51,0,0,1,0-.13.89.89,0,0,1,.2-.33.68.68,0,0,0-.08-.39.12.12,0,0,1-.1-.06.08.08,0,0,1,0-.08.31.31,0,0,1,0-.08,1.12,1.12,0,0,0-.08-.17.13.13,0,0,1-.13,0,.1.1,0,0,1,0-.17l0,0L63,12.45h0a.17.17,0,0,1-.1,0c0-.07,0-.13,0-.18l0,0a.68.68,0,0,0-.08-.15h0a.29.29,0,0,1-.13-.08c-.06-.07,0-.14,0-.22-.15-.35-.29-.68-.42-1a.11.11,0,0,1-.08,0,.13.13,0,0,1,0-.18l-.27-.68h0a.13.13,0,0,1-.1,0,.21.21,0,0,1,0-.17.19.19,0,0,1,0-.12c-.12-.32-.22-.62-.31-.89l0,0a.12.12,0,0,1,0-.14A14.51,14.51,0,0,1,61,7.09a1.79,1.79,0,0,1,0-.23l0,0a.22.22,0,0,1,0-.27,1,1,0,0,1,0-.18V6.32a.26.26,0,0,1,0-.22,1.48,1.48,0,0,1,.39-.69,1.55,1.55,0,0,1,.7-.38,2.21,2.21,0,0,1,.37,0,1.69,1.69,0,0,1,.5.08h0a.12.12,0,0,1,.08,0,1.61,1.61,0,0,1,.7.64c0,.12.11.27.18.47a.07.07,0,0,0,0,.06,12.3,12.3,0,0,0,.54,1.32h0a.19.19,0,0,1,0,.08l.13.31h0s.07,0,.08,0a.14.14,0,0,1,0,.17.93.93,0,0,0,0,.1l0,.07a.25.25,0,0,1,.1.08s0,.09,0,.16l.09.19.08,0a.12.12,0,0,1,.1.06q.06.08-.06.21a1.38,1.38,0,0,0,.14.3s0,0,0,0a.2.2,0,0,1,0,.11l0,.06,0,.06h0a.13.13,0,0,1,.1,0,.2.2,0,0,1,0,.21l.08.18h0a.11.11,0,0,1,.07,0s0,0,0,0l0,0c.07-.18.13-.34.2-.5V9.42a.86.86,0,0,1,.21-.4l.16-.37a.13.13,0,0,1,0-.12.93.93,0,0,1,.21-.41.31.31,0,0,0,0-.09.46.46,0,0,1,0-.1l.54-1.3c-.09-.11,0-.31.23-.61a1.56,1.56,0,0,1,.88-.93l0,0a.09.09,0,0,1,.09,0A1.4,1.4,0,0,1,68.85,5a2.58,2.58,0,0,1,.39,0l.15,0,.14,0a.17.17,0,0,1,.12.06.12.12,0,0,1,0,.1,1.67,1.67,0,0,1,.41.39s0,0,0,0a.08.08,0,0,1,.08.06.12.12,0,0,1,0,.13.44.44,0,0,1,0,.1c0,.1.07.21.1.31A.12.12,0,0,1,70.35,6.32Zm-8.22-.61a8.25,8.25,0,0,0-.85.84c.15-.12.4-.33.75-.64a1.7,1.7,0,0,1,.24-.22.53.53,0,0,1,.09-.11l.35-.33-.13,0a.74.74,0,0,1-.14.17Zm-.78,1.67c.38-.38.72-.74,1-1.06,0,0-.09.09-.17.15a11.72,11.72,0,0,1-.91.74A1.54,1.54,0,0,0,61.35,7.38Zm.1.39.45-.39.79-.75.51-.53c-.45.35-1.05.87-1.79,1.56A.43.43,0,0,0,61.45,7.77Zm.08.27a.76.76,0,0,0,.06.2L61.76,8l.84-.86c.38-.39.65-.66.79-.82l-.35.3a.87.87,0,0,0-.15.13L62.65,7l-.56.53a0,0,0,0,0,0,0A4,4,0,0,1,61.53,8Zm.13-2.33,0,.08.21-.23a3.31,3.31,0,0,0,.27-.27l-.12,0a.44.44,0,0,1-.09.16A1.89,1.89,0,0,1,61.66,5.71Zm.12,3.09A2.16,2.16,0,0,1,62,8.59L62.5,8c.4-.38.69-.68.87-.87l-1.69,1.4A2.29,2.29,0,0,1,61.78,8.8ZM63,5.34c-.19.19-.38.36-.58.53a2.06,2.06,0,0,0-.21.21q-.32.3-.51.51l.35-.31a11.73,11.73,0,0,1,1.07-.88ZM61.9,9.05h0v0Zm.23.41q.39-.29,1.2-1a1.06,1.06,0,0,1-.15.14c-.42.31-.7.53-.86.66Zm.06.49.1-.12c.07-.09.19-.22.35-.39l.21-.23a9,9,0,0,1-.72.56A.76.76,0,0,0,62.19,10Zm.11.25.06.16.47-.47q.22-.21.45-.45A9.44,9.44,0,0,1,62.3,10.2Zm.26.64q1.39-1.46,2-2.1a7.85,7.85,0,0,0-1.09.9l-.45.42-.54.55A2.29,2.29,0,0,0,62.56,10.84Zm.15.41a1.14,1.14,0,0,1,.1-.19.41.41,0,0,1-.16,0A.46.46,0,0,1,62.71,11.25Zm.84-4.7-.76.78c.56-.46.89-.72,1-.8s0-.14-.06-.18h0Zm-.68,5,0,0-.06,0,0,.06Zm0,7.11.31-.31c.37-.38.91-.87,1.59-1.48q.65-.59,1.44-1.26l-.45.33a1.92,1.92,0,0,1-.29.21c0,.06-.12.11-.19.18-.59.52-1.31,1.2-2.18,2a1.57,1.57,0,0,1-.21.19v0A.12.12,0,0,0,62.87,18.67Zm.1-7.4a6.42,6.42,0,0,0,1.16-.93c.3-.28.62-.57,1-.9,0-.06-.06-.13-.09-.21l-.08.06c-.55.49-.95.88-1.23,1.16A4.53,4.53,0,0,0,63,11.27ZM63,12s0,0,0,0,0,0,0,0c.15-.15.29-.29.45-.43A2.92,2.92,0,0,1,63,12Zm.06,7.69a2.29,2.29,0,0,0,.27-.17.69.69,0,0,1-.25.09l0,.06S63.08,19.65,63.08,19.66Zm.23-14.08a.77.77,0,0,1-.19.27l.29-.19A.27.27,0,0,0,63.31,5.58Zm-.13,6.76s0,0,0,0a.09.09,0,0,1,0,.05c.3-.26.57-.52.83-.78C63.65,12,63.36,12.21,63.18,12.34Zm0,5.2a1,1,0,0,1,0,.1l.06,0,.17-.13ZM64.4,7.91a.43.43,0,0,0-.07.1c-.1.09-.27.27-.53.54l-.6.64.6-.5.56-.47a.48.48,0,0,0,.12-.1C64.44,8,64.42,8,64.4,7.91ZM63.31,19.06c.24-.2.62-.49,1.15-.88.12-.11.29-.29.51-.52q-.82.64-1.23,1Zm.14-6.41.33-.29a8.91,8.91,0,0,1,.91-.86c.33-.31.56-.54.7-.7a4.45,4.45,0,0,0-.48.41c-.25.21-.6.53-1.07,1a6.94,6.94,0,0,1-.51.49l0,.06A.2.2,0,0,0,63.45,12.65ZM64,7a1.07,1.07,0,0,0-.07-.15,5,5,0,0,1-.59.66A7.66,7.66,0,0,1,64,7Zm-.6,13,.22-.23c-.11.07-.19.14-.26.19Zm0-3.13a.14.14,0,0,0,0,.06.3.3,0,0,1,0,.08,4.4,4.4,0,0,1,.35-.27A.79.79,0,0,1,63.45,16.88ZM64.64,9l-.8.83c-.13.13-.27.27-.41.43l1-.89L64.87,9a.43.43,0,0,0-.08-.14Zm2.09,4.83c-1.62,1.36-2.64,2.26-3.08,2.68a9.35,9.35,0,0,0,.93-.72c.4-.34,1-.93,1.94-1.76A2,2,0,0,0,66.73,13.85Zm-2.93-.44c.1,0,.38-.19.84-.59.28-.27.8-.79,1.55-1.57L66.4,11,64,13a.78.78,0,0,0-.22.39S63.79,13.39,63.8,13.41Zm0,2.33-.06.13,3.42-2.78c-.34.25-.82.59-1.46,1l-.42.3-.06,0C64.47,15.19,64,15.62,63.84,15.74Zm.14,4.5a1.44,1.44,0,0,1,.17-.29,3.6,3.6,0,0,1-.33.25A.29.29,0,0,0,64,20.24Zm-.12-6.41L64,14l.62-.49,1-.89,1.09-1C65.76,12.31,64.84,13.06,63.86,13.83Zm1.51-2.56-.33.27-.17.14c-.17.17-.43.4-.78.72l0,0a.08.08,0,0,1,0,0l0,0a5.57,5.57,0,0,0,.52-.44C64.75,11.86,65,11.59,65.37,11.27ZM65,18.09l-.08.06a2.49,2.49,0,0,0-.31.23L64,19l.21-.17.41-.35Zm1.88-2.45a2.23,2.23,0,0,0,.09-.23c0-.11,0-.17.07-.18l-2,1.71-1,.95.61-.5.93-.78.64-.51.39-.3.21-.13ZM64,19.74,65,19Zm.24-12.06s0,0,0,0S64.27,7.66,64.27,7.68Zm2.44,4.44c-.45.38-.94.77-1.47,1.19a6.5,6.5,0,0,0-.93,1,27.22,27.22,0,0,0,2.15-1.86l1-.92C67.24,11.7,67,11.9,66.71,12.12Zm-2,8.05a1.25,1.25,0,0,1,.31-.55l-.7.64A1.12,1.12,0,0,0,64.75,20.17Zm3.81-8.94a.45.45,0,0,0,0-.08c-.25.24-.83.71-1.75,1.42s-1.58,1.28-1.94,1.59l-.31.29Zm-.85,2.23.09-.25c-.18.16-.55.49-1.11,1-.91.86-1.58,1.46-2,1.81.76-.57,1.36-1.06,1.83-1.46A9.08,9.08,0,0,0,67.71,13.46ZM65.2,10.28l-.37.39c.19-.16.38-.32.56-.49a.19.19,0,0,0,0-.1A.87.87,0,0,1,65.2,10.28Zm.5,8.55a1.67,1.67,0,0,1,.06-.2l-.58.56A2,2,0,0,1,65.7,18.83Zm-.33.81v0l0,0v0Zm1.17-3.05a.34.34,0,0,0,0-.13,3.22,3.22,0,0,0-.41.35c-.14.12-.32.3-.54.52.19-.14.36-.27.5-.39Zm3.4-9.17c0-.19.1-.39.14-.58a.05.05,0,0,1-.06,0l-.06,0-.16,0C67.93,8.47,66.71,9.53,66.17,10l-.19.19c0,.12-.09.25-.16.41l1.05-.78c.61-.57,1.09-1,1.45-1.34a11.24,11.24,0,0,1,1-.8,1.23,1.23,0,0,1,.61-.29Zm-3.25,3.81a21.66,21.66,0,0,0,2.7-2.43h0a1,1,0,0,0-.49.23,6.9,6.9,0,0,0-.81.68q-.49.45-.81.78l-.91.93a1.7,1.7,0,0,1-.33.33Zm-.4,6h0Zm.11-8.14c0,.08-.05.15-.07.22.15-.12.4-.31.73-.59a11.47,11.47,0,0,1,2.59-2.15l.44-.37,0-.14a17.11,17.11,0,0,1-1.52,1.25A20.19,20.19,0,0,0,66.4,9.13Zm.53-1.05-.08.1.12-.1Zm.27-.83v0a.14.14,0,0,0,0,.06.32.32,0,0,1,.1-.1Zm.45-1.09,0,0c.3-.23.66-.54,1.09-.93a.67.67,0,0,0-.28.06A8.3,8.3,0,0,0,67.65,6.16Zm1.51-.43L67.78,7.05l.66-.5L69,6.12l.64-.62-.16-.1A2.44,2.44,0,0,1,69.16,5.73Zm-.33,4.78a2.29,2.29,0,0,1,.1-.23l-.62.46-.22.2c.38-.3.62-.44.72-.43ZM68.46,8.7c.69-.5,1.12-.84,1.3-1a6.46,6.46,0,0,0-1,.77Zm.59,1,.13-.18-.29.23Zm0-4.45a.94.94,0,0,0,0,.09.35.35,0,0,1,.09-.07A.07.07,0,0,0,69.06,5.25Zm.49,3.36.08-.2-.18.16A.13.13,0,0,1,69.55,8.61Zm.25-2.86.06,0,0,0A.09.09,0,0,1,69.8,5.75Zm.31.84v0l0,0S70.1,6.57,70.11,6.59Z"/></svg>