<svg xmlns="http://www.w3.org/2000/svg" viewBox="0 0 45 36"><defs><style>.a{fill:#29abe2;}</style></defs><path class="a" d="M10.74,5.86a.14.14,0,0,1,.11,0,.32.32,0,0,1,0,.18.7.7,0,0,1-.15.28v.26a.08.08,0,0,1,.07,0,.13.13,0,0,1,0,.18l-.07.06v1a0,0,0,0,1,0,0c.06.06.05.12,0,.18l0,0v.3l.07,0a.35.35,0,0,1,.06.21.52.52,0,0,1-.11.24.09.09,0,0,1,0,.13c0,.15,0,.31,0,.48a.13.13,0,0,1,.09,0c.1.12.07.29-.09.5a1.1,1.1,0,0,1,0,.18h0a.2.2,0,0,1,0,.22v.06a2.88,2.88,0,0,1,0,.59,1.23,1.23,0,0,1-.13.48.14.14,0,0,1,0,.15h0a1.78,1.78,0,0,1-1,.87H9.33a1.15,1.15,0,0,1-.37.06H8.61l-.09,0a.08.08,0,0,1-.08,0l-.35-.09a.18.18,0,0,1-.15.06.2.2,0,0,1-.11-.06.12.12,0,0,1,0-.13,2,2,0,0,1-.35-.28,8.64,8.64,0,0,1-2.28.39H5a5.64,5.64,0,0,1-.93-.08l-.13,0h0l-.15-.09,0,0a4.24,4.24,0,0,1-1.41-.7.37.37,0,0,1-.15.05.13.13,0,0,1-.11-.05.25.25,0,0,1,0-.15l0-.09a1.12,1.12,0,0,1-.2-.17L1.59,11a.14.14,0,0,1-.09,0,.14.14,0,0,1,0-.11,3.4,3.4,0,0,1-.28-.45l-.07-.05a.12.12,0,0,1,0-.15,4.1,4.1,0,0,1-.24-.56.16.16,0,0,1-.11-.05.12.12,0,0,1,0-.19h0A.9.9,0,0,1,.7,9.12.18.18,0,0,1,.57,9C.5,9,.5,8.84.59,8.69a9.55,9.55,0,0,1-.15-2L.36,6.55a.14.14,0,0,1,0-.09.13.13,0,0,1,0-.1s0,0,.11-.07A8.05,8.05,0,0,1,.83,4.9v0a.1.1,0,0,1,0-.1.12.12,0,0,1,0-.09.05.05,0,0,0,0,0l0,0c.06-.14.11-.28.17-.41s.08-.38.46-.74A5.32,5.32,0,0,1,1.94,3,.15.15,0,0,1,2,3L2,3a7.8,7.8,0,0,1,1.4-1.2,3.62,3.62,0,0,1,.37-.22,0,0,0,0,1,0,0,.14.14,0,0,1,.11,0,4.89,4.89,0,0,1,1.15-.4A.86.86,0,0,1,5.48.88.31.31,0,0,1,5.65,1h.44a.53.53,0,0,1,.2,0A.24.24,0,0,1,6.46,1a1.79,1.79,0,0,1,.46.09.11.11,0,0,1,.08,0s.08,0,.09.05a.08.08,0,0,1,0,0l.24.09a.37.37,0,0,1,.24,0A2.13,2.13,0,0,1,8.68.79a.41.41,0,0,1,.19,0h.2A2.31,2.31,0,0,1,9.59.9a1.69,1.69,0,0,1,.91.7l.07,0a.28.28,0,0,1,0,.15,1.77,1.77,0,0,1,.13.55.26.26,0,0,1,.09,0c.06.07,0,.17-.09.28s0,.25,0,.39a.14.14,0,0,1,.09.05q.13.15-.09.48v.3a.17.17,0,0,1,0,.17c0,.48,0,.92,0,1.31a.29.29,0,0,1,.11.06.13.13,0,0,1,0,.2l-.09,0ZM3.85,5.47l.39-.28a2.31,2.31,0,0,1,.57-.44,4.44,4.44,0,0,1,.65-.54.65.65,0,0,1,.22-.11,0,0,0,0,1,0,0,.16.16,0,0,1,.11,0c1.93-1.43,2.92-2.36,3-2.78a.17.17,0,0,0,0-.13,1.51,1.51,0,0,0-.87.61l-.07.11-.13-.09,0,0a4.1,4.1,0,0,1-.61.64q-.47.4-1,.81L4.55,4.32c-.39.27-.69.48-.87.63L1.87,6.73A15.54,15.54,0,0,1,.76,7.82v.06A23.14,23.14,0,0,1,3.85,5.47ZM.79,6.79v0l.34-.26-.3.11Zm.06-1c0,.06,0,.12,0,.19l.28-.24a.53.53,0,0,1-.2,0Zm1,.56a5.23,5.23,0,0,0-1,1l.81-.81ZM.89,8.73v.06a4.19,4.19,0,0,0,.59-.45c.25-.22.66-.6,1.24-1.15A9.93,9.93,0,0,1,4.13,5.9c0-.1.07-.2.11-.3l-.32.26-.31.3Q2,7.66,1.48,8.08A4.21,4.21,0,0,0,.89,8.73ZM2.22,7l-.39.3a4.19,4.19,0,0,0-.89.81,3.21,3.21,0,0,0,.35-.24Q1.65,7.49,2.22,7ZM1,9.05l0,.07L1.15,9A1.18,1.18,0,0,1,1,9.05ZM3.76,3C2.21,4.37,1.3,5.23,1,5.53A4,4,0,0,0,1.81,5c.32-.29.87-.84,1.65-1.63l.78-.81ZM1.05,6.32a8,8,0,0,0,1.43-1c.09-.09.23-.23.44-.42C3.81,4,4.5,3.37,5,2.92a2.26,2.26,0,0,1-.26.2c-.35.32-.75.67-1.22,1.07-.64.53-1.33,1.1-2.08,1.69C1.27,6,1.15,6.19,1.05,6.32Zm.06-1.4a.89.89,0,0,1-.06.2,3.57,3.57,0,0,1,.39-.39A1,1,0,0,1,1.11,4.92Zm0,4.66L2.48,8.4l.81-.67A2.33,2.33,0,0,0,3.85,7a3.63,3.63,0,0,0-1,.7Q2.4,8.15,1.48,9l-.39.39C1.1,9.47,1.12,9.52,1.13,9.58Zm.16.37c.42-.38.81-.72,1.17-1l.26-.21c.45-.41.79-.73,1-1l-.26.19c-.23.24-.52.5-.87.81s-.89.73-1.37,1.11A1.17,1.17,0,0,0,1.29,10Zm.17-5.76-.09.13c.22-.15.42-.29.61-.44s.52-.47.89-.85ZM2.81,9.1c-.79.68-1.18,1.13-1.2,1.35a2.25,2.25,0,0,0,.44-.26l.13-.11c.58-.57,1-1,1.34-1.22s.35-.37.53-.54c0-.08,0-.14,0-.2C3.57,8.45,3.17,8.78,2.81,9.1ZM2,11c0-.19.29-.53.83-1T2.7,10c-.13.12-.26.22-.37.31l-.24.23-.26.27Zm.28.24a0,0,0,0,0,0,0Zm.37-.72-.26.28c.13-.12.36-.33.67-.65l0,0C2.88,10.21,2.73,10.35,2.61,10.47Zm.13,1.15v0L4.37,9.84l-.87.78c-.48.45-.79.74-1,.87ZM4.61,9.05h0a2.37,2.37,0,0,0-.46.35c-.19.16-.48.45-.89.87l-.35.35a2.12,2.12,0,0,0,.24-.2q.77-.6,1-.87A2,2,0,0,0,4.61,9.05ZM3.42,11.73A21,21,0,0,0,5.72,9.4H5.61a17.71,17.71,0,0,0-2.54,2.29L3,11.77l.26.13a.13.13,0,0,1,.07-.06Zm2-9.93c-.33.3-.9.86-1.72,1.69L3.2,4,4.55,2.92A11.38,11.38,0,0,0,6.24,1.25l-.11,0A5,5,0,0,0,5.37,1.8Zm-1.76.28,0,0,.59-.46A1,1,0,0,0,4,1.73L3.74,2Zm.11,10,.09-.16-.2.11ZM4,6.53l-.24.24a.45.45,0,0,1,.18,0l0,0A1.8,1.8,0,0,1,4,6.53ZM5.2,11.25c.45-.38,1.22-1.06,2.3-2.06.29-.25.52-.46.7-.64l-.63.5c-1.22.95-2.06,1.61-2.52,2A6.46,6.46,0,0,0,4,12.14H4A6.77,6.77,0,0,0,5.2,11.25ZM6.72,7.88c-.07-.09,0-.23.11-.43,0-.47,0-1.16,0-2.09,0-.42,0-.68,0-.78a.17.17,0,0,0-.08-.13h0a.2.2,0,0,1-.14,0v0a1.13,1.13,0,0,0-.45-.09H6.11a.49.49,0,0,1-.24.07c-.27.2-.59.43-1,.67a2.7,2.7,0,0,0-.5.87l0,0a.14.14,0,0,1,0,.18l-.09.09a4.53,4.53,0,0,0-.13.93.13.13,0,0,1,.11.07c.07.08,0,.22-.11.41a2.21,2.21,0,0,0,.11.61l0,0a.14.14,0,0,1,0,.15l0,.09,0,0a.12.12,0,0,1,0,.09,1.06,1.06,0,0,0,.15.15h0a.2.2,0,0,1,.17.09.12.12,0,0,1,0,.08A.67.67,0,0,0,5.07,9h.06a.15.15,0,0,1,.13.06,1.45,1.45,0,0,0,.26.07h.05A.64.64,0,0,1,5.85,9,.21.21,0,0,1,6,9.1a1,1,0,0,0,.53-.31.12.12,0,0,1,0-.1l.13-.11a.25.25,0,0,0,0-.07.42.42,0,0,0,0-.17l0,0a.24.24,0,0,1,0-.2.49.49,0,0,1,.06-.22ZM4.61,12.25,6.7,10.32c-1.12,1-1.87,1.63-2.26,1.91ZM10.48,6v-.3a5,5,0,0,0-.56.43c-.25.22-.68.63-1.29,1.22A10.11,10.11,0,0,1,6.81,8.92a1.36,1.36,0,0,1-.76.46,3.78,3.78,0,0,1-.24.35q-.24.29-.72.78c-.17.18-.38.38-.63.61q1.8-1.39,5.93-5ZM5.24,12.21l1.15-1.05L5.05,12.25H5.2Zm0-2.87,0,0,0,0a.27.27,0,0,1-.07.08ZM7.31,1.75c-.47.35-1,.81-1.7,1.39l-.22.2c.5-.36.89-.67,1.18-.92A8.14,8.14,0,0,0,7.31,1.75ZM5.5,1.32s0,0,0,0l.13-.11h0Zm1.26.5a6.93,6.93,0,0,0-.76.6l-.24.22C6.13,2.32,6.46,2.05,6.76,1.82ZM6,12.19,8.2,10.1l-.44.37c-.55.51-1,.89-1.28,1.15l-.69.59ZM6.52,1.27a.92.92,0,0,1-.21.33l.39-.28ZM6.59,12c.7-.48,1.38-1,2.06-1.54l.2-.15c.32-.29.75-.68,1.31-1.15l0,0,0,0,.09-.09.08-.1L6.48,12.1h.07A.08.08,0,0,1,6.59,12Zm.17-8.11a5.19,5.19,0,0,0,.53-.39L8.42,2.45l-.37.32c-.47.44-.86.78-1.18,1A.35.35,0,0,0,6.76,3.92Zm.31,4.31v0L9.39,6.1,7.74,7.6C7.38,7.93,7.15,8.14,7.07,8.23Zm0-1.11c.2-.22.49-.5.85-.85L7.2,7,7.13,7A.61.61,0,0,0,7.11,7.12Zm0-.5L8.61,5.27l.87-.74a8.94,8.94,0,0,0,1-1q-.33.27-1.26,1.11a12.23,12.23,0,0,1-2,1.68Zm0-.91.27-.29q-.18.12-.27.09ZM10,2.23c-.29.23-.68.56-1.17,1l0,0L7.18,4.58v.08l.65-.54q.45-.39.87-.72Q9.53,2.68,10,2.23ZM7.31,5.16a33.73,33.73,0,0,0,3.17-2.65V2.38c-.1.1-.43.37-1,.81-.72.58-1.24,1-1.54,1.28A4,4,0,0,0,7.31,5.16ZM9,4.45c.8-.73,1.29-1.16,1.48-1.29V2.92c-.13.13-.38.37-.76.7C9,4.32,8.4,4.83,8.07,5.16s-.54.53-.7.7C7.65,5.66,8.19,5.19,9,4.45ZM7.59,11.88s0-.09.06-.15l-.17.11.09,0Zm2.87-4.35V7.16L7.61,9.82l2.78-2.24ZM7.81,1.4l0,.05h0Zm2.67,3.26v-.3a.15.15,0,0,0-.06,0c-.13.13-.4.38-.81.74C8.8,5.87,8.22,6.4,7.87,6.75a.09.09,0,0,1-.06,0l.84-.69Q9.52,5.38,10.48,4.66ZM10.42,10c-.53.39-1.38,1.11-2.57,2.17l.13.09a.37.37,0,0,1,.11-.11c.1-.1.32-.29.65-.57.58-.5,1-.87,1.24-1.11A5.64,5.64,0,0,0,10.42,10Zm0-.33V9.29a13.35,13.35,0,0,1-1.26,1.16l-.26.21-.16.16c-.29.29-.51.52-.67.71l1-.82A17,17,0,0,1,10.44,9.62ZM8.63,12.23c.08-.09.23-.25.48-.5a5.13,5.13,0,0,1,.41-.41,5.31,5.31,0,0,0-.47.41l-.7.61.15,0Zm1-.37.55-.67A9,9,0,0,0,8.87,12.4h.07l.3-.06.1-.12C9.39,12.15,9.5,12,9.65,11.86ZM9,2.38l1-.87s0,0,0,0l0,0Zm1.42,6.17c0-.1,0-.16,0-.19L9,9.69ZM9.09,1.27a.52.52,0,0,1,0,.11l.28-.26-.28,0A1,1,0,0,1,9.09,1.27Zm.56,0c-.14.16-.34.35-.58.59a6.18,6.18,0,0,1,.65-.57Zm.77,9.56v0s0,0,0,0Z"/><path class="a" d="M22.48,9.32c.07.1.06.23,0,.41a6.32,6.32,0,0,1-.05,1.06,1.74,1.74,0,0,1-1.06,1.57.32.32,0,0,1-.2.09h0a.2.2,0,0,0-.11,0,1.72,1.72,0,0,1-.39,0l-.26,0-.09,0h0a.15.15,0,0,1-.09-.06,0,0,0,0,1,0,0l-.35-.13H19.7a.14.14,0,0,1-.11-.05.13.13,0,0,1,0-.08l-.26-.2a1.76,1.76,0,0,1-.46-.87l-.07,0a.28.28,0,0,1-.06-.22s0-.09.06-.15a0,0,0,0,1,0,0c-.07-.09-.05-.21,0-.35a.82.82,0,0,1,0-.22.21.21,0,0,1,0-.2c0-.14,0-.25,0-.32V9.45a.13.13,0,0,1,0-.2l0,0a2.56,2.56,0,0,0,0-.39.14.14,0,0,1-.09-.05c-.06-.07,0-.17.11-.3,0-.58,0-1.32-.07-2.22,0,0,0,0,0,0a.13.13,0,0,1,0-.2h0a2.32,2.32,0,0,0,0-.24h0s-.08,0-.09,0-.07-.23.06-.39a.47.47,0,0,0,0-.17.09.09,0,0,1-.13-.05c-.06-.06-.05-.12,0-.19h0a.41.41,0,0,1-.11-.07.12.12,0,0,1,0-.1.18.18,0,0,1,.06-.09l0-.05a.08.08,0,0,0,0-.06l-.11,0h0a.11.11,0,0,1-.07,0h-.13A1.62,1.62,0,0,0,17.15,5L17,5.08a2.09,2.09,0,0,0-.56,1.13v.07a.14.14,0,0,1,0,.06c0,.19,0,.43-.05.74l.07,0a.14.14,0,0,1,0,.15.64.64,0,0,1-.11.22v.2a.21.21,0,0,1,.05.13.46.46,0,0,1-.05.1v.46a.19.19,0,0,1,.11.09c.09.1.05.27-.11.5,0,.75,0,1.3-.06,1.63.06.09,0,.19,0,.32a2.33,2.33,0,0,1-.08.37,1.62,1.62,0,0,1-1.11,1.13.71.71,0,0,1-.37.2.14.14,0,0,1-.13-.07s0,0,0,0h-.39a1.55,1.55,0,0,1-1.35-1l-.09-.06a.14.14,0,0,1,0-.15,3.39,3.39,0,0,1-.13-.55,4,4,0,0,1,0-.56.3.3,0,0,1-.05-.18.16.16,0,0,1,0-.08l-.05,0a.31.31,0,0,1,0-.19.7.7,0,0,1,.08-.23V9.34h0a.31.31,0,0,1,0-.22.37.37,0,0,1,.07-.2V8.27c0-.91,0-1.69,0-2.35,0-.24,0-.51,0-.8l0,0c-.05-.07,0-.15,0-.24s0-.35,0-.52l0,0a.2.2,0,0,1,0-.16.61.61,0,0,1,.1-.23.05.05,0,0,0,0,0q-.12-.15.09-.48l.09-.78A1.91,1.91,0,0,1,13,2.05a1.49,1.49,0,0,1,.17-.36c0-.05,0-.08,0-.09l0,0A1.67,1.67,0,0,1,14.57.82a.42.42,0,0,1,.26-.13A.28.28,0,0,1,15,.77a.12.12,0,0,1,0,.09l.2,0a.3.3,0,0,1,.2-.08.1.1,0,0,1,.08.06.12.12,0,0,1,0,.13l.16.07a1.4,1.4,0,0,1,.37.32.15.15,0,0,1,.08.05.12.12,0,0,1,0,.13,1.06,1.06,0,0,1,.11.21c.19-.13.39-.26.61-.39L17,1.34a.21.21,0,0,1,.09-.05,4.22,4.22,0,0,1,1-.34l.08-.07a.13.13,0,0,1,.2,0l.39,0H19l0,0a.1.1,0,0,1,.1,0,.14.14,0,0,1,.1.05s0,0,0,0a3.7,3.7,0,0,1,.89.29.09.09,0,0,1,.07,0,.11.11,0,0,1,.1.06.16.16,0,0,1,0,.1l.17.13a.15.15,0,0,1,.2,0,.15.15,0,0,1,0,.13l.2.17,0,0s0,0,0,0l.15.17.11,0a.1.1,0,0,1,.09.06.2.2,0,0,1,.06.2v.06l.09.13a4.92,4.92,0,0,1,.57,1h0a.1.1,0,0,1,.09,0,.15.15,0,0,1,0,.2l0,0,.09.24a0,0,0,0,1,0,0s0,.06,0,.09v0a.62.62,0,0,0,0,.11l.06,0a.14.14,0,0,1,0,.2s0,.07,0,.08a.09.09,0,0,1,.11,0c.06,0,0,.14-.06.26a5.87,5.87,0,0,1,.06.85v.1l0,0a.12.12,0,0,1,0,.19h0c0,.36,0,.73,0,1.09h0a.24.24,0,0,1,.09.06c.06.08,0,.16-.07.24l0,0c0,.26,0,.51,0,.76a.31.31,0,0,1,0,.19l0,0v.34a0,0,0,0,1,0,0s0,.13,0,.23v.22ZM12.83,6.23a2,2,0,0,0,0,.35,2.77,2.77,0,0,1,.41-.46A.68.68,0,0,1,12.83,6.23Zm0,1.48a2.75,2.75,0,0,1,.26-.22.23.23,0,0,1-.18,0h-.08Zm4.06-3.44c1-.88,2-1.84,3-2.87l-.13-.06A8.35,8.35,0,0,1,17.87,2.9c-.33.31-.71.64-1.13,1-.87.71-2,1.62-3.5,2.72a2.32,2.32,0,0,1-.28.2.76.76,0,0,0-.13.3.36.36,0,0,0,0,.11l0,0C13.33,7.27,14.65,6.27,16.87,4.27Zm-4,1.22c0,.12,0,.23,0,.35,1.3-1.15,2.45-2.18,3.45-3.11L12.94,5.45A.12.12,0,0,1,12.85,5.49ZM13,8.16a.62.62,0,0,0-.13.31L13,8.36l.26-.28A1.09,1.09,0,0,1,13,8.16Zm3.17-1.28v-.3L14.55,7.92a16.53,16.53,0,0,0-1.66,1.61,11.66,11.66,0,0,1,.94-.78l.5-.46c.61-.58,1-1,1.27-1.15s.4-.27.49-.26ZM12.94,4.21c0,.11,0,.23,0,.34l.3-.3c.59-.59,1.06-1.06,1.39-1.41-.27.21-.63.5-1.06.87L13,4.14A.3.3,0,0,1,12.94,4.21Zm0,6.82a.11.11,0,0,0,0,.07c.07-.07.17-.17.3-.28l.22-.22A4.55,4.55,0,0,1,12.94,11ZM13,3.47a.52.52,0,0,0,0,.11l0,0c.15-.13.35-.28.61-.47s.59-.53,1.07-1,.77-.73.85-.78a1.5,1.5,0,0,0-.22-.11c-.42.37-.81.73-1.15,1.06A9.74,9.74,0,0,0,13,3.47Zm3.09,5.41V8.73a11.21,11.21,0,0,0-1.63,1.32q-.68.62-1.41,1.35a1.59,1.59,0,0,0,.15.29s0,0,0,0c.52-.43,1-.89,1.54-1.37A12.29,12.29,0,0,0,16.11,8.88Zm-3-6.46a.78.78,0,0,0,0,.16,2.3,2.3,0,0,1,.22-.2.39.39,0,0,1-.18,0Zm.13,6.07a.24.24,0,0,0-.08.06.45.45,0,0,1-.07.07Zm-.13,1.65,2-1.61a.58.58,0,0,0-.15.11A16.12,16.12,0,0,0,13.13,10.14Zm2.37-4,1-.87c-.84.68-1.78,1.4-2.81,2.17l-.34.35A13.48,13.48,0,0,0,15.5,6.1ZM15.85,2l-.7.74c-.37.39-1,1-1.73,1.76l-.05,0c.6-.44,1.49-1.2,2.7-2.3l0-.14A1.55,1.55,0,0,0,16,1.82ZM13.63,12l.26-.31a1.16,1.16,0,0,1-.47.24.64.64,0,0,0,.15.13ZM14,1.27a8,8,0,0,0-.56.68l.48-.5.28-.29-.15.05A.06.06,0,0,1,14,1.27Zm4.15.07-.6.61c-.45.43-1.08,1-1.9,1.74L13.5,5.62c.58-.41,1.46-1.12,2.63-2.15C16.94,2.76,17.8,2,18.7,1.14a1.93,1.93,0,0,0-.42.05Zm-2.06,8.74c0-.1,0-.22,0-.35-1,1-1.66,1.71-2.06,2.17l.43-.37c.25-.21.6-.55,1.07-1A2.35,2.35,0,0,1,16.09,10.08Zm-2,2.13,0,0Zm.5-11a4.41,4.41,0,0,0-.46.45l0,.05Zm.13,11a.53.53,0,0,1,.11-.09.69.69,0,0,0-.13.11h0Zm1.5-6.11a.88.88,0,0,1,0-.17l-.57.43c-.07.07-.16.16-.28.26A3.06,3.06,0,0,1,16.2,6.12Zm-.09,3.22v0l-.17.17Zm-.06,1.28s0,0,0,0l-.11.11s0,0,0,0A.27.27,0,0,1,16.05,10.62Zm.28-8.26-.07,0,1.24-1-.35.15a.06.06,0,0,1,0,.05l-.19.17Zm1.72,0L17.31,3l.39-.28A3.61,3.61,0,0,1,18.05,2.36ZM18,3.64c.43-.37.8-.71,1.11-1a8.2,8.2,0,0,0,.74-.78c-.66.64-1.29,1.25-1.92,1.83C17.91,3.69,17.93,3.67,18,3.64Zm.32.59A1,1,0,0,1,18.46,4l-.31.24.09,0Zm.66-2.94-.24.22.17-.11Zm-.11,3.18A.63.63,0,0,1,19,4.36c.09-.09.22-.22.41-.39a17.91,17.91,0,0,1,1.46-1.31A2,2,0,0,0,21,2.42c-.13.12-.38.35-.76.68-.77.69-1.26,1.12-1.5,1.28Zm.69-1.09-.58.52C19.1,3.77,19.29,3.6,19.52,3.38Zm-.43-1.8a1.56,1.56,0,0,0-.13.19l.43-.37ZM19,5a.15.15,0,0,1,0,.09q.24-.22.9-.78l.84-.72Zm.11-1.89a.15.15,0,0,0-.06,0l0,0Zm0,7.65v.09a2.4,2.4,0,0,0,.61-.44c.08-.08.18-.18.3-.28a3.36,3.36,0,0,1-.91.61ZM19.92,5c-.4.32-.67.54-.83.65l0,.05v.08Zm-.53,1.09a1.21,1.21,0,0,1-.26.15.2.2,0,0,0,0,.09Zm-.26,5.08a0,0,0,0,0,0,0l0,0Zm0-1.8v.19s0-.05.07-.06c.19-.17.54-.48,1.06-.91s1.08-.9,1.33-1.13.54-.56.54-.68c-.18,0-.7.35-1.54,1.13Zm0-2.33.21-.17L19.24,7a.08.08,0,0,1-.06,0Zm0,1.61v.28l1-1,.2-.17.95-1C20.75,7.25,20,7.89,19.2,8.64Zm0-1.09c.13-.15.31-.35.54-.58l-.54.43Zm.06.57,0,0v0A.43.43,0,0,0,19.26,8.12Zm.11,3.5a1.17,1.17,0,0,1,.05-.11.26.26,0,0,1-.11,0A.24.24,0,0,0,19.37,11.62Zm1-4.85a1.14,1.14,0,0,0,.22-.22c-.21.19-.38.36-.52.5-.29.29-.5.52-.63.68C19.57,7.58,19.89,7.27,20.35,6.77Zm-.93,4.46a4.37,4.37,0,0,0,.6-.46c.24-.2.61-.55,1.11-1a9.31,9.31,0,0,1,1-.89V8.77a15.79,15.79,0,0,1-1.19,1.07c-.53.43-.89.74-1.09.91A2.76,2.76,0,0,0,19.42,11.23Zm2.73-3.44,0-.06v0l-.48.39c-.8.65-1.39,1.14-1.76,1.47l-.39.35c.27-.21.71-.56,1.32-1a2.11,2.11,0,0,0,.31-.24.45.45,0,0,0,.1-.09A5.87,5.87,0,0,1,22.15,7.79Zm-2.41,4.13.09-.06a.45.45,0,0,1-.18,0l.07.07S19.73,11.94,19.74,11.92Zm2.39-2.58-.06.06-.89.81q-1.24,1.11-1.5,1.41a7,7,0,0,0,1.37-1.09c.34-.33.71-.69,1.08-1.08Zm-1.91,2.85,1.3-1.48c-.27.26-.64.59-1.1,1L20,12.1A.85.85,0,0,0,20.22,12.19Zm.37-10.33-.26.28.3-.26Zm1.46,2.48c-.5.37-.95.74-1.37,1.11Zm-1,7.82a2.68,2.68,0,0,1,.37-.54l-.05,0a.05.05,0,0,1,0,0c-.28.24-.49.42-.65.54a1.27,1.27,0,0,0,.26,0Zm-.13-10-.05,0s0,0,.05,0Zm.65.94a2.4,2.4,0,0,1-.52.63l.52-.46.08,0A.53.53,0,0,0,21.57,3.08Zm.19.39a.76.76,0,0,1-.08.13l-.31.32c-.09.11-.19.21-.3.33.37-.35.62-.57.74-.67A.58.58,0,0,0,21.76,3.47Zm.37,7.19a1.1,1.1,0,0,0,0-.26l-.82.94.8-.65ZM22,4l0,0v0l-.18.16Zm.22,1.11-.37.34a.56.56,0,0,1,.28-.1.2.2,0,0,1,.11,0A1.84,1.84,0,0,0,22.18,5.08Zm-.31,6.45a.4.4,0,0,0,.09-.17l-.07.09-.06.1Zm0-5.5a2.25,2.25,0,0,1,.37-.24v0a.08.08,0,0,0,0,0A3.69,3.69,0,0,0,21.85,6Zm.09-1.19.19-.15,0,0Zm.26,1.67V6.29L22,6.53a.33.33,0,0,1,.19,0Zm0,.78v0a1,1,0,0,1-.18.17l.13-.08,0,0Z"/><path class="a" d="M34.05,9.32c.07.1.05.23,0,.41a6.31,6.31,0,0,1,0,1.06,1.75,1.75,0,0,1-1.07,1.57.3.3,0,0,1-.19.09h-.05a.16.16,0,0,0-.1,0,1.75,1.75,0,0,1-.4,0l-.26,0a.18.18,0,0,1-.08,0h0q-.08,0-.09-.06s0,0,0,0l-.35-.13h-.07a.16.16,0,0,1-.11-.05.31.31,0,0,1,0-.08l-.26-.2a1.82,1.82,0,0,1-.45-.87l-.07,0a.22.22,0,0,1-.06-.22.77.77,0,0,1,.06-.15,0,0,0,0,1,0,0c-.07-.09-.06-.21,0-.35a1.64,1.64,0,0,1,0-.22.19.19,0,0,1,0-.2c0-.14,0-.25,0-.32V9.45a.13.13,0,0,1,0-.2l0,0c0-.13,0-.26,0-.39a.14.14,0,0,1-.09-.05c-.05-.07,0-.17.11-.3q0-.87-.06-2.22s-.05,0-.05,0a.15.15,0,0,1,0-.2h0a1.12,1.12,0,0,0,0-.24h0s-.07,0-.08,0-.07-.23.06-.39a.88.88,0,0,0,0-.17.09.09,0,0,1-.13-.05c-.06-.06-.05-.12,0-.19h0a.3.3,0,0,1-.11-.07.1.1,0,0,1,0-.1.12.12,0,0,1,.05-.09l0-.05s0,0,0-.06l-.11,0h0a.1.1,0,0,1-.06,0h-.13A1.62,1.62,0,0,0,28.72,5l-.13.11A2.18,2.18,0,0,0,28,6.21v.07a.07.07,0,0,1,0,.06c0,.19,0,.43,0,.74l.06,0a.14.14,0,0,1,.05.15.89.89,0,0,1-.11.22v.2a.2.2,0,0,1,0,.13.51.51,0,0,1,0,.1v.46a.23.23,0,0,1,.11.09c.08.1.05.27-.11.5,0,.75,0,1.3-.07,1.63.06.09.05.19,0,.32s-.06.27-.09.37a1.6,1.6,0,0,1-1.11,1.13.69.69,0,0,1-.36.2.15.15,0,0,1-.14-.07s0,0,0,0h-.39a1.55,1.55,0,0,1-1.35-1,.21.21,0,0,1-.08-.06.14.14,0,0,1,0-.15,3.39,3.39,0,0,1-.13-.55,4.13,4.13,0,0,1-.05-.56.3.3,0,0,1,0-.18.31.31,0,0,1,0-.08l0,0a.31.31,0,0,1,0-.19.65.65,0,0,1,.07-.23V9.34h0a.27.27,0,0,1,0-.22.45.45,0,0,1,.06-.2V8.27c0-.91,0-1.69,0-2.35,0-.24,0-.51,0-.8,0,0,0,0,0,0a.2.2,0,0,1,.05-.24c0-.17,0-.35,0-.52l0,0a.25.25,0,0,1,0-.16.61.61,0,0,1,.1-.23.08.08,0,0,0,0,0q-.13-.15.09-.48c0-.35.07-.61.08-.78a2.3,2.3,0,0,1,.13-.55,2,2,0,0,1,.18-.36c0-.05,0-.08,0-.09l0,0A1.68,1.68,0,0,1,26.13.82a.42.42,0,0,1,.26-.13.35.35,0,0,1,.16.08.12.12,0,0,1,0,.09l.2,0A.28.28,0,0,1,27,.82a.15.15,0,0,1,.09.06s0,.07,0,.13a.52.52,0,0,1,.15.07,1.14,1.14,0,0,1,.37.32.14.14,0,0,1,.09.05.15.15,0,0,1,0,.13,2.12,2.12,0,0,1,.11.21c.19-.13.39-.26.61-.39l.11-.06.08-.05a4.55,4.55,0,0,1,1-.34l.09-.07a.13.13,0,0,1,.2,0l.39,0h.24l0,0a.1.1,0,0,1,.1,0,.14.14,0,0,1,.09.05s0,0,0,0a3.7,3.7,0,0,1,.89.29.06.06,0,0,1,.06,0,.13.13,0,0,1,.11.06.14.14,0,0,1,0,.1l.18.13.08,0a.14.14,0,0,1,.11.05.15.15,0,0,1,0,.13l.19.17a.05.05,0,0,1,0,0,0,0,0,0,0,0,0L32.7,2l.11,0a.08.08,0,0,1,.08.06.23.23,0,0,1,.07.2v.06l.09.13a4.47,4.47,0,0,1,.56,1h0c.05,0,.08,0,.09,0a.13.13,0,0,1,0,.2l0,0,.09.24a.08.08,0,0,1,0,0,.08.08,0,0,1,0,.09v0l0,.11.07,0a.17.17,0,0,1,0,.2s0,.07,0,.08a.09.09,0,0,1,.11,0c.05,0,0,.14-.07.26a5.85,5.85,0,0,1,.07.85v.1l0,0a.12.12,0,0,1,0,.19h0c0,.36,0,.73,0,1.09h0l.08.06q.09.12-.06.24l0,0c0,.26,0,.51,0,.76a.21.21,0,0,1,0,.19l0,0v.34s0,0,0,0S34,9,34,9.05v.22ZM24.39,6.23c0,.11,0,.23,0,.35a2.47,2.47,0,0,1,.42-.46A.69.69,0,0,1,24.39,6.23Zm0,1.48.26-.22a.2.2,0,0,1-.17,0h-.09Zm4.07-3.44c1-.88,2-1.84,3-2.87a.38.38,0,0,1-.13-.06A8.35,8.35,0,0,1,29.44,2.9c-.34.31-.71.64-1.13,1Q27,5,24.81,6.62a2.22,2.22,0,0,1-.29.2.94.94,0,0,0-.13.3.2.2,0,0,0,0,.11l0,0C24.89,7.27,26.22,6.27,28.44,4.27Zm-4,1.22a2.07,2.07,0,0,1,0,.35c1.31-1.15,2.46-2.18,3.46-3.11L24.5,5.45A.12.12,0,0,1,24.42,5.49Zm.1,2.67a.73.73,0,0,0-.13.31l.16-.11.26-.28A1.15,1.15,0,0,1,24.52,8.16ZM27.7,6.88v-.3c-.57.47-1.1.92-1.59,1.34a15.09,15.09,0,0,0-1.65,1.61,9.72,9.72,0,0,1,.93-.78c.12-.1.29-.25.5-.46.61-.58,1-1,1.28-1.15s.4-.27.48-.26ZM24.5,4.21a1.94,1.94,0,0,1,0,.34l.31-.3,1.39-1.41c-.28.21-.63.5-1.07.87l-.52.43A.25.25,0,0,1,24.5,4.21Zm0,6.82a.25.25,0,0,0,0,.07l.31-.28a2.28,2.28,0,0,1,.22-.22A3.55,3.55,0,0,1,24.5,11Zm.09-7.56a.52.52,0,0,0,0,.11l0,0a7.57,7.57,0,0,1,.61-.47c.23-.21.59-.53,1.06-1s.78-.73.85-.78a.91.91,0,0,0-.22-.11c-.42.37-.8.73-1.15,1.06A9.47,9.47,0,0,0,24.59,3.47Zm3.09,5.41V8.73a10.68,10.68,0,0,0-1.63,1.32c-.45.41-.92.86-1.42,1.35a2.69,2.69,0,0,0,.16.29s0,0,0,0c.52-.43,1-.89,1.54-1.37A14.49,14.49,0,0,0,27.68,8.88Zm-3-6.46a.41.41,0,0,0,0,.16,2.08,2.08,0,0,1,.21-.2.33.33,0,0,1-.17,0Zm.13,6.07-.09.06-.06.07Zm-.13,1.65,2-1.61a.58.58,0,0,0-.15.11A15.22,15.22,0,0,0,24.7,10.14Zm2.37-4L28,5.23c-.84.68-1.77,1.4-2.8,2.17l-.35.35A13.89,13.89,0,0,0,27.07,6.1ZM27.42,2l-.7.74L25,4.45l0,0c.59-.44,1.49-1.2,2.69-2.3l0-.14a1.55,1.55,0,0,0-.06-.23A.8.8,0,0,0,27.42,2ZM25.2,12c.06-.07.14-.18.26-.31a1.12,1.12,0,0,1-.48.24.64.64,0,0,0,.15.13Zm.37-10.7A6.63,6.63,0,0,0,25,2l.48-.5.28-.29-.15.05A.05.05,0,0,1,25.57,1.27Zm4.15.07L29.11,2q-.67.64-1.89,1.74L25.07,5.62c.58-.41,1.45-1.12,2.63-2.15.81-.71,1.66-1.49,2.56-2.33a1.84,1.84,0,0,0-.41.05A1.24,1.24,0,0,0,29.72,1.34Zm-2.07,8.74a2.36,2.36,0,0,1,0-.35c-1,1-1.66,1.71-2.07,2.17l.44-.37c.24-.21.6-.55,1.06-1A2.62,2.62,0,0,1,27.65,10.08Zm-2,2.13s0,0,0,0S25.63,12.22,25.63,12.21Zm.5-11a4.59,4.59,0,0,0-.45.45l-.05.05C25.85,1.48,26,1.32,26.13,1.19Zm.13,11,.11-.09-.13.11h0Zm1.5-6.11a.47.47,0,0,1,0-.17l-.57.43-.28.26A3.06,3.06,0,0,1,27.76,6.12Zm-.08,3.22v0l-.18.17Zm-.07,1.28s0,0,0,0l-.11.11s0,0,0,0A.35.35,0,0,1,27.61,10.62Zm.28-8.26-.06,0,1.24-1-.35.15s0,0,0,.05l-.2.17C28.37,1.9,28.17,2.1,27.89,2.36Zm1.72,0L28.87,3l.39-.28Zm-.09,1.28c.44-.37.81-.71,1.11-1a7.09,7.09,0,0,0,.74-.78c-.65.64-1.29,1.25-1.91,1.83A.12.12,0,0,0,29.52,3.64Zm.33.59A1.19,1.19,0,0,1,30,4l-.3.24.09,0Zm.65-2.94a1.7,1.7,0,0,1-.24.22l.18-.11A.41.41,0,0,0,30.5,1.29Zm-.11,3.18.13-.11L30.94,4a18.43,18.43,0,0,1,1.45-1.31,2.12,2.12,0,0,0,.2-.24c-.13.12-.38.35-.76.68-.77.69-1.27,1.12-1.5,1.28A.24.24,0,0,0,30.39,4.47Zm.7-1.09-.59.52C30.66,3.77,30.86,3.6,31.09,3.38Zm-.44-1.8-.13.19L31,1.4C30.87,1.45,30.77,1.5,30.65,1.58ZM30.57,5a.29.29,0,0,1,0,.09l.89-.78.85-.72Zm.11-1.89-.07,0,0,0Zm-.05,7.65v.09a2.24,2.24,0,0,0,.61-.44l.31-.28a3.37,3.37,0,0,1-.92.61ZM31.48,5c-.39.32-.67.54-.83.65l0,.05v.08ZM31,6.08a1.51,1.51,0,0,1-.26.15.2.2,0,0,0,0,.09Zm-.26,5.08a.08.08,0,0,0,0,0l0,0Zm0-1.8v.19a.14.14,0,0,1,.07-.06c.18-.17.54-.48,1.06-.91s1.08-.9,1.33-1.13.54-.56.54-.68c-.19,0-.7.35-1.54,1.13Zm0-2.33L31,6.86,30.81,7l-.07,0Zm0,1.61v.28l1-1L32,7.71l1-1C32.31,7.25,31.59,7.89,30.76,8.64Zm0-1.09c.13-.15.31-.35.55-.58l-.55.43Zm.07.57,0,0v0Zm.11,3.5s0-.08,0-.11a.23.23,0,0,1-.11,0Zm1-4.85a1.45,1.45,0,0,0,.21-.22l-.52.5c-.29.29-.5.52-.63.68C31.14,7.58,31.45,7.27,31.92,6.77ZM31,11.23a5,5,0,0,0,.61-.46c.23-.2.6-.55,1.11-1a9.31,9.31,0,0,1,1-.89V8.77a14.62,14.62,0,0,1-1.2,1.07l-1.09.91A2.76,2.76,0,0,0,31,11.23Zm2.74-3.44,0-.06v0l-.48.39c-.79.65-1.38,1.14-1.76,1.47-.14.14-.27.25-.39.35l1.33-1a2.55,2.55,0,0,0,.3-.24.53.53,0,0,0,.11-.09A4.88,4.88,0,0,1,33.72,7.79Zm-2.41,4.13s.05-.05.08-.06a.45.45,0,0,1-.17,0s0,0,.06.07S31.29,11.94,31.31,11.92ZM33.7,9.34l-.07.06c-.16.15-.45.42-.89.81q-1.23,1.11-1.5,1.41a6.71,6.71,0,0,0,1.37-1.09c.35-.33.71-.69,1.09-1.08Zm-1.91,2.85,1.3-1.48-1.11,1-.43.39A.85.85,0,0,0,31.79,12.19Zm.36-10.33a2,2,0,0,1-.26.28l.31-.26Zm1.46,2.48c-.49.37-1,.74-1.37,1.11Zm-1,7.82a3.22,3.22,0,0,1,.37-.54l0,0s0,0,0,0c-.27.24-.49.42-.65.54a1.09,1.09,0,0,0,.26,0Zm-.13-10,0,0a.05.05,0,0,1,0,0Zm.65.94a2.4,2.4,0,0,1-.52.63l.52-.46.09,0Zm.2.39-.09.13a3.85,3.85,0,0,1-.3.32c-.09.11-.19.21-.31.33l.74-.67A.66.66,0,0,0,33.33,3.47Zm.37,7.19a2.11,2.11,0,0,0,0-.26l-.83.94c.26-.22.53-.44.81-.65ZM33.52,4l0,0v0l-.17.16Zm.22,1.11-.37.34a.59.59,0,0,1,.28-.1.18.18,0,0,1,.11,0A1,1,0,0,0,33.74,5.08Zm-.3,6.45a.38.38,0,0,0,.08-.17l-.06.09-.07.1Zm0-5.5a1.89,1.89,0,0,1,.37-.24v0a.05.05,0,0,0,0,0A3.63,3.63,0,0,0,33.42,6Zm.08-1.19.2-.15,0,0Zm.26,1.67V6.29l-.24.24a.36.36,0,0,1,.2,0Zm0,.78v0a.69.69,0,0,1-.17.17l.13-.08,0,0Z"/><path class="a" d="M44.55,5.71l.08,0a.14.14,0,0,1,0,.2L44.5,6a17.08,17.08,0,0,1-.32,2c.07.09,0,.22-.11.39a3.18,3.18,0,0,0-.11.33.2.2,0,0,1,0,.11.78.78,0,0,1-.17.39,6.31,6.31,0,0,1-1.72,2.56,3.31,3.31,0,0,1-.74.55c-.07.07-.14.1-.2.08a3.12,3.12,0,0,1-.48.18.58.58,0,0,1-.26.11.2.2,0,0,1-.11,0,3.11,3.11,0,0,1-.43,0,3.31,3.31,0,0,1-2.13-.79c-.19-.16-.36-.32-.52-.48a.07.07,0,0,1-.09,0,.12.12,0,0,1-.09,0,.31.31,0,0,1,0-.22,4.72,4.72,0,0,1-.54-.76.13.13,0,0,1-.07-.06.11.11,0,0,1,0-.11.05.05,0,0,0,0,0,.24.24,0,0,1-.11-.09.17.17,0,0,1,0-.13.08.08,0,0,1,0-.07l0,0v0l-.07-.05a.19.19,0,0,1,0-.17q0-.1-.09-.24s0,0-.06,0a.08.08,0,0,1-.09-.06.2.2,0,0,1-.06-.2s0-.05,0-.06L35.74,9c-.06,0,0-.14.07-.26s0,0,0,0a2.72,2.72,0,0,1-.07-.33.24.24,0,0,1-.11-.06.13.13,0,0,1,0-.2l0,0c0-.12,0-.23,0-.35a.2.2,0,0,1-.11-.06c-.06-.08,0-.18.06-.31,0-.32-.07-.63-.08-1,0,0-.08,0-.09,0s-.05-.21.06-.39,0-.48,0-.72a.25.25,0,0,1,0-.17.29.29,0,0,1,0-.09l0,0c-.06-.07,0-.17,0-.28s0-.41,0-.61a.16.16,0,0,1,0-.09,11.28,11.28,0,0,1,.19-1.43l0,0a.31.31,0,0,1,.07-.22,3,3,0,0,1,.28-.63,1.81,1.81,0,0,1,.61-.59.38.38,0,0,1,.13-.06,1.67,1.67,0,0,1,.7-.16h.17a.4.4,0,0,1,.16-.06.13.13,0,0,1,.1,0L38,1l.2.06.09.05h.06a.12.12,0,0,1,.09,0s0,.05,0,.07a1.54,1.54,0,0,1,.65.87v0a1.88,1.88,0,0,1,.07.63l0,0c0,.06,0,.13,0,.22a.1.1,0,0,0,0,.06,4.71,4.71,0,0,0-.13,1.05.08.08,0,0,1,0,0c.07.09.06.2,0,.35a2.56,2.56,0,0,0,0,.39l0,0c.06.07,0,.17,0,.28s0,.27,0,.42a.22.22,0,0,1,0,.21c0,.15,0,.29,0,.44s.05,0,.05.09a.11.11,0,0,1,0,.1s0,.08,0,.09a.27.27,0,0,1,.08.07c.06.07,0,.17,0,.3a4.07,4.07,0,0,1,0,.41l0,0c0,.23,0,.39.06.5l.07.06a.29.29,0,0,1,0,.09.09.09,0,0,1,0,.08,1.56,1.56,0,0,0,.43.87L40,9l0-.05.11,0a3.08,3.08,0,0,0,.44-1l0,0a.14.14,0,0,1,0-.18l.06,0,.05,0c.09-.34.17-.73.24-1.15a.27.27,0,0,0,0-.13s0,0,0,0,0-.13.05-.22a0,0,0,0,1,0,0c.05-.39.11-.78.15-1.15a.39.39,0,0,1,0-.15.18.18,0,0,1,0-.11,1.62,1.62,0,0,0,0-.18l-.06,0c-.06-.07,0-.17.06-.31V3.71a.09.09,0,0,1,0-.11s0,0,0-.05a3.24,3.24,0,0,0-.06-.39,1.53,1.53,0,0,1,0-.3l-.08-.07c-.08-.08,0-.23.11-.43a1.27,1.27,0,0,1,.15-.44.12.12,0,0,1,0-.15l0,0a.45.45,0,0,1,.09-.06,1.63,1.63,0,0,1,.59-.55A.51.51,0,0,1,42.24,1h0l.09,0a2.31,2.31,0,0,1,.46,0h.09a.27.27,0,0,1,.17-.06.24.24,0,0,1,.15.09V1a1.63,1.63,0,0,1,.37.13A.25.25,0,0,1,43.76,1a.14.14,0,0,1,.11.05.25.25,0,0,1,.05.21,2.33,2.33,0,0,1,.32.31.13.13,0,0,1,.2,0,.13.13,0,0,1,0,.2l0,0a1.81,1.81,0,0,1,.2.52,11.18,11.18,0,0,1,0,2.93.2.2,0,0,1,0,.11A1.62,1.62,0,0,0,44.55,5.71ZM35.81,4.19a1.11,1.11,0,0,1,0,.17c.26-.29.81-.84,1.67-1.65.4-.38.67-.64.8-.79A7,7,0,0,0,37,3C36.61,3.34,36.21,3.75,35.81,4.19Zm.06.73a.48.48,0,0,0-.08.16c.21-.16.63-.5,1.26-1l.15-.13c.51-.44,1.06-.92,1.67-1.43l.07,0V2.36l0,0c-.16.13-.53.44-1.1.94C36.74,4.21,36.1,4.75,35.87,4.92ZM35.79,6.1a31.13,31.13,0,0,0,3-2.57v0c0-.09,0-.17,0-.24l-.39.33c-.8.69-1.39,1.22-1.76,1.56A6.59,6.59,0,0,0,35.79,6.1Zm0,.43s0,0,0,0l.26-.3a2.11,2.11,0,0,1-.32.21A.27.27,0,0,0,35.83,6.53Zm0-3a.59.59,0,0,1,0,.13l.2-.2A.34.34,0,0,1,35.87,3.49Zm0,3.37a2.46,2.46,0,0,0,0,.28L36,7.05q.26-.25,1-.93A19.32,19.32,0,0,0,38.76,4.4V4.34a5,5,0,0,0-1.06.8c-.38.34-.87.81-1.48,1.44A1.12,1.12,0,0,1,35.85,6.86Zm.11,1c.74-.65,1.38-1.24,1.91-1.78l-.35.28a20,20,0,0,1-1.58,1.29A.75.75,0,0,0,36,7.9ZM36,2.66A1.75,1.75,0,0,0,36,3l.78-.72a9.27,9.27,0,0,0,.81-.87Zm0,5.87c.1-.11.31-.32.63-.61a26.52,26.52,0,0,0,2.06-2.08,4.52,4.52,0,0,0-.48.37c-.21.19-.57.53-1.06,1A11.86,11.86,0,0,1,36,8.34C36,8.4,36.05,8.46,36.07,8.53Zm.19.81c.18-.21.63-.63,1.37-1.29l.59-.52c-.57.47-1.23,1-2,1.68A.69.69,0,0,0,36.26,9.34ZM38.76,5V4.82c-.26.27-.79.77-1.61,1.5-.29.26-.5.45-.63.58C37.15,6.4,37.89,5.74,38.76,5ZM37.09,1.27a1,1,0,0,1-.17.31l.43-.37A1.22,1.22,0,0,0,37.09,1.27Zm0,9.63a9.27,9.27,0,0,1,1.57-1.58c-.18.14-.37.31-.59.5s-.68.66-1,1ZM39,7.32a.78.78,0,0,1,0-.16c-.19.19-.58.55-1.19,1.09l-.44.39.22-.17c.46-.41.91-.78,1.35-1.13A.12.12,0,0,1,39,7.32Zm-.63-5.13-.76.73-.24.24c.41-.32.85-.65,1.33-1a.49.49,0,0,0,.13-.08.91.91,0,0,0-.13-.26A2.81,2.81,0,0,1,38.39,2.19Zm-.93,9.1.28-.34.33-.33c-.22.2-.44.41-.68.61Zm.52-10a2.35,2.35,0,0,1-.39.54l.5-.5Zm0,10.13-.06.13.32-.17q.22-.24.57-.57C38.5,11,38.23,11.24,38,11.38ZM39.39,9c-.08.09-.26.26-.52.5l-.89.81.28-.24A11.88,11.88,0,0,1,39.57,9l-.09-.11Zm-.8-.67A3.31,3.31,0,0,0,38.92,8c-.15.12-.37.33-.68.63ZM44.09,7c0-.07,0-.15,0-.22a4,4,0,0,1-.39.35L41.42,9.19a36.33,36.33,0,0,1-3,2.36,1.8,1.8,0,0,0-.2.24q.63-.39,3.81-3.15C43.3,7.58,44,7,44.09,7Zm-5.22-.83-.54.59c.19-.15.38-.28.56-.41A1.1,1.1,0,0,1,38.87,6.14Zm-.45-4.65-.07.11a.44.44,0,0,1,.15,0Zm.23,10.37a2.26,2.26,0,0,1-.26.17l0,0Zm-.08-7.72.19-.09V3.92A1.3,1.3,0,0,1,38.57,4.14Zm.61,4.11-.44.3a.83.83,0,0,1-.13.16c.29-.25.49-.37.59-.35A.2.2,0,0,1,39.18,8.25Zm-.09,4.07a1.56,1.56,0,0,1,.13-.13,2,2,0,0,1,.33-.31h0l-.5.44ZM43.55,9a.89.89,0,0,1,.08-.17c-.39.36-1.18,1-2.37,2-.76.62-1.28,1-1.54,1.28l-.28.28.3,0,.28-.23c.92-.73,1.65-1.34,2.2-1.83a9.78,9.78,0,0,0,1.3-1.28l0-.07Zm-3.7.28-.11.11A1.13,1.13,0,0,0,39.85,9.27Zm4.39-3.39a.78.78,0,0,0,0-.22l-3.69,3a.06.06,0,0,1,0,0,.28.28,0,0,1,0,.11c.2-.17.41-.34.63-.5C42.08,7.5,43.13,6.71,44.24,5.88ZM40.85,7.79l-.07.2L41,7.82l1.32-1.31.85-.82c-.14.13-.29.26-.43.41L42,6.75C41.36,7.34,41,7.69,40.85,7.79Zm.2-.8a1.37,1.37,0,0,1-.07.24c.28-.23.54-.46.78-.68,0,0,0,0,0,0a17,17,0,0,1,2-1.78l.13-.15c-.68.53-1.59,1.32-2.74,2.37Zm.54,4.39s0,0,.06,0l-.1.06-.53.5A6.41,6.41,0,0,0,41.59,11.38Zm-.44-4.93a.19.19,0,0,0,0,.1.79.79,0,0,1,.13-.13l.81-.78c.62-.59,1.08-1,1.37-1.35-.64.53-1.39,1.15-2.24,1.87C41.18,6.27,41.17,6.36,41.15,6.45Zm.11-.79a1.2,1.2,0,0,0,.16-.16,1.45,1.45,0,0,1,.17-.18.63.63,0,0,1-.26.08h0C41.29,5.49,41.28,5.58,41.26,5.66Zm.16-2.37h-.07s0,0,0,0ZM41.35,5V5l.11-.11Zm.5-3.13c-.22.24-.38.43-.48.56A7.91,7.91,0,0,0,42,1.79l.56-.56h-.08l-.11,0A5.55,5.55,0,0,1,41.85,1.82ZM44.18,2,42.94,3.1c-.42.36-.76.64-1,.85a3.76,3.76,0,0,0-.55.67,34.56,34.56,0,0,0,2.85-2.39,0,0,0,0,1,0,0ZM41.39,3.69v.08l0,0a2.86,2.86,0,0,1,.35-.35l-.35.24Zm1.72-2.46c-.29.26-.56.52-.8.78a6,6,0,0,0-.79.91c.22-.15.67-.55,1.35-1.17l.5-.46A2.44,2.44,0,0,0,43.11,1.23Zm1.2,4a2.11,2.11,0,0,1,0-.35L42.18,7Zm-1.37,5.07.13-.24-.31.28a.29.29,0,0,1,.16-.06Zm0-2.92.66-.54L44,6.47Zm.59-5.3-.54.52q.5-.44,1.08-.87l-.13-.13A2.36,2.36,0,0,1,43.48,2.12Zm.89.8L43,4.34q1.22-1,1.41-1.11ZM43,8.62l.46-.37a3.64,3.64,0,0,1-.35.24ZM43.87,8s0,0,0,0l-.19.13Zm.5-4V3.73c-.11.13-.3.32-.54.56A2.17,2.17,0,0,1,44.37,4ZM44.2,6.32m.15-1.74V4.51l0,0A.05.05,0,0,1,44.35,4.58Z"/></svg>