<svg xmlns="http://www.w3.org/2000/svg" viewBox="0 0 106.98 46.47"><defs><style>.a{fill:#29abe2;}</style></defs><path class="a" d="M26.64,21.35a.33.33,0,0,1,.25.1.75.75,0,0,1,.1.39,1.82,1.82,0,0,1-.35.65v.6a.16.16,0,0,1,.15.09.25.25,0,0,1,0,.4l-.15.15v2.19a.14.14,0,0,1,.05.09c.13.14.11.27-.05.4l-.05.05v.7a.44.44,0,0,1,.15.1.77.77,0,0,1,.15.49,1.75,1.75,0,0,1-.25.55.21.21,0,0,1-.05.3c0,.33-.05.69-.05,1.09.1,0,.17,0,.2.1.23.26.16.64-.2,1.14a1.9,1.9,0,0,1-.05.4h.05c.1.13.08.29-.05.49V32a5.93,5.93,0,0,1,0,1.34,3.12,3.12,0,0,1-.3,1.09.35.35,0,0,1-.1.35h-.1a3.94,3.94,0,0,1-2.33,2h-.2a2.32,2.32,0,0,1-.84.15h-.8a.45.45,0,0,1-.19,0,.21.21,0,0,1-.2-.1c-.3-.07-.57-.13-.8-.2a.45.45,0,0,1-.35.12.37.37,0,0,1-.24-.12.3.3,0,0,1,0-.3,5.22,5.22,0,0,1-.8-.64,19.4,19.4,0,0,1-5.21.89h-.45a11.48,11.48,0,0,1-2.13-.2,1.53,1.53,0,0,1-.3,0H11a.73.73,0,0,1-.35-.2l-.05-.05A9.42,9.42,0,0,1,7.38,34.6a.78.78,0,0,1-.35.1.33.33,0,0,1-.25-.1.57.57,0,0,1-.1-.34.44.44,0,0,1,.1-.2c-.17-.13-.31-.27-.45-.4L5.74,33a.32.32,0,0,1-.2-.1.33.33,0,0,1-.1-.25,9.18,9.18,0,0,1-.64-1,.49.49,0,0,1-.15-.09.27.27,0,0,1-.05-.35,12.82,12.82,0,0,1-.55-1.29.37.37,0,0,1-.25-.1.31.31,0,0,1,0-.45h.05a2.88,2.88,0,0,1-.15-.5.43.43,0,0,1-.29-.19c-.17-.17-.15-.43,0-.8a22.9,22.9,0,0,1-.34-4.66l-.18-.2a.37.37,0,0,1-.07-.23.3.3,0,0,1,.1-.22.84.84,0,0,0,.25-.15A18.94,18.94,0,0,1,4,19.16v-.05a.21.21,0,0,1-.07-.22.35.35,0,0,1,.12-.22.16.16,0,0,0,.1-.05.12.12,0,0,1,.1-.05c.13-.33.26-.65.4-.95-.17-.29.18-.86,1-1.68a12.07,12.07,0,0,1,.84-1,1,1,0,0,1,.1-.14.12.12,0,0,1,.1-.05A18.18,18.18,0,0,1,9.91,12a6.24,6.24,0,0,1,.84-.49.16.16,0,0,1,.05-.1.33.33,0,0,1,.25-.1,11.17,11.17,0,0,1,2.63-.89,1.87,1.87,0,0,1,1-.4.73.73,0,0,1,.39.2h1a1.19,1.19,0,0,1,.45-.1.54.54,0,0,1,.4.15,5,5,0,0,1,1,.2.37.37,0,0,1,.2,0c.1,0,.17,0,.2.1a.14.14,0,0,1,.05.09l.54.2a.78.78,0,0,1,.55,0,4.9,4.9,0,0,1,2.48-1,.93.93,0,0,1,.45.1h.45A4.91,4.91,0,0,1,24,10a3.87,3.87,0,0,1,2.08,1.59.36.36,0,0,1,.15.1.57.57,0,0,1,.1.34,3.88,3.88,0,0,1,.3,1.25.63.63,0,0,1,.2.09c.13.17.06.39-.2.65a7.23,7.23,0,0,0,.05.89.34.34,0,0,1,.2.1c.2.24.13.6-.2,1.09v.7a.47.47,0,0,1,0,.4c0,1.09,0,2.08-.05,3a.58.58,0,0,1,.25.15.28.28,0,0,1-.05.44.37.37,0,0,1-.2.05Zm-15.74-.9.89-.64a5.54,5.54,0,0,1,1.3-1,11.17,11.17,0,0,1,1.49-1.25,1.72,1.72,0,0,1,.49-.24.12.12,0,0,1,.1,0,.33.33,0,0,1,.25-.1q6.6-4.92,6.8-6.36a.28.28,0,0,0,0-.29,3.38,3.38,0,0,0-2,1.39l-.15.24-.3-.2-.1-.09a8.17,8.17,0,0,1-1.39,1.46c-.7.61-1.45,1.23-2.26,1.86s-2,1.51-3.5,2.63c-.89.63-1.56,1.11-2,1.44-1,1-2.4,2.39-4.12,4.07C4.86,24.89,4,25.72,3.85,25.82V26Q4.69,24.88,10.9,20.45Zm-7,3v.1A9.23,9.23,0,0,0,4.7,23l-.7.24A1.61,1.61,0,0,1,3.9,23.48Zm.15-2.18c0,.13-.07.28-.1.44l.65-.54a1.19,1.19,0,0,1-.45.1Zm2.23,1.29A11.06,11.06,0,0,0,4.1,24.77l1.84-1.83A1.54,1.54,0,0,1,6.28,22.59ZM4.15,27.9v.15a10.63,10.63,0,0,0,1.34-1c.56-.5,1.51-1.38,2.83-2.63a23.79,23.79,0,0,1,3.23-2.93,6.44,6.44,0,0,1,.24-.7c-.23.2-.48.4-.74.6s-.4.39-.69.69c-2.42,2.29-4,3.74-4.87,4.37A9.32,9.32,0,0,0,4.15,27.9Zm3-4c-.33.26-.63.5-.9.69a9.89,9.89,0,0,0-2,1.84A5.08,5.08,0,0,0,5,25.92C5.61,25.35,6.32,24.69,7.18,23.93ZM4.3,28.65a.39.39,0,0,1,0,.14l.4-.39ZM10.7,14.7q-5.31,4.86-6.25,5.9a10,10,0,0,0,1.78-1.34q1.09-1,3.78-3.72c.76-.76,1.35-1.37,1.78-1.84ZM4.5,22.39a16.44,16.44,0,0,0,3.27-2.28c.2-.2.53-.52,1-.95,2.05-2,3.62-3.49,4.71-4.51-.2.16-.39.31-.59.44-.8.73-1.72,1.54-2.78,2.44Q7.92,19.36,5.34,21.4,4.85,21.94,4.5,22.39Zm.15-3.18c0,.14-.09.28-.15.45a12.37,12.37,0,0,1,.89-.89A2.7,2.7,0,0,1,4.65,19.21Zm0,10.63c1.09-1,2.11-1.86,3.07-2.68.73-.6,1.34-1.11,1.84-1.54A5,5,0,0,0,10.9,24a8.38,8.38,0,0,0-2.18,1.59q-1.14,1-3.23,3l-.89.89C4.63,29.59,4.66,29.71,4.7,29.84Zm.34.84C6,29.82,6.9,29,7.72,28.35l.6-.5c1-.92,1.8-1.67,2.33-2.23-.16.13-.36.28-.59.44-.53.53-1.19,1.15-2,1.84-1,.83-2,1.67-3.13,2.53C5,30.53,5,30.62,5,30.68Zm.4-13.15c-.07.09-.13.19-.2.29.5-.33,1-.66,1.39-1s1.18-1.07,2-1.94ZM8.52,28.75c-1.79,1.55-2.7,2.58-2.73,3.07a3.71,3.71,0,0,0,1-.59,2.21,2.21,0,0,0,.3-.25,38.08,38.08,0,0,1,3.08-2.78c.39-.43.79-.85,1.19-1.24l-.1-.45C10.26,27.27,9.35,28,8.52,28.75ZM6.58,33q0-.64,1.89-2.34s-.07.1-.2.2c-.3.27-.58.5-.84.7l-.55.54-.6.6Zm.65.54a.14.14,0,0,0-.1.05Zm.84-1.64c-.23.27-.43.48-.59.65.29-.27.81-.76,1.54-1.49l.09-.1C8.68,31.29,8.34,31.61,8.07,31.87Zm.3,2.63v0q2.13-2.28,3.72-4c-.43.4-1.09,1-2,1.79-1.09,1-1.82,1.69-2.19,2A4.4,4.4,0,0,0,8.37,34.5Zm4.27-5.85h-.05a4.4,4.4,0,0,0-1,.79c-.43.36-1.11,1-2,2l-.79.79.54-.45c1.16-.92,2-1.59,2.39-2A5,5,0,0,0,12.64,28.65Zm-2.73,6.1a47.64,47.64,0,0,0,5.26-5.31h-.25a40.17,40.17,0,0,0-5.81,5.21l-.19.2.59.3A.28.28,0,0,1,9.66,35Zm4.47-22.66c-.77.68-2.07,2-3.93,3.85-.39.43-.74.79-1,1.09l3.08-2.38a26.15,26.15,0,0,0,3.87-3.83.68.68,0,0,1-.25-.05A9.67,9.67,0,0,0,14.38,12.09Zm-4,.62,0,0,1.34-1a1.65,1.65,0,0,0-.4.2l-.6.54A2.09,2.09,0,0,1,10.36,12.71Zm.24,22.84a2.3,2.3,0,0,0,.2-.35l-.44.25A1.08,1.08,0,0,1,10.6,35.55Zm.6-12.66-.55.54a1.35,1.35,0,0,1,.4-.1.16.16,0,0,1,.1.05A2.72,2.72,0,0,1,11.2,22.89ZM14,33.66c1-.86,2.78-2.43,5.26-4.72q1-.84,1.59-1.44c-.4.3-.88.68-1.44,1.15q-4.17,3.23-5.76,4.56A13.16,13.16,0,0,0,11.2,35.7h.1A15.8,15.8,0,0,0,14,33.66ZM17.45,26c-.16-.19-.08-.52.25-1,.07-1.06.1-2.65.1-4.76,0-1,.05-1.56.05-1.79a.39.39,0,0,0-.2-.3h0a.37.37,0,0,1-.29-.1V18a2.88,2.88,0,0,0-1-.2h-.2a1.2,1.2,0,0,1-.54.15c-.63.47-1.36,1-2.19,1.54a6.91,6.91,0,0,0-1.14,2s.05,0,.05.05a.27.27,0,0,1-.05.39l-.2.2a11,11,0,0,0-.29,2.14.28.28,0,0,1,.24.15c.17.2.09.51-.24.94a5.5,5.5,0,0,0,.24,1.39l.05.05a.33.33,0,0,1,.1.35,1.24,1.24,0,0,1,.1.2l.1.09a.29.29,0,0,1,.1.2,1.66,1.66,0,0,0,.35.35h0a.46.46,0,0,1,.39.2.28.28,0,0,1,.1.2l.4.15h.15a.34.34,0,0,1,.3.15,4.56,4.56,0,0,0,.59.14h.1a1.57,1.57,0,0,1,.65-.19.55.55,0,0,1,.4.15,2.24,2.24,0,0,0,1.19-.7.33.33,0,0,1,.1-.25l.29-.25a.26.26,0,0,0,.05-.15,1.05,1.05,0,0,0,.05-.39.19.19,0,0,1-.1-.05.54.54,0,0,1-.09-.45,1,1,0,0,1,.14-.5Zm-4.81,10,4.76-4.41c-2.54,2.28-4.26,3.74-5.16,4.36A1.83,1.83,0,0,1,12.64,35.94ZM26,21.74v-.69a10.22,10.22,0,0,0-1.29,1c-.56.5-1.54,1.43-2.93,2.78q-3.53,3.33-4.17,3.53a3.06,3.06,0,0,1-1.73,1,5.3,5.3,0,0,1-.55.79c-.37.44-.91,1-1.64,1.79-.4.4-.88.86-1.44,1.39q4.13-3.18,13.55-11.47Zm-12,14.1,2.63-2.38-3.08,2.48H14ZM14,29.29l0-.05-.05.05a.65.65,0,0,1-.15.2A1.82,1.82,0,0,1,14,29.29ZM18.79,12c-1.05.8-2.35,1.86-3.87,3.18-.16.14-.33.28-.49.45,1.12-.83,2-1.52,2.68-2.09A15.69,15.69,0,0,0,18.79,12Zm-4.12-1a.13.13,0,0,1,0,.1,1.68,1.68,0,0,1,.29-.25h-.1Zm2.88,1.14a16.91,16.91,0,0,0-1.73,1.39c-.2.17-.38.34-.55.5Q16.52,12.91,17.55,12.11ZM15.72,35.79,20.83,31l-1,.84c-1.26,1.16-2.24,2-2.93,2.63s-1.23,1-1.59,1.34A1.41,1.41,0,0,0,15.72,35.79ZM17,10.87a2.4,2.4,0,0,1-.5.75L17.4,11Zm.15,24.58q2.39-1.64,4.71-3.53l.45-.35c.73-.66,1.72-1.53,3-2.63l.05-.05,0-.05.2-.19a3.11,3.11,0,0,0,.2-.25l-8.89,7.2h.15A.15.15,0,0,1,17.16,35.45Zm.39-18.52c.3-.2.7-.5,1.2-.89s1.39-1.33,2.58-2.49l-.85.75c-1.06,1-1.95,1.79-2.68,2.38A1,1,0,0,0,17.55,16.93Zm.7,9.83v0l5.31-4.92c-.83.73-2.08,1.87-3.77,3.43C19,26.08,18.45,26.56,18.25,26.76Zm.1-2.53c.46-.5,1.11-1.14,1.93-1.94-.62.56-1.2,1.08-1.73,1.54a.5.5,0,0,1-.15.05A1,1,0,0,0,18.35,24.23Zm0-1.14C19.59,22,20.71,21,21.77,20c.76-.66,1.43-1.23,2-1.69A20.54,20.54,0,0,0,25.94,16c-.49.39-1.45,1.24-2.88,2.53q-4,3.67-4.66,3.82ZM18.45,21a8.09,8.09,0,0,1,.59-.64.84.84,0,0,1-.59.19Zm6.4-7.94c-.66.53-1.55,1.27-2.68,2.23l-.1.1-3.57,3v.2L20,17.38c.69-.6,1.35-1.15,2-1.64C23.23,14.65,24.19,13.75,24.85,13.06Zm-6.06,6.7A74.06,74.06,0,0,0,26,13.7v-.3c-.23.24-1,.85-2.23,1.84-1.66,1.33-2.83,2.3-3.53,2.93A10.34,10.34,0,0,0,18.79,19.76Zm3.88-1.64Q25.4,15.64,26,15.19v-.54c-.29.29-.87.82-1.73,1.58q-2.64,2.39-3.78,3.53-1,1-1.59,1.59C19.57,20.88,20.81,19.81,22.67,18.12Zm-3.23,17a2.28,2.28,0,0,1,.15-.35,2.92,2.92,0,0,1-.4.25l.2,0ZM26,25.17v-.84l-6.5,6.05,6.35-5.11A1,1,0,0,1,26,25.17Zm-6-14a.94.94,0,0,0-.1.1h.05ZM26,18.62v-.7l-.15.1c-.29.3-.91.86-1.83,1.69-1.86,1.65-3.18,2.88-4,3.67a.56.56,0,0,1-.15.1l1.93-1.59Q23.87,20.26,26,18.62Zm-.15,12.06Q24.1,32,20,35.65l.29.19a1.15,1.15,0,0,1,.25-.24c.23-.23.73-.67,1.49-1.29,1.33-1.16,2.27-2,2.83-2.54A11.76,11.76,0,0,0,25.89,30.68Zm.05-.74v-.75a26.75,26.75,0,0,1-2.88,2.63l-.59.5-.35.35c-.66.66-1.17,1.21-1.54,1.64.8-.7,1.52-1.33,2.19-1.89C24.32,31.13,25.38,30.3,25.94,29.94Zm-4.12,5.95c.17-.19.53-.57,1.1-1.14a11.62,11.62,0,0,1,.94-.94,13.47,13.47,0,0,0-1.09.94l-1.59,1.39a.92.92,0,0,0,.35,0Zm2.34-.84,1.24-1.54a22.51,22.51,0,0,0-3,2.78h.15a4.26,4.26,0,0,0,.69-.15,2.26,2.26,0,0,0,.23-.27C23.55,35.72,23.79,35.45,24.16,35.05ZM22.72,13.4l2.28-2a0,0,0,0,1,.05-.05l-.05,0Zm3.22,14.1a2.91,2.91,0,0,0,0-.44l-3.27,3ZM22.87,10.87a.92.92,0,0,1-.05.25c.23-.2.44-.4.64-.59a3.26,3.26,0,0,0-.64,0A1.74,1.74,0,0,1,22.87,10.87Zm1.29-.1c-.33.37-.78.81-1.34,1.34a13.3,13.3,0,0,1,1.49-1.29A.26.26,0,0,1,24.16,10.77Zm1.73,21.85v0s-.05,0-.05,0Z"/><path class="a" d="M53.45,29.24a.86.86,0,0,1-.1.94,15.47,15.47,0,0,1-.1,2.44,4,4,0,0,1-2.43,3.57.79.79,0,0,1-.45.2h-.1a.62.62,0,0,0-.25,0,3.86,3.86,0,0,1-.89.1,4,4,0,0,1-.6,0,.44.44,0,0,1-.2.1h0a.27.27,0,0,1-.19-.15s-.05,0-.05,0c-.3-.1-.57-.2-.8-.3h-.15a.33.33,0,0,1-.25-.1.46.46,0,0,1-.05-.2c-.19-.13-.39-.28-.59-.44a4.07,4.07,0,0,1-1-2,.36.36,0,0,1-.15-.1.49.49,0,0,1-.15-.49,1.93,1.93,0,0,1,.15-.35s0,0,0-.05c-.17-.2-.14-.46.1-.8a2,2,0,0,1,0-.49.44.44,0,0,1,0-.45c0-.33.05-.58.05-.74v-.35a.29.29,0,0,1,0-.45l0-.05a6.54,6.54,0,0,0,.06-.89.26.26,0,0,1-.2-.1c-.14-.17,0-.4.24-.7,0-1.32,0-3-.14-5.06-.07,0-.1-.06-.1-.1a.29.29,0,0,1,0-.45h0a3.74,3.74,0,0,0,0-.54h0c-.1,0-.17,0-.2-.1-.2-.23-.15-.53.15-.89a1.75,1.75,0,0,0,0-.4.2.2,0,0,1-.3-.1c-.13-.13-.12-.28.05-.45h-.05a.58.58,0,0,1-.25-.15.21.21,0,0,1-.07-.22.35.35,0,0,1,.12-.22.94.94,0,0,1,.1-.1.21.21,0,0,0-.05-.15,2.16,2.16,0,0,0-.25-.1h0a.5.5,0,0,1-.15-.05h-.29a3.77,3.77,0,0,0-2.49,1l-.29.25a4.74,4.74,0,0,0-1.29,2.58v.18a.14.14,0,0,1-.06.12c0,.43-.06,1-.09,1.69a.56.56,0,0,1,.15.1.35.35,0,0,1,.09.35,1.66,1.66,0,0,1-.24.49v.45a.58.58,0,0,1,.09.3,1.54,1.54,0,0,1-.09.24v1.05a.46.46,0,0,1,.24.2q.3.35-.24,1.14-.06,2.58-.15,3.72a.66.66,0,0,1-.1.75c-.07.33-.14.61-.2.84a3.73,3.73,0,0,1-2.53,2.58,1.61,1.61,0,0,1-.85.45.34.34,0,0,1-.3-.15s0,0,0,0h-.9a3.57,3.57,0,0,1-3.08-2.23,1.25,1.25,0,0,1-.19-.15.32.32,0,0,1,0-.35,6.41,6.41,0,0,1-.3-1.24,9.41,9.41,0,0,1-.1-1.29.68.68,0,0,1-.1-.4.37.37,0,0,1,.05-.2.14.14,0,0,1-.1-.05.76.76,0,0,1-.08-.42,1.7,1.7,0,0,1,.18-.52v-.45h-.05a.64.64,0,0,1-.1-.5.86.86,0,0,1,.15-.44V26.86c0-2.09,0-3.87,0-5.36,0-.57.06-1.18.1-1.84a0,0,0,0,0-.05-.05.45.45,0,0,1,.1-.55c0-.39.06-.79.1-1.19a.47.47,0,0,1-.1-.1.55.55,0,0,1-.08-.37,1.2,1.2,0,0,1,.23-.52.16.16,0,0,0,0-.1c-.2-.23-.14-.6.2-1.09.09-.8.16-1.39.19-1.79a5,5,0,0,1,.3-1.24,3.6,3.6,0,0,1,.4-.84c0-.1,0-.17.1-.2l0,0a3.87,3.87,0,0,1,3.13-1.74,1,1,0,0,1,.59-.3.82.82,0,0,1,.35.2.28.28,0,0,1,.1.2l.45.1a.74.74,0,0,1,.44-.2.29.29,0,0,1,.2.15.3.3,0,0,1,.05.3,1,1,0,0,1,.35.15,2.84,2.84,0,0,1,.84.74.28.28,0,0,1,.2.1.33.33,0,0,1,0,.3,3.78,3.78,0,0,1,.25.49c.43-.29.89-.59,1.39-.89l.25-.15a.58.58,0,0,1,.2-.1,10.3,10.3,0,0,1,2.28-.79l.2-.15A.27.27,0,0,1,44,10c.3,0,.6,0,.9,0h.54l0-.05a.26.26,0,0,1,.23-.08A.46.46,0,0,1,46,10a0,0,0,0,0,0,0,9.46,9.46,0,0,1,2,.64.2.2,0,0,1,.14-.05.31.31,0,0,1,.25.13.35.35,0,0,1,.1.22l.4.3a.46.46,0,0,1,.2,0,.33.33,0,0,1,.25.1.36.36,0,0,1,0,.3,5.79,5.79,0,0,1,.44.39.16.16,0,0,1,.1.05s0,0,.05,0a3.23,3.23,0,0,0,.35.4.92.92,0,0,1,.25,0,.2.2,0,0,1,.2.15.46.46,0,0,1,.14.45v.15c.07.1.14.19.2.29a10.69,10.69,0,0,1,1.29,2.34h.1c.1,0,.17,0,.2.1a.3.3,0,0,1,0,.44l0,.05c.07.2.13.38.2.55a.16.16,0,0,1,.05.1.16.16,0,0,1,0,.2v.1a2,2,0,0,0,0,.24.21.21,0,0,1,.15.05.34.34,0,0,1-.05.45,1.08,1.08,0,0,1,.05.2.21.21,0,0,1,.25.1c.13.13.08.33-.15.59A12.39,12.39,0,0,1,53.45,21v.25l0,.05a.31.31,0,0,1,0,.45h0c0,.82,0,1.65-.05,2.48h.05a.8.8,0,0,1,.2.15q.2.24-.15.54l-.1.1c0,.6-.07,1.18-.1,1.74a.58.58,0,0,1,0,.45l0,.1v.79a0,0,0,0,1,0,.05c.13.13.11.31,0,.55v.49Zm-22.05-7a7.16,7.16,0,0,0,0,.8,7.26,7.26,0,0,1,.95-1A1.48,1.48,0,0,1,31.4,22.19Zm0,3.38.6-.5a.56.56,0,0,1-.4.05h-.2Zm9.29-7.85q3.33-3,6.9-6.55a1.05,1.05,0,0,1-.3-.15c-.17.43-1.6,1.62-4.32,3.58q-1.14,1-2.58,2.28-3,2.43-8,6.21a4.29,4.29,0,0,1-.65.44,2.32,2.32,0,0,0-.3.7.62.62,0,0,0,.05.25.19.19,0,0,0,.1.05C32.55,24.56,35.57,22.29,40.64,17.72ZM31.45,20.5a5.37,5.37,0,0,1-.05.8q4.47-3.93,7.9-7.1l-7.65,6.2A.26.26,0,0,1,31.45,20.5Zm.25,6.11a1.43,1.43,0,0,0-.3.7l.35-.25c.2-.2.4-.42.6-.65A2.66,2.66,0,0,1,31.7,26.61ZM39,23.68V23Q37,24.63,35.33,26.06a33.75,33.75,0,0,0-3.78,3.68A23.68,23.68,0,0,1,33.69,28l1.14-1c1.39-1.33,2.36-2.2,2.9-2.63s.92-.63,1.12-.6Zm-7.3-6.11a5.37,5.37,0,0,1,0,.8c.37-.36.6-.6.7-.7,1.35-1.35,2.41-2.43,3.18-3.22-.63.49-1.44,1.16-2.44,2l-1.19,1A1.21,1.21,0,0,1,31.65,17.57Zm0,15.59a.37.37,0,0,0,.05.15c.17-.16.4-.38.7-.64l.49-.5A8.56,8.56,0,0,1,31.65,33.16Zm.2-17.27a.93.93,0,0,0-.05.24l.05,0A17.39,17.39,0,0,1,33.24,15c.53-.46,1.34-1.2,2.43-2.23S37.44,11.1,37.61,11a3.89,3.89,0,0,0-.5-.25c-1,.86-1.83,1.68-2.63,2.44A22.08,22.08,0,0,0,31.85,15.89Zm7,12.36V27.9a24.84,24.84,0,0,0-3.72,3c-1,.93-2.1,2-3.23,3.08a4.36,4.36,0,0,0,.35.64.14.14,0,0,0,.05-.1q1.78-1.48,3.52-3.12A33.43,33.43,0,0,0,38.9,28.25ZM32.1,13.5a1.23,1.23,0,0,0-.05.35c.13-.13.3-.28.5-.45a.88.88,0,0,1-.4.1Zm.3,13.85a1,1,0,0,0-.2.15l-.15.15A2,2,0,0,0,32.4,27.35Zm-.3,3.78,4.57-3.68a1.3,1.3,0,0,0-.35.25A34.32,34.32,0,0,0,32.1,31.13Zm5.41-9.24,2.19-2c-1.92,1.55-4.06,3.21-6.41,5l-.79.8A30.62,30.62,0,0,0,37.51,21.89Zm.79-9.48c-.36.4-.89,1-1.58,1.69-.87.89-2.19,2.23-4,4l-.09.1c1.35-1,3.4-2.75,6.15-5.26l0-.3a2.34,2.34,0,0,0-.15-.55ZM33.24,35.3c.13-.17.33-.4.6-.7a2.57,2.57,0,0,1-1.1.55,3.63,3.63,0,0,0,.35.3A2.06,2.06,0,0,1,33.24,35.3Zm.85-24.43a18.39,18.39,0,0,0-1.3,1.54c.24-.23.6-.61,1.1-1.14l.64-.65a2.14,2.14,0,0,1-.35.1A.16.16,0,0,1,34.09,10.87Zm9.48.15-1.39,1.39c-1,1-2.47,2.32-4.32,4q-2.23,2-4.92,4.42a76.49,76.49,0,0,0,6-4.91c1.85-1.62,3.81-3.4,5.86-5.32a4.85,4.85,0,0,0-1,.1ZM38.85,31c0-.23,0-.5,0-.8-2.22,2.26-3.79,3.91-4.72,5l1-.84c.56-.5,1.37-1.26,2.43-2.29A5.79,5.79,0,0,1,38.85,31Zm-4.62,4.86s0,0,0,0S34.23,35.88,34.23,35.84Zm1.15-25.17a14.33,14.33,0,0,0-1.05,1.05l-.1.1C34.73,11.35,35.11,11,35.38,10.67Zm.29,25.22a1.81,1.81,0,0,1,.25-.19,1.58,1.58,0,0,0-.3.24h.05ZM39.1,21.94a1.74,1.74,0,0,1,0-.39l-1.29,1c-.17.17-.38.36-.65.6A7.06,7.06,0,0,1,39.1,21.94Zm-.2,7.35v-.05c-.13.13-.26.27-.4.4A4,4,0,0,0,38.9,29.29Zm-.15,2.93c0-.07,0-.1,0-.1l-.25.25a0,0,0,0,0,0,.05A.93.93,0,0,1,38.75,32.22Zm.65-18.86a.49.49,0,0,0-.15.09l2.83-2.28c-.27.1-.53.22-.8.35a.14.14,0,0,1-.05.1,5.27,5.27,0,0,1-.44.39C40.49,12.31,40,12.76,39.4,13.36Zm3.92,0-1.69,1.39c.33-.24.63-.45.89-.65S43.05,13.59,43.32,13.36Zm-.2,2.92c1-.86,1.84-1.62,2.53-2.28a18.24,18.24,0,0,0,1.69-1.79Q45.11,14.4,43,16.38S43.05,16.35,43.12,16.28Zm.74,1.34a2.31,2.31,0,0,1,.4-.49l-.69.54a.46.46,0,0,1,.2-.05Zm1.49-6.7a6.64,6.64,0,0,1-.54.5,2.42,2.42,0,0,1,.4-.25A2.35,2.35,0,0,0,45.35,10.92Zm-.24,7.25a3,3,0,0,1,.29-.25c.2-.2.52-.49,1-.89a39.09,39.09,0,0,1,3.32-3c.17-.2.32-.38.45-.55L48.38,15A44.22,44.22,0,0,1,45,18,.65.65,0,0,0,45.11,18.17Zm1.59-2.48c-.57.49-1,.89-1.35,1.19C45.72,16.58,46.16,16.18,46.7,15.69Zm-1-4.12c-.1.13-.2.28-.3.44l1-.84C46.2,11.27,46,11.4,45.7,11.57Zm-.2,7.84a.37.37,0,0,1,0,.2l2-1.79c.92-.76,1.57-1.3,1.93-1.64Zm.25-4.32-.15.1-.05.05Zm-.1,17.48v.2a5.75,5.75,0,0,0,1.39-1c.2-.2.43-.41.7-.64a7.78,7.78,0,0,1-2.09,1.39Zm1.94-13.21c-.89.73-1.52,1.23-1.89,1.49l0,.1v.2C46.38,20.55,47,20,47.59,19.36ZM46.4,21.84a2.66,2.66,0,0,1-.6.35.3.3,0,0,0,.05.2Zm-.6,11.62a.14.14,0,0,0,.05-.1l-.05,0Zm.05-4.12v.45a.28.28,0,0,1,.15-.15c.43-.4,1.24-1.09,2.43-2.09q2.19-1.78,3-2.58c.83-.76,1.24-1.27,1.24-1.54q-.64-.09-3.52,2.58Zm0-5.31.5-.4-.35.25a.21.21,0,0,1-.15.05ZM46,27.7v.65L48.28,26a4.51,4.51,0,0,0,.45-.39l2.19-2.24C49.49,24.53,47.84,26,46,27.7Zm0-2.48c.3-.36.71-.81,1.24-1.34l-1.24,1Zm.15,1.29a.16.16,0,0,1-.1,0v.1A.48.48,0,0,0,46.1,26.51Zm.25,8a.91.91,0,0,1,.1-.24,1,1,0,0,1-.25.05A.62.62,0,0,0,46.35,34.5Zm2.23-11.07a3.33,3.33,0,0,0,.5-.49c-.47.43-.86.81-1.19,1.14a18.13,18.13,0,0,0-1.44,1.54Q47,25.13,48.58,23.43ZM46.45,33.61a10.38,10.38,0,0,0,1.39-1c.53-.47,1.37-1.26,2.53-2.39a28.08,28.08,0,0,1,2.23-2V28a34.15,34.15,0,0,1-2.73,2.43c-1.19,1-2,1.69-2.48,2.09A6.94,6.94,0,0,0,46.45,33.61Zm6.25-7.84a.37.37,0,0,1,0-.15v-.1c-.23.2-.59.49-1.09.89q-2.73,2.23-4,3.38c-.33.3-.63.56-.9.79l3-2.33a4.85,4.85,0,0,0,.7-.55,1.29,1.29,0,0,0,.25-.2A11,11,0,0,1,52.7,25.77ZM47.19,35.2a.65.65,0,0,1,.2-.15,1.1,1.1,0,0,1-.4.1.31.31,0,0,0,.15.15A.16.16,0,0,1,47.19,35.2Zm5.46-5.91a1,1,0,0,1-.15.15l-2,1.84Q47.64,33.82,47,34.5A15.51,15.51,0,0,0,50.17,32c.79-.76,1.62-1.59,2.48-2.48Zm-4.37,6.5,3-3.37c-.63.59-1.47,1.36-2.53,2.28q-.75.64-1,.9A1.45,1.45,0,0,0,48.28,35.79Zm.85-23.58c-.14.17-.33.38-.6.65l.7-.6A.11.11,0,0,1,49.13,12.21Zm3.32,5.66c-1.12.86-2.16,1.71-3.12,2.53ZM50.17,35.74A7.74,7.74,0,0,1,51,34.5l-.09.1a.14.14,0,0,1-.1,0,18.65,18.65,0,0,1-1.49,1.24,1.78,1.78,0,0,0,.59-.1A.65.65,0,0,0,50.17,35.74Zm-.3-22.88a.94.94,0,0,1-.1.1.19.19,0,0,1,.1-.05ZM51.36,15a5.12,5.12,0,0,1-1.19,1.44c.4-.36.79-.71,1.19-1a.49.49,0,0,1,.2-.05A3.63,3.63,0,0,0,51.36,15Zm.45.9c0,.06-.1.16-.2.29s-.4.45-.69.75-.44.48-.7.74l1.69-1.54C51.87,16,51.84,16,51.81,15.89Zm.84,16.43a4,4,0,0,0,.05-.6l-1.88,2.14c.59-.5,1.2-1,1.83-1.49ZM52.26,17l0-.05v-.05l-.4.35C52,17.18,52.12,17.1,52.26,17Zm.49,2.53-.84.8a1.28,1.28,0,0,1,.64-.25.49.49,0,0,1,.25.05A3.45,3.45,0,0,0,52.75,19.56Zm-.69,14.75a1.36,1.36,0,0,0,.2-.4l-.15.2a1.48,1.48,0,0,0-.15.25A.11.11,0,0,1,52.06,34.31ZM52,21.74a4.08,4.08,0,0,1,.84-.54v-.13A.18.18,0,0,0,52.8,21,9.81,9.81,0,0,0,52,21.74Zm.2-2.73.44-.34,0-.05Zm.59,3.83v-.5l-.54.55a.63.63,0,0,1,.44-.05Zm0,1.78v-.09a2.13,2.13,0,0,1-.4.39,1.68,1.68,0,0,0,.3-.2l.05,0Z"/><path class="a" d="M79.86,29.24a.86.86,0,0,1-.1.94,15.47,15.47,0,0,1-.1,2.44,4,4,0,0,1-2.43,3.57.79.79,0,0,1-.45.2h-.1a.62.62,0,0,0-.25,0,3.8,3.8,0,0,1-.89.1,4,4,0,0,1-.6,0,.47.47,0,0,1-.19.1h0a.29.29,0,0,1-.2-.15s0,0,0,0c-.3-.1-.57-.2-.8-.3H73.5a.3.3,0,0,1-.24-.1.35.35,0,0,1-.05-.2c-.2-.13-.4-.28-.6-.44a4.07,4.07,0,0,1-1-2,.36.36,0,0,1-.15-.1.54.54,0,0,1-.15-.49,1.93,1.93,0,0,1,.15-.35,0,0,0,0,1,0-.05c-.17-.2-.13-.46.1-.8a2,2,0,0,1,0-.49.44.44,0,0,1,0-.45c0-.33.05-.58.05-.74v-.35a.29.29,0,0,1,0-.45l0-.05a8.69,8.69,0,0,0,0-.89.26.26,0,0,1-.2-.1c-.13-.17,0-.4.25-.7,0-1.32,0-3-.15-5.06-.07,0-.1-.06-.1-.1a.31.31,0,0,1,0-.45h0a3.74,3.74,0,0,0,0-.54h0c-.1,0-.17,0-.2-.1-.2-.23-.15-.53.15-.89a1.75,1.75,0,0,0,0-.4.2.2,0,0,1-.3-.1c-.13-.13-.12-.28.05-.45h-.05a.58.58,0,0,1-.25-.15.23.23,0,0,1-.07-.22.48.48,0,0,1,.12-.22l.1-.1a.21.21,0,0,0,0-.15l-.25-.1h0a.39.39,0,0,1-.14-.05h-.3a3.79,3.79,0,0,0-2.49,1l-.29.25a4.74,4.74,0,0,0-1.29,2.58v.18a.17.17,0,0,1,0,.12c0,.43-.07,1-.1,1.69a.56.56,0,0,1,.15.1.35.35,0,0,1,.1.35,2.05,2.05,0,0,1-.25.49v.45a.6.6,0,0,1,.1.3c0,.1-.07.18-.1.24v1.05a.48.48,0,0,1,.25.2c.19.23.11.61-.25,1.14q-.06,2.58-.15,3.72a.66.66,0,0,1-.1.75c-.07.33-.13.61-.2.84A3.73,3.73,0,0,1,63,36.34a1.63,1.63,0,0,1-.84.45.32.32,0,0,1-.3-.15s-.05,0-.05,0h-.9a3.55,3.55,0,0,1-3.07-2.23,1,1,0,0,1-.2-.15.32.32,0,0,1,0-.35,6.41,6.41,0,0,1-.3-1.24,9.41,9.41,0,0,1-.1-1.29.68.68,0,0,1-.1-.4.49.49,0,0,1,.05-.2.16.16,0,0,1-.1-.05.67.67,0,0,1-.07-.42,1.42,1.42,0,0,1,.17-.52v-.45h-.05a.64.64,0,0,1-.1-.5.86.86,0,0,1,.15-.44V26.86c0-2.09,0-3.87,0-5.36,0-.57.07-1.18.1-1.84a0,0,0,0,0-.05-.05.45.45,0,0,1,.1-.55c0-.39.06-.79.1-1.19l-.1-.1a.55.55,0,0,1-.08-.37,1.34,1.34,0,0,1,.23-.52.16.16,0,0,0,0-.1c-.2-.23-.13-.6.2-1.09.1-.8.16-1.39.2-1.79a4.53,4.53,0,0,1,.29-1.24,4.06,4.06,0,0,1,.4-.84c0-.1,0-.17.1-.2l0,0a3.87,3.87,0,0,1,3.13-1.74,1,1,0,0,1,.59-.3.82.82,0,0,1,.35.2.28.28,0,0,1,.1.2l.45.1a.74.74,0,0,1,.44-.2.29.29,0,0,1,.2.15.3.3,0,0,1,0,.3,1,1,0,0,1,.35.15,2.84,2.84,0,0,1,.84.74.26.26,0,0,1,.2.1.33.33,0,0,1,0,.3,3.78,3.78,0,0,1,.25.49c.43-.29.89-.59,1.39-.89A1.48,1.48,0,0,0,67.3,11a.58.58,0,0,1,.2-.1,10.3,10.3,0,0,1,2.28-.79L70,10a.28.28,0,0,1,.45,0,8.69,8.69,0,0,1,.89,0h.55l0-.05a.26.26,0,0,1,.23-.08.42.42,0,0,1,.22.13,0,0,0,0,0,0,0,9.29,9.29,0,0,1,2,.64.21.21,0,0,1,.15-.05.29.29,0,0,1,.24.13.35.35,0,0,1,.1.22l.4.3a.49.49,0,0,1,.2,0,.33.33,0,0,1,.25.1.36.36,0,0,1,0,.3,5.79,5.79,0,0,1,.44.39.14.14,0,0,1,.1.05s0,0,.05,0a3.23,3.23,0,0,0,.35.4.92.92,0,0,1,.25,0,.2.2,0,0,1,.2.15.49.49,0,0,1,.15.45v.15c.06.1.13.19.2.29a11.6,11.6,0,0,1,1.29,2.34H79a.19.19,0,0,1,.19.1.28.28,0,0,1,0,.44l0,.05.2.55a.16.16,0,0,1,0,.1.16.16,0,0,1,0,.2v.1a2,2,0,0,0,0,.24.21.21,0,0,1,.15.05.34.34,0,0,1,0,.45,1.08,1.08,0,0,1,0,.2.21.21,0,0,1,.25.1c.13.13.08.33-.15.59A12.39,12.39,0,0,1,79.86,21v.25l0,.05a.31.31,0,0,1,0,.45h0c0,.82,0,1.65,0,2.48h0a.8.8,0,0,1,.2.15q.19.24-.15.54l-.1.1c0,.6-.07,1.18-.1,1.74a.51.51,0,0,1,0,.45l0,.1v.79a0,0,0,0,1,0,.05c.13.13.12.31,0,.55v.49Zm-22-7a5.37,5.37,0,0,0,0,.8,6.6,6.6,0,0,1,.94-1A1.46,1.46,0,0,1,57.82,22.19Zm0,3.38.59-.5a.56.56,0,0,1-.4.05h-.19Zm9.28-7.85q3.33-3,6.9-6.55a1.05,1.05,0,0,1-.3-.15q-.24.64-4.32,3.58-1.14,1-2.58,2.28-3,2.43-8,6.21a3.84,3.84,0,0,1-.65.44,2,2,0,0,0-.29.7.49.49,0,0,0,0,.25.14.14,0,0,0,.09.05Q59.46,24.57,67.05,17.72ZM57.87,20.5a7.16,7.16,0,0,1,0,.8c3-2.62,5.61-5,7.89-7.1l-7.65,6.2A.26.26,0,0,1,57.87,20.5Zm.24,6.11a1.49,1.49,0,0,0-.29.7l.34-.25c.2-.2.4-.42.6-.65A2.66,2.66,0,0,1,58.11,26.61Zm7.25-2.93V23q-1.94,1.64-3.62,3.07A33.75,33.75,0,0,0,58,29.74,23.68,23.68,0,0,1,60.1,28l1.14-1c1.39-1.33,2.36-2.2,2.91-2.63s.91-.63,1.11-.6Zm-7.3-6.11a5.37,5.37,0,0,1-.05.8c.37-.36.6-.6.7-.7,1.36-1.35,2.42-2.43,3.18-3.22-.63.49-1.44,1.16-2.44,2l-1.19,1Zm0,15.59a.37.37,0,0,0,0,.15c.17-.16.4-.38.7-.64s.33-.33.5-.5A8.94,8.94,0,0,1,58.06,33.16Zm.2-17.27a.93.93,0,0,0,0,.24l0,0A17.39,17.39,0,0,1,59.65,15c.53-.46,1.34-1.2,2.44-2.23S63.86,11.1,64,11a3.78,3.78,0,0,0-.49-.25c-1,.86-1.84,1.68-2.64,2.44A22.87,22.87,0,0,0,58.26,15.89Zm7.05,12.36V27.9a24.84,24.84,0,0,0-3.72,3c-1,.93-2.1,2-3.23,3.08a4.36,4.36,0,0,0,.35.64.14.14,0,0,0,0-.1c1.19-1,2.37-2,3.52-3.12A33.43,33.43,0,0,0,65.31,28.25ZM58.51,13.5a1.23,1.23,0,0,0,0,.35c.13-.13.3-.28.5-.45a.85.85,0,0,1-.4.1Zm.3,13.85a1.3,1.3,0,0,0-.2.15l-.15.15A1.7,1.7,0,0,0,58.81,27.35Zm-.3,3.78,4.57-3.68a1.48,1.48,0,0,0-.35.25A34.32,34.32,0,0,0,58.51,31.13Zm5.41-9.24,2.19-2c-1.92,1.55-4.06,3.21-6.41,5l-.79.8A30.62,30.62,0,0,0,63.92,21.89Zm.8-9.48L63.13,14.1c-.86.89-2.19,2.23-4,4l-.1.1c1.35-1,3.41-2.75,6.15-5.26l0-.3a3,3,0,0,0-.14-.55ZM59.65,35.3c.13-.17.33-.4.6-.7a2.61,2.61,0,0,1-1.09.55,3.45,3.45,0,0,0,.34.3A2.09,2.09,0,0,0,59.65,35.3Zm.85-24.43a16.46,16.46,0,0,0-1.29,1.54c.23-.23.59-.61,1.09-1.14l.64-.65a2.31,2.31,0,0,1-.34.1A.16.16,0,0,1,60.5,10.87ZM70,11l-1.39,1.39c-1,1-2.47,2.32-4.32,4q-2.23,2-4.92,4.42a76.49,76.49,0,0,0,6-4.91c1.85-1.62,3.81-3.4,5.86-5.32a4.67,4.67,0,0,0-.94.1C70.21,10.74,70.11,10.86,70,11ZM65.26,31c0-.23,0-.5,0-.8-2.22,2.26-3.79,3.91-4.71,5l1-.84C62.15,33.81,63,33.05,64,32A5.79,5.79,0,0,1,65.26,31Zm-4.61,4.86s0,0,0,0S60.65,35.88,60.65,35.84Zm1.14-25.17q-.34.3-1,1.05l-.09.1C61.14,11.35,61.52,11,61.79,10.67Zm.3,25.22a1.26,1.26,0,0,1,.24-.19,1.53,1.53,0,0,0-.29.24h.05Zm3.42-13.95a1.74,1.74,0,0,1,0-.39l-1.29,1c-.17.17-.38.36-.65.6A7.22,7.22,0,0,1,65.51,21.94Zm-.2,7.35v-.05l-.39.4A5.12,5.12,0,0,0,65.31,29.29Zm-.15,2.93c0-.07,0-.1,0-.1s-.15.15-.25.25,0,0,0,.05A1.12,1.12,0,0,1,65.16,32.22Zm.65-18.86a.49.49,0,0,0-.15.09l2.83-2.28c-.27.1-.53.22-.8.35a.16.16,0,0,1,0,.1,5.75,5.75,0,0,1-.45.39C66.9,12.31,66.44,12.76,65.81,13.36Zm3.92,0L68,14.75l.9-.65C69.2,13.84,69.47,13.59,69.73,13.36Zm-.2,2.92c1-.86,1.84-1.62,2.53-2.28a17.1,17.1,0,0,0,1.69-1.79c-1.49,1.46-2.94,2.85-4.37,4.17C69.42,16.38,69.47,16.35,69.53,16.28Zm.75,1.34a2.2,2.2,0,0,1,.39-.49l-.69.54a.49.49,0,0,1,.2-.05Zm1.49-6.7c-.17.17-.35.33-.55.5a2.42,2.42,0,0,1,.4-.25Zm-.25,7.25a2.21,2.21,0,0,1,.3-.25c.19-.2.51-.49.94-.89a37.12,37.12,0,0,1,3.33-3l.44-.55L74.79,15A44.22,44.22,0,0,1,71.37,18,.65.65,0,0,0,71.52,18.17Zm1.59-2.48c-.57.49-1,.89-1.34,1.19C72.13,16.58,72.58,16.18,73.11,15.69Zm-1-4.12a3.73,3.73,0,0,0-.29.44l1-.84C72.61,11.27,72.38,11.4,72.11,11.57Zm-.2,7.84a.39.39,0,0,1,.06.2c.36-.33,1-.93,2-1.79s1.57-1.3,1.94-1.64Zm.25-4.32-.15.1,0,.05Zm-.1,17.48v.2a5.75,5.75,0,0,0,1.39-1c.2-.2.43-.41.7-.64a7.78,7.78,0,0,1-2.09,1.39ZM74,19.36c-.89.73-1.52,1.23-1.89,1.49l0,.1v.2C72.79,20.55,73.4,20,74,19.36Zm-1.19,2.48a2.46,2.46,0,0,1-.6.35.3.3,0,0,0,.05.2Zm-.6,11.62a.11.11,0,0,0,.05-.1l-.05,0Zm.05-4.12v.45a.31.31,0,0,1,.15-.15c.43-.4,1.24-1.09,2.43-2.09q2.19-1.78,3-2.58c.83-.76,1.24-1.27,1.24-1.54q-.64-.09-3.52,2.58Zm0-5.31.5-.4-.35.25a.21.21,0,0,1-.15.05Zm0,3.67v.65c.83-.86,1.61-1.66,2.34-2.39a5.79,5.79,0,0,0,.44-.39l2.19-2.24C75.9,24.53,74.25,26,72.36,27.7Zm0-2.48c.3-.36.71-.81,1.24-1.34l-1.24,1Zm.15,1.29a.16.16,0,0,1-.1,0v.1A.48.48,0,0,0,72.51,26.51Zm.25,8a.91.91,0,0,1,.1-.24.92.92,0,0,1-.25.05A.62.62,0,0,0,72.76,34.5ZM75,23.43a3.33,3.33,0,0,0,.5-.49c-.46.43-.86.81-1.19,1.14-.66.66-1.14,1.17-1.44,1.54Q73.4,25.13,75,23.43ZM72.86,33.61a9.76,9.76,0,0,0,1.39-1c.53-.47,1.37-1.26,2.53-2.39a28.08,28.08,0,0,1,2.23-2V28a34.15,34.15,0,0,1-2.73,2.43L73.8,32.52A6.94,6.94,0,0,0,72.86,33.61Zm6.25-7.84a.37.37,0,0,1,0-.15v-.1c-.23.2-.59.49-1.09.89q-2.73,2.23-4,3.38l-.89.79c.63-.49,1.63-1.27,3-2.33a4.34,4.34,0,0,0,.7-.55,1.29,1.29,0,0,0,.25-.2A11,11,0,0,1,79.11,25.77ZM73.6,35.2a.65.65,0,0,1,.2-.15,1.05,1.05,0,0,1-.4.1.36.36,0,0,0,.15.15A.16.16,0,0,1,73.6,35.2Zm5.46-5.91-.14.15-2,1.84Q74,33.82,73.45,34.5A15.23,15.23,0,0,0,76.58,32c.8-.76,1.62-1.59,2.48-2.48Zm-4.36,6.5,3-3.37C77,33,76.2,33.78,75.14,34.7c-.49.43-.83.73-1,.9A1.44,1.44,0,0,0,74.7,35.79Zm.84-23.58a7.3,7.3,0,0,1-.6.65l.7-.6A.12.12,0,0,1,75.54,12.21Zm3.33,5.66c-1.13.86-2.17,1.71-3.13,2.53ZM76.58,35.74a7.35,7.35,0,0,1,.85-1.24l-.1.1a.14.14,0,0,1-.1,0,18.65,18.65,0,0,1-1.49,1.24,1.7,1.7,0,0,0,.59-.1A.65.65,0,0,0,76.58,35.74Zm-.3-22.88-.1.1a.19.19,0,0,1,.1-.05ZM77.77,15a5.12,5.12,0,0,1-1.19,1.44c.4-.36.8-.71,1.19-1a.53.53,0,0,1,.2-.05A2.3,2.3,0,0,0,77.77,15Zm.45.9a2.22,2.22,0,0,1-.2.29c-.16.2-.4.45-.69.75s-.43.48-.7.74l1.69-1.54A1.94,1.94,0,0,0,78.22,15.89Zm.84,16.43a3,3,0,0,0,0-.6l-1.88,2.14c.59-.5,1.2-1,1.83-1.49ZM78.67,17l0-.05v-.05l-.4.35Zm.49,2.53c-.19.2-.48.46-.84.8a1.27,1.27,0,0,1,.65-.25.45.45,0,0,1,.24.05A2.69,2.69,0,0,0,79.16,19.56Zm-.69,14.75a1.36,1.36,0,0,0,.2-.4l-.15.2a1.48,1.48,0,0,0-.15.25A.11.11,0,0,1,78.47,34.31Zm0-12.57a4.08,4.08,0,0,1,.84-.54v-.13a.15.15,0,0,0-.05-.12A9.81,9.81,0,0,0,78.42,21.74Zm.2-2.73.44-.34,0-.05Zm.59,3.83v-.5l-.54.55a.63.63,0,0,1,.44-.05Zm0,1.78v-.09a2.39,2.39,0,0,1-.39.39,2.22,2.22,0,0,0,.29-.2l0,0Z"/><path class="a" d="M103.84,21l.2.1a.35.35,0,0,1-.05.45l-.25.19a41.42,41.42,0,0,1-.75,4.47c.17.2.08.5-.25.9a7,7,0,0,0-.24.74.36.36,0,0,1,0,.25,1.71,1.71,0,0,1-.4.89,14.27,14.27,0,0,1-3.92,5.86,6.88,6.88,0,0,1-1.69,1.24.5.5,0,0,1-.45.2,6.85,6.85,0,0,1-1.09.4,1.35,1.35,0,0,1-.6.25.57.57,0,0,1-.24,0c-.33,0-.67,0-1,0a7.49,7.49,0,0,1-4.86-1.79c-.43-.36-.83-.73-1.19-1.09a.23.23,0,0,1-.2,0,.3.3,0,0,1-.2-.1.64.64,0,0,1-.1-.5,10.94,10.94,0,0,1-1.24-1.74.28.28,0,0,1-.15-.15.21.21,0,0,1,0-.24.14.14,0,0,0-.05-.1.53.53,0,0,1-.25-.2.45.45,0,0,1-.1-.3.23.23,0,0,1,0-.15s0,0,0,0v-.1a.56.56,0,0,1-.15-.1.5.5,0,0,1,0-.39,5.81,5.81,0,0,1-.2-.55.25.25,0,0,1-.15.05.19.19,0,0,1-.2-.15.49.49,0,0,1-.15-.45.2.2,0,0,1,0-.14l-.15-.1c-.13-.14-.08-.33.15-.6a0,0,0,0,0,.05-.05,4.21,4.21,0,0,1-.15-.74.87.87,0,0,1-.25-.15.29.29,0,0,1,0-.45l.1-.1c0-.26-.07-.53-.1-.79a.87.87,0,0,1-.25-.15c-.13-.17-.08-.4.15-.7-.1-.72-.16-1.45-.2-2.18a.2.2,0,0,1-.2-.1c-.16-.2-.11-.5.15-.89,0-.57,0-1.11,0-1.64a.62.62,0,0,1-.05-.4.49.49,0,0,1,.05-.2l-.05-.05c-.13-.16-.11-.38.05-.64,0-.47,0-.93,0-1.39a.46.46,0,0,1,0-.2,28.91,28.91,0,0,1,.45-3.28l0-.05a.66.66,0,0,1,.15-.49,7.71,7.71,0,0,1,.64-1.44A4.26,4.26,0,0,1,86,10.57a1.35,1.35,0,0,1,.3-.14,3.62,3.62,0,0,1,1.59-.35h.4a.82.82,0,0,1,.37-.15.28.28,0,0,1,.22.1l.1.2a2.63,2.63,0,0,1,.45.15l.2.1h.15a.32.32,0,0,1,.2.09c.06.07.1.12.1.15a3.73,3.73,0,0,1,1.48,2v0a3.85,3.85,0,0,1,.15,1.44l0,.05c.1.13.07.3-.1.5a.39.39,0,0,0-.05.14,12.6,12.6,0,0,0-.29,2.39.14.14,0,0,1,0,.1c.16.19.13.46-.1.79a6.55,6.55,0,0,0,0,.89l0,.05c.13.17.11.38,0,.65,0,.3.06.61.1.94a.54.54,0,0,1,.05.5l.09,1a.2.2,0,0,1,.1.2.21.21,0,0,1-.05.25.32.32,0,0,0,.05.2.55.55,0,0,1,.2.15c.13.16.1.39-.1.69,0,.27.07.58.1.94l.05.05L92,25.82l.15.14a.53.53,0,0,1,0,.2c0,.1,0,.17-.1.2a3.87,3.87,0,0,0,1,2,1,1,0,0,1,.25.1l.1-.1.25-.1a7.29,7.29,0,0,0,1-2.33.47.47,0,0,0-.1-.1.28.28,0,0,1,.05-.4l.13-.13a.26.26,0,0,1,.12-.07c.2-.79.38-1.67.55-2.63a1,1,0,0,0,0-.3,0,0,0,0,0,0-.05c-.1-.13-.07-.3.1-.5a.11.11,0,0,1,0-.09c.13-.9.24-1.77.34-2.64a1.11,1.11,0,0,1,0-.34.62.62,0,0,1,0-.25,1.72,1.72,0,0,0,0-.4.56.56,0,0,1-.15-.1q-.2-.24.15-.69v-.8a.24.24,0,0,1,0-.25.14.14,0,0,1,0-.09,4.4,4.4,0,0,0-.15-.9,5.34,5.34,0,0,1,0-.69,1.25,1.25,0,0,1-.19-.15q-.25-.3.24-1a3.48,3.48,0,0,1,.35-1,.27.27,0,0,1,0-.35l.05,0,.2-.14a4,4,0,0,1,1.34-1.25c.33-.26.58-.38.74-.34h.1a.46.46,0,0,0,.2-.05,5,5,0,0,1,1-.1h.2a.69.69,0,0,1,.4-.15.73.73,0,0,1,.35.2v0a3,3,0,0,1,.84.3.61.61,0,0,1,.35-.15.33.33,0,0,1,.25.1.61.61,0,0,1,.1.49,4.85,4.85,0,0,1,.74.7.28.28,0,0,1,.45.05.28.28,0,0,1,0,.44l-.05.05a4.79,4.79,0,0,1,.45,1.2,26.64,26.64,0,0,1,0,6.7.36.36,0,0,1,0,.25A4,4,0,0,0,103.84,21Zm-20-3.47a1.74,1.74,0,0,1,0,.39q.9-1,3.82-3.77c.93-.86,1.54-1.46,1.84-1.79a16.63,16.63,0,0,0-2.88,2.34C85.72,15.59,84.81,16.53,83.88,17.53ZM84,19.21a1.31,1.31,0,0,0-.2.35c.5-.36,1.46-1.14,2.88-2.33a3.63,3.63,0,0,0,.35-.3c1.15-1,2.43-2.12,3.82-3.28a.76.76,0,0,1,.15-.1v-.19l-.1,0c-.37.3-1.21,1-2.53,2.14C86,17.59,84.56,18.82,84,19.21Zm-.2,2.68A68.91,68.91,0,0,0,90.73,16v0c0-.2.07-.38.1-.55-.17.13-.46.38-.89.74-1.82,1.59-3.16,2.79-4,3.58A17.28,17.28,0,0,0,83.83,21.89Zm.1,1s0-.07.1-.1.33-.4.59-.7a4.58,4.58,0,0,1-.74.5A1,1,0,0,0,83.93,22.89Zm.1-7a1,1,0,0,1,0,.29l.45-.44A.87.87,0,0,1,84,15.94Zm0,7.69a3.36,3.36,0,0,0,0,.65l.2-.2c.39-.4,1.17-1.11,2.33-2.14A45.69,45.69,0,0,0,90.63,18v-.15a11,11,0,0,0-2.43,1.84Q86.91,20.85,84.82,23C84.36,23.42,84.08,23.63,84,23.63ZM84.23,26q2.52-2.22,4.37-4.07c-.3.24-.57.45-.8.65a39.2,39.2,0,0,1-3.62,2.93A2,2,0,0,0,84.23,26Zm.15-12a4.21,4.21,0,0,0-.15.74c.66-.59,1.25-1.14,1.78-1.63a18.18,18.18,0,0,0,1.84-2Q86.56,12.22,84.38,14.05Zm.09,13.4c.24-.26.72-.72,1.44-1.39a60.7,60.7,0,0,0,4.72-4.76,13.17,13.17,0,0,0-1.09.84q-.75.64-2.43,2.34A30.57,30.57,0,0,1,84.38,27C84.41,27.14,84.44,27.29,84.47,27.45Zm.45,1.84q.6-.69,3.13-2.93l1.34-1.19Q87.45,26.76,84.87,29A1,1,0,0,0,84.92,29.29Zm5.71-10V19c-.59.62-1.82,1.77-3.67,3.42-.67.6-1.14,1-1.44,1.34C86.94,22.57,88.65,21.08,90.63,19.26Zm-3.82-8.39a1.93,1.93,0,0,1-.4.7l1-.85C87.2,10.76,87,10.81,86.81,10.87Zm0,22a22.1,22.1,0,0,1,3.57-3.63l-1.34,1.14c-.76.73-1.55,1.51-2.38,2.34A2.09,2.09,0,0,1,86.86,32.87Zm4.37-8.2a.87.87,0,0,1,0-.34c-.43.43-1.34,1.25-2.73,2.48-.43.4-.76.69-1,.89l.5-.39C89,26.38,90,25.52,91,24.72A.46.46,0,0,1,91.23,24.67ZM89.79,13l-1.74,1.69a4,4,0,0,0-.55.54q1.4-1.09,3-2.28a1.29,1.29,0,0,0,.3-.2,2.8,2.8,0,0,0-.3-.6A4.35,4.35,0,0,1,89.79,13Zm-2.14,20.8c.13-.17.35-.43.65-.79l.74-.75c-.49.46-1,.93-1.54,1.39Zm1.19-22.94A6.06,6.06,0,0,1,88,12.06l1.14-1.14A1.18,1.18,0,0,1,88.84,10.82ZM88.94,34l-.15.3a5.92,5.92,0,0,0,.75-.4q.49-.55,1.29-1.29C90,33.16,89.41,33.63,88.94,34Zm3.13-5.41c-.2.2-.59.58-1.19,1.14-.93.83-1.61,1.44-2,1.84l.65-.55a23.27,23.27,0,0,1,3-2.38,2,2,0,0,0-.2-.25ZM90.23,27a5.76,5.76,0,0,0,.75-.8c-.33.27-.84.75-1.54,1.44C89.67,27.45,89.94,27.24,90.23,27Zm12.56-3.13c0-.17.07-.33.1-.5a10.68,10.68,0,0,1-.89.8l-5.31,4.76a81.41,81.41,0,0,1-6.75,5.42,2.84,2.84,0,0,0-.45.54q1.44-.88,8.69-7.2C101,25.29,102.53,24,102.79,23.88ZM90.88,22c-.3.33-.71.78-1.24,1.34.43-.33.86-.64,1.29-.94A1.75,1.75,0,0,1,90.88,22Zm-1-10.62-.15.25a1.18,1.18,0,0,1,.35,0Zm.54,23.68c-.23.17-.43.3-.59.4l.1,0C90,35.43,90.12,35.28,90.38,35.05Zm-.2-17.62a1.69,1.69,0,0,1,.45-.2v-.3A5.07,5.07,0,0,1,90.18,17.43Zm1.39,9.38-1,.69a2.09,2.09,0,0,1-.3.35c.67-.56,1.11-.83,1.34-.79A.62.62,0,0,1,91.57,26.81Zm-.19,9.28.29-.3a6.9,6.9,0,0,1,.75-.69h0q-.6.49-1.14,1Zm10.17-7.59c.07-.13.13-.27.2-.4-.89.83-2.7,2.35-5.41,4.57q-2.62,2.13-3.53,2.93l-.64.64.7.1c.06-.07.28-.25.64-.55q3.13-2.48,5-4.17a22.34,22.34,0,0,0,3-2.92l0-.15Zm-8.44.64-.24.25Zm10-7.74a2.83,2.83,0,0,0,0-.5l-8.44,6.8a.11.11,0,0,1-.1.05,1.18,1.18,0,0,1-.1.25q.7-.6,1.44-1.14Q99.32,24.22,103.14,21.4ZM95.4,25.77a2.55,2.55,0,0,0-.15.44l.4-.39c.72-.73,1.73-1.72,3-3,.6-.6,1.24-1.23,1.94-1.89-.33.3-.66.61-1,.94l-1.69,1.49A31.59,31.59,0,0,1,95.4,25.77Zm.44-1.84a2.34,2.34,0,0,1-.15.55c.63-.53,1.23-1.05,1.79-1.54,0,0,0-.05,0-.05A39.77,39.77,0,0,1,102,18.82a2.72,2.72,0,0,1,.3-.35c-1.56,1.22-3.64,3-6.26,5.41A.46.46,0,0,1,95.84,23.93Zm1.25,10c.06-.07.11-.1.14-.1L97,34q-.7.65-1.2,1.14A16.41,16.41,0,0,0,97.09,34Zm-1-11.27a.4.4,0,0,0,0,.25,1.41,1.41,0,0,1,.3-.3c.3-.3.91-.9,1.84-1.79,1.42-1.36,2.46-2.38,3.12-3.08C99.85,19,98.14,20.39,96.19,22,96.16,22.27,96.12,22.49,96.09,22.69Zm.25-1.79.35-.37a5.33,5.33,0,0,1,.4-.42,1.35,1.35,0,0,1-.6.2h0C96.41,20.5,96.37,20.7,96.34,20.9Zm.35-5.41h-.15a.12.12,0,0,0,0,.1Zm-.15,3.77v.1l.25-.25Zm1.14-7.15c-.5.57-.86,1-1.09,1.29.3-.26.74-.71,1.34-1.34l1.29-1.29a.69.69,0,0,0-.2,0l-.25.07A10.91,10.91,0,0,1,97.68,12.11Zm5.31.5c-1,.89-2,1.71-2.83,2.43S98.43,16.52,97.83,17a8.24,8.24,0,0,0-1.24,1.54,77.86,77.86,0,0,0,6.5-5.46.12.12,0,0,1,.1-.05C103.12,12.88,103.06,12.74,103,12.61Zm-6.35,3.77v.2l.1-.1a9.73,9.73,0,0,1,.79-.79,9.25,9.25,0,0,1-.79.54A.76.76,0,0,1,96.64,16.38Zm3.92-5.61c-.66.6-1.27,1.19-1.84,1.79a11.93,11.93,0,0,0-1.78,2.09c.49-.37,1.52-1.26,3.07-2.69.53-.49.91-.84,1.15-1ZM103.29,20a7.16,7.16,0,0,1,0-.8l-4.91,4.72Zm-3.13,11.56q.15-.24.3-.54c-.23.2-.46.41-.69.64a.56.56,0,0,1,.34-.14Zm-.1-6.65,1.49-1.24,1-.94C101.73,23.47,100.89,24.19,100.06,24.92Zm1.34-12.11c-.29.3-.71.69-1.24,1.19.76-.66,1.59-1.32,2.48-2l-.29-.29A5.48,5.48,0,0,1,101.4,12.81Zm2,1.84-3.23,3.22c1.86-1.52,2.93-2.36,3.23-2.53Zm-3.08,13,1-.84a9.25,9.25,0,0,1-.79.54A2.21,2.21,0,0,0,100.36,27.65Zm1.94-1.44s0,0,0-.05a4.39,4.39,0,0,0-.45.3ZM103.44,17v-.5c-.27.3-.68.73-1.24,1.29A5,5,0,0,1,103.44,17Zm-.4,5.41.35-4v-.15l-.1.1A.16.16,0,0,1,103.39,18.42Z"/></svg>