<svg xmlns="http://www.w3.org/2000/svg" viewBox="0 0 106.98 46.47"><defs><style>.a{fill:#29abe2;}</style></defs><path class="a" d="M29,21.51a.32.32,0,0,1,.23.09.65.65,0,0,1,.09.37,1.63,1.63,0,0,1-.32.58v.55a.15.15,0,0,1,.14.09.23.23,0,0,1,0,.36l-.14.14v2a.14.14,0,0,1,.05.09c.12.12.1.25-.05.37l0,0v.64a.56.56,0,0,1,.14.09.73.73,0,0,1,.14.45,1.46,1.46,0,0,1-.23.5.19.19,0,0,1,0,.27c0,.3,0,.64,0,1a.18.18,0,0,1,.18.09c.21.24.15.59-.18,1a1.49,1.49,0,0,1-.05.36h.05a.39.39,0,0,1-.05.46v.13a5.55,5.55,0,0,1,0,1.23,3.18,3.18,0,0,1-.27,1,.3.3,0,0,1-.09.31h-.09a3.65,3.65,0,0,1-2.14,1.82H26a2.19,2.19,0,0,1-.77.13h-.72a.41.41,0,0,1-.18,0,.19.19,0,0,1-.19-.09l-.72-.18a.46.46,0,0,1-.32.11.49.49,0,0,1-.23-.11.32.32,0,0,1,0-.28,4.71,4.71,0,0,1-.73-.59,17.33,17.33,0,0,1-4.76.82H17a10.4,10.4,0,0,1-2-.18,1.23,1.23,0,0,1-.28,0h0a.68.68,0,0,1-.32-.18l0,0a8.74,8.74,0,0,1-2.95-1.45.74.74,0,0,1-.32.09.29.29,0,0,1-.22-.09.5.5,0,0,1-.09-.32.35.35,0,0,1,.09-.18,3.76,3.76,0,0,1-.41-.36c-.18-.22-.37-.43-.55-.64A.26.26,0,0,1,9.7,32a.32.32,0,0,1-.09-.23A10.1,10.1,0,0,1,9,30.85a.48.48,0,0,1-.13-.09.25.25,0,0,1-.05-.32,10,10,0,0,1-.5-1.18.29.29,0,0,1-.22-.09c-.13-.15-.13-.28,0-.4h0A3,3,0,0,1,8,28.31a.44.44,0,0,1-.27-.18c-.15-.15-.13-.39,0-.72a21.25,21.25,0,0,1-.32-4.27L7.32,23a.37.37,0,0,1-.07-.2.3.3,0,0,1,.09-.21.61.61,0,0,0,.23-.13,15.92,15.92,0,0,1,.73-2.9v-.05a.2.2,0,0,1-.07-.2.36.36,0,0,1,.11-.21.12.12,0,0,0,.09,0A.14.14,0,0,1,8.52,19c.12-.3.24-.59.37-.86-.16-.27.16-.78.95-1.54a11.82,11.82,0,0,1,.77-1,.56.56,0,0,1,.09-.14.12.12,0,0,1,.09,0,16.1,16.1,0,0,1,2.9-2.5,5.82,5.82,0,0,1,.77-.45.14.14,0,0,1,0-.09.29.29,0,0,1,.22-.09,10.87,10.87,0,0,1,2.41-.82,1.74,1.74,0,0,1,.86-.36.68.68,0,0,1,.36.18h.91a1.09,1.09,0,0,1,.41-.09.49.49,0,0,1,.36.14,4.84,4.84,0,0,1,.95.18.41.41,0,0,1,.18,0,.18.18,0,0,1,.18.09.14.14,0,0,1,0,.09l.5.19a.79.79,0,0,1,.25,0,.85.85,0,0,1,.25,0A4.36,4.36,0,0,1,24.66,11a.91.91,0,0,1,.41.09h.41a4.13,4.13,0,0,1,1.09.14,3.5,3.5,0,0,1,1.9,1.45.56.56,0,0,1,.14.09.54.54,0,0,1,.09.31A3.72,3.72,0,0,1,29,14.17a.49.49,0,0,1,.18.09c.12.15.06.35-.18.59a6,6,0,0,0,.05.81.26.26,0,0,1,.18.09c.18.22.12.55-.18,1v.64a.38.38,0,0,1,0,.36c0,1,0,1.9-.05,2.72a.49.49,0,0,1,.23.14.25.25,0,0,1-.05.4.41.41,0,0,1-.18,0ZM14.6,20.7c.36-.28.63-.47.81-.59a5.32,5.32,0,0,1,1.18-.91A11.17,11.17,0,0,1,18,18.07a1.65,1.65,0,0,1,.46-.23.14.14,0,0,1,.09-.05.29.29,0,0,1,.22-.09q6-4.48,6.21-5.8a.27.27,0,0,0,0-.27,3.09,3.09,0,0,0-1.81,1.27l-.14.22-.27-.18-.09-.09a7.19,7.19,0,0,1-1.27,1.34c-.64.56-1.32,1.13-2.06,1.7s-1.81,1.38-3.2,2.4c-.82.58-1.42,1-1.81,1.32l-3.77,3.71c-1.39,1.43-2.16,2.18-2.31,2.27v.14C8.67,25.06,10.82,23.39,14.6,20.7ZM8.21,23.46v.09A7.18,7.18,0,0,0,8.93,23l-.63.22A1.85,1.85,0,0,1,8.21,23.46Zm.13-2c0,.12-.06.25-.09.4l.59-.49a1.13,1.13,0,0,1-.41.09Zm2,1.18a9.72,9.72,0,0,0-2,2L10.06,23A1.91,1.91,0,0,1,10.38,22.65Zm-2,4.85v.13a9.91,9.91,0,0,0,1.23-.95q.77-.67,2.58-2.4a21.43,21.43,0,0,1,2.95-2.68,5.25,5.25,0,0,1,.22-.63c-.21.18-.43.36-.68.54l-.63.64q-3.31,3.12-4.44,4A7.65,7.65,0,0,0,8.43,27.5Zm2.77-3.63-.82.63a9.28,9.28,0,0,0-1.86,1.68,3.66,3.66,0,0,0,.73-.5C9.76,25.17,10.41,24.56,11.2,23.87ZM8.57,28.18a.3.3,0,0,1,0,.13L9,28Zm5.85-12.74q-4.86,4.44-5.71,5.39a9.57,9.57,0,0,0,1.63-1.22q1-.91,3.44-3.4c.7-.7,1.24-1.26,1.63-1.68Zm-5.67,7a14.78,14.78,0,0,0,3-2.08l.91-.86C14.52,17.7,16,16.33,17,15.39c-.19.15-.37.29-.55.41-.72.66-1.57,1.4-2.54,2.22q-2,1.68-4.35,3.54C9.22,21.89,9,22.19,8.75,22.46Zm.14-2.9a3.34,3.34,0,0,1-.14.41,10.49,10.49,0,0,1,.82-.82A2.42,2.42,0,0,1,8.89,19.56Zm0,9.7,2.81-2.44q1-.83,1.68-1.41a4.4,4.4,0,0,0,1.18-1.5,8,8,0,0,0-2,1.46q-1,.9-2.94,2.76L8.84,29C8.87,29,8.9,29.14,8.93,29.26Zm.32.77c.88-.78,1.69-1.49,2.45-2.13l.54-.45c.94-.85,1.65-1.52,2.13-2l-.54.41c-.49.48-1.09,1-1.82,1.68q-1.35,1.13-2.85,2.31A1.65,1.65,0,0,0,9.25,30Zm.36-12-.18.27c.45-.3.88-.6,1.27-.9s1.07-1,1.86-1.77Zm2.81,10.25c-1.63,1.42-2.46,2.35-2.49,2.81a3.29,3.29,0,0,0,.91-.55,1.74,1.74,0,0,0,.27-.22,34.47,34.47,0,0,1,2.81-2.54c.36-.39.72-.77,1.09-1.14,0-.15-.06-.28-.09-.4C14,26.92,13.18,27.6,12.42,28.27Zm-1.77,3.85c0-.39.61-1.1,1.73-2.13t-.18.18c-.28.24-.53.45-.78.64l-.49.49-.55.55Zm.59.5a.12.12,0,0,0-.09,0Zm.77-1.5c-.21.24-.39.44-.54.59.27-.24.74-.69,1.41-1.36l.09-.09C12.57,30.59,12.26,30.88,12,31.12Zm.28,2.41v-.05q2-2.08,3.4-3.67c-.4.36-1,.91-1.82,1.63-1,.94-1.66,1.54-2,1.81A3.64,3.64,0,0,0,12.29,33.53Zm3.9-5.35h-.05a4,4,0,0,0-1,.72,25.38,25.38,0,0,0-1.86,1.82l-.73.72.5-.41c1.06-.84,1.79-1.45,2.18-1.81A4.89,4.89,0,0,0,16.19,28.18Zm-2.5,5.57A43.57,43.57,0,0,0,18.5,28.9h-.23A36.3,36.3,0,0,0,13,33.66l-.18.18.54.27a.27.27,0,0,1,.13-.13S13.57,33.87,13.69,33.75Zm4.08-20.69c-.69.62-1.89,1.79-3.58,3.51-.36.39-.68.73-.95,1,.81-.64,1.75-1.36,2.81-2.18a25.15,25.15,0,0,0,3.54-3.49.7.7,0,0,1-.23,0A8.7,8.7,0,0,0,17.77,13.06Zm-3.67.56,0,.05,1.23-.95a2,2,0,0,0-.36.18l-.55.5A2.71,2.71,0,0,1,14.1,13.62Zm.23,20.86a3,3,0,0,0,.18-.32l-.41.23Zm.54-11.56-.5.5a1.1,1.1,0,0,1,.36-.1.19.19,0,0,1,.1.05A2.28,2.28,0,0,1,14.87,22.92Zm2.54,9.84q1.41-1.18,4.8-4.31c.61-.52,1.09-.95,1.46-1.32-.37.28-.81.62-1.32,1.05q-3.81,2.94-5.26,4.17a12.7,12.7,0,0,0-2.22,2.26H15A14.22,14.22,0,0,0,17.41,32.76Zm3.17-7c-.15-.18-.07-.49.23-.91q.09-1.45.09-4.35c0-.88.05-1.42.05-1.63s-.07-.18-.19-.28h0a.37.37,0,0,1-.27-.09v0a2.59,2.59,0,0,0-.95-.18h-.19a1.1,1.1,0,0,1-.5.13c-.57.43-1.23.9-2,1.41a6.05,6.05,0,0,0-1,1.81s0,0,0,0a.25.25,0,0,1,0,.36l-.18.18a9.26,9.26,0,0,0-.28,1.95.28.28,0,0,1,.23.14c.15.18.08.47-.23.86a5.05,5.05,0,0,0,.23,1.27l0,0a.32.32,0,0,1,.09.32l.09.18.09.09a.26.26,0,0,1,.09.18,1.39,1.39,0,0,0,.32.32h0a.43.43,0,0,1,.36.18.26.26,0,0,1,.09.18,1.4,1.4,0,0,0,.37.14h.13a.31.31,0,0,1,.27.14,4,4,0,0,0,.55.13h.09a1.42,1.42,0,0,1,.59-.18.49.49,0,0,1,.36.14,2,2,0,0,0,1.09-.64.29.29,0,0,1,.09-.22l.27-.23a.39.39,0,0,0,.05-.14,1.19,1.19,0,0,0,0-.36.11.11,0,0,1-.09-.05.48.48,0,0,1-.09-.4.94.94,0,0,1,.14-.46Zm-4.39,9.11,4.35-4q-3.49,3.12-4.72,4A1.61,1.61,0,0,1,16.19,34.84Zm12.24-13v-.63a7.72,7.72,0,0,0-1.18.91c-.52.45-1.41,1.3-2.68,2.54a21.32,21.32,0,0,1-3.81,3.21,2.79,2.79,0,0,1-1.58,1,4.57,4.57,0,0,1-.5.72c-.33.39-.83.94-1.5,1.63-.36.37-.8.79-1.31,1.27Q19.63,29.59,28.24,22A1.15,1.15,0,0,1,28.43,21.87ZM17.5,34.75l2.4-2.18-2.81,2.27h.32Zm-.05-6,0-.05-.05.05a.68.68,0,0,1-.13.18A1.42,1.42,0,0,1,17.45,28.77Zm4.36-15.83q-1.45,1.1-3.54,2.9c-.15.13-.3.26-.45.41,1-.75,1.84-1.39,2.45-1.9A17.49,17.49,0,0,0,21.81,12.94ZM18,12a.12.12,0,0,1,0,.09,1.84,1.84,0,0,1,.27-.23h-.09Zm2.63,1a13.46,13.46,0,0,0-1.58,1.27c-.18.15-.35.3-.5.45C19.34,14.14,20,13.56,20.67,13.08ZM19,34.7l4.67-4.35c-.19.15-.49.41-.91.77-1.15,1.06-2,1.86-2.68,2.41s-1.11.95-1.45,1.22A1.18,1.18,0,0,0,19,34.7ZM20.17,12a2.29,2.29,0,0,1-.45.68c.33-.25.61-.44.82-.59Zm.14,22.44q2.18-1.5,4.31-3.22c.15-.12.28-.23.41-.32.66-.6,1.57-1.4,2.72-2.4l0-.05.05,0,.18-.18A1.54,1.54,0,0,0,28.2,28l-8.12,6.57h.14A.14.14,0,0,1,20.31,34.39Zm.36-16.91c.28-.18.64-.46,1.09-.82s1.27-1.21,2.36-2.27c-.27.25-.53.47-.77.68-1,.91-1.79,1.64-2.45,2.18A.84.84,0,0,0,20.67,17.48Zm.64,9v.05L26.16,22Q25,23,22.71,25.14C22,25.83,21.49,26.27,21.31,26.45Zm.09-2.31q.63-.67,1.77-1.77l-1.59,1.41a.33.33,0,0,1-.14,0A1,1,0,0,0,21.4,24.14Zm0-1c1.09-1,2.12-1.94,3.09-2.81.69-.61,1.3-1.12,1.81-1.54a19.24,19.24,0,0,0,2-2.09C27.88,17,27,17.79,25.71,19Q22,22.33,21.44,22.46Zm0-1.91c.15-.18.33-.37.54-.58a.8.8,0,0,1-.54.18Zm5.85-7.25c-.61.48-1.42,1.16-2.45,2l-.09.09-3.26,2.77V19l1.35-1.13c.64-.55,1.24-1.05,1.82-1.5C25.86,15.39,26.73,14.58,27.34,13.94Zm-5.53,6.12a69,69,0,0,0,6.62-5.53v-.27q-.33.32-2,1.68c-1.52,1.2-2.59,2.1-3.22,2.67A8.31,8.31,0,0,0,21.81,20.06Zm3.53-1.5q2.49-2.26,3.09-2.67v-.5c-.28.27-.8.76-1.59,1.45-1.6,1.45-2.75,2.53-3.45,3.22s-1.11,1.09-1.45,1.45Q22.81,20.88,25.34,18.56ZM22.4,34.07a2.4,2.4,0,0,1,.13-.32,2.41,2.41,0,0,1-.36.23l.18,0Zm6-9.07v-.77l-5.94,5.53,5.8-4.67A.56.56,0,0,1,28.38,25ZM22.85,12.22l-.09.09h0ZM28.43,19v-.64a.56.56,0,0,0-.14.09c-.27.28-.83.79-1.68,1.55Q24.08,22.29,23,23.37a.56.56,0,0,1-.14.09L24.62,22C25.83,21,27.1,20,28.43,19Zm-.14,11q-1.63,1.23-5.35,4.54l.27.18a.81.81,0,0,1,.23-.23c.21-.21.66-.6,1.36-1.18q1.82-1.58,2.58-2.31A9.05,9.05,0,0,0,28.29,30Zm.05-.68v-.68a26.82,26.82,0,0,1-2.63,2.41l-.55.45-.32.32c-.6.6-1.07,1.1-1.4,1.49l2-1.72C26.85,30.44,27.82,29.69,28.34,29.35ZM24.57,34.8c.15-.19.49-.53,1-1a11.34,11.34,0,0,1,.86-.86c-.24.18-.57.47-1,.86L24,35a1,1,0,0,0,.32,0ZM26.7,34l1.14-1.4a19.63,19.63,0,0,0-2.77,2.54h.14a4.75,4.75,0,0,0,.63-.14l.21-.25C26.15,34.64,26.37,34.39,26.7,34ZM25.39,14.26l2.08-1.82s0,0,.05,0l-.05-.05Zm2.95,12.87a3.32,3.32,0,0,0,0-.4l-3,2.76ZM25.52,12a.69.69,0,0,1,0,.22c.21-.18.41-.36.59-.54a3.61,3.61,0,0,0-.59-.05A1.55,1.55,0,0,1,25.52,12Zm1.18-.09c-.3.33-.71.74-1.22,1.22a11.53,11.53,0,0,1,1.36-1.18A.33.33,0,0,1,26.7,11.86ZM28.29,31.8v0s-.05,0-.05,0Z"/><path class="a" d="M53.45,28.72c.15.21.12.5-.09.86a13.84,13.84,0,0,1-.09,2.22,3.64,3.64,0,0,1-2.22,3.27.69.69,0,0,1-.41.18h-.09a.53.53,0,0,0-.23,0,3.72,3.72,0,0,1-.81.09,3.39,3.39,0,0,1-.55,0,.46.46,0,0,1-.18.09h0a.29.29,0,0,1-.19-.14s0,0,0,0c-.27-.09-.52-.18-.73-.27h-.13a.32.32,0,0,1-.23-.09.41.41,0,0,1,0-.19,5.12,5.12,0,0,1-.55-.4,3.81,3.81,0,0,1-.95-1.82.56.56,0,0,1-.14-.09.48.48,0,0,1-.13-.45,2.4,2.4,0,0,1,.13-.32s0,0,0,0c-.15-.19-.12-.43.09-.73a2.28,2.28,0,0,1,0-.45.42.42,0,0,1,.05-.41c0-.3,0-.53,0-.68V29c-.12-.12-.12-.25,0-.41l0,0a7.52,7.52,0,0,0,.05-.82.26.26,0,0,1-.19-.09c-.12-.15,0-.36.23-.63,0-1.21,0-2.75-.14-4.63q-.09,0-.09-.09a.28.28,0,0,1,0-.41h.05a3,3,0,0,0-.05-.49h0a.17.17,0,0,1-.18-.1c-.18-.21-.14-.48.13-.81a1.47,1.47,0,0,0,0-.36.18.18,0,0,1-.27-.09c-.13-.12-.11-.26,0-.41h0a.59.59,0,0,1-.23-.14.23.23,0,0,1-.07-.2.38.38,0,0,1,.12-.21.38.38,0,0,1,.09-.09.17.17,0,0,0-.05-.13l-.23-.09h0a.39.39,0,0,1-.14-.05h-.27a3.44,3.44,0,0,0-2.27.95l-.27.23a4.39,4.39,0,0,0-1.18,2.36v.16a.15.15,0,0,1,0,.11c0,.39-.06.91-.09,1.54a.48.48,0,0,1,.13.09.32.32,0,0,1,.09.32,1.52,1.52,0,0,1-.22.45v.41a.48.48,0,0,1,.09.27,1.85,1.85,0,0,1-.09.23v.95A.42.42,0,0,1,41,27c.18.21.11.56-.22,1,0,1.58-.08,2.71-.14,3.4a.59.59,0,0,1-.09.68c-.06.31-.12.56-.18.78A3.43,3.43,0,0,1,38,35.2a1.43,1.43,0,0,1-.77.41.31.31,0,0,1-.28-.13s0,0,0,0h-.82a3.24,3.24,0,0,1-2.81-2,.73.73,0,0,1-.18-.14.29.29,0,0,1,0-.31,7,7,0,0,1-.27-1.14,9,9,0,0,1-.09-1.18.64.64,0,0,1-.09-.36.39.39,0,0,1,0-.18.11.11,0,0,1-.09,0,.7.7,0,0,1-.07-.38,1.58,1.58,0,0,1,.16-.48v-.4h0a.59.59,0,0,1-.09-.46.84.84,0,0,1,.13-.41V26.54q0-2.85,0-4.89c0-.52.06-1.07.09-1.68,0,0,0,0,0,0a.41.41,0,0,1,.09-.5L33,18.34l-.09-.09a.48.48,0,0,1-.07-.34,1,1,0,0,1,.2-.48.12.12,0,0,0,0-.09c-.18-.21-.12-.54.18-1,.09-.72.15-1.27.18-1.63a4.11,4.11,0,0,1,.27-1.13,3.21,3.21,0,0,1,.37-.77.18.18,0,0,1,.09-.18l0-.05A3.55,3.55,0,0,1,37,11a.91.91,0,0,1,.54-.27.68.68,0,0,1,.32.18.26.26,0,0,1,.09.18l.41.1a.63.63,0,0,1,.41-.19.3.3,0,0,1,.18.14.27.27,0,0,1,0,.27,1,1,0,0,1,.32.14,2.79,2.79,0,0,1,.77.68.26.26,0,0,1,.18.09.3.3,0,0,1,0,.27,3.11,3.11,0,0,1,.22.45c.4-.27.82-.54,1.27-.81l.23-.14a.46.46,0,0,1,.18-.09,9.6,9.6,0,0,1,2.09-.72l.18-.14a.25.25,0,0,1,.41,0,7.34,7.34,0,0,1,.81,0h.5l.05-.05a.2.2,0,0,1,.2-.06.33.33,0,0,1,.2.11,0,0,0,0,0,0,0,8.35,8.35,0,0,1,1.86.58.17.17,0,0,1,.13,0,.28.28,0,0,1,.23.11A.37.37,0,0,1,49,12l.37.27a.37.37,0,0,1,.18-.05.29.29,0,0,1,.22.09.32.32,0,0,1,.05.28,5,5,0,0,1,.41.36.12.12,0,0,1,.09,0s0,.05,0,.05a3.45,3.45,0,0,0,.32.36.74.74,0,0,1,.23,0,.17.17,0,0,1,.18.13.43.43,0,0,1,.13.41v.14l.19.27a9.6,9.6,0,0,1,1.17,2.13h.09a.19.19,0,0,1,.19.09.28.28,0,0,1,0,.41l0,0c.06.18.12.35.18.5a.14.14,0,0,1,0,.09.14.14,0,0,1,0,.18v.1a1.65,1.65,0,0,0,.05.22.17.17,0,0,1,.13.05.29.29,0,0,1,0,.4.77.77,0,0,1,0,.19.19.19,0,0,1,.23.09c.12.12.08.3-.14.54a10.32,10.32,0,0,1,.14,1.77v.23l0,0a.28.28,0,0,1,0,.41h0c0,.75,0,1.51,0,2.27h0a.68.68,0,0,1,.18.13c.12.15.08.32-.13.5l-.09.09c0,.55-.07,1.07-.1,1.59a.43.43,0,0,1,0,.41l0,.09v.72s0,0,0,.05.11.29,0,.5v.45ZM33.32,22.28a6,6,0,0,0,0,.73,5.54,5.54,0,0,1,.86-1A1.42,1.42,0,0,1,33.32,22.28Zm0,3.09.54-.46a.51.51,0,0,1-.36.05h-.18Zm8.47-7.17q3-2.76,6.31-6a1,1,0,0,1-.28-.14q-.22.59-3.94,3.27c-.7.63-1.48,1.33-2.36,2.08q-2.71,2.22-7.3,5.67a4.37,4.37,0,0,1-.59.41,1.8,1.8,0,0,0-.27.63.52.52,0,0,0,0,.23.12.12,0,0,0,.09,0Q34.81,24.46,41.75,18.2Zm-8.38,2.54a6.11,6.11,0,0,1,0,.73Q37.4,17.88,40.53,15l-7,5.67A.26.26,0,0,1,33.37,20.74Zm.22,5.58a1.3,1.3,0,0,0-.27.63l.32-.22c.18-.19.36-.38.54-.59A2.61,2.61,0,0,1,33.59,26.32Zm6.62-2.68V23L36.9,25.82a31.06,31.06,0,0,0-3.44,3.35,20.4,20.4,0,0,1,1.95-1.63l1-.95c1.27-1.21,2.15-2,2.65-2.4s.84-.58,1-.55Zm-6.66-5.57a5.81,5.81,0,0,1,0,.72l.64-.63c1.24-1.24,2.2-2.22,2.9-2.95-.58.45-1.32,1.06-2.22,1.81l-1.09.91A1.26,1.26,0,0,1,33.55,18.07Zm0,14.23a.33.33,0,0,0,0,.14c.15-.15.37-.35.64-.59l.45-.46A8.27,8.27,0,0,1,33.55,32.3Zm.18-15.78a.87.87,0,0,0,0,.23l0,0a13.85,13.85,0,0,1,1.27-1q.72-.63,2.22-2c1-1,1.62-1.51,1.77-1.63a3.19,3.19,0,0,0-.45-.23c-.88.79-1.68,1.53-2.41,2.22A20.61,20.61,0,0,0,33.73,16.52Zm6.44,11.29V27.5a22.1,22.1,0,0,0-3.4,2.76c-.94.85-1.92,1.79-3,2.81a3.7,3.7,0,0,0,.32.59.12.12,0,0,0,0-.09q1.64-1.37,3.22-2.85A29.52,29.52,0,0,0,40.17,27.81ZM34,14.35a1,1,0,0,0-.05.32c.12-.12.27-.26.45-.41a.8.8,0,0,1-.36.09ZM34.23,27a.68.68,0,0,0-.18.13l-.14.14A2.18,2.18,0,0,0,34.23,27ZM34,30.44l4.17-3.35a1.21,1.21,0,0,0-.32.22A31.63,31.63,0,0,0,34,30.44ZM38.9,22l2-1.81Q38.27,22.33,35,24.73l-.72.73A28.5,28.5,0,0,0,38.9,22Zm.72-8.66c-.33.36-.81.88-1.45,1.54Q37,16.12,34.54,18.56l-.08.1c1.23-.91,3.11-2.51,5.62-4.81l0-.27a2.44,2.44,0,0,0-.13-.5ZM35,34.25l.54-.63a2.3,2.3,0,0,1-1,.49,2.92,2.92,0,0,0,.32.28ZM35.77,12a15.42,15.42,0,0,0-1.18,1.4l1-1,.59-.59-.32.09A.15.15,0,0,1,35.77,12Zm8.66.13-1.27,1.27c-.94.91-2.25,2.12-3.95,3.63q-2,1.86-4.48,4c1.21-.84,3-2.34,5.48-4.49,1.69-1.48,3.48-3.09,5.35-4.85a4,4,0,0,0-.86.09ZM40.12,30.31a6.89,6.89,0,0,1,.05-.73c-2,2.06-3.46,3.57-4.31,4.53l.91-.77c.51-.45,1.25-1.14,2.22-2.08A4.84,4.84,0,0,1,40.12,30.31Zm-4.21,4.44a0,0,0,0,1,0,0A0,0,0,0,0,35.91,34.75Zm1-23c-.21.19-.53.5-1,1l-.09.09C36.36,12.38,36.71,12,37,11.76Zm.27,23a1.55,1.55,0,0,1,.23-.19,2.6,2.6,0,0,0-.28.23h0Zm3.13-12.74a1.55,1.55,0,0,1,0-.37l-1.18.91c-.15.15-.34.33-.58.54A6.4,6.4,0,0,1,40.35,22.06Zm-.18,6.71v-.05l-.37.36A3.5,3.5,0,0,0,40.17,28.77ZM40,31.44c0-.06,0-.09,0-.09l-.23.23s-.05,0-.05,0A1.22,1.22,0,0,1,40,31.44Zm.59-17.23a.56.56,0,0,0-.14.09l2.59-2.08a6.49,6.49,0,0,0-.73.32.12.12,0,0,1,0,.09c-.09.09-.23.21-.41.36S41.19,13.67,40.62,14.21Zm3.58,0-1.54,1.27.82-.59C43.72,14.65,44,14.42,44.2,14.21ZM44,16.89c.91-.79,1.68-1.48,2.31-2.09a16.28,16.28,0,0,0,1.54-1.63q-2,2-4,3.81A.26.26,0,0,0,44,16.89Zm.68,1.22a1.93,1.93,0,0,1,.36-.45l-.63.5a.41.41,0,0,1,.18-.05ZM46.06,12c-.15.15-.32.3-.5.45a2.32,2.32,0,0,1,.36-.22A1.28,1.28,0,0,0,46.06,12Zm-.23,6.62a1.89,1.89,0,0,1,.28-.23c.18-.18.46-.45.86-.81a35.81,35.81,0,0,1,3-2.72c.16-.18.29-.35.41-.5l-1.58,1.4c-1.61,1.45-2.65,2.35-3.13,2.68A.68.68,0,0,0,45.83,18.61Zm1.46-2.27-1.23,1.09C46.39,17.16,46.8,16.8,47.29,16.34Zm-.91-3.76a4.86,4.86,0,0,0-.27.41l.9-.77Q46.74,12.36,46.38,12.58Zm-.18,7.16a.41.41,0,0,1,0,.19c.33-.31.95-.85,1.86-1.64s1.44-1.19,1.77-1.49Zm.22-3.94a.48.48,0,0,0-.13.09l0,0Zm-.09,16v.18A4.89,4.89,0,0,0,47.6,31c.18-.18.39-.38.64-.59a6.87,6.87,0,0,1-1.91,1.27ZM48.1,19.7c-.81.66-1.39,1.12-1.72,1.36l0,.09v.18C47,20.79,47.56,20.24,48.1,19.7ZM47,22a2.66,2.66,0,0,1-.54.31.26.26,0,0,0,0,.18Zm-.54,10.6a.12.12,0,0,0,0-.09l0,.05Zm0-3.76v.41a.32.32,0,0,1,.14-.14c.39-.36,1.13-1,2.22-1.9,1.33-1.09,2.25-1.88,2.77-2.36.75-.69,1.13-1.16,1.13-1.4-.39-.06-1.47.72-3.22,2.35ZM46.56,24,47,23.6l-.31.22a.2.2,0,0,1-.14.05Zm0,3.35v.59c.76-.78,1.47-1.51,2.14-2.17a4.81,4.81,0,0,0,.4-.36l2-2.05Q49.19,25,46.6,27.31Zm0-2.26c.28-.33.65-.74,1.14-1.23l-1.14.91Zm.14,1.18a.12.12,0,0,1-.09,0v.09A.48.48,0,0,0,46.74,26.23Zm.23,7.3a1.85,1.85,0,0,1,.09-.23.74.74,0,0,1-.23,0A.62.62,0,0,0,47,33.53Zm2-10.11a3.84,3.84,0,0,0,.45-.46c-.42.4-.79.74-1.09,1.05-.6.6-1,1.07-1.31,1.4C47.39,25.11,48,24.44,49,23.42Zm-1.95,9.29a10.21,10.21,0,0,0,1.27-.95c.48-.43,1.25-1.15,2.31-2.18a23.24,23.24,0,0,1,2-1.86v-.13a32.36,32.36,0,0,1-2.49,2.22l-2.27,1.9A7,7,0,0,0,47.06,32.71Zm5.71-7.16a.39.39,0,0,1,0-.14v-.09l-1,.82c-1.66,1.36-2.89,2.38-3.67,3.08l-.82.72c.57-.45,1.5-1.16,2.77-2.13a4.25,4.25,0,0,0,.63-.5,1.54,1.54,0,0,0,.23-.18A9.75,9.75,0,0,1,52.77,25.55Zm-5,8.61a.73.73,0,0,1,.18-.14.85.85,0,0,1-.36.09.26.26,0,0,0,.13.14A.14.14,0,0,1,47.74,34.16Zm5-5.39-.14.13-1.86,1.68C49,32.12,48,33.1,47.6,33.53a14.7,14.7,0,0,0,2.86-2.27c.72-.7,1.48-1.45,2.27-2.27Zm-4,5.93,2.72-3.08c-.58.55-1.35,1.24-2.32,2.09q-.68.59-.9.81A1.36,1.36,0,0,0,48.74,34.7Zm.77-21.53c-.13.15-.31.35-.55.59l.64-.54A.14.14,0,0,1,49.51,13.17Zm3,5.17c-1,.78-2,1.56-2.85,2.31ZM50.46,34.66a6.74,6.74,0,0,1,.77-1.13l-.09.09a.12.12,0,0,1-.09,0c-.58.52-1,.89-1.36,1.14a1.47,1.47,0,0,0,.54-.1A.74.74,0,0,0,50.46,34.66Zm-.27-20.9-.09.09a.14.14,0,0,1,.09,0Zm1.36,2A4.92,4.92,0,0,1,50.46,17c.36-.33.72-.65,1.09-.95a.39.39,0,0,1,.18,0A3,3,0,0,0,51.55,15.71Zm.4.81a1.54,1.54,0,0,1-.18.28c-.15.18-.36.4-.63.68s-.39.44-.64.68L52,16.75C52,16.66,52,16.59,52,16.52Zm.78,15a4.9,4.9,0,0,0,0-.54l-1.72,1.95c.54-.46,1.1-.91,1.68-1.36Zm-.37-14,0-.05v0l-.37.31Zm.46,2.31-.78.73a1.17,1.17,0,0,1,.59-.23.5.5,0,0,1,.23,0A2.83,2.83,0,0,0,52.82,19.88Zm-.64,13.46a1,1,0,0,0,.18-.36,1.45,1.45,0,0,1-.13.18,2.38,2.38,0,0,0-.14.23A.14.14,0,0,1,52.18,33.34Zm0-11.47a3.29,3.29,0,0,1,.77-.49v-.12a.16.16,0,0,0,0-.11A8.15,8.15,0,0,0,52.14,21.87Zm.18-2.49.41-.32,0,0Zm.54,3.49v-.45l-.5.5a.68.68,0,0,1,.41-.05Zm0,1.63v-.09a2.15,2.15,0,0,1-.37.37,2,2,0,0,0,.28-.19l0,0Z"/><path class="a" d="M77.57,28.72c.15.21.12.5-.09.86a13.84,13.84,0,0,1-.09,2.22,3.64,3.64,0,0,1-2.22,3.27.69.69,0,0,1-.41.18h-.09a.53.53,0,0,0-.23,0,3.72,3.72,0,0,1-.81.09,3.31,3.31,0,0,1-.55,0,.46.46,0,0,1-.18.09h-.05a.3.3,0,0,1-.18-.14s0,0,0,0c-.27-.09-.52-.18-.73-.27h-.13a.32.32,0,0,1-.23-.09.41.41,0,0,1-.05-.19,6.25,6.25,0,0,1-.54-.4,3.81,3.81,0,0,1-1-1.82.56.56,0,0,1-.14-.09.48.48,0,0,1-.13-.45,2.4,2.4,0,0,1,.13-.32s0,0,0,0c-.15-.19-.12-.43.09-.73a2.28,2.28,0,0,1,0-.45A.42.42,0,0,1,70,30c0-.3,0-.53,0-.68V29c-.12-.12-.12-.25,0-.41l0,0a7.5,7.5,0,0,0,0-.82.26.26,0,0,1-.18-.09c-.12-.15,0-.36.23-.63,0-1.21,0-2.75-.14-4.63q-.09,0-.09-.09a.28.28,0,0,1,0-.41h0a3,3,0,0,0,0-.49h0a.17.17,0,0,1-.18-.1c-.19-.21-.14-.48.13-.81a1.47,1.47,0,0,0,0-.36.19.19,0,0,1-.28-.09c-.12-.12-.1-.26,0-.41h0a.55.55,0,0,1-.22-.14.23.23,0,0,1-.07-.2.43.43,0,0,1,.11-.21l.09-.09a.17.17,0,0,0,0-.13l-.23-.09h0A.39.39,0,0,1,69,18.7h-.27a3.44,3.44,0,0,0-2.27.95l-.27.23A4.39,4.39,0,0,0,65,22.24v.16a.15.15,0,0,1,0,.11c0,.39-.06.91-.09,1.54a.48.48,0,0,1,.13.09.32.32,0,0,1,.09.32,1.52,1.52,0,0,1-.22.45v.41a.48.48,0,0,1,.09.27,1.85,1.85,0,0,1-.09.23v.95a.42.42,0,0,1,.22.18c.18.21.11.56-.22,1,0,1.58-.08,2.71-.14,3.4a.59.59,0,0,1-.09.68c-.06.31-.12.56-.18.78a3.43,3.43,0,0,1-2.31,2.35,1.42,1.42,0,0,1-.78.41.3.3,0,0,1-.27-.13s0,0,0,0h-.82a3.23,3.23,0,0,1-2.81-2,.73.73,0,0,1-.18-.14.29.29,0,0,1,0-.31A7,7,0,0,1,57,31.8a9,9,0,0,1-.09-1.18.64.64,0,0,1-.09-.36.39.39,0,0,1,0-.18.11.11,0,0,1-.09,0,.7.7,0,0,1-.07-.38,1.58,1.58,0,0,1,.16-.48v-.4h0a.55.55,0,0,1-.1-.46.87.87,0,0,1,.14-.41V26.54q0-2.85,0-4.89c0-.52.06-1.07.09-1.68,0,0,0,0,0,0a.41.41,0,0,1,.09-.5l.09-1.09L57,18.25a.48.48,0,0,1-.07-.34,1,1,0,0,1,.2-.48.12.12,0,0,0,0-.09c-.18-.21-.12-.54.18-1,.09-.72.15-1.27.18-1.63a4.11,4.11,0,0,1,.27-1.13,3.21,3.21,0,0,1,.37-.77c0-.09,0-.15.09-.18l0-.05A3.55,3.55,0,0,1,61.07,11a.91.91,0,0,1,.54-.27.68.68,0,0,1,.32.18.26.26,0,0,1,.09.18l.41.1a.63.63,0,0,1,.41-.19.3.3,0,0,1,.18.14.27.27,0,0,1,0,.27,1,1,0,0,1,.32.14,2.79,2.79,0,0,1,.77.68.26.26,0,0,1,.18.09.3.3,0,0,1,0,.27,3.11,3.11,0,0,1,.22.45c.4-.27.82-.54,1.27-.81l.23-.14a.46.46,0,0,1,.18-.09,9.6,9.6,0,0,1,2.09-.72l.18-.14a.25.25,0,0,1,.41,0,7.34,7.34,0,0,1,.81,0h.5l0-.05a.19.19,0,0,1,.2-.06.37.37,0,0,1,.2.11,0,0,0,0,0,0,0,8.51,8.51,0,0,1,1.86.58.17.17,0,0,1,.13,0,.3.3,0,0,1,.23.11.37.37,0,0,1,.09.21l.36.27a.41.41,0,0,1,.19-.05.29.29,0,0,1,.22.09.32.32,0,0,1,.05.28c.15.12.28.24.41.36a.12.12,0,0,1,.09,0s0,.05,0,.05a3.45,3.45,0,0,0,.32.36.7.7,0,0,1,.23,0,.17.17,0,0,1,.18.13.43.43,0,0,1,.13.41v.14l.18.27a9.25,9.25,0,0,1,1.18,2.13h.09a.18.18,0,0,1,.18.09.26.26,0,0,1,0,.41l0,0c.06.18.12.35.18.5a.14.14,0,0,1,.05.09.14.14,0,0,1,0,.18v.1a1.65,1.65,0,0,0,0,.22.17.17,0,0,1,.13.05.29.29,0,0,1,0,.4.77.77,0,0,1,0,.19.19.19,0,0,1,.23.09c.12.12.07.3-.14.54a11.43,11.43,0,0,1,.14,1.77v.23l.05,0a.28.28,0,0,1,0,.41h-.05c0,.75,0,1.51,0,2.27h0a.68.68,0,0,1,.18.13c.12.15.08.32-.13.5l-.1.09c0,.55-.06,1.07-.09,1.59a.49.49,0,0,1,0,.41l0,.09v.72s0,0,0,.05.11.29,0,.5v.45ZM57.44,22.28a6,6,0,0,0,0,.73,5.54,5.54,0,0,1,.86-1A1.42,1.42,0,0,1,57.44,22.28Zm0,3.09.54-.46a.51.51,0,0,1-.36.05H57.4Zm8.47-7.17q3-2.76,6.3-6a1.16,1.16,0,0,1-.27-.14q-.23.59-3.94,3.27c-.7.63-1.48,1.33-2.36,2.08q-2.71,2.22-7.3,5.67a4.37,4.37,0,0,1-.59.41,1.8,1.8,0,0,0-.27.63.52.52,0,0,0,.05.23.12.12,0,0,0,.09,0Q58.93,24.46,65.87,18.2Zm-8.38,2.54a6.11,6.11,0,0,1-.05.73q4.08-3.59,7.21-6.49l-7,5.67A.26.26,0,0,1,57.49,20.74Zm.22,5.58a1.3,1.3,0,0,0-.27.63l.32-.22c.18-.19.36-.38.54-.59A2.61,2.61,0,0,1,57.71,26.32Zm6.62-2.68V23L61,25.82a31.06,31.06,0,0,0-3.44,3.35,20.4,20.4,0,0,1,2-1.63l1-.95c1.27-1.21,2.15-2,2.65-2.4s.84-.58,1-.55Zm-6.66-5.57a5.81,5.81,0,0,1-.05.72l.64-.63c1.24-1.24,2.2-2.22,2.9-2.95-.58.45-1.32,1.06-2.22,1.81l-1.09.91Zm0,14.23a.33.33,0,0,0,0,.14c.15-.15.37-.35.64-.59l.45-.46A8.27,8.27,0,0,1,57.67,32.3Zm.18-15.78a.87.87,0,0,0-.05.23l.05,0a12.59,12.59,0,0,1,1.27-1q.72-.63,2.22-2c1-1,1.62-1.51,1.77-1.63a3.29,3.29,0,0,0-.46-.23Q61.35,13,60.25,14A20.61,20.61,0,0,0,57.85,16.52Zm6.44,11.29V27.5a22.1,22.1,0,0,0-3.4,2.76c-.94.85-1.92,1.79-3,2.81a3.7,3.7,0,0,0,.32.59.12.12,0,0,0,0-.09q1.64-1.37,3.22-2.85A29.52,29.52,0,0,0,64.29,27.81ZM58.08,14.35a.8.8,0,0,0,0,.32c.12-.12.27-.26.45-.41a.8.8,0,0,1-.36.09ZM58.35,27a.68.68,0,0,0-.18.13l-.14.14A2.18,2.18,0,0,0,58.35,27Zm-.27,3.44,4.17-3.35a1.21,1.21,0,0,0-.32.22A31.63,31.63,0,0,0,58.08,30.44ZM63,22l2-1.81q-2.63,2.13-5.85,4.53l-.72.73A28.5,28.5,0,0,0,63,22Zm.72-8.66c-.33.36-.81.88-1.45,1.54-.79.82-2,2-3.63,3.67l-.09.1q1.86-1.36,5.63-4.81l0-.27a2.44,2.44,0,0,0-.14-.5Zm-4.62,20.9.54-.63a2.3,2.3,0,0,1-1,.49,2.21,2.21,0,0,0,.32.28ZM59.89,12a15.42,15.42,0,0,0-1.18,1.4l1-1,.59-.59-.32.09A.15.15,0,0,1,59.89,12Zm8.66.13-1.27,1.27c-.94.91-2.25,2.12-4,3.63q-2,1.86-4.48,4,1.8-1.26,5.48-4.49C66,15,67.81,13.43,69.68,11.67a4,4,0,0,0-.86.09ZM64.24,30.31a6.89,6.89,0,0,1,.05-.73c-2,2.06-3.46,3.57-4.31,4.53l.91-.77c.51-.45,1.25-1.14,2.22-2.08A4.84,4.84,0,0,1,64.24,30.31ZM60,34.75s0,0,0,0S60,34.78,60,34.75Zm1-23c-.21.19-.53.5-1,1l-.1.09A14.6,14.6,0,0,0,61.07,11.76Zm.27,23a1.55,1.55,0,0,1,.23-.19,1.89,1.89,0,0,0-.28.23h.05Zm3.13-12.74a1.55,1.55,0,0,1,0-.37l-1.18.91c-.15.15-.34.33-.58.54A6.25,6.25,0,0,1,64.47,22.06Zm-.18,6.71v-.05l-.37.36C64.07,29,64.2,28.86,64.29,28.77Zm-.14,2.67c0-.06,0-.09,0-.09s-.14.14-.23.23,0,0,0,0A1,1,0,0,1,64.15,31.44Zm.59-17.23a.56.56,0,0,0-.14.09l2.59-2.08a5.79,5.79,0,0,0-.73.32.12.12,0,0,1,0,.09c-.09.09-.23.21-.41.36S65.31,13.67,64.74,14.21Zm3.58,0-1.54,1.27.82-.59C67.84,14.65,68.08,14.42,68.32,14.21Zm-.18,2.68c.91-.79,1.68-1.48,2.31-2.09A16.28,16.28,0,0,0,72,13.17q-2,2-4,3.81A.26.26,0,0,0,68.14,16.89Zm.68,1.22a1.93,1.93,0,0,1,.36-.45l-.63.5a.41.41,0,0,1,.18-.05ZM70.18,12c-.15.15-.32.3-.5.45a2.32,2.32,0,0,1,.36-.22A2.38,2.38,0,0,0,70.18,12ZM70,18.61a1.49,1.49,0,0,1,.28-.23c.18-.18.46-.45.86-.81a35.81,35.81,0,0,1,3-2.72c.16-.18.29-.35.41-.5L73,15.75c-1.61,1.45-2.65,2.35-3.13,2.68A.68.68,0,0,0,70,18.61Zm1.45-2.27-1.22,1.09C70.51,17.16,70.92,16.8,71.4,16.34Zm-.9-3.76a4.86,4.86,0,0,0-.27.41l.9-.77Q70.86,12.36,70.5,12.58Zm-.18,7.16a.41.41,0,0,1,0,.19c.33-.31,1-.85,1.86-1.64S73.66,17.1,74,16.8Zm.22-3.94a.48.48,0,0,0-.13.09l0,0Zm-.09,16v.18A4.89,4.89,0,0,0,71.72,31c.18-.18.39-.38.64-.59a7,7,0,0,1-1.91,1.27ZM72.22,19.7c-.82.66-1.39,1.12-1.72,1.36l0,.09v.18C71.12,20.79,71.68,20.24,72.22,19.7ZM71.13,22a2.66,2.66,0,0,1-.54.31.26.26,0,0,0,0,.18Zm-.54,10.6a.12.12,0,0,0,0-.09l0,.05Zm0-3.76v.41a.32.32,0,0,1,.14-.14c.39-.36,1.13-1,2.22-1.9,1.33-1.09,2.25-1.88,2.77-2.36.75-.69,1.13-1.16,1.13-1.4-.39-.06-1.47.72-3.22,2.35ZM70.68,24l.45-.36-.32.22a.17.17,0,0,1-.13.05Zm0,3.35v.59c.76-.78,1.47-1.51,2.13-2.17a3.76,3.76,0,0,0,.41-.36l2-2.05Q73.31,25,70.72,27.31Zm0-2.26c.28-.33.65-.74,1.14-1.23l-1.14.91Zm.14,1.18a.12.12,0,0,1-.09,0v.09A.48.48,0,0,0,70.86,26.23Zm.23,7.3a1.85,1.85,0,0,1,.09-.23.74.74,0,0,1-.23,0A.62.62,0,0,0,71.09,33.53Zm2-10.11a3.84,3.84,0,0,0,.45-.46c-.42.4-.79.74-1.09,1.05-.6.6-1,1.07-1.31,1.4C71.51,25.11,72.16,24.44,73.13,23.42Zm-1.95,9.29a10.21,10.21,0,0,0,1.27-.95c.48-.43,1.25-1.15,2.31-2.18a23.24,23.24,0,0,1,2-1.86v-.13a32.36,32.36,0,0,1-2.49,2.22L72,31.71A7,7,0,0,0,71.18,32.71Zm5.71-7.16a.33.33,0,0,1,0-.14v-.09l-1,.82c-1.66,1.36-2.89,2.38-3.67,3.08l-.82.72c.57-.45,1.5-1.16,2.76-2.13a4,4,0,0,0,.64-.5,1.54,1.54,0,0,0,.23-.18A9.75,9.75,0,0,1,76.89,25.55Zm-5,8.61A.73.73,0,0,1,72,34a.85.85,0,0,1-.36.09.26.26,0,0,0,.13.14A.14.14,0,0,1,71.86,34.16Zm5-5.39-.13.13-1.86,1.68c-1.72,1.54-2.77,2.52-3.13,3a15,15,0,0,0,2.86-2.27c.72-.7,1.48-1.45,2.26-2.27Zm-4,5.93,2.73-3.08c-.58.55-1.35,1.24-2.32,2.09q-.67.59-.9.81A1.37,1.37,0,0,0,72.85,34.7Zm.78-21.53c-.13.15-.31.35-.55.59l.64-.54A.14.14,0,0,1,73.63,13.17Zm3,5.17c-1,.78-2,1.56-2.85,2.31ZM74.58,34.66a6.15,6.15,0,0,1,.77-1.13l-.09.09a.12.12,0,0,1-.09,0c-.58.52-1,.89-1.36,1.14a1.47,1.47,0,0,0,.54-.1A.74.74,0,0,0,74.58,34.66Zm-.27-20.9-.1.09a.16.16,0,0,1,.1,0Zm1.36,2A4.92,4.92,0,0,1,74.58,17c.36-.33.72-.65,1.09-.95a.39.39,0,0,1,.18,0A3,3,0,0,0,75.67,15.71Zm.4.81a1.54,1.54,0,0,1-.18.28c-.15.18-.36.4-.63.68s-.4.44-.64.68l1.54-1.41C76.13,16.66,76.1,16.59,76.07,16.52Zm.77,15a3.29,3.29,0,0,0,0-.54l-1.72,1.95c.54-.46,1.1-.91,1.67-1.36Zm-.36-14,0-.05v0l-.37.31Zm.45,2.31c-.18.18-.43.42-.77.73a1.17,1.17,0,0,1,.59-.23.53.53,0,0,1,.23,0A2.76,2.76,0,0,0,76.93,19.88ZM76.3,33.34a1,1,0,0,0,.18-.36,1.45,1.45,0,0,1-.13.18,1.28,1.28,0,0,0-.14.23A.14.14,0,0,1,76.3,33.34Zm0-11.47a3.53,3.53,0,0,1,.78-.49v-.12a.16.16,0,0,0,0-.11A9.81,9.81,0,0,0,76.25,21.87Zm.19-2.49.4-.32,0,0ZM77,22.87v-.45l-.5.5a.68.68,0,0,1,.41-.05Zm0,1.63v-.09a2.07,2.07,0,0,1-.36.37,1.54,1.54,0,0,0,.27-.19l0,0Z"/><path class="a" d="M99.47,21.19a1.51,1.51,0,0,0,.18.09.31.31,0,0,1-.05.41l-.22.18A40.19,40.19,0,0,1,98.7,26c.15.19.07.46-.23.82-.09.24-.17.47-.23.68a.3.3,0,0,1,0,.23,1.52,1.52,0,0,1-.36.81,13,13,0,0,1-3.58,5.35A6.61,6.61,0,0,1,92.76,35a.46.46,0,0,1-.41.18,6.68,6.68,0,0,1-1,.36,1.22,1.22,0,0,1-.54.23.52.52,0,0,1-.23,0,9.08,9.08,0,0,1-.91,0,6.84,6.84,0,0,1-4.44-1.64c-.39-.33-.76-.66-1.09-1a.19.19,0,0,1-.18,0,.26.26,0,0,1-.18-.09.58.58,0,0,1-.09-.46A10,10,0,0,1,82.56,31a.32.32,0,0,1-.14-.14.19.19,0,0,1,0-.23.14.14,0,0,0,0-.09.44.44,0,0,1-.23-.18.37.37,0,0,1-.09-.27.2.2,0,0,1,0-.14s0,0,0,0v-.09a.33.33,0,0,1-.18-.46c-.06-.15-.12-.31-.18-.49a.2.2,0,0,1-.14,0,.17.17,0,0,1-.18-.13.43.43,0,0,1-.13-.41.2.2,0,0,1,0-.14.36.36,0,0,1-.13-.09c-.13-.12-.08-.3.13-.54a0,0,0,0,0,.05-.05,4.54,4.54,0,0,1-.14-.68.58.58,0,0,1-.23-.13.26.26,0,0,1,0-.41l.09-.09L81,25.5a.58.58,0,0,1-.23-.13c-.12-.16-.07-.37.14-.64-.09-.66-.15-1.33-.18-2a.18.18,0,0,1-.18-.09c-.16-.19-.11-.46.13-.82,0-.51,0-1,0-1.5a.51.51,0,0,1,0-.36.41.41,0,0,1,0-.18l0-.05c-.12-.15-.1-.34,0-.59,0-.42,0-.84,0-1.26a.41.41,0,0,1,0-.19,24.84,24.84,0,0,1,.41-3l0,0a.62.62,0,0,1,.14-.46,6.67,6.67,0,0,1,.59-1.31,3.73,3.73,0,0,1,1.27-1.23,1.11,1.11,0,0,1,.27-.13,3.38,3.38,0,0,1,1.45-.32h.36a.82.82,0,0,1,.34-.14.25.25,0,0,1,.2.1l.1.18a3.05,3.05,0,0,1,.4.13l.19.09h.13a.35.35,0,0,1,.27.23,3.36,3.36,0,0,1,1.36,1.81v.05A3.83,3.83,0,0,1,88.36,15l0,0c.1.12.06.27-.09.45a.33.33,0,0,0,0,.14A11.27,11.27,0,0,0,88,17.79a.14.14,0,0,1,0,.1q.22.27-.09.72a7.67,7.67,0,0,0,0,.82l0,0a.49.49,0,0,1,0,.59c0,.27.06.56.09.86a.48.48,0,0,1,0,.46l.09.9a.18.18,0,0,1,.09.18.21.21,0,0,1,0,.23.26.26,0,0,0,0,.18,1,1,0,0,1,.19.14c.12.15.09.36-.1.63,0,.24.06.53.1.86l0,.05c.06.48.11.83.14,1l.13.14a.41.41,0,0,1,0,.18.18.18,0,0,1-.09.18,3.42,3.42,0,0,0,.9,1.81l.23.09L90,27.9l.23-.09a6.59,6.59,0,0,0,.91-2.13l-.1-.09a.25.25,0,0,1,0-.36l.11-.11a.19.19,0,0,1,.12-.07c.18-.73.34-1.53.49-2.4a1,1,0,0,0,0-.28s0,0,0,0-.06-.27.1-.46a.12.12,0,0,1,0-.09c.12-.81.23-1.61.32-2.4a1,1,0,0,1-.05-.32.48.48,0,0,1,.05-.22,2,2,0,0,0,0-.37.48.48,0,0,1-.13-.09c-.12-.15-.08-.36.13-.63V17a.19.19,0,0,1,0-.22.12.12,0,0,1,0-.09,4.55,4.55,0,0,0-.13-.82,4.46,4.46,0,0,1,0-.63.73.73,0,0,1-.18-.14c-.15-.18-.07-.48.23-.91a2.9,2.9,0,0,1,.31-.9.26.26,0,0,1,0-.32l0-.05.18-.13A3.68,3.68,0,0,1,94,11.67c.3-.24.53-.34.68-.31h.09a.41.41,0,0,0,.18,0,4.86,4.86,0,0,1,.95-.09h.19a.61.61,0,0,1,.36-.14.7.7,0,0,1,.32.19v0a3.52,3.52,0,0,1,.77.27.53.53,0,0,1,.31-.13.32.32,0,0,1,.23.09.56.56,0,0,1,.09.45,4.07,4.07,0,0,1,.68.64.26.26,0,0,1,.41,0,.25.25,0,0,1,0,.41l0,0a4.46,4.46,0,0,1,.41,1.09,24,24,0,0,1,0,6.12.3.3,0,0,1,0,.23A4.44,4.44,0,0,0,99.47,21.19ZM81.24,18a1.47,1.47,0,0,1,0,.36q.81-.9,3.49-3.44c.84-.79,1.4-1.33,1.67-1.63a15,15,0,0,0-2.63,2.13Q82.52,16.66,81.24,18Zm.14,1.54a1.19,1.19,0,0,0-.18.32c.45-.33,1.33-1,2.63-2.13a2.86,2.86,0,0,0,.31-.27q1.59-1.41,3.49-3a.56.56,0,0,1,.14-.09v-.18l-.09,0-2.31,2Q82.1,19,81.38,19.56ZM81.2,22a65.14,65.14,0,0,0,6.3-5.35v0c0-.19.06-.35.09-.5l-.82.68Q84.28,19,83.1,20.06A15.09,15.09,0,0,0,81.2,22Zm.09.91s0-.06.09-.09.3-.37.54-.64a5.44,5.44,0,0,1-.68.46A.86.86,0,0,0,81.29,22.92Zm.09-6.35a.86.86,0,0,1,0,.27c.12-.12.26-.25.41-.41A.79.79,0,0,1,81.38,16.57Zm0,7a3.61,3.61,0,0,0,0,.59l.18-.18q.54-.56,2.13-2a42.8,42.8,0,0,0,3.72-3.59v-.13A9.63,9.63,0,0,0,85.19,20q-1.18,1-3.09,3C81.68,23.4,81.42,23.6,81.33,23.6Zm.23,2.17q2.31-2,4-3.71c-.27.21-.52.4-.73.59a33.91,33.91,0,0,1-3.31,2.67A2.3,2.3,0,0,0,81.56,25.77Zm.13-10.92a4.56,4.56,0,0,0-.13.68L83.19,14a15.38,15.38,0,0,0,1.68-1.81C84.08,12.85,83,13.73,81.69,14.85Zm.1,12.24a17,17,0,0,1,1.31-1.27,58,58,0,0,0,4.31-4.35,10.16,10.16,0,0,0-1,.77c-.45.39-1.2,1.1-2.22,2.13a23.73,23.73,0,0,1-2.5,2.31C81.72,26.8,81.75,26.94,81.79,27.09Zm.4,1.68a38.78,38.78,0,0,1,2.86-2.68L86.27,25q-1.77,1.45-4.12,3.49A1,1,0,0,0,82.19,28.77Zm5.22-9.16v-.27q-.82.86-3.36,3.12c-.6.55-1,1-1.31,1.23C84,22.63,85.59,21.27,87.41,19.61ZM83.92,12a1.83,1.83,0,0,1-.37.63l.91-.77A3.58,3.58,0,0,0,83.92,12ZM84,32a19.88,19.88,0,0,1,3.27-3.31c-.37.3-.77.65-1.23,1-.69.67-1.42,1.38-2.17,2.13Zm4-7.48a1,1,0,0,1,0-.32c-.4.4-1.23,1.15-2.5,2.27l-.9.81L85,27c1-.84,1.9-1.63,2.81-2.36A.39.39,0,0,1,88,24.55Zm-1.31-10.7c-.28.27-.8.79-1.59,1.54a3.81,3.81,0,0,0-.5.5c.85-.66,1.77-1.36,2.77-2.09a1,1,0,0,0,.27-.18,2.27,2.27,0,0,0-.27-.54A4.66,4.66,0,0,1,86.64,13.85Zm-2,19c.12-.16.31-.4.59-.73l.68-.68c-.46.42-.93.85-1.41,1.27Zm1.08-21A5.89,5.89,0,0,1,85,13l1-1ZM85.87,33c-.07.12-.11.21-.14.27a5.32,5.32,0,0,0,.68-.36,16.27,16.27,0,0,1,1.18-1.18C86.86,32.3,86.29,32.73,85.87,33Zm2.85-4.94-1.09,1-1.86,1.68.59-.5a22.51,22.51,0,0,1,2.72-2.18,2.31,2.31,0,0,0-.18-.23ZM87,26.68a4,4,0,0,0,.68-.73c-.3.25-.77.68-1.4,1.32C86.53,27.09,86.77,26.89,87,26.68Zm11.47-2.86.09-.45c-.18.18-.45.42-.81.73l-4.85,4.35a71.6,71.6,0,0,1-6.17,4.94,3.24,3.24,0,0,0-.41.5q1.32-.82,7.94-6.58Q98.16,24,98.51,23.82ZM87.63,22.1,86.5,23.32c.39-.3.79-.58,1.18-.86A1.49,1.49,0,0,1,87.63,22.1Zm-.95-9.7a2,2,0,0,1-.13.23,1.32,1.32,0,0,1,.31-.05ZM87.18,34a5.94,5.94,0,0,1-.54.37l.09,0ZM87,17.93a1.56,1.56,0,0,1,.41-.18v-.27A5.57,5.57,0,0,1,87,17.93Zm1.27,8.57-.91.63a2.18,2.18,0,0,1-.27.32c.6-.51,1-.75,1.22-.72A.53.53,0,0,1,88.27,26.5ZM88.09,35l.27-.28a4.88,4.88,0,0,1,.68-.63h0c-.36.3-.71.6-1,.91ZM97.38,28l.18-.36q-1.22,1.13-4.94,4.17C91,33.15,90,34,89.4,34.52l-.59.59.64.09.59-.5q2.85-2.27,4.58-3.8a20.77,20.77,0,0,0,2.72-2.68l0-.13Zm-7.71.59-.22.23Zm9.16-7.07a2.31,2.31,0,0,0,0-.46l-7.71,6.21a.14.14,0,0,1-.09.05,1.85,1.85,0,0,1-.09.23c.42-.37.86-.71,1.31-1.05C94.33,24.94,96.5,23.28,98.83,21.56Zm-7.07,4a3.24,3.24,0,0,0-.14.4l.37-.36c.66-.66,1.58-1.57,2.76-2.72.55-.54,1.13-1.12,1.77-1.72-.3.27-.6.56-.91.86l-1.54,1.36A28.89,28.89,0,0,1,91.76,25.55Zm.41-1.68a2.44,2.44,0,0,1-.14.5c.58-.49,1.12-.95,1.63-1.41,0,0,0,0,0,0a34.49,34.49,0,0,1,4.08-3.72,3,3,0,0,1,.27-.32q-2.13,1.68-5.71,4.94A.41.41,0,0,1,92.17,23.87ZM93.3,33a.26.26,0,0,1,.14-.09l-.23.13c-.42.4-.79.74-1.09,1A14,14,0,0,0,93.3,33Zm-.91-10.29s0,.1,0,.22a1.15,1.15,0,0,1,.27-.27c.27-.27.83-.82,1.68-1.63,1.3-1.24,2.25-2.18,2.85-2.81-1.33,1.09-2.88,2.39-4.67,3.9C92.45,22.36,92.42,22.55,92.39,22.74Zm.23-1.64c.09-.09.2-.2.32-.34l.36-.38a1.14,1.14,0,0,1-.54.18h-.05Zm.32-4.94H92.8a.14.14,0,0,0,0,.09Zm-.14,3.45v.09l.23-.23Zm1-6.53c-.45.51-.78.91-1,1.18.27-.24.68-.65,1.22-1.23l1.18-1.17a.55.55,0,0,0-.18,0l-.23.07A10.88,10.88,0,0,1,93.84,13.08Zm4.86.45c-.94.82-1.8,1.56-2.59,2.22S94.52,17.1,94,17.52a8.14,8.14,0,0,0-1.13,1.41,74.4,74.4,0,0,0,5.94-5,.12.12,0,0,1,.09,0ZM92.89,17v.18l.09-.09c.19-.21.43-.45.73-.73-.24.18-.49.35-.73.5A.56.56,0,0,1,92.89,17Zm3.58-5.12c-.6.54-1.16,1.08-1.67,1.63a11,11,0,0,0-1.63,1.9c.45-.33,1.38-1.15,2.81-2.45.48-.45.83-.77,1-.95A3.39,3.39,0,0,0,96.47,11.86ZM99,20.29a6,6,0,0,1,0-.73c-1.6,1.54-3.09,3-4.49,4.31ZM96.11,30.85c.09-.15.18-.32.27-.5-.21.18-.42.38-.63.59a.56.56,0,0,1,.32-.13ZM96,24.78c.57-.49,1-.87,1.36-1.14l1-.86C97.55,23.45,96.78,24.11,96,24.78Zm1.23-11.07c-.28.28-.66.64-1.14,1.09.7-.6,1.45-1.21,2.27-1.81l-.27-.27A5.38,5.38,0,0,1,97.25,13.71Zm1.85,1.68-2.94,2.95Q98.7,16.26,99.1,16ZM96.29,27.27c.37-.3.68-.56,1-.77-.25.18-.49.35-.73.5A1.84,1.84,0,0,0,96.29,27.27ZM98.06,26s0,0,0,0a4.86,4.86,0,0,0-.41.27A3.89,3.89,0,0,0,98.06,26Zm1-8.43v-.45c-.24.27-.62.66-1.13,1.18A4.28,4.28,0,0,1,99.1,17.52Zm-.36,4.94.32-3.62V18.7l-.09.09A.14.14,0,0,1,99.06,18.84Z"/></svg>