<svg xmlns="http://www.w3.org/2000/svg" viewBox="0 0 74.25 74.25"><defs><style>.a{fill:#3479f6;}</style></defs><rect class="a" x="44.27" y="44.27" width="14" height="14" rx="2.56" transform="translate(51.27 123.77) rotate(-135)"/><rect class="a" x="15.98" y="44.27" width="14" height="14" rx="2.56" transform="translate(2.98 103.77) rotate(-135)"/><rect class="a" x="30.13" y="58.41" width="14" height="14" rx="2.56" transform="translate(17.13 137.91) rotate(-135)"/><rect class="a" x="30.13" y="30.13" width="14" height="14" rx="2.56" transform="translate(37.13 89.63) rotate(-135)"/><rect class="a" x="1.84" y="30.13" width="14" height="14" rx="2.56" transform="translate(-11.16 69.63) rotate(-135)"/><rect class="a" x="15.98" y="15.98" width="14" height="14" rx="2.56" transform="translate(22.98 55.49) rotate(-135)"/><rect class="a" x="58.41" y="30.13" width="14" height="14" rx="2.56" transform="translate(85.41 109.63) rotate(-135)"/><rect class="a" x="44.27" y="15.98" width="14" height="14" rx="2.56" transform="translate(71.27 75.49) rotate(-135)"/><rect class="a" x="30.13" y="1.84" width="14" height="14" rx="2.56" transform="translate(57.13 41.34) rotate(-135)"/></svg>