<svg xmlns="http://www.w3.org/2000/svg" viewBox="0 0 92.47 25.03"><defs><style>.a{fill:#29abe2;}</style></defs><path class="a" d="M21.72,10.79a.29.29,0,0,1,.22.09.64.64,0,0,1,.09.36,1.6,1.6,0,0,1-.31.59v.55a.14.14,0,0,1,.13.09.23.23,0,0,1,0,.36l-.13.14v2a.12.12,0,0,1,0,.09c.12.12.11.24,0,.36l0,.05v.63a.56.56,0,0,1,.14.09.78.78,0,0,1,.13.46,1.42,1.42,0,0,1-.22.5.2.2,0,0,1,0,.27,10,10,0,0,0-.05,1,.19.19,0,0,1,.19.09c.21.24.15.59-.19,1a1.47,1.47,0,0,1,0,.36h0c.1.12.08.27,0,.46v.13a5.56,5.56,0,0,1,0,1.23,3.05,3.05,0,0,1-.27,1,.32.32,0,0,1-.09.32h-.09A3.56,3.56,0,0,1,19,24.84h-.18A2.19,2.19,0,0,1,18,25h-.73a.41.41,0,0,1-.18.05.17.17,0,0,1-.18-.1l-.73-.18a.45.45,0,0,1-.31.12.46.46,0,0,1-.23-.12.3.3,0,0,1,0-.27,4.37,4.37,0,0,1-.73-.59,17.39,17.39,0,0,1-4.76.82H9.7a10.56,10.56,0,0,1-1.95-.18,1.16,1.16,0,0,1-.27,0h0a.64.64,0,0,1-.32-.18l0,0a8.62,8.62,0,0,1-2.94-1.46.68.68,0,0,1-.32.1.29.29,0,0,1-.23-.1.54.54,0,0,1-.09-.31.46.46,0,0,1,.09-.18A5.06,5.06,0,0,1,3.17,22l-.54-.63a.26.26,0,0,1-.18-.09.32.32,0,0,1-.09-.23,10.1,10.1,0,0,1-.59-.95A.56.56,0,0,1,1.63,20a.26.26,0,0,1,0-.32,10,10,0,0,1-.5-1.18.32.32,0,0,1-.23-.09.28.28,0,0,1,0-.41H.91a2.59,2.59,0,0,1-.14-.45.44.44,0,0,1-.27-.18c-.15-.15-.14-.39,0-.73a21.23,21.23,0,0,1-.31-4.26,1.29,1.29,0,0,1-.16-.18A.31.31,0,0,1,0,12a.29.29,0,0,1,.09-.21.61.61,0,0,0,.23-.13A17.19,17.19,0,0,1,1,8.79v0A.23.23,0,0,1,1,8.55a.45.45,0,0,1,.12-.21.12.12,0,0,0,.09,0,.14.14,0,0,1,.09-.05c.12-.3.24-.59.36-.86-.15-.27.17-.79,1-1.54.25-.33.5-.65.77-.95a.56.56,0,0,1,.1-.14.14.14,0,0,1,.09,0,16.49,16.49,0,0,1,2.9-2.49,5.82,5.82,0,0,1,.77-.45.12.12,0,0,1,0-.09.32.32,0,0,1,.23-.09A10.46,10.46,0,0,1,9.88.77a1.77,1.77,0,0,1,.87-.36.68.68,0,0,1,.36.18H12A1.17,1.17,0,0,1,12.42.5a.52.52,0,0,1,.37.13,5.92,5.92,0,0,1,1,.19.41.41,0,0,1,.18,0,.18.18,0,0,1,.18.09.12.12,0,0,1,0,.09l.5.18a.81.81,0,0,1,.25,0,.77.77,0,0,1,.25,0,4.44,4.44,0,0,1,2.27-.9.91.91,0,0,1,.41.09h.41a4.43,4.43,0,0,1,1.08.13A3.62,3.62,0,0,1,21.22,1.9a.48.48,0,0,1,.13.09.59.59,0,0,1,.09.32,3.67,3.67,0,0,1,.28,1.14.49.49,0,0,1,.18.09c.12.15.06.34-.18.59a8.1,8.1,0,0,0,0,.81.26.26,0,0,1,.18.09c.18.21.12.55-.18,1v.63a.4.4,0,0,1,0,.37c0,1,0,1.9,0,2.72a.54.54,0,0,1,.22.13.26.26,0,0,1,0,.41.41.41,0,0,1-.18.05ZM7.34,10l.82-.59a5.23,5.23,0,0,1,1.18-.9A11.36,11.36,0,0,1,10.7,7.34a1.57,1.57,0,0,1,.45-.22.14.14,0,0,1,.09,0A.32.32,0,0,1,11.47,7q6-4.49,6.21-5.8a.27.27,0,0,0,0-.27,3.14,3.14,0,0,0-1.82,1.27l-.13.22-.28-.18-.09-.09a7.15,7.15,0,0,1-1.27,1.34C13.42,4,12.73,4.59,12,5.17s-1.8,1.37-3.2,2.4C8,8.15,7.37,8.58,7,8.89L3.22,12.6C1.83,14,1.06,14.78.91,14.87V15C1.42,14.34,3.57,12.66,7.34,10ZM1,12.74v.09a8.27,8.27,0,0,0,.73-.54L1,12.51A1.85,1.85,0,0,1,1,12.74Zm.14-2c0,.13-.06.26-.09.41l.59-.5a1.13,1.13,0,0,1-.41.09Zm2,1.18a10.38,10.38,0,0,0-2,2l1.68-1.68A1.59,1.59,0,0,1,3.13,11.92ZM1.18,16.77v.14A9.26,9.26,0,0,0,2.4,16c.52-.46,1.38-1.26,2.59-2.4a21.52,21.52,0,0,1,2.94-2.68,5.33,5.33,0,0,1,.23-.63c-.21.18-.44.36-.68.54l-.63.63q-3.31,3.14-4.45,4A8.74,8.74,0,0,0,1.18,16.77Zm2.76-3.62-.81.63a9.28,9.28,0,0,0-1.86,1.68A5.06,5.06,0,0,0,2,15C2.51,14.45,3.16,13.84,3.94,13.15Zm-2.63,4.3a.47.47,0,0,1,.05.14l.36-.36ZM7.16,4.71c-3.23,3-5.14,4.77-5.71,5.4A9.19,9.19,0,0,0,3.08,8.89q1-.92,3.45-3.4c.69-.7,1.24-1.26,1.63-1.68Zm-5.66,7a15.52,15.52,0,0,0,3-2.08c.18-.18.48-.47.91-.87Q8.2,6.08,9.7,4.67a6.42,6.42,0,0,1-.54.41c-.73.66-1.57,1.4-2.54,2.22Q4.63,9,2.27,10.83C2,11.17,1.71,11.47,1.5,11.74Zm.13-2.9a3.15,3.15,0,0,1-.13.41,10.19,10.19,0,0,1,.81-.82A2.52,2.52,0,0,1,1.63,8.84Zm.05,9.7,2.81-2.45c.66-.54,1.22-1,1.68-1.4a4.67,4.67,0,0,0,1.17-1.5,7.83,7.83,0,0,0-2,1.45c-.7.61-1.68,1.53-2.95,2.77l-.81.82C1.62,18.32,1.65,18.42,1.68,18.54Zm.32.77c.87-.78,1.69-1.49,2.44-2.13L5,16.73q1.39-1.27,2.13-2c-.15.12-.33.26-.55.41-.48.48-1.08,1-1.81,1.67-.91.76-1.86,1.53-2.86,2.32A.9.9,0,0,0,2,19.31Zm.36-12-.18.27c.45-.3.87-.6,1.27-.91s1.07-1,1.85-1.76ZM5.17,17.54C3.54,19,2.71,19.9,2.67,20.36a3.27,3.27,0,0,0,.91-.55,1.38,1.38,0,0,0,.27-.23c1.21-1.17,2.15-2,2.81-2.53.37-.4.73-.77,1.09-1.14,0-.15-.06-.28-.09-.41Q6.3,16.55,5.17,17.54ZM3.4,21.4c0-.39.6-1.1,1.72-2.13t-.18.18c-.27.24-.53.45-.77.63l-.5.5-.54.55Zm.59.5a.12.12,0,0,0-.09,0Zm.77-1.5c-.21.24-.39.44-.54.59.27-.24.74-.69,1.4-1.36l.09-.09C5.32,19.87,5,20.16,4.76,20.4ZM5,22.8v0c1.3-1.39,2.43-2.62,3.4-3.67L6.62,20.72c-1,.94-1.66,1.54-2,1.81Zm3.9-5.35h0a4.16,4.16,0,0,0-1,.73c-.39.33-1,.94-1.85,1.81l-.73.73.5-.41C6.91,19.46,7.63,18.86,8,18.5A4.35,4.35,0,0,0,8.93,17.45ZM6.44,23a42.2,42.2,0,0,0,4.8-4.85H11a35.57,35.57,0,0,0-5.31,4.76l-.18.18.55.27a.24.24,0,0,1,.13-.13Zm4.08-20.7c-.7.62-1.89,1.8-3.58,3.52-.37.39-.68.72-1,1L8.79,4.67a24,24,0,0,0,3.54-3.49.87.87,0,0,1-.23-.05A8.86,8.86,0,0,0,10.52,2.33ZM6.85,2.9,6.8,3,8,2a2.85,2.85,0,0,0-.36.19l-.54.49A1.75,1.75,0,0,1,6.85,2.9Zm.22,20.86a3,3,0,0,0,.18-.32l-.4.23ZM7.62,12.2l-.5.49a1,1,0,0,1,.36-.09.14.14,0,0,1,.09.05A2.3,2.3,0,0,1,7.62,12.2ZM10.16,22c.93-.78,2.53-2.22,4.8-4.3.61-.52,1.09-1,1.45-1.32-.36.27-.8.62-1.31,1-2.54,2-4.3,3.36-5.26,4.17a12.63,12.63,0,0,0-2.22,2.27h.09A13.92,13.92,0,0,0,10.16,22Zm3.17-7c-.15-.19-.08-.49.23-.91q.09-1.45.09-4.35c0-.88,0-1.42,0-1.64a.36.36,0,0,0-.18-.27h0a.37.37,0,0,1-.27-.09v0a2.55,2.55,0,0,0-.95-.18h-.18a1.13,1.13,0,0,1-.5.13c-.57.43-1.24.89-2,1.41a5.87,5.87,0,0,0-1.05,1.81,0,0,0,0,1,.05,0,.25.25,0,0,1-.05.36l-.18.18a9.76,9.76,0,0,0-.27,1.95.26.26,0,0,1,.23.14c.15.18.07.46-.23.86a5.14,5.14,0,0,0,.23,1.27l0,0a.32.32,0,0,1,.09.32l.09.18.09.09a.26.26,0,0,1,.09.18,1.62,1.62,0,0,0,.32.32h.05a.43.43,0,0,1,.36.18.26.26,0,0,1,.09.18,1.78,1.78,0,0,0,.36.14H10a.3.3,0,0,1,.27.13,2.69,2.69,0,0,0,.54.14h.1a1.38,1.38,0,0,1,.59-.18.48.48,0,0,1,.36.13A2.06,2.06,0,0,0,13,16.91a.32.32,0,0,1,.09-.23l.27-.22a.33.33,0,0,0,0-.14,1.15,1.15,0,0,0,.05-.36.14.14,0,0,1-.09-.05.49.49,0,0,1-.09-.41.86.86,0,0,1,.13-.45Zm-4.4,9.11,4.35-4c-2.32,2.09-3.9,3.42-4.71,4A1.49,1.49,0,0,1,8.93,24.12Zm12.24-13v-.63a9.51,9.51,0,0,0-1.18.9c-.51.46-1.4,1.3-2.67,2.54a21.93,21.93,0,0,1-3.81,3.22,2.77,2.77,0,0,1-1.59.95,3.66,3.66,0,0,1-.5.73c-.33.39-.83.94-1.49,1.63-.36.36-.8.79-1.32,1.27Q12.38,18.86,21,11.29A.73.73,0,0,1,21.17,11.15ZM10.25,24l2.4-2.18L9.84,24.12h.32Zm-.05-6,0,0-.05,0a1,1,0,0,1-.14.19A1.11,1.11,0,0,1,10.2,18ZM14.55,2.22c-1,.73-2.14,1.69-3.53,2.9a5.65,5.65,0,0,0-.46.41c1-.75,1.85-1.39,2.45-1.9A16.23,16.23,0,0,0,14.55,2.22Zm-3.76-.91a.18.18,0,0,1,0,.1A1.14,1.14,0,0,1,11,1.18h-.09Zm2.63,1a14.32,14.32,0,0,0-1.59,1.27c-.18.15-.34.3-.5.45C12.09,3.42,12.79,2.84,13.42,2.36ZM11.74,24l4.67-4.35-.91.77c-1.14,1.06-2,1.86-2.67,2.4s-1.12,1-1.45,1.23A1.49,1.49,0,0,0,11.74,24ZM12.92,1.22a2.06,2.06,0,0,1-.45.68l.81-.59Zm.14,22.45q2.17-1.5,4.3-3.22l.41-.32c.67-.61,1.57-1.41,2.72-2.4l.05-.05,0,0,.18-.19.19-.22L12.83,23.8H13A.14.14,0,0,1,13.06,23.67Zm.36-16.92c.27-.18.63-.45,1.09-.81s1.27-1.21,2.36-2.27l-.78.68c-1,.91-1.78,1.63-2.44,2.18A.8.8,0,0,0,13.42,6.75Zm.63,9v0l4.86-4.49C18.15,12,17,13,15.46,14.42,14.7,15.11,14.24,15.55,14.05,15.73Zm.09-2.31q.64-.67,1.77-1.77c-.57.52-1.1,1-1.58,1.41a.33.33,0,0,1-.14,0A1,1,0,0,0,14.14,13.42Zm0-1,3.08-2.81C18,9,18.57,8.45,19.09,8a19,19,0,0,0,2-2.08c-.45.36-1.33,1.13-2.63,2.31q-3.67,3.36-4.26,3.49Zm.05-1.91c.15-.18.33-.38.54-.59a.8.8,0,0,1-.54.18Zm5.84-7.25c-.6.48-1.42,1.16-2.44,2l-.1.09Q16,6.67,14.28,8.11V8.3l1.36-1.14c.64-.54,1.24-1,1.81-1.49C18.6,4.67,19.48,3.85,20.08,3.22ZM14.55,9.34a68.06,68.06,0,0,0,6.62-5.53V3.54c-.21.21-.89.77-2,1.67-1.51,1.21-2.58,2.1-3.22,2.68A8.74,8.74,0,0,0,14.55,9.34Zm3.54-1.5c1.66-1.51,2.69-2.4,3.08-2.67v-.5c-.27.27-.8.76-1.59,1.45q-2.4,2.17-3.44,3.22c-.64.6-1.12,1.09-1.45,1.45C15.26,10.37,16.4,9.38,18.09,7.84ZM15.14,23.35a2.61,2.61,0,0,1,.14-.32,2.41,2.41,0,0,1-.36.23l.18-.05Zm6-9.07v-.77L15.19,19,21,14.37A.56.56,0,0,1,21.13,14.28ZM15.6,1.5l-.1.09h.05Zm5.57,6.8V7.66a.48.48,0,0,0-.13.09c-.28.27-.84.79-1.68,1.54-1.69,1.52-2.9,2.63-3.63,3.36a.48.48,0,0,1-.13.09l1.76-1.45Q19.18,9.79,21.17,8.3Zm-.13,11c-1.09.82-2.88,2.33-5.35,4.54L16,24a.74.74,0,0,1,.22-.23c.22-.21.67-.6,1.36-1.18,1.21-1.06,2.08-1.83,2.59-2.31A13.39,13.39,0,0,0,21,19.31Zm0-.68V18a24.66,24.66,0,0,1-2.63,2.41l-.54.45-.32.32c-.6.6-1.07,1.1-1.41,1.49l2-1.72C19.6,19.72,20.57,19,21.08,18.63Zm-3.76,5.44c.15-.18.48-.53,1-1a11.34,11.34,0,0,1,.86-.86,11.72,11.72,0,0,0-1,.86L16.73,24.3a1,1,0,0,0,.32.05Zm2.13-.77,1.13-1.4a20.25,20.25,0,0,0-2.76,2.54H18a4.89,4.89,0,0,0,.64-.14,2.21,2.21,0,0,0,.2-.25C18.9,23.91,19.12,23.67,19.45,23.3ZM18.13,3.54l2.09-1.82s0,0,.05,0l-.05-.05Zm2.95,12.87c0-.21.05-.35.05-.41l-3,2.77ZM18.27,1.22a1.24,1.24,0,0,1,0,.23c.21-.18.4-.36.58-.54a3.48,3.48,0,0,0-.58-.05A2.2,2.2,0,0,1,18.27,1.22Zm1.18-.09c-.3.34-.71.74-1.22,1.23a11.7,11.7,0,0,1,1.35-1.18A.36.36,0,0,1,19.45,1.13Zm1.59,20v0s-.05,0-.05,0Z"/><path class="a" d="M46.2,18c.15.21.12.5-.09.86A13.88,13.88,0,0,1,46,21.08a3.67,3.67,0,0,1-2.23,3.27.67.67,0,0,1-.4.18h-.1a.48.48,0,0,0-.22,0,3.81,3.81,0,0,1-.82.09,3.27,3.27,0,0,1-.54,0,.46.46,0,0,1-.18.09h-.05a.3.3,0,0,1-.18-.14s0,0,0,0a6.39,6.39,0,0,1-.72-.28h-.14a.29.29,0,0,1-.22-.09.41.41,0,0,1-.05-.18,4.81,4.81,0,0,1-.54-.41,3.65,3.65,0,0,1-.95-1.81.42.42,0,0,1-.14-.09.49.49,0,0,1-.14-.45,2.61,2.61,0,0,1,.14-.32,0,0,0,0,1-.05,0c-.15-.18-.12-.42.1-.72a2.28,2.28,0,0,1,0-.45.42.42,0,0,1,.05-.41c0-.3,0-.53,0-.68v-.32a.28.28,0,0,1,0-.41l0,0a7.63,7.63,0,0,0,0-.82.26.26,0,0,1-.18-.09c-.12-.15,0-.36.23-.63,0-1.21,0-2.75-.14-4.63q-.09,0-.09-.09a.28.28,0,0,1,0-.41h.05a3.13,3.13,0,0,0-.05-.5h0a.19.19,0,0,1-.19-.09c-.18-.21-.13-.48.14-.81a1.64,1.64,0,0,0-.05-.37.17.17,0,0,1-.27-.09c-.12-.12-.1-.25,0-.4h0A.55.55,0,0,1,38,8.75a.19.19,0,0,1-.07-.2A.36.36,0,0,1,38,8.34l.09-.09a.21.21,0,0,0,0-.14L37.81,8h-.05a.3.3,0,0,1-.13,0h-.27a3.42,3.42,0,0,0-2.27.95l-.27.23a4.32,4.32,0,0,0-1.18,2.36v.15a.17.17,0,0,1,0,.12c0,.39-.06.9-.09,1.54a.56.56,0,0,1,.14.09.32.32,0,0,1,.09.32,1.59,1.59,0,0,1-.23.45v.41a.48.48,0,0,1,.09.27,1.85,1.85,0,0,1-.09.23v1a.44.44,0,0,1,.23.18c.18.21.1.56-.23,1,0,1.57-.07,2.71-.13,3.4a.59.59,0,0,1-.09.68c-.07.31-.13.56-.19.77a3.41,3.41,0,0,1-2.31,2.36,1.47,1.47,0,0,1-.77.41.31.31,0,0,1-.27-.14s0,0,0,0h-.81a3.23,3.23,0,0,1-2.81-2,.73.73,0,0,1-.18-.14.3.3,0,0,1,0-.32,6,6,0,0,1-.28-1.13,9,9,0,0,1-.09-1.18.64.64,0,0,1-.09-.36.41.41,0,0,1,.05-.18.14.14,0,0,1-.09-.05.63.63,0,0,1-.07-.38,1.35,1.35,0,0,1,.16-.48V18h-.05a.56.56,0,0,1-.09-.45.84.84,0,0,1,.14-.41V15.82q0-2.85,0-4.89,0-.78.09-1.68a0,0,0,0,0-.05-.05c-.09-.15-.06-.31.09-.5,0-.36.06-.72.1-1.08l-.1-.09a.48.48,0,0,1-.06-.34,1,1,0,0,1,.2-.48.18.18,0,0,0,0-.09c-.19-.21-.13-.55.18-1C26,4.9,26,4.35,26.07,4a4.11,4.11,0,0,1,.27-1.13,3.39,3.39,0,0,1,.36-.77.19.19,0,0,1,.09-.19l.05,0A3.52,3.52,0,0,1,29.69.27,1,1,0,0,1,30.24,0a.73.73,0,0,1,.32.18.26.26,0,0,1,.09.18l.4.09a.72.72,0,0,1,.41-.18.3.3,0,0,1,.18.14.27.27,0,0,1,.05.27A1,1,0,0,1,32,.82a2.64,2.64,0,0,1,.77.68.26.26,0,0,1,.18.09.3.3,0,0,1,0,.27,3.19,3.19,0,0,1,.23.45c.39-.27.82-.54,1.27-.81l.23-.14a.46.46,0,0,1,.18-.09A10.12,10.12,0,0,1,37,.54l.18-.13a.26.26,0,0,1,.41,0,7.5,7.5,0,0,1,.82,0h.5l0,0a.24.24,0,0,1,.21-.07.47.47,0,0,1,.2.12s0,0,0,0A8.3,8.3,0,0,1,41.25,1a.21.21,0,0,1,.14,0,.3.3,0,0,1,.23.11.35.35,0,0,1,.09.2l.36.28a.41.41,0,0,1,.18-.05.32.32,0,0,1,.23.09.3.3,0,0,1,0,.27,5.06,5.06,0,0,1,.41.37.12.12,0,0,1,.09,0,0,0,0,0,0,0,0,2.59,2.59,0,0,0,.32.36.74.74,0,0,1,.22-.05.18.18,0,0,1,.18.14.44.44,0,0,1,.14.41v.13l.18.28a9.64,9.64,0,0,1,1.18,2.13h.09a.18.18,0,0,1,.18.09.28.28,0,0,1,0,.41l0,0c.06.18.12.35.18.5a.12.12,0,0,1,0,.09.15.15,0,0,1,0,.18v.09a1.17,1.17,0,0,0,0,.23.2.2,0,0,1,.14.05.3.3,0,0,1,0,.4A.85.85,0,0,1,46,8a.19.19,0,0,1,.23.09c.12.13.07.31-.14.55a11.33,11.33,0,0,1,.14,1.77v.22l0,0a.28.28,0,0,1,0,.41h0c0,.75,0,1.51-.05,2.26h.05a.73.73,0,0,1,.18.14c.12.15.07.32-.14.5l-.09.09q0,.81-.09,1.59a.47.47,0,0,1,0,.4l0,.09v.73a0,0,0,0,1,0,.05c.12.12.11.28,0,.49v.46ZM26.07,11.56a5.84,5.84,0,0,0-.05.73,6,6,0,0,1,.86-1A1.32,1.32,0,0,1,26.07,11.56ZM26,14.64l.55-.45a.54.54,0,0,1-.37.05H26ZM34.5,7.48c2-1.84,4.13-3.84,6.3-6a1.16,1.16,0,0,1-.27-.14q-.22.58-4,3.26c-.69.64-1.48,1.33-2.35,2.09q-2.73,2.22-7.3,5.67a4,4,0,0,1-.59.4,1.92,1.92,0,0,0-.27.64.53.53,0,0,0,0,.23.12.12,0,0,0,.09,0Q27.57,13.74,34.5,7.48ZM26.11,10a5.79,5.79,0,0,1,0,.72q4.08-3.57,7.21-6.48l-7,5.67A.26.26,0,0,1,26.11,10Zm.23,5.58a1.3,1.3,0,0,0-.27.63l.31-.23a6.27,6.27,0,0,0,.55-.59A2.67,2.67,0,0,1,26.34,15.6ZM33,12.92v-.63q-1.77,1.48-3.31,2.81a32.4,32.4,0,0,0-3.45,3.35,21.52,21.52,0,0,1,1.95-1.63l1.05-1c1.26-1.21,2.15-2,2.65-2.41s.84-.57,1-.54ZM26.29,7.34a5.85,5.85,0,0,1,0,.73l.63-.63c1.24-1.24,2.21-2.23,2.91-2.95-.58.45-1.32,1.06-2.23,1.81l-1.08.91Zm0,14.24a.39.39,0,0,0,.05.14c.15-.16.36-.35.63-.59l.46-.46A8.7,8.7,0,0,1,26.29,21.58ZM26.48,5.8a.8.8,0,0,0-.05.23l.05,0a14.41,14.41,0,0,1,1.27-1q.72-.65,2.22-2c1-1,1.61-1.51,1.76-1.64a3.11,3.11,0,0,0-.45-.22Q30,2.26,28.88,3.31A20.61,20.61,0,0,0,26.48,5.8Zm6.43,11.29v-.32a23.57,23.57,0,0,0-3.4,2.77c-.93.85-1.92,1.78-2.94,2.81a3.66,3.66,0,0,0,.31.59.14.14,0,0,0,.05-.09q1.63-1.37,3.22-2.86A28.11,28.11,0,0,0,32.91,17.09ZM26.7,3.63a1,1,0,0,0,0,.31c.12-.12.27-.25.45-.4a.8.8,0,0,1-.36.09ZM27,16.28a.68.68,0,0,0-.18.13l-.13.14A2.18,2.18,0,0,0,27,16.28Zm-.27,3.44,4.17-3.35a1.16,1.16,0,0,0-.31.22A31.88,31.88,0,0,0,26.7,19.72Zm4.94-8.43,2-1.81Q31,11.61,27.79,14l-.73.72A27.24,27.24,0,0,0,31.64,11.29Zm.73-8.66L30.92,4.17Q29.74,5.4,27.29,7.84l-.09.09a73.24,73.24,0,0,0,5.62-4.8l0-.27a2.27,2.27,0,0,0-.14-.5Zm-4.62,20.9.54-.64a2.35,2.35,0,0,1-1,.5c.09.09.2.18.32.28A1.78,1.78,0,0,1,27.75,23.53Zm.77-22.31a15.2,15.2,0,0,0-1.18,1.41c.21-.21.54-.56,1-1L28.92,1l-.31.09A.14.14,0,0,1,28.52,1.22Zm8.65.14L35.91,2.63Q34.5,4,32,6.26q-2,1.86-4.49,4A70.63,70.63,0,0,0,33,5.8C34.65,4.32,36.43,2.71,38.31,1a4,4,0,0,0-.86.09A4.12,4.12,0,0,0,37.17,1.36Zm-4.3,18.22a6.49,6.49,0,0,1,0-.72c-2,2.06-3.46,3.57-4.3,4.53l.9-.77c.52-.45,1.26-1.15,2.22-2.08A5.23,5.23,0,0,1,32.87,19.58ZM28.65,24s0,0,0,0S28.65,24.06,28.65,24Zm1-23c-.21.18-.52.5-1,1l-.09.1C29.1,1.66,29.45,1.31,29.69,1Zm.28,23a1.42,1.42,0,0,1,.22-.18,1.84,1.84,0,0,0-.27.23h0Zm3.12-12.74a1.49,1.49,0,0,1,0-.36L32,11.88c-.15.15-.35.33-.59.54A6.69,6.69,0,0,1,33.09,11.33ZM32.91,18v0l-.36.36A4.39,4.39,0,0,0,32.91,18Zm-.13,2.68c0-.06,0-.09,0-.09l-.22.22a0,0,0,0,0-.05,0A1,1,0,0,1,32.78,20.72Zm.59-17.23a.56.56,0,0,0-.14.09L35.81,1.5a7.44,7.44,0,0,0-.72.31A.14.14,0,0,1,35,1.9c-.09.09-.22.22-.4.37Zm3.58,0c-.49.39-1,.82-1.54,1.27l.81-.59C36.46,3.93,36.71,3.7,37,3.49Zm-.18,2.68c.9-.79,1.67-1.48,2.31-2.09a17.54,17.54,0,0,0,1.54-1.63q-2,2-4,3.81A.26.26,0,0,0,36.77,6.17Zm.68,1.22a1.93,1.93,0,0,1,.36-.45l-.64.5a.45.45,0,0,1,.19-.05Zm1.36-6.12c-.15.15-.32.3-.5.45a2.32,2.32,0,0,1,.36-.22A2.38,2.38,0,0,0,38.81,1.27Zm-.23,6.62a1.84,1.84,0,0,1,.27-.23c.18-.18.47-.45.86-.81a35.36,35.36,0,0,1,3-2.72l.41-.5L41.57,5C40,6.48,38.93,7.37,38.44,7.71A.73.73,0,0,0,38.58,7.89ZM40,5.62,38.81,6.71C39.14,6.44,39.55,6.07,40,5.62Zm-.91-3.76a4.86,4.86,0,0,0-.27.41l.91-.77C39.58,1.59,39.37,1.71,39.12,1.86ZM38.94,9A.41.41,0,0,1,39,9.2c.33-.3.95-.84,1.86-1.63s1.43-1.19,1.77-1.5Zm.23-3.94a.56.56,0,0,0-.14.09l0,0Zm-.09,16v.18a5.35,5.35,0,0,0,1.27-.91c.18-.18.39-.38.63-.59A6.87,6.87,0,0,1,39.08,21ZM40.85,9c-.82.66-1.39,1.11-1.73,1.36l.05.09v.18Zm-1.09,2.26a2.55,2.55,0,0,1-.55.32.26.26,0,0,0,0,.18Zm-.55,10.61a.14.14,0,0,0,0-.09l0,0Zm0-3.76v.41a.27.27,0,0,1,.14-.14c.39-.36,1.13-1,2.22-1.9,1.33-1.09,2.25-1.88,2.76-2.36.76-.7,1.14-1.16,1.14-1.41-.4-.06-1.47.73-3.22,2.36Zm.05-4.85.45-.36-.32.22a.17.17,0,0,1-.13.05Zm0,3.35v.59c.76-.78,1.47-1.51,2.13-2.17a5.06,5.06,0,0,0,.41-.37l2-2Q41.93,14.24,39.35,16.59Zm0-2.26c.27-.34.65-.74,1.13-1.23L39.35,14Zm.14,1.17a.11.11,0,0,1-.09.05v.09A.42.42,0,0,0,39.49,15.5Zm.22,7.3a1.65,1.65,0,0,1,.09-.22.69.69,0,0,1-.22,0A.68.68,0,0,0,39.71,22.8Zm2-10.11a3.29,3.29,0,0,0,.46-.45c-.43.39-.79.74-1.09,1-.61.61-1,1.08-1.32,1.41C40.14,14.39,40.79,13.72,41.75,12.69Zm-2,9.3A8.9,8.9,0,0,0,41.07,21c.49-.43,1.26-1.15,2.32-2.18a20.49,20.49,0,0,1,2-1.86v-.14a32.38,32.38,0,0,1-2.5,2.23c-1.09.9-1.84,1.54-2.26,1.9A6.65,6.65,0,0,0,39.8,22Zm5.72-7.17a.3.3,0,0,1,0-.13V14.6c-.21.18-.54.45-1,.81q-2.49,2-3.67,3.09l-.81.72q.86-.67,2.76-2.13a5.34,5.34,0,0,0,.64-.5,1.42,1.42,0,0,0,.22-.18A9.82,9.82,0,0,1,45.52,14.82Zm-5,8.62a.62.62,0,0,1,.19-.14,1.14,1.14,0,0,1-.37.09.32.32,0,0,0,.14.14A.12.12,0,0,1,40.48,23.44Zm5-5.4-.14.14-1.85,1.68q-2.59,2.31-3.13,2.94a14.45,14.45,0,0,0,2.85-2.26c.73-.7,1.48-1.45,2.27-2.27Zm-4,5.94L44.2,20.9c-.57.54-1.34,1.24-2.31,2.09-.45.39-.76.66-.91.81A1.43,1.43,0,0,0,41.48,24Zm.77-21.53a7.54,7.54,0,0,1-.54.59l.63-.55A.12.12,0,0,1,42.25,2.45Zm3,5.17c-1,.78-2,1.55-2.86,2.31ZM43.2,23.94A6.72,6.72,0,0,1,44,22.8l-.1.09a.14.14,0,0,1-.09.05,16.81,16.81,0,0,1-1.36,1.13A1.71,1.71,0,0,0,43,24,.69.69,0,0,0,43.2,23.94ZM42.93,3l-.09.09a.14.14,0,0,1,.09,0Zm1.36,2A4.54,4.54,0,0,1,43.2,6.3c.37-.33.73-.65,1.09-1a.41.41,0,0,1,.18,0A2.84,2.84,0,0,0,44.29,5Zm.41.81a2,2,0,0,1-.18.27,7.2,7.2,0,0,1-.64.68c-.18.22-.39.44-.63.69L44.79,6A1.85,1.85,0,0,0,44.7,5.8Zm.77,15a3.29,3.29,0,0,0,.05-.54l-1.73,1.94,1.68-1.36Zm-.36-14,0,0v0l-.36.32Zm.45,2.31c-.18.18-.44.42-.77.72a1.2,1.2,0,0,1,.59-.22.53.53,0,0,1,.23,0A2.76,2.76,0,0,0,45.56,9.16Zm-.63,13.46a1,1,0,0,0,.18-.36,1.26,1.26,0,0,1-.14.18,2,2,0,0,0-.13.23A.14.14,0,0,1,44.93,22.62Zm0-11.47a3.61,3.61,0,0,1,.77-.5v-.11a.15.15,0,0,0,0-.11A8.2,8.2,0,0,0,44.88,11.15Zm.18-2.49.41-.32,0,0Zm.55,3.49V11.7l-.5.5a.61.61,0,0,1,.41,0Zm0,1.63v-.09a2,2,0,0,1-.36.36,2,2,0,0,0,.27-.18l.05,0Z"/><path class="a" d="M70.32,18c.15.21.12.5-.1.86a13.88,13.88,0,0,1-.09,2.22,3.65,3.65,0,0,1-2.22,3.27.69.69,0,0,1-.41.18h-.09a.48.48,0,0,0-.22,0,3.81,3.81,0,0,1-.82.09,3.27,3.27,0,0,1-.54,0,.46.46,0,0,1-.18.09H65.6a.3.3,0,0,1-.18-.14s0,0,0,0a6.39,6.39,0,0,1-.72-.28h-.14a.29.29,0,0,1-.22-.09.41.41,0,0,1-.05-.18,4.81,4.81,0,0,1-.54-.41,3.65,3.65,0,0,1-1-1.81.42.42,0,0,1-.14-.09.49.49,0,0,1-.14-.45,2.61,2.61,0,0,1,.14-.32,0,0,0,0,1,0,0q-.23-.27.09-.72a2.3,2.3,0,0,1,.05-.45.39.39,0,0,1,0-.41c0-.3,0-.53,0-.68v-.32a.28.28,0,0,1,0-.41l0,0a5.73,5.73,0,0,0,.05-.82.26.26,0,0,1-.18-.09c-.12-.15-.05-.36.23-.63,0-1.21,0-2.75-.14-4.63q-.09,0-.09-.09a.28.28,0,0,1,0-.41h0a3.13,3.13,0,0,0,0-.5h-.05a.18.18,0,0,1-.18-.09c-.18-.21-.13-.48.14-.81a1.64,1.64,0,0,0,0-.37.17.17,0,0,1-.27-.09c-.12-.12-.11-.25.05-.4h-.05a.59.59,0,0,1-.23-.14.2.2,0,0,1-.06-.2.36.36,0,0,1,.11-.21l.09-.09a.29.29,0,0,0,0-.14L61.93,8h0a.3.3,0,0,1-.13,0h-.27a3.42,3.42,0,0,0-2.27.95l-.27.23a4.32,4.32,0,0,0-1.18,2.36v.15a.17.17,0,0,1,0,.12c0,.39-.06.9-.09,1.54a.56.56,0,0,1,.14.09.32.32,0,0,1,.09.32,1.59,1.59,0,0,1-.23.45v.41a.48.48,0,0,1,.09.27,1.85,1.85,0,0,1-.09.23v1a.44.44,0,0,1,.23.18c.18.21.1.56-.23,1,0,1.57-.07,2.71-.13,3.4.12.18.09.41-.1.68s-.12.56-.18.77a3.41,3.41,0,0,1-2.31,2.36,1.47,1.47,0,0,1-.77.41.31.31,0,0,1-.27-.14s0,0,0,0H53a3.23,3.23,0,0,1-2.81-2,1,1,0,0,1-.19-.14.3.3,0,0,1,0-.32,6.9,6.9,0,0,1-.27-1.13,9,9,0,0,1-.09-1.18.64.64,0,0,1-.09-.36.41.41,0,0,1,.05-.18.14.14,0,0,1-.09-.05.63.63,0,0,1-.07-.38,1.35,1.35,0,0,1,.16-.48V18h-.05a.56.56,0,0,1-.09-.45.84.84,0,0,1,.14-.41V15.82q0-2.85,0-4.89,0-.78.09-1.68a0,0,0,0,0,0-.05c-.09-.15-.06-.31.09-.5l.09-1.08-.09-.09a.48.48,0,0,1-.06-.34,1,1,0,0,1,.2-.48.14.14,0,0,0,0-.09c-.18-.21-.12-.55.18-1,.1-.72.16-1.27.19-1.63a4.11,4.11,0,0,1,.27-1.13,3.39,3.39,0,0,1,.36-.77.19.19,0,0,1,.09-.19l.05,0A3.52,3.52,0,0,1,53.81.27.93.93,0,0,1,54.36,0a.65.65,0,0,1,.31.18.24.24,0,0,1,.1.18l.4.09a.69.69,0,0,1,.41-.18.3.3,0,0,1,.18.14.27.27,0,0,1,.05.27,1,1,0,0,1,.32.14,2.77,2.77,0,0,1,.77.68.26.26,0,0,1,.18.09.3.3,0,0,1,0,.27,3.19,3.19,0,0,1,.23.45c.39-.27.82-.54,1.27-.81l.23-.14A.46.46,0,0,1,59,1.27,10.12,10.12,0,0,1,61.11.54l.18-.13a.26.26,0,0,1,.41,0,7.5,7.5,0,0,1,.82,0H63l0,0a.24.24,0,0,1,.21-.07.47.47,0,0,1,.2.12s0,0,.05,0A8.3,8.3,0,0,1,65.37,1a.2.2,0,0,1,.14,0,.3.3,0,0,1,.23.11.35.35,0,0,1,.09.2l.36.28a.41.41,0,0,1,.18-.05.32.32,0,0,1,.23.09.3.3,0,0,1,0,.27,5.06,5.06,0,0,1,.41.37.12.12,0,0,1,.09,0,0,0,0,0,0,0,0,3.31,3.31,0,0,0,.31.36.87.87,0,0,1,.23-.05.18.18,0,0,1,.18.14.44.44,0,0,1,.14.41v.13l.18.28a9.64,9.64,0,0,1,1.18,2.13h.09a.18.18,0,0,1,.18.09.28.28,0,0,1,0,.41l0,0c.06.18.12.35.18.5a.12.12,0,0,1,0,.09.15.15,0,0,1,0,.18v.09a1.17,1.17,0,0,0,0,.23.2.2,0,0,1,.14.05.3.3,0,0,1,0,.4.85.85,0,0,1,0,.18.19.19,0,0,1,.23.09c.12.13.07.31-.14.55a11.33,11.33,0,0,1,.14,1.77v.22l0,0a.28.28,0,0,1,0,.41h0c0,.75,0,1.51,0,2.26h0a.73.73,0,0,1,.18.14c.12.15.07.32-.14.5l-.09.09-.09,1.59a.47.47,0,0,1,0,.4l-.05.09v.73a0,0,0,0,1,.05.05c.12.12.11.28-.05.49v.46ZM50.19,11.56a5.84,5.84,0,0,0,0,.73,6,6,0,0,1,.86-1A1.32,1.32,0,0,1,50.19,11.56Zm0,3.08.55-.45a.54.54,0,0,1-.37.05h-.18Zm8.48-7.16c2-1.84,4.13-3.84,6.3-6a1.16,1.16,0,0,1-.27-.14q-.23.58-4,3.26C60,5.26,59.22,6,58.35,6.71q-2.73,2.22-7.3,5.67a4,4,0,0,1-.59.4,1.92,1.92,0,0,0-.27.64.53.53,0,0,0,0,.23.12.12,0,0,0,.09,0Q51.68,13.74,58.62,7.48ZM50.23,10a5.79,5.79,0,0,1,0,.72q4.08-3.57,7.2-6.48l-7,5.67A.26.26,0,0,1,50.23,10Zm.23,5.58a1.3,1.3,0,0,0-.27.63L50.5,16a6.27,6.27,0,0,0,.55-.59A2.67,2.67,0,0,1,50.46,15.6Zm6.62-2.68v-.63c-1.18,1-2.29,1.93-3.31,2.81a31.43,31.43,0,0,0-3.45,3.35,21.52,21.52,0,0,1,2-1.63l1-1c1.27-1.21,2.16-2,2.66-2.41s.84-.57,1-.54ZM50.41,7.34a5.85,5.85,0,0,1,0,.73L51,7.44c1.24-1.24,2.21-2.23,2.9-2.95-.57.45-1.31,1.06-2.22,1.81l-1.09.91Zm0,14.24a.39.39,0,0,0,.05.14c.15-.16.36-.35.63-.59l.46-.46A8.7,8.7,0,0,1,50.41,21.58ZM50.59,5.8a.74.74,0,0,0,0,.23l0,0c.31-.27.73-.6,1.27-1s1.23-1.11,2.23-2,1.61-1.51,1.76-1.64a3.11,3.11,0,0,0-.45-.22Q54.08,2.26,53,3.31A21.77,21.77,0,0,0,50.59,5.8ZM57,17.09v-.32a23.57,23.57,0,0,0-3.4,2.77c-.93.85-1.92,1.78-2.94,2.81a3.66,3.66,0,0,0,.31.59.14.14,0,0,0,0-.09q1.64-1.37,3.22-2.86A28.11,28.11,0,0,0,57,17.09ZM50.82,3.63a1,1,0,0,0,0,.31c.12-.12.27-.25.45-.4a.8.8,0,0,1-.36.09Zm.27,12.65a.68.68,0,0,0-.18.13l-.13.14A2.18,2.18,0,0,0,51.09,16.28Zm-.27,3.44L55,16.37a1.4,1.4,0,0,0-.32.22A31.48,31.48,0,0,0,50.82,19.72Zm4.94-8.43,2-1.81Q55.12,11.61,51.91,14l-.73.72A27.24,27.24,0,0,0,55.76,11.29Zm.73-8.66L55,4.17Q53.86,5.4,51.41,7.84l-.09.09a73.24,73.24,0,0,0,5.62-4.8l0-.27a2.27,2.27,0,0,0-.14-.5Zm-4.63,20.9c.12-.15.31-.36.55-.64a2.35,2.35,0,0,1-1,.5c.09.09.2.18.32.28Zm.77-22.31a16.73,16.73,0,0,0-1.17,1.41c.21-.21.54-.56,1-1,.25-.24.44-.44.59-.59l-.31.09A.13.13,0,0,1,52.63,1.22Zm8.66.14L60,2.63c-.93.91-2.25,2.12-3.94,3.63q-2,1.86-4.49,4A70.63,70.63,0,0,0,57.08,5.8C58.77,4.32,60.55,2.71,62.43,1a3.91,3.91,0,0,0-.86.09A2.7,2.7,0,0,0,61.29,1.36ZM57,19.58a6.49,6.49,0,0,1,0-.72c-2,2.06-3.46,3.57-4.3,4.53l.9-.77c.52-.45,1.26-1.15,2.22-2.08A5.23,5.23,0,0,1,57,19.58ZM52.77,24a0,0,0,0,1,0,0A0,0,0,0,0,52.77,24Zm1-23c-.21.18-.53.5-1,1l-.09.1C53.22,1.66,53.57,1.31,53.81,1Zm.28,23a1.42,1.42,0,0,1,.22-.18,1.84,1.84,0,0,0-.27.23h.05Zm3.12-12.74a1.49,1.49,0,0,1,0-.36l-1.18.91c-.15.15-.35.33-.59.54A6.69,6.69,0,0,1,57.21,11.33ZM57,18v0l-.36.36A4.39,4.39,0,0,0,57,18Zm-.13,2.68c0-.06,0-.09,0-.09l-.23.22s0,0,0,0A.81.81,0,0,1,56.9,20.72Zm.59-17.23a.42.42,0,0,0-.14.09L59.93,1.5a7.44,7.44,0,0,0-.72.31.14.14,0,0,1-.05.09,4.42,4.42,0,0,1-.41.37C58.48,2.54,58.06,3,57.49,3.49Zm3.58,0c-.49.39-1,.82-1.54,1.27l.81-.59C60.58,3.93,60.83,3.7,61.07,3.49Zm-.18,2.68c.9-.79,1.67-1.48,2.31-2.09a17.54,17.54,0,0,0,1.54-1.63q-2,2-4,3.81A.26.26,0,0,0,60.89,6.17Zm.68,1.22a1.93,1.93,0,0,1,.36-.45l-.64.5a.41.41,0,0,1,.19-.05Zm1.36-6.12c-.16.15-.32.3-.5.45a2.32,2.32,0,0,1,.36-.22A2.38,2.38,0,0,0,62.93,1.27ZM62.7,7.89A1.84,1.84,0,0,1,63,7.66c.18-.18.47-.45.86-.81a35.36,35.36,0,0,1,3-2.72l.41-.5L65.69,5c-1.6,1.45-2.64,2.34-3.13,2.68A.73.73,0,0,0,62.7,7.89Zm1.45-2.27L62.93,6.71C63.26,6.44,63.67,6.07,64.15,5.62Zm-.91-3.76a4.86,4.86,0,0,0-.27.41c.39-.34.7-.59.91-.77C63.7,1.59,63.49,1.71,63.24,1.86ZM63.06,9a.41.41,0,0,1,0,.18c.33-.3,1-.84,1.86-1.63s1.43-1.19,1.76-1.5Zm.23-3.94a.56.56,0,0,0-.14.09l0,0ZM63.2,21v.18a5.35,5.35,0,0,0,1.27-.91c.18-.18.39-.38.63-.59A6.87,6.87,0,0,1,63.2,21ZM65,9c-.82.66-1.39,1.11-1.73,1.36l0,.09v.18Zm-1.09,2.26a2.55,2.55,0,0,1-.55.32.26.26,0,0,0,.05.18Zm-.55,10.61a.14.14,0,0,0,.05-.09l-.05,0Zm.05-3.76v.41a.27.27,0,0,1,.14-.14c.39-.36,1.13-1,2.22-1.9,1.33-1.09,2.25-1.88,2.76-2.36.76-.7,1.14-1.16,1.14-1.41-.4-.06-1.47.73-3.22,2.36Zm0-4.85.46-.36-.32.22a.18.18,0,0,1-.14.05Zm0,3.35v.59c.76-.78,1.47-1.51,2.13-2.17a5.06,5.06,0,0,0,.41-.37l2-2Q66.05,14.24,63.47,16.59Zm0-2.26c.27-.34.65-.74,1.13-1.23L63.47,14Zm.14,1.17a.12.12,0,0,1-.09.05v.09A.68.68,0,0,0,63.61,15.5Zm.22,7.3a1.65,1.65,0,0,1,.09-.22.69.69,0,0,1-.22,0A.68.68,0,0,0,63.83,22.8Zm2-10.11a3.29,3.29,0,0,0,.46-.45c-.43.39-.79.74-1.09,1-.61.61-1,1.08-1.32,1.41C64.26,14.39,64.91,13.72,65.87,12.69Zm-2,9.3A8.9,8.9,0,0,0,65.19,21c.49-.43,1.26-1.15,2.31-2.18a23.24,23.24,0,0,1,2-1.86v-.14a29.8,29.8,0,0,1-2.49,2.23C66,20,65.21,20.63,64.79,21A6.1,6.1,0,0,0,63.92,22Zm5.72-7.17a.3.3,0,0,1,0-.13V14.6c-.21.18-.54.45-1,.81q-2.49,2-3.67,3.09l-.81.72q.85-.67,2.76-2.13a6.32,6.32,0,0,0,.64-.5,1.42,1.42,0,0,0,.22-.18A9.46,9.46,0,0,1,69.64,14.82Zm-5,8.62a.62.62,0,0,1,.19-.14,1.14,1.14,0,0,1-.37.09.32.32,0,0,0,.14.14A.12.12,0,0,1,64.6,23.44Zm5-5.4-.14.14L67.6,19.86Q65,22.17,64.47,22.8a14.45,14.45,0,0,0,2.85-2.26c.73-.7,1.48-1.45,2.27-2.27ZM65.6,24l2.72-3.08C67.75,21.44,67,22.14,66,23c-.45.39-.76.66-.91.81A1.43,1.43,0,0,0,65.6,24Zm.77-21.53a7.54,7.54,0,0,1-.54.59l.63-.55A.12.12,0,0,1,66.37,2.45Zm3,5.17c-1,.78-2,1.55-2.86,2.31ZM67.32,23.94a7.11,7.11,0,0,1,.77-1.14l-.09.09a.14.14,0,0,1-.09.05c-.57.51-1,.89-1.36,1.13A1.76,1.76,0,0,0,67.1,24,.69.69,0,0,0,67.32,23.94ZM67.05,3,67,3.13a.14.14,0,0,1,.09,0Zm1.36,2A4.54,4.54,0,0,1,67.32,6.3c.37-.33.73-.65,1.09-1a.41.41,0,0,1,.18,0A2.84,2.84,0,0,0,68.41,5Zm.41.81a2,2,0,0,1-.18.27,7.2,7.2,0,0,1-.64.68c-.18.22-.39.44-.63.69.78-.73,1.3-1.2,1.54-1.41A1.85,1.85,0,0,0,68.82,5.8Zm.77,15a3.29,3.29,0,0,0,0-.54l-1.73,1.94,1.68-1.36Zm-.36-14,0,0v0l-.36.32Zm.45,2.31c-.18.18-.44.42-.77.72a1.2,1.2,0,0,1,.59-.22.53.53,0,0,1,.23,0A2.76,2.76,0,0,0,69.68,9.16Zm-.63,13.46a1,1,0,0,0,.18-.36,1.26,1.26,0,0,1-.14.18,2,2,0,0,0-.13.23A.14.14,0,0,1,69.05,22.62Zm0-11.47a3.61,3.61,0,0,1,.77-.5v-.11a.15.15,0,0,0,0-.11A7.05,7.05,0,0,0,69,11.15Zm.18-2.49.41-.32,0,0Zm.55,3.49V11.7l-.5.5a.6.6,0,0,1,.41,0Zm0,1.63v-.09a2,2,0,0,1-.36.36,2,2,0,0,0,.27-.18l0,0Z"/><path class="a" d="M92.21,10.47l.18.09a.31.31,0,0,1,0,.41l-.23.18a38.43,38.43,0,0,1-.68,4.08c.15.18.08.46-.23.82-.09.24-.16.47-.22.68A.3.3,0,0,1,91,17a1.52,1.52,0,0,1-.36.81A12.93,12.93,0,0,1,87,23.12a6.18,6.18,0,0,1-1.54,1.13c-.15.16-.29.22-.41.19a6.57,6.57,0,0,1-1,.36,1.25,1.25,0,0,1-.55.23.48.48,0,0,1-.22-.05c-.31,0-.61.05-.91.05A6.84,6.84,0,0,1,78,23.39c-.4-.33-.76-.66-1.09-1a.19.19,0,0,1-.18,0,.26.26,0,0,1-.18-.09.6.6,0,0,1-.09-.46,9.48,9.48,0,0,1-1.14-1.58.29.29,0,0,1-.13-.14.21.21,0,0,1,0-.23.12.12,0,0,0,0-.09.41.41,0,0,1-.23-.18.37.37,0,0,1-.09-.27.2.2,0,0,1,0-.14s0,0,0,0v-.09a.56.56,0,0,1-.14-.09.5.5,0,0,1,0-.37c-.06-.15-.12-.31-.18-.5a.2.2,0,0,1-.14.05.18.18,0,0,1-.18-.14.42.42,0,0,1-.14-.4.2.2,0,0,1,0-.14.56.56,0,0,1-.14-.09c-.12-.12-.07-.3.14-.55,0,0,0,0,0,0a4.56,4.56,0,0,1-.13-.68.59.59,0,0,1-.23-.14.25.25,0,0,1,0-.4l.09-.1-.09-.72a.53.53,0,0,1-.23-.14c-.12-.15-.08-.36.13-.63-.09-.67-.15-1.33-.18-2a.18.18,0,0,1-.18-.09c-.15-.18-.1-.45.14-.81,0-.52-.05-1-.05-1.5a.51.51,0,0,1,0-.36.39.39,0,0,1,0-.18l0-.05a.49.49,0,0,1,0-.59c0-.42,0-.84.05-1.27a.39.39,0,0,1,0-.18,26.7,26.7,0,0,1,.41-3l.05-.05A.58.58,0,0,1,74,3.49a7.31,7.31,0,0,1,.59-1.31A3.73,3.73,0,0,1,75.89,1a1.11,1.11,0,0,1,.27-.13A3.3,3.3,0,0,1,77.61.5H78a.78.78,0,0,1,.34-.14.28.28,0,0,1,.2.09l.09.18L79,.77l.18.09h.14a.26.26,0,0,1,.18.09.26.26,0,0,1,.09.14A3.41,3.41,0,0,1,81,2.9V3a4.09,4.09,0,0,1,.14,1.31l0,0q.13.18-.09.45a.39.39,0,0,0,0,.14,11.27,11.27,0,0,0-.27,2.17.14.14,0,0,1,.05.09c.15.18.12.43-.09.73a7.32,7.32,0,0,0,0,.81l.05.05c.12.15.1.35-.05.59,0,.27.06.56.09.86a.47.47,0,0,1,0,.45l.09.91a.18.18,0,0,1,.09.18A.21.21,0,0,1,81,12a.26.26,0,0,0,0,.18.73.73,0,0,1,.18.14q.18.23-.09.63c0,.24.06.53.09.86l.05.05c.06.48.1.83.13,1l.14.14a.39.39,0,0,1,0,.18.18.18,0,0,1-.09.18,3.46,3.46,0,0,0,.91,1.81l.23.09.09-.09.22-.09A6.15,6.15,0,0,0,83.87,15l-.09-.09a.24.24,0,0,1,0-.36l.11-.12a.17.17,0,0,1,.11-.06c.18-.73.35-1.53.5-2.41a.86.86,0,0,0,0-.27s0,0,0,0-.06-.28.09-.46a.14.14,0,0,1,0-.09c.12-.81.22-1.61.31-2.4a1,1,0,0,1,0-.32.56.56,0,0,1,0-.23,2,2,0,0,0,0-.36.56.56,0,0,1-.14-.09c-.12-.15-.07-.36.14-.63V6.3a.21.21,0,0,1,0-.23.14.14,0,0,1,0-.09,4.47,4.47,0,0,0-.14-.81,4.49,4.49,0,0,1,0-.64.68.68,0,0,1-.18-.13c-.15-.18-.08-.49.22-.91a3.07,3.07,0,0,1,.32-.91.24.24,0,0,1,0-.31l0,0,.18-.13A3.52,3.52,0,0,1,86.73,1c.3-.24.52-.35.68-.32h.09a.39.39,0,0,0,.18,0A4.86,4.86,0,0,1,88.63.5h.18a.61.61,0,0,1,.36-.14.68.68,0,0,1,.32.18v0a3.35,3.35,0,0,1,.77.27.56.56,0,0,1,.32-.13.32.32,0,0,1,.23.09.56.56,0,0,1,.09.45,4.46,4.46,0,0,1,.68.63A.26.26,0,0,1,92,2a.26.26,0,0,1,0,.41l0,0a4.44,4.44,0,0,1,.4,1.09,23.9,23.9,0,0,1,0,6.12.3.3,0,0,1,0,.23A4.46,4.46,0,0,0,92.21,10.47ZM74,7.3a1.49,1.49,0,0,1,0,.36q.82-.9,3.49-3.44c.85-.79,1.41-1.33,1.68-1.64a16.07,16.07,0,0,0-2.63,2.13C75.67,5.53,74.83,6.39,74,7.3Zm.13,1.54a1.19,1.19,0,0,0-.18.32c.46-.33,1.33-1.05,2.63-2.13a2.21,2.21,0,0,0,.32-.28q1.59-1.39,3.49-3a.56.56,0,0,1,.14-.09V3.49l-.1,0-2.31,2Q74.85,8.3,74.12,8.84Zm-.18,2.45a64.17,64.17,0,0,0,6.3-5.35V5.89c0-.18.06-.34.09-.49l-.81.67c-1.66,1.46-2.89,2.54-3.67,3.27A14.71,14.71,0,0,0,73.94,11.29Zm.09.91s0-.07.09-.1.3-.36.55-.63a4.33,4.33,0,0,1-.68.45A1,1,0,0,0,74,12.2Zm.09-6.35a.84.84,0,0,1,0,.27l.41-.41A.86.86,0,0,1,74.12,5.85Zm0,7a3.52,3.52,0,0,0,0,.58l.18-.18c.37-.36,1.08-1,2.14-1.95a39.59,39.59,0,0,0,3.71-3.58V7.62a10.28,10.28,0,0,0-2.22,1.67q-1.17,1.05-3.08,3C74.42,12.68,74.17,12.88,74.08,12.88Zm.22,2.17q2.33-2,4-3.72l-.72.59a35.94,35.94,0,0,1-3.31,2.68A2.28,2.28,0,0,0,74.3,15.05Zm.14-10.92a4.29,4.29,0,0,0-.14.68l1.64-1.5A17,17,0,0,0,77.61,1.5C76.83,2.13,75.77,3,74.44,4.13Zm.09,12.24a15.85,15.85,0,0,1,1.32-1.27,54.48,54.48,0,0,0,4.3-4.36,12,12,0,0,0-1,.78c-.46.39-1.2,1.1-2.23,2.13A25.23,25.23,0,0,1,74.44,16C74.47,16.08,74.5,16.22,74.53,16.37ZM74.94,18a37.44,37.44,0,0,1,2.86-2.67L79,14.28q-1.77,1.46-4.13,3.49A.86.86,0,0,0,74.94,18Zm5.21-9.15V8.61q-.81.87-3.35,3.13c-.61.55-1,.95-1.32,1.23Q77.43,11.38,80.15,8.89ZM76.66,1.22a1.7,1.7,0,0,1-.36.64l.91-.77A3.39,3.39,0,0,0,76.66,1.22Zm0,20.09A19.69,19.69,0,0,1,80,18l-1.22,1c-.7.67-1.42,1.38-2.18,2.13Zm4-7.48a1,1,0,0,1,0-.32c-.39.39-1.22,1.15-2.49,2.27-.39.36-.7.63-.91.81l.46-.36c1-.85,1.9-1.63,2.81-2.36A.39.39,0,0,1,80.7,13.83ZM79.38,3.13,77.8,4.67a3.26,3.26,0,0,0-.5.5c.84-.67,1.77-1.36,2.76-2.09a1,1,0,0,0,.27-.18,2.27,2.27,0,0,0-.27-.54A4.66,4.66,0,0,1,79.38,3.13Zm-1.95,19L78,21.4l.68-.68c-.45.42-.92.84-1.4,1.27ZM78.52,1.18a5.89,5.89,0,0,1-.81,1.13c.33-.33.67-.68,1-1Zm.09,21.13-.13.27a5.1,5.1,0,0,0,.68-.37q.45-.5,1.17-1.17Zm2.86-4.95-1.09,1.05c-.85.75-1.47,1.31-1.86,1.67l.59-.5a23.16,23.16,0,0,1,2.72-2.17,1.54,1.54,0,0,0-.18-.23ZM79.79,16a4.77,4.77,0,0,0,.68-.73c-.3.25-.77.68-1.4,1.32C79.28,16.37,79.52,16.17,79.79,16ZM91.26,13.1l.09-.45q-.27.27-.81.72l-4.86,4.36a74,74,0,0,1-6.16,4.94,2.74,2.74,0,0,0-.41.5q1.32-.83,7.93-6.58C89.61,14.39,91,13.22,91.26,13.1ZM80.38,11.38,79.25,12.6c.39-.3.78-.59,1.17-.86A1.47,1.47,0,0,1,80.38,11.38Zm-.95-9.7a2.43,2.43,0,0,1-.14.22,1.33,1.33,0,0,1,.32,0Zm.5,21.62-.55.37.09,0C79.53,23.65,79.68,23.51,79.93,23.3ZM79.75,7.21a1.51,1.51,0,0,1,.4-.18V6.75A4.25,4.25,0,0,1,79.75,7.21ZM81,15.78l-.9.63a2.18,2.18,0,0,1-.27.32c.6-.51,1-.76,1.22-.73A.48.48,0,0,1,81,15.78Zm-.18,8.47.28-.27a4.37,4.37,0,0,1,.68-.63h0c-.36.3-.71.6-1,.9Zm9.3-6.93.18-.36q-1.23,1.13-4.94,4.17c-1.61,1.3-2.68,2.19-3.22,2.67l-.59.59.63.09.59-.5c1.91-1.51,3.43-2.78,4.58-3.81a20.21,20.21,0,0,0,2.72-2.67l0-.14Zm-7.71.59-.23.22Zm9.16-7.08a2.28,2.28,0,0,0,0-.45l-7.7,6.21a.14.14,0,0,1-.09.05l-.1.22c.43-.36.87-.71,1.32-1Q88.08,13.42,91.58,10.83Zm-7.08,4a3.71,3.71,0,0,0-.13.41l.36-.36,2.77-2.72c.54-.54,1.13-1.12,1.77-1.72-.31.27-.61.56-.91.86l-1.54,1.36A25.72,25.72,0,0,1,84.5,14.82Zm.41-1.67a2.44,2.44,0,0,1-.13.5l1.63-1.41s0,0,0,0a34.49,34.49,0,0,1,4.08-3.72,3,3,0,0,1,.27-.32q-2.13,1.68-5.72,4.94A.41.41,0,0,1,84.91,13.15Zm1.14,9.16c.06-.06.1-.1.13-.1l-.22.14c-.43.39-.79.74-1.09,1A15.72,15.72,0,0,0,86.05,22.31ZM85.14,12a.37.37,0,0,0,0,.23,1.45,1.45,0,0,1,.28-.27L87,10.34c1.3-1.24,2.25-2.18,2.86-2.81q-2,1.62-4.67,3.89C85.2,11.64,85.17,11.83,85.14,12Zm.23-1.63.31-.34.37-.38a1.21,1.21,0,0,1-.55.18h0Zm.31-4.94h-.13a.12.12,0,0,0,0,.09Zm-.13,3.45V9l.22-.23Zm1-6.53c-.45.51-.79.9-1,1.18.28-.25.68-.65,1.23-1.23L88,1.13l-.19,0-.22.06A9.57,9.57,0,0,1,86.59,2.36Zm4.85.45Q90,4,88.86,5T86.73,6.8a7.5,7.5,0,0,0-1.14,1.41,70.83,70.83,0,0,0,5.94-5,.14.14,0,0,1,.09-.05Zm-5.8,3.45v.18l.09-.09a7.12,7.12,0,0,1,.73-.73c-.25.18-.49.35-.73.5A.56.56,0,0,1,85.64,6.26Zm3.58-5.13c-.6.55-1.16,1.09-1.68,1.64a11.52,11.52,0,0,0-1.63,1.9c.45-.33,1.39-1.15,2.81-2.45.49-.45.83-.77,1-1A3.58,3.58,0,0,0,89.22,1.13Zm2.49,8.44a5.84,5.84,0,0,1,.05-.73l-4.49,4.31ZM88.86,20.13c.09-.15.18-.32.27-.5-.21.18-.42.38-.63.59a.56.56,0,0,1,.31-.14Zm-.09-6.08c.57-.48,1-.86,1.36-1.13l1-.86C90.29,12.72,89.52,13.39,88.77,14.05ZM90,3c-.27.27-.65.64-1.13,1.09.69-.6,1.45-1.21,2.26-1.81L90.85,2A4.64,4.64,0,0,1,90,3Zm1.86,1.68-2.95,3c1.7-1.39,2.68-2.16,2.95-2.32ZM89,16.55l.95-.77c-.24.18-.48.34-.72.5A1.38,1.38,0,0,0,89,16.55Zm1.77-1.32s0,0,0,0a4.86,4.86,0,0,0-.41.27Zm1-8.43V6.35c-.24.27-.62.66-1.13,1.18A4.28,4.28,0,0,1,91.85,6.8Zm0,1.31V8l-.09.09A.18.18,0,0,1,91.8,8.11Z"/></svg>