<svg xmlns="http://www.w3.org/2000/svg" viewBox="0 0 30 24"><defs><style>.a{fill:#29abe2;}</style></defs><path class="a" d="M8.14,11.52l.06,0a.17.17,0,0,1,0,.1.47.47,0,0,1-.09.17V12s0,0,0,0a.07.07,0,0,1,0,.1l0,0v.55a0,0,0,0,1,0,0s0,.07,0,.1h0V13l0,0a.21.21,0,0,1,0,.12.28.28,0,0,1-.06.14s0,.05,0,.08a2.44,2.44,0,0,0,0,.28l.05,0c.06.07,0,.17-.05.3a.44.44,0,0,1,0,.1h0s0,.07,0,.12v0h0a1.28,1.28,0,0,1,0,.34.69.69,0,0,1-.08.28.09.09,0,0,1,0,.09H8a1,1,0,0,1-.59.51h0a.78.78,0,0,1-.22,0H6.85a0,0,0,0,1,0,0l-.21-.05a.12.12,0,0,1-.08,0l-.07,0a.06.06,0,0,1,0-.07,1.12,1.12,0,0,1-.2-.17,5,5,0,0,1-1.34.23H4.78a3.1,3.1,0,0,1-.54-.05H4.15a.13.13,0,0,1-.09,0h0a2.31,2.31,0,0,1-.83-.41l-.09,0-.06,0a.11.11,0,0,1,0-.08.15.15,0,0,1,0-.06L3,14.66l-.15-.17,0,0a.07.07,0,0,1,0-.06c-.06-.09-.12-.18-.17-.27l0,0a.06.06,0,0,1,0-.08,3.27,3.27,0,0,1-.14-.33.07.07,0,0,1-.06,0s0-.08,0-.11h0a.93.93,0,0,1,0-.13.13.13,0,0,1-.07-.05s0-.11,0-.2A5.69,5.69,0,0,1,2.13,12a.1.1,0,0,1,0-.05s0,0,0-.05a.14.14,0,0,1,0-.06l.07,0a4.36,4.36,0,0,1,.2-.81h0a.07.07,0,0,1,0-.06.09.09,0,0,1,0-.06h0l.1-.24c0-.08,0-.22.27-.43A2,2,0,0,1,3,9.87a.05.05,0,0,1,0,0h0a4.44,4.44,0,0,1,.81-.7L4.08,9l0,0a.06.06,0,0,1,.06,0,2.93,2.93,0,0,1,.67-.22.49.49,0,0,1,.24-.11l.1.05h.26l.11,0a.12.12,0,0,1,.1,0,1.17,1.17,0,0,1,.27.05H6s0,0,0,0a0,0,0,0,1,0,0l.14.05.07,0,.07,0a1.32,1.32,0,0,1,.64-.26.2.2,0,0,1,.11,0h.11a1.06,1.06,0,0,1,.31,0A1,1,0,0,1,8,9l0,0a.12.12,0,0,1,0,.09,1.08,1.08,0,0,1,.07.31l0,0s0,.1,0,.16,0,.15,0,.23a.05.05,0,0,1,0,0c.06.06,0,.15,0,.28v.17a.11.11,0,0,1,0,.11c0,.27,0,.53,0,.76a.09.09,0,0,1,.06,0c0,.05,0,.08,0,.12h0Zm-4-.23.23-.17a1.66,1.66,0,0,1,.33-.25,4.26,4.26,0,0,1,.38-.32l.13-.06h0a.09.09,0,0,1,.07,0C6.4,9.62,7,9.08,7,8.83a.08.08,0,0,0,0-.08.9.9,0,0,0-.51.36l0,.06-.07-.05,0,0A2.14,2.14,0,0,1,6,9.47c-.18.16-.37.32-.58.48l-.89.67c-.23.16-.4.28-.51.37L3,12c-.39.39-.61.6-.65.63v0A12.11,12.11,0,0,1,4.12,11.29Zm-1.79.77v0l.21-.15L2.36,12Zm0-.55a.36.36,0,0,0,0,.11l.16-.14-.11,0Zm.57.33a2.88,2.88,0,0,0-.56.55l.47-.47ZM2.4,13.19v0A2.42,2.42,0,0,0,2.74,13c.14-.12.38-.35.72-.67a6.12,6.12,0,0,1,.83-.75.58.58,0,0,1,.06-.17l-.19.15L4,11.7c-.62.58-1,1-1.24,1.11A2.38,2.38,0,0,0,2.4,13.19Zm.77-1a2.68,2.68,0,0,1-.23.17,3,3,0,0,0-.52.47.82.82,0,0,0,.2-.14Zm-.74,1.2,0,0,.1-.1ZM4.07,9.82c-.9.83-1.44,1.33-1.6,1.51A2.83,2.83,0,0,0,2.93,11c.18-.17.51-.49,1-1l.46-.46C4.26,9.64,4.17,9.73,4.07,9.82Zm-1.58,2a3.85,3.85,0,0,0,.83-.58L3.58,11c.52-.51.92-.89,1.2-1.15l-.15.11c-.2.19-.44.39-.71.62l-1.22,1C2.62,11.62,2.54,11.71,2.49,11.78Zm0-.81s0,.07,0,.12a1.53,1.53,0,0,1,.22-.23A.48.48,0,0,1,2.52,11Zm0,2.72c.27-.25.54-.48.78-.69l.47-.39a1.31,1.31,0,0,0,.33-.42,2.24,2.24,0,0,0-.56.41c-.19.17-.47.42-.82.77l-.23.23A.46.46,0,0,1,2.54,13.69Zm.08.21.69-.59.15-.13.6-.57-.15.11c-.14.14-.31.29-.51.47l-.8.65Zm.11-3.36,0,.08L3,10.36c.13-.11.3-.27.52-.49Zm.78,2.87c-.45.4-.69.66-.7.78s.13-.06.26-.15L3.14,14a8.91,8.91,0,0,1,.79-.71c.1-.11.2-.22.31-.32l0-.11C4,13,3.72,13.22,3.51,13.41ZM3,14.49q0-.16.48-.6l0,0-.22.18-.14.14-.15.15Zm.16.13s0,0,0,0Zm.22-.41-.15.16L3.64,14l0,0A3.33,3.33,0,0,0,3.4,14.21Zm.07.67h0c.37-.39.68-.74,1-1l-.51.46c-.28.26-.47.43-.56.5Zm1.1-1.5h0a1.17,1.17,0,0,0-.26.21,6.68,6.68,0,0,0-.52.5l-.21.21.14-.12c.3-.24.5-.4.61-.51A1.19,1.19,0,0,0,4.57,13.38Zm-.7,1.56a12.68,12.68,0,0,0,1.34-1.35H5.15a9.85,9.85,0,0,0-1.49,1.33L3.61,15l.16.07,0,0ZM5,9.15c-.2.18-.53.5-1,1l-.27.27.79-.6a7.83,7.83,0,0,0,1-1H5.45A2.32,2.32,0,0,0,5,9.15ZM4,9.31H4l.34-.26-.1,0-.15.14Zm.07,5.83,0-.08L4,15.12Zm.15-3.23-.14.14a.2.2,0,0,1,.1,0h0A.59.59,0,0,1,4.2,11.91Zm.71,2.75c.26-.22.71-.62,1.34-1.2l.41-.37c-.1.08-.23.17-.37.29q-1.07.82-1.47,1.17a3,3,0,0,0-.62.63h0A3.68,3.68,0,0,0,4.91,14.66Zm.89-2s0-.14.06-.26,0-.67,0-1.21c0-.25,0-.4,0-.46s0,0-.05-.08h0s-.06,0-.07,0h0a.66.66,0,0,0-.27-.06h0a.27.27,0,0,1-.14,0l-.56.4a1.92,1.92,0,0,0-.29.5s0,0,0,0,0,.06,0,.1l0,.05a3.05,3.05,0,0,0-.08.54.1.1,0,0,1,.07,0c0,.05,0,.13-.07.24a1.21,1.21,0,0,0,.07.36h0a.11.11,0,0,1,0,.09l0,0,0,0a.08.08,0,0,1,0,0l.09.08h0a.1.1,0,0,1,.1.06.05.05,0,0,1,0,.05l.1,0h0a.12.12,0,0,1,.08,0l.15,0h0a.51.51,0,0,1,.17-.05.13.13,0,0,1,.1,0,.58.58,0,0,0,.3-.18.06.06,0,0,1,0-.06l.08-.07v0a.34.34,0,0,0,0-.11s0,0,0,0a.11.11,0,0,1,0-.11.2.2,0,0,1,0-.13ZM4.57,15.25l1.21-1.13q-1,.87-1.32,1.11ZM8,11.62v-.18a1.92,1.92,0,0,0-.33.26c-.14.12-.39.36-.75.71a7,7,0,0,1-1.06.9.8.8,0,0,1-.45.26,1.06,1.06,0,0,1-.14.21q-.13.17-.42.45l-.36.36q1-.81,3.46-2.93Zm-3.06,3.6.67-.61-.78.64h.09Zm0-1.67v0l0,0,0,0A.1.1,0,0,1,4.92,13.55ZM6.14,9.12q-.4.3-1,.81a1.42,1.42,0,0,0-.13.12q.44-.32.69-.54C5.9,9.35,6,9.22,6.14,9.12ZM5.08,8.87s0,0,0,0l.08-.06h0Zm.74.29a3.5,3.5,0,0,0-.44.35l-.14.13C5.45,9.46,5.64,9.29,5.82,9.16Zm-.47,6.05L6.66,14l-.26.22-.74.67-.41.34Zm.33-6.37A.58.58,0,0,1,5.55,9l.23-.16Zm0,6.28c.4-.28.81-.58,1.2-.9L7,14.13c.18-.17.44-.39.76-.67h0v0l0,0,.06-.06L5.66,15.16h0S5.7,15.13,5.72,15.12Zm.1-4.73a3.06,3.06,0,0,0,.3-.23l.66-.63-.21.19c-.27.25-.5.45-.69.61A.17.17,0,0,0,5.82,10.39ZM6,12.9H6l1.35-1.25c-.21.18-.53.48-1,.87Zm0-.65.5-.49-.45.39H6A.29.29,0,0,0,6,12.25ZM6,12l.86-.78.51-.44A4.44,4.44,0,0,0,8,10.16l-.73.65a6.69,6.69,0,0,1-1.19,1Zm0-.53.15-.17a.26.26,0,0,1-.15.06Zm1.63-2L7,10l0,0-.91.77v.05l.38-.32L7,10.09A8.87,8.87,0,0,0,7.68,9.4ZM6.14,11.11A19.41,19.41,0,0,0,8,9.57V9.49c-.06.06-.25.21-.57.47l-.9.75A2.1,2.1,0,0,0,6.14,11.11Zm1-.42A10.37,10.37,0,0,1,8,10V9.81l-.44.4-1,.9c-.18.17-.31.31-.4.41C6.34,11.4,6.65,11.12,7.13,10.69ZM6.3,15l0-.09-.1.07,0,0ZM8,12.49v-.21L6.31,13.83l1.63-1.31ZM6.43,8.92l0,0h0ZM8,10.82v-.18l0,0-.47.43c-.47.42-.81.74-1,.94a.05.05,0,0,1,0,0l.49-.4C7.26,11.38,7.62,11.1,8,10.82ZM8,13.9c-.3.23-.8.65-1.5,1.27l.08.05a.17.17,0,0,1,.06-.06L7,14.83l.73-.65A2.68,2.68,0,0,0,8,13.9Zm0-.19v-.19a6.6,6.6,0,0,1-.73.67l-.15.13L7,14.41l-.4.42.56-.48C7.55,14,7.82,13.81,8,13.71Zm-1,1.52.28-.29.24-.24-.28.24-.4.36h.08Zm.6-.21c.14-.18.25-.31.31-.4a6.3,6.3,0,0,0-.77.72h0l.18,0s0,0,.05-.07A2.16,2.16,0,0,1,7.51,15ZM7.14,9.49,7.72,9h0ZM8,13.09,8,13l-.84.77ZM7.18,8.84a.25.25,0,0,1,0,.07l.17-.16H7.16A.36.36,0,0,1,7.18,8.84Zm.33,0-.35.34a3.06,3.06,0,0,1,.39-.33ZM8,14.4v0s0,0,0,0Z"/><path class="a" d="M15,13.53c0,.06,0,.14,0,.25a4.33,4.33,0,0,1,0,.62,1,1,0,0,1-.62.91.24.24,0,0,1-.12,0h-.09a.83.83,0,0,1-.22,0h-.16l-.05,0h0a.07.07,0,0,1-.05,0h0a1,1,0,0,1-.21-.08h0a.08.08,0,0,1-.07,0,.09.09,0,0,1,0,0,1.58,1.58,0,0,1-.15-.12,1,1,0,0,1-.27-.5l0,0a.17.17,0,0,1,0-.13.59.59,0,0,0,0-.08s0,0,0,0,0-.11,0-.2a.62.62,0,0,1,0-.13.11.11,0,0,1,0-.11,1.49,1.49,0,0,0,0-.19v-.09a.08.08,0,0,1,0-.11l0,0c0-.07,0-.15,0-.22s0,0-.05,0,0-.1.06-.18a12.38,12.38,0,0,0,0-1.29l0,0s0-.08,0-.11h0a.71.71,0,0,0,0-.14h0a.06.06,0,0,1-.06,0s0-.13,0-.22a.41.41,0,0,0,0-.11.05.05,0,0,1-.08,0s0-.07,0-.11h0l-.06,0a.07.07,0,0,1,0-.06l0-.06,0,0s0,0,0,0l-.07,0h-.12a1,1,0,0,0-.64.27l-.07.06a1.22,1.22,0,0,0-.33.66v0l0,0c0,.11,0,.25,0,.43l0,0a.1.1,0,0,1,0,.09.49.49,0,0,1-.06.13v.11a.24.24,0,0,1,0,.08s0,.05,0,.06V13a.13.13,0,0,1,.06,0c.05.06,0,.16-.06.29,0,.44,0,.76,0,.95a.16.16,0,0,1,0,.19,1,1,0,0,1,0,.22,1,1,0,0,1-.64.66.48.48,0,0,1-.22.11.07.07,0,0,1-.07,0h-.25a.89.89,0,0,1-.78-.57.1.1,0,0,1,0,0s0-.05,0-.09a1.57,1.57,0,0,1-.08-.31,2.06,2.06,0,0,1,0-.33.17.17,0,0,1,0-.1.13.13,0,0,1,0-.06h0a.14.14,0,0,1,0-.11.46.46,0,0,1,0-.13v-.11h0a.19.19,0,0,1,0-.13.26.26,0,0,1,0-.11v-.38c0-.54,0-1,0-1.37,0-.15,0-.3,0-.47v0s0-.08,0-.14l0-.3,0,0s0,0,0-.09a.49.49,0,0,1,.06-.13,0,0,0,0,0,0,0c0-.06,0-.15.05-.28s0-.35,0-.45a1.23,1.23,0,0,1,.07-.32.91.91,0,0,1,.11-.22s0,0,0-.05h0a1,1,0,0,1,.8-.44.28.28,0,0,1,.15-.08.19.19,0,0,1,.09.05s0,0,0,0l.11,0a.17.17,0,0,1,.12-.05.09.09,0,0,1,.05,0,.11.11,0,0,1,0,.08l.09,0a.79.79,0,0,1,.22.19l0,0a.11.11,0,0,1,0,.08l.06.13a3.17,3.17,0,0,1,.36-.23l.06,0,.05,0a2.86,2.86,0,0,1,.58-.2l.06,0a.07.07,0,0,1,.11,0l.23,0H13a.07.07,0,0,1,.06,0l.05,0,0,0a2.59,2.59,0,0,1,.52.16h0a.09.09,0,0,1,.07,0,.14.14,0,0,1,0,.06l.1.07h.06A.09.09,0,0,1,14,9,.06.06,0,0,1,14,9l.12.1,0,0h0l.09.1h.07a.05.05,0,0,1,.05,0,.11.11,0,0,1,0,.11v0l.06.07a3.51,3.51,0,0,1,.33.6h0a0,0,0,0,1,.05,0,.08.08,0,0,1,0,.11h0c0,.05,0,.1,0,.14a0,0,0,0,1,0,0s0,0,0,.05v0l0,.07h0a.08.08,0,0,1,0,.11l0,.05a.06.06,0,0,1,.06,0s0,.08,0,.15a2.74,2.74,0,0,1,0,.5v.06h0s0,.08,0,.12h0c0,.21,0,.42,0,.63h0l0,0s0,.09,0,.14l0,0c0,.16,0,.3,0,.45A.11.11,0,0,1,15,13v.23h0s0,.08,0,.14v.13Zm-5.63-1.8a1.48,1.48,0,0,0,0,.21,1,1,0,0,1,.24-.27A.39.39,0,0,1,9.36,11.73Zm0,.87.15-.13a.12.12,0,0,1-.1,0H9.35Zm2.37-2c.56-.51,1.15-1.07,1.76-1.67l-.08,0a5.07,5.07,0,0,1-1.1.91c-.19.18-.41.38-.66.59-.51.41-1.19.94-2,1.58l-.17.12a.47.47,0,0,0-.07.17.15.15,0,0,0,0,.07h0C9.65,12.34,10.42,11.76,11.72,10.59Zm-2.35.71a1.48,1.48,0,0,1,0,.21c.76-.67,1.43-1.28,2-1.82L9.42,11.28Zm.06,1.56a.38.38,0,0,0-.07.18L9.45,13l.15-.17A.64.64,0,0,1,9.43,12.86Zm1.86-.75v-.17l-.93.78a9.64,9.64,0,0,0-1,.94,5.29,5.29,0,0,1,.54-.46,2.63,2.63,0,0,0,.29-.26c.36-.34.61-.56.75-.67a.58.58,0,0,1,.28-.16ZM9.42,10.55a1.48,1.48,0,0,1,0,.21l.18-.18.81-.82-.62.5-.31.26Zm0,4v0l.18-.16.13-.13A3.08,3.08,0,0,1,9.42,14.54Zm.05-4.42a.2.2,0,0,0,0,.07v0l.36-.28c.13-.11.34-.3.62-.57l.49-.45-.12-.07c-.25.22-.47.43-.68.63A5.6,5.6,0,0,0,9.47,10.12Zm1.8,3.16v-.09a6.52,6.52,0,0,0-.95.78c-.26.23-.53.49-.82.78a.56.56,0,0,0,.09.17v0c.3-.25.6-.52.9-.8A7,7,0,0,0,11.27,13.28ZM9.54,9.51a.29.29,0,0,0,0,.09l.13-.11a.18.18,0,0,1-.1,0Zm.07,3.54,0,0,0,0A.32.32,0,0,0,9.61,13.05Zm-.07,1,1.16-.94-.09.06A8.22,8.22,0,0,0,9.54,14Zm1.38-2.36.56-.51c-.49.4-1,.82-1.64,1.27l-.2.2A7.56,7.56,0,0,0,10.92,11.66Zm.2-2.42-.4.43c-.22.22-.56.57-1,1l0,0a20.07,20.07,0,0,0,1.57-1.35V9.3c0-.05,0-.1,0-.14ZM9.83,15.08,10,14.9A.62.62,0,0,1,9.7,15l.09.08ZM10,8.84l-.33.4c.06-.06.16-.16.28-.3l.17-.16-.09,0S10.06,8.83,10,8.84Zm2.43,0-.36.36c-.26.25-.63.59-1.1,1L9.75,11.38c.34-.24.85-.66,1.54-1.26.47-.41,1-.86,1.49-1.35a1,1,0,0,0-.24,0ZM11.26,14a1.41,1.41,0,0,1,0-.2q-.84.86-1.2,1.26l.25-.21c.15-.13.35-.32.62-.59A1.86,1.86,0,0,1,11.26,14Zm-1.18,1.24h0Zm.29-6.43a2.33,2.33,0,0,0-.26.27l0,0A2,2,0,0,0,10.37,8.79Zm.08,6.44.06-.05-.07.07h0Zm.87-3.56a.36.36,0,0,1,0-.1l-.33.25s-.1.1-.17.15A2.25,2.25,0,0,1,11.32,11.67Zm-.05,1.88v0l-.1.11Zm0,.75s0,0,0,0l-.07.06v0S11.22,14.3,11.24,14.3Zm.16-4.82,0,0,.72-.58-.2.09V9l-.12.1Zm1,0L12,9.83l.23-.16Zm-.05.74L13,9.64a5.38,5.38,0,0,0,.43-.46c-.38.38-.75.73-1.12,1.07Zm.19.35a.5.5,0,0,1,.1-.13l-.17.14h.07Zm.38-1.72a.86.86,0,0,1-.14.13l.1-.06Zm-.06,1.86.07-.07.25-.23c.42-.4.7-.65.84-.76a.75.75,0,0,0,.12-.14l-.44.4c-.45.4-.74.65-.88.75Zm.4-.64-.34.31C13,10.3,13.13,10.2,13.26,10.07ZM13,9a1,1,0,0,0-.08.11l.26-.21Zm0,2a.11.11,0,0,1,0,.05l.52-.45.5-.42ZM13,9.92l0,0h0Zm0,4.46v0a1.22,1.22,0,0,0,.35-.25l.18-.16a1.82,1.82,0,0,1-.53.35ZM13.49,11l-.48.38v0h0v0Zm-.3.63a.42.42,0,0,1-.15.09s0,0,0,0Zm-.15,3v0h0Zm0-1v.11s0,0,0,0,.31-.28.62-.54.63-.52.77-.66.32-.32.32-.39-.41.2-.9.66Zm0-1.36.13-.1-.09.06,0,0Zm0,.94v.17c.22-.22.41-.43.6-.61l.11-.1.56-.57C14,12.33,13.56,12.7,13.07,13.14Zm0-.63c.08-.1.19-.21.32-.35l-.32.26Zm0,.33h0v0Zm.07,2a.08.08,0,0,1,0-.06h-.06Zm.57-2.83a.49.49,0,0,0,.12-.13l-.3.3c-.17.16-.29.3-.37.39C13.29,12.52,13.48,12.34,13.75,12.05Zm-.55,2.6a2,2,0,0,0,.36-.27c.13-.11.35-.32.64-.6a7.68,7.68,0,0,1,.57-.52v0c-.11.12-.34.32-.69.62l-.64.53A1.56,1.56,0,0,0,13.2,14.65Zm1.6-2a.08.08,0,0,1,0,0v0l-.28.23c-.46.38-.81.67-1,.86l-.23.21.77-.6.18-.14.06-.05A2.4,2.4,0,0,1,14.8,12.65Zm-1.41,2.41,0,0a.2.2,0,0,1-.1,0,.08.08,0,0,0,0,0S13.38,15.06,13.39,15.06Zm1.4-1.51,0,0-.52.46c-.48.44-.78.71-.88.83a4.15,4.15,0,0,0,.8-.64c.2-.19.42-.4.64-.63Zm-1.12,1.66.76-.86-.65.58-.25.23Zm.22-6-.16.17.18-.15Zm.85,1.45c-.29.22-.56.44-.8.65Zm-.59,4.57a2,2,0,0,1,.22-.32l0,0,0,0a4.41,4.41,0,0,1-.38.31.39.39,0,0,0,.15,0Zm-.07-5.85,0,0h0Zm.38.54a1.37,1.37,0,0,1-.31.37,3.88,3.88,0,0,1,.31-.26l0,0A.41.41,0,0,1,14.46,9.89Zm.11.23-.05.08-.18.19-.18.19.44-.39Zm.22,4.2c0-.05,0-.1,0-.15l-.48.54.47-.38Zm-.11-3.91h0l-.1.09Zm.13.65-.21.2a.32.32,0,0,1,.16-.06h.06A.66.66,0,0,0,14.81,11.06Zm-.18,3.77a.19.19,0,0,0,0-.1l0,0,0,.06Zm0-3.21a1.27,1.27,0,0,1,.22-.14v0l0,0Zm.05-.7.12-.09h0Zm.15,1v-.13l-.14.14a.17.17,0,0,1,.12,0Zm0,.45v0l-.1.1.08,0h0Z"/><path class="a" d="M21.74,13.53c0,.06,0,.14,0,.25a3.26,3.26,0,0,1,0,.62,1,1,0,0,1-.62.91.21.21,0,0,1-.11,0h-.09a.91.91,0,0,1-.23,0h-.15l-.05,0h0s-.05,0-.05,0h0l-.2-.08h0a.07.07,0,0,1-.06,0,.09.09,0,0,1,0,0,1.67,1.67,0,0,1-.16-.12,1,1,0,0,1-.26-.5l0,0a.14.14,0,0,1,0-.13l0-.08s0,0,0,0,0-.11,0-.2,0-.08,0-.13a.12.12,0,0,1,0-.11,1.49,1.49,0,0,0,0-.19v-.09a.08.08,0,0,1,0-.11v0a1.64,1.64,0,0,0,0-.22l-.06,0s0-.1.07-.18c0-.34,0-.77,0-1.29t0,0a.08.08,0,0,1,0-.11h0a.78.78,0,0,0,0-.14h0a.05.05,0,0,1-.05,0c-.05,0,0-.13,0-.22s0-.07,0-.11a.05.05,0,0,1-.08,0s0-.07,0-.11h0l-.06,0s0,0,0-.06a.09.09,0,0,1,0-.06l0,0a.05.05,0,0,0,0,0l-.06,0h-.13a.93.93,0,0,0-.63.27l-.08.06a1.22,1.22,0,0,0-.33.66v0a0,0,0,0,1,0,0c0,.11,0,.25,0,.43l0,0a.09.09,0,0,1,0,.09.33.33,0,0,1-.07.13v.11a.13.13,0,0,1,0,.08.33.33,0,0,1,0,.06V13a.12.12,0,0,1,.07,0c.05.06,0,.16-.07.29,0,.44,0,.76,0,.95a.17.17,0,0,1,0,.19c0,.09,0,.16-.05.22a1,1,0,0,1-.65.66.42.42,0,0,1-.21.11.08.08,0,0,1-.08,0h-.24a.9.9,0,0,1-.79-.57l-.05,0a.14.14,0,0,1,0-.09A1.55,1.55,0,0,1,16,14.4a2.23,2.23,0,0,1,0-.33.3.3,0,0,1,0-.1.13.13,0,0,1,0-.06h0a.2.2,0,0,1,0-.11.27.27,0,0,1,0-.13v-.11h0a.15.15,0,0,1,0-.13.19.19,0,0,1,0-.11v-.38c0-.54,0-1,0-1.37,0-.15,0-.3,0-.47a0,0,0,0,0,0,0s0-.08,0-.14,0-.2,0-.3l0,0a.09.09,0,0,1,0-.09.22.22,0,0,1,.06-.13s0,0,0,0,0-.15.05-.28a3.54,3.54,0,0,0,.05-.45,1.25,1.25,0,0,1,.08-.32,1.47,1.47,0,0,1,.1-.22.05.05,0,0,1,0-.05h0a1,1,0,0,1,.8-.44.28.28,0,0,1,.15-.08.26.26,0,0,1,.09.05s0,0,0,0l.11,0a.15.15,0,0,1,.11-.05s.05,0,.05,0a.08.08,0,0,1,0,.08l.09,0a.76.76,0,0,1,.21.19l.05,0a.12.12,0,0,1,0,.08l.06.13.35-.23.07,0,0,0a2.66,2.66,0,0,1,.58-.2l.05,0a.08.08,0,0,1,.12,0l.22,0h.16s0,0,.05,0l.06,0s0,0,0,0a2.4,2.4,0,0,1,.52.16h0a.06.06,0,0,1,.06,0,.09.09,0,0,1,0,.06l.1.07h.05a.09.09,0,0,1,.07,0,.09.09,0,0,1,0,.07l.11.1,0,0h0l.09.1H21s0,0,0,0a.1.1,0,0,1,0,.11v0l0,.07a2.52,2.52,0,0,1,.33.6h0a.05.05,0,0,1,0,0,.08.08,0,0,1,0,.11h0a.58.58,0,0,0,.05.14v0s0,0,0,.05v0a.35.35,0,0,1,0,.07h0a.08.08,0,0,1,0,.11.18.18,0,0,1,0,.05s0,0,.07,0,0,.08,0,.15a4,4,0,0,1,0,.5v.06h0a.09.09,0,0,1,0,.12h0c0,.21,0,.42,0,.63h0l.05,0s0,.09,0,.14l0,0c0,.16,0,.3,0,.45a.2.2,0,0,1,0,.11l0,0v.2h0s0,.08,0,.14v.13Zm-5.64-1.8c0,.07,0,.14,0,.21a1.46,1.46,0,0,1,.24-.27A.38.38,0,0,1,16.1,11.73Zm0,.87.15-.13a.11.11,0,0,1-.1,0h-.05Zm2.37-2c.57-.51,1.16-1.07,1.77-1.67l-.08,0a5.07,5.07,0,0,1-1.1.91l-.66.59c-.51.41-1.19.94-2,1.58l-.17.12a.51.51,0,0,0-.08.17.14.14,0,0,0,0,.07h0C16.4,12.34,17.17,11.76,18.46,10.59Zm-2.34.71a1.49,1.49,0,0,1,0,.21c.77-.67,1.44-1.28,2-1.82l-1.95,1.59Zm.06,1.56a.42.42,0,0,0-.08.18l.09-.06.16-.17A.64.64,0,0,1,16.18,12.86ZM18,12.11v-.17l-.92.78a9,9,0,0,0-1,.94,5.64,5.64,0,0,1,.55-.46c.07,0,.16-.14.29-.26.35-.34.6-.56.74-.67a.64.64,0,0,1,.29-.16Zm-1.86-1.56c0,.07,0,.14,0,.21l.17-.18.81-.82-.62.5-.3.26Zm0,4a0,0,0,0,0,0,0l.18-.16.13-.13Zm0-4.42a.2.2,0,0,0,0,.07v0l.35-.28q.21-.17.63-.57c.28-.27.45-.42.49-.45l-.13-.07c-.24.22-.47.43-.67.63A5.6,5.6,0,0,0,16.22,10.12ZM18,13.28v-.09a6.52,6.52,0,0,0-.95.78c-.26.23-.54.49-.83.78l.09.17,0,0c.3-.25.6-.52.9-.8A8,8,0,0,0,18,13.28ZM16.28,9.51a.28.28,0,0,0,0,.09l.13-.11a.22.22,0,0,1-.11,0Zm.08,3.54a.1.1,0,0,0-.05,0l0,0Zm-.08,1,1.17-.94-.09.06A9.46,9.46,0,0,0,16.28,14Zm1.38-2.36.56-.51c-.49.4-1,.82-1.63,1.27l-.21.2A7.18,7.18,0,0,0,17.66,11.66Zm.21-2.42-.41.43-1,1,0,0A18.35,18.35,0,0,0,18,9.37V9.3a.57.57,0,0,0,0-.14Zm-1.3,5.84.16-.18a.62.62,0,0,1-.28.14.36.36,0,0,0,.09.08Zm.22-6.24a3.66,3.66,0,0,0-.33.4l.28-.3c.07-.06.12-.12.16-.16l-.09,0S16.81,8.83,16.79,8.84Zm2.42,0-.35.36c-.27.25-.63.59-1.11,1L16.5,11.38Q17,11,18,10.12c.48-.41,1-.86,1.5-1.35a.9.9,0,0,0-.24,0ZM18,14a1.41,1.41,0,0,1,0-.2c-.57.57-1,1-1.21,1.26l.26-.21c.14-.13.35-.32.62-.59A1.51,1.51,0,0,1,18,14Zm-1.18,1.24h0Zm.29-6.43a3.31,3.31,0,0,0-.27.27l0,0A3.92,3.92,0,0,0,17.12,8.79Zm.08,6.44.06-.05-.08.07h0Zm.87-3.56a.34.34,0,0,1,0-.1l-.33.25a1.2,1.2,0,0,1-.16.15A2.25,2.25,0,0,1,18.07,11.67ZM18,13.55v0l-.1.11Zm0,.75a0,0,0,0,1,0,0l-.06.06s0,0,0,0S18,14.3,18,14.3Zm.17-4.82,0,0,.72-.58a.88.88,0,0,0-.2.09V9l-.12.1Zm1,0-.43.35L19,9.67A1.8,1.8,0,0,1,19.15,9.48Zm0,.74c.25-.22.47-.41.64-.58a5.75,5.75,0,0,0,.44-.46l-1.12,1.07Zm.19.35a.35.35,0,0,1,.1-.13l-.18.14h.08Zm.38-1.72a.86.86,0,0,1-.14.13l.1-.06Zm-.07,1.86.08-.07.24-.23c.42-.4.71-.65.85-.76l.12-.14-.45.4q-.68.6-.87.75Zm.41-.64-.34.31C19.76,10.3,19.88,10.2,20,10.07ZM19.76,9a1,1,0,0,0-.08.11l.25-.21Zm-.05,2a.43.43,0,0,0,0,.05l.52-.45.49-.42Zm.06-1.1,0,0h0Zm0,4.46v0a1.11,1.11,0,0,0,.36-.25l.18-.16a2,2,0,0,1-.54.35Zm.5-3.37-.48.38v0h0v0Zm-.31.63a.35.35,0,0,1-.15.09.12.12,0,0,0,0,0Zm-.15,3v0h0Zm0-1v.11l0,0c.11-.11.32-.28.62-.54s.63-.52.78-.66.32-.32.32-.39-.42.2-.91.66Zm0-1.36.12-.1-.08.06,0,0Zm0,.94v.17c.21-.22.41-.43.6-.61l.11-.1.56-.57C20.72,12.33,20.3,12.7,19.82,13.14Zm0-.63a4.29,4.29,0,0,1,.32-.35l-.32.26Zm0,.33h0v0S19.85,12.85,19.86,12.84Zm.06,2a.16.16,0,0,1,0-.06h-.07Zm.57-2.83a.53.53,0,0,0,.13-.13l-.31.3a4.91,4.91,0,0,0-.36.39ZM20,14.65a2.56,2.56,0,0,0,.35-.27c.14-.11.35-.32.65-.6a4.89,4.89,0,0,1,.57-.52v0a8.84,8.84,0,0,1-.7.62l-.63.53A1.56,1.56,0,0,0,20,14.65Zm1.6-2a.08.08,0,0,1,0,0v0l-.28.23c-.47.38-.81.67-1,.86l-.23.21.78-.6a1,1,0,0,0,.17-.14l.07-.05A2.15,2.15,0,0,1,21.55,12.65Zm-1.41,2.41a.1.1,0,0,1,.05,0,.22.22,0,0,1-.1,0l0,0A0,0,0,0,1,20.14,15.06Zm1.39-1.51,0,0c-.09.08-.26.24-.52.46-.48.44-.77.71-.87.83a4.15,4.15,0,0,0,.8-.64q.3-.28.63-.63Zm-1.11,1.66.76-.86-.65.58-.25.23Zm.21-6a1,1,0,0,1-.15.17l.18-.15Zm.85,1.45c-.29.22-.55.44-.8.65ZM20.9,15.2a1.78,1.78,0,0,1,.21-.32l0,0,0,0a3.26,3.26,0,0,1-.38.31.39.39,0,0,0,.15,0Zm-.08-5.85,0,0h0Zm.38.54a1.12,1.12,0,0,1-.3.37l.3-.26.05,0A.41.41,0,0,0,21.2,9.89Zm.12.23-.05.08-.18.19-.18.19.43-.39A.64.64,0,0,0,21.32,10.12Zm.21,4.2a.77.77,0,0,0,0-.15l-.49.54.47-.38Zm-.1-3.91h0l-.1.09Zm.13.65-.22.2a.35.35,0,0,1,.17-.06h.06A.66.66,0,0,0,21.56,11.06Zm-.18,3.77a.31.31,0,0,0,.05-.1l0,0,0,.06Zm0-3.21a1,1,0,0,1,.21-.14v0a0,0,0,0,0,0,0A1.26,1.26,0,0,0,21.37,11.62Zm.05-.7.11-.09h0Zm.15,1v-.13l-.14.14a.17.17,0,0,1,.12,0Zm0,.45v0l-.1.1.07,0h0Z"/><path class="a" d="M27.86,11.43l.05,0a.09.09,0,0,1,0,.12l-.07,0a9.65,9.65,0,0,1-.19,1.14c.05.05,0,.13-.06.23s0,.13-.06.19a.06.06,0,0,1,0,.06.48.48,0,0,1-.1.23,3.63,3.63,0,0,1-1,1.5,1.69,1.69,0,0,1-.43.31.14.14,0,0,1-.11.06l-.28.1a.37.37,0,0,1-.15.06h-.32A1.87,1.87,0,0,1,23.88,15l-.31-.28h-.05a.06.06,0,0,1-.05,0,.18.18,0,0,1,0-.13,2.36,2.36,0,0,1-.32-.44l0,0a0,0,0,0,1,0-.06s0,0,0,0A.12.12,0,0,1,23,14a.15.15,0,0,1,0-.08,0,0,0,0,1,0,0s0,0,0,0v0l0,0a.11.11,0,0,1,0-.1.58.58,0,0,1-.05-.14l0,0s0,0-.05,0a.11.11,0,0,1,0-.12.06.06,0,0,1,0,0l0,0s0-.08,0-.15a0,0,0,0,0,0,0,.9.9,0,0,1,0-.19.15.15,0,0,1-.07,0c0-.05,0-.08,0-.12l0,0a1.49,1.49,0,0,1,0-.21.15.15,0,0,1-.07,0s0-.11,0-.18,0-.37-.05-.56a.06.06,0,0,1-.05,0c0-.06,0-.13,0-.23s0-.29,0-.42a.18.18,0,0,1,0-.1.43.43,0,0,1,0-.05v0s0-.09,0-.16,0-.24,0-.36a.11.11,0,0,1,0-.05c0-.3.06-.58.11-.83l0,0a.13.13,0,0,1,0-.12,1.73,1.73,0,0,1,.16-.37,1,1,0,0,1,.35-.34l.08,0a1,1,0,0,1,.41-.09h.1a.16.16,0,0,1,.09,0,.09.09,0,0,1,.06,0l0,0,.11,0,0,0h0s0,0,0,0a0,0,0,0,1,0,0,1,1,0,0,1,.39.51h0a1.16,1.16,0,0,1,0,.37h0s0,.08,0,.13a.08.08,0,0,0,0,0,3.48,3.48,0,0,0-.08.61v0c.05.05,0,.12,0,.21a1.62,1.62,0,0,0,0,.22v0s0,.09,0,.16l0,.24a.15.15,0,0,1,0,.13l0,.25a.08.08,0,0,1,0,0,.08.08,0,0,1,0,.07.07.07,0,0,0,0,.05l.05,0a.14.14,0,0,1,0,.17,2.32,2.32,0,0,0,0,.24v0c0,.13,0,.23,0,.29l0,0a.07.07,0,0,1,0,.05.08.08,0,0,1,0,.05,1,1,0,0,0,.25.51l.06,0,0,0,.06,0a1.74,1.74,0,0,0,.26-.6l0,0a.08.08,0,0,1,0-.1l0,0s0,0,0,0c.05-.21.09-.43.14-.67a.25.25,0,0,0,0-.08h0s0-.08,0-.13v0c0-.22.07-.45.09-.67,0,0,0-.05,0-.09s0,0,0-.06a.58.58,0,0,0,0-.1l0,0s0-.1,0-.17v-.21s0,0,0-.06l0,0a1,1,0,0,0,0-.22,1.09,1.09,0,0,1,0-.18l-.06,0c0-.05,0-.14.07-.25a.73.73,0,0,1,.09-.26.06.06,0,0,1,0-.09h0l.05,0a1,1,0,0,1,.35-.31c.08-.07.14-.1.19-.09h0l.05,0,.27,0h.05a.14.14,0,0,1,.1,0l.09.05h0a1,1,0,0,1,.21.08l.09,0a.09.09,0,0,1,.07,0,.16.16,0,0,1,0,.12l.19.18a.08.08,0,0,1,.12,0,.07.07,0,0,1,0,.11h0a1.66,1.66,0,0,1,.12.31,6.93,6.93,0,0,1,0,1.71.06.06,0,0,1,0,.06A1.09,1.09,0,0,0,27.86,11.43Zm-5.1-.89a.31.31,0,0,1,0,.1c.15-.17.48-.49,1-1,.23-.22.39-.37.47-.46a4.25,4.25,0,0,0-.74.6Zm0,.43-.05.09c.13-.09.37-.29.73-.59l.09-.08,1-.84,0,0v0h0l-.64.54C23.31,10.56,22.94,10.87,22.8,11Zm-.05.69a17.11,17.11,0,0,0,1.76-1.5h0l0-.14-.23.19c-.47.4-.81.71-1,.91A4.07,4.07,0,0,0,22.75,11.66Zm0,.25s0,0,0,0a1,1,0,0,1,.15-.18,1.3,1.3,0,0,1-.19.13A.19.19,0,0,0,22.78,11.91Zm0-1.77a.17.17,0,0,1,0,.07l.11-.11A.26.26,0,0,1,22.8,10.14Zm0,2a.91.91,0,0,0,0,.17l.05,0c.1-.11.3-.29.6-.55a12.08,12.08,0,0,0,1-1v0a2.66,2.66,0,0,0-.62.47q-.33.28-.87.84A.72.72,0,0,1,22.79,12.1Zm.06.61c.43-.38.8-.73,1.12-1a1.93,1.93,0,0,0-.21.17,9.81,9.81,0,0,1-.92.74A.53.53,0,0,0,22.85,12.71Zm0-3.06a1.29,1.29,0,0,0,0,.19l.46-.41a5.89,5.89,0,0,0,.47-.51Zm0,3.43c.06-.07.19-.19.37-.36.67-.63,1.07-1,1.21-1.21l-.28.21c-.13.11-.34.31-.62.6a6.88,6.88,0,0,1-.7.64A.5.5,0,0,1,22.91,13.08Zm.12.47a10.22,10.22,0,0,1,.8-.75l.34-.31-1.15,1A.22.22,0,0,0,23,13.55ZM24.49,11v-.08c-.16.16-.47.45-.94.87l-.37.35C23.54,11.83,24,11.45,24.49,11Zm-1-2.15a.56.56,0,0,1-.1.18l.25-.22Zm0,5.62a5.58,5.58,0,0,1,.92-.93l-.35.3-.61.59Zm1.12-2.09a.28.28,0,0,1,0-.09c-.11.11-.35.32-.7.63l-.25.23.12-.1c.27-.24.53-.46.79-.66Zm-.37-3-.44.44a.6.6,0,0,0-.14.14c.23-.19.49-.38.77-.59a.16.16,0,0,0,.08,0,.55.55,0,0,0-.08-.15A1.24,1.24,0,0,1,24.27,9.37Zm-.54,5.32s.08-.11.16-.2l.19-.19-.39.35ZM24,8.83a1.83,1.83,0,0,1-.23.32l.29-.3Zm0,5.91,0,.08.19-.11q.12-.14.33-.33Zm.79-1.38-.3.29-.52.47L24.2,14a5.36,5.36,0,0,1,.76-.61l-.05-.06Zm-.46-.4a1.7,1.7,0,0,0,.19-.2,4.85,4.85,0,0,0-.4.37Zm3.2-.8,0-.12-.23.2L26,13.46a20,20,0,0,1-1.72,1.38.6.6,0,0,0-.11.14c.24-.15,1-.76,2.21-1.84C27.13,12.52,27.53,12.2,27.59,12.16Zm-3-.48-.32.35.33-.25A.31.31,0,0,1,24.55,11.68ZM24.28,9s0,0,0,.06h.08Zm.14,6-.15.1h0Zm-.05-4.5a.21.21,0,0,1,.12,0v-.08Zm.36,2.39-.26.18a.28.28,0,0,1-.07.09c.17-.14.28-.21.34-.2A.15.15,0,0,1,24.73,12.91Zm-.05,2.37.07-.07.19-.18h0l-.3.25Zm2.6-1.94a.93.93,0,0,1,0-.1Q27,13.56,26,14.41c-.45.36-.75.61-.91.75l-.16.16.18,0a.9.9,0,0,1,.16-.14c.53-.42,1-.78,1.28-1.07a4.83,4.83,0,0,0,.76-.75l0,0Zm-2.16.17-.06.06Zm2.56-2a.51.51,0,0,0,0-.13l-2.16,1.74h0a.14.14,0,0,1,0,.07c.12-.1.24-.2.37-.29C26.42,12.48,27,12,27.68,11.53Zm-2,1.12a.61.61,0,0,0,0,.11l.1-.1c.18-.19.44-.44.77-.76l.5-.48a2.84,2.84,0,0,0-.26.24l-.43.38C26,12.38,25.79,12.59,25.7,12.65Zm.12-.47a.74.74,0,0,1,0,.14l.46-.4h0a10.91,10.91,0,0,1,1.14-1l.08-.09c-.4.32-.93.78-1.6,1.38Zm.32,2.56s0,0,0,0l-.06,0-.3.29Zm-.26-2.88s0,0,0,.06a.29.29,0,0,1,.08-.07l.46-.46c.37-.35.63-.61.8-.79l-1.3,1.1ZM26,11.4l.08-.09.11-.11a.37.37,0,0,1-.16.05h0A.77.77,0,0,0,26,11.4ZM26,10h0a0,0,0,0,0,0,0Zm0,1v0l.06-.06Zm.29-1.83a4.19,4.19,0,0,0-.28.33l.34-.34.33-.33h-.05l-.06,0S26.45,9,26.29,9.16Zm1.35.13-.72.62c-.24.21-.44.37-.59.49a1.7,1.7,0,0,0-.32.4c.28-.19.83-.66,1.66-1.4h0Zm-1.62,1v.05l0,0a1.83,1.83,0,0,1,.2-.21l-.2.14Zm1-1.43c-.17.15-.32.3-.47.45a3.12,3.12,0,0,0-.45.54c.12-.1.39-.33.78-.69l.3-.27Zm.7,2.36a1.48,1.48,0,0,1,0-.21l-1.25,1.21Zm-.8,3S27,14,27,14l-.18.17a.12.12,0,0,1,.09,0Zm0-1.7.38-.32.26-.24Zm.34-3.09-.32.3c.2-.17.41-.34.64-.51l-.08-.07A2.08,2.08,0,0,1,27.24,9.34Zm.52.47-.83.82c.48-.39.75-.6.83-.65ZM27,13.13l.27-.22-.2.14Zm.5-.37h0l-.11.07Zm.29-2.36v-.12l-.32.32A1.56,1.56,0,0,1,27.76,10.4Zm-.1,1.38.09-1v0l0,0Z"/></svg>