<svg xmlns="http://www.w3.org/2000/svg" viewBox="0 0 130.82 130.82"><defs><style>.a{fill:#3479f6;}</style></defs><rect class="a" x="44.27" y="15.98" width="14" height="14" rx="2.56" transform="translate(31.27 -29.52) rotate(45)"/><rect class="a" x="58.41" y="30.13" width="14" height="14" rx="2.56" transform="translate(45.41 -35.38) rotate(45)"/><rect class="a" x="72.55" y="44.27" width="14" height="14" rx="2.56" transform="translate(59.55 -41.24) rotate(45)"/><rect class="a" x="86.69" y="58.41" width="14" height="14" rx="2.56" transform="translate(73.69 -47.09) rotate(45)"/><rect class="a" x="30.13" y="30.13" width="14" height="14" rx="2.56" transform="translate(37.13 -15.38) rotate(45)"/><rect class="a" x="44.27" y="44.27" width="14" height="14" rx="2.56" transform="translate(51.27 -21.24) rotate(45)"/><rect class="a" x="58.41" y="58.41" width="14" height="14" rx="2.56" transform="translate(65.41 -27.09) rotate(45)"/><rect class="a" x="72.55" y="72.55" width="14" height="14" rx="2.56" transform="translate(79.55 -32.95) rotate(45)"/><rect class="a" x="15.98" y="44.27" width="14" height="14" rx="2.56" transform="translate(42.98 -1.24) rotate(45)"/><rect class="a" x="30.13" y="58.41" width="14" height="14" rx="2.56" transform="translate(57.13 -7.09) rotate(45)"/><rect class="a" x="44.27" y="72.55" width="14" height="14" rx="2.56" transform="translate(71.27 -12.95) rotate(45)"/><rect class="a" x="58.41" y="86.69" width="14" height="14" rx="2.56" transform="translate(85.41 -18.81) rotate(45)"/><rect class="a" x="1.84" y="58.41" width="14" height="14" rx="2.56" transform="translate(48.84 12.91) rotate(45)"/><rect class="a" x="15.98" y="72.55" width="14" height="14" rx="2.56" transform="translate(62.98 7.05) rotate(45)"/><rect class="a" x="30.13" y="86.69" width="14" height="14" rx="2.56" transform="translate(77.13 1.19) rotate(45)"/><rect class="a" x="44.27" y="100.84" width="14" height="14" rx="2.56" transform="translate(91.27 -4.67) rotate(45)"/><rect class="a" x="100.84" y="72.55" width="14" height="14" rx="2.56" transform="translate(87.84 -52.95) rotate(45)"/><rect class="a" x="58.41" y="1.84" width="14" height="14" rx="2.56" transform="translate(25.41 -43.66) rotate(45)"/><rect class="a" x="72.55" y="15.98" width="14" height="14" rx="2.56" transform="translate(39.55 -49.52) rotate(45)"/><rect class="a" x="86.69" y="30.13" width="14" height="14" rx="2.56" transform="translate(53.69 -55.38) rotate(45)"/><rect class="a" x="100.84" y="44.27" width="14" height="14" rx="2.56" transform="translate(67.84 -61.24) rotate(45)"/><rect class="a" x="114.98" y="58.41" width="14" height="14" rx="2.56" transform="translate(81.98 -67.09) rotate(45)"/><rect class="a" x="86.69" y="86.69" width="14" height="14" rx="2.56" transform="translate(93.69 -38.81) rotate(45)"/><rect class="a" x="72.55" y="100.84" width="14" height="14" rx="2.56" transform="translate(99.55 -24.67) rotate(45)"/><rect class="a" x="58.41" y="114.98" width="14" height="14" rx="2.56" transform="translate(105.41 -10.53) rotate(45)"/></svg>