<svg xmlns="http://www.w3.org/2000/svg" viewBox="0 0 71 36"><defs><style>.a{fill:#29abe2;}</style></defs><path class="a" d="M18.92,9a.74.74,0,0,1-.12.27V9.5a.1.1,0,0,1,.05.06c.07.06,0,.17-.05.33,0,1.54,0,2.6,0,3.17a.19.19,0,0,1,0,.15c0,.13,0,.24,0,.33a1.8,1.8,0,0,1-.49,1.38,1.75,1.75,0,0,1-.84.47l0,0-.08,0h0a.18.18,0,0,1-.08-.06h-.12a2.47,2.47,0,0,1-.36,0,0,0,0,0,1,0,0l0,0c-.05.05-.11,0-.16,0a.09.09,0,0,1,0-.1,1.55,1.55,0,0,1-.29-.14.16.16,0,0,1-.08-.05,1.64,1.64,0,0,1-.31-.28,1.5,1.5,0,0,1-.35-.66,1.36,1.36,0,0,0,0-.17.1.1,0,0,1,0-.06.14.14,0,0,1,0-.21,1.5,1.5,0,0,0,0-.22v0a.22.22,0,0,1-.06-.17.53.53,0,0,1,.06-.14q0-.87,0-2.43a.07.07,0,0,1,0-.09c0-.86,0-1.49,0-1.89v0a.79.79,0,0,0-.06-.4h0a.18.18,0,0,1-.08-.06.13.13,0,0,1,0-.1l-.12,0h0l-.55.43v0a.1.1,0,0,1,0,.09h0A3.08,3.08,0,0,0,14.13,10v.6l0,0s0,.06,0,.1a.19.19,0,0,1,0,.11.1.1,0,0,1,.08,0,.42.42,0,0,1,.06.21.85.85,0,0,1-.16.32c0,.16,0,.37,0,.62t0,.09v0h0v.14a.13.13,0,0,1,.1,0,.21.21,0,0,1,0,.17.69.69,0,0,1-.14.29,6.48,6.48,0,0,1,0,.72.19.19,0,0,1,0,.18.47.47,0,0,1,0,.17c.06.07,0,.18-.07.35a2.11,2.11,0,0,1-.22.55,1.56,1.56,0,0,1-.61.64,1.7,1.7,0,0,1-.86.23l-.24,0a1.59,1.59,0,0,1-1-.56.11.11,0,0,1-.17,0,.26.26,0,0,1-.06-.22.19.19,0,0,1,0-.07l-.1-.2a.28.28,0,0,1-.15-.08.07.07,0,0,1,0-.08.16.16,0,0,1,0-.09l.06,0a1.7,1.7,0,0,1-.06-.35.2.2,0,0,1-.12-.23.56.56,0,0,1,.08-.2.08.08,0,0,1,0-.11c0-.09,0-.2,0-.31L10.47,13a.15.15,0,0,1,0-.09.2.2,0,0,1,.05-.09l0,0c0-.72-.07-1.45-.08-2.17a.07.07,0,0,1-.06,0,.13.13,0,0,1,0-.18l.06-.05V9.64a.42.42,0,0,1-.06-.27.84.84,0,0,1,.08-.2c0-.18,0-.37,0-.56,0,0,0,0,0,0s-.05-.18,0-.29a2,2,0,0,0,0-.29l0,0a.12.12,0,0,1,0-.18l0,0s0-.15,0-.29h0a.21.21,0,0,1,0-.17.31.31,0,0,1,.08-.18c0-.13,0-.22,0-.27a.09.09,0,0,1,0-.1.15.15,0,0,1,0-.11V6.6a.15.15,0,0,1,0-.09c0-.14,0-.32,0-.52l-.06,0c-.07-.08,0-.19.09-.33,0-.29.08-.6.12-.94a.14.14,0,0,1,0-.09c0-.27.09-.67.16-1.19a.26.26,0,0,1,0-.07s0-.06,0-.08a.12.12,0,0,1-.08,0c-.08-.11,0-.27.15-.49a1.32,1.32,0,0,0,0-.27.24.24,0,0,1,0-.08V2.31a.16.16,0,0,0,0-.09,3.42,3.42,0,0,1,.14-.55,1.59,1.59,0,0,1,.15-.29.1.1,0,0,1,0-.08v0A1.49,1.49,0,0,1,12.75.62a2.46,2.46,0,0,1,.37,0,.13.13,0,0,0,.08,0h0c0-.05.1,0,.16,0a.07.07,0,0,1,0,.06,1.73,1.73,0,0,1,.41.25.19.19,0,0,1,.16.08.28.28,0,0,1,0,.12v0a1.66,1.66,0,0,1,.31,1.1c0,.28,0,.66-.06,1.17l0,0a.21.21,0,0,1,0,.17.43.43,0,0,1,0,.14,0,0,0,0,1,0,0,.29.29,0,0,1,.06.19.78.78,0,0,1-.16.29v.51a.15.15,0,0,1,.06,0c.06.08,0,.18-.08.31v.1a.58.58,0,0,1,.25-.12.15.15,0,0,1,.06,0,3.68,3.68,0,0,1,.84-.18.38.38,0,0,1,.13,0s0,0,.08,0h.1a3.68,3.68,0,0,1,.66.06A.25.25,0,0,1,16.48,5a.12.12,0,0,1,.08,0s0,0,0,.06a3.27,3.27,0,0,1,1.19.54.07.07,0,0,1,.05,0l0,0,.14.16A3.64,3.64,0,0,1,18.8,8.2v.56a.13.13,0,0,1,.07,0A.26.26,0,0,1,18.92,9Zm-8.19.23s0,0,0,0v0c.87-.71,1.68-1.37,2.41-2,1.3-1.08,2.13-1.75,2.49-2l-.14,0L15,5.62c-.3.24-.87.73-1.71,1.45a25.23,25.23,0,0,1-2.57,2.1A.08.08,0,0,0,10.73,9.23Zm0,.39v0c1-.79,1.86-1.53,2.68-2.22s1.53-1.23,2-1.63l.29-.21a.61.61,0,0,0,0-.12C15.09,6,13.41,7.36,10.71,9.62Zm0,.37v.15l.9-.79Zm0,.48v.18l.22-.26.48-.48Zm0,.84a2.49,2.49,0,0,1,.43-.37,1,1,0,0,1-.45.19A.77.77,0,0,1,10.73,11.31Zm0-2.74c0,.09,0,.16,0,.21a7.51,7.51,0,0,1,.57-.58A19,19,0,0,1,13,6.78c.24-.19.5-.39.77-.58a3.73,3.73,0,0,0,.53-.62s0,0,0,0l-.1,0-.09.06c-.26.21-.74.62-1.42,1.25A20.5,20.5,0,0,1,10.75,8.57Zm0,3.73v.31c.56-.43,1.06-.84,1.52-1.22a9.56,9.56,0,0,0,1.47-1.5c-.07.09-.22.23-.42.43q-1,1-1.59,1.5a1.74,1.74,0,0,1-.88.5h0Zm0-4.76,0,0Zm0,5.46c0,.08,0,.12,0,.13l.29-.29.18-.19A4.05,4.05,0,0,1,10.79,13Zm0-5.77a7.86,7.86,0,0,0,.74-.66l-.19.15-.12.1A4.54,4.54,0,0,0,10.81,7.23Zm0,6.43a7.53,7.53,0,0,0,1.67-1.3c.35-.33.73-.69,1.13-1.09l-.72.54-.29.2,0,0a9.63,9.63,0,0,1-1.79,1.51s0,0,0,0ZM14,9.44A1.28,1.28,0,0,1,14,9.09l-.3.28a28.22,28.22,0,0,1-2.58,2.25c-.21.23-.3.39-.29.46s.42-.18.91-.6c.3-.27.76-.72,1.38-1.34A3.75,3.75,0,0,1,14,9.44Zm-3.07,4.65c.56-.44,1.06-.87,1.51-1.27a15.2,15.2,0,0,0,1.31-1.26l-1,.93a7.48,7.48,0,0,1-1.86,1.42A1,1,0,0,0,10.89,14.09Zm.37-7.7a3.88,3.88,0,0,0-.37.33,1.19,1.19,0,0,0,.33-.19,1.9,1.9,0,0,1,.21-.19l.06,0a2.39,2.39,0,0,0,.23-.22A4.66,4.66,0,0,1,11.26,6.39Zm-.12,4.88-.25.23.1-.08Zm5.73-5.79a.48.48,0,0,1-.15.18L16.35,6,15.09,7.05c-1.3,1.09-2.23,1.89-2.8,2.39a11.58,11.58,0,0,0-1.38,1.36,13.93,13.93,0,0,0,1.14-.89c.46-.38,1.24-1.06,2.36-2,1.52-1.36,2.42-2.12,2.69-2.29ZM11,5.81l0,.1a2.51,2.51,0,0,1,.23-.25c.27-.29.65-.66,1.15-1.11a.16.16,0,0,1,.08-.06L12,4.78C11.67,5.11,11.31,5.45,11,5.81ZM12.66,5c.44-.41.89-.85,1.36-1.32a2.83,2.83,0,0,0,0-.3,20.63,20.63,0,0,0-3,2.92l.13-.08.92-.7.21-.16Zm-1.6-.16s0,.09,0,.1l.12-.14Zm.1-.82c0,.11,0,.21,0,.32.07-.06.18-.15.33-.3.69-.6,1.19-1.06,1.52-1.38a5.37,5.37,0,0,0,.83-.93,2.49,2.49,0,0,0-.62.41,1.77,1.77,0,0,0-.17.14c-.18.15-.39.33-.61.54-.42.39-.83.78-1.22,1.19Zm2.27,1.54L14,5V4.9l-2.8,2.62c.18-.13.39-.29.62-.49S12.71,6.21,13.43,5.52Zm-2.25,9.13,2.7-2.18v-.11c-.21.14-.42.3-.64.46s-.46.42-.76.66l-.33.3a9.09,9.09,0,0,1-1,.85ZM14,2.35l-.49.47c-.39.38-.72.69-1,.93l-.6.58c-.34.34-.58.59-.72.76L11.39,5l.9-.8c.58-.52,1.17-1,1.77-1.52,0,0,0,0,0,0a3,3,0,0,1,0-.31v0ZM11.32,15a6.69,6.69,0,0,1,1.22-1.11c.49-.39.84-.66,1-.83L11.26,14.9A.21.21,0,0,0,11.32,15Zm0-11.89A.81.81,0,0,0,11.41,3,.81.81,0,0,1,11.28,3.09Zm.37,12.14a.58.58,0,0,1,.17-.25l-.25.19A.21.21,0,0,0,11.65,15.23ZM14,1.79A15.93,15.93,0,0,1,11.61,4.2l0,0,.7-.58a.31.31,0,0,1,.1-.08c.24-.25.54-.53.89-.84l.11-.1.45-.44A2.73,2.73,0,0,0,14.07,2,.84.84,0,0,0,14,1.79Zm-1.44-.16c-.45.39-.77.68-.95.86q.28-.26.54-.45c.76-.62,1.19-1,1.26-1A.31.31,0,0,1,13.3,1a.61.61,0,0,1-.14.14C13.07,1.2,12.88,1.38,12.58,1.63Zm-.41,13.6.06-.06-.23.18,0,0,.11-.12ZM12.87.88l-.54.52L13,.88Zm.91,13.24a.34.34,0,0,1-.09.08c-.24.22-.6.55-1.09,1a2,2,0,0,0-.25.24,1.48,1.48,0,0,0,.46-.08.08.08,0,0,1,0-.06A8.31,8.31,0,0,0,13.78,14.12Zm.1-3.51v-.2L12.4,11.89s.07,0,.08-.06A8.23,8.23,0,0,1,13.88,10.61Zm1.19-2.76L16,7.11a12.53,12.53,0,0,0,1-1,1.37,1.37,0,0,0,.25-.35C17,6,16.06,6.71,14.56,8c-1,.89-1.69,1.51-2.12,1.87L13,9.5c.59-.45,1-.8,1.34-1.05A1.09,1.09,0,0,1,15,8l0,0,0,0Zm-2.47-2,.62-.58-.12.09Zm1.07-4.53a7.06,7.06,0,0,0-.74.66l.1-.07A7.32,7.32,0,0,0,13.67,1.32Zm0,3.25c.13-.12.23-.22.31-.31v0c-.15.14-.33.31-.57.5a1.23,1.23,0,0,0-.19.2A2.78,2.78,0,0,1,13.69,4.57Zm.19,9v-.08a3.9,3.9,0,0,1-.45.43Zm0-8L14,5.48Zm2.55-.2L15.22,6.45l-.6.53-.21.19L16.6,5.4Zm-1.81.08a.74.74,0,0,1-.08.22l.33-.24.06-.06Zm.93,2.76s0,.05,0,.08l.1-.12c.09-.09.22-.23.41-.41l0,0Zm.06,4.12v.25a29.7,29.7,0,0,0,2.93-2.76V9.73l-.19.12c-.34.35-.66.67-1,1s-.81.71-1.09.92A2.78,2.78,0,0,1,15.61,12.32Zm1-2.45-1,.89a.14.14,0,0,1,0,.06Zm-.7,1.07.45-.41-.68.58a.12.12,0,0,1-.08,0v.1h0A2.59,2.59,0,0,1,15.92,10.94Zm-.19.66h0l-.1,0v.12Zm-.12,1.67v0a6.82,6.82,0,0,0,1.11-1.05l-.7.56A2.51,2.51,0,0,0,15.61,13.27Zm0-.45v.06a.21.21,0,0,0,.08-.06A.06.06,0,0,1,15.61,12.82Zm.19-3.07a.34.34,0,0,1-.15,0h0v.12A1.2,1.2,0,0,0,15.8,9.75Zm.41-1.1a2.24,2.24,0,0,1-.56.48v.29C17,8.19,17.79,7.38,18.1,7a3,3,0,0,0-.72.52l-.06.06L16.87,8Zm-.56-.1a1.4,1.4,0,0,1,0,.23l.11-.11c.11-.11.3-.29.59-.55l.37-.33.4-.39a2.42,2.42,0,0,0,.28-.27A1.58,1.58,0,0,1,17.55,7c-.49.4-1.11.91-1.84,1.53Zm.08,5.59c.45-.4.87-.79,1.26-1.16a.77.77,0,0,0,.13-.12A7.28,7.28,0,0,1,15.69,14a.4.4,0,0,0,0,.13ZM18,9.44c.3-.28.49-.46.56-.54v0a4.18,4.18,0,0,1-.37.37l-1.16,1-1.07,1a4.19,4.19,0,0,0,.68-.51C16.92,10.47,17.37,10,18,9.44Zm-1.3,3.5-.7.56c.14-.1.32-.24.52-.41Zm-.6,1.65c.14-.1.46-.41,1-.91a5.8,5.8,0,0,1,1.47-1.25V12.2l-.64.55-.15.17c-.64.63-1.08,1.06-1.34,1.28A2.2,2.2,0,0,0,16.08,14.59Zm.09.23h0l0,0Zm1.4-.52a5.13,5.13,0,0,0,1-1.11,2.05,2.05,0,0,0-.5.37c-.18.16-.48.44-.88.84s-.57.55-.68.64l.22.08C17,14.83,17.31,14.56,17.57,14.3ZM16.62,12a4.37,4.37,0,0,1,.37-.29l1.09-.88c.09-.09.16-.17.23-.23C18,10.91,17.38,11.38,16.62,12Zm.37.31-.14.13c.46-.37.8-.66,1-.87a3.31,3.31,0,0,0,.6-.62,1.66,1.66,0,0,0-.52.37C17.77,11.52,17.44,11.85,17,12.34Zm.6,2.52c.29-.31.49-.54.62-.7l-1.2,1h.11a.5.5,0,0,0,.18,0,0,0,0,0,0,0,0A3.63,3.63,0,0,1,17.59,14.86Zm.62-7.3c-.15.13-.46.43-.93.89l.59-.53A2.63,2.63,0,0,0,18.21,7.56Zm.31.21a.47.47,0,0,0,0-.17,8.64,8.64,0,0,1-1.16,1.14l1.16-1Zm-1-2a1.09,1.09,0,0,1-.13.27.47.47,0,0,0,.11-.13l.1-.08Zm.31.66-.27.27A2.39,2.39,0,0,1,18,6.35.19.19,0,0,0,18,6.28v0A1.13,1.13,0,0,0,17.8,6.43Zm.49,6.41-.68.62C17.92,13.19,18.15,13,18.29,12.84ZM17.8,6v0h0Zm.35.53a.47.47,0,0,1-.07.17l.11,0h0A1.09,1.09,0,0,0,18.15,6.57Zm.26.64a1.49,1.49,0,0,1,0-.18l-.23.3A.39.39,0,0,1,18.41,7.21Zm0,2.16-.22.21,0,0Zm.13-.9V8.39l-.25.26A1.41,1.41,0,0,1,18.54,8.47Zm0,3.25a2.21,2.21,0,0,1-.23.31,1.67,1.67,0,0,1,.23-.18Zm0,1.92v0Z"/><path class="a" d="M28.43,9.52a.11.11,0,0,1,0,.18l-.06,0v.49a.21.21,0,0,1,0,.14.19.19,0,0,1,0,.11A7,7,0,0,1,28.12,12a.08.08,0,0,0,0,.06c-.05.16-.1.33-.16.5a.1.1,0,0,1,0,.12.64.64,0,0,1-.19.33,4,4,0,0,0-.17.37c-.07.11-.13.24-.2.37a.1.1,0,0,1,0,.09.57.57,0,0,1-.08.08,4.9,4.9,0,0,1-1.22,1.34,4.25,4.25,0,0,1-.58.35,1.14,1.14,0,0,1-.59.29.11.11,0,0,1-.09,0,3.08,3.08,0,0,1-.8.1h-.11l-.06,0a.07.07,0,0,1-.06,0h0a.08.08,0,0,1-.08-.06l0,0a4,4,0,0,1-.83-.21.24.24,0,0,1-.14.06.1.1,0,0,1-.08,0,.21.21,0,0,1-.06-.16l-.07,0,0,0-.09,0a.09.09,0,0,1-.08,0,.14.14,0,0,1,0-.09v0c-.2-.15-.4-.31-.6-.49l-.08-.06a.12.12,0,0,1,0-.08.87.87,0,0,0-.13-.15c-.11-.13-.21-.27-.31-.41a.11.11,0,0,1-.14,0,.11.11,0,0,1,0-.17h0a2.73,2.73,0,0,1-.23-.45.1.1,0,0,1-.1,0,.12.12,0,0,1-.08,0,.11.11,0,0,1,0-.17l0,0h-.06a.13.13,0,0,1-.07,0c-.06-.07,0-.15,0-.25a2.81,2.81,0,0,1-.16-.49h0a.2.2,0,0,1-.14-.06c-.06-.09,0-.21.06-.35a6.57,6.57,0,0,1-.09-.66h0a.14.14,0,0,1,0-.17v0l-.08,0a.1.1,0,0,1,0-.1.24.24,0,0,1,.09-.13v0h0A.12.12,0,0,1,20,11a.25.25,0,0,1,0-.16.63.63,0,0,1,.14-.27v-.08l0,0a.11.11,0,0,1,0-.11.26.26,0,0,1,.08-.16.16.16,0,0,1,0-.09h0a.31.31,0,0,1-.06-.3.35.35,0,0,1,.06-.19v0a.1.1,0,0,1,0-.08l0,0,0,0a8.3,8.3,0,0,1,.28-1.09c0-.08,0-.19.11-.33a8.56,8.56,0,0,1,.47-1,4.69,4.69,0,0,1,1.36-1.53,3,3,0,0,1,.42-.27,3.31,3.31,0,0,1,1.56-.41.58.58,0,0,1,.35-.12.18.18,0,0,1,.15.08.3.3,0,0,1,0,.08l.12,0a.74.74,0,0,1,.25-.06.19.19,0,0,1,.16.08.36.36,0,0,1,.06.11,3.07,3.07,0,0,1,.87.47.37.37,0,0,1,.25.12.19.19,0,0,1,0,.11l.35.37a5.49,5.49,0,0,1,.51.7.13.13,0,0,1,.07,0,.18.18,0,0,1,.1,0,.26.26,0,0,1,0,.2V7l0,0c0,.06,0,.12,0,.2l.12.25a.08.08,0,0,1,0,0,.17.17,0,0,1,0,.16l0,0h0a.17.17,0,0,1,.1,0q.06.1-.06.24a1.15,1.15,0,0,1,.08.29l0,0a.27.27,0,0,1,0,.19v.12a.05.05,0,0,1,.05,0,.08.08,0,0,1,0,.15v0a1,1,0,0,1,0,.18h0a.17.17,0,0,1,.1.06c0,.05,0,.11,0,.19l0,0a.9.9,0,0,1,0,.23A.13.13,0,0,1,28.43,9.52Zm-7,.49a.68.68,0,0,1,.11-.14q.79-.81,1.2-1.17a1,1,0,0,1,.61-.33l.08,0v0a2.18,2.18,0,0,1,.6-.64,1.06,1.06,0,0,1,.35-.15,21.58,21.58,0,0,0,2-1.69l0-.08-.12-.1a.59.59,0,0,0-.17,0A18,18,0,0,1,23.3,8.16a2.43,2.43,0,0,1-.25.2A22.52,22.52,0,0,1,21,10.18l-.62.64Zm-1.07.21v0a17.5,17.5,0,0,1,1.4-1.19l.75-.73c-.27.23-.51.43-.73.6C21,9.58,20.56,10,20.37,10.22Zm.06,1.44.42-.35c.72-.58,1.23-1,1.56-1.32a6,6,0,0,0,.58-.6.44.44,0,0,1,.06-.16,33.62,33.62,0,0,0-2.66,2.23,1.8,1.8,0,0,1,0,.22Zm0-2.1a1,1,0,0,1,0,.16c.23-.17.64-.5,1.22-1,.09-.09.2-.18.31-.27l-1.26.92Zm.09,2.68a13.22,13.22,0,0,0,1-.93l.26-.25-.72.6a4.86,4.86,0,0,0-.53.56Zm.1.23s0,0,0,0v0Zm.1-4.1a1,1,0,0,0-.06.22A40.6,40.6,0,0,1,24.6,5.13l.06-.08-.19,0c-.15.11-.34.26-.58.47s-.78.72-1.46,1.38A10.23,10.23,0,0,1,20.72,8.37Zm0,4.49.12-.13a.1.1,0,0,1,.05,0h0a1.18,1.18,0,0,0-.16.13Zm.12.31v0c.72-.67,1.28-1.2,1.69-1.57a9.66,9.66,0,0,0-.8.7C21.4,12.58,21.11,12.86,20.8,13.17Zm.15.35.31-.33-.35.27Zm.27-6.27-.15.29q.2-.18.54-.45a.8.8,0,0,1-.37.16Zm.88,5.48c-.43.4-.71.68-.86.83A15.86,15.86,0,0,0,23,12a.69.69,0,0,0,0-.1C22.84,12,22.55,12.3,22.1,12.73Zm-.76,1.47a1.89,1.89,0,0,1,.33-.41l.76-.75c.27-.25.46-.42.56-.53a6.46,6.46,0,0,0-.56.45l-.24.23-.93.9A1,1,0,0,1,21.34,14.2Zm.85-8.08a8.75,8.75,0,0,0-.75.8,18.88,18.88,0,0,0,2-1.69,2.17,2.17,0,0,0-.41.19A7.23,7.23,0,0,1,22.19,6.12Zm2,.25q-1.29.9-2.1,1.56l0,0c-.2.17-.39.35-.58.54C22.66,7.64,23.56,6.93,24.2,6.37Zm-2.55,8.22.16-.19.6-.7L23,13c-.18.14-.41.34-.7.6l-.8.8s0,0,0,0l.06.07A.39.39,0,0,1,21.65,14.59Zm.87-3.9c-.15.13-.38.34-.67.64Zm-.58,4.19L22,14.8l.21-.19c.33-.3.59-.54.78-.74l-1.16.93Zm.22.18,5.36-4.67c-.35.25-.82.62-1.4,1.11l-1.24,1.07a1.61,1.61,0,0,1-.45.45l-.1.06-1.12,1-1.07,1Zm1.3-2.2-.25.31-.61.7,0,0a.05.05,0,0,1,0,0L23.63,13a1.2,1.2,0,0,1-.17-.16Zm-.82-2.58a.75.75,0,0,1,.2-.08v-.12Zm.06.56.12-.08v0Zm.14.27a.05.05,0,0,0,0,0h0Zm.05,4.2,0,0,0,0,0,0,0,0c1-.85,1.83-1.54,2.45-2.08l-.14.1L23.38,14.8A4.35,4.35,0,0,0,22.89,15.31Zm.3.27c.81-.67,1.59-1.33,2.35-2,1-.85,1.66-1.49,2.07-1.9-.73.54-2.22,1.78-4.44,3.71l-.16.11A.48.48,0,0,0,23.19,15.58Zm2.11-5c-.05,0,0-.12,0-.2l0,0c0-.12,0-.24,0-.35l-.06,0a.12.12,0,0,1,0-.18l0,0a.88.88,0,0,0,0-.17l0,0a.32.32,0,0,1,0-.29.25.25,0,0,0,0-.12h0a.08.08,0,0,1-.08,0,.15.15,0,0,1,0-.1.08.08,0,0,1,0-.07l0,0A2.21,2.21,0,0,0,24.82,8a.94.94,0,0,0-.2-.16c-.31.25-.68.53-1.1.85a1.22,1.22,0,0,0-.1.24q.07.19-.21.54v0s0,0,0,0,.06.12,0,.18l-.11.09a5,5,0,0,0-.08.86s0,0,0,0a.11.11,0,0,1,0,.17l0,0a2,2,0,0,1,0,.25s0,0,0,0a.15.15,0,0,1,0,.18.62.62,0,0,0,0,.19c0,.13.06.25.09.37l0,0a.11.11,0,0,1,0,.12.1.1,0,0,1,0,.07.15.15,0,0,1,.14.08.18.18,0,0,1,0,.2,2.19,2.19,0,0,0,.23.33.48.48,0,0,0,.33.19.49.49,0,0,0,.22-.06,3.22,3.22,0,0,0,.38-.35c0-.1.14-.3.41-.6l.12-.29a.12.12,0,0,1,0-.12l0,0c0-.11.07-.23.11-.35l0,0a.09.09,0,0,1,0-.09s0-.09.1-.14a1.36,1.36,0,0,0,0-.17Zm-2.09,2,.05,0,0,0Zm1.16.83-.89.78.07-.06C23.79,14,24.06,13.74,24.37,13.46Zm-.5,2.2-.1,0h0l0,0Zm4.06-3.94-.43.44c-.4.38-1,.88-1.67,1.52l-2,1.71a17.05,17.05,0,0,0,2-1.61c.71-.64,1.41-1.3,2.1-2l0,0ZM24,5.09v0l.06,0A.08.08,0,0,0,24,5.09Zm.27,10.61v0l0,0Zm0-9.66.57-.4.33-.22v0A7.26,7.26,0,0,0,24.23,6Zm.86,9.13.48-.46-.56.44a5.1,5.1,0,0,0-.5.47,3.34,3.34,0,0,0,.37-.21A2,2,0,0,1,25.09,15.17Zm-.33-9.85,0,.06a3.05,3.05,0,0,1,.43-.25l-.06,0Zm.33,1.09c-.1.11-.23.22-.37.35l.39-.31.35-.31Zm1.65-.11a2.58,2.58,0,0,0-.56.42c-.21.19-.51.46-.9.84L25,7.85h0v0a1.15,1.15,0,0,1,.14.17l0,0,.27-.26c.4-.39.69-.68.87-.89A2.64,2.64,0,0,0,26.74,6.3Zm-1-1a4.74,4.74,0,0,1-.39.29l-.23.27.66-.55S25.69,5.32,25.69,5.31Zm.47,9.38c.24-.24.51-.49.79-.78l-.75.7c-.39.35-.72.63-1,.86l.15-.08A9.66,9.66,0,0,0,26.16,14.69Zm-.84-6.32.16-.19v0a.92.92,0,0,1-.2.14A.25.25,0,0,1,25.32,8.37Zm.27,2.69-.05,0,0,0Zm1.77-4.14a1.79,1.79,0,0,1-.13-.22c-.31.29-.61.57-.88.86a6.09,6.09,0,0,0-.8.91A17.56,17.56,0,0,0,27.32,7l0,0S27.36,6.93,27.36,6.92Zm-1.65,3.63a.21.21,0,0,0-.1.06v0s0,0,0,0l0,0Zm-.08-1v0l1.17-.95a9.76,9.76,0,0,0,.78-.76l-1.11.93C26,9.24,25.74,9.48,25.63,9.56Zm0,.54.24-.23c.36-.36.65-.65.87-.85l-.06,0c-.32.28-.67.56-1.05.86Zm2-2.7c-.07.07-.19.18-.37.33-.52.46-.89.79-1.11,1l-.37.39c.12-.09.3-.25.56-.48.74-.65,1.19-1,1.34-1.13A.61.61,0,0,0,27.6,7.4Zm-.78,4.26A10,10,0,0,0,28,10.55c-.28.22-1,.83-2.06,1.83l0,0Zm-.47-.7A20.62,20.62,0,0,1,28.1,9.58a.78.78,0,0,0,0-.14.69.69,0,0,1-.12.1l-1.72,1.53ZM27.89,8.2c-.12.13-.28.3-.49.5s-.54.56-.93.94c.45-.38.94-.81,1.46-1.28A1.24,1.24,0,0,1,27.89,8.2ZM27,6.35a1.41,1.41,0,0,1-.37.55,4.76,4.76,0,0,0,.47-.41Zm.24,3-.28.23-.31.27L27,9.56A2.53,2.53,0,0,1,27.21,9.33ZM26.66,6v0s0,0,0,0ZM28,9l-.56.54L28,9.11Zm0,2.13v0s0,0,0,0Z"/><path class="a" d="M37.56,9.37l.08,0a.14.14,0,0,1,0,.18l-.1.08a16.35,16.35,0,0,1-.29,1.75c.06.07,0,.19-.1.34l-.1.3s0,0,0,.09a.66.66,0,0,1-.15.35,5.64,5.64,0,0,1-1.53,2.29,2.69,2.69,0,0,1-.67.49.18.18,0,0,1-.17.08,2.45,2.45,0,0,1-.43.15.46.46,0,0,1-.23.1l-.1,0-.39,0a2.9,2.9,0,0,1-1.9-.7c-.17-.14-.32-.28-.47-.43a0,0,0,0,1-.07,0,.11.11,0,0,1-.08,0,.27.27,0,0,1,0-.2,4.91,4.91,0,0,1-.49-.68.1.1,0,0,1,0-.06.07.07,0,0,1,0-.09.05.05,0,0,0,0,0,.2.2,0,0,1-.1-.08.16.16,0,0,1,0-.12.14.14,0,0,1,0-.06l0,0v0L30,13a.26.26,0,0,1,0-.16c0-.06-.05-.13-.07-.21l-.06,0a.08.08,0,0,1-.08-.06.2.2,0,0,1-.06-.18.08.08,0,0,1,0,0l-.06,0q-.07-.08.06-.24s0,0,0,0a1.24,1.24,0,0,1-.06-.29l-.1,0a.12.12,0,0,1,0-.18l0,0c0-.1,0-.21,0-.31a.18.18,0,0,1-.09-.06q-.09-.09.06-.27a8.14,8.14,0,0,1-.08-.85.09.09,0,0,1-.08,0c-.07-.08-.05-.2.06-.35s0-.44,0-.64a.23.23,0,0,1,0-.16.31.31,0,0,1,0-.08l0,0a.2.2,0,0,1,0-.25,4.87,4.87,0,0,1,0-.54.12.12,0,0,1,0-.08,11.06,11.06,0,0,1,.17-1.28l0,0a.3.3,0,0,1,.06-.2A3.1,3.1,0,0,1,30,5.81a1.61,1.61,0,0,1,.55-.52.24.24,0,0,1,.11-.06,1.48,1.48,0,0,1,.62-.14h.16A.29.29,0,0,1,31.61,5a.12.12,0,0,1,.08,0,.3.3,0,0,1,0,.08l.18.06.07,0H32a.1.1,0,0,1,.08,0s0,0,0,0a1.5,1.5,0,0,1,.58.78v0a1.75,1.75,0,0,1,.06.56l0,0c0,.06,0,.12,0,.2a.14.14,0,0,0,0,.06,5.86,5.86,0,0,0-.12.93s0,0,0,0,.06.18,0,.31,0,.23,0,.35l0,0c.06.06.05.15,0,.25s0,.24,0,.37a.18.18,0,0,1,0,.19l0,.39s0,0,0,.08a.09.09,0,0,1,0,.1.1.1,0,0,0,0,.07l.08.06c0,.07,0,.16,0,.27s0,.23,0,.37l0,0a4.17,4.17,0,0,0,.06.45l.05.06a.11.11,0,0,1,0,.08.07.07,0,0,1,0,.07,1.52,1.52,0,0,0,.39.78l.1,0,0,0,.1,0a2.76,2.76,0,0,0,.38-.91l0,0c0-.05,0-.1,0-.16l0,0,.05,0c.08-.31.15-.66.22-1a.5.5,0,0,0,0-.12l0,0s0-.12,0-.19,0,0,0,0c.06-.35.1-.69.14-1a.59.59,0,0,1,0-.14.2.2,0,0,1,0-.09,1.37,1.37,0,0,0,0-.16l-.06,0q-.07-.09.06-.27V7.58a.09.09,0,0,1,0-.1s0,0,0,0a1.48,1.48,0,0,0-.06-.35,2.45,2.45,0,0,1,0-.27l-.08-.06c-.06-.08,0-.2.1-.39A1.15,1.15,0,0,1,34.57,6a.11.11,0,0,1,0-.14l0,0,.07-.06a1.51,1.51,0,0,1,.53-.48c.13-.11.22-.15.29-.14h0l.08,0a2.58,2.58,0,0,1,.4,0h.08A.27.27,0,0,1,36.26,5a.35.35,0,0,1,.13.08v0a1.61,1.61,0,0,1,.33.12.27.27,0,0,1,.14-.06.13.13,0,0,1,.1,0,.24.24,0,0,1,0,.19,2.44,2.44,0,0,1,.29.27.11.11,0,0,1,.17,0c0,.07,0,.13,0,.18l0,0a1.83,1.83,0,0,1,.18.46,10.27,10.27,0,0,1,0,2.63.14.14,0,0,1,0,.09A2.64,2.64,0,0,0,37.56,9.37ZM29.75,8a.77.77,0,0,1,0,.15c.23-.26.73-.75,1.5-1.48.36-.33.6-.57.72-.69a6,6,0,0,0-1.13.91C30.47,7.25,30.11,7.62,29.75,8Zm.06.66a.38.38,0,0,0-.08.13c.2-.14.57-.44,1.13-.91L31,7.77c.46-.4,1-.83,1.5-1.28l.06,0V6.37l0,0-1,.84Q30.13,8.43,29.81,8.67Zm-.08,1.05a28.44,28.44,0,0,0,2.7-2.3v0c0-.07,0-.15,0-.21l-.35.29c-.71.62-1.24,1.09-1.57,1.4A5.45,5.45,0,0,0,29.73,9.72Zm0,.38,0,0L30,9.79a1.7,1.7,0,0,1-.29.2A.43.43,0,0,0,29.77,10.1Zm0-2.72a.5.5,0,0,1,0,.12L30,7.33A.37.37,0,0,1,29.81,7.38Zm0,3a2,2,0,0,0,0,.26.6.6,0,0,1,.08-.08c.15-.16.46-.43.91-.84A18,18,0,0,0,32.39,8.2V8.14a4.26,4.26,0,0,0-.95.72c-.34.3-.78.73-1.32,1.28C29.94,10.31,29.83,10.39,29.79,10.39Zm.1.94c.66-.59,1.23-1.12,1.71-1.6l-.31.26a14.53,14.53,0,0,1-1.42,1.14A.68.68,0,0,0,29.89,11.33Zm.05-4.68a2.18,2.18,0,0,0-.05.29c.25-.24.49-.45.7-.64a6.25,6.25,0,0,0,.71-.78Zm0,5.24q.14-.15.57-.54a24.1,24.1,0,0,0,1.84-1.87c-.11.08-.26.19-.42.33s-.52.47-1,.92a11.1,11.1,0,0,1-1.07,1A.85.85,0,0,1,30,11.89Zm.18.72a16.66,16.66,0,0,1,1.22-1.15l.53-.46c-.51.41-1.1.91-1.77,1.49A.25.25,0,0,0,30.16,12.61Zm2.23-3.92V8.57c-.23.25-.71.69-1.44,1.34l-.56.52C31,10,31.62,9.4,32.39,8.69ZM30.9,5.4a.81.81,0,0,1-.16.27l.39-.33Zm0,8.61a8.56,8.56,0,0,1,1.39-1.42l-.52.45c-.3.28-.61.59-.93.91A.17.17,0,0,0,30.92,14Zm1.71-3.21a.27.27,0,0,1,0-.13c-.17.17-.53.49-1.07,1l-.39.35.19-.16c.42-.36.82-.7,1.21-1Zm-.57-4.58c-.11.12-.34.34-.68.66l-.21.21,1.18-.89.12-.08a1.27,1.27,0,0,0-.12-.23A1.73,1.73,0,0,1,32.06,6.22Zm-.83,8.14.25-.31c.08-.08.17-.18.29-.29l-.6.54Zm.46-9a2.43,2.43,0,0,1-.35.49q.22-.21.45-.45Zm0,9.06a.36.36,0,0,1-.06.11,2,2,0,0,0,.3-.15,5.75,5.75,0,0,1,.5-.51ZM33,12.32l-.47.44-.8.72.26-.21a9.33,9.33,0,0,1,1.16-.93.39.39,0,0,0-.08-.1Zm-.72-.6a2.55,2.55,0,0,0,.29-.31,7.5,7.5,0,0,0-.6.56Zm4.91-1.23,0-.19a4.57,4.57,0,0,1-.35.31l-2.08,1.86a29.55,29.55,0,0,1-2.64,2.12.92.92,0,0,0-.17.21q.56-.35,3.4-2.81Q37,10.56,37.15,10.49Zm-4.66-.74-.49.53.51-.37A.78.78,0,0,1,32.49,9.75ZM32.08,5.6a.35.35,0,0,1-.06.09l.14,0Zm.22,9.26-.24.16,0,0ZM32.22,8a.51.51,0,0,1,.17-.08V7.77C32.34,7.84,32.28,7.9,32.22,8Zm.54,3.67-.39.27a.92.92,0,0,1-.11.14c.25-.22.43-.33.52-.31A.3.3,0,0,1,32.76,11.64Zm-.08,3.63a1.33,1.33,0,0,0,.12-.12,2.78,2.78,0,0,1,.29-.27h0l-.45.39Zm4-3c0-.05,0-.1.07-.16-.35.33-1.05.92-2.11,1.79-.69.56-1.15.94-1.38,1.15l-.26.25.28,0a2.8,2.8,0,0,1,.25-.22c.81-.64,1.47-1.19,2-1.63a9.18,9.18,0,0,0,1.17-1.14l0-.06Zm-3.31.25-.09.1Zm3.93-3a1.23,1.23,0,0,0,0-.19L34,12l0,0,0,.09.56-.44C35.36,11,36.29,10.26,37.29,9.52Zm-3,1.71a.76.76,0,0,0-.06.18l.15-.16,1.19-1.17.76-.73c-.13.11-.26.24-.39.37l-.66.58A11.74,11.74,0,0,1,34.26,11.23Zm.17-.72a.79.79,0,0,1-.06.22l.7-.61a0,0,0,0,1,0,0,16.7,16.7,0,0,1,1.75-1.59L37,8.37c-.61.48-1.43,1.19-2.45,2.12A.12.12,0,0,1,34.43,10.51Zm.49,3.93a.07.07,0,0,1,.06,0l-.1,0-.47.45A5.16,5.16,0,0,0,34.92,14.44ZM34.53,10a.14.14,0,0,0,0,.09.44.44,0,0,1,.12-.11c.11-.12.35-.35.72-.7.55-.53,1-.94,1.22-1.21l-2,1.67C34.55,9.86,34.54,10,34.53,10Zm.1-.7.13-.15L34.92,9a.49.49,0,0,1-.24.07h0A2,2,0,0,0,34.63,9.33Zm.13-2.12H34.7l0,0ZM34.7,8.69v0l.1-.09Zm.45-2.8-.43.5c.12-.1.29-.28.53-.52l.5-.51h-.07l-.1,0A3.91,3.91,0,0,1,35.15,5.89Zm2.08.19c-.4.35-.77.67-1.11,1s-.68.58-.91.76a3.46,3.46,0,0,0-.49.6,28.1,28.1,0,0,0,2.55-2.13s0,0,0,0ZM34.74,7.56v.08l0,0a3,3,0,0,1,.31-.31,3.37,3.37,0,0,1-.31.21A.09.09,0,0,1,34.74,7.56Zm1.54-2.2c-.26.24-.5.47-.72.7a4.84,4.84,0,0,0-.7.82q.28-.21,1.2-1l.45-.41ZM37.35,9c0-.11,0-.21,0-.31l-1.92,1.84ZM36.12,13.5a2,2,0,0,0,.12-.21l-.27.25a.22.22,0,0,1,.13-.06Zm0-2.6.59-.49.4-.36Zm.53-4.74-.49.47c.3-.26.62-.52,1-.78L37,5.73A2.1,2.1,0,0,1,36.61,6.16Zm.79.72L36.14,8.14q1.09-.89,1.26-1ZM36.2,12l.41-.33-.31.21A.53.53,0,0,0,36.2,12Zm.76-.56,0,0a.78.78,0,0,0-.18.11Zm.44-3.62V7.6l-.48.5A2,2,0,0,1,37.4,7.79Zm-.15,2.12.13-1.55V8.3l0,0S37.37,8.34,37.38,8.36Z"/><path class="a" d="M46.36,6.35q.09.11-.06.33a2.46,2.46,0,0,1,0,.26,1.93,1.93,0,0,1-.24.59,1.5,1.5,0,0,1-.43.44,1.46,1.46,0,0,1-.57.21l-.1,0-.08,0h-.09a1.4,1.4,0,0,0-.51.1.43.43,0,0,1-.21.09,3.6,3.6,0,0,0-1.4,1.44.33.33,0,0,1,0,.14.77.77,0,0,1-.26.39c0,.14,0,.33,0,.58a.19.19,0,0,0,.07.06.21.21,0,0,1,0,.19.42.42,0,0,1-.13.27v.16c0,.23,0,.41,0,.52l.09.06a.18.18,0,0,1,0,.16.4.4,0,0,1-.1.21c.05.08,0,.18-.06.29,0,.34-.06.64-.1.92l0,0q.09.12-.12.39a.3.3,0,0,1,0,.08,1.45,1.45,0,0,1-.11.25l0,0v0a.15.15,0,0,1,0,.14l-.06,0a1.62,1.62,0,0,1-.72.6l-.06,0a.13.13,0,0,1-.09,0l-.06,0a2.58,2.58,0,0,1-.39,0h-.06l-.08,0-.07,0-.06,0a1.74,1.74,0,0,1-.72-.29.29.29,0,0,1-.16,0,.11.11,0,0,1-.11-.06.28.28,0,0,1-.06-.18l0-.1h0l0,0a1,1,0,0,1-.18-.31.07.07,0,0,1-.07,0,.09.09,0,0,1-.08,0,.21.21,0,0,1-.06-.16.58.58,0,0,1,.1-.19,1.14,1.14,0,0,1,0-.27v-.53h0a.31.31,0,0,1,0-.21.27.27,0,0,1,0-.14v-.19a.49.49,0,0,1-.06-.31.3.3,0,0,0,0-.1c0-.05,0-.12,0-.2q0-.69,0-1.26v-.15a.12.12,0,0,1,0-.16v-.15l0,0a.34.34,0,0,1-.06-.2A.47.47,0,0,1,38.9,10l0,0a.19.19,0,0,1,0-.12s0-.12.14-.21a1.72,1.72,0,0,1,0-.33q0-.08,0-.12c0-.1,0-.17,0-.21a.53.53,0,0,1,0-.16.09.09,0,0,1-.08,0c-.07-.08,0-.19.1-.35V8.36a.11.11,0,0,1,0-.16c0-.17,0-.38,0-.64a.33.33,0,0,1,0-.14v0l0,0c0-.32,0-.56,0-.71V6.51s0-.13,0-.23a1.69,1.69,0,0,1,.14-.45s0-.1,0-.16h.08A1.37,1.37,0,0,1,40.63,5a1.47,1.47,0,0,1,1.07.42h.06a.15.15,0,0,1,.09,0,.17.17,0,0,1,0,.18,1.76,1.76,0,0,1,.14.23h0a.1.1,0,0,1,.07.06c.06.05,0,.12,0,.21a.18.18,0,0,1,0,.06,5.66,5.66,0,0,1,.8-.62,3.1,3.1,0,0,1,.8-.39A.93.93,0,0,1,44.09,5h0a.28.28,0,0,1,.13,0l.27,0h.13l.09,0a1.8,1.8,0,0,1,.7.22h0a.12.12,0,0,1,.1,0,.24.24,0,0,1,.06.11,1.63,1.63,0,0,1,.6.88A.24.24,0,0,1,46.36,6.35ZM39.15,11v.13l.43-.43A2.13,2.13,0,0,1,39.15,11Zm0,.73v0l0,0Zm0-1.06,0,0a3.82,3.82,0,0,0,.45-.33A3.18,3.18,0,0,1,39.19,10.71Zm0,1.55v.31h0a8.62,8.62,0,0,1,.72-.6q.26-.24.78-.78l.29-.33a.15.15,0,0,1-.06,0,5.11,5.11,0,0,1-.74.52l0,0-.79.64-.2.16Zm0,1.18a2.86,2.86,0,0,0,.29-.27l.66-.66h0q-.72.59-.93.72v.21Zm3.69-4.85c1.3-1.1,2.13-1.83,2.51-2.18L45.8,6l0,0a.76.76,0,0,0-.11-.14,6.05,6.05,0,0,1-.95,1c-.42.37-1.21,1-2.37,2s-1.8,1.46-2.2,1.81a6.4,6.4,0,0,0-1,1l.09,0h.11a20.59,20.59,0,0,1,3.12-2.68ZM39.19,10v.11a6.82,6.82,0,0,0,.74-.54l1-.88L42.2,7.54l.37-.33,0,0c-1.15.87-2,1.49-2.41,1.86A6.12,6.12,0,0,0,39.19,10Zm0-.59s0,0,0,0Zm1.46,2.3-.59.44a4.18,4.18,0,0,1-.73.6l-.14.16C39.47,12.73,40,12.32,40.67,11.72Zm-1.4-3a1.94,1.94,0,0,1,0,.24l1.09-1.11Zm.12,5.81,1.34-1.16a9.38,9.38,0,0,0,1.18-1.23l-2.64,2.14C39.31,14.35,39.35,14.44,39.39,14.51ZM39.33,7.7a1.23,1.23,0,0,0,0,.27l1-1A3.11,3.11,0,0,1,39.33,7.7Zm.48-.86a3.08,3.08,0,0,0-.48.6A2.23,2.23,0,0,0,40,7c.23-.2.58-.52,1.05-1a3.72,3.72,0,0,1,.48-.47l-.17-.14a.71.71,0,0,1-.16.18l-.37.33Q40.13,6.53,39.81,6.84ZM39.35,7V7l0,0Zm0-.45v0a.08.08,0,0,0,0,0Zm.81-1.26-.64.83c.12-.1.3-.27.54-.5a5.36,5.36,0,0,1,.41-.39Zm-.56,9.53a3.79,3.79,0,0,0,.39-.29,2.77,2.77,0,0,1-.41.27h0Zm2.29-8.19L39.68,8.86,40,8.59c.28-.25.78-.71,1.47-1.4s1-.94,1.23-1.18a3.93,3.93,0,0,0-.57.5l-.19.19Zm-1.52,8.54c.63-.7,1.07-1.21,1.35-1.55a7.17,7.17,0,0,0-.86.72c-.24.23-.5.49-.76.78l.22.05Zm1.35-9.3-.22.25c-.22.25-.52.57-.91,1l-.22.2.16-.12c.2-.17.34-.29.45-.37l.58-.58L41.79,6A.46.46,0,0,0,41.74,5.85Zm.4,5.5v-.14a4.43,4.43,0,0,0-.5.39l-1.11,1.07-.12.11a.4.4,0,0,0,.12-.07l1.24-1ZM40.9,5.23l-.08.11A.33.33,0,0,1,41,5.25.12.12,0,0,0,40.9,5.23Zm1,8.89-.74.7-.31.33.2-.05C41.41,14.69,41.7,14.37,41.89,14.12Zm2.37-7.24-1.2.85-1.21,1L41,9.52l1.22-1C43.2,7.77,43.87,7.22,44.26,6.88Zm-2,3.17a.14.14,0,0,1,0-.06,2.65,2.65,0,0,0-.41.33,11.67,11.67,0,0,0-.83.85l.93-.72a2.73,2.73,0,0,0,.25-.23,1,1,0,0,1,0-.16Zm-.1.89V10.8L42,11l-.16.15A2,2,0,0,1,42.16,10.94ZM42,13.74l0-.06a.81.81,0,0,0-.12.13l-.06.06a.65.65,0,0,1,.16-.09Zm.11-1.42a.1.1,0,0,0,0-.06l-.27.31A2,2,0,0,0,42.1,12.32Zm-.05.95a.78.78,0,0,0,0-.16.81.81,0,0,1-.16.16l.06,0Zm1.53-7.42c-.24.18-.52.4-.82.66L42,7.17c.39-.31.71-.58,1-.82A5.25,5.25,0,0,0,43.58,5.85Zm-1.09,3.4.06-.08-.17.16s0,0,0-.05Zm0,.43.08-.14-.15.14Zm1.34-4.32-.17.14a1.15,1.15,0,0,0,.19-.14Zm.49,0a3,3,0,0,1-.52.65,8.36,8.36,0,0,0,.85-.74h-.08A1,1,0,0,0,44.28,5.36Zm1.15,2L46,6.76l-.66.55a2.85,2.85,0,0,0-.27.25l-.37.37h.23l.06,0,.06,0h0s0-.11.13-.22Zm0-1.86a1.25,1.25,0,0,0-.2.14.53.53,0,0,1,.2-.12Zm.13,1.2A2.61,2.61,0,0,1,46,6.34.44.44,0,0,0,46,6.18a.78.78,0,0,1-.23.23l-.18.18c-.1.11-.22.23-.35.35A2.7,2.7,0,0,0,45.52,6.72Zm.45.39s0,0,0,0h0A.05.05,0,0,0,46,7.11Z"/><path class="a" d="M50.69,8.76a.05.05,0,0,1,0,0,0,0,0,0,1,0,0v.33l0,0a.2.2,0,0,1,0,.25c0,.37,0,.76,0,1.17a.1.1,0,0,1,.08,0,.24.24,0,0,1,0,.19.58.58,0,0,1-.14.25v.39a.13.13,0,0,1,0,.18h0v.7c0,.35,0,.76-.06,1.24a.2.2,0,0,1,0,.25,1.41,1.41,0,0,1-.11.47.17.17,0,0,1,0,.14h0a1.56,1.56,0,0,1-.44.6,1.35,1.35,0,0,1-.63.32.33.33,0,0,1-.13.06h0l0,0H48.9a2.46,2.46,0,0,1-.4,0s0,0,0,0h0l-.09,0-.09-.05a.12.12,0,0,1,0-.1,1.44,1.44,0,0,1-.54-.41l0,0a.09.09,0,0,1-.09,0,.14.14,0,0,1-.09-.05c-.05-.06,0-.14,0-.23a.3.3,0,0,0,0-.08l0,0a.14.14,0,0,1,0-.09c0-.1-.07-.19-.1-.28s0,0,0,0a.15.15,0,0,1,0-.15.44.44,0,0,1,0-.1c0-.15,0-.32,0-.48a.17.17,0,0,1,0-.14V13a.12.12,0,0,1-.08,0c-.06-.09,0-.22.1-.39v-.8c0-.9.05-1.54.06-1.9,0,0,0,0,0,0s0-.14,0-.23c0-.53,0-1,0-1.38,0,0,0,0,0,0s0-.15.06-.25v-.1l-.08,0a.29.29,0,0,1-.06-.19.58.58,0,0,1,.14-.27V7.27a.21.21,0,0,1,0-.2V6.86l0,0a.24.24,0,0,1-.06-.19.55.55,0,0,1,.08-.18v0a.19.19,0,0,1-.06-.17.91.91,0,0,1,.08-.2V5.93a.06.06,0,0,1,0-.08V5.79a1.62,1.62,0,0,1,0-.33.12.12,0,0,1,0-.14c0-.5,0-.86,0-1.08a2.71,2.71,0,0,0,0-.29s0,0,0,0,0-.16,0-.28a3.85,3.85,0,0,0,0-.4.1.1,0,0,1,0-.16l0,0c0-.18,0-.39.06-.62a.11.11,0,0,1,0-.06c0-.06,0-.14,0-.23l0,0c0-.07,0-.17.08-.31a.08.08,0,0,1,0,0,2.52,2.52,0,0,1,.13-.33.12.12,0,0,1,0-.14s0,0,0,0l0,0a1.44,1.44,0,0,1,.68-.55l0,0a1.62,1.62,0,0,1,.49-.08h.13a1.55,1.55,0,0,1,.8.31l.13,0a.46.46,0,0,1,.14,0,.28.28,0,0,1,0,.28,1.53,1.53,0,0,1,.31,1.06c0,.15,0,.31,0,.49a.1.1,0,0,1,.08,0,.21.21,0,0,1,0,.14.54.54,0,0,1-.14.23v.6l0,0a.25.25,0,0,1,0,.16.69.69,0,0,1-.06.13v.45a.09.09,0,0,1,.06,0,.15.15,0,0,1,0,.13.5.5,0,0,1-.09.18.32.32,0,0,0,0,.08.31.31,0,0,1,0,.09.1.1,0,0,1,0,.14c0,.37,0,.67,0,.89v.39c.09.1.08.24,0,.41v.66a.21.21,0,0,1,.08.06c0,.06,0,.14-.06.23l0,0v.7a.05.05,0,0,1,.06,0C50.76,8.66,50.76,8.71,50.69,8.76ZM47.52,13l.49-.45c.5-.45.9-.81,1.18-1.09l-1.67,1.36V13Zm0-1.13V12a28.43,28.43,0,0,0,2.82-2.56,3.57,3.57,0,0,0-.6.44c-.25.22-.64.59-1.19,1.11A6.4,6.4,0,0,1,47.54,11.87Zm0-.52a.69.69,0,0,0,0,.13l.31-.31.06,0A1,1,0,0,1,47.56,11.35Zm0,2.52a.6.6,0,0,0,.14-.11l-.06,0A.73.73,0,0,1,47.56,13.87Zm0-4.12v.18a2.71,2.71,0,0,1,.24-.25c.25-.26.61-.61,1.06-1L49,8.55Zm0-.58v.18c.13-.12.39-.33.78-.65.7-.56,1.19-1,1.47-1.26a2.78,2.78,0,0,0,.49-.5Zm0-1.07v.26l.25-.26c.25-.24.59-.59,1-1Zm2.78.53v-.1L50,8.84c-.71.58-1.24,1-1.59,1.34a4.14,4.14,0,0,0-.8.86c.18-.13.64-.53,1.38-1.21A16.39,16.39,0,0,1,50.4,8.63ZM47.64,7.42v0c.21-.15.63-.52,1.26-1.1-.37.28-.66.51-.85.69A3.19,3.19,0,0,0,47.64,7.42Zm0-.89c.3-.21.85-.65,1.65-1.34l0,0c-.58.43-1,.73-1.2.91A3.08,3.08,0,0,0,47.66,6.53Zm0-1.63v.17l.52-.48a21.29,21.29,0,0,0,2.06-2,5.32,5.32,0,0,0-1.36,1c-.42.42-.82.82-1.18,1.21Zm.1-1.63a.23.23,0,0,0,0,.09l.85-.75a14.31,14.31,0,0,0,1.42-1.36,13,13,0,0,0-1.13,1A10.39,10.39,0,0,1,47.8,3.27ZM48.63,5c.52-.42,1.08-.9,1.67-1.41a.13.13,0,0,1,.1,0v-.1c-.18.17-.53.46-1,.88s-1,.77-1.18,1a1.76,1.76,0,0,0-.39.4.35.35,0,0,1,.09-.07C48.05,5.46,48.31,5.25,48.63,5Zm.56-.11-.4.31c-.31.26-.57.46-.76.6L47.78,6C48.07,5.8,48.55,5.42,49.19,4.88Zm1.17-3.09L50.15,2l-.74.64a14.37,14.37,0,0,0-1.61,1.5,2.72,2.72,0,0,0,.62-.45c.17-.13.37-.29.6-.5L49.19,3c.39-.36.79-.75,1.19-1.16A.24.24,0,0,0,50.36,1.79Zm-2.51.74a.82.82,0,0,1,0,.21l.45-.5A2.44,2.44,0,0,1,47.85,2.53ZM49.39,7c.21-.19.36-.34.46-.44a3.06,3.06,0,0,1,.29-.26,1.37,1.37,0,0,1,.18-.15.19.19,0,0,1,.12,0V5.85L47.89,8.43a3.71,3.71,0,0,0,.39-.31C48.51,7.92,48.88,7.55,49.39,7ZM48.22,14.8l.18-.15c.52-.48.91-.86,1.18-1.15s.37-.4.49-.54l-2.16,1.75a2.18,2.18,0,0,0,.22.21Zm2.2-7V7.5c-1.1,1-1.92,1.83-2.45,2.37.34-.32.92-.83,1.75-1.51l.68-.59S50.42,7.77,50.42,7.75Zm-.1,4.3c0-.11,0-.17,0-.2-.92.79-1.64,1.45-2.16,2,.09-.07.23-.2.41-.37A8.85,8.85,0,0,1,50.32,12.05Zm0-1.85s0-.06,0-.12l-.18.16-.91.8c-.44.36-.76.63-.95.81Zm-2,4.86a.66.66,0,0,1,.12-.12l-.14.12Zm1.9-10.38-.68.63-1,.91c.56-.45,1.17-1,1.83-1.54V4.59ZM49,15.17a3.33,3.33,0,0,1,.72-.83l.35-.35c-.34.27-.78.66-1.34,1.16a1.1,1.1,0,0,0,.25,0ZM48.73,1l.06,0h0Zm1,0-1,1.11h0c.55-.54.92-.89,1.1-1ZM50,13.56c-.19.16-.5.44-.93.86l-.16.13a1.45,1.45,0,0,1,.2-.15C49.56,14,49.85,13.73,50,13.56ZM49.39.88a.83.83,0,0,1-.16.21c.07-.05.14-.12.22-.19Zm.76,13.42,0-.08-.31.29a4.57,4.57,0,0,0-.4.41C49.66,14.75,49.89,14.55,50.15,14.3Zm.29-8.78a.13.13,0,0,1,0-.08l-.8.72.29-.23c.27-.22.43-.35.47-.37ZM50.2,1.44a5.15,5.15,0,0,1-.54.56l.58-.48Zm.16,9.3v-.07c-.12.13-.27.29-.47.48Zm0-2.56s0,0,0-.06l-.31.31Zm-.1,4.93v0s0,0,0,.05Zm.12-10.82h0l-.1.09h0l.08,0v-.1Zm0,4.26v0h0l-.1.12a.18.18,0,0,1,.08-.06Zm0,2.56v0a.05.05,0,0,0,0,0,.05.05,0,0,1,0,0Zm-.06-6.17a.09.09,0,0,1,.06,0v0Z"/><path class="a" d="M61.08,6.32a1.4,1.4,0,0,1,0,.54,8.3,8.3,0,0,1-.29,1.07.1.1,0,0,1,0,.17l0,0a10,10,0,0,1-.35,1v.1a.77.77,0,0,1-.15.33,1.21,1.21,0,0,1-.08.19.29.29,0,0,1,0,.09.12.12,0,0,1,0,.09L60,10l-.11.27a4.38,4.38,0,0,1-.22.54c0,.13-.09.27-.15.43a.39.39,0,0,1,0,.23,1.23,1.23,0,0,1-.33.55l-.14.31a.12.12,0,0,1,0,.15h0a.05.05,0,0,1,0,0c0,.11-.08.21-.11.31a.46.46,0,0,1,0,.2,1.36,1.36,0,0,1-.32.58l-.21.56a.09.09,0,0,1,0,.1c0,.07-.05.15-.16.25a1.08,1.08,0,0,1-.06.2,1.41,1.41,0,0,0-.07.15q-.35,1-.51,1.38a.14.14,0,0,1,0,.14.64.64,0,0,1-.19.33c-.07.17-.12.32-.18.45h0c.09.11,0,.28-.21.53-.05.14-.1.28-.16.41s0,.07,0,.11a3.65,3.65,0,0,1-.14.35c0,.07-.05.15-.08.24l0,0c0,.06,0,.14-.06.23l0,.06c-.07.18-.13.33-.18.44a.14.14,0,0,1,0,.06.1.1,0,0,1,0,.14.05.05,0,0,1,0,0s0,0,0,0a1.51,1.51,0,0,1-1.32.7,1.8,1.8,0,0,1-.5-.08,1,1,0,0,1-.16-.06.12.12,0,0,1-.11,0,.13.13,0,0,1-.1,0,.12.12,0,0,1,0-.12l-.16-.11a.17.17,0,0,1-.11,0,.18.18,0,0,1-.1,0,.17.17,0,0,1,0-.14h0a.22.22,0,0,1-.13-.08.18.18,0,0,1,0-.17.16.16,0,0,1,0-.1.8.8,0,0,1-.12-.27l-.06,0a.12.12,0,0,1-.08-.06c-.06-.08,0-.19.08-.35a1.4,1.4,0,0,1,0-.41s0-.07,0-.11v-.06a.29.29,0,0,1,.08-.2.41.41,0,0,0,0-.07c.06-.2.14-.42.23-.68v0a.1.1,0,0,1,0-.08c0-.12.09-.28.15-.49,0-.06,0-.16.1-.29v0s0-.06,0-.07l0,0a.41.41,0,0,1-.08-.29,1.59,1.59,0,0,1,.27-.51v0a.77.77,0,0,1,.22-.31l0-.06a.51.51,0,0,1,0-.13.83.83,0,0,1,.19-.33c0-.07,0-.2-.08-.39a.11.11,0,0,1-.09-.06.07.07,0,0,1,0-.08.31.31,0,0,1,0-.08A1.12,1.12,0,0,0,54.4,14a.15.15,0,0,1-.14,0,.11.11,0,0,1,0-.17l0,0c-.2-.46-.41-.89-.6-1.31h0a.17.17,0,0,1-.1,0,.12.12,0,0,1,0-.18l0,0a.71.71,0,0,0-.07-.15h0a.32.32,0,0,1-.14-.08c0-.07,0-.14,0-.22-.16-.35-.3-.68-.43-1l-.08,0a.13.13,0,0,1,0-.18l-.27-.68h0a.1.1,0,0,1-.09,0,.18.18,0,0,1,0-.17.19.19,0,0,1,0-.12c-.12-.32-.22-.62-.31-.89a.05.05,0,0,1,0,0,.11.11,0,0,1,0-.14,14.51,14.51,0,0,1-.39-1.4,1.79,1.79,0,0,1,0-.23l0,0a.26.26,0,0,1,0-.27,1,1,0,0,1,0-.18V6.32a.23.23,0,0,1,0-.22,1.33,1.33,0,0,1,.39-.69,1.45,1.45,0,0,1,.7-.38,2.1,2.1,0,0,1,.37,0,1.8,1.8,0,0,1,.5.08h0s0,0,.08,0a1.61,1.61,0,0,1,.7.64,4.61,4.61,0,0,1,.17.47.14.14,0,0,0,0,.06,13.53,13.53,0,0,0,.55,1.32h0a.11.11,0,0,1,0,.08l.14.31h0a.08.08,0,0,1,.08,0,.14.14,0,0,1,0,.17.93.93,0,0,0,0,.1.14.14,0,0,1,0,.07.2.2,0,0,1,.1.08s0,.09,0,.16l.1.19.08,0a.1.1,0,0,1,.09.06c0,.05,0,.12,0,.21a1.36,1.36,0,0,0,.13.3l0,0a.15.15,0,0,1,0,.11l0,.06,0,.06h0a.1.1,0,0,1,.09,0,.2.2,0,0,1,0,.21.75.75,0,0,1,.08.18h0a.13.13,0,0,1,.08,0l0,0,0,0c.06-.18.13-.34.19-.5V9.42a.9.9,0,0,1,.22-.4l.15-.37a.24.24,0,0,1,0-.12,1,1,0,0,1,.21-.41s0,0,.05-.09l0-.1c.25-.58.43-1,.55-1.3-.09-.11,0-.31.23-.61A1.54,1.54,0,0,1,59,5.09l0,0a.12.12,0,0,1,.1,0A1.35,1.35,0,0,1,59.59,5,2.33,2.33,0,0,1,60,5l.16,0,.14,0a.17.17,0,0,1,.11.06.08.08,0,0,1,0,.1,1.52,1.52,0,0,1,.41.39s0,0,.06,0,.06,0,.08.06a.12.12,0,0,1,0,.13.44.44,0,0,1,0,.1c0,.1.07.21.09.31A.11.11,0,0,1,61.08,6.32Zm-8.21-.61a10.1,10.1,0,0,0-.86.84c.16-.12.41-.33.76-.64A1.21,1.21,0,0,1,53,5.69l.1-.11.35-.33-.14,0a.62.62,0,0,1-.13.17C53.12,5.45,53,5.56,52.87,5.71Zm-.78,1.67,1-1.06-.18.15a8.51,8.51,0,0,1-.91.74A.7.7,0,0,0,52.09,7.38Zm.1.39.44-.39.8-.75c.21-.21.37-.39.5-.53-.45.35-1,.87-1.78,1.56A.23.23,0,0,0,52.19,7.77Zm.07.27.06.2A1.68,1.68,0,0,1,52.5,8l.83-.86c.39-.39.66-.66.8-.82a4.07,4.07,0,0,0-.35.3,1.53,1.53,0,0,0-.16.13L53.39,7l-.56.53s0,0,0,0A3.77,3.77,0,0,1,52.26,8Zm.14-2.33a.33.33,0,0,0-.06.08l.21-.23.28-.27-.12,0a.5.5,0,0,1-.1.16A1.12,1.12,0,0,1,52.4,5.71Zm.12,3.09a1.31,1.31,0,0,1,.19-.21L53.23,8c.41-.38.7-.68.88-.87l-1.69,1.4A2.29,2.29,0,0,1,52.52,8.8Zm1.22-3.46c-.19.19-.39.36-.58.53a2.32,2.32,0,0,0-.22.21l-.5.51.35-.31a10.37,10.37,0,0,1,1.07-.88ZM52.63,9.05h0v0Zm.24.41c.25-.19.66-.52,1.2-1a1.22,1.22,0,0,1-.16.14l-.85.66Zm.05.49.1-.12.35-.39.21-.23c-.32.27-.56.46-.71.56A1.67,1.67,0,0,0,52.92,10Zm.12.25a.64.64,0,0,0,.06.16l.46-.47A4.78,4.78,0,0,0,54,9.44,10.07,10.07,0,0,1,53,10.2Zm.25.64c.93-1,1.6-1.67,2-2.1a7.35,7.35,0,0,0-1.08.9q-.22.19-.45.42l-.54.55A1.09,1.09,0,0,0,53.29,10.84Zm.16.41a.69.69,0,0,1,.1-.19l-.16,0A.46.46,0,0,1,53.45,11.25Zm.83-4.7-.75.78c.55-.46.89-.72,1-.8a1.84,1.84,0,0,1-.06-.18h0Zm-.68,5,0,0-.06,0,0,.06Zm0,7.11.31-.31c.38-.38.91-.87,1.6-1.48.42-.39.9-.81,1.43-1.26L56.5,16a2.62,2.62,0,0,1-.29.21l-.2.18c-.58.52-1.31,1.2-2.17,2a1,1,0,0,1-.22.19v0A.24.24,0,0,0,53.6,18.67Zm.1-7.4a6.36,6.36,0,0,0,1.17-.93l1-.9-.1-.21-.08.06c-.54.49-1,.88-1.22,1.16A4.31,4.31,0,0,0,53.7,11.27Zm.06.7,0,0s0,0,0,0c.14-.15.29-.29.44-.43A2.55,2.55,0,0,1,53.76,12Zm.06,7.69.27-.17a.76.76,0,0,1-.25.09.13.13,0,0,0,0,.06A0,0,0,0,1,53.82,19.66Zm.23-14.08a1,1,0,0,1-.19.27,2.24,2.24,0,0,1,.29-.19A.39.39,0,0,0,54.05,5.58Zm-.14,6.76a0,0,0,0,1,0,0,.09.09,0,0,1,0,.05q.45-.39.84-.78C54.39,12,54.1,12.21,53.91,12.34Zm0,5.2a.3.3,0,0,1,0,.1.07.07,0,0,0,.06,0l.18-.13A1.21,1.21,0,0,1,54,17.54Zm1.19-9.63a.44.44,0,0,0-.08.1l-.52.54c-.28.28-.48.5-.61.64l.61-.5.56-.47.12-.1C55.18,8,55.15,8,55.14,7.91ZM54.05,19.06c.23-.2.62-.49,1.15-.88l.5-.52c-.54.43-1,.76-1.22,1Zm.14-6.41.33-.29a8,8,0,0,1,.91-.86c.32-.31.56-.54.7-.7a5.55,5.55,0,0,0-.49.41c-.24.21-.6.53-1.07,1-.28.29-.45.45-.5.49s0,0,0,.06A.3.3,0,0,0,54.19,12.65ZM54.75,7a1,1,0,0,0-.08-.15,4.71,4.71,0,0,1-.58.66A6.24,6.24,0,0,1,54.75,7Zm-.6,13,.21-.23-.25.19Zm0-3.13a.07.07,0,0,0,0,.06.3.3,0,0,0,0,.08,4.4,4.4,0,0,1,.35-.27A1,1,0,0,1,54.19,16.88ZM55.37,9l-.8.83-.4.43,1-.89c.22-.21.37-.35.44-.43a.45.45,0,0,0-.07-.14Zm2.1,4.83c-1.62,1.36-2.65,2.26-3.09,2.68a9.35,9.35,0,0,0,.93-.72c.4-.34,1-.93,1.95-1.76Zm-2.93-.44c.1,0,.38-.19.83-.59.29-.27.8-.79,1.56-1.57a1.6,1.6,0,0,1,.21-.23l-2.41,2a.75.75,0,0,0-.21.39S54.52,13.39,54.54,13.41Zm0,2.33,0,.13,3.42-2.78c-.34.25-.83.59-1.46,1l-.43.3-.06,0C55.2,15.19,54.73,15.62,54.57,15.74Zm.14,4.5a2.65,2.65,0,0,1,.18-.29,3.6,3.6,0,0,1-.33.25A.28.28,0,0,0,54.71,20.24Zm-.12-6.41.1.18.62-.49.95-.89,1.09-1C56.5,12.31,55.58,13.06,54.59,13.83Zm1.52-2.56-.33.27-.18.14c-.16.17-.42.4-.77.72l0,0s0,0,0,0l0,0a5.55,5.55,0,0,0,.53-.44C55.48,11.86,55.77,11.59,56.11,11.27Zm-.37,6.82-.08.06a3.58,3.58,0,0,0-.31.23l-.64.6a1.84,1.84,0,0,0,.22-.17l.4-.35Zm1.88-2.45a1.1,1.1,0,0,0,.09-.23.6.6,0,0,1,.07-.18l-2,1.71-1,.95c.21-.17.41-.33.6-.5l.93-.78.65-.51c.15-.13.28-.22.38-.3l.22-.13Zm-2.85,4.1.91-.78ZM55,7.68s0,0,0,0S55,7.66,55,7.68Zm2.45,4.44c-.45.38-1,.77-1.48,1.19a7.1,7.1,0,0,0-.93,1,24.73,24.73,0,0,0,2.16-1.86l1-.92Zm-2,8.05a1.15,1.15,0,0,1,.31-.55l-.7.64A1.24,1.24,0,0,0,55.49,20.17Zm3.81-8.94a.28.28,0,0,0,0-.08c-.24.24-.82.71-1.74,1.42s-1.58,1.28-2,1.59l-.31.29Zm-.86,2.23a2.55,2.55,0,0,0,.1-.25c-.18.16-.55.49-1.11,1-.92.86-1.59,1.46-2,1.81.75-.57,1.36-1.06,1.83-1.46A8.88,8.88,0,0,0,58.44,13.46Zm-2.51-3.18-.36.39c.19-.16.38-.32.56-.49a.19.19,0,0,0,0-.1A.94.94,0,0,1,55.93,10.28Zm.51,8.55a.52.52,0,0,1,.06-.2l-.58.56A2,2,0,0,1,56.44,18.83Zm-.33.81v0l0,0v0Zm1.16-3.05a.34.34,0,0,0,0-.13,3.27,3.27,0,0,0-.4.35c-.15.12-.33.3-.55.52.2-.14.36-.27.51-.39Zm3.4-9.17c.06-.19.1-.39.14-.58a.05.05,0,0,1-.06,0l-.06,0a.56.56,0,0,0-.15,0C58.66,8.47,57.45,9.53,56.91,10l-.2.19c0,.12-.09.25-.15.41l1-.78c.6-.57,1.09-1,1.44-1.34s.68-.59,1-.8a1.25,1.25,0,0,1,.62-.29Zm-3.24,3.81a21.66,21.66,0,0,0,2.7-2.43h0a.92.92,0,0,0-.48.23,6.9,6.9,0,0,0-.81.68c-.33.3-.6.56-.82.78l-.9.93a2.52,2.52,0,0,1-.33.33Zm-.41,6h0Zm.12-8.14c0,.08,0,.15-.08.22l.74-.59a11.73,11.73,0,0,1,2.58-2.15l.45-.37s0-.1,0-.14a16.4,16.4,0,0,1-1.51,1.25A18.18,18.18,0,0,0,57.14,9.13Zm.52-1.05a.86.86,0,0,1-.07.1.52.52,0,0,1,.11-.1Zm.28-.83v0a.07.07,0,0,0,0,.06.22.22,0,0,1,.09-.1Zm.44-1.09,0,0c.3-.23.66-.54,1.09-.93a.66.66,0,0,0-.27.06A8.51,8.51,0,0,0,58.38,6.16Zm1.52-.43L58.52,7.05l.66-.5.56-.43c.25-.23.46-.44.64-.62l-.15-.1A2.44,2.44,0,0,1,59.9,5.73Zm-.33,4.78a2.18,2.18,0,0,1,.09-.23l-.62.46a2,2,0,0,1-.21.2c.37-.3.61-.44.72-.43ZM59.2,8.7c.68-.5,1.12-.84,1.3-1a6,6,0,0,0-1,.77Zm.58,1,.14-.18-.29.23Zm0-4.45,0,.09.1-.07Zm.49,3.36c0-.07.05-.13.07-.2l-.17.16A.13.13,0,0,1,60.29,8.61Zm.25-2.86.06,0,0,0Zm.31.84v0l0,0A0,0,0,0,1,60.85,6.59Z"/></svg>