<svg xmlns="http://www.w3.org/2000/svg" viewBox="0 0 106.98 46.47"><defs><style>.a{fill:#29abe2;}</style></defs><path class="a" d="M36.37,19.65a1.31,1.31,0,0,1-.28.62v.53a.33.33,0,0,1,.13.13c.15.15.1.4-.13.75Q36,27,36,28.91a.36.36,0,0,1,0,.35c0,.3.05.55.05.75A4.1,4.1,0,0,1,35,33.16a4,4,0,0,1-1.91,1.06.81.81,0,0,1-.13.11.27.27,0,0,1-.18.07h0a.28.28,0,0,1-.18-.13h-.26a4.32,4.32,0,0,1-.85-.09s0,0,0,0l-.09.09c-.12.12-.24.1-.35,0a.19.19,0,0,1-.09-.23,3.72,3.72,0,0,1-.67-.31A.29.29,0,0,1,30,33.6a3.65,3.65,0,0,1-1.51-2.13c0-.11-.06-.25-.09-.39a.29.29,0,0,1-.13-.14.34.34,0,0,1,0-.48,2.49,2.49,0,0,0,0-.49v0a.51.51,0,0,1-.13-.39,1.29,1.29,0,0,1,.13-.31c0-1.33,0-3.18,0-5.54a.28.28,0,0,1,0-.22c0-1.95.06-3.39.09-4.3v-.05a1.76,1.76,0,0,0-.14-.93h0a.25.25,0,0,1-.18-.13.29.29,0,0,1-.09-.22.75.75,0,0,0-.26,0h-.13c-.39.29-.8.62-1.25,1v0a.31.31,0,0,1-.08.23h-.05a6.78,6.78,0,0,0-.71,2.88v1.37a.14.14,0,0,0,.05.09.19.19,0,0,1,0,.22.43.43,0,0,1-.09.26.26.26,0,0,1,.18.09.92.92,0,0,1,.13.49,1.89,1.89,0,0,1-.35.71c0,.38,0,.86,0,1.42a.28.28,0,0,1,0,.22v.09h0v.31a.28.28,0,0,1,.22.09.45.45,0,0,1,.09.39,1.83,1.83,0,0,1-.31.67c0,.77,0,1.31,0,1.64a.47.47,0,0,1,0,.4,1.62,1.62,0,0,1-.05.4c.12.14.06.41-.17.79a4.52,4.52,0,0,1-.49,1.24,3.67,3.67,0,0,1-1.4,1.47,3.85,3.85,0,0,1-2,.53,3.27,3.27,0,0,1-.53,0,3.51,3.51,0,0,1-2.35-1.28.25.25,0,0,1-.4,0,.55.55,0,0,1-.13-.48.41.41,0,0,1,0-.18,3.74,3.74,0,0,1-.23-.44.69.69,0,0,1-.35-.18.23.23,0,0,1-.07-.2.4.4,0,0,1,.25-.29,5.27,5.27,0,0,1-.14-.8.59.59,0,0,1-.17-.13.48.48,0,0,1-.09-.4,1.46,1.46,0,0,1,.18-.44.23.23,0,0,1,0-.27,6.38,6.38,0,0,0-.05-.7.43.43,0,0,1-.2-.14.23.23,0,0,1,0-.2.37.37,0,0,1,.11-.2l.09,0c-.09-1.65-.15-3.31-.18-5a.14.14,0,0,1-.13-.09.27.27,0,0,1,0-.4l.13-.13V21.11a.88.88,0,0,1-.13-.62,1.66,1.66,0,0,1,.17-.45c0-.41,0-.84.05-1.28-.06,0-.09,0-.09,0s-.12-.4.09-.67a3.71,3.71,0,0,0,0-.66l0-.05a.25.25,0,0,1,0-.4l.05,0c0-.12,0-.34,0-.67h0a.45.45,0,0,1-.09-.39.67.67,0,0,1,.18-.4c0-.3,0-.5,0-.62a.2.2,0,0,1,0-.22.56.56,0,0,1,.08-.27v-.15a.42.42,0,0,1,.05-.2q0-.5.09-1.2a.56.56,0,0,1-.14-.09c-.14-.18-.07-.43.23-.75.08-.65.17-1.36.26-2.13a.28.28,0,0,1,0-.22q.13-.93.36-2.7a.6.6,0,0,1,0-.16,1.5,1.5,0,0,0,0-.2.26.26,0,0,1-.18-.09c-.17-.23-.06-.6.36-1.1a5,5,0,0,0,0-.62.41.41,0,0,1,.05-.18V4.41a.74.74,0,0,0,0-.23,7.73,7.73,0,0,1,.31-1.24,3,3,0,0,1,.36-.66c0-.09,0-.15.08-.18v0A3.39,3.39,0,0,1,22.31.55a4.3,4.3,0,0,1,.84.09.39.39,0,0,0,.18,0h0c.12-.11.24-.1.36,0a.14.14,0,0,1,.08.13,4.12,4.12,0,0,1,.93.58.45.45,0,0,1,.45.44v.05a3.73,3.73,0,0,1,.71,2.52c0,.62-.08,1.51-.14,2.66l.09.09a.48.48,0,0,1,.09.4.74.74,0,0,1-.09.31s0,0,0,0a.79.79,0,0,1,.13.44,1.64,1.64,0,0,1-.36.67v1.15a.56.56,0,0,1,.14.09c.14.18.09.41-.18.71v.22a1.3,1.3,0,0,1,.58-.27.48.48,0,0,1,.13.09,8.1,8.1,0,0,1,1.9-.4.74.74,0,0,1,.31-.09.26.26,0,0,1,.18.09H29a8.57,8.57,0,0,1,1.51.14.54.54,0,0,1,.35-.16.24.24,0,0,1,.18.11.73.73,0,0,1,.09.13,7,7,0,0,1,2.7,1.24.13.13,0,0,1,.13.09l.09.09a3.31,3.31,0,0,1,.31.36,8.08,8.08,0,0,1,1.78,5.18v1.28a.26.26,0,0,1,.17.09A.61.61,0,0,1,36.37,19.65Zm-18.67.53s0,0,0,.09v0l5.49-4.52q4.43-3.67,5.67-4.61a1,1,0,0,1-.31.05l-1,.71q-1,.84-3.9,3.32A54.67,54.67,0,0,1,17.74,20,.2.2,0,0,0,17.7,20.18Zm0,.88v.09l6.11-5c1.95-1.56,3.48-2.8,4.61-3.72l.66-.49a.79.79,0,0,0,.13-.26Q26.88,13.35,17.66,21.06Zm0,.85v.35l2-1.82C19,21,18.28,21.46,17.66,21.91Zm0,1.1v.4a3.3,3.3,0,0,1,.48-.57q.45-.49,1.11-1.11Zm0,1.91a6,6,0,0,1,1-.84,2.44,2.44,0,0,1-1,.44A3.32,3.32,0,0,1,17.7,24.92Zm0-6.25a3.5,3.5,0,0,0,0,.49A16.54,16.54,0,0,1,19,17.83a45.26,45.26,0,0,1,3.86-3.23c.56-.45,1.15-.89,1.77-1.33a8.29,8.29,0,0,0,1.2-1.42q-.09,0-.09.09a.54.54,0,0,0-.22.13l-.22.13c-.6.48-1.67,1.42-3.24,2.84A43.47,43.47,0,0,1,17.74,18.67Zm.05,8.51v.71q1.91-1.47,3.45-2.79a22.42,22.42,0,0,0,3.37-3.42,13.74,13.74,0,0,1-1,1c-1.51,1.53-2.71,2.68-3.61,3.43a3.91,3.91,0,0,1-2,1.13h0A.39.39,0,0,1,17.79,27.18Zm0-10.86.09,0A.12.12,0,0,0,17.83,16.32Zm0,12.45c0,.18.05.28.05.31l.66-.66a5.44,5.44,0,0,1,.4-.44A8.45,8.45,0,0,1,17.83,28.77Zm.05-13.16a19.2,19.2,0,0,0,1.68-1.5l-.44.35a2.61,2.61,0,0,0-.27.22A11.61,11.61,0,0,0,17.88,15.61ZM18,30.28a17.55,17.55,0,0,0,3.81-3c.79-.74,1.65-1.56,2.57-2.48-.33.24-.88.65-1.64,1.24l-.67.44a.12.12,0,0,1,0,.09,22.23,22.23,0,0,1-4.08,3.46s0,0,0,.09Zm7.08-9.61a3,3,0,0,1,.18-.8,7.47,7.47,0,0,0-.66.62,63.34,63.34,0,0,1-5.9,5.14c-.47.53-.69.88-.66,1.06.27,0,1-.43,2.08-1.37q1-.93,3.15-3.06A8.36,8.36,0,0,1,25.05,20.67Zm-7,10.58c1.27-1,2.43-2,3.46-2.88a35.5,35.5,0,0,0,3-2.88l-2.22,2.13Q19.13,30.5,18,30.85A1.59,1.59,0,0,0,18.05,31.25Zm.85-17.54a7,7,0,0,0-.85.75,3.09,3.09,0,0,0,.76-.44c.15-.15.31-.29.49-.44l.13-.09c.18-.15.35-.31.53-.49C19.55,13.3,19.19,13.53,18.9,13.71Zm-.27,11.12c-.24.21-.43.38-.58.53a1.54,1.54,0,0,1,.23-.18ZM31.7,11.63a1.24,1.24,0,0,1-.36.4c-.17.17-.45.43-.84.75S29.07,14,27.62,15.22c-2.95,2.48-5.08,4.29-6.38,5.45a27.2,27.2,0,0,0-3.14,3.1q.75-.49,2.61-2c1-.86,2.82-2.41,5.36-4.65,3.49-3.1,5.54-4.85,6.16-5.23A4,4,0,0,0,31.7,11.63Zm-13.51.75-.05.22c.15-.17.33-.37.53-.57.63-.65,1.5-1.49,2.62-2.53a.68.68,0,0,1,.18-.13c-.3.24-.57.46-.8.66C19.84,10.77,19,11.55,18.19,12.38Zm3.9-2c1-.91,2-1.92,3.1-3a4.73,4.73,0,0,0,0-.67Q19.08,12,18.28,13.4a1.33,1.33,0,0,0,.31-.18l2.08-1.59c.23-.18.4-.3.49-.36Zm-3.64-.35a1.12,1.12,0,0,0,0,.22,2,2,0,0,0,.26-.31Zm.22-1.86c0,.23-.05.47-.08.71l.75-.67c1.56-1.39,2.72-2.44,3.46-3.14A12.89,12.89,0,0,0,24.7,3a5.18,5.18,0,0,0-1.42.93l-.4.31c-.41.35-.87.77-1.37,1.24q-1.46,1.34-2.79,2.7A0,0,0,0,1,18.67,8.22Zm5.19,3.5c.65-.62,1.06-1,1.24-1.16V10.3l-6.38,6c.41-.3.89-.67,1.42-1.11Q21.37,14.06,23.86,11.72ZM18.72,32.54l6.16-5v-.27c-.48.33-1,.68-1.46,1.06s-1.05.95-1.73,1.51l-.76.66a19.09,19.09,0,0,1-2.17,2S18.72,32.51,18.72,32.54Zm6.47-28c-.21.21-.58.57-1.11,1.07-.89.86-1.65,1.56-2.3,2.12s-1,1-1.38,1.33c-.77.77-1.31,1.35-1.64,1.73l.45-.31,2-1.81q2-1.78,4-3.46s0,0,0,0a5,5,0,0,1,0-.71v0ZM19,33.29a17.51,17.51,0,0,1,2.79-2.52c1.12-.89,1.91-1.52,2.35-1.91L18.9,33.11A.68.68,0,0,0,19,33.29ZM18.94,6.18a3.91,3.91,0,0,0,.31-.27A3.91,3.91,0,0,1,18.94,6.18Zm.84,27.69a1.55,1.55,0,0,1,.4-.58l-.57.44A.55.55,0,0,0,19.78,33.87ZM25.19,3.21q-.5,1-5.5,5.49l0,.05c.44-.36,1-.8,1.59-1.33a1,1,0,0,1,.23-.18c.56-.56,1.24-1.19,2-1.9a1.78,1.78,0,0,1,.27-.22l1-1,.53-.49A1.57,1.57,0,0,0,25.19,3.21Zm-3.28-.35c-1,.88-1.76,1.53-2.17,1.95.44-.39.85-.73,1.24-1q2.61-2.13,2.88-2.31a1,1,0,0,1-.31-.13,1.49,1.49,0,0,1-.31.31C23,1.87,22.59,2.27,21.91,2.86Zm-.93,31,.13-.14-.53.4,0,0,.27-.27A.12.12,0,0,0,21,33.87ZM22.57,1.13c-.41.38-.82.78-1.24,1.19l1.42-1.19Zm2.09,30.21a1.54,1.54,0,0,1-.23.18c-.53.5-1.36,1.24-2.48,2.21a3.89,3.89,0,0,0-.57.54,3.28,3.28,0,0,0,1.06-.18.17.17,0,0,1,0-.13A20.59,20.59,0,0,0,24.66,31.34Zm.22-8v-.44l-3.37,3.37a1.26,1.26,0,0,0,.18-.14A18.89,18.89,0,0,1,24.88,23.32ZM27.58,17q1.16-.93,2-1.68a28.69,28.69,0,0,0,2.3-2.22,3.18,3.18,0,0,0,.58-.79c-.62.38-2.65,2.09-6.07,5.14q-3.37,3-4.83,4.25.48-.4,1.2-.93c1.35-1,2.37-1.83,3.05-2.39a2.62,2.62,0,0,1,1.46-1.16l.05,0,.09-.09A.48.48,0,0,1,27.58,17ZM22,12.47l1.42-1.33-.26.22C22.78,11.66,22.4,12,22,12.47ZM24.39,2.15a13.19,13.19,0,0,0-1.68,1.5,1.4,1.4,0,0,0,.22-.17A16.76,16.76,0,0,0,24.39,2.15Zm0,7.4a7.84,7.84,0,0,0,.71-.71V8.75c-.32.32-.75.71-1.28,1.15a3,3,0,0,0-.44.44A6.29,6.29,0,0,1,24.43,9.55ZM24.88,30v-.18a12.9,12.9,0,0,1-1,1Zm0-18.17c.06-.05.11-.11.17-.17S24.94,11.75,24.88,11.8Zm5.8-.44-2.75,2.48c-.38.36-.84.76-1.37,1.2l-.49.44,5-4Zm-4.12.18a2,2,0,0,1-.18.49c.24-.18.49-.36.76-.54a1.53,1.53,0,0,0,.13-.13Zm2.13,6.29.09.18.22-.27.93-.93.09-.09C29.57,17.11,29.13,17.48,28.69,17.83Zm.13,9.39v.58a70.16,70.16,0,0,0,6.69-6.29v-.18a3.52,3.52,0,0,0-.44.27c-.77.79-1.51,1.52-2.22,2.17a30.64,30.64,0,0,1-2.48,2.08C29.48,26.76,29,27.22,28.82,27.22Zm2.3-5.58c-.76.68-1.52,1.36-2.26,2a.3.3,0,0,1,0,.13Zm-1.59,2.44,1-.93C30,23.59,29.5,24,29,24.48a.58.58,0,0,1-.18,0v.22h0A6,6,0,0,1,29.53,24.08Zm-.44,1.5H29l-.22-.09v.27Zm-.27,3.81v.09a15.77,15.77,0,0,0,2.52-2.39c-.67.53-1.21,1-1.59,1.28A7.36,7.36,0,0,0,28.82,29.39Zm0-1v.14a.73.73,0,0,0,.18-.14A.19.19,0,0,1,28.82,28.37Zm.44-7a1,1,0,0,1-.35.09h-.05v.27A3.91,3.91,0,0,0,29.26,21.37Zm.93-2.52C29.45,19.59,29,20,28.91,20v.66a71.54,71.54,0,0,0,5.58-5.54,7.58,7.58,0,0,0-1.64,1.2l-.13.13-1,.93Zm-1.28-.22a2.72,2.72,0,0,1,0,.53l.27-.27c.23-.23.68-.65,1.33-1.24l.84-.75c.35-.35.66-.65.93-.89a5.18,5.18,0,0,0,.62-.62l.31-.31q-1.68,1.38-4.21,3.5A.36.36,0,0,0,28.91,18.63Zm.18,12.76c1-.92,2-1.81,2.88-2.66.11-.09.22-.18.31-.27A17.12,17.12,0,0,1,29,31c0,.12.06.22.09.31Zm5.13-10.72,1.29-1.25v-.08q-.27.3-.84.84c-.47.44-1.36,1.24-2.66,2.39l-2.44,2.22a9.8,9.8,0,0,0,1.55-1.16C31.8,23,32.84,22,34.22,20.67Zm-3,8-1.6,1.28c.33-.23.72-.54,1.2-.93C31,28.88,31.11,28.76,31.26,28.64Zm-1.38,3.77a28.08,28.08,0,0,0,2.22-2.09q2.74-2.75,3.37-2.83V27c-.48.41-1,.82-1.47,1.24a2.91,2.91,0,0,1-.35.4C32.2,30,31.18,31,30.59,31.52A5.68,5.68,0,0,0,29.88,32.41Zm.23.53h-.05l.05,0Zm3.18-1.2a13,13,0,0,0,2.22-2.52,4.21,4.21,0,0,0-1.15.84c-.42.35-1.08,1-2,1.9s-1.31,1.26-1.55,1.46l.49.18C32,33,32.7,32.33,33.29,31.74Zm-2.17-5.18c.24-.21.52-.43.85-.67,1.21-.94,2-1.61,2.48-2l.53-.53C34.15,24,32.87,25.08,31.12,26.56Zm.85.71-.32.31c1-.86,1.82-1.52,2.35-2a8,8,0,0,0,1.38-1.41,3.47,3.47,0,0,0-1.2.84A30.86,30.86,0,0,0,32,27.27ZM33.34,33c.65-.71,1.12-1.25,1.42-1.6L32,33.73h.27a1.56,1.56,0,0,0,.39,0,.12.12,0,0,0,.09,0A6.1,6.1,0,0,1,33.34,33Zm1.42-16.66q-.54.43-2.13,2L34,17.19A7,7,0,0,0,34.76,16.37Zm.71.49a1.56,1.56,0,0,0,0-.4,19.33,19.33,0,0,1-2.66,2.61l2.66-2.17S35.44,16.86,35.47,16.86Zm-2.35-4.57a3.24,3.24,0,0,1-.31.62,2.83,2.83,0,0,0,.26-.31,1.09,1.09,0,0,1,.22-.17A1,1,0,0,1,33.12,12.29Zm.71,1.51c-.15.15-.36.35-.62.62a5.14,5.14,0,0,1,1.1-.8.68.68,0,0,0-.13-.18v.05A2.08,2.08,0,0,0,33.83,13.8Zm1.1,14.62c-.35.29-.87.77-1.55,1.42C34.09,29.22,34.61,28.74,34.93,28.42Zm-1.1-15.51,0,.05h0Zm.79,1.2a1.83,1.83,0,0,1-.17.4,1.14,1.14,0,0,1,.26,0h.09Zm.58,1.46c0-.15-.06-.28-.09-.4l-.53.67C34.85,15.63,35.05,15.54,35.2,15.57Zm0,4.92-.49.49a.14.14,0,0,1,.09-.05A5.31,5.31,0,0,0,35.2,20.49Zm.31-2v-.18l-.58.58A2.8,2.8,0,0,1,35.51,18.45Zm0,7.4a4.45,4.45,0,0,1-.54.71,2.94,2.94,0,0,1,.54-.4Zm0,4.38v0Z"/><path class="a" d="M56.51,13.62c.15.15.1.4-.13.75a4.13,4.13,0,0,1-.05.58,4.51,4.51,0,0,1-.55,1.35,3.34,3.34,0,0,1-1,1,3.08,3.08,0,0,1-1.3.49l-.23,0-.17,0h-.22a3.43,3.43,0,0,0-1.16.22.92.92,0,0,1-.48.22,8.08,8.08,0,0,0-3.19,3.28.54.54,0,0,1,.09.31,1.59,1.59,0,0,1-.58.88c0,.33-.06.77-.09,1.33a.73.73,0,0,0,.18.14.53.53,0,0,1,.09.44,1.06,1.06,0,0,1-.31.62v.35a11.49,11.49,0,0,1,0,1.2.54.54,0,0,1,.22.13.41.41,0,0,1,.11.36.87.87,0,0,1-.24.48c.12.18.07.4-.13.67-.06.77-.14,1.46-.22,2.08l.08.09c.15.18.06.47-.26.88l-.09.18c-.09.21-.18.4-.27.58l0,0v0a.31.31,0,0,1-.09.31.3.3,0,0,0-.13,0A3.65,3.65,0,0,1,44.68,34a.48.48,0,0,0-.13.09.32.32,0,0,1-.23.09.34.34,0,0,1-.13,0,4.38,4.38,0,0,1-.88.09h-.14a.38.38,0,0,1-.17,0,.39.39,0,0,1-.18,0l-.13-.05a3.79,3.79,0,0,1-1.64-.66.51.51,0,0,1-.36,0,.28.28,0,0,1-.26-.13.65.65,0,0,1-.14-.4,1.65,1.65,0,0,0,.09-.22l0-.05a.15.15,0,0,1-.05-.08A2.14,2.14,0,0,1,39.9,32a.14.14,0,0,1-.18,0,.18.18,0,0,1-.18-.09.46.46,0,0,1-.13-.35,1.52,1.52,0,0,1,.22-.45,3.61,3.61,0,0,1-.05-.62V29.35h0a.69.69,0,0,1-.09-.49.71.71,0,0,1,.09-.31v-.44a1.06,1.06,0,0,1-.13-.71.48.48,0,0,0,0-.22q-.14-.18.09-.45,0-1.59,0-2.88V23.5a.26.26,0,0,1,0-.35v-.36l0,0a.73.73,0,0,1-.14-.45A2,2,0,0,1,39.5,22a.12.12,0,0,1-.09,0,.48.48,0,0,1-.09-.27c0-.12.1-.28.31-.49a6.06,6.06,0,0,1,0-.75q-.09-.18,0-.27c0-.23,0-.4,0-.48a1.86,1.86,0,0,1,0-.36.26.26,0,0,1-.18-.09c-.14-.17-.07-.44.23-.79v-.23a.24.24,0,0,1,0-.35c0-.38,0-.87,0-1.46a.54.54,0,0,1,0-.31V16l0-.05c0-.73,0-1.28,0-1.63V14c-.08-.12-.07-.3.05-.54a3.94,3.94,0,0,1,.31-1,.25.25,0,0,1,0-.36.39.39,0,0,1,.18,0,3.16,3.16,0,0,1,2.88-1.6,3.32,3.32,0,0,1,2.44,1s.07,0,.13,0a.33.33,0,0,1,.22.08.38.38,0,0,1,0,.4,3.73,3.73,0,0,1,.31.54h.05c.06,0,.12,0,.18.13s.1.28-.05.49a.31.31,0,0,1,.05.13,12.64,12.64,0,0,1,1.81-1.42,7.09,7.09,0,0,1,1.82-.89,2,2,0,0,1,.88-.35h0a.54.54,0,0,1,.31.09,4.32,4.32,0,0,1,.62,0h.29a.46.46,0,0,1,.2,0,4,4,0,0,1,1.59.49h.13a.36.36,0,0,1,.23.08,1.11,1.11,0,0,1,.13.27,3.63,3.63,0,0,1,1.37,2A.44.44,0,0,1,56.51,13.62ZM40.07,24.3v.31c.24-.27.56-.59,1-1A5.13,5.13,0,0,1,40.07,24.3Zm0,1.68v.09l.09-.09Zm.09-2.44a.12.12,0,0,0,0,.09,9.81,9.81,0,0,0,1-.75A5.53,5.53,0,0,1,40.16,23.54Zm0,3.55v.71h0a17.85,17.85,0,0,1,1.64-1.38q.57-.53,1.77-1.77c.27-.29.49-.54.67-.75a.56.56,0,0,1-.14.09,13.78,13.78,0,0,1-1.68,1.19l0,.05-1.82,1.46-.44.35Zm0,2.7c.14-.12.37-.32.66-.62s.92-.91,1.51-1.51h0c-1.09.89-1.8,1.44-2.12,1.64v.49Zm8.41-11.07c3-2.51,4.86-4.17,5.72-5,.44-.44.77-.76,1-1l.09-.09c-.09-.12-.18-.22-.26-.31a13.66,13.66,0,0,1-2.17,2.17Q51.46,15.8,47.47,19q-3.63,2.92-5,4.12a14.47,14.47,0,0,0-2.3,2.26.45.45,0,0,0,.2,0h.24a47.17,47.17,0,0,1,7.14-6.11ZM40.16,22v.27A15.11,15.11,0,0,0,41.84,21l2.31-2c.62-.56,1.58-1.44,2.88-2.66l.84-.75a.18.18,0,0,0-.09,0q-3.95,3-5.49,4.26A12.72,12.72,0,0,0,40.16,22Zm.05-1.33a0,0,0,0,0,0,0Zm3.32,5.23c-.56.41-1,.75-1.33,1a9.41,9.41,0,0,1-1.68,1.37,2,2,0,0,0-.31.36C40.8,28.15,41.9,27.24,43.53,25.85ZM40.34,19a3.07,3.07,0,0,1-.05.53L42.77,17Zm.26,13.25,3.06-2.66a21.47,21.47,0,0,0,2.7-2.79l-6,4.87Zm-.13-15.55a4.21,4.21,0,0,0,0,.62c.82-.77,1.62-1.52,2.39-2.26A6.76,6.76,0,0,1,40.47,16.68Zm1.11-1.95a6.78,6.78,0,0,0-1.11,1.37A5,5,0,0,0,41.93,15c.53-.44,1.33-1.18,2.39-2.22a11.89,11.89,0,0,1,1.11-1.06,2,2,0,0,0-.4-.31,1.17,1.17,0,0,1-.35.4q-.23.18-.84.75C42.8,13.55,42.05,14.26,41.58,14.73ZM40.52,15v0l0,0Zm0-1v.09a.12.12,0,0,0,0-.09Zm1.86-2.88c-.56.71-1.05,1.34-1.46,1.91.26-.24.68-.62,1.24-1.16s.75-.73.93-.88A5.89,5.89,0,0,0,42.42,11.14ZM41.14,32.89a9.94,9.94,0,0,0,.88-.66,6.41,6.41,0,0,1-.93.62h0ZM46.36,14.2l-5.09,5.14c.2-.18.43-.39.66-.62.65-.56,1.77-1.63,3.37-3.19,1.24-1.24,2.17-2.14,2.79-2.71A9.5,9.5,0,0,0,46.81,14l-.45.44ZM42.91,33.69c1.41-1.59,2.43-2.78,3.05-3.54a19.65,19.65,0,0,0-2,1.63c-.56.54-1.13,1.13-1.72,1.78a2.24,2.24,0,0,0,.48.13ZM46,12.47c-.11.15-.28.34-.48.58-.51.56-1.2,1.3-2.09,2.21-.17.15-.34.3-.48.44a2.35,2.35,0,0,0,.35-.26q.66-.58,1-.84l1.33-1.33.49-.49A1,1,0,0,0,46,12.47ZM46.89,25V24.7a9.1,9.1,0,0,0-1.15.88L43.22,28l-.27.27a2,2,0,0,0,.27-.18c1.36-1.07,2.3-1.82,2.83-2.26A11,11,0,0,0,46.89,25Zm-2.83-14a2,2,0,0,1-.18.27.78.78,0,0,1,.36-.22A.41.41,0,0,0,44.06,11.05Zm2.26,20.29c-.33.3-.89.83-1.68,1.6a8.29,8.29,0,0,0-.71.75,2.71,2.71,0,0,0,.44-.13Q45.66,32.18,46.32,31.34Zm5.4-16.52L49,16.77l-2.75,2.39-1.91,1.68c.6-.47,1.53-1.22,2.8-2.26C49.3,16.84,50.84,15.59,51.72,14.82ZM47.16,22a.46.46,0,0,1,0-.13,6.55,6.55,0,0,0-.93.75,24.52,24.52,0,0,0-1.9,1.95C45.31,23.9,46,23.35,46.5,23l.57-.53a1.49,1.49,0,0,1,0-.36Zm-.22,2v-.31l-.4.4-.35.35A4,4,0,0,1,46.94,24.08Zm-.4,6.38,0-.14-.26.31a.29.29,0,0,0-.13.14,1.92,1.92,0,0,1,.35-.23Zm.27-3.24a.3.3,0,0,0,0-.13l-.62.71A5.29,5.29,0,0,0,46.81,27.22Zm-.14,2.17a1.41,1.41,0,0,0,0-.35,2,2,0,0,1-.36.35.33.33,0,0,1,.14,0A.35.35,0,0,1,46.67,29.39Zm3.5-16.92c-.56.41-1.18.92-1.86,1.51l-1.68,1.5c.89-.71,1.62-1.33,2.21-1.86A13,13,0,0,0,50.17,12.47Zm-2.48,7.75a.73.73,0,0,1,.14-.18,3.2,3.2,0,0,1-.4.36.52.52,0,0,1,.13-.11A.23.23,0,0,1,47.69,20.22Zm-.09,1a2.84,2.84,0,0,1,.18-.31,2.92,2.92,0,0,0-.35.31Zm3.06-9.84-.4.31a3.19,3.19,0,0,0,.44-.31Zm1.11,0a6.6,6.6,0,0,1-1.2,1.46,14.87,14.87,0,0,0,2-1.68h-.18A2.37,2.37,0,0,0,51.77,11.36ZM54.38,16c.53-.62.93-1.09,1.2-1.42-.33.24-.83.65-1.51,1.24-.18.15-.38.34-.62.58l-.84.84h.53l.13,0,.14,0h0c0-.09.1-.25.31-.49S54.06,16.35,54.38,16Zm-.09-4.25a2.43,2.43,0,0,0-.44.31,1.94,1.94,0,0,1,.44-.27Zm.31,2.74a6.7,6.7,0,0,1,1.11-.88,1.74,1.74,0,0,0-.13-.36,2.1,2.1,0,0,1-.53.53l-.4.4a10.06,10.06,0,0,1-.8.8A5.7,5.7,0,0,0,54.6,14.46Zm1,.89-.09.09h0A.12.12,0,0,0,55.62,15.35Z"/><path class="a" d="M66.39,19.11a.19.19,0,0,1-.14.14V20l0,0c.12.15.1.34,0,.58,0,.83,0,1.71,0,2.66a.26.26,0,0,1,.18.09.58.58,0,0,1,.08.44,1.44,1.44,0,0,1-.31.58v.88a.27.27,0,0,1,0,.4h0v1.6c0,.79-.07,1.74-.13,2.83a.51.51,0,0,1,0,.58,3.07,3.07,0,0,1-.27,1.06.37.37,0,0,1,0,.31s-.05,0-.05,0,0,0,0,0a3.84,3.84,0,0,1-1,1.35,3.29,3.29,0,0,1-1.44.73.74.74,0,0,1-.31.13h0a.12.12,0,0,1-.09,0h-.4a4.73,4.73,0,0,1-.93-.09s0,0,0,0,0,0-.05,0a.22.22,0,0,1-.2.07.44.44,0,0,1-.2-.11.2.2,0,0,1,0-.22A3.49,3.49,0,0,1,59.61,33l0,0a.22.22,0,0,1-.2.07.56.56,0,0,1-.2-.11.43.43,0,0,1,.05-.54l-.09-.17,0,0a.29.29,0,0,1-.09-.22,5.11,5.11,0,0,1-.22-.62s-.06,0-.09-.09a.36.36,0,0,1-.09-.35.64.64,0,0,1,0-.22c0-.36,0-.73,0-1.11a.29.29,0,0,1,0-.31v-.62a.26.26,0,0,1-.18-.09c-.15-.21-.07-.5.22-.89V25.94c.06-2.07.11-3.52.14-4.34-.06,0-.09,0-.09-.05s-.09-.32.09-.53c0-1.21,0-2.26,0-3.15,0,0-.06,0-.09-.08s-.07-.34.14-.58V17a.49.49,0,0,1-.18-.09.72.72,0,0,1-.13-.44,1.33,1.33,0,0,1,.31-.62V15.7a.47.47,0,0,1,0-.44v-.49l0,0a.53.53,0,0,1-.14-.44,1.51,1.51,0,0,1,.18-.4v-.05a.41.41,0,0,1-.13-.4,3.41,3.41,0,0,1,.17-.44v-.35a.19.19,0,0,1,0-.18v-.13a5.36,5.36,0,0,1,.05-.76.29.29,0,0,1,0-.31c0-1.15,0-2,0-2.48a4.54,4.54,0,0,0,0-.66,0,0,0,0,0,0-.05c-.12-.14-.09-.35.09-.62s.06-.57.09-.93a.22.22,0,0,1,0-.35l0,0c0-.41.08-.88.14-1.41a.2.2,0,0,1,0-.14,4,4,0,0,1,0-.53.12.12,0,0,0-.09,0c-.12-.15-.06-.39.17-.71a.14.14,0,0,1,0-.09,5.11,5.11,0,0,1,.31-.75.24.24,0,0,1,0-.31.14.14,0,0,0,.09,0L60.14,2A3.32,3.32,0,0,1,61.69.77a.12.12,0,0,1,.09,0A3.4,3.4,0,0,1,62.89.55h.31A3.38,3.38,0,0,1,65,1.26a.74.74,0,0,1,.31-.09.89.89,0,0,1,.31.14.58.58,0,0,1,0,.62,3.53,3.53,0,0,1,.71,2.43c0,.33,0,.7,0,1.11a.22.22,0,0,1,.17.09.54.54,0,0,1,.09.31,1.26,1.26,0,0,1-.31.53V7.77a.14.14,0,0,0,.09.05.61.61,0,0,1,.09.35,2.33,2.33,0,0,1-.13.31v1a.48.48,0,0,1,.13.09.46.46,0,0,1,.07.31.88.88,0,0,1-.2.4.77.77,0,0,0,0,.18,2,2,0,0,1,0,.22.21.21,0,0,1,0,.31c0,.85,0,1.53,0,2v.88c.2.24.19.55,0,.93v1.51a.68.68,0,0,1,.18.13c.12.15.07.33-.13.53a.14.14,0,0,0-.09,0v1.59a.14.14,0,0,1,.13.09C66.55,18.88,66.53,19,66.39,19.11Zm-7.23,9.66,1.11-1c1.15-1,2.06-1.86,2.71-2.48l-3.82,3.1v.4Zm.05-2.57v.18a61.25,61.25,0,0,0,6.42-5.85,9.88,9.88,0,0,0-1.37,1c-.56.5-1.46,1.35-2.7,2.53A14.92,14.92,0,0,1,59.21,26.2Zm0-1.19a1.25,1.25,0,0,0,0,.31c.18-.18.41-.42.71-.71a.48.48,0,0,1,.13-.09A2.12,2.12,0,0,1,59.25,25Zm0,5.76a1.74,1.74,0,0,0,.31-.27.17.17,0,0,1-.13,0A1.54,1.54,0,0,1,59.25,30.77Zm0-9.4v.4c.15-.17.32-.37.53-.57.59-.59,1.4-1.39,2.44-2.4l.17-.17C61.44,19.48,60.39,20.4,59.3,21.37Zm0-1.33v.4c.3-.26.89-.75,1.77-1.46q2.4-1.95,3.37-2.88A7.6,7.6,0,0,0,65.59,15Q63.77,16.45,59.34,20Zm0-2.43v.57l.57-.57c.56-.56,1.33-1.34,2.31-2.35C61.35,16,60.39,16.78,59.39,17.61Zm6.33,1.19v-.22l-.88.71q-2.45,2-3.64,3.06a9.76,9.76,0,0,0-1.81,1.95c.41-.3,1.46-1.21,3.14-2.75A41.26,41.26,0,0,1,65.72,18.8Zm-6.29-2.74v0q.7-.53,2.88-2.52-1.29,1-2,1.59A5.77,5.77,0,0,0,59.43,16.06Zm0-2c.67-.47,1.93-1.49,3.76-3.06l-.09,0c-1.33,1-2.24,1.67-2.74,2.08A5.68,5.68,0,0,0,59.48,14Zm.08-3.72v.4q.31-.31,1.2-1.11a52.36,52.36,0,0,0,4.7-4.47,11.19,11.19,0,0,0-3.1,2.39c-1,.94-1.88,1.86-2.71,2.74A.14.14,0,0,1,59.56,10.3Zm.23-3.72a1.65,1.65,0,0,0,0,.22c.36-.33,1-.9,1.95-1.73A31,31,0,0,0,64.92,2a31,31,0,0,0-2.56,2.35A22,22,0,0,1,59.79,6.58Zm1.9,3.94q1.77-1.45,3.81-3.23a.29.29,0,0,1,.22-.09V7c-.41.38-1.21,1-2.39,2s-2.23,1.77-2.7,2.21a5.22,5.22,0,0,0-.89.93l.22-.17C60.38,11.58,61,11.11,61.69,10.52ZM63,10.25c-.39.3-.7.54-.94.71-.7.59-1.28,1-1.72,1.38-.21.2-.4.38-.58.53C60.42,12.37,61.5,11.49,63,10.25Zm2.65-7-.48.49L63.46,5.16a35.63,35.63,0,0,0-3.67,3.41,7.36,7.36,0,0,0,1.41-1c.39-.29.84-.68,1.38-1.15a2.78,2.78,0,0,1,.4-.35c.88-.83,1.78-1.72,2.7-2.66A.41.41,0,0,0,65.63,3.21ZM59.92,4.89a3,3,0,0,1-.05.49l1-1.15A5,5,0,0,1,59.92,4.89Zm3.5,10.28c.47-.44.82-.78,1.06-1l.64-.6.43-.33a.43.43,0,0,1,.26-.09v-.66q-4.17,4.21-5.8,5.89c.23-.18.53-.41.88-.71C61.42,17.18,62.27,16.35,63.42,15.17ZM60.76,32.89l.4-.35c1.18-1.09,2.08-2,2.7-2.62S64.7,29,65,28.68l-4.92,4a3.78,3.78,0,0,0,.49.49A1.21,1.21,0,0,1,60.76,32.89Zm5-16.08v-.58Q62,19.79,60.18,21.64q1.16-1.11,4-3.46c.8-.67,1.32-1.12,1.55-1.32A0,0,0,0,0,65.77,16.81Zm-.22,9.79c0-.23,0-.38,0-.44q-3.15,2.7-4.92,4.47.31-.25.93-.84C63.85,27.75,65.16,26.69,65.55,26.6Zm.08-4.21a1.25,1.25,0,0,1,.05-.26,3.68,3.68,0,0,0-.4.35c-.36.33-1,.93-2.08,1.82S61.47,25.75,61,26.16ZM61.11,33.47l.27-.27a3.91,3.91,0,0,0-.31.27ZM65.46,9.81c-.27.24-.79.71-1.55,1.42-1,.88-1.79,1.58-2.35,2.08q1.9-1.55,4.16-3.5V9.59Zm-3,23.92a7.78,7.78,0,0,1,1.64-1.9l.79-.8c-.76.62-1.78,1.51-3.05,2.66a3.91,3.91,0,0,0,.57,0ZM61.91,1.35,62,1.26h0Zm2.26,0L61.91,3.92H62c1.27-1.24,2.11-2,2.52-2.35Zm.67,28.67q-.68.53-2.13,1.95a2.3,2.3,0,0,0-.35.31A2.91,2.91,0,0,1,62.8,32C63.8,31.08,64.48,30.44,64.84,30.06ZM63.42,1.13a1.55,1.55,0,0,1-.36.49,6.15,6.15,0,0,0,.49-.45A.3.3,0,0,1,63.42,1.13Zm1.73,30.61a.76.76,0,0,1,.09-.18,9.27,9.27,0,0,0-.71.67,9.82,9.82,0,0,0-.93.93C64,32.77,64.55,32.3,65.15,31.74Zm.66-20a.26.26,0,0,1,0-.18c-.6.53-1.2,1.08-1.82,1.64.21-.18.43-.36.66-.53.63-.51,1-.79,1.07-.85A.32.32,0,0,0,65.81,11.72Zm-.53-9.31A14.84,14.84,0,0,1,64,3.7c.41-.36.85-.73,1.33-1.11Zm.35,21.22v-.17c-.26.29-.62.66-1.06,1.1C64.92,24.24,65.28,23.93,65.63,23.63Zm.09-5.84a.39.39,0,0,0,0-.14l-.71.71ZM65.5,29V29c-.06.06-.09.1-.09.13A.12.12,0,0,1,65.5,29Zm.27-24.68v0c-.06.06-.14.13-.22.22h0a.39.39,0,0,1,.18,0V4.36Zm0,9.7v0h0a2.61,2.61,0,0,1-.22.27.72.72,0,0,1,.17-.14Zm-.09,5.85v-.09s-.06,0-.09.07-.06.07-.08.07A.34.34,0,0,1,65.72,19.91ZM65.59,5.82l.13-.08V5.65A.52.52,0,0,1,65.59,5.82Z"/><path class="a" d="M90.09,13.53a3.44,3.44,0,0,1,0,1.24,20.12,20.12,0,0,1-.66,2.44.25.25,0,0,1,0,.4l-.08.09c-.21.68-.48,1.43-.8,2.26v.22a1.86,1.86,0,0,1-.36.75,2.91,2.91,0,0,1-.17.44.45.45,0,0,1,0,.2.27.27,0,0,1-.09.2,1.26,1.26,0,0,1-.18.14l-.26.62c-.21.56-.37,1-.49,1.24s-.21.62-.35,1a.85.85,0,0,1,.09.53,2.56,2.56,0,0,1-.76,1.24c-.12.3-.22.53-.31.71a.32.32,0,0,1,0,.36h0a.09.09,0,0,1,0,.08l-.27.71a.78.78,0,0,1,.05.45,3,3,0,0,1-.71,1.33c-.15.35-.31.78-.49,1.28a.2.2,0,0,1,0,.22c0,.15-.12.34-.36.58a3.85,3.85,0,0,1-.15.44l-.16.36-1.15,3.14a.37.37,0,0,1,0,.31,1.43,1.43,0,0,1-.44.75c-.15.39-.28.73-.4,1v0c.21.23.05.63-.48,1.19q-.18.49-.36.93a.26.26,0,0,1-.09.27c-.09.27-.19.53-.31.8a3.32,3.32,0,0,0-.17.53l0,0c.12.15.07.33-.13.53l-.14.14c-.14.41-.28.75-.39,1a.36.36,0,0,1,0,.13.23.23,0,0,1-.09.31.12.12,0,0,1-.09,0s0,.06-.08.09a3.42,3.42,0,0,1-3,1.6A3.83,3.83,0,0,1,75,45.74a1.48,1.48,0,0,1-.35-.13.31.31,0,0,1-.27,0,.29.29,0,0,1-.22-.09.24.24,0,0,1-.09-.26L73.7,45a.37.37,0,0,1-.27,0,.29.29,0,0,1-.22-.09.29.29,0,0,1,0-.31h0a.7.7,0,0,1-.31-.18.51.51,0,0,1-.08-.4.4.4,0,0,1,.08-.22,3.27,3.27,0,0,1-.26-.62.34.34,0,0,1-.13,0,.28.28,0,0,1-.18-.13c-.15-.18-.09-.44.18-.8a3.2,3.2,0,0,1,0-.93l.09-.26V41a.72.72,0,0,1,.18-.44,1.63,1.63,0,0,0,0-.18c.15-.44.32-1,.53-1.55v-.09a.24.24,0,0,1,.09-.17c.09-.27.21-.64.35-1.11-.11-.15,0-.37.23-.66v-.05a.39.39,0,0,0,.08-.18l0,0a.84.84,0,0,1-.18-.66,3.31,3.31,0,0,1,.62-1.16v0A1.65,1.65,0,0,1,75,34a.36.36,0,0,0,0-.13,1,1,0,0,1,0-.31,2,2,0,0,1,.44-.76,1.5,1.5,0,0,0-.17-.88.25.25,0,0,1-.22-.14.13.13,0,0,1,0-.17.41.41,0,0,1,0-.18,3.49,3.49,0,0,0-.18-.4.3.3,0,0,1-.31-.09.25.25,0,0,1,0-.4l0,0c-.48-1-.93-2-1.38-3h-.09a.31.31,0,0,1-.22-.09.25.25,0,0,1,0-.4l0,0a1.6,1.6,0,0,0-.18-.35h0a.65.65,0,0,1-.31-.18c-.12-.15-.09-.31.09-.49-.36-.8-.68-1.56-1-2.3a.24.24,0,0,1-.17-.09.27.27,0,0,1,0-.4l-.62-1.55h0a.29.29,0,0,1-.22-.09.48.48,0,0,1-.09-.4.45.45,0,0,1,.09-.26c-.26-.74-.5-1.42-.71-2a.14.14,0,0,1-.09-.05.24.24,0,0,1,0-.31,29.28,29.28,0,0,1-.89-3.19,3.08,3.08,0,0,1,0-.53.12.12,0,0,1-.09,0,.57.57,0,0,1,0-.62,1.64,1.64,0,0,1,0-.4v-.18a.52.52,0,0,1,.09-.48,3.23,3.23,0,0,1,.89-1.58,3.34,3.34,0,0,1,1.59-.86,3.88,3.88,0,0,1,2,.09h0a.26.26,0,0,1,.18.09,3.57,3.57,0,0,1,1.59,1.46c.12.26.25.62.4,1.06a.16.16,0,0,0,0,.13,29.4,29.4,0,0,0,1.24,3h0a.37.37,0,0,1,0,.17c.08.21.19.45.31.71h0a.18.18,0,0,1,.18.09.33.33,0,0,1,0,.4l.11.22a.59.59,0,0,1,.06.18.44.44,0,0,1,.23.18c.09.08.09.2,0,.35l.22.44a.39.39,0,0,1,.18,0,.26.26,0,0,1,.22.13c.09.12,0,.28-.14.49a4,4,0,0,0,.31.66,0,0,0,0,0,0,0,.48.48,0,0,1,.09.26.33.33,0,0,0,0,.14l0,.13h0a.29.29,0,0,1,.22.09.47.47,0,0,1,0,.49c.06.11.12.25.18.39h.09a.24.24,0,0,1,.17.09.14.14,0,0,1,0,.09l.09-.09c.14-.41.29-.79.44-1.15v-.31a2.09,2.09,0,0,1,.49-.93l.35-.84a.42.42,0,0,1,0-.27,2.19,2.19,0,0,1,.49-.93.55.55,0,0,0,.11-.2c0-.1.08-.18.11-.24.56-1.33,1-2.32,1.24-3-.21-.23,0-.69.53-1.37a3.5,3.5,0,0,1,2-2.13l.08,0a.21.21,0,0,1,.23,0,3.12,3.12,0,0,1,.93-.13,4.38,4.38,0,0,1,.88.09l.36.09a1.24,1.24,0,0,1,.31,0,.38.38,0,0,1,.26.14.2.2,0,0,1,.05.22,3.87,3.87,0,0,1,.93.88.17.17,0,0,1,.13,0,.17.17,0,0,1,.18.13.3.3,0,0,1,.09.31.68.68,0,0,1-.05.22,7.17,7.17,0,0,1,.22.71A.25.25,0,0,1,90.09,13.53ZM71.35,12.16a22.88,22.88,0,0,0-1.95,1.9c.35-.26.93-.75,1.73-1.46a2.8,2.8,0,0,1,.53-.49,1.55,1.55,0,0,1,.22-.26l.8-.75a1.24,1.24,0,0,1-.31,0,1.47,1.47,0,0,1-.31.4ZM69.58,16c.85-.89,1.64-1.7,2.34-2.44-.08.09-.22.21-.39.36a20.63,20.63,0,0,1-2.09,1.68A3.24,3.24,0,0,0,69.58,16Zm.22.89c.35-.3.69-.59,1-.89.76-.74,1.37-1.31,1.81-1.73s.86-.87,1.15-1.19q-1.55,1.18-4.07,3.54A1.39,1.39,0,0,0,69.8,16.86Zm.17.62a2.78,2.78,0,0,0,.14.44c.11-.15.25-.31.4-.49.35-.35,1-1,1.9-1.95s1.49-1.5,1.82-1.86c-.24.18-.5.4-.8.67a2,2,0,0,0-.35.31l-.54.53-1.28,1.19s0,0,0,.05A11.09,11.09,0,0,1,70,17.48Zm.32-5.32a.55.55,0,0,0-.14.18c.12-.12.28-.3.49-.54a5.88,5.88,0,0,0,.62-.62l-.27.09a1.27,1.27,0,0,1-.22.36A5.73,5.73,0,0,1,70.29,12.16Zm.26,7a4.32,4.32,0,0,1,.44-.48c.21-.24.61-.65,1.2-1.24.92-.89,1.58-1.56,2-2l-3.85,3.19A4.6,4.6,0,0,1,70.55,19.2Zm2.79-7.88c-.44.41-.88.81-1.33,1.19a3.6,3.6,0,0,0-.48.49c-.48.44-.86.83-1.16,1.15.18-.14.45-.38.8-.71a24.1,24.1,0,0,1,2.44-2A1.11,1.11,0,0,1,73.34,11.32Zm-2.52,8.46h-.09v0A.12.12,0,0,1,70.82,19.78Zm.53.93c.59-.44,1.5-1.2,2.74-2.26a3,3,0,0,1-.35.31c-.95.71-1.59,1.21-1.95,1.51C71.61,20.44,71.47,20.59,71.35,20.71Zm.13,1.11a2.71,2.71,0,0,0,.22-.27l.8-.88c.15-.18.31-.36.49-.54-.74.62-1.29,1.05-1.64,1.29A3.05,3.05,0,0,0,71.48,21.82Zm.27.57a1.74,1.74,0,0,0,.13.36l1.06-1.07a13.9,13.9,0,0,0,1-1A26.27,26.27,0,0,1,71.75,22.39Zm.57,1.46C74.45,21.64,76,20,76.84,19.07a15.78,15.78,0,0,0-2.48,2c-.32.29-.66.62-1,1s-.86.86-1.24,1.24A3.49,3.49,0,0,0,72.32,23.85Zm.36.94a3.11,3.11,0,0,1,.22-.45.8.8,0,0,1-.36.09A1.14,1.14,0,0,1,72.68,24.79Zm1.9-10.73c-.32.36-.9.95-1.73,1.78,1.27-1,2-1.64,2.31-1.82-.06-.18-.11-.31-.13-.4v0A4.78,4.78,0,0,1,74.58,14.06ZM73,25.49a.12.12,0,0,0,.09,0,.17.17,0,0,1-.13,0,.3.3,0,0,0,0,.13Zm0,16.22.71-.71q1.29-1.29,3.63-3.37,1.47-1.32,3.28-2.88l-1,.76A5.51,5.51,0,0,1,79,36c-.12.12-.27.25-.44.4q-2,1.77-5,4.65a4,4,0,0,1-.48.45v0A.41.41,0,0,0,73,41.71Zm.22-16.88a14.34,14.34,0,0,0,2.66-2.13c.68-.62,1.4-1.3,2.17-2-.06-.15-.13-.31-.22-.49l-.18.13c-1.24,1.12-2.17,2-2.79,2.66A10.46,10.46,0,0,0,73.25,24.83Zm.14,1.59a.24.24,0,0,1,.06.09.15.15,0,0,1,0,.09c.33-.32.67-.65,1-1A5.59,5.59,0,0,1,73.39,26.42ZM73.52,44a4.18,4.18,0,0,0,.62-.4,1.75,1.75,0,0,1-.58.22.48.48,0,0,0-.09.13A0,0,0,0,1,73.52,44Zm.53-32.12a2.15,2.15,0,0,1-.44.62,6.66,6.66,0,0,1,.66-.44A1.42,1.42,0,0,0,74.05,11.85Zm-.31,15.42s.05,0,.07.06a.65.65,0,0,1,0,.11c.68-.59,1.31-1.18,1.9-1.77C74.82,26.44,74.15,27,73.74,27.27Zm.09,11.87a1.65,1.65,0,0,1-.09.22s.07,0,.13-.09l.4-.31A2.27,2.27,0,0,1,73.83,39.14Zm2.7-22a1.42,1.42,0,0,0-.18.22l-1.19,1.24c-.62.65-1.08,1.13-1.38,1.46l1.38-1.15c.65-.53,1.08-.89,1.28-1.07a2.66,2.66,0,0,0,.27-.22ZM74.05,42.59c.53-.44,1.4-1.1,2.61-2,.27-.27.65-.66,1.16-1.2-1.24,1-2.17,1.73-2.79,2.26C74.64,42,74.32,42.33,74.05,42.59ZM74.36,28c.18-.15.43-.37.75-.67a21.51,21.51,0,0,1,2.09-1.95c.73-.71,1.27-1.24,1.59-1.59a9.51,9.51,0,0,0-1.11.93c-.56.47-1.37,1.21-2.43,2.21-.65.65-1,1-1.16,1.11s0,.07.09.13A.56.56,0,0,0,74.36,28Zm1.29-12.81a1.87,1.87,0,0,0-.18-.35,11.33,11.33,0,0,1-1.33,1.5A11.85,11.85,0,0,1,75.65,15.17Zm-1.38,29.6a6.66,6.66,0,0,1,.49-.54l-.58.45Zm.09-7.14a.2.2,0,0,0,0,.14l-.09.17c.2-.17.47-.38.8-.62A1.83,1.83,0,0,1,74.36,37.63Zm2.7-17.94L75.25,21.6c-.3.29-.61.62-.93,1,.5-.44,1.25-1.12,2.26-2,.5-.47.84-.8,1-1a.94.94,0,0,0-.17-.31Zm4.79,11q-5.53,4.65-7,6.12a25.9,25.9,0,0,0,2.13-1.64c.91-.8,2.39-2.14,4.43-4A5.26,5.26,0,0,0,81.85,30.72Zm-6.69-1c.23,0,.87-.41,1.9-1.33q1-.93,3.55-3.58c.17-.21.34-.39.48-.54L75.6,28.73a2,2,0,0,0-.49.88A.14.14,0,0,0,75.16,29.7ZM75.25,35c0,.06-.08.16-.14.31L82.91,29c-.77.57-1.87,1.35-3.32,2.35l-1,.67a.48.48,0,0,1-.13.09Q75.78,34.62,75.25,35Zm.31,10.28a3.77,3.77,0,0,1,.4-.67c-.3.24-.55.43-.76.58A.8.8,0,0,0,75.56,45.3Zm-.27-14.62c.06.12.13.25.22.4.45-.36.92-.73,1.42-1.11l2.17-2,2.48-2.35Q78.66,28,75.29,30.68Zm3.46-5.85c-.27.21-.52.41-.76.62l-.4.31c-.38.38-1,.93-1.77,1.64l-.09.09-.08.09-.09.08a14.39,14.39,0,0,0,1.19-1C77.31,26.17,78,25.57,78.75,24.83Zm-.84,15.55-.18.13c-.3.21-.53.39-.71.53l-1.46,1.38A3.09,3.09,0,0,0,76,42c.3-.24.61-.5.93-.8ZM82.2,34.8a3.56,3.56,0,0,0,.2-.53,1.7,1.7,0,0,1,.16-.4c-1.63,1.38-3.13,2.68-4.52,3.9-.92.82-1.72,1.55-2.39,2.17.47-.39.93-.77,1.37-1.16q1.2-1,2.13-1.77l1.46-1.17c.35-.28.65-.5.88-.67l.49-.31A.56.56,0,0,1,82.2,34.8Zm-6.51,9.34c.53-.44,1.22-1,2.08-1.77Zm.53-27.51s0,0,0,0S76.22,16.6,76.22,16.63ZM81.8,26.78q-1.55,1.29-3.36,2.7a15,15,0,0,0-2.13,2.22,54.67,54.67,0,0,0,4.92-4.26l2.3-2.08ZM77.33,45.12A2.73,2.73,0,0,1,78,43.88c-.51.44-1,.93-1.6,1.46A2.77,2.77,0,0,0,77.33,45.12ZM86,24.74a.85.85,0,0,0,0-.18c-.57.54-1.89,1.61-4,3.24s-3.6,2.92-4.43,3.63c-.27.24-.5.46-.71.67Zm-2,5.1c.06-.15.14-.34.22-.58-.41.35-1.25,1.12-2.52,2.3-2.1,1.95-3.62,3.33-4.56,4.12,1.71-1.3,3.1-2.4,4.16-3.32A19.39,19.39,0,0,0,84.06,29.84Zm-5.71-7.27c-.24.27-.52.56-.84.89.44-.36.87-.73,1.28-1.11a.42.42,0,0,0-.09-.22A2.7,2.7,0,0,1,78.35,22.57ZM79.5,42.06a1.64,1.64,0,0,1,.13-.44c-.5.47-.94.9-1.33,1.28A4.73,4.73,0,0,1,79.5,42.06Zm-.75,1.86v0l0,.09v0Zm2.65-7a1,1,0,0,0,.09-.31c-.23.18-.54.44-.93.8s-.74.69-1.24,1.19c.45-.32.83-.62,1.15-.88Zm7.76-20.91c.12-.45.22-.89.31-1.33a.15.15,0,0,1-.14-.09.17.17,0,0,0-.13,0,1.13,1.13,0,0,0-.35.08Q82.42,20.32,80.56,22a2.64,2.64,0,0,1-.44.45c-.09.26-.21.57-.35.93l2.39-1.77q2.09-2,3.3-3.06a24,24,0,0,1,2.21-1.82,2.68,2.68,0,0,1,1.4-.66Zm-7.4,8.68a54,54,0,0,0,6.16-5.54h0a2.18,2.18,0,0,0-1.1.51,20.23,20.23,0,0,0-1.84,1.55q-1.14,1.05-1.86,1.8L81,25.18a9,9,0,0,1-.76.76Zm-.93,13.78h0ZM81.09,20a4.44,4.44,0,0,1-.17.48c.35-.26.91-.71,1.68-1.33Q86.77,15,88.49,14.2l1-.84a3.09,3.09,0,0,0-.09-.31A36.74,36.74,0,0,1,86,15.88,42.64,42.64,0,0,0,81.09,20Zm1.2-2.4a1.54,1.54,0,0,1-.18.23,1.84,1.84,0,0,1,.27-.23Zm.62-1.9v0a.33.33,0,0,0,0,.14.8.8,0,0,1,.22-.23A.41.41,0,0,1,82.91,15.66Zm1-2.48,0,0c.67-.53,1.5-1.24,2.48-2.12a1.5,1.5,0,0,0-.62.13A20.43,20.43,0,0,0,83.93,13.18Zm3.45-1-3.14,3,1.51-1.16c.59-.44,1-.76,1.28-1,.56-.53,1-1,1.46-1.42a2.25,2.25,0,0,0-.35-.22A7.61,7.61,0,0,1,87.38,12.2Zm-.75,10.9c.06-.18.14-.35.22-.53l-1.41,1.06c-.15.15-.31.3-.49.45.85-.68,1.4-1,1.64-1ZM85.79,19c1.57-1.15,2.55-1.92,3-2.3a14.08,14.08,0,0,0-2.35,1.77Zm1.33,2.26.31-.4-.66.53A2.09,2.09,0,0,1,87.12,21.24Zm0-10.14a1.65,1.65,0,0,0-.09.22,1.54,1.54,0,0,1,.23-.18A.33.33,0,0,0,87.16,11.1Zm1.11,7.66.18-.44-.4.35A.29.29,0,0,1,88.27,18.76Zm.58-6.51a.48.48,0,0,1,.13-.09l0-.05A.56.56,0,0,1,88.85,12.25Zm.71,1.9v-.09a.14.14,0,0,0-.09,0A.12.12,0,0,1,89.56,14.15Z"/></svg>