<svg xmlns="http://www.w3.org/2000/svg" viewBox="0 0 74.25 74.25"><defs><style>.a{fill:#3479f6;}</style></defs><rect class="a" x="58.41" y="30.13" width="14" height="14" rx="2.56" transform="translate(137.91 17.13) rotate(135)"/><rect class="a" x="44.27" y="15.98" width="14" height="14" rx="2.56" transform="translate(103.77 2.98) rotate(135)"/><rect class="a" x="44.27" y="44.27" width="14" height="14" rx="2.56" transform="translate(123.77 51.27) rotate(135)"/><rect class="a" x="30.13" y="30.13" width="14" height="14" rx="2.56" transform="translate(89.63 37.13) rotate(135)"/><rect class="a" x="30.13" y="58.41" width="14" height="14" rx="2.56" transform="translate(109.63 85.41) rotate(135)"/><rect class="a" x="15.98" y="44.27" width="14" height="14" rx="2.56" transform="translate(75.49 71.27) rotate(135)"/><rect class="a" x="30.13" y="1.84" width="14" height="14" rx="2.56" transform="translate(69.63 -11.16) rotate(135)"/><rect class="a" x="15.98" y="15.98" width="14" height="14" rx="2.56" transform="translate(55.49 22.98) rotate(135)"/><rect class="a" x="1.84" y="30.13" width="14" height="14" rx="2.56" transform="translate(41.34 57.13) rotate(135)"/></svg>