<svg xmlns="http://www.w3.org/2000/svg" viewBox="0 0 30 24"><defs><style>.a{fill:#29abe2;}</style></defs><path class="a" d="M9.2,10.78a.4.4,0,0,1-.1.21v.18a.12.12,0,0,1,.05.05s0,.13-.05.25c0,1.2,0,2,0,2.45a.13.13,0,0,1,0,.12,2.54,2.54,0,0,1,0,.26,1.31,1.31,0,0,1-1,1.42s0,0,0,0a.07.07,0,0,1-.06,0H8a.09.09,0,0,1-.06,0H7.81l-.28,0h0l0,0s-.08,0-.12,0a.07.07,0,0,1,0-.08l-.22-.1a.1.1,0,0,1-.06-.05,1.21,1.21,0,0,1-.24-.21,1.14,1.14,0,0,1-.27-.51l0-.13a.12.12,0,0,1,0-.05s0-.1,0-.16a.88.88,0,0,0,0-.17h0a.2.2,0,0,1,0-.14l0-.1c0-.45,0-1.08,0-1.88a.08.08,0,0,1,0-.07c0-.67,0-1.15,0-1.46v0a.59.59,0,0,0,0-.31h0a.1.1,0,0,1-.06,0,.09.09,0,0,1,0-.07l-.09,0h0l-.42.33v0a.09.09,0,0,1,0,.07h0a2.32,2.32,0,0,0-.24,1V12s0,0,0,0a.06.06,0,0,1,0,.07.16.16,0,0,1,0,.09l.06,0a.34.34,0,0,1,.05.17.66.66,0,0,1-.12.24c0,.13,0,.29,0,.48a.08.08,0,0,1,0,.07v0h0v.11a.11.11,0,0,1,.08,0,.15.15,0,0,1,0,.13.67.67,0,0,1-.11.23c0,.26,0,.44,0,.55a.33.33,0,0,1,0,.14.51.51,0,0,1,0,.13s0,.14-.06.27a1.6,1.6,0,0,1-.17.42,1.19,1.19,0,0,1-.47.5,1.29,1.29,0,0,1-.67.18l-.18,0a1.18,1.18,0,0,1-.79-.43.09.09,0,0,1-.14,0,.17.17,0,0,1,0-.16.13.13,0,0,1,0-.06,1,1,0,0,1-.07-.15A.23.23,0,0,1,2.77,15a.07.07,0,0,1,0-.07.09.09,0,0,1,0-.07l.05,0a1.86,1.86,0,0,1-.05-.27l-.06,0a.17.17,0,0,1,0-.14.47.47,0,0,1,.06-.15.07.07,0,0,1,0-.09,2.09,2.09,0,0,0,0-.24l-.07,0a.09.09,0,0,1,0-.07.09.09,0,0,1,0-.07h0q0-.84-.06-1.68s0,0,0,0a.1.1,0,0,1,0-.14l0-.05v-.55a.3.3,0,0,1,0-.21.47.47,0,0,1,.06-.15c0-.14,0-.29,0-.44h0c-.05-.06,0-.14,0-.23a1.09,1.09,0,0,0,0-.22l0,0c0-.05,0-.09,0-.13v0s0-.11,0-.22h0a.17.17,0,0,1,0-.14.22.22,0,0,1,.06-.13c0-.1,0-.17,0-.21a.08.08,0,0,1,0-.08.16.16,0,0,1,0-.09V8.93a.19.19,0,0,1,0-.07c0-.11,0-.24,0-.4l-.05,0c0-.06,0-.15.08-.26s.06-.46.09-.72a.08.08,0,0,1,0-.07c0-.21.07-.52.12-.92a.11.11,0,0,1,0,0V6.34a.09.09,0,0,1-.06,0c-.06-.08,0-.2.12-.37a1.83,1.83,0,0,0,0-.21.13.13,0,0,1,0-.06v0a.25.25,0,0,0,0-.07,2.53,2.53,0,0,1,.1-.42,1,1,0,0,1,.12-.23.06.06,0,0,1,0-.06h0a1.13,1.13,0,0,1,1-.52l.29,0,.06,0h0s.08,0,.12,0a.05.05,0,0,1,0,0,1.5,1.5,0,0,1,.32.19.17.17,0,0,1,.12.06.19.19,0,0,1,0,.09v0a1.27,1.27,0,0,1,.24.86c0,.21,0,.51,0,.9l0,0a.15.15,0,0,1,0,.13.26.26,0,0,1,0,.11,0,0,0,0,1,0,0A.25.25,0,0,1,5.7,7a.73.73,0,0,1-.12.23v.39l0,0q.08.09-.06.24v.07a.45.45,0,0,1,.2-.09l0,0a2.68,2.68,0,0,1,.65-.13l.1,0a.09.09,0,0,1,.06,0h.08a2.92,2.92,0,0,1,.51,0s.09-.06.12,0a.07.07,0,0,1,.06,0l0,0a2.32,2.32,0,0,1,.91.42.05.05,0,0,1,0,0l0,0,.1.12a2.77,2.77,0,0,1,.6,1.76v.43a.09.09,0,0,1,.06,0A.19.19,0,0,1,9.2,10.78ZM2.87,11s0,0,0,0v0L4.72,9.48q1.5-1.25,1.92-1.56h-.1l-.35.24L4.87,9.3a19.44,19.44,0,0,1-2,1.62A.05.05,0,0,0,2.87,11Zm0,.3v0L4.93,9.58,6.49,8.32l.23-.16a.36.36,0,0,0,0-.09Q6,8.66,2.86,11.26Zm0,.29v.12l.69-.62Zm0,.37v.14l.16-.2c.1-.11.23-.23.38-.37Zm0,.65a2.13,2.13,0,0,1,.33-.28.79.79,0,0,1-.34.15A.85.85,0,0,1,2.87,12.57Zm0-2.12a1.49,1.49,0,0,0,0,.17,5.93,5.93,0,0,1,.44-.45,14.8,14.8,0,0,1,1.3-1.1l.6-.45a2.37,2.37,0,0,0,.41-.48l0,0a.18.18,0,0,0-.07.05l-.08,0c-.2.16-.57.48-1.1,1A15.55,15.55,0,0,1,2.89,10.45Zm0,2.89v.24c.43-.33.82-.65,1.17-.95a7.23,7.23,0,0,0,1.14-1.16l-.33.33A16.52,16.52,0,0,1,3.66,13a1.34,1.34,0,0,1-.68.38H2.9Zm0-3.68,0,0Zm0,4.22a.58.58,0,0,1,0,.1l.23-.22.13-.15A2.91,2.91,0,0,1,2.92,13.88Zm0-4.46a6.72,6.72,0,0,0,.57-.51L3.35,9l-.09.07A3.48,3.48,0,0,0,2.93,9.42Zm0,5a5.94,5.94,0,0,0,1.29-1l.88-.84L4.57,13l-.23.15a0,0,0,0,1,0,0A7.43,7.43,0,0,1,3,14.31s0,0,0,0Zm2.4-3.26a1.07,1.07,0,0,1,.07-.27,1.82,1.82,0,0,0-.23.21,20.94,20.94,0,0,1-2,1.74C3,13,3,13.11,3,13.17s.32-.14.7-.46c.23-.21.59-.56,1.07-1A2.82,2.82,0,0,1,5.36,11.13ZM3,14.72c.43-.34.82-.67,1.17-1a12.53,12.53,0,0,0,1-1l-.75.72A5.65,5.65,0,0,1,3,14.58.61.61,0,0,0,3,14.72Zm.29-6A2.13,2.13,0,0,0,3,9a1.08,1.08,0,0,0,.26-.15l.16-.15,0,0,.18-.17Zm-.09,3.77-.2.18.08-.06ZM7.62,8.07a.41.41,0,0,1-.12.13l-.29.26-1,.82c-1,.84-1.73,1.46-2.17,1.85a9.23,9.23,0,0,0-1.06,1c.17-.11.46-.34.88-.69s1-.82,1.82-1.58C6.89,8.86,7.59,8.27,7.8,8.14ZM3,8.32,3,8.4l.18-.2c.21-.22.51-.5.89-.85l.06,0-.27.23C3.6,7.78,3.32,8,3,8.32Zm1.32-.66q.51-.47,1-1a1.5,1.5,0,0,0,0-.22A15.31,15.31,0,0,0,3.07,8.67l.1-.06.71-.54L4,8ZM3.13,7.54l0,.08.09-.11Zm.07-.63,0,.24.26-.22C4,6.46,4.35,6.1,4.6,5.86a4.06,4.06,0,0,0,.64-.72,1.81,1.81,0,0,0-.48.32l-.13.1L4.16,6c-.33.3-.64.61-.94.92ZM5,8.1l.42-.39V7.62l-2.16,2c.14-.1.3-.22.48-.37S4.4,8.63,5,8.1ZM3.22,15.15l2.09-1.68v-.09c-.17.11-.33.23-.5.36s-.36.32-.59.51L4,14.48a7.1,7.1,0,0,1-.74.66Zm2.19-9.5L5,6q-.45.44-.78.72l-.46.45c-.26.26-.45.46-.56.59l.15-.11.69-.61c.45-.4.91-.79,1.37-1.17l0,0a1.77,1.77,0,0,1,0-.24h0ZM3.32,15.41a5.76,5.76,0,0,1,.95-.86l.79-.64L3.28,15.35A.21.21,0,0,0,3.32,15.41Zm0-9.19.11-.09Zm.29,9.38a.5.5,0,0,1,.13-.19l-.19.15ZM5.41,5.22A11.84,11.84,0,0,1,3.55,7.08h0l.54-.45.08-.06c.19-.19.42-.4.69-.64l.09-.08.35-.34.18-.17A.5.5,0,0,0,5.41,5.22ZM4.3,5.1c-.35.3-.6.52-.74.66L4,5.41c.59-.48.92-.74,1-.78a.22.22,0,0,1-.11,0,.47.47,0,0,1-.1.11ZM4,15.6l.05,0-.18.13v0L4,15.62ZM4.52,4.51l-.42.41.48-.41Zm.71,10.24-.08.06-.84.75a1.14,1.14,0,0,0-.19.18,1.13,1.13,0,0,0,.36-.06.07.07,0,0,1,0,0A6.7,6.7,0,0,0,5.23,14.75ZM5.31,12v-.15L4.16,13l.06,0A6.06,6.06,0,0,1,5.31,12ZM6.22,9.9l.69-.57a10,10,0,0,0,.78-.75,1.14,1.14,0,0,0,.2-.27c-.21.13-.9.71-2.06,1.74-.76.68-1.31,1.16-1.64,1.44l.41-.32c.46-.35.81-.62,1-.81A.86.86,0,0,1,6.13,10h0l0,0ZM4.31,8.35l.48-.45L4.7,8Zm.83-3.5a6.07,6.07,0,0,0-.57.52l.07-.06A4.21,4.21,0,0,0,5.14,4.85Zm0,2.51.25-.24v0L5,7.48a1.06,1.06,0,0,0-.15.15A2.2,2.2,0,0,1,5.15,7.36Zm.16,6.92v-.06c-.08.08-.19.19-.35.33Zm0-6.15.05-.06Zm2-.15-.93.84-.46.4-.17.15L7.41,8ZM5.88,8a.64.64,0,0,1-.06.16L6.07,8l0,0Zm.72,2.13,0,.06.07-.09L7,9.82l0,0Zm0,3.18v.2a23.25,23.25,0,0,0,2.27-2.14v-.06l-.15.09c-.26.27-.51.52-.75.74a10.7,10.7,0,0,1-.84.71C6.87,13.2,6.69,13.35,6.64,13.35Zm.78-1.89-.76.69,0,0Zm-.54.83L7.23,12l-.53.45-.06,0v.07h0Zm-.15.51h0l-.08,0v.09Zm-.09,1.29v0a5.34,5.34,0,0,0,.86-.81L7,13.74A2.25,2.25,0,0,0,6.64,14.09Zm0-.35v0l.06,0Zm.15-2.37-.12,0h0v.09Zm.32-.86a1.81,1.81,0,0,1-.44.38v.22A25,25,0,0,0,8.56,9.24a2.41,2.41,0,0,0-.55.4l0,0L7.62,10Zm-.44-.07a.9.9,0,0,1,0,.18l.09-.09.45-.42.28-.26.32-.3A2.08,2.08,0,0,0,8,9.34l.1-.1L6.72,10.42Zm.06,4.32c.35-.31.68-.61,1-.9l.1-.09a5.86,5.86,0,0,1-1.11.87l0,.11Zm1.74-3.63.44-.42v0c-.06.07-.16.16-.29.28l-.9.81-.82.76a3.27,3.27,0,0,0,.52-.39Zm-1,2.7-.54.44.4-.32ZM7,15.11a9.91,9.91,0,0,0,.75-.71,4.27,4.27,0,0,1,1.14-1v-.18l-.49.42-.12.14c-.49.49-.84.82-1,1A1.9,1.9,0,0,0,7,15.11Zm.08.18h0Zm1.08-.41A4.31,4.31,0,0,0,8.91,14a1.54,1.54,0,0,0-.39.28c-.14.12-.37.34-.68.65l-.52.49.16.06C7.73,15.29,8,15.08,8.16,14.88Zm-.74-1.75.29-.23c.41-.32.69-.54.84-.67l.18-.18C8.45,12.27,8,12.63,7.42,13.13Zm.29.24-.11.1.8-.67a2.5,2.5,0,0,0,.46-.48,1.24,1.24,0,0,0-.4.28C8.31,12.73,8.06,13,7.71,13.37Zm.46,2,.48-.54-.93.78h.09l.14,0H8A2.16,2.16,0,0,1,8.17,15.32Zm.48-5.65q-.18.15-.72.69L8.39,10A2.1,2.1,0,0,0,8.65,9.67Zm.24.17a.61.61,0,0,0,0-.14,6.54,6.54,0,0,1-.9.89l.9-.74ZM8.1,8.29A1.08,1.08,0,0,1,8,8.5l.09-.1.08-.06Zm.24.51L8.13,9a1.72,1.72,0,0,1,.37-.27.21.21,0,0,0,0-.06v0Zm.37,5c-.12.1-.29.26-.52.48C8.43,14,8.6,13.87,8.71,13.76ZM8.34,8.5l0,0h0Zm.27.41A.49.49,0,0,1,8.55,9h.12Zm.19.49,0-.13-.18.22Q8.73,9.39,8.8,9.4Zm0,1.67-.16.16h0Zm.11-.69v-.06l-.2.19A.84.84,0,0,1,8.91,10.38Zm0,2.51a1.49,1.49,0,0,1-.18.24A1.12,1.12,0,0,1,8.89,13Zm0,1.48h0Z"/><path class="a" d="M16,8.74c.05,0,0,.14,0,.26a1.21,1.21,0,0,1-.21.65,1.05,1.05,0,0,1-.77.5l-.07,0-.06,0h-.08a1.18,1.18,0,0,0-.39.08.3.3,0,0,1-.16.07,2.75,2.75,0,0,0-1.08,1.11.2.2,0,0,1,0,.11.54.54,0,0,1-.2.3q0,.16,0,.45l.06.05a.19.19,0,0,1,0,.15.4.4,0,0,1-.1.21v.12a3.59,3.59,0,0,1,0,.4l.08.05a.12.12,0,0,1,0,.12.27.27,0,0,1-.08.16c0,.06,0,.14,0,.23,0,.26-.05.49-.08.7l0,0q.08.09-.09.3l0,.06-.09.2h0v0a.12.12,0,0,1,0,.1l0,0a1.26,1.26,0,0,1-.56.46l0,0a.11.11,0,0,1-.08,0h0l-.3,0h-.17l0,0a1.29,1.29,0,0,1-.56-.22.17.17,0,0,1-.12,0,.1.1,0,0,1-.09,0,.23.23,0,0,1,0-.14l0-.07,0,0a0,0,0,0,1,0,0,.72.72,0,0,1-.14-.24s0,0-.06,0a.06.06,0,0,1-.06,0,.16.16,0,0,1,0-.12.48.48,0,0,1,.07-.15,1.34,1.34,0,0,1,0-.21v-.41h0a.22.22,0,0,1,0-.16.26.26,0,0,1,0-.11v-.15a.36.36,0,0,1,0-.24.15.15,0,0,0,0-.07s0-.09,0-.15c0-.36,0-.69,0-1v-.12a.09.09,0,0,1,0-.12v-.14a.23.23,0,0,1,0-.15.61.61,0,0,1,0-.12h0a.16.16,0,0,1,0-.09.28.28,0,0,1,.1-.17,2,2,0,0,1,0-.25s0-.07,0-.09a1.31,1.31,0,0,0,0-.17.74.74,0,0,1,0-.12l-.06,0c0-.06,0-.15.07-.27v-.07s0-.08,0-.12,0-.3,0-.5a.17.17,0,0,1,0-.1v0l0,0c0-.25,0-.43,0-.55V8.86s0-.1,0-.18a1.33,1.33,0,0,1,.1-.34s0-.08,0-.12l.06,0a1.06,1.06,0,0,1,1-.54,1.13,1.13,0,0,1,.83.33h0a.11.11,0,0,1,.08,0,.14.14,0,0,1,0,.14,1.74,1.74,0,0,1,.11.18h0a.07.07,0,0,1,.06,0s0,.1,0,.17a.08.08,0,0,1,0,0,5.09,5.09,0,0,1,.62-.48,2.34,2.34,0,0,1,.62-.3.65.65,0,0,1,.3-.12h0a.2.2,0,0,1,.11,0h.37a1.37,1.37,0,0,1,.54.17h0a.09.09,0,0,1,.07,0,.41.41,0,0,1,.05.09,1.22,1.22,0,0,1,.46.67A.15.15,0,0,1,16,8.74Zm-5.57,3.62v.11l.33-.33A1.64,1.64,0,0,1,10.45,12.36Zm0,.57v0l0,0Zm0-.82a0,0,0,0,0,0,0,3.46,3.46,0,0,0,.34-.26A2.27,2.27,0,0,1,10.48,12.11Zm0,1.2v.24h0a5.82,5.82,0,0,1,.56-.47q.2-.18.6-.6l.22-.25,0,0a4.69,4.69,0,0,1-.57.4l0,0-.61.49-.15.12Zm0,.91.22-.21.51-.51h0c-.37.3-.61.49-.72.56v.16Zm2.85-3.75c1-.85,1.65-1.41,1.94-1.68l.33-.33,0,0-.09-.11a4.76,4.76,0,0,1-.74.74c-.32.28-.93.78-1.83,1.51s-1.39,1.13-1.7,1.4a4.78,4.78,0,0,0-.78.77h.15a16.15,16.15,0,0,1,2.42-2.07Zm-2.84,1.09v.09a5.4,5.4,0,0,0,.57-.42l.78-.67,1-.9c.11-.1.2-.19.29-.26l0,0c-.9.67-1.52,1.15-1.87,1.44A4.38,4.38,0,0,0,10.48,11.56Zm0-.45h0Zm1.12,1.78-.45.34a3.19,3.19,0,0,1-.57.47l-.1.12C10.7,13.67,11.07,13.36,11.62,12.89Zm-1.08-2.33a1.09,1.09,0,0,1,0,.18l.84-.86Zm.09,4.49,1-.9a7.24,7.24,0,0,0,.91-1l-2,1.65Zm0-5.27a1.49,1.49,0,0,0,0,.21l.81-.77A2.3,2.3,0,0,1,10.59,9.78ZM11,9.12a2.13,2.13,0,0,0-.37.46,1.7,1.7,0,0,0,.49-.36q.27-.22.81-.75a3.3,3.3,0,0,1,.38-.36.71.71,0,0,0-.14-.1.41.41,0,0,1-.12.13l-.28.26C11.38,8.72,11.12,9,11,9.12Zm-.36.1v0l0,0Zm0-.34v0a0,0,0,0,0,0,0Zm.63-1-.5.65.42-.39.32-.3Zm-.44,7.37a2.73,2.73,0,0,0,.3-.22,2.12,2.12,0,0,1-.31.21h0Zm1.77-6.33-1.72,1.74.22-.21q.33-.29,1.14-1.08c.43-.42.74-.73.95-.92a3.31,3.31,0,0,0-.44.39L12.58,9Zm-1.17,6.6c.48-.54.83-.94,1-1.2a6.62,6.62,0,0,0-.66.56c-.19.18-.39.38-.59.6l.17,0Zm1-7.19-.17.2c-.17.19-.4.44-.7.75l-.17.15.12-.09.35-.29.45-.45.16-.16A.36.36,0,0,0,12.45,8.35Zm.32,4.25v-.1a2.41,2.41,0,0,0-.4.3l-.85.82-.09.09.09-.06,1-.76Zm-1-4.73L11.74,8a.25.25,0,0,1,.12-.07Zm.77,6.88-.57.54-.24.25.15,0Q12.35,15,12.57,14.75Zm1.83-5.6-.93.66-.93.81-.65.57.95-.77C13.58,9.83,14.1,9.41,14.4,9.15Zm-1.55,2.44,0,0a2.21,2.21,0,0,0-.32.25c-.15.14-.36.36-.64.67l.72-.56.2-.18a.49.49,0,0,1,0-.12Zm-.07.7v-.11l-.13.14-.13.12A1.51,1.51,0,0,1,12.78,12.29Zm-.13,2.16v0l-.09.11a.1.1,0,0,0-.05,0l.13-.07Zm.08-1.1s0,0,0,0l-.21.24A1.8,1.8,0,0,0,12.73,13.35Zm0,.74a.49.49,0,0,0,0-.12.68.68,0,0,1-.12.12l.05,0Zm1.19-5.74q-.29.21-.63.51l-.58.51c.31-.24.56-.45.76-.63A4.87,4.87,0,0,0,13.88,8.35ZM13,11l0-.06L13,11l0,0Zm0,.33.06-.11a.68.68,0,0,0-.12.11ZM14,8l-.13.1.15-.1Zm.38,0a2.3,2.3,0,0,1-.41.49,5.14,5.14,0,0,0,.66-.57h-.06A.87.87,0,0,0,14.42,8Zm.88,1.56.41-.48q-.17.12-.51.42L15,9.67,14.7,10H15a.35.35,0,0,1,.1-.17Zm0-1.44-.15.1.15-.09Zm.11.93a2.18,2.18,0,0,1,.37-.3.56.56,0,0,0,0-.12.72.72,0,0,1-.18.18l-.14.13a3.44,3.44,0,0,1-.27.27A2.26,2.26,0,0,0,15.38,9Zm.34.3,0,0h0A0,0,0,0,0,15.72,9.33Z"/><path class="a" d="M19.37,10.6l0,0,0,0v.25l0,0c0,.05,0,.11,0,.19,0,.28,0,.58,0,.91a.09.09,0,0,1,.06,0,.19.19,0,0,1,0,.15.56.56,0,0,1-.11.19v.29h0a.1.1,0,0,1,0,.14h0v.54c0,.27,0,.59-.05,1a.16.16,0,0,1,0,.19,1.06,1.06,0,0,1-.09.36.14.14,0,0,1,0,.11h0a1.28,1.28,0,0,1-.34.46,1,1,0,0,1-.49.25l-.1,0H18a1.66,1.66,0,0,1-.32,0h0a.09.09,0,0,1-.06,0l-.07,0a.08.08,0,0,1,0-.08,1.15,1.15,0,0,1-.42-.31h0a.07.07,0,0,1-.07,0,.11.11,0,0,1-.07,0c0-.05,0-.11,0-.18l0-.06,0,0a.09.09,0,0,1,0-.07,1.72,1.72,0,0,1-.07-.21s0,0,0,0a.12.12,0,0,1,0-.12.25.25,0,0,1,0-.08c0-.12,0-.24,0-.37a.11.11,0,0,1,0-.11v-.21l-.06,0c-.05-.07,0-.17.07-.3v-.6h0c0-.7,0-1.2.05-1.48h0s0-.11,0-.18c0-.41,0-.77,0-1.07t0,0c0-.05,0-.11.05-.19V9.88l-.06,0a.25.25,0,0,1-.05-.15.53.53,0,0,1,.11-.21v0a.16.16,0,0,1,0-.15V9.13h0A.18.18,0,0,1,16.77,9a.53.53,0,0,1,.06-.14h0a.15.15,0,0,1,0-.14.77.77,0,0,1,.06-.15V8.41a.06.06,0,0,1,0-.06v0a2,2,0,0,1,0-.26.09.09,0,0,1,0-.1c0-.39,0-.67,0-.84a1.69,1.69,0,0,0,0-.23h0s0-.12,0-.21,0-.2,0-.32a.08.08,0,0,1,0-.12h0c0-.14,0-.3.05-.48a.07.07,0,0,1,0-.05,1.41,1.41,0,0,1,0-.18h0s0-.13.06-.24a0,0,0,0,1,0,0A2,2,0,0,1,17.18,5a.09.09,0,0,1,0-.11h0l0,0a1.13,1.13,0,0,1,.53-.42l0,0a1.15,1.15,0,0,1,.37-.06h.11a1.13,1.13,0,0,1,.61.24l.11,0,.1.05a.2.2,0,0,1,0,.21,1.22,1.22,0,0,1,.24.83c0,.11,0,.23,0,.37l.06,0a.2.2,0,0,1,0,.11.46.46,0,0,1-.11.18v.46l0,0a.21.21,0,0,1,0,.12l0,.1v.35l0,0a.17.17,0,0,1,0,.1.37.37,0,0,1-.07.14.18.18,0,0,0,0,.06v.07a.08.08,0,0,1,0,.11c0,.29,0,.52,0,.69v.3c.07.08.06.18,0,.31v.51l.06.05s0,.11,0,.18h0v.54s0,0,0,0S19.42,10.56,19.37,10.6Zm-2.45,3.28.38-.35c.39-.35.69-.63.91-.84l-1.29,1.05v.14Zm0-.87v.06a20.68,20.68,0,0,0,2.17-2,3.27,3.27,0,0,0-.46.35l-.92.86A5.29,5.29,0,0,1,16.94,13Zm0-.41a.45.45,0,0,0,0,.11l.24-.24,0,0A.67.67,0,0,1,17,12.6Zm0,2,.11-.09,0,0Zm0-3.18v.13l.18-.19L18,10.5l.06-.06Zm0-.45v.13l.6-.49c.54-.44.92-.77,1.14-1a2.67,2.67,0,0,0,.38-.39Zm0-.83v.2l.19-.2L18,9.3Zm2.14.41v-.08l-.3.24c-.55.45-1,.8-1.23,1a3.4,3.4,0,0,0-.61.66c.14-.1.49-.41,1.06-.93A13.07,13.07,0,0,1,19.14,10.5ZM17,9.57h0c.16-.12.49-.4,1-.85q-.43.33-.66.54A1.91,1.91,0,0,0,17,9.57Zm0-.69c.23-.16.65-.51,1.27-1l0,0c-.45.33-.76.56-.93.7A2.16,2.16,0,0,0,17,8.88Zm0-1.26v.13l.4-.37a17.07,17.07,0,0,0,1.59-1.52A4,4,0,0,0,18,6.67c-.33.32-.63.63-.91.93Zm.07-1.26a.26.26,0,0,0,0,.07l.66-.58a10.47,10.47,0,0,0,1.09-1,9.94,9.94,0,0,0-.87.79A7.45,7.45,0,0,1,17.13,6.36Zm.65,1.33c.4-.33.83-.69,1.29-1.09a.09.09,0,0,1,.07,0V6.49c-.14.13-.41.36-.81.68s-.75.6-.91.75a1.67,1.67,0,0,0-.3.31l.07-.06Zm.43-.09-.31.24-.59.47-.19.18C17.35,8.32,17.71,8,18.21,7.6Zm.9-2.38L19,5.38l-.57.5A12.6,12.6,0,0,0,17.13,7a2.3,2.3,0,0,0,.48-.34c.13-.1.29-.23.47-.39l.13-.12c.3-.28.61-.58.92-.9A.14.14,0,0,0,19.11,5.22Zm-1.93.57a1,1,0,0,1,0,.16l.35-.39A1.83,1.83,0,0,1,17.18,5.79Zm1.18,3.48.36-.35.22-.2.14-.11.09,0V8.35l-2,2,.3-.24C17.69,10,18,9.67,18.36,9.27Zm-.9,6,.14-.12c.4-.37.7-.66.91-.88s.29-.31.38-.42L17.22,15.2a1.29,1.29,0,0,0,.17.16A.36.36,0,0,1,17.46,15.27Zm1.7-5.45V9.63q-1.28,1.2-1.89,1.83.39-.37,1.35-1.17l.52-.45Zm-.08,3.32c0-.08,0-.13,0-.15-.71.61-1.27,1.12-1.67,1.52l.32-.29A7.19,7.19,0,0,1,19.08,13.14Zm0-1.43a.51.51,0,0,1,0-.09l-.14.12c-.12.12-.35.32-.7.62s-.59.49-.74.63Zm-1.53,3.76.09-.09-.1.09Zm1.47-8-.52.48-.8.71c.43-.35.9-.75,1.41-1.19V7.38Zm-1,8.11a2.57,2.57,0,0,1,.55-.65l.27-.27c-.26.21-.6.51-1,.9l.19,0Zm-.2-11,0,0h0Zm.77,0-.77.86h0c.43-.42.71-.69.85-.8Zm.22,9.71q-.22.18-.72.66l-.12.11.15-.12C18.49,14.66,18.72,14.44,18.84,14.31Zm-.48-9.8a.51.51,0,0,1-.12.16,1.07,1.07,0,0,0,.17-.15ZM19,14.88l0-.06-.24.23c-.15.14-.26.24-.32.31Zm.22-6.78s0,0,0-.06l-.62.55.23-.18.36-.28ZM19,5a5.21,5.21,0,0,1-.42.43L19,5Zm.12,7.19v-.06l-.36.37Zm0-2,0,0-.24.24ZM19.07,14v0l0,0Zm.09-8.36v0l-.08.08h.08V5.61Zm0,3.28h0L19.08,9l.06-.05Zm0,2v0s0,0,0,0l0,0Zm0-4.77,0,0V6Z"/><path class="a" d="M27.4,8.71a1.19,1.19,0,0,1,0,.42,6.91,6.91,0,0,1-.22.83s0,.09,0,.13l0,0c-.07.23-.16.49-.27.77V11a.65.65,0,0,1-.12.26l-.06.15a.14.14,0,0,1,0,.07.09.09,0,0,1,0,.06l-.06.05-.09.21c-.07.19-.13.33-.17.42a3.43,3.43,0,0,1-.12.33.29.29,0,0,1,0,.18.87.87,0,0,1-.25.42c0,.1-.08.18-.11.24a.11.11,0,0,1,0,.12h0a0,0,0,0,1,0,0l-.09.24a.26.26,0,0,1,0,.15,1,1,0,0,1-.24.45c-.05.12-.1.27-.16.44a.06.06,0,0,1,0,.07.34.34,0,0,1-.12.2.65.65,0,0,1-.05.15.87.87,0,0,1-.05.12l-.39,1.06a.14.14,0,0,1,0,.11.53.53,0,0,1-.15.25l-.13.35h0c.07.08,0,.22-.17.41l-.12.31a.09.09,0,0,1,0,.09c0,.09-.06.18-.1.27a1.89,1.89,0,0,0-.06.18v0c0,.05,0,.11,0,.18l-.05,0c-.05.14-.09.26-.13.35s0,0,0,0a.08.08,0,0,1,0,.11h0s0,0,0,0a1.16,1.16,0,0,1-1,.54,1.32,1.32,0,0,1-.39-.06l-.12-.05s-.07,0-.09,0a.09.09,0,0,1-.07,0,.09.09,0,0,1,0-.09l-.12-.09a.1.1,0,0,1-.09,0,.11.11,0,0,1-.08,0,.09.09,0,0,1,0-.1h0a.26.26,0,0,1-.11-.07.15.15,0,0,1,0-.13.16.16,0,0,1,0-.08,1,1,0,0,1-.09-.21l0,0a.1.1,0,0,1-.06-.05q-.07-.09.06-.27a1.06,1.06,0,0,1,0-.31l0-.09v0a.24.24,0,0,1,.06-.15l0-.06.18-.52v0a.09.09,0,0,1,0-.06l.12-.38s0-.12.07-.22v0l0-.06h0a.3.3,0,0,1-.06-.23,1.08,1.08,0,0,1,.21-.39h0a.51.51,0,0,1,.16-.24l0-.05a.3.3,0,0,1,0-.1.66.66,0,0,1,.15-.26.5.5,0,0,0-.06-.3.08.08,0,0,1-.07,0s0,0,0-.06a.14.14,0,0,1,0-.06,1.14,1.14,0,0,0-.06-.14.11.11,0,0,1-.11,0s0-.09,0-.13v0l-.46-1h0a.11.11,0,0,1-.08,0,.09.09,0,0,1,0-.14h0a.67.67,0,0,0-.06-.12h0a.24.24,0,0,1-.11-.06s0-.11,0-.17q-.18-.4-.33-.78l-.06,0s0-.08,0-.14l-.21-.52h0a.11.11,0,0,1-.08,0,.17.17,0,0,1,0-.14.16.16,0,0,1,0-.09l-.24-.69h0a.09.09,0,0,1,0-.11,10.46,10.46,0,0,1-.3-1.08,1.09,1.09,0,0,1,0-.18h0a.2.2,0,0,1,0-.21.61.61,0,0,1,0-.14V8.71a.16.16,0,0,1,0-.16,1.11,1.11,0,0,1,.3-.54,1.2,1.2,0,0,1,.83-.32,1.32,1.32,0,0,1,.39.06h0a.09.09,0,0,1,.06,0,1.24,1.24,0,0,1,.54.5c0,.09.08.21.13.36a.05.05,0,0,0,0,0,10,10,0,0,0,.42,1h0a.14.14,0,0,1,0,.06L23,10h0a.06.06,0,0,1,.06,0,.12.12,0,0,1,0,.14l0,.07a.15.15,0,0,1,0,.06.13.13,0,0,1,.07.06s0,.07,0,.12l.08.15h.06a.08.08,0,0,1,.07,0s0,.1,0,.17a1.47,1.47,0,0,0,.1.22,0,0,0,0,0,0,0,.16.16,0,0,1,0,.09.08.08,0,0,0,0,0l0,.05h0a.11.11,0,0,1,.08,0,.15.15,0,0,1,0,.16l.06.14h0l.06,0a0,0,0,0,1,0,0l0,0q.07-.21.15-.39v-.11a.74.74,0,0,1,.17-.31l.12-.29a.14.14,0,0,1,0-.09.7.7,0,0,1,.16-.31.14.14,0,0,0,0-.07l0-.08L25,9c-.07-.08,0-.23.18-.46a1.17,1.17,0,0,1,.67-.72l0,0a.08.08,0,0,1,.08,0,1.06,1.06,0,0,1,.31,0l.3,0,.12,0h.11a.12.12,0,0,1,.09,0,.08.08,0,0,1,0,.08,1.3,1.3,0,0,1,.32.3l0,0a.06.06,0,0,1,.06,0,.1.1,0,0,1,0,.1.25.25,0,0,1,0,.08,2.17,2.17,0,0,1,.07.24A.08.08,0,0,1,27.4,8.71Zm-6.35-.46a8.62,8.62,0,0,0-.66.64c.12-.09.32-.25.59-.49a1,1,0,0,1,.18-.17.36.36,0,0,1,.07-.09l.27-.25-.1,0a.49.49,0,0,1-.11.14Zm-.6,1.29.8-.83-.14.12c-.42.36-.66.55-.7.57A.43.43,0,0,0,20.45,9.54Zm.08.3.34-.3L21.49,9l.39-.4c-.35.27-.81.67-1.39,1.2Zm.06.21a.42.42,0,0,0,0,.15l.14-.17.64-.66L22,8.74,21.76,9l-.12.1-.18.18L21,9.66h0C20.77,9.9,20.62,10,20.59,10.05Zm.1-1.8,0,.06.16-.18A2,2,0,0,0,21,7.92l-.09,0a.4.4,0,0,1-.07.12Zm.09,2.38.15-.16.41-.42c.31-.3.53-.53.67-.68l-1.3,1.08A1.34,1.34,0,0,1,20.78,10.63ZM21.73,8l-.45.41a1.36,1.36,0,0,0-.17.16l-.39.39L21,8.68A7.59,7.59,0,0,1,21.82,8Zm-.86,2.87h0Zm.18.31c.2-.15.51-.4.93-.76l-.12.1L21.2,11Zm.05.38.07-.09.27-.3.17-.18a6.69,6.69,0,0,1-.56.43A1.21,1.21,0,0,0,21.1,11.52Zm.09.19a.42.42,0,0,0,0,.12l.36-.36c.12-.11.24-.22.35-.34A7.68,7.68,0,0,1,21.19,11.71Zm.19.5q1.08-1.12,1.53-1.62a5.58,5.58,0,0,0-.84.69l-.34.33-.42.42A1.34,1.34,0,0,0,21.38,12.21Zm.12.32a1.09,1.09,0,0,1,.08-.15l-.12,0A.31.31,0,0,1,21.5,12.53Zm.65-3.64-.59.6c.43-.35.69-.55.78-.61l0-.14h0Zm-.53,3.88,0,0h0a.08.08,0,0,0,0,0Zm0,5.49.24-.24q.43-.43,1.23-1.14c.33-.3.7-.63,1.11-1l-.34.26a2,2,0,0,1-.23.16l-.15.14c-.45.4-1,.92-1.68,1.57l-.16.15v0A.14.14,0,0,0,21.62,18.26Zm.08-5.72a4.73,4.73,0,0,0,.9-.72l.73-.69c0-.05,0-.11-.07-.17l-.06,0c-.42.38-.74.68-.95.9A3.24,3.24,0,0,0,21.7,12.54Zm0,.54,0,0a0,0,0,0,1,0,0l.35-.33A2,2,0,0,1,21.74,13.08ZM21.79,19a1.35,1.35,0,0,0,.21-.13.6.6,0,0,1-.2.07l0,.05ZM22,8.14a.68.68,0,0,1-.15.21L22,8.2Zm-.11,5.23s0,0,0,0a.06.06,0,0,1,0,0c.23-.2.45-.4.65-.6C22.23,13.09,22,13.27,21.86,13.37Zm0,4,0,.07.05,0,.13-.1Zm.92-7.45-.06.08-.41.42-.46.49.46-.39.44-.36.09-.07ZM22,18.56c.18-.15.47-.38.88-.68l.39-.4c-.42.33-.73.58-.94.76Zm.1-4.95.26-.23a6.8,6.8,0,0,1,.7-.66q.38-.36.54-.54a3.88,3.88,0,0,0-.37.32c-.19.16-.47.41-.83.75s-.35.34-.39.37a.09.09,0,0,0,0,.05A.17.17,0,0,0,22.07,13.61Zm.44-4.34-.06-.12a3.63,3.63,0,0,1-.45.51A4.07,4.07,0,0,1,22.51,9.27ZM22,19.3a1.37,1.37,0,0,1,.17-.19,2,2,0,0,0-.2.16Zm0-2.42s0,0,0,0L22,17l.27-.21A.67.67,0,0,1,22.07,16.88ZM23,10.8l-.62.64-.31.33.76-.69.35-.33a.29.29,0,0,0-.06-.1Zm1.62,3.74c-1.25,1.05-2.05,1.74-2.39,2.07a8.32,8.32,0,0,0,.72-.56c.31-.27.81-.72,1.5-1.36Zm-2.27-.35c.08,0,.3-.14.65-.45s.62-.61,1.2-1.21l.16-.18-1.86,1.51a.63.63,0,0,0-.16.3A0,0,0,0,0,22.34,14.19Zm0,1.8,0,.11L25,14l-1.13.8-.33.22,0,0C22.86,15.57,22.49,15.9,22.37,16Zm.11,3.49a1.19,1.19,0,0,1,.13-.23l-.25.2A.27.27,0,0,0,22.48,19.48Zm-.09-5s0,.09.07.14l.48-.38.74-.69.84-.79C23.86,13.35,23.15,13.92,22.39,14.52Zm1.17-2-.26.21-.13.11c-.13.13-.33.31-.6.55l0,0,0,0,0,0a4.89,4.89,0,0,0,.4-.34C23.07,13,23.3,12.79,23.56,12.54Zm-.29,5.27-.06,0L23,18l-.49.47a1.07,1.07,0,0,0,.16-.14l.32-.27Zm1.46-1.89s0-.1.07-.18a.46.46,0,0,1,.05-.14l-1.53,1.32-.81.74.46-.39.72-.6.5-.4.3-.22.16-.11Zm-2.21,3.16.71-.6Zm.18-9.32h0Zm1.89,3.44c-.35.29-.73.6-1.14.92a5.35,5.35,0,0,0-.72.75,17.54,17.54,0,0,0,1.67-1.44l.78-.71Zm-1.51,6.22a.89.89,0,0,1,.24-.43l-.54.5A.94.94,0,0,0,23.08,19.42ZM26,12.51a.18.18,0,0,0,0-.06c-.19.18-.64.55-1.35,1.1s-1.22,1-1.5,1.23l-.24.22Zm-.66,1.73.07-.2-.85.78c-.71.66-1.23,1.13-1.55,1.4.58-.44,1-.82,1.41-1.13A6.81,6.81,0,0,0,25.36,14.24Zm-1.94-2.47c-.08.09-.17.2-.28.31.15-.12.29-.25.43-.38a.16.16,0,0,0,0-.08A.79.79,0,0,1,23.42,11.77Zm.39,6.61a.53.53,0,0,1,.05-.15l-.45.43A1.55,1.55,0,0,1,23.81,18.38Zm-.25.63v0l0,0h0Zm.9-2.36a.33.33,0,0,0,0-.1c-.08.06-.19.15-.32.27l-.42.4.39-.3Zm2.62-7.08c0-.15.08-.3.11-.45a.05.05,0,0,1-.05,0l0,0L27,9.1l-2.81,2.48a1,1,0,0,1-.15.15l-.12.32.81-.61,1.12-1c.28-.25.53-.46.75-.62a.89.89,0,0,1,.47-.22Zm-2.5,2.94a17.56,17.56,0,0,0,2.08-1.88h0a.74.74,0,0,0-.38.18,7.73,7.73,0,0,0-.62.52l-.63.61-.7.72a3.28,3.28,0,0,1-.25.26Zm-.32,4.67h0Zm.09-6.29-.06.16.57-.45a8.74,8.74,0,0,1,2-1.66l.34-.29,0-.1a12.3,12.3,0,0,1-1.17,1A14.41,14.41,0,0,0,24.35,10.89Zm.41-.81-.06.07.09-.07ZM25,9.43v0l0,0A.27.27,0,0,1,25,9.42Zm.34-.84v0q.35-.27.84-.72a.52.52,0,0,0-.21,0A7.12,7.12,0,0,0,25.31,8.59Zm1.17-.33-1.06,1,.51-.39.43-.33.5-.48L26.74,8A3.44,3.44,0,0,1,26.48,8.26ZM26.23,12a1.07,1.07,0,0,1,.07-.19l-.48.37-.16.15c.29-.23.47-.34.55-.33Zm-.29-1.4c.53-.39.87-.65,1-.78a4.79,4.79,0,0,0-.8.6Zm.45.76.11-.13-.23.18Zm0-3.43,0,.07.07-.06Zm.37,2.59.06-.15-.13.12A.09.09,0,0,1,26.78,10.48Zm.2-2.2,0,0v0Zm.24.64v0l0,0Z"/></svg>