<svg xmlns="http://www.w3.org/2000/svg" viewBox="0 0 395.35 290.93"><defs><style>.a{fill:#3479f6;opacity:0.65;}.b{fill:#fff;}.c{fill:#e4ba52;}.d{fill:#f3d265;}</style></defs><rect class="a" y="17.79" width="264.74" height="134.66" rx="25.45"/><path class="b" d="M70.64,81.52q0,.53-.06,8.76t.06,9.22a3.85,3.85,0,0,1-1.3,3.24,3.37,3.37,0,0,1-3.18.72,3.29,3.29,0,0,1-2.53-2.4,12.7,12.7,0,0,1-.32-2.47q-.14-6.48.19-15.06.14-3-2.07-4C60,79,58.55,79.49,57.21,81s-2,3.62-2.08,6.43c0,1-.06,2.61-.06,4.7s0,3.94,0,5.52-.05,2.48-.09,2.69a7.17,7.17,0,0,1-.72,2.15,3.59,3.59,0,0,1-5.55.9,3.72,3.72,0,0,1-1.07-1.94,10.63,10.63,0,0,1-.19-1.69,139.63,139.63,0,0,1,.06-23.69q.2-1.75,1.69-14.28a12.06,12.06,0,0,1,.39-1.3A3.3,3.3,0,0,1,51,58.68a2.92,2.92,0,0,1,2.27-.26,2.56,2.56,0,0,1,1.33.61,3.26,3.26,0,0,1,1.07,2.76c-.08,1.86-.19,4.55-.32,8.05s-.15,5.6-.07,6.3A11.5,11.5,0,0,1,58.12,74a8.56,8.56,0,0,1,5.48-.84c2.31.26,3.95,1,4.9,2.14A9.32,9.32,0,0,1,70.64,81.52Z"/><path class="b" d="M98,83.28A23,23,0,0,1,96,97.94a15,15,0,0,1-4.48,5.52,9,9,0,0,1-6.69,1.88,9.18,9.18,0,0,1-6.1-3.57Q75.65,98.08,75,91.65A22.15,22.15,0,0,1,77.91,78.6a14.28,14.28,0,0,1,4-4.48,8.9,8.9,0,0,1,6.59-1.81,9.54,9.54,0,0,1,6.06,3.44A15.87,15.87,0,0,1,98,83.28ZM90.5,95.93a16.9,16.9,0,0,0,2-10.19c-.17-1.12-.26-1.73-.26-1.82a10,10,0,0,0-2.14-4.35,3.33,3.33,0,0,0-4.74-.64,7.14,7.14,0,0,0-2.46,2.59,16.56,16.56,0,0,0-2,11.55,9.34,9.34,0,0,0,2.21,5,3.39,3.39,0,0,0,4.8.65A8,8,0,0,0,90.5,95.93Z"/><path class="b" d="M125.09,75.88q.45,2.13-.13,8.76a35.86,35.86,0,0,1-2.07,10.19,16.71,16.71,0,0,1-4.68,7.2,7.34,7.34,0,0,1-5.06,2.21,7.76,7.76,0,0,1-5.26-1.95,14.66,14.66,0,0,1-5.19-9.6q-1.42-9.61.07-16a4.83,4.83,0,0,1,.84-2,2.82,2.82,0,0,1,1.62-1.37,2.94,2.94,0,0,1,2.08.13,2.86,2.86,0,0,1,1.69,2,3.48,3.48,0,0,1-.07,1.46,16.81,16.81,0,0,0-.36,2.47c-.06.9-.1,1.67-.13,2.3a23.91,23.91,0,0,0,.17,2.86c.13,1.27.2,2.08.22,2.43s.13,1.25.33,2.72a16.43,16.43,0,0,0,.36,2.28,7.5,7.5,0,0,0,2.27,4.73,1.82,1.82,0,0,0,2.92-.06q2-.92,3.31-8.34t.58-11a3.31,3.31,0,0,1,.36-2.56,3.11,3.11,0,0,1,2-1.47,3.2,3.2,0,0,1,1.79,0,3.42,3.42,0,0,1,1.49.91A3.27,3.27,0,0,1,125.09,75.88Z"/><path class="b" d="M148.52,73.73A3.26,3.26,0,0,1,150,76.91a2.89,2.89,0,0,1-2.47,2.54q-2.34-.33-5.26,1.68a14.93,14.93,0,0,0-4.86,6.17,26.78,26.78,0,0,0-.49,5.77,62.58,62.58,0,0,1-.42,6.75,8,8,0,0,1-.59,1.89,3.2,3.2,0,0,1-.87,1.16,3,3,0,0,1-1.24.62,3.25,3.25,0,0,1-1.39,0,2.85,2.85,0,0,1-1.82-.87,4,4,0,0,1-1-1.85,6.11,6.11,0,0,0-.07-.85c-.08-7.26,0-12.46.2-15.57q.06-.45.39-7.92s0-.17,0-.39,0-.37,0-.45a3.23,3.23,0,0,1,.94-2.08,3,3,0,0,1,4,0,3.23,3.23,0,0,1,.94,2.08,5.53,5.53,0,0,1,.06.84v1a3.25,3.25,0,0,0,.07.81s0,.5.06,1.36c0,0,0,.06.1.06a.22.22,0,0,1,.16.07c.69-1,1.06-1.45,1.11-1.49a16,16,0,0,1,4.21-3.9A7.73,7.73,0,0,1,146.12,73,4,4,0,0,1,148.52,73.73Z"/><path class="b" d="M160.14,74.58q0,.9-.39,20.77c0,1.29-.07,2.85-.2,4.67a3.88,3.88,0,0,1-.94,2.5,3,3,0,0,1-2.17,1.07,3.05,3.05,0,0,1-2.27-.81,3.74,3.74,0,0,1-1.17-2.37,13.56,13.56,0,0,1-.13-2.08q.58-27.7.71-30t.59-7a3.63,3.63,0,0,1,1.1-2.27,2.75,2.75,0,0,1,2.14-.78,2.9,2.9,0,0,1,2,1.1,3,3,0,0,1,.68,2.34c0,1-.06,2.09-.06,3.27v3.09c0,.86,0,2,.06,3.34S160.14,73.84,160.14,74.58Z"/><path class="b" d="M188.56,73a2.54,2.54,0,0,1,1.75,1.3,3.32,3.32,0,0,1,.33,2.34c-.13.77-.32,1.58-.55,2.43s-.55,1.79-.94,2.85-.68,1.88-.88,2.44-.55,1.49-1.07,2.79-.84,2.08-1,2.34q-1.64,4.33-4.94,13.2c-2.2,5.91-3.83,10.16-4.86,12.76-.09.26-.2.59-.33,1s-.26.81-.39,1.2-.26.74-.39,1a3.1,3.1,0,0,1-1.68,1.66,3.37,3.37,0,0,1-4.61-3.8,6.67,6.67,0,0,1,.39-1.23q.45-1.25,1.75-5.2t2-5.77a3.75,3.75,0,0,0,.23-1.33,6.68,6.68,0,0,0-.42-1.66,4.24,4.24,0,0,1-.56-1c-.32-.69-.71-1.55-1.16-2.59l-1.59-3.6c-.61-1.37-1.22-2.79-1.82-4.29s-1.19-3-1.75-4.44-1.06-2.91-1.5-4.32-.75-2.63-1-3.67a6.75,6.75,0,0,1-.13-1.81,2.8,2.8,0,0,1,.68-1.69,3,3,0,0,1,1.53-1,3.31,3.31,0,0,1,1.91.16A2.51,2.51,0,0,1,169,74.38a7.82,7.82,0,0,1,.52,1.37c.22.65,1.35,3.28,3.41,7.91s3.28,7.51,3.67,8.64c0,0,.23.6.71,1.68q2.65-6.75,2.79-7.2.65-1.62,2.37-5.61c1.14-2.67,2-4.64,2.43-5.94a3.89,3.89,0,0,1,1.5-1.92A2.65,2.65,0,0,1,188.56,73Z"/><path class="c" d="M242.06,16.1S257.35,5.46,266.87,6s20.76,13.83,33.74,7.49,13.84-6.92,19.61-1.73S324,27.35,324,27.35l-18.45,27.4-24.23,2.89L247,37.16l-4.9-21.06Z"/><path class="d" d="M255.36,79.86a39,39,0,0,1-1.54,10.49c-2.77,9-143.29,127.71-32.08,186.39,86,45.37,236.11-23.57,145.53-128.18L319.43,93.31a134.74,134.74,0,0,1-1.74-13.45c-.05-1.89-.37-10.44-.3-12.34.48-3.24-.73-7.28,3-15.47s26.05-25.41,26.05-25.41S331.9,9.7,325.76,11.54s-25.54,37.2-25.54,37.2-5-7-1.75-17.67S310.76,4.18,310.76,4.18,293-2.09,288.78,2.7s-12.29-6.26-17.14-1.47-12,12.16-12,12.16,12,9.2,15.19,17.31a15.29,15.29,0,0,1-1,14s.33,0-6.78-5.89-13.58-30.21-22-28.73S216.69,18.18,231.19,27l20.36,28s2,8.92,2.89,12.51c.28,1.81.74,10.36.92,12.34Z"/><path class="c" d="M395.3,209.66c-20.57,74.45-128.58,79.77-189.25,57.17a113.81,113.81,0,0,0,15.68,9.91C289.45,312.46,396.91,277.3,395.3,209.66Z"/><circle class="c" cx="285.2" cy="180.62" r="58.04"/><path class="b" d="M304.91,158a21.81,21.81,0,0,0-13.72-7.68v-8.29H281.5v8.78q-1,.22-2,.54c-16.91,5.09-13.21,18.14-13,20.19s3.78,7.47,11.49,11.25,16.59,6.81,17.25,10.51-2.55,8.94-9.28,8.29-14.94-6.9-14.94-6.9l-6.65,7.89s5.25,6.72,17.22,8.21v8.33h9.69v-8.39c12.39-2,14.26-11.36,14.26-11.36s3.36-10.59-5-16.66S279.59,175,277.54,169s4.68-11.25,10.67-9.28a36.44,36.44,0,0,1,10.92,6.24l5.79-7.88Z"/><path class="b" d="M196.86,117.86C199.4,85,228.3,84,242.09,78.54a46.9,46.9,0,0,1,4.85-1.63,11,11,0,0,1,11.17-9.63,11.68,11.68,0,0,1,6.67,2.08L318,68c4,1.48,2.14,6.61.18,7.44L269.25,76.7c0,.4.07.81.07,1.23a10.25,10.25,0,0,1-.42,2.89l49.9-1.27c4,1.47,2.15,6.61.18,7.44L259.3,88.51a11.76,11.76,0,0,1-1.2.06h-.62l-.74,0-.12-.1a11.84,11.84,0,0,1-2-.43c-3.24,4.67-8.43,7.89-14,11.34-10.76,6.67-31,10.31-30,32.52l-5.21.22c-1.18-25.26,20.46-29.75,32.43-37.18,4.86-3,9.41-5.84,12.17-9.61a10.77,10.77,0,0,1-2.27-3.25c-1.17.34-2.45.77-3.79,1.31-12.53,4.94-39.59,4.68-41.92,34.84l-5.22-.38Z"/></svg>