<svg xmlns="http://www.w3.org/2000/svg" viewBox="0 0 45 36"><defs><style>.a{fill:#29abe2;}</style></defs><path class="a" d="M12.48,11.91a.74.74,0,0,1-.17.38v.32l.08.08c.09.09.06.25-.08.46,0,2.14,0,3.6,0,4.39a.2.2,0,0,1,0,.21,4.37,4.37,0,0,1,0,.46,2.47,2.47,0,0,1-.68,1.91,2.4,2.4,0,0,1-1.15.65l-.08.06a.19.19,0,0,1-.11,0h0a.15.15,0,0,1-.11-.08H10a2.32,2.32,0,0,1-.51-.05,0,0,0,0,1,0,0l0,.05q-.11.11-.21,0a.1.1,0,0,1-.06-.13,2.46,2.46,0,0,1-.4-.19.16.16,0,0,1-.11-.08A2.21,2.21,0,0,1,8.19,20a2,2,0,0,1-.48-.91q0-.11-.06-.24a.3.3,0,0,1-.08-.08.22.22,0,0,1,0-.3,1.39,1.39,0,0,0,0-.3v0a.37.37,0,0,1-.08-.25,1.26,1.26,0,0,1,.08-.18c0-.81,0-1.93,0-3.37a.15.15,0,0,1,0-.13c0-1.19,0-2.06,0-2.61v0A1,1,0,0,0,7.54,11h0a.17.17,0,0,1-.11-.09.15.15,0,0,1,0-.13.51.51,0,0,0-.17,0H7.11l-.75.59v0a.22.22,0,0,1-.05.14h0a4,4,0,0,0-.43,1.75v.83a.05.05,0,0,0,0,.05.14.14,0,0,1,0,.14.33.33,0,0,1-.05.16.21.21,0,0,1,.11,0,.61.61,0,0,1,.08.3,1.15,1.15,0,0,1-.22.43c0,.23,0,.52,0,.86a.17.17,0,0,1,0,.14v.05h0v.19a.19.19,0,0,1,.13.05.26.26,0,0,1,.06.24,1.11,1.11,0,0,1-.19.41c0,.46,0,.8,0,1a.28.28,0,0,1,0,.25.88.88,0,0,1,0,.24c.08.09,0,.25-.1.48a2.74,2.74,0,0,1-.3.76,2.18,2.18,0,0,1-.85.88,2.25,2.25,0,0,1-1.19.33,1.84,1.84,0,0,1-.33,0,2.12,2.12,0,0,1-1.42-.78.16.16,0,0,1-.25,0A.35.35,0,0,1,1.27,20a.2.2,0,0,1,0-.11,1.66,1.66,0,0,1-.13-.27A.38.38,0,0,1,1,19.5a.13.13,0,0,1,0-.12A.25.25,0,0,1,1,19.26a.16.16,0,0,1,.08-.05A3.34,3.34,0,0,1,1,18.72a.38.38,0,0,1-.11-.08.29.29,0,0,1-.05-.24.74.74,0,0,1,.1-.27.15.15,0,0,1,0-.16,3.32,3.32,0,0,0,0-.43.23.23,0,0,1-.12-.08.14.14,0,0,1,0-.12.24.24,0,0,1,.07-.13l.05,0c-.05-1-.09-2-.11-3a.08.08,0,0,1-.08-.05.16.16,0,0,1,0-.24l.08-.08v-1a.54.54,0,0,1-.08-.38,1.12,1.12,0,0,1,.11-.26c0-.26,0-.52,0-.79,0,0-.06,0-.06,0s-.07-.24.06-.41a3.59,3.59,0,0,0,0-.4l0,0a.15.15,0,0,1,0-.24l0,0c0-.07,0-.2,0-.4h0A.29.29,0,0,1,.82,9.6a.4.4,0,0,1,.1-.24c0-.18,0-.31,0-.38a.15.15,0,0,1,0-.13A.29.29,0,0,1,1,8.68V8.59a.43.43,0,0,1,0-.12c0-.2,0-.44.06-.73L1,7.69c-.09-.11,0-.26.13-.46.06-.39.11-.82.16-1.29a.33.33,0,0,1,0-.14c.06-.37.13-.92.22-1.64a.39.39,0,0,1,0-.09.74.74,0,0,0,0-.12.14.14,0,0,1-.11-.06c-.11-.14,0-.36.21-.67a2.75,2.75,0,0,0,0-.38.19.19,0,0,1,0-.1V2.66a.39.39,0,0,0,0-.14,5.16,5.16,0,0,1,.19-.75,2,2,0,0,1,.22-.41.1.1,0,0,1,.05-.1v0A2.06,2.06,0,0,1,3.94.31a2.35,2.35,0,0,1,.51.06.23.23,0,0,0,.11,0h0c.08-.08.15-.07.22,0a.1.1,0,0,1,0,.08,2.82,2.82,0,0,1,.57.35A.25.25,0,0,1,5.63,1a.27.27,0,0,1,.06.16v0a2.28,2.28,0,0,1,.43,1.53c0,.38,0,.92-.08,1.62l0,0a.29.29,0,0,1,0,.24.36.36,0,0,1,0,.19,0,0,0,0,1,0,0,.46.46,0,0,1,.08.27,1,1,0,0,1-.22.4v.7l.08.05c.09.11.06.26-.1.44V6.8a.71.71,0,0,1,.35-.16l.08.05a5.21,5.21,0,0,1,1.15-.24.41.41,0,0,1,.19,0,.14.14,0,0,1,.11,0H8a5.72,5.72,0,0,1,.92.08q.13-.11.21-.09a.15.15,0,0,1,.11.06.35.35,0,0,1,.06.09,4.22,4.22,0,0,1,1.64.75.1.1,0,0,1,.08,0l0,.06a1.8,1.8,0,0,1,.19.21,5,5,0,0,1,1.08,3.15v.78a.21.21,0,0,1,.11.05A.42.42,0,0,1,12.48,11.91Zm-11.34.33s0,0,0,0v0c1.2-1,2.32-1.9,3.34-2.75q2.68-2.24,3.44-2.8a.48.48,0,0,1-.18,0l-.62.43c-.42.34-1.21,1-2.37,2a37.29,37.29,0,0,1-3.55,2.91S1.14,12.2,1.14,12.24Zm0,.53v.06L4.83,9.76,7.62,7.5,8,7.2A.8.8,0,0,0,8.11,7Q6.72,8.09,1.11,12.77Zm0,.52v.21l1.24-1.1Zm0,.67v.24a2.17,2.17,0,0,1,.3-.35c.18-.2.4-.42.67-.67Zm0,1.16a3.29,3.29,0,0,1,.59-.52,1.44,1.44,0,0,1-.62.27A2.14,2.14,0,0,1,1.14,15.12Zm0-3.8a2.13,2.13,0,0,0,0,.3,11,11,0,0,1,.78-.81,24.77,24.77,0,0,1,2.34-2q.51-.4,1.08-.81a4.64,4.64,0,0,0,.72-.86s0,0,0,.05a.41.41,0,0,0-.13.08l-.14.08c-.36.29-1,.86-2,1.72A29.49,29.49,0,0,1,1.17,11.32Zm0,5.17v.43c.77-.59,1.47-1.16,2.1-1.7a13.92,13.92,0,0,0,2.05-2.07c-.11.13-.31.32-.59.59-.92.94-1.65,1.63-2.2,2.09a2.35,2.35,0,0,1-1.22.68h0A.22.22,0,0,1,1.19,16.49Zm0-6.6.05,0Zm0,7.57a1.52,1.52,0,0,1,0,.19l.4-.41L1.89,17A4.45,4.45,0,0,1,1.22,17.46Zm0-8a11.05,11.05,0,0,0,1-.91L2,8.76l-.16.14A5.67,5.67,0,0,0,1.25,9.46Zm.05,8.91a10.71,10.71,0,0,0,2.32-1.8c.48-.45,1-1,1.56-1.51l-1,.76-.4.26a.09.09,0,0,1,0,.06,13.48,13.48,0,0,1-2.48,2.1s0,0,0,.05Zm4.31-5.84a1.7,1.7,0,0,1,.1-.48c-.09.07-.22.2-.4.37a38.44,38.44,0,0,1-3.58,3.13c-.29.32-.42.53-.4.64s.58-.26,1.26-.83C3,15,3.64,14.36,4.5,13.5A5.24,5.24,0,0,1,5.61,12.53ZM1.35,19c.78-.61,1.48-1.19,2.1-1.75a23,23,0,0,0,1.81-1.74L3.91,16.76a10.18,10.18,0,0,1-2.58,2A1.66,1.66,0,0,0,1.35,19ZM1.87,8.31a3.51,3.51,0,0,0-.52.45,1.75,1.75,0,0,0,.46-.26l.3-.27.08-.06.32-.29C2.26,8.06,2,8.2,1.87,8.31ZM1.7,15.06l-.35.32.14-.1ZM9.64,7c0,.06-.09.14-.21.24s-.28.26-.51.46-.87.75-1.75,1.48q-2.7,2.26-3.88,3.31a17.43,17.43,0,0,0-1.91,1.89A18.78,18.78,0,0,0,3,13.18c.63-.52,1.71-1.46,3.26-2.83Q9.4,7.53,10,7.18A2.33,2.33,0,0,0,9.64,7Zm-8.2.46,0,.13.32-.35q.57-.59,1.59-1.53a.28.28,0,0,1,.11-.08l-.49.4C2.44,6.52,1.94,7,1.44,7.5ZM3.8,6.32q.92-.84,1.89-1.83c0-.13,0-.26,0-.41a28.05,28.05,0,0,0-4.22,4L1.68,8,2.94,7a3,3,0,0,1,.3-.21ZM1.6,6.1a.87.87,0,0,0,0,.13,1.45,1.45,0,0,0,.16-.18ZM1.73,5l-.05.43L2.14,5c.95-.85,1.65-1.48,2.09-1.91a6.91,6.91,0,0,0,1.16-1.3,3.36,3.36,0,0,0-.86.57l-.24.19c-.25.21-.53.47-.84.75-.59.54-1.15,1.09-1.69,1.64A0,0,0,0,1,1.73,5ZM4.88,7.1c.39-.38.65-.61.75-.7V6.23L1.76,9.87c.25-.18.54-.41.86-.67C3.12,8.75,3.87,8.05,4.88,7.1ZM1.76,19.74l3.74-3v-.16l-.89.64c-.29.27-.64.58-1.05.92l-.46.4a14.23,14.23,0,0,1-1.31,1.19S1.76,19.73,1.76,19.74Zm3.93-17L5,3.36c-.53.52-1,.95-1.39,1.29s-.61.57-.84.8q-.7.7-1,1l.26-.18L3.29,5.21C4.1,4.5,4.92,3.8,5.74,3.11c0,0,0,0,0,0,0-.17,0-.31,0-.43v0A.35.35,0,0,0,5.69,2.71ZM2,20.2a10.48,10.48,0,0,1,1.69-1.53c.68-.54,1.16-.93,1.43-1.16l-3.2,2.58A.21.21,0,0,0,2,20.2ZM1.89,3.73l.19-.16ZM2.4,20.55a1,1,0,0,1,.25-.35l-.35.27A.35.35,0,0,0,2.4,20.55ZM5.69,1.93A21.8,21.8,0,0,1,2.35,5.27l0,0c.27-.21.6-.48,1-.8a.54.54,0,0,1,.14-.11c.34-.34.75-.73,1.23-1.16a1.77,1.77,0,0,1,.17-.13l.62-.62.32-.3A1.35,1.35,0,0,0,5.69,1.93Zm-2-.22c-.63.54-1.07.94-1.32,1.19.27-.23.52-.44.75-.62C4.19,1.42,4.77,1,4.88.88A.64.64,0,0,1,4.69.8.84.84,0,0,1,4.5,1C4.38,1.11,4.11,1.36,3.7,1.71ZM3.13,20.55l.08-.08-.32.24,0,0,.16-.16ZM4.1.66l-.75.73L4.21.66ZM5.36,19l-.13.11c-.32.3-.83.75-1.51,1.34a2.45,2.45,0,0,0-.35.32,2.1,2.1,0,0,0,.65-.1s0-.07,0-.08A12.82,12.82,0,0,0,5.36,19Zm.14-4.87v-.27l-2,2a.38.38,0,0,0,.11-.08A11.12,11.12,0,0,1,5.5,14.15Zm1.64-3.82c.47-.38.88-.72,1.24-1A17.63,17.63,0,0,0,9.78,8a2.08,2.08,0,0,0,.35-.49q-.57.36-3.69,3.12c-1.36,1.22-2.34,2.09-2.93,2.59l.72-.57c.83-.62,1.45-1.11,1.86-1.45a1.55,1.55,0,0,1,.89-.7l0,0,0,0A.16.16,0,0,1,7.14,10.33ZM3.72,7.55l.86-.8-.16.13C4.22,7.06,4,7.28,3.72,7.55ZM5.2,1.28a9.43,9.43,0,0,0-1,.92.75.75,0,0,0,.13-.11A8.37,8.37,0,0,0,5.2,1.28Zm0,4.5a5.76,5.76,0,0,0,.43-.43V5.29c-.2.2-.46.43-.78.7a1.72,1.72,0,0,0-.27.27A4.2,4.2,0,0,1,5.23,5.78Zm.27,12.4v-.1a7.76,7.76,0,0,1-.62.59Zm0-11L5.61,7ZM9,6.88,7.36,8.39c-.24.21-.52.46-.84.72l-.29.27,3-2.45ZM6.52,7a1,1,0,0,1-.11.29L6.87,7,7,6.88Zm1.29,3.82.06.11L8,10.76l.57-.57,0,0Zm.08,5.7v.35A41.31,41.31,0,0,0,12,13v-.1a2.3,2.3,0,0,0-.27.16q-.7.72-1.35,1.32-.91.83-1.5,1.26C8.3,16.24,8,16.51,7.89,16.51Zm1.4-3.39L7.92,14.36a.16.16,0,0,1,0,.08Zm-1,1.48c.17-.14.37-.33.62-.56L8,14.85l-.11,0V15h0A4.77,4.77,0,0,1,8.32,14.6Zm-.26.92H8l-.14,0v.16Zm-.17,2.31v.06a9.41,9.41,0,0,0,1.54-1.46l-1,.78A4.6,4.6,0,0,0,7.89,17.83Zm0-.62v.09A.31.31,0,0,0,8,17.21.11.11,0,0,1,7.89,17.21ZM8.16,13A.57.57,0,0,1,8,13h0v.16Zm.57-1.53A3.11,3.11,0,0,1,8,12.1v.41a44.53,44.53,0,0,0,3.39-3.37,4.25,4.25,0,0,0-1,.73l-.08.08-.62.56ZM8,11.29a1.62,1.62,0,0,1,0,.33l.17-.16c.14-.15.41-.4.8-.76l.51-.46L10,9.71a4.54,4.54,0,0,0,.38-.38l.19-.19C9.9,9.7,9.05,10.41,8,11.27ZM8.06,19c.62-.55,1.21-1.09,1.74-1.61a1.06,1.06,0,0,0,.19-.16,10.4,10.4,0,0,1-2,1.56l.06.19Zm3.12-6.51.78-.75v-.06c-.11.13-.28.3-.51.52s-.83.75-1.62,1.45L8.35,15a5.35,5.35,0,0,0,.94-.69C9.71,14,10.33,13.36,11.18,12.53ZM9.37,17.38l-1,.78.72-.57Zm-.83,2.28A15.14,15.14,0,0,0,9.89,18.4a7.55,7.55,0,0,1,2-1.72v-.33c-.29.25-.58.51-.89.76a2.46,2.46,0,0,1-.21.24c-.88.88-1.5,1.47-1.86,1.78A3.8,3.8,0,0,0,8.54,19.66Zm.13.33h0l0,0Zm1.94-.73A7.88,7.88,0,0,0,12,17.73a2.53,2.53,0,0,0-.7.51c-.25.21-.66.6-1.21,1.15s-.8.77-1,.89l.3.11C9.85,20,10.25,19.62,10.61,19.26ZM9.29,16.11l.51-.4c.74-.58,1.24-1,1.51-1.21l.32-.33C11.13,14.57,10.35,15.21,9.29,16.11Zm.51.43-.18.19c.62-.52,1.1-.92,1.42-1.21a4.6,4.6,0,0,0,.84-.86,2.06,2.06,0,0,0-.73.51C10.88,15.4,10.43,15.86,9.8,16.54Zm.84,3.5c.39-.43.68-.75.86-1l-1.67,1.4H10a1,1,0,0,0,.25,0,.06.06,0,0,0,0,0A4,4,0,0,1,10.64,20ZM11.5,9.92c-.22.18-.65.59-1.29,1.24l.82-.74A4.08,4.08,0,0,0,11.5,9.92Zm.43.3a.88.88,0,0,0,0-.24,12.32,12.32,0,0,1-1.61,1.58l1.61-1.32S11.91,10.22,11.93,10.22ZM10.5,7.45a1.54,1.54,0,0,1-.18.37l.16-.19a.45.45,0,0,1,.13-.1Zm.43.91-.37.38a2.89,2.89,0,0,1,.67-.49.35.35,0,0,0-.08-.1v0A2.35,2.35,0,0,0,10.93,8.36Zm.68,8.88c-.22.18-.53.47-.94.86C11.1,17.73,11.41,17.44,11.61,17.24Zm-.68-9.42,0,0h0Zm.49.73a.83.83,0,0,1-.11.24l.16,0h.06Zm.35.89c0-.09,0-.17,0-.24l-.33.4A.51.51,0,0,1,11.77,9.44Zm0,3-.3.3a.09.09,0,0,1,.06,0A2.91,2.91,0,0,0,11.77,12.42ZM12,11.19v-.11l-.35.35A1.39,1.39,0,0,1,12,11.19Zm0,4.49a2.49,2.49,0,0,1-.32.43,2.34,2.34,0,0,1,.32-.24Zm0,2.66v0Z"/><path class="a" d="M24.71,8.25c.09.09.07.25-.08.46,0,.11,0,.23,0,.35a2.89,2.89,0,0,1-.34.82,2,2,0,0,1-.59.61,1.8,1.8,0,0,1-.8.29l-.13,0-.11,0h-.13a2.07,2.07,0,0,0-.7.14.59.59,0,0,1-.3.13,5,5,0,0,0-1.94,2,.33.33,0,0,1,.06.19,1,1,0,0,1-.35.54q0,.3-.06.81l.11.08a.34.34,0,0,1,.05.27.63.63,0,0,1-.18.37v.22a6.65,6.65,0,0,1,0,.73.27.27,0,0,1,.2.29.6.6,0,0,1-.15.3c.07.11.05.24-.08.4,0,.47-.08.89-.13,1.27l0,0c.09.11,0,.29-.16.54a.37.37,0,0,0,0,.11c-.06.12-.11.24-.17.35l0,0v0a.18.18,0,0,1-.06.19l-.08,0a2.29,2.29,0,0,1-1,.83l-.08.05a.18.18,0,0,1-.14.06l-.08,0a2.47,2.47,0,0,1-.54.05h-.08a.19.19,0,0,1-.1,0,.2.2,0,0,1-.11,0l-.08,0a2.36,2.36,0,0,1-1-.41.26.26,0,0,1-.21,0,.2.2,0,0,1-.17-.08.41.41,0,0,1-.08-.24,1,1,0,0,0,.06-.14l0,0a.09.09,0,0,1,0-.06,1.49,1.49,0,0,1-.24-.43.08.08,0,0,1-.11,0,.09.09,0,0,1-.1-.06.25.25,0,0,1-.08-.21.8.8,0,0,1,.13-.27,2.09,2.09,0,0,1,0-.38v-.72h0a.39.39,0,0,1-.06-.3.41.41,0,0,1,.06-.19v-.27a.58.58,0,0,1-.08-.43.44.44,0,0,0,0-.13q-.07-.1.06-.27c0-.65,0-1.23,0-1.75v-.22a.14.14,0,0,1,0-.21v-.22l0,0a.46.46,0,0,1-.08-.27,1,1,0,0,1,.08-.22l-.05,0a.29.29,0,0,1-.06-.17c0-.07.06-.17.19-.29a3.33,3.33,0,0,1,0-.46c0-.07,0-.12,0-.16s0-.24,0-.3a1,1,0,0,1,0-.21.15.15,0,0,1-.11-.06c-.09-.1,0-.27.14-.48V11a.15.15,0,0,1,0-.22c0-.23,0-.53,0-.89a.3.3,0,0,1,0-.19V9.68l0,0q0-.68,0-1V8.47c-.06-.07,0-.18,0-.32a2.49,2.49,0,0,1,.19-.62.16.16,0,0,1,0-.22.19.19,0,0,1,.1,0,1.94,1.94,0,0,1,1.75-1,2,2,0,0,1,1.48.59.06.06,0,0,1,.08,0,.22.22,0,0,1,.14,0,.25.25,0,0,1,0,.24,2.68,2.68,0,0,1,.18.33h0s.07,0,.11.08.06.17,0,.29a.27.27,0,0,1,0,.08,8.23,8.23,0,0,1,1.1-.86A4,4,0,0,1,21,6.59a1.11,1.11,0,0,1,.53-.22h0a.38.38,0,0,1,.19,0l.38,0h.17l.12,0a2.56,2.56,0,0,1,1,.3h.08a.22.22,0,0,1,.14,0l.08.16a2.24,2.24,0,0,1,.83,1.22A.23.23,0,0,1,24.71,8.25Zm-10,6.49v.19a8.1,8.1,0,0,1,.59-.59A3.34,3.34,0,0,1,14.73,14.74Zm0,1v.06l0-.06Zm0-1.48a.07.07,0,0,0,0,.06c.12-.08.33-.23.61-.46A3.21,3.21,0,0,1,14.78,14.28Zm0,2.15v.43h0a11.75,11.75,0,0,1,1-.83c.23-.21.59-.57,1.07-1.08l.41-.45-.08.05a8.81,8.81,0,0,1-1,.73l0,0L15,16.19l-.26.22Zm0,1.65.4-.38.91-.92h0c-.67.54-1.1.87-1.29,1v.3Zm5.11-6.73c1.79-1.53,2.95-2.53,3.47-3l.59-.59.06,0a1.62,1.62,0,0,0-.17-.19,8.63,8.63,0,0,1-1.31,1.32c-.58.5-1.67,1.41-3.29,2.72-1.47,1.18-2.48,2-3,2.5a9.13,9.13,0,0,0-1.4,1.37l.12,0h.15a29.49,29.49,0,0,1,4.33-3.72Zm-5.09,2v.16a8.22,8.22,0,0,0,1-.75l1.4-1.21L19,9.89l.52-.45-.06,0c-1.6,1.21-2.71,2.07-3.34,2.59A8.59,8.59,0,0,0,14.78,13.31Zm0-.8a0,0,0,0,0,0,0Zm2,3.17c-.34.25-.61.46-.81.62a5.45,5.45,0,0,1-1,.83,2.35,2.35,0,0,0-.19.22C15.17,17.08,15.84,16.52,16.83,15.68Zm-1.94-4.17a1.73,1.73,0,0,1,0,.32l1.51-1.53Zm.16,8,1.86-1.62a14,14,0,0,0,1.64-1.69l-3.66,3C14.94,19.33,15,19.45,15.05,19.56ZM15,10.11a2.43,2.43,0,0,0,0,.38c.51-.47,1-.93,1.46-1.38A4.13,4.13,0,0,1,15,10.11Zm.67-1.18a4,4,0,0,0-.67.83,2.92,2.92,0,0,0,.89-.65c.32-.26.81-.71,1.45-1.34A6.5,6.5,0,0,1,18,7.12l-.25-.19a.76.76,0,0,1-.21.25L17,7.63C16.39,8.21,15.93,8.64,15.64,8.93ZM15,9.11v0l0,0Zm0-.61v.05a.09.09,0,0,0,0-.05Zm1.14-1.75c-.35.43-.64.81-.89,1.15.16-.14.41-.37.75-.7s.46-.44.57-.53A2,2,0,0,0,16.16,6.75ZM15.37,20a4.07,4.07,0,0,0,.54-.4,3.49,3.49,0,0,1-.56.37h0ZM18.55,8.6l-3.09,3.12c.12-.1.26-.23.4-.37.39-.34,1.08-1,2-1.94.76-.75,1.32-1.3,1.7-1.64a5.25,5.25,0,0,0-.78.7l-.27.27Zm-2.1,11.84c.86-1,1.48-1.68,1.86-2.15a12,12,0,0,0-1.19,1c-.34.32-.69.68-1.05,1.07a1,1,0,0,0,.3.08ZM18.31,7.55c-.07.09-.17.21-.3.35q-.45.51-1.26,1.35l-.3.27.22-.16a6.55,6.55,0,0,1,.62-.51l.8-.81.3-.3A1.08,1.08,0,0,0,18.31,7.55Zm.56,7.62V15a5.85,5.85,0,0,0-.7.54L16.64,17l-.16.16a1.17,1.17,0,0,0,.16-.11c.82-.64,1.4-1.1,1.72-1.37A6.05,6.05,0,0,0,18.87,15.17ZM17.15,6.69a.76.76,0,0,1-.11.16.51.51,0,0,1,.22-.13A.23.23,0,0,0,17.15,6.69ZM18.52,19l-1,1c-.2.19-.34.35-.43.45a.92.92,0,0,0,.27-.08C17.86,19.81,18.25,19.36,18.52,19ZM21.81,9l-1.67,1.18c-.38.33-.94.81-1.67,1.46l-1.16,1L19,11.27C20.34,10.21,21.27,9.45,21.81,9ZM19,13.37a.16.16,0,0,1,0-.08,4.53,4.53,0,0,0-.56.45,15.22,15.22,0,0,0-1.16,1.19c.57-.43,1-.77,1.29-1l.35-.32a.89.89,0,0,1,0-.22ZM18.9,14.6v-.18l-.24.24-.22.21A3.55,3.55,0,0,1,18.9,14.6Zm-.24,3.88,0-.08-.16.19a.2.2,0,0,0-.08.08,1.35,1.35,0,0,1,.22-.14Zm.16-2a.16.16,0,0,0,0-.08l-.38.43A2.32,2.32,0,0,0,18.82,16.51Zm-.08,1.32a.76.76,0,0,0,0-.21,1.49,1.49,0,0,1-.22.21l.08,0ZM20.86,7.55c-.34.26-.71.56-1.13.92l-1,.91c.54-.43,1-.8,1.35-1.13A7.52,7.52,0,0,0,20.86,7.55Zm-1.5,4.71a.35.35,0,0,1,.08-.1,2.46,2.46,0,0,1-.24.21.3.3,0,0,1,.08-.07Zm-.06.6c0-.08.08-.14.11-.19a1.37,1.37,0,0,0-.21.19Zm1.86-6-.24.19a2.22,2.22,0,0,0,.27-.19Zm.67,0a3.87,3.87,0,0,1-.72.89,9.09,9.09,0,0,0,1.18-1h-.11A1.29,1.29,0,0,0,21.83,6.88Zm1.59,2.8c.32-.38.57-.66.73-.86-.2.14-.5.39-.92.75l-.37.35-.52.51h.33l.08,0,.08,0h0a.66.66,0,0,1,.18-.29C23.1,10.07,23.22,9.91,23.42,9.68ZM23.37,7.1a1.78,1.78,0,0,0-.27.18,1.28,1.28,0,0,1,.27-.16Zm.19,1.66a4,4,0,0,1,.67-.53A2,2,0,0,0,24.15,8a1.41,1.41,0,0,1-.33.32l-.24.25a5.43,5.43,0,0,1-.48.48A4.53,4.53,0,0,0,23.56,8.76Zm.61.54-.05.06h0A.07.07,0,0,0,24.17,9.3Z"/><path class="a" d="M30.71,11.59a.08.08,0,0,1,0,.05l-.06,0v.46l0,0c.07.09.06.2,0,.35,0,.5,0,1,0,1.61a.16.16,0,0,1,.1.05.32.32,0,0,1,.06.27.94.94,0,0,1-.19.35v.54a.16.16,0,0,1,0,.24h0v1c0,.49,0,1.06-.08,1.72a.32.32,0,0,1,0,.35,1.94,1.94,0,0,1-.16.65.21.21,0,0,1,0,.19s0,0,0,0,0,0,0,0a2.35,2.35,0,0,1-.61.82,2,2,0,0,1-.87.44.51.51,0,0,1-.19.08h0l-.05,0h-.24a2.63,2.63,0,0,1-.57-.05s0,0,0,0,0,0,0,0a.15.15,0,0,1-.12,0,.19.19,0,0,1-.12-.07.11.11,0,0,1,0-.13A2.08,2.08,0,0,1,26.6,20l0,0a.15.15,0,0,1-.12,0,.19.19,0,0,1-.12-.07.23.23,0,0,1,0-.32.54.54,0,0,0-.05-.11l0,0a.19.19,0,0,1-.05-.13,2.84,2.84,0,0,1-.13-.38s0,0-.06-.05A.24.24,0,0,1,26,18.8a.83.83,0,0,1,0-.13c0-.22,0-.44,0-.67a.16.16,0,0,1,0-.19v-.38a.18.18,0,0,1-.11-.05c-.09-.13-.05-.31.13-.54V15.73c0-1.25.07-2.13.09-2.63q-.06,0-.06,0c-.07-.09-.05-.2.06-.32,0-.74,0-1.38,0-1.91,0,0,0,0-.05-.06s0-.2.08-.35V10.3L26,10.24A.45.45,0,0,1,26,10a.9.9,0,0,1,.19-.38V9.52a.27.27,0,0,1,0-.27V9l0,0a.32.32,0,0,1-.08-.27.87.87,0,0,1,.11-.25v0a.23.23,0,0,1-.08-.24.9.9,0,0,1,.1-.27V7.66a.11.11,0,0,1,0-.11V7.47a2.81,2.81,0,0,1,0-.45.17.17,0,0,1,0-.19c0-.7,0-1.2,0-1.51,0-.13,0-.26,0-.4s0,0,0,0-.06-.22.05-.38,0-.35.05-.56a.14.14,0,0,1,0-.22l0,0c0-.26.05-.54.08-.87a.11.11,0,0,1,0-.08,2.11,2.11,0,0,1,0-.32.09.09,0,0,0-.06,0c-.07-.09,0-.23.11-.43a.09.09,0,0,1,0-.05,3.66,3.66,0,0,1,.18-.46.17.17,0,0,1,0-.19l.06,0,.05-.06a2,2,0,0,1,.94-.75l.05,0a2.2,2.2,0,0,1,.68-.11h.19a2,2,0,0,1,1.1.44.38.38,0,0,1,.19-.06l.19.08a.37.37,0,0,1,0,.38,2.2,2.2,0,0,1,.43,1.48c0,.2,0,.42,0,.67a.15.15,0,0,1,.11.06.35.35,0,0,1,.05.18.82.82,0,0,1-.19.33V4.7l.06,0a.41.41,0,0,1,0,.21,1,1,0,0,1-.08.19v.62l.08,0a.26.26,0,0,1,0,.19.49.49,0,0,1-.12.24.54.54,0,0,0,0,.11.93.93,0,0,1,0,.14.14.14,0,0,1,0,.19c0,.52,0,.93,0,1.23v.54c.13.15.12.33,0,.57v.91l.1.08c.08.09.05.2-.08.33a.06.06,0,0,0-.05,0v1a.09.09,0,0,1,.08,0C30.81,11.45,30.8,11.52,30.71,11.59Zm-4.38,5.87c.1-.11.33-.32.67-.62.7-.63,1.25-1.13,1.64-1.51l-2.31,1.88v.25Zm0-1.56V16a38.54,38.54,0,0,0,3.91-3.55,6.1,6.1,0,0,0-.84.62c-.34.31-.89.82-1.64,1.53A9.58,9.58,0,0,1,26.35,15.9Zm0-.73a.68.68,0,0,0,0,.19l.43-.43.09-.06A1.33,1.33,0,0,1,26.38,15.17Zm0,3.5a2,2,0,0,0,.19-.16l-.08,0A.85.85,0,0,1,26.38,18.67Zm0-5.71v.24c.09-.1.19-.22.32-.34.36-.36.85-.85,1.48-1.46l.11-.11C27.71,11.81,27.07,12.37,26.41,13Zm0-.8v.24c.18-.16.54-.46,1.08-.89,1-.79,1.65-1.37,2-1.75a4.6,4.6,0,0,0,.67-.7Zm0-1.48V11l.35-.35,1.4-1.43C27.65,9.7,27.07,10.17,26.46,10.68Zm3.85.72v-.13l-.54.43c-1,.81-1.72,1.42-2.21,1.85a6.2,6.2,0,0,0-1.1,1.19c.25-.18.89-.74,1.91-1.67A23.44,23.44,0,0,1,30.31,11.4ZM26.49,9.73v0c.29-.21.87-.73,1.75-1.53a13.5,13.5,0,0,0-1.19,1A2.91,2.91,0,0,0,26.49,9.73Zm0-1.23q.61-.43,2.28-1.86l-.05,0c-.81.59-1.36,1-1.67,1.26A3.19,3.19,0,0,0,26.52,8.5Zm.05-2.27v.25c.12-.13.37-.35.73-.68a32.88,32.88,0,0,0,2.85-2.71,7,7,0,0,0-1.89,1.45c-.59.57-1.14,1.13-1.64,1.67A.06.06,0,0,1,26.57,6.23ZM26.7,4c0,.08,0,.12,0,.14.21-.2.61-.55,1.18-1.05a20.65,20.65,0,0,0,2-1.88A16.8,16.8,0,0,0,28.26,2.6,11.43,11.43,0,0,1,26.7,4Zm1.16,2.4c.72-.59,1.49-1.25,2.32-2a.16.16,0,0,1,.13-.06V4.22c-.25.23-.74.63-1.45,1.21S27.5,6.5,27.21,6.77a2.88,2.88,0,0,0-.53.57.75.75,0,0,1,.13-.11Zm.78-.16-.56.43c-.43.36-.78.64-1,.83l-.35.33C27.09,7.49,27.74,7,28.64,6.21Zm1.62-4.28a4,4,0,0,0-.3.3l-1,.88A21.83,21.83,0,0,0,26.7,5.19a4.16,4.16,0,0,0,.86-.62c.24-.18.52-.42.84-.7a2.61,2.61,0,0,1,.24-.22c.54-.5,1.09-1,1.64-1.61A.43.43,0,0,0,30.26,1.93ZM26.78,3a1.62,1.62,0,0,1,0,.3l.62-.7A3,3,0,0,1,26.78,3ZM28.91,9.2l.65-.62A4.26,4.26,0,0,1,30,8.21c.11-.1.2-.16.25-.2a.37.37,0,0,1,.16,0V7.55l-3.52,3.58c.14-.1.32-.25.54-.43S28.21,9.91,28.91,9.2ZM27.3,20a2,2,0,0,1,.24-.22c.72-.66,1.26-1.19,1.64-1.58s.51-.56.67-.76l-3,2.43a2,2,0,0,0,.29.29A.76.76,0,0,1,27.3,20Zm3-9.77V9.84Q28,12,27,13.12c.46-.44,1.27-1.14,2.42-2.09l.94-.81A0,0,0,0,0,30.34,10.19Zm-.14,6c0-.15,0-.23,0-.27-1.28,1.09-2.27,2-3,2.72l.57-.51A12.62,12.62,0,0,1,30.2,16.14Zm.06-2.56s0-.09,0-.16a2.19,2.19,0,0,0-.24.22l-1.26,1.1c-.61.5-1.05.88-1.32,1.13Zm-2.75,6.73.16-.16-.19.16ZM30.15,5.94l-.94.86L27.78,8.06c.77-.62,1.61-1.33,2.53-2.12V5.8A1.22,1.22,0,0,1,30.15,5.94Zm-1.8,14.53a4.75,4.75,0,0,1,1-1.16l.49-.48c-.47.38-1.09.91-1.86,1.61l.35,0ZM28,.8a.12.12,0,0,1,.08-.05h0Zm1.37,0L28,2.36h0c.77-.75,1.29-1.23,1.54-1.43Zm.4,17.41c-.27.21-.7.61-1.29,1.18l-.22.19.27-.22C29.14,18.86,29.56,18.47,29.77,18.24ZM28.91.66a1.18,1.18,0,0,1-.21.3L29,.69ZM30,19.26a.54.54,0,0,0,.05-.11l-.43.41c-.27.25-.45.44-.56.56C29.29,19.89,29.6,19.6,30,19.26Zm.4-12.16a.27.27,0,0,1,0-.11L29.23,8l.41-.32.64-.51ZM30,1.45q-.24.28-.75.78l.8-.68Zm.22,12.89v-.11l-.65.67C29.83,14.7,30,14.51,30.26,14.34Zm0-3.56a.16.16,0,0,0,0-.08l-.43.43Zm-.13,6.84v-.06s-.06.07-.06.09A.09.09,0,0,1,30.18,17.62Zm.16-15v0l-.14.14h0l.11,0V2.63Zm0,5.89v0h0l-.14.16.11-.08Zm-.05,3.55V12a.05.05,0,0,0,0,0,.07.07,0,0,1-.06,0A.23.23,0,0,1,30.31,12.07Zm-.08-8.55a.28.28,0,0,1,.08-.06v0A.38.38,0,0,1,30.23,3.52Z"/><path class="a" d="M45.11,8.2a1.9,1.9,0,0,1,0,.75,12.33,12.33,0,0,1-.4,1.48.16.16,0,0,1,0,.25l0,.05c-.13.41-.29.87-.48,1.37v.14a1.3,1.3,0,0,1-.22.45,1.86,1.86,0,0,1-.11.27.27.27,0,0,1,0,.12.17.17,0,0,1,0,.12l-.11.09c-.06.12-.11.25-.16.37-.13.34-.23.59-.3.76A5.61,5.61,0,0,1,43,15a.46.46,0,0,1,.06.32,1.57,1.57,0,0,1-.46.75,3.13,3.13,0,0,1-.19.43.2.2,0,0,1,0,.22h0a.05.05,0,0,1,0,.05c-.05.15-.11.29-.16.43a.42.42,0,0,1,0,.27,1.77,1.77,0,0,1-.43.81q-.14.33-.3.78a.12.12,0,0,1,0,.14c0,.09-.07.2-.22.35s0,.16-.09.27l-.1.21c-.32.88-.55,1.52-.7,1.91a.21.21,0,0,1,0,.19,1,1,0,0,1-.27.46l-.24.62v0c.13.15,0,.39-.3.73-.07.2-.14.38-.21.56s0,.11-.06.17a4.68,4.68,0,0,1-.18.48,2,2,0,0,0-.11.32l0,0c.07.09,0,.2-.08.32l-.09.08c-.09.25-.17.46-.24.62a.31.31,0,0,1,0,.08.15.15,0,0,1-.06.19s0,0,0,0,0,0-.06,0a2.06,2.06,0,0,1-1.83,1,2.17,2.17,0,0,1-.7-.11.6.6,0,0,1-.21-.08c-.07,0-.13.05-.16,0a.22.22,0,0,1-.14-.05.17.17,0,0,1-.05-.17l-.22-.16c-.07,0-.12.05-.16,0a.19.19,0,0,1-.13-.05.16.16,0,0,1,0-.19h0a.52.52,0,0,1-.19-.11.29.29,0,0,1,0-.24.34.34,0,0,1,0-.14,2,2,0,0,1-.16-.37l-.08,0a.15.15,0,0,1-.11-.08c-.09-.1,0-.27.11-.48a1.79,1.79,0,0,1,0-.57,1.42,1.42,0,0,1,0-.16v-.08a.45.45,0,0,1,.11-.27.36.36,0,0,0,0-.11c.08-.26.19-.58.32-.94v-.05a.18.18,0,0,1,.05-.11c.06-.16.13-.38.22-.67-.07-.09,0-.23.13-.41v0c0-.06.06-.09.06-.11l0,0a.49.49,0,0,1-.11-.4,2,2,0,0,1,.38-.7v0a1,1,0,0,1,.29-.43.16.16,0,0,0,0-.08.5.5,0,0,1,0-.19,1.2,1.2,0,0,1,.27-.45.91.91,0,0,0-.1-.54.17.17,0,0,1-.14-.08.1.1,0,0,1,0-.11.23.23,0,0,1,0-.11,2,2,0,0,0-.11-.24.2.2,0,0,1-.19,0,.16.16,0,0,1,0-.25l0,0-.84-1.81h-.05a.15.15,0,0,1-.13-.05.15.15,0,0,1,0-.24l0,0a1.5,1.5,0,0,0-.11-.22h0a.32.32,0,0,1-.19-.1c-.07-.09-.06-.19,0-.3-.21-.48-.41-.95-.59-1.4a.18.18,0,0,1-.11,0,.16.16,0,0,1,0-.24c-.12-.33-.25-.64-.38-1h0a.17.17,0,0,1-.14,0,.29.29,0,0,1-.05-.24.3.3,0,0,1,.05-.16c-.16-.45-.3-.86-.43-1.24,0,0,0,0-.05,0s-.06-.11,0-.19a19.64,19.64,0,0,1-.54-1.93c0-.11,0-.22,0-.33l-.06,0a.36.36,0,0,1,0-.38.88.88,0,0,1,0-.24V8.2a.31.31,0,0,1,0-.3,1.93,1.93,0,0,1,.54-1,2.05,2.05,0,0,1,1-.53,2.76,2.76,0,0,1,.51,0,2.43,2.43,0,0,1,.7.11h0a.21.21,0,0,1,.11,0,2.17,2.17,0,0,1,1,.89,5.75,5.75,0,0,1,.25.64.2.2,0,0,0,0,.09c.06.21.31.82.76,1.83h0a.19.19,0,0,1,0,.1l.19.43h0a.09.09,0,0,1,.1.06.18.18,0,0,1,0,.24l.07.13a.29.29,0,0,1,0,.11.3.3,0,0,1,.14.11.16.16,0,0,1,0,.21l.13.27.11,0a.14.14,0,0,1,.13.08c.06.07,0,.17-.08.29a3.89,3.89,0,0,0,.19.41s0,0,0,0a.37.37,0,0,1,0,.17.27.27,0,0,0,0,.08l0,.08h0a.22.22,0,0,1,.14.05.31.31,0,0,1,0,.3c0,.07.07.15.1.24h.06a.21.21,0,0,1,.11.05.14.14,0,0,1,0,.06l.06-.06c.09-.25.18-.48.27-.7v-.18a1.17,1.17,0,0,1,.29-.57c.07-.16.15-.33.22-.51a.22.22,0,0,1,0-.16,1.21,1.21,0,0,1,.29-.57.54.54,0,0,0,.07-.12l.07-.15c.34-.8.59-1.41.75-1.8-.12-.14,0-.42.32-.83a2.16,2.16,0,0,1,1.22-1.3l.05,0a.11.11,0,0,1,.13,0A2.12,2.12,0,0,1,43,6.37a3.29,3.29,0,0,1,.54,0l.21.06.19,0a.24.24,0,0,1,.16.08.12.12,0,0,1,0,.14,2.34,2.34,0,0,1,.56.53l.08,0a.1.1,0,0,1,.11.08.19.19,0,0,1,.06.19.39.39,0,0,1,0,.13,3.52,3.52,0,0,1,.13.43A.14.14,0,0,1,45.11,8.2ZM33.73,7.37a15.79,15.79,0,0,0-1.19,1.15c.22-.16.57-.46,1.05-.89a1.9,1.9,0,0,1,.33-.29.49.49,0,0,1,.13-.16l.48-.46-.18,0a.66.66,0,0,1-.19.24ZM32.65,9.68,34.08,8.2l-.24.21a14.27,14.27,0,0,1-1.27,1Zm.14.54c.21-.18.42-.36.61-.54l1.11-1c.28-.29.52-.53.7-.73-.63.49-1.46,1.21-2.48,2.16A.91.91,0,0,0,32.79,10.22Zm.1.37a2.76,2.76,0,0,0,.08.27l.25-.29c.21-.22.6-.61,1.15-1.19s.91-.91,1.11-1.13c-.15.11-.31.25-.49.41a1.2,1.2,0,0,0-.21.19l-.33.32-.78.72s0,0,0,0A6.21,6.21,0,0,1,32.89,10.59Zm.19-3.22-.08.1.3-.32a3,3,0,0,0,.37-.38l-.16.06a.92.92,0,0,1-.13.21A4.15,4.15,0,0,1,33.08,7.37Zm.16,4.27c0-.05.13-.15.27-.29s.37-.4.73-.76c.55-.53,1-.94,1.21-1.21l-2.34,1.94A2.69,2.69,0,0,1,33.24,11.64Zm1.7-4.79c-.27.26-.54.5-.81.73a2.62,2.62,0,0,0-.29.3,9.15,9.15,0,0,0-.7.7l.48-.43A16.47,16.47,0,0,1,35.1,6.93.4.4,0,0,1,34.94,6.85ZM33.4,12h0v0Zm.33.57c.36-.27.91-.73,1.67-1.37l-.22.18c-.57.44-1,.74-1.18.92Zm.08.67.13-.16.49-.54c.09-.11.19-.21.29-.32q-.67.57-1,.78A1,1,0,0,0,33.81,13.23Zm.16.35a1,1,0,0,0,.08.22l.65-.65c.21-.2.42-.4.62-.62A12.71,12.71,0,0,1,34,13.58Zm.35.89c1.29-1.35,2.21-2.31,2.74-2.91a10.56,10.56,0,0,0-1.5,1.24c-.2.18-.41.38-.62.59l-.76.76Zm.21.56.14-.26a.54.54,0,0,1-.22.05A.55.55,0,0,1,34.53,15Zm1.16-6.51q-.3.33-1,1.08c.77-.63,1.24-1,1.4-1.1,0-.11-.06-.19-.08-.25v0A3.33,3.33,0,0,1,35.69,8.52Zm-.94,7a.05.05,0,0,0,0,0,.11.11,0,0,1-.08,0,.16.16,0,0,0,0,.08Zm0,9.84c.13-.12.27-.26.43-.43.52-.52,1.26-1.2,2.21-2,.59-.54,1.25-1.12,2-1.75l-.62.46a3.92,3.92,0,0,1-.4.29l-.27.25c-.81.71-1.82,1.65-3,2.82a3.28,3.28,0,0,1-.29.27v0A.19.19,0,0,0,34.75,25.31Zm.13-10.25a8,8,0,0,0,1.62-1.29l1.32-1.24a2.53,2.53,0,0,0-.14-.29l-.1.08c-.76.68-1.32,1.22-1.7,1.61A6.24,6.24,0,0,0,34.88,15.06ZM35,16l0,0s0,0,0,.06c.2-.2.4-.4.62-.59A4,4,0,0,1,35,16Zm.08,10.66a3.46,3.46,0,0,0,.37-.25.92.92,0,0,1-.35.14.28.28,0,0,0,0,.08A0,0,0,0,1,35.05,26.69Zm.32-19.51a1.35,1.35,0,0,1-.27.37l.4-.27Zm-.19,9.36s0,0,0,0a.2.2,0,0,1,0,.07c.42-.36.8-.72,1.16-1.08C35.84,16,35.43,16.36,35.18,16.54Zm0,7.21a.46.46,0,0,1,0,.14s0,0,.08-.06l.24-.18A.9.9,0,0,1,35.23,23.75Zm1.65-13.34a.47.47,0,0,0-.11.13l-.73.75-.83.89.83-.7.78-.64A.9.9,0,0,0,37,10.7C36.93,10.56,36.89,10.46,36.88,10.41ZM35.37,25.85c.32-.27.85-.67,1.59-1.21l.7-.72c-.76.59-1.32,1-1.7,1.37ZM35.56,17c.1-.09.26-.22.45-.4a13.23,13.23,0,0,1,1.27-1.19c.45-.43.77-.75,1-1a5.18,5.18,0,0,0-.67.56c-.35.29-.84.74-1.48,1.35-.4.39-.63.62-.7.67s0,0,.05.08A.29.29,0,0,0,35.56,17Zm.78-7.77A1.12,1.12,0,0,0,36.23,9a6.14,6.14,0,0,1-.81.91A6.09,6.09,0,0,1,36.34,9.2Zm-.84,18a2.73,2.73,0,0,1,.3-.32l-.35.27Zm.06-4.33a.1.1,0,0,0,0,.08.54.54,0,0,0-.05.11,4.74,4.74,0,0,1,.48-.38A1.16,1.16,0,0,1,35.56,22.84Zm1.64-10.9L36.1,13.1c-.18.18-.37.37-.57.59.31-.27.76-.68,1.37-1.24l.62-.59a.48.48,0,0,0-.11-.19Zm2.9,6.7q-3.36,2.82-4.27,3.71a13.4,13.4,0,0,0,1.29-1c.55-.49,1.45-1.3,2.69-2.45A2.56,2.56,0,0,0,40.1,18.64ZM36,18c.15,0,.53-.25,1.16-.81.39-.37,1.11-1.1,2.15-2.18l.3-.32-3.34,2.72A1.19,1.19,0,0,0,36,18S36,18,36,18Zm.06,3.23-.09.19,4.74-3.85c-.47.34-1.14.82-2,1.43l-.59.4-.08.06C37,20.5,36.31,21.09,36.1,21.25Zm.18,6.24a2.5,2.5,0,0,1,.25-.4l-.46.35A.41.41,0,0,0,36.28,27.49Zm-.16-8.88a2.18,2.18,0,0,0,.14.25l.86-.68L38.44,17l1.5-1.43Q38.17,17,36.12,18.61Zm2.1-3.55-.46.38-.24.19c-.23.23-.59.56-1.07,1l-.06.06,0,.05-.06.05a6.94,6.94,0,0,0,.73-.62C37.35,15.88,37.76,15.51,38.22,15.06Zm-.51,9.45-.11.08a5.35,5.35,0,0,0-.43.32l-.89.84a2.48,2.48,0,0,0,.3-.25q.27-.21.57-.48Zm2.61-3.39a1.47,1.47,0,0,0,.12-.33,1.07,1.07,0,0,1,.1-.24c-1,.84-1.91,1.63-2.75,2.37l-1.45,1.32.83-.7,1.29-1.08.89-.71c.22-.17.4-.31.54-.4a1.61,1.61,0,0,1,.3-.19A.24.24,0,0,1,40.32,21.12Zm-4,5.67c.33-.26.75-.62,1.27-1.07Zm.33-16.71,0,0Zm3.39,6.17c-.63.52-1.31,1.06-2,1.64a9.83,9.83,0,0,0-1.29,1.34,29.69,29.69,0,0,0,3-2.58l1.4-1.27ZM37.36,27.39a1.61,1.61,0,0,1,.43-.76l-1,.89A1.78,1.78,0,0,0,37.36,27.39ZM42.63,15a.45.45,0,0,0,0-.11c-.34.32-1.15,1-2.42,2s-2.19,1.78-2.69,2.21c-.16.15-.31.28-.43.41ZM41.45,18.1l.14-.35c-.26.22-.77.68-1.54,1.4-1.27,1.19-2.2,2-2.77,2.5,1-.78,1.88-1.46,2.53-2A11.65,11.65,0,0,0,41.45,18.1ZM38,13.69q-.21.24-.51.54c.27-.22.53-.44.78-.68a.24.24,0,0,0-.06-.13A1.24,1.24,0,0,1,38,13.69Zm.7,11.84a.86.86,0,0,1,.08-.27L38,26A2.87,2.87,0,0,1,38.68,25.53Zm-.46,1.13v0l0,.06v0Zm1.62-4.22a.88.88,0,0,0,0-.19c-.14.1-.33.27-.57.48l-.75.73.7-.54ZM44.55,9.73c.07-.27.13-.53.18-.8a.09.09,0,0,1-.08-.06s0,0-.08,0a.52.52,0,0,0-.21.05q-3.9,3.42-5,4.44a2.33,2.33,0,0,1-.26.27c-.06.16-.13.35-.22.56l1.45-1.07c.85-.79,1.51-1.41,2-1.86a13.42,13.42,0,0,1,1.34-1.1,1.73,1.73,0,0,1,.85-.41ZM40.05,15a31.33,31.33,0,0,0,3.74-3.37h0a1.38,1.38,0,0,0-.68.31,12.34,12.34,0,0,0-1.11,1c-.46.42-.84.78-1.13,1.09l-1.26,1.29a6.27,6.27,0,0,1-.45.45Zm-.56,8.37h0Zm.16-11.28c0,.11-.07.21-.11.3q.33-.24,1-.81a16,16,0,0,1,3.58-3l.62-.51a1.8,1.8,0,0,1,0-.19,22.89,22.89,0,0,1-2.1,1.73A25.16,25.16,0,0,0,39.65,12.1Zm.72-1.45a.73.73,0,0,1-.1.13.65.65,0,0,1,.16-.13Zm.38-1.16v0a.16.16,0,0,0,0,.08.62.62,0,0,1,.14-.14A.23.23,0,0,1,40.75,9.49ZM41.37,8l0,0c.42-.32.92-.75,1.51-1.29a1,1,0,0,0-.38.08A13.81,13.81,0,0,0,41.37,8Zm2.1-.59L41.56,9.22l.91-.7.78-.59.89-.86-.21-.14A6.33,6.33,0,0,1,43.47,7.39ZM43,14a2.22,2.22,0,0,1,.14-.32l-.86.65c-.09.09-.19.17-.3.26.52-.41.85-.61,1-.59Zm-.51-2.5c1-.7,1.55-1.17,1.8-1.4a8.35,8.35,0,0,0-1.42,1.08Zm.81,1.37.19-.24-.41.32Zm0-6.16a1.12,1.12,0,0,1,0,.13.85.85,0,0,1,.14-.1ZM44,11.37l.11-.26-.25.21A.22.22,0,0,1,44,11.37Zm.35-3.95a.12.12,0,0,1,.08,0l0,0Zm.43,1.16V8.52l-.06,0A.09.09,0,0,1,44.79,8.58Z"/></svg>