<svg xmlns="http://www.w3.org/2000/svg" viewBox="0 0 30 24"><defs><style>.a{fill:#29abe2;}</style></defs><path class="a" d="M9.21,12.25s0,.07,0,.12a12.83,12.83,0,0,1,0,1.43s0,0,0,.08l0,.18v0l0,0s0,.08,0,.14v0a.42.42,0,0,1,0,.1,1,1,0,0,1-.53.61.17.17,0,0,1-.11.06h0a1.13,1.13,0,0,1-.32.05H8a1,1,0,0,1-.7-.38l-.07,0a.05.05,0,0,1,0,0s0-.09,0-.15a.88.88,0,0,1-.1-.43,3.87,3.87,0,0,1,0-.51c0-.17,0-.28,0-.36s0-.15,0-.25v-.08q0-.35,0-.51l0,0s0-.07,0-.11l0,0a7.11,7.11,0,0,0,0-1.07h0s0-.09,0-.16l0-.05,0,0a.32.32,0,0,0-.14,0,.47.47,0,0,0-.17,0l-.1.05-.17.14,0,0,0,0a.33.33,0,0,0-.05.16l0,0v0a4.68,4.68,0,0,0-.08.47h0a.16.16,0,0,1,0,.13.41.41,0,0,1-.08.19.38.38,0,0,1,0,.1.08.08,0,0,1,0,.11c0,.16,0,.35,0,.58,0,0,0,.07,0,.1a1.62,1.62,0,0,0,0,.22.75.75,0,0,0,0,.11l0,0a.06.06,0,0,1,0,.06.05.05,0,0,1,0,0l0,0v.13l0,0c0,.06,0,.15-.05.27v0a1.52,1.52,0,0,1-.07.38.93.93,0,0,1-.34.46.84.84,0,0,1-.53.17.38.38,0,0,1-.16.08H5l-.09-.05a.13.13,0,0,1,0-.06l-.12,0a1.27,1.27,0,0,1-.48-.36.13.13,0,0,1-.1,0,.09.09,0,0,1,0-.11,1.13,1.13,0,0,1-.13-.54v-.2l-.07,0a.11.11,0,0,1,0-.08s0-.07.09-.13v-.17h0a.2.2,0,0,1,0-.11l.05-.11a3.47,3.47,0,0,0,0-.38q0-.4,0-.63s0,0,0,0,0-.09,0-.15h0V11.8a2.62,2.62,0,0,0-.11-.69.05.05,0,0,1,0,0s0,0,0,0S4,11,4,11s-.2-.28-.32-.28a.58.58,0,0,0-.32.12v0h0l-.09.07a1,1,0,0,0-.28.54c0,.14,0,.3,0,.49l0,0s0,.09,0,.15v.34a.16.16,0,0,1,0,.1.14.14,0,0,1,0,.06v.14a9.83,9.83,0,0,1,0,1.25,1.1,1.1,0,0,1-.23.58,1.18,1.18,0,0,1-.48.38.17.17,0,0,1-.11.06H2a.81.81,0,0,1-.31.06h0a.88.88,0,0,1-.58-.19h0a.07.07,0,0,1-.07,0,.1.1,0,0,1,0-.09,1.35,1.35,0,0,1-.15-.26l-.06,0a.07.07,0,0,1,0-.06.14.14,0,0,1,0-.06l0-.08a4.15,4.15,0,0,1-.12-.85l0-.48a.2.2,0,0,1,0-.07.07.07,0,0,1,0-.05v-.64a.09.09,0,0,1,0-.1c0-.14,0-.29,0-.44l-.05,0a.11.11,0,0,1,0-.08.51.51,0,0,1,.09-.14l0-.48a.2.2,0,0,1,0-.11,0,0,0,0,1,0,0s0-.1,0-.18,0-.43.06-.65l0,0a.13.13,0,0,1,0-.08.33.33,0,0,1,.07-.13,1.49,1.49,0,0,1,0-.17V9.41h0c0-.05,0-.13.08-.26A.64.64,0,0,1,.92,9a.09.09,0,0,1,0-.07l0,0a.89.89,0,0,1,.39-.33.24.24,0,0,1,.11-.06h0l.19,0h.07a.81.81,0,0,1,.31,0l.05,0,0,0,0,0A1,1,0,0,1,2.61,9a1.73,1.73,0,0,1,.64-.41,1.36,1.36,0,0,1,.29-.06l0,0s.08,0,.11,0h.36a.36.36,0,0,1,.21-.05.16.16,0,0,1,.13.06v0a1.43,1.43,0,0,1,.37.08l.13,0a.07.07,0,0,1,.08,0s0,0,0,.05v0a1.76,1.76,0,0,1,.64.5A3.26,3.26,0,0,1,5.88,9a2.38,2.38,0,0,1,.65-.34.34.34,0,0,1,.19-.09.05.05,0,0,1,0,0,2.4,2.4,0,0,1,.46-.05H7.5l.09,0,.14,0h.08A.26.26,0,0,1,8,8.64H8l.07,0a.23.23,0,0,1,.11,0,.13.13,0,0,1,.1,0,.08.08,0,0,1,0,.07,0,0,0,0,1,0,0l0,0v0a.06.06,0,0,1,.06,0l.06,0a.06.06,0,0,1,0,.08L8.52,9h0l.06,0a.06.06,0,0,1,0,.05.21.21,0,0,1,.06.08h0s0,0,.06,0a.09.09,0,0,1,0,.1h0a1.77,1.77,0,0,1,.31.79h0l.06,0a.1.1,0,0,1,0,.13s0,0,0,0a.37.37,0,0,1,0,.11l0,0s0,.07,0,.11v0a1.15,1.15,0,0,1,0,.2l0,0a.07.07,0,0,1,0,.09v0a.49.49,0,0,0,0,.13l0,0c0,.05,0,.1,0,.18s0,.44,0,.78Zm-8.44.2,0,0h0Zm0-.58s0,0,.08-.06H.78v.08Zm1-.34.81-.75.27-.24.73-.69c-.66.52-1.19,1-1.58,1.3s-.5.43-.68.59S1,12,.93,12.1a1.29,1.29,0,0,0-.14.18,3.15,3.15,0,0,0,.69-.52Zm.29.83a2.67,2.67,0,0,0,.74-.83,7.22,7.22,0,0,0-.91.82,4.19,4.19,0,0,1-1.08.9v.15L1,13.22A10.69,10.69,0,0,1,2,12.36ZM.83,13.76c0,.05,0,.11,0,.18.32-.33.64-.64.94-.93l-.59.48-.28.21Zm1.51-3.33a12.62,12.62,0,0,0-1.5,1.23h0a.76.76,0,0,0,.25-.08l.1-.1,1.32-1.17a1.52,1.52,0,0,1,.21-.19Zm.5.94,0-.15L2,12A10.88,10.88,0,0,0,.87,13.05a9.94,9.94,0,0,0,.89-.81c.34-.34.59-.57.74-.69s.25-.19.33-.18Zm-2-1c.09-.09.27-.25.55-.48.47-.4.78-.67.91-.8a5.34,5.34,0,0,0-.74.6l-.72.67Zm1,1.48-.29.21-.31.21-.38.38C1.1,12.51,1.42,12.25,1.87,11.87ZM.92,10.05l0,0,0,0Zm0,4.13.33-.26v0a5.63,5.63,0,0,1,1.39-1.17.43.43,0,0,0,.12-.16v0A21.28,21.28,0,0,0,.92,14.11h0A.14.14,0,0,0,.92,14.18Zm.11.27,1-1-.53.42L1.36,14,1,14.39l0,.08Zm.46-5.8A6.15,6.15,0,0,0,1,9.2q.15-.12.48-.45l.13-.12ZM2.78,12l0,0-.9.74-.69.57h0l-.1.11C1.37,13.18,2,12.7,2.78,12Zm-1.53,2.6-.08.08a2.07,2.07,0,0,0,.32-.23Zm.11.24a.8.8,0,0,1,.14-.21,1.06,1.06,0,0,1-.22.16ZM3,9.22c-.28.24-.73.65-1.33,1.23l-.22.21.67-.54L2.28,10A18.74,18.74,0,0,1,3.69,8.69,4.06,4.06,0,0,0,3,9.22ZM1.79,14.67l0,0-.28.23h.12A1.17,1.17,0,0,1,1.79,14.67Zm.08-6.05L1.55,9l.38-.33Zm-.18.52,0,0h0Zm1.07,3.93V13l-.18.2L2,13.76l-.12.11L2,13.8l.2-.15.54-.55ZM3.93,8.71A8.65,8.65,0,0,1,2.37,10.1l-.32.3-.17.19c.1-.08.22-.18.37-.28.66-.52,1.12-.88,1.37-1.09a4.48,4.48,0,0,0,.61-.58H4.07ZM2.73,14v0c-.31.3-.56.55-.75.77l.17-.18c.3-.3.48-.45.55-.45ZM2.1,8.79,2,8.89a0,0,0,0,0,0,0,.38.38,0,0,0,.09-.09ZM2,14l.36-.32a.41.41,0,0,0-.13.1.86.86,0,0,0-.14.13Zm.71-.27a1,1,0,0,0,0-.17l-.66.68.61-.5ZM2.37,8.9l0,0h0Zm.14.24-.08.09.09-.06Zm.25,3.23v-.11l-.11.13a1.88,1.88,0,0,0-.2.2C2.59,12.48,2.7,12.41,2.76,12.37ZM2.5,11.25A18.27,18.27,0,0,0,4.55,9.61l0,0,0,0C3.61,10.35,3,10.87,2.5,11.25ZM4.33,9.5c-.38.28-.88.7-1.5,1.25l-.18.15,0,0c.41-.34,1-.8,1.76-1.39.3-.24.5-.4.58-.48H5A4,4,0,0,0,4.33,9.5ZM3.25,8.74h0Zm.6,1.82a.41.41,0,0,1,.06-.11l-.11.09Zm.27.26h0Zm.09.26A7.08,7.08,0,0,1,5.47,10L6,9.63l.59-.52.27-.22C6.93,8.8,7,8.74,7,8.7A11.49,11.49,0,0,0,5.44,9.9L4.2,11S4.21,11.05,4.21,11.08Zm1.91,1.05-.85.72c-.52.44-.86.71-1,.82a.36.36,0,0,0,0,.11l.44-.35A10.09,10.09,0,0,0,6.12,12.13ZM4.44,10.39c-.06,0-.13.09-.18.14v0Zm-.15,3.76.22-.23.1-.1a1.23,1.23,0,0,1-.36.21.68.68,0,0,0,0,.15S4.29,14.16,4.29,14.15Zm1.45-2a1.71,1.71,0,0,0,.38-.42,4.89,4.89,0,0,0-.6.45c-.21.18-.53.46-.94.85l-.32.29v.05l.6-.49C5.27,12.52,5.57,12.27,5.74,12.12ZM4.75,11c-.26.23-.42.35-.48.35a.43.43,0,0,1,0,.11l0,0a4.87,4.87,0,0,1,.35-.37A.29.29,0,0,1,4.75,11Zm1.87-.17c.76-.67,1.28-1.15,1.58-1.45-.4.3-1.28,1-2.62,2.18-.78.66-1.2,1-1.29,1.07a.78.78,0,0,1,0,.13v.07c.3-.24.6-.5.91-.77a6.61,6.61,0,0,1,.88-.76l.24-.2A.63.63,0,0,1,6.62,10.81Zm-2.31,1.5h0ZM7.72,8.74a4.49,4.49,0,0,0-1.2.83l-.24.22c-.63.56-1.28,1.19-2,1.91v.07l.39-.35L6,10.28,7.76,8.74ZM4.5,12.08l-.14.05,0,0ZM6.06,13v0A18.72,18.72,0,0,0,4.4,14.45l.14-.07.11-.11c.14-.14.33-.32.59-.54l.61-.55ZM4.48,11l.24-.22,0,.05Zm.08-2.29,0,0,0,0h0S4.56,8.7,4.56,8.71Zm0,5.88h0l0,0v0Zm.9-3.51-.2.17c-.24.2-.44.38-.59.52l.41-.35Zm.08-1.69L4.92,10l.23-.18.43-.38Zm-.05,5.06.3-.31-.25.22-.64.5.12,0ZM5.08,9.19A.62.62,0,0,1,5,9.31l.3-.24a.08.08,0,0,0,0,0A1.13,1.13,0,0,1,5.08,9.19ZM6,13.78s0,0,0-.09L5.59,14s0,0,0,0l-.51.5L5,14.61ZM5.48,9.27l0,0a1.33,1.33,0,0,1-.19.22A1.5,1.5,0,0,1,5.48,9.27Zm0,5.58v0a.09.09,0,0,1-.06,0Zm.59-2.1a1.48,1.48,0,0,1,0-.21c-.22.22-.43.44-.64.64A2.57,2.57,0,0,1,6.07,12.75ZM8.16,8.92c-.11.1-.46.38-1,.83l-.43.35-.16.16-.62.62,1.7-1.44c.3-.26.49-.42.58-.51ZM6,13.22H6Zm.15-1.69a.18.18,0,0,0,0-.06l-.11.08ZM6.56,10l0,0,0,0Zm.62.66a3.4,3.4,0,0,1,.23-.27L7,10.73l.11,0S7.15,10.71,7.18,10.67Zm0-2h0S7.14,8.67,7.16,8.67Zm.72,5,.59-.58-.19.16-.13.12-.05.05c-.27.27-.46.46-.57.55a.47.47,0,0,1-.26.15s0,.08,0,.11l.14-.13C7.5,14.06,7.65,13.92,7.88,13.71Zm-.59.23h0Zm1.78-1.7h0v0a5.78,5.78,0,0,1-.66.58c-.35.29-.59.5-.73.63a1.84,1.84,0,0,0-.34.37,1.45,1.45,0,0,0,.4-.28c.14-.12.37-.34.7-.66A5.26,5.26,0,0,1,9.07,12.24Zm-1.68,1H7.33v0Zm0-1.91,0,0h0Zm1.23.23-1.21,1a.59.59,0,0,0,0,.13l0,0,.45-.43Zm-1.17.07h0Zm0,.72.56-.55-.56.46Zm0-.32.6-.6-.6.48Zm1.67-.38a.24.24,0,0,0,0-.07l-1.17.95a2.27,2.27,0,0,0-.47.53,6.93,6.93,0,0,0,.76-.68A4.7,4.7,0,0,1,9.05,11.7Zm-1.55,3h0L8.15,14l-.07.06q-.48.43-.63.54ZM8.91,9.91l0-.06a1.91,1.91,0,0,1-.22.17l-.82.69a1.92,1.92,0,0,0-.36.4c.22-.18.64-.52,1.23-1A1.12,1.12,0,0,0,8.91,9.91Zm.05.26a.29.29,0,0,0,0-.09l-.12.12c-.22.18-.42.36-.6.52s-.52.49-.66.65l.69-.6C8.62,10.44,8.86,10.24,9,10.17ZM7.85,14.71l.37-.35a2.65,2.65,0,0,1-.55.44l0,0,0,0A.73.73,0,0,1,7.85,14.71Zm.19.22a.37.37,0,0,1,.12-.22l-.26.2ZM8.32,9l-.27.26a2.65,2.65,0,0,1,.31-.23Zm.32.38-.31.31-.06.06a2.1,2.1,0,0,1,.45-.31l-.06-.08Zm-.2-.07-.1.1.22-.19,0,0ZM9,10.45v-.06a1.29,1.29,0,0,1-.16.15l-.41.38Zm0,.32s0-.07,0-.11l-.58.59A2.83,2.83,0,0,1,8.76,11,2.24,2.24,0,0,1,9,10.77Zm-.5,2.53c.32-.27.51-.43.55-.45v-.11l0,0-.28.28a2.86,2.86,0,0,1-.3.28l0,0Zm.47.86v-.05c-.05.06-.15.15-.28.27l-.26.24c.08-.06.18-.15.32-.28Zm-.41-1.73.3-.26-.18.14ZM9,11.05V11l-.33.33ZM8.8,9.63a.32.32,0,0,0-.09.08.19.19,0,0,1,.11,0ZM9,11.44v-.07l-.22.22-.06.06L9,11.46s0,0,0,0Zm-.22,3.14,0,0,0,0Zm.23-1.19V13.3s0,0-.05.06l-.08.08-.07.08A.57.57,0,0,1,9.05,13.39Zm0,.39v-.06l-.18.22Zm0-.71h0l0,0Z"/><path class="a" d="M14.3,8.2s0,.09-.05.15h0a1,1,0,0,1-.06.33.08.08,0,0,1,0,.05,1,1,0,0,1-.36.42,1,1,0,0,1-.54.15H12.8v.58l.06,0s0,.06,0,.09v0l0,0c0,.2,0,.45,0,.72a0,0,0,0,1,0,.05c0,.12,0,.29,0,.5,0,1.16.05,1.93.06,2.3l0,0s0,.06,0,.1l0,0h0v0a.92.92,0,0,1,0,.19,0,0,0,0,1,0,.05.49.49,0,0,1,0,.12s0,.07,0,.1h0a.09.09,0,0,1,0,.11l0,0a1,1,0,0,1-.37.47,1,1,0,0,1-.58.18h0a1,1,0,0,1-.68-.3l-.06,0a.14.14,0,0,1,0-.06.92.92,0,0,1-.18-.32h0a.09.09,0,0,1-.06,0,.09.09,0,0,1,0-.1.12.12,0,0,1,0-.08s0,0,0,0,0-.06,0-.09l0,0v-.2c0-.18,0-.42,0-.72,0,0,0-.09,0-.16,0-.23,0-.61-.05-1.13s0-1.07,0-1.35h0a.15.15,0,0,1,0-.11.3.3,0,0,1,0-.1V9.51h0V9.31h-.53a.93.93,0,0,1-.63-.23h0a1,1,0,0,1-.27-.38s0,0,0-.06a.76.76,0,0,1,0-.16l0,0a.12.12,0,0,1,0-.15,1,1,0,0,1,1-.94h.42l.11-.08V7.14s0,0-.05,0,0-.08.05-.16V6.73a1,1,0,0,1,.21-.59,1,1,0,0,1,.47-.35s0,0,0,0a.06.06,0,0,1,.06,0h0l.2,0h0a1,1,0,0,1,.65.23.13.13,0,0,1,.08,0,.06.06,0,0,1,.06,0,.07.07,0,0,1,0,.11,1.17,1.17,0,0,1,.17.31h0a.07.07,0,0,1,.06,0s0,.07,0,.13l0,.2v.6h.11a.13.13,0,0,1,.11,0,.11.11,0,0,1,.07,0h.17a1,1,0,0,1,.74.31h0l.06,0a.06.06,0,0,1,0,.07l0,0s0,0,0,0a.06.06,0,0,1,0,.08l0,.05h0a.08.08,0,0,1,.08,0,.15.15,0,0,1,0,.16Zm-4.82.17h0l-.08.07v0Zm.42-.78-.38.52.21-.2.38-.37A.65.65,0,0,0,9.9,7.59Zm-.37,1a7.38,7.38,0,0,0,1.35-1h-.25l-.27.21-.51.44-.26.3Zm0,.24.08.09L10.68,8A6.74,6.74,0,0,1,9.54,8.81Zm.33.25L10,8.93l.43-.39c.73-.67,1.27-1.16,1.6-1.48l-.81.72A16,16,0,0,1,9.79,9l.07,0Zm.19,0a3.83,3.83,0,0,0,1.08-.79c.51-.47,1-1,1.46-1.45h0a.31.31,0,0,1,0-.08v0l0,0L12,7.32c-.3.29-.78.73-1.44,1.33Zm.78,0A22.41,22.41,0,0,0,12.5,7.54c-.37.26-1,.8-1.89,1.6h.21S10.83,9.11,10.84,9.11Zm.51-2.56L10.89,7V7.1h0v0l0,0L11,7.06c.1-.12.25-.28.43-.47l.36-.41Zm-.46.86v.11c.24-.23.5-.47.76-.73L11.32,7l-.41.36A0,0,0,0,1,10.89,7.41ZM11,9.27h-.06v0l0,0Zm-.06.25v0L11,9.45l0,0Zm0-2.76L11,6.67l-.08.06h0ZM11,9.89h-.06l0,.07A.34.34,0,0,1,11,9.89Zm-.09.33v0l.11-.09h-.08Zm0,.35s0,.06,0,.1l.27-.24A.62.62,0,0,1,10.9,10.57Zm0,.29v0l.08-.08,0,0Zm0,.4v0l.14-.17.63-.6.67-.6a6.74,6.74,0,0,0-.66.55c-.27.27-.52.52-.76.78Zm0,.32v0l.12-.14a.52.52,0,0,0-.11.1Zm0,.36a2.2,2.2,0,0,1,0,.23c.3-.26.58-.49.82-.71a3.82,3.82,0,0,0,.86-1A15.53,15.53,0,0,0,11,11.94Zm0,.43a1.15,1.15,0,0,1,0,.14c.39-.39.75-.73,1.07-1l-.22.18A9.77,9.77,0,0,1,11,12.37ZM11,13v.14l1-1.05C11.72,12.38,11.37,12.68,11,13Zm0,.71v.1l.07-.07c.8-.74,1.3-1.23,1.51-1.47a1.19,1.19,0,0,0-.22.17c-.11.1-.28.28-.53.54C11.39,13.48,11.11,13.73,11,13.74Zm.07.62.16-.19.54-.56c-.24.2-.48.42-.73.65A.54.54,0,0,0,11.07,14.36Zm.44-1.23a4.41,4.41,0,0,0-.46.43A4.32,4.32,0,0,0,11.51,13.13ZM11.13,10a8.69,8.69,0,0,0,1.64-1.36q-.69.54-1.11.9C11.45,9.66,11.27,9.82,11.13,10ZM12,12.43c.39-.4.62-.61.71-.62V11.7L11.2,13.18l.15-.13A8.64,8.64,0,0,0,12,12.43Zm-.4-3.21-.33.3a.5.5,0,0,0,.13-.1ZM11.46,6a2.42,2.42,0,0,0-.2.24l.41-.34-.17,0Zm-.09,8.73a.24.24,0,0,1,.06-.09l-.1.07Zm1.27-4.52c-.27.23-.51.45-.73.66l-.41.38.16-.15a5.6,5.6,0,0,1,1-.75Zm0,1.15-.09.08-.91.79-.13.12.17-.15a8.27,8.27,0,0,1,1-.76Zm-.58,3,.63-.59v-.05a5.52,5.52,0,0,1-.55.5,3,3,0,0,0-.63.6,3.2,3.2,0,0,0,.36-.27Zm.62-1.4c-.45.43-.83.8-1.14,1.13l1.15-.93A1.48,1.48,0,0,0,12.7,12.92Zm-.94-2.25c.43-.36.72-.59.87-.7V9.89l-1,.9ZM12.16,6h0c-.14.16-.3.31-.45.48l.54-.43Zm-.3,8.78a3.61,3.61,0,0,0,.33-.31c-.07,0-.13.11-.2.15Zm0-1.53c.24-.17.41-.29.51-.38a.83.83,0,0,0,.19-.17ZM12,14.87l0,0,0,.05Zm.86-7.32a10.28,10.28,0,0,0-.83.79A8.67,8.67,0,0,0,12.88,7.55Zm-.24,3.62h0c0-.05,0-.08,0-.1l-.11.11c-.11.13-.26.28-.45.47ZM12.13,8.9q.36-.3,1-.75l.56-.44,0,0,0,0L13.18,8l-.55.41-.35.33Zm.93-1.12c-.38.32-.68.58-.91.79l.37-.28C12.74,8.07,12.92,7.91,13.06,7.78Zm-.45,1.86h0a.59.59,0,0,1,0-.14l-.34.29A.71.71,0,0,1,12.61,9.64Zm-.18-3.13-.06.08.18-.14s0,0,0-.06Zm.26,5.89-.1.12a.26.26,0,0,1,.1,0Zm.56-4.77s0,0-.07,0l.18-.13h0l0,0ZM13.2,9a9.15,9.15,0,0,0,.86-.78,8.81,8.81,0,0,0-.66.6Zm.22.15A.77.77,0,0,1,13.48,9l-.18.16Zm.35-1.31,0,0a.35.35,0,0,1,.1-.08h0A.17.17,0,0,1,13.77,7.82Zm.23.85a.92.92,0,0,0,0-.09l-.29.32.09-.08Z"/><path class="a" d="M19.84,11a.34.34,0,0,1-.08.18v.14l0,0s0,.11,0,.21c0,1,0,1.63,0,2a.09.09,0,0,1,0,.1,1.62,1.62,0,0,1,0,.21,1.11,1.11,0,0,1-.3.87,1.2,1.2,0,0,1-.53.29l0,0-.05,0h0a.1.1,0,0,1,0,0h-.07a.93.93,0,0,1-.23,0h0l0,0s-.07,0-.1,0a0,0,0,0,1,0-.06l-.19-.08a.1.1,0,0,1-.05,0,1.54,1.54,0,0,1-.19-.17.9.9,0,0,1-.22-.42l0-.11,0,0c0-.05,0-.09,0-.14a.53.53,0,0,0,0-.13v0a.12.12,0,0,1,0-.11l0-.08q0-.56,0-1.53s0-.05,0-.06c0-.54,0-.94,0-1.19h0a.52.52,0,0,0,0-.26h0a.1.1,0,0,1,0,0,.08.08,0,0,1,0-.06H17.4l-.34.27h0a.06.06,0,0,1,0,.06h0a2,2,0,0,0-.2.8V12l0,0a.07.07,0,0,1,0,.06.13.13,0,0,1,0,.08l.05,0a.23.23,0,0,1,0,.14.5.5,0,0,1-.1.19c0,.11,0,.24,0,.39a.08.08,0,0,1,0,.07v0h0v.09a.08.08,0,0,1,.07,0,.14.14,0,0,1,0,.11.5.5,0,0,1-.09.18c0,.22,0,.37,0,.46a.11.11,0,0,1,0,.11.41.41,0,0,1,0,.11s0,.11-.05.22a1.51,1.51,0,0,1-.13.34.94.94,0,0,1-.39.4,1,1,0,0,1-.54.15h-.15a1,1,0,0,1-.65-.36.07.07,0,0,1-.11,0,.18.18,0,0,1,0-.13.08.08,0,0,1,0,0,.31.31,0,0,1-.06-.13.13.13,0,0,1-.1,0s0,0,0-.06a.05.05,0,0,1,0-.05l0,0a1.24,1.24,0,0,1,0-.22l0,0a.14.14,0,0,1,0-.11.21.21,0,0,1,.05-.12,0,0,0,0,1,0-.07,1.68,1.68,0,0,0,0-.2l-.05,0a.07.07,0,0,1,0-.06.05.05,0,0,1,0-.05l0,0c0-.45,0-.91-.05-1.37l0,0s0-.08,0-.11l0,0v-.45a.25.25,0,0,1,0-.17.28.28,0,0,1,0-.12c0-.12,0-.24,0-.36h0s0-.11,0-.19,0-.1,0-.18h0a.07.07,0,0,1,0-.11h0a1.58,1.58,0,0,1,0-.19h0a.14.14,0,0,1,0-.11.15.15,0,0,1,.05-.11c0-.08,0-.14,0-.17a0,0,0,0,1,0-.06.1.1,0,0,1,0-.07V9.5a.09.09,0,0,1,0-.05q0-.13,0-.33l0,0c0-.05,0-.11.06-.2s.05-.38.07-.59V8.24c0-.17.06-.42.1-.75a.08.08,0,0,1,0,0V7.39l0,0c-.05-.07,0-.17.09-.31a1.11,1.11,0,0,0,0-.17.09.09,0,0,1,0,0v0a.2.2,0,0,0,0-.07A1.73,1.73,0,0,1,15,6.4a.76.76,0,0,1,.09-.18,0,0,0,0,1,0,0h0A.92.92,0,0,1,16,5.74l.23,0h.06s.06,0,.1,0a.05.05,0,0,1,0,0,1,1,0,0,1,.26.16.13.13,0,0,1,.1,0,.24.24,0,0,1,0,.08h0a1.05,1.05,0,0,1,.2.7c0,.17,0,.41,0,.73l0,0a.11.11,0,0,1,0,.11.16.16,0,0,1,0,.08h0a.28.28,0,0,1,0,.13.38.38,0,0,1-.09.18v.32l0,0c0,.05,0,.12-.05.2v.06A.37.37,0,0,1,17,8.62l0,0a2.16,2.16,0,0,1,.53-.11.13.13,0,0,1,.08,0,.06.06,0,0,1,.05,0h.06a2,2,0,0,1,.42,0,.21.21,0,0,1,.09-.05s.05,0,.05,0l0,0a2.16,2.16,0,0,1,.75.34s0,0,0,0l0,0,.08.1a2.25,2.25,0,0,1,.49,1.43v.36l0,0A.27.27,0,0,1,19.84,11Zm-5.16.15s0,0,0,0h0L16.19,10c.81-.68,1.34-1.1,1.56-1.27h-.08l-.28.2c-.19.15-.55.46-1.08.91a17.07,17.07,0,0,1-1.61,1.33S14.68,11.15,14.68,11.16Zm0,.25v0L16.36,10l1.27-1,.19-.14,0-.07Q17.22,9.28,14.67,11.41Zm0,.23v.1l.56-.5Zm0,.3v.12a.67.67,0,0,1,.14-.16,4.16,4.16,0,0,1,.3-.31Zm0,.53a2.56,2.56,0,0,1,.27-.23.65.65,0,0,1-.28.12A.59.59,0,0,1,14.68,12.47Zm0-1.72a.83.83,0,0,0,0,.13,4,4,0,0,1,.36-.37,11.86,11.86,0,0,1,1.06-.89l.49-.37a1.6,1.6,0,0,0,.33-.39l0,0a.09.09,0,0,0-.06,0l-.06,0q-.26.19-.9.78A13.92,13.92,0,0,1,14.7,10.75Zm0,2.35v.19c.35-.27.67-.53.95-.77a6.41,6.41,0,0,0,.93-.94l-.27.27c-.41.42-.75.74-1,1a1.17,1.17,0,0,1-.56.31h-.06Zm0-3,0,0Zm0,3.44a.32.32,0,0,1,0,.08l.19-.18a.44.44,0,0,1,.11-.12Zm0-3.64a4.44,4.44,0,0,0,.47-.41l-.13.09L15,9.64Zm0,4a4.78,4.78,0,0,0,1.05-.82c.22-.2.46-.43.71-.68l-.45.34-.19.12a0,0,0,0,1,0,0,6.17,6.17,0,0,1-1.13,1s0,0,0,0Zm2-2.65a1,1,0,0,1,.05-.22l-.18.17A18.94,18.94,0,0,1,15,12.67c-.13.14-.19.24-.18.29s.26-.12.57-.38.48-.45.87-.84A2.24,2.24,0,0,1,16.71,11.3Zm-1.93,2.92c.35-.28.67-.54,1-.79s.64-.6.82-.8l-.62.59a4.59,4.59,0,0,1-1.17.89A.37.37,0,0,0,14.78,14.22ZM15,9.38a1.9,1.9,0,0,0-.23.2A.59.59,0,0,0,15,9.46l.13-.12,0,0,.15-.13Zm-.07,3.07a1.22,1.22,0,0,0-.16.14l.06-.05ZM18.55,8.8a.41.41,0,0,1-.1.11,2.88,2.88,0,0,1-.23.21l-.8.67c-.81.69-1.4,1.19-1.76,1.51a7.86,7.86,0,0,0-.87.85,8.64,8.64,0,0,0,.73-.56L17,10.31c1-.86,1.53-1.34,1.7-1.45ZM14.82,9v.06L15,8.91c.17-.18.41-.41.72-.7l.05,0-.22.18C15.27,8.56,15.05,8.78,14.82,9Zm1.07-.54c.28-.25.57-.53.86-.83a1.15,1.15,0,0,0,0-.19,13.21,13.21,0,0,0-1.92,1.84l.09,0,.57-.44.14-.1Zm-1-.1a.18.18,0,0,0,0,.06L15,8.35ZM15,7.86l0,.19.21-.18c.43-.38.75-.67.95-.87a3.4,3.4,0,0,0,.53-.59,1.41,1.41,0,0,0-.4.26l-.11.09c-.11.09-.24.21-.37.34s-.53.49-.78.75A0,0,0,0,1,15,7.86Zm1.43,1c.18-.17.3-.27.35-.31V8.43L15,10.08l.4-.3C15.58,9.58,15.93,9.26,16.38,8.82ZM15,14.58l1.71-1.37v-.08c-.14.09-.27.19-.41.3s-.29.26-.48.41l-.2.19a7.29,7.29,0,0,1-.6.53Zm1.79-7.75-.3.29c-.25.24-.46.44-.64.59l-.38.37q-.31.31-.45.48l.12-.09.56-.5c.37-.33.74-.65,1.12-1h0a1.09,1.09,0,0,1,0-.19v0Zm-1.7,8a4.78,4.78,0,0,1,.77-.69c.31-.25.53-.42.65-.53L15,14.73A.1.1,0,0,0,15.05,14.78Zm0-7.49.08-.07Zm.23,7.65a.35.35,0,0,1,.11-.16l-.16.13S15.24,14.94,15.26,14.94Zm1.49-8.46A9.63,9.63,0,0,1,15.23,8h0l.44-.36.06,0c.16-.16.35-.33.57-.53L16.36,7l.28-.28.15-.13A.28.28,0,0,0,16.75,6.48Zm-.9-.1a6.69,6.69,0,0,0-.6.54l.34-.29L16.38,6a.2.2,0,0,1-.08,0,.75.75,0,0,1-.09.09Zm-.26,8.56,0,0-.15.11h0l.07-.07Zm.44-9-.34.33.39-.33Zm.57,8.35-.06,0c-.14.14-.37.35-.68.62a.85.85,0,0,0-.16.14A.74.74,0,0,0,16,15v0A4.65,4.65,0,0,0,16.6,14.25ZM16.67,12v-.12q-.47.45-.93.93l0,0A5.48,5.48,0,0,1,16.67,12Zm.74-1.74L18,9.83a8.19,8.19,0,0,0,.64-.61A1,1,0,0,0,18.77,9c-.17.1-.73.58-1.68,1.42l-1.33,1.17.33-.26q.57-.42.84-.66a.78.78,0,0,1,.41-.32h0l0,0ZM15.86,9l.39-.36-.07.06Zm.67-2.85a4.23,4.23,0,0,0-.46.42l.06,0A4.19,4.19,0,0,0,16.53,6.18Zm0,2a1.88,1.88,0,0,0,.2-.19V8a4.39,4.39,0,0,1-.36.32l-.12.13A2.21,2.21,0,0,1,16.54,8.22Zm.13,5.65v0l-.29.27Zm0-5,0,0Zm1.6-.12-.76.68c-.11.1-.23.21-.38.33L17,9.86l1.38-1.11Zm-1.14,0a.43.43,0,0,1-.05.13l.21-.15,0,0Zm.59,1.73,0,.05a.22.22,0,0,0,.06-.07l.26-.26,0,0C18,10.31,17.84,10.42,17.72,10.51Zm0,2.6v.16a18.79,18.79,0,0,0,1.85-1.74v0l-.12.07c-.21.22-.42.42-.61.6a7.57,7.57,0,0,1-.69.58C17.94,13,17.8,13.11,17.75,13.11Zm.64-1.54-.62.56,0,0Zm-.44.67.28-.26-.43.37h-.05v.06h0A1.51,1.51,0,0,1,18,12.24Zm-.12.41h0l-.07,0v.07Zm-.08,1.06v0a4.55,4.55,0,0,0,.7-.66l-.44.36A1.55,1.55,0,0,0,17.75,13.71Zm0-.28v0l.05,0Zm.13-1.94-.1,0h0v.07Zm.25-.7a1.35,1.35,0,0,1-.35.31v.18a17.6,17.6,0,0,0,1.54-1.53,2.65,2.65,0,0,0-.45.33l0,0-.28.26Zm-.35-.06a.66.66,0,0,1,0,.15l.07-.07.37-.35.23-.2.26-.25.17-.17L19,9.75l-1.16,1Zm0,3.53c.28-.26.55-.5.79-.74a.71.71,0,0,0,.09-.07,4.4,4.4,0,0,1-.91.71l0,.09Zm1.42-3L19.6,11v0l-.23.23-.73.66-.68.61a2.28,2.28,0,0,0,.43-.31Zm-.82,2.2-.44.35.33-.25A.52.52,0,0,1,18.43,13.5Zm-.38,1c.09-.07.29-.26.61-.58a3.82,3.82,0,0,1,.93-.78V13l-.4.35-.1.11a11.06,11.06,0,0,1-.85.8A1.82,1.82,0,0,0,18.05,14.54Zm.06.15h0Zm.88-.33a3.9,3.9,0,0,0,.61-.7,1.32,1.32,0,0,0-.32.23l-.55.53-.43.4.14,0C18.64,14.69,18.83,14.52,19,14.36Zm-.6-1.44.23-.18c.34-.26.57-.44.69-.55l.15-.15Zm.23.2-.08.09c.28-.24.5-.42.65-.56a2.07,2.07,0,0,0,.38-.39,1.05,1.05,0,0,0-.33.24A6.89,6.89,0,0,0,18.62,13.12ZM19,14.71l.39-.44-.75.64h.07l.11,0h0Zm.39-4.6-.58.56.37-.33A1.9,1.9,0,0,0,19.39,10.11Zm.2.13a.41.41,0,0,0,0-.11,4.88,4.88,0,0,1-.74.73l.74-.6S19.58,10.24,19.59,10.24ZM18.94,9a1.26,1.26,0,0,1-.08.18l.07-.09A.13.13,0,0,1,19,9Zm.2.42L19,9.57a1.42,1.42,0,0,1,.3-.22l0,0h0Zm.3,4-.43.39C19.21,13.66,19.35,13.53,19.44,13.44Zm-.3-4.28h0Zm.22.33-.05.11.07,0h0A.41.41,0,0,1,19.36,9.49Zm.16.4,0-.11-.14.18C19.42,9.91,19.48,9.88,19.52,9.89Zm0,1.36-.14.13h0Zm.08-.57v0l-.16.15Zm0,2.05a.77.77,0,0,1-.15.19l.15-.11Zm0,1.21h0Z"/><path class="a" d="M22.88,10.87s0,0,0,0h0v.23a.12.12,0,0,1,0,.15c0,.23,0,.48,0,.74l.05,0a.19.19,0,0,1,0,.13.42.42,0,0,1-.09.15v.24h0a.08.08,0,0,1,0,.11h0v.44c0,.22,0,.48,0,.78a.15.15,0,0,1,0,.16.94.94,0,0,1-.07.3.11.11,0,0,1,0,.08h0a1.15,1.15,0,0,1-.27.38.89.89,0,0,1-.4.2l-.09,0h0a0,0,0,0,1,0,0h-.11a1.1,1.1,0,0,1-.26,0h0s0,0,0,0a.09.09,0,0,1-.06,0,.07.07,0,0,1,0-.06,1.06,1.06,0,0,1-.34-.26h0s0,0-.06,0a.05.05,0,0,1-.05,0s0-.09,0-.15l0-.05h0a.08.08,0,0,1,0-.06.58.58,0,0,1-.06-.17l0,0a.12.12,0,0,1,0-.1.13.13,0,0,1,0-.06c0-.1,0-.2,0-.31a.08.08,0,0,1,0-.09v-.17a.06.06,0,0,1-.05,0c0-.06,0-.14.06-.25v-.49h0c0-.57,0-1,0-1.2,0,0,0,0,0,0s0-.09,0-.15c0-.33,0-.62,0-.86t0,0s0-.09,0-.16v-.06l-.05,0a.28.28,0,0,1,0-.13A.32.32,0,0,1,20.8,10v0a.2.2,0,0,1,0-.13V9.67h0a.2.2,0,0,1,0-.13l0-.11h0a.11.11,0,0,1,0-.11.51.51,0,0,1,0-.12v-.1a0,0,0,0,1,0-.05V9a1.28,1.28,0,0,1,0-.21.08.08,0,0,1,0-.09c0-.32,0-.54,0-.68a1.15,1.15,0,0,0,0-.19h0s0-.1,0-.17,0-.16,0-.26,0-.06,0-.1h0c0-.11,0-.24,0-.39s0,0,0,0a.71.71,0,0,1,0-.14h0s0-.11.05-.2,0,0,0,0a.67.67,0,0,1,.09-.21s0-.06,0-.09h0l0,0a.92.92,0,0,1,.42-.34h0a1.06,1.06,0,0,1,.31,0H22a.89.89,0,0,1,.5.2.19.19,0,0,1,.09,0l.08,0a.13.13,0,0,1,0,.17,1,1,0,0,1,.2.67,2.91,2.91,0,0,0,0,.31l.05,0a.29.29,0,0,1,0,.09.56.56,0,0,1-.08.15v.38h0s0,0,0,.1a.41.41,0,0,1,0,.08v.28l0,0a.08.08,0,0,1,0,.08.18.18,0,0,1-.05.11v.05a.18.18,0,0,1,0,.06.07.07,0,0,1,0,.09c0,.24,0,.42,0,.56v.25c.06.06.05.15,0,.25v.42l.05,0s0,.09,0,.14l0,0v.44s0,0,0,0S22.92,10.84,22.88,10.87Zm-2,2.67.3-.29c.32-.28.57-.51.75-.68l-1.05.86v.11Zm0-.71v0a16.6,16.6,0,0,0,1.77-1.61,2.87,2.87,0,0,0-.38.28l-.74.7A5,5,0,0,1,20.9,12.83Zm0-.33a.25.25,0,0,0,0,.08l.2-.19,0,0A.67.67,0,0,1,20.91,12.5Zm0,1.59L21,14l0,0Zm0-2.6v.11l.15-.16.67-.66.05,0Zm0-.36v.11c.08-.08.24-.21.49-.41.44-.36.75-.62.93-.79a2.66,2.66,0,0,0,.3-.32Zm0-.68v.16l.16-.16.63-.65Zm1.75.33v-.06l-.25.2c-.45.36-.78.65-1,.84a2.88,2.88,0,0,0-.5.54c.11-.08.4-.33.87-.76A11.22,11.22,0,0,1,22.7,10.78ZM21,10v0c.13-.1.4-.33.8-.7a5.42,5.42,0,0,0-.54.44A1.59,1.59,0,0,0,21,10Zm0-.56c.19-.13.54-.41,1-.84h0l-.76.57Zm0-1v.11a4.4,4.4,0,0,1,.33-.3A12.42,12.42,0,0,0,22.62,7a3.27,3.27,0,0,0-.85.66c-.27.26-.52.52-.75.76Zm.06-1a.18.18,0,0,0,0,.06L21.58,7a9,9,0,0,0,.9-.86,7.68,7.68,0,0,0-.71.65A6.58,6.58,0,0,1,21.06,7.41Zm.52,1.08c.33-.27.68-.56,1.06-.89,0,0,0,0,.06,0V7.52L22,8.07c-.37.28-.62.49-.75.61a1.75,1.75,0,0,0-.24.25.15.15,0,0,1,.06,0Zm.36-.07-.26.2L21.21,9l-.16.14Zm.73-1.94-.13.13-.47.4a9.66,9.66,0,0,0-1,1,2.34,2.34,0,0,0,.39-.29l.38-.31a.52.52,0,0,1,.11-.1c.24-.23.49-.47.75-.74Zm-1.57.46a.59.59,0,0,1,0,.13l.28-.31A1.79,1.79,0,0,1,21.1,6.94Zm1,2.84.3-.28.17-.17.12-.09a.1.1,0,0,1,.07,0V9l-1.6,1.63a2.79,2.79,0,0,0,.24-.2C21.51,10.33,21.74,10.11,22.06,9.78Zm-.73,4.89.11-.09c.32-.31.57-.55.74-.73a4,4,0,0,0,.31-.34l-1.36,1.1a.93.93,0,0,0,.14.14S21.3,14.71,21.33,14.67Zm1.38-4.44v-.16c-.69.66-1.21,1.15-1.54,1.5.21-.21.58-.53,1.1-1l.43-.37Zm-.06,2.71a.85.85,0,0,0,0-.13c-.58.5-1,.91-1.36,1.24l.26-.23A5.15,5.15,0,0,1,22.65,12.94Zm0-1.17,0-.07a.5.5,0,0,0-.11.1l-.58.5-.6.51Zm-1.24,3.06.07-.07-.09.07ZM22.62,8.3l-.42.39-.65.58,1.15-1V8.24Zm-.82,6.61a2.42,2.42,0,0,1,.46-.53l.22-.22c-.21.17-.5.42-.85.73l.16,0ZM21.65,6l0,0h0Zm.62,0-.62.7h0c.35-.34.58-.56.7-.65Zm.18,7.92c-.12.1-.31.28-.58.54l-.1.08.12-.09A6.5,6.5,0,0,0,22.45,13.89Zm-.39-8A.29.29,0,0,1,22,6l.14-.12Zm.48,8.46,0,0-.19.18a3.09,3.09,0,0,0-.26.26Zm.18-5.54s0,0,0,0l-.5.45.18-.15.3-.23Zm-.14-2.57c-.08.09-.19.21-.35.36l.37-.31Zm.09,5.87v0l-.29.3Zm0-1.62a.08.08,0,0,0,0,0l-.2.2Zm-.06,3.11v0l0,0Zm.07-6.82h0l-.06.06h.06V6.79Zm0,2.68h0l-.06.07.05,0Zm0,1.62v0l0,0,0,0Zm0-3.89,0,0v0Z"/><path class="a" d="M29.43,9.33a1.3,1.3,0,0,1,0,.34,5.85,5.85,0,0,1-.19.67.07.07,0,0,1,0,.11l0,0c-.06.18-.13.39-.22.62v.06a.65.65,0,0,1-.1.21l-.05.12a.13.13,0,0,1,0,.06.08.08,0,0,1,0,0l-.05,0-.08.17a3.17,3.17,0,0,1-.13.34l-.1.27a.27.27,0,0,1,0,.15.77.77,0,0,1-.21.34,1.29,1.29,0,0,1-.09.2s0,.06,0,.1h0v0l-.08.2a.17.17,0,0,1,0,.12.75.75,0,0,1-.19.37c0,.09-.09.21-.14.35a.07.07,0,0,1,0,.06.29.29,0,0,1-.1.16l0,.12a.89.89,0,0,1-.05.1c-.14.4-.25.69-.32.87,0,0,0,.05,0,.09a.44.44,0,0,1-.13.2,2.74,2.74,0,0,1-.11.28v0c.06.06,0,.17-.13.33s-.07.17-.1.25a.08.08,0,0,1,0,.08l-.09.22a1.21,1.21,0,0,1-.05.14l0,0s0,.09,0,.14l0,0-.11.28a.08.08,0,0,1,0,0s0,.06,0,.08a0,0,0,0,1,0,0l0,0a1,1,0,0,1-.84.44.84.84,0,0,1-.31-.05l-.1,0s-.06,0-.08,0a.09.09,0,0,1-.06,0,.07.07,0,0,1,0-.07L24.9,18s-.06,0-.07,0a.07.07,0,0,1-.06-.11h0l-.08-.05a.14.14,0,0,1,0-.11.09.09,0,0,1,0-.06l-.08-.17h0a.07.07,0,0,1,0,0c0-.05,0-.12,0-.22a.69.69,0,0,1,0-.25.24.24,0,0,0,0-.08v0a.21.21,0,0,1,.05-.13.17.17,0,0,0,0-.05l.14-.42v0s0,0,0-.05.05-.17.1-.3,0-.11.06-.19h0a.17.17,0,0,0,0-.05h0a.23.23,0,0,1-.05-.18.83.83,0,0,1,.17-.32h0a.4.4,0,0,1,.14-.2s0,0,0,0a.19.19,0,0,1,0-.08.38.38,0,0,1,.12-.21.49.49,0,0,0-.05-.25.06.06,0,0,1-.06,0s0,0,0,0a.09.09,0,0,1,0-.05l-.05-.11a.1.1,0,0,1-.09,0c0-.05,0-.08,0-.11v0l-.38-.82h0a.07.07,0,0,1-.06,0,.07.07,0,0,1,0-.11h0l0-.1h0a.19.19,0,0,1-.09,0,.11.11,0,0,1,0-.14l-.26-.63a.05.05,0,0,1,0,0s0-.07,0-.11l-.17-.42h0a.09.09,0,0,1-.06,0,.14.14,0,0,1,0-.11.19.19,0,0,1,0-.07c-.07-.21-.14-.39-.19-.57h0a.06.06,0,0,1,0-.08,8,8,0,0,1-.25-.88c0-.05,0-.1,0-.15h0a.17.17,0,0,1,0-.17.34.34,0,0,1,0-.11V9.33a.15.15,0,0,1,0-.14,1,1,0,0,1,.25-.43.91.91,0,0,1,.44-.24.85.85,0,0,1,.23,0,1.19,1.19,0,0,1,.32,0h0a.05.05,0,0,1,.05,0,1,1,0,0,1,.44.4,3,3,0,0,1,.11.3s0,0,0,0a8.1,8.1,0,0,0,.35.83h0a.11.11,0,0,1,0,0c0,.06,0,.13.09.2h0l.05,0a.11.11,0,0,1,0,.11l0,.06,0,0,.06.05a.09.09,0,0,1,0,.1l.06.12h0a.07.07,0,0,1,.06,0s0,.07,0,.13l.09.19h0a.11.11,0,0,1,0,.07.08.08,0,0,0,0,0v0h0a.06.06,0,0,1,.06,0,.1.1,0,0,1,0,.13.54.54,0,0,1,.05.11h0l.05,0s0,0,0,0l0,0a2.37,2.37,0,0,1,.13-.32h0v-.08a.5.5,0,0,1,.13-.25l.1-.24a.08.08,0,0,1,0-.07.68.68,0,0,1,.13-.26s0,0,0-.05,0-.05,0-.07l.35-.82c-.06-.06,0-.19.14-.38a1,1,0,0,1,.55-.58l0,0a.06.06,0,0,1,.06,0,1.09,1.09,0,0,1,.26,0l.24,0,.1,0h.08a.1.1,0,0,1,.08,0,.06.06,0,0,1,0,.06,1.18,1.18,0,0,1,.26.24h0s0,0,.05,0a.07.07,0,0,1,0,.08.14.14,0,0,1,0,.06c0,.07,0,.14.07.2A.09.09,0,0,1,29.43,9.33ZM24.25,9c-.28.25-.45.43-.54.52a5.4,5.4,0,0,0,.48-.4,1,1,0,0,1,.15-.14l.06-.07.22-.21h-.09s0,.06-.08.11ZM23.76,10l.65-.67-.11.09a6,6,0,0,1-.57.47A.61.61,0,0,0,23.76,10Zm.06.24.29-.24.5-.48.32-.33c-.29.22-.67.55-1.13,1Zm.05.18a.56.56,0,0,0,0,.12L24,10.4c.1-.09.27-.27.53-.54l.5-.51-.22.18-.1.09-.15.15-.35.33h0A3,3,0,0,1,23.87,10.42ZM24,9a.1.1,0,0,0,0,.05l.14-.15c.08-.07.13-.13.17-.17l-.08,0s0,.06-.06.1ZM24,10.89l.12-.13.33-.34c.26-.25.44-.43.56-.56L24,10.75A.35.35,0,0,1,24,10.89Zm.77-2.18L24.44,9a.92.92,0,0,0-.14.14c-.13.12-.24.23-.32.32l.22-.2a6.85,6.85,0,0,1,.68-.55Zm-.69,2.34h0Zm.14.26c.17-.12.42-.33.76-.63a.45.45,0,0,1-.1.09c-.26.2-.44.33-.54.42Zm0,.3a.22.22,0,0,0,.06-.07l.22-.24.13-.15a4.11,4.11,0,0,1-.45.35A.49.49,0,0,0,24.29,11.61Zm.07.16a.3.3,0,0,0,0,.1l.29-.29L25,11.3A4.74,4.74,0,0,1,24.36,11.77Zm.16.41c.59-.61,1-1,1.25-1.32a4.29,4.29,0,0,0-.69.56l-.28.27-.34.34Zm.1.25.06-.12a.17.17,0,0,1-.1,0A.25.25,0,0,1,24.62,12.43Zm.53-3-.48.49.63-.5,0-.11h0Zm-.43,3.16h0l0,0Zm0,4.48.19-.2c.24-.23.57-.54,1-.93l.9-.79-.28.21-.18.13-.13.11c-.36.33-.82.76-1.37,1.29l-.13.12h0A.09.09,0,0,0,24.72,17.11Zm.06-4.66a3.91,3.91,0,0,0,.73-.59l.6-.56a.53.53,0,0,0-.06-.14l-.05,0c-.34.31-.6.55-.77.73A2.93,2.93,0,0,0,24.78,12.45Zm0,.44,0,0a0,0,0,0,1,0,0l.28-.27A1.51,1.51,0,0,1,24.81,12.89Zm0,4.84a.69.69,0,0,0,.17-.11.27.27,0,0,1-.16.06s0,0,0,0S24.85,17.72,24.85,17.73ZM25,8.86a.67.67,0,0,1-.12.17l.18-.12Zm-.09,4.26a0,0,0,0,1,0,0,0,0,0,0,1,0,0l.52-.49C25.21,12.89,25,13,24.91,13.12Zm0,3.28,0,.06,0,0,.11-.09Zm.74-6.07-.05.06-.33.34-.37.41c.08-.08.21-.18.37-.32l.36-.29.07-.07Zm-.68,7,.72-.55.32-.33c-.34.27-.6.48-.77.63A3.59,3.59,0,0,0,25,17.35Zm.08-4,.21-.19a6.84,6.84,0,0,1,.58-.54l.44-.44-.31.26c-.15.13-.38.33-.67.61l-.32.31s0,0,0,0S25.07,13.34,25.08,13.32Zm.36-3.54-.05-.1a3.17,3.17,0,0,1-.37.42A3.62,3.62,0,0,1,25.44,9.78ZM25.06,18l.13-.14-.15.12Zm0-2s0,0,0,0l0,.05a1.54,1.54,0,0,1,.22-.17A.55.55,0,0,1,25.08,16Zm.75-5-.5.52-.26.27.63-.56L26,11l-.05-.09Zm1.32,3c-1,.86-1.67,1.42-1.94,1.69a6.39,6.39,0,0,0,.58-.45c.26-.22.66-.59,1.23-1.11A.8.8,0,0,0,27.15,14.07Zm-1.85-.28c.07,0,.25-.11.53-.36s.51-.51,1-1l.13-.14-1.51,1.23a.58.58,0,0,0-.14.25Zm0,1.47,0,.09,2.16-1.75-.92.65-.27.18,0,0C25.72,14.92,25.43,15.19,25.33,15.26Zm.08,2.84.11-.18-.2.16Zm-.07-4,.06.11.39-.3.6-.57c.28-.26.51-.47.69-.65Q26.27,13.33,25.34,14.06Zm1-1.61a1.2,1.2,0,0,0-.21.17L26,12.7l-.49.46,0,0,0,0,0,0c.1-.07.21-.17.34-.28Zm-.24,4.29,0,0a1.81,1.81,0,0,0-.19.15l-.41.37a.49.49,0,0,0,.14-.11,2.35,2.35,0,0,0,.26-.22Zm1.19-1.54a1.51,1.51,0,0,0,.06-.15.53.53,0,0,1,0-.11L26.1,16l-.66.6.38-.32.59-.49.4-.32.24-.19.14-.08Zm-1.8,2.58.58-.49Zm.15-7.6h0ZM27.14,13l-.93.74a4.79,4.79,0,0,0-.59.61A12.57,12.57,0,0,0,27,13.17l.64-.58ZM25.9,18.05a.79.79,0,0,1,.2-.34l-.44.4A.84.84,0,0,0,25.9,18.05Zm2.4-5.63a.11.11,0,0,0,0-.05c-.15.15-.52.45-1.1.9s-1,.8-1.22,1l-.2.18Zm-.54,1.41.07-.16-.7.64c-.58.54-1,.91-1.26,1.13.47-.35.85-.66,1.15-.91A5.2,5.2,0,0,0,27.76,13.83Zm-1.57-2-.24.25c.13-.1.24-.2.36-.31a.11.11,0,0,0,0-.06A.47.47,0,0,1,26.19,11.82Zm.31,5.39a.5.5,0,0,1,0-.13l-.37.36A1.32,1.32,0,0,1,26.5,17.21Zm-.2.51h0l0,0h0ZM27,15.8a.18.18,0,0,0,0-.09l-.25.22-.35.33.32-.24ZM29.17,10l.09-.36s0,0,0,0h0l-.09,0c-1.19,1-1.95,1.71-2.29,2l-.12.13-.1.25.66-.49c.38-.36.68-.64.91-.84a7.17,7.17,0,0,1,.61-.5.86.86,0,0,1,.39-.19Zm-2,2.4a14.49,14.49,0,0,0,1.7-1.53h0a.62.62,0,0,0-.31.14c-.13.1-.3.24-.51.43s-.38.36-.51.5l-.57.58-.21.21Zm-.26,3.81h0Zm.07-5.13c0,.05,0,.09,0,.14l.46-.37A7.19,7.19,0,0,1,29,9.51l.28-.23a.94.94,0,0,0,0-.09,10,10,0,0,1-.95.78A12.4,12.4,0,0,0,26.94,11.1Zm.33-.66,0,.06.07-.06Zm.18-.53v0s0,0,0,0l.06-.06Zm.28-.68h0c.18-.15.41-.34.68-.59a.53.53,0,0,0-.17,0C28,8.89,27.86,9.07,27.73,9.23ZM28.68,9c-.37.36-.66.64-.87.83l.42-.32.35-.27c.16-.14.29-.27.41-.39l-.1-.06Zm-.21,3,.06-.15-.39.3-.13.12q.36-.28.45-.27Zm-.23-1.14c.43-.32.71-.53.82-.63a3.44,3.44,0,0,0-.65.48Zm.37.63.08-.11-.18.14Zm0-2.81a.14.14,0,0,0,0,.06.15.15,0,0,1,.06,0Zm.31,2.12a.61.61,0,0,1,.05-.12l-.11.1A.07.07,0,0,1,28.93,10.77ZM29.09,9l0,0v0Zm.19.53v0s0,0,0,0Z"/></svg>