<svg xmlns="http://www.w3.org/2000/svg" viewBox="0 0 102.53 102.53"><defs><style>.a{fill:#3479f6;}</style></defs><rect class="a" x="44.27" y="1.84" width="14" height="14" rx="2.56" transform="translate(21.27 -33.66) rotate(45)"/><rect class="a" x="58.41" y="15.98" width="14" height="14" rx="2.56" transform="translate(35.41 -39.52) rotate(45)"/><rect class="a" x="72.55" y="30.13" width="14" height="14" rx="2.56" transform="translate(49.55 -45.38) rotate(45)"/><rect class="a" x="86.69" y="44.27" width="14" height="14" rx="2.56" transform="translate(63.69 -51.24) rotate(45)"/><rect class="a" x="30.13" y="15.98" width="14" height="14" rx="2.56" transform="translate(27.13 -19.52) rotate(45)"/><rect class="a" x="44.27" y="30.13" width="14" height="14" rx="2.56" transform="translate(41.27 -25.38) rotate(45)"/><rect class="a" x="58.41" y="44.27" width="14" height="14" rx="2.56" transform="translate(55.41 -31.24) rotate(45)"/><rect class="a" x="72.55" y="58.41" width="14" height="14" rx="2.56" transform="translate(69.55 -37.09) rotate(45)"/><rect class="a" x="15.98" y="30.13" width="14" height="14" rx="2.56" transform="translate(32.98 -5.38) rotate(45)"/><rect class="a" x="30.13" y="44.27" width="14" height="14" rx="2.56" transform="translate(47.13 -11.24) rotate(45)"/><rect class="a" x="44.27" y="58.41" width="14" height="14" rx="2.56" transform="translate(61.27 -17.09) rotate(45)"/><rect class="a" x="58.41" y="72.55" width="14" height="14" rx="2.56" transform="translate(75.41 -22.95) rotate(45)"/><rect class="a" x="1.84" y="44.27" width="14" height="14" rx="2.56" transform="translate(38.84 8.76) rotate(45)"/><rect class="a" x="15.98" y="58.41" width="14" height="14" rx="2.56" transform="translate(52.98 2.91) rotate(45)"/><rect class="a" x="30.13" y="72.55" width="14" height="14" rx="2.56" transform="translate(67.13 -2.95) rotate(45)"/><rect class="a" x="44.27" y="86.69" width="14" height="14" rx="2.56" transform="translate(81.27 -8.81) rotate(45)"/></svg>