<svg xmlns="http://www.w3.org/2000/svg" viewBox="0 0 71 36"><defs><style>.a{fill:#29abe2;}</style></defs><path class="a" d="M16.69,11a.16.16,0,0,1,0,.19c0,.91,0,1.67,0,2.28a.52.52,0,0,1,0,.11c0,.12,0,.22,0,.29v0l0,0q.07.08-.06.21a.05.05,0,0,1,0,0,.44.44,0,0,1-.06.16,1.51,1.51,0,0,1-.83,1,.33.33,0,0,1-.18.1h0a1.69,1.69,0,0,1-.5.08l-.16,0a1.49,1.49,0,0,1-1.1-.61.19.19,0,0,1-.12,0s-.05,0-.08-.06,0-.13,0-.23a1.54,1.54,0,0,1-.15-.68c0-.19,0-.47.05-.82a4.93,4.93,0,0,0,0-.56c0-.1,0-.24,0-.41V12c0-.37,0-.64,0-.82l-.08,0c0-.05,0-.11,0-.17l.06-.06a11.14,11.14,0,0,0-.08-1.69l0,0c-.05-.06,0-.15,0-.25l0-.08-.08,0a.86.86,0,0,0-.24,0,1.26,1.26,0,0,0-.27,0,.54.54,0,0,1-.15.08l-.27.23s0,0-.05,0l-.05.05a.73.73,0,0,0-.08.25l0,0v0a5.61,5.61,0,0,0-.13.74v0a.24.24,0,0,1,.07.21.62.62,0,0,1-.12.29A.88.88,0,0,1,12,11a.14.14,0,0,1,0,.17c0,.26-.06.57-.08.93a.12.12,0,0,1,0,.16c0,.12,0,.23,0,.35s0,.16,0,.17l0,0a.18.18,0,0,1,0,.1.08.08,0,0,1-.06.08l0,0v.21l0,0c.08.09,0,.23-.08.43v.07a2.58,2.58,0,0,1-.11.61,1.48,1.48,0,0,1-.54.73,1.35,1.35,0,0,1-.84.28.62.62,0,0,1-.26.11h0a.33.33,0,0,1-.13-.07.16.16,0,0,1,0-.1.76.76,0,0,1-.2-.06,2.05,2.05,0,0,1-.75-.56.23.23,0,0,1-.17-.08.15.15,0,0,1,0-.18,1.73,1.73,0,0,1-.21-.85v-.31a.13.13,0,0,1-.1,0,.17.17,0,0,1,0-.12c0-.05.05-.12.14-.21v-.27h0a.34.34,0,0,1,0-.18.51.51,0,0,1,.08-.17c0-.14,0-.35,0-.6,0-.43,0-.76,0-1l-.06-.06q-.09-.11.06-.24h0v-.19a4.54,4.54,0,0,0-.17-1.09l-.06,0a.08.08,0,0,1-.08,0c0-.06,0-.14,0-.23-.14-.3-.31-.45-.5-.45a.89.89,0,0,0-.51.2,0,0,0,0,1,0,0h0l-.13.11a1.51,1.51,0,0,0-.45.86c0,.22,0,.48-.06.77l0,0s0,.13-.06.24v.54a.21.21,0,0,1,0,.16.18.18,0,0,1,0,.09v.22a19.18,19.18,0,0,1-.07,2A1.9,1.9,0,0,1,5.5,15.23a.33.33,0,0,1-.18.1l0,0a1.29,1.29,0,0,1-.48.1h0a1.39,1.39,0,0,1-.91-.31h0A.14.14,0,0,1,3.69,15a.2.2,0,0,1-.06-.14,2.5,2.5,0,0,1-.23-.43l-.1-.05a.12.12,0,0,1,0-.1.26.26,0,0,1,0-.1l0-.11a6.45,6.45,0,0,1-.19-1.36c0-.25,0-.5,0-.76a.5.5,0,0,1,0-.12.31.31,0,0,1,0-.08v-1a.11.11,0,0,1,0-.15c0-.24,0-.47,0-.7A.21.21,0,0,1,3,9.87a.19.19,0,0,1,0-.12.92.92,0,0,1,.14-.23c0-.26,0-.51.06-.76a.25.25,0,0,1,0-.17l0,0c-.07-.06,0-.16.08-.29,0-.34.06-.68.09-1l0,0a.19.19,0,0,1,0-.12.53.53,0,0,1,.11-.21c0-.06,0-.16,0-.27V6.45l0,0c-.06-.08,0-.21.12-.41a2.47,2.47,0,0,1,.1-.29.15.15,0,0,1,.06-.11l0,0a1.35,1.35,0,0,1,.63-.53A.31.31,0,0,1,4.41,5h0l.29,0h.12A1.51,1.51,0,0,1,5.34,5l.08,0,.08.06,0,0a1.59,1.59,0,0,1,.68.68,2.91,2.91,0,0,1,1-.66L7.67,5l.08,0a.11.11,0,0,1,.18,0,3.31,3.31,0,0,1,.44,0h.12a.57.57,0,0,1,.33-.08A.24.24,0,0,1,9,5l0,0a3.63,3.63,0,0,1,.59.14.51.51,0,0,1,.2,0,.14.14,0,0,1,.13.08s0,0,0,.08,0,0,0,0a2.74,2.74,0,0,1,1,.79l.4-.35a3.89,3.89,0,0,1,1-.54c.15-.1.24-.15.29-.14a.09.09,0,0,1,.08,0A3.72,3.72,0,0,1,13.54,5h.29L14,5l.13.06.24.06.11,0a.36.36,0,0,1,.26.12l0,0,.11.06a.45.45,0,0,1,.18,0,.18.18,0,0,1,.15.07.13.13,0,0,1,0,.1l0,.06a.15.15,0,0,1,.06,0v0a.1.1,0,0,1,.1,0,.13.13,0,0,1,.09,0,.1.1,0,0,1,0,.13.87.87,0,0,1,.14.12h0a.14.14,0,0,1,.1,0,.18.18,0,0,1,0,.09l.09.11h.06a.18.18,0,0,1,.1,0,.22.22,0,0,1,0,.16s0,0,0,0a2.9,2.9,0,0,1,.5,1.26h0a.13.13,0,0,1,.1,0c0,.06,0,.14-.06.21s0,0,0,0a.9.9,0,0,1,0,.18.09.09,0,0,1,.06,0c.05.05,0,.11,0,.17l0,0a2.92,2.92,0,0,1,0,.33l0,0a.11.11,0,0,1,0,.15v0a1.18,1.18,0,0,0,0,.22l.06,0c.05.06,0,.15,0,.27,0,.28,0,.7,0,1.24Zm-13.41.31,0,0h0Zm0-.91.12-.1-.12,0v.12Zm1.54-.55L6.12,8.63l.43-.39L7.71,7.15c-1,.83-1.88,1.52-2.5,2.06-.44.36-.81.68-1.09.94a7.55,7.55,0,0,0-.58.58,1.36,1.36,0,0,0-.22.27,5.09,5.09,0,0,0,1.09-.82C4.54,10.08,4.68,10,4.84,9.81Zm.46,1.32q1.1-1,1.17-1.32A11.86,11.86,0,0,0,5,11.11a7.3,7.3,0,0,1-1.71,1.44v.23l.37-.29C4,12.17,4.55,11.72,5.3,11.13ZM3.38,13.35a1.67,1.67,0,0,0,.06.29l1.49-1.48L4,12.92a5,5,0,0,1-.44.34ZM5.77,8.06A19.73,19.73,0,0,0,3.4,10h0a1.08,1.08,0,0,0,.41-.14L4,9.73q.78-.68,2.1-1.86l.33-.29Zm.8,1.5a.86.86,0,0,1,.06-.23l-1.42,1.2a19.94,19.94,0,0,0-1.77,1.69,16.15,16.15,0,0,0,1.42-1.28c.54-.53.93-.9,1.16-1.1s.41-.29.53-.28ZM3.46,8a10.72,10.72,0,0,1,.87-.76C5.08,6.61,5.56,6.19,5.77,6a9.49,9.49,0,0,0-1.17,1c-.38.35-.77.7-1.14,1.07ZM5,10.36a5.12,5.12,0,0,0-.46.33L4.08,11a8.36,8.36,0,0,0-.6.6C3.8,11.37,4.32,11,5,10.36ZM3.52,7.46l0,0,0,0Zm0,6.57L4,13.6v0a8.72,8.72,0,0,1,2.22-1.86,1,1,0,0,0,.19-.26v0a30.94,30.94,0,0,0-2.93,2.49h0A.25.25,0,0,0,3.52,14Zm.17.42c.6-.55,1.15-1.08,1.65-1.57-.2.17-.48.39-.83.66-.13.11-.23.18-.29.24-.31.31-.52.5-.61.58l.06.11Zm.74-9.2a8.3,8.3,0,0,0-.78.87c.16-.13.41-.37.76-.72a2.57,2.57,0,0,0,.21-.19Zm2,5.3,0,0c-.5.43-1,.82-1.44,1.18l-1.08.9-.06,0,0,0a1.2,1.2,0,0,0-.16.17C4.23,12.43,5.16,11.66,6.47,10.55ZM4,14.67l-.11.13a5.64,5.64,0,0,0,.5-.36A2.25,2.25,0,0,1,4,14.67Zm.18.39a1.15,1.15,0,0,1,.23-.33A3.07,3.07,0,0,1,4.1,15ZM6.78,6.14c-.45.39-1.16,1-2.12,2-.13.13-.24.24-.35.33l1.07-.85.29-.23a27.33,27.33,0,0,1,2.26-2A5.85,5.85,0,0,0,6.78,6.14ZM4.9,14.8l0,0-.44.36a.62.62,0,0,0,.19,0A1.92,1.92,0,0,1,4.9,14.8ZM5,5.19l-.5.54.6-.52ZM4.74,6l0,0,0,0s0,0,0,0S4.73,6,4.74,6Zm1.71,6.24V12.1a3.33,3.33,0,0,1-.29.32q-.33.35-.93.93l-.2.17a.68.68,0,0,1,.14-.09,3.21,3.21,0,0,1,.33-.26l.85-.87A.13.13,0,0,1,6.45,12.26ZM8.3,5.34a14.56,14.56,0,0,1-2.47,2.2L5.32,8l-.27.29.58-.45c1-.82,1.78-1.39,2.18-1.73a8.68,8.68,0,0,0,1-.91l-.25,0ZM6.39,13.66V13.6c-.49.48-.88.89-1.18,1.22l.27-.27q.71-.72.87-.72A.85.85,0,0,0,6.39,13.66Zm-1-8.2a1.2,1.2,0,0,0-.17.16,0,0,0,0,0,0,0,1.1,1.1,0,0,0,.15-.16Zm-.12,8.26.57-.51a.94.94,0,0,0-.2.16l-.23.21A.93.93,0,0,0,5.28,13.72Zm1.13-.43a2.45,2.45,0,0,0,0-.27c-.39.39-.74.75-1,1.09l1-.8ZM5.83,5.64l-.06,0h.06ZM6,6a1.71,1.71,0,0,0-.11.14.53.53,0,0,1,.13-.1Zm.41,5.13V11a1.72,1.72,0,0,0-.17.19A2.57,2.57,0,0,0,6,11.5,3.7,3.7,0,0,1,6.45,11.15ZM6,9.37A29.14,29.14,0,0,0,9.29,6.76l-.07.06-.07.06C7.79,7.94,6.75,8.77,6,9.37ZM8.94,6.59c-.61.45-1.41,1.11-2.39,2l-.27.25L6.2,8.9C6.86,8.36,7.79,7.62,9,6.68l.93-.75h0A5.2,5.2,0,0,0,8.94,6.59ZM7.23,5.38h0l0,0Zm.95,2.9a.41.41,0,0,1,.1-.18l-.18.14Zm.43.41h0Zm.13.4a13.35,13.35,0,0,1,2-1.67l.84-.62L12.53,6,13,5.62a.79.79,0,0,0,.17-.3A16.15,16.15,0,0,0,10.7,7.23c-.62.53-1.28,1.11-2,1.75A.22.22,0,0,1,8.74,9.09Zm3,1.67-1.34,1.15c-.83.7-1.37,1.13-1.63,1.3a.9.9,0,0,0,0,.18l.7-.57A14.58,14.58,0,0,0,11.77,10.76ZM9.11,8l-.29.21,0,0Zm-.23,6,.35-.37.15-.16a1.92,1.92,0,0,1-.58.34c0,.09,0,.17,0,.25S8.87,14,8.88,14Zm2.29-3.23a2.23,2.23,0,0,0,.6-.66,8.85,8.85,0,0,0-.95.72c-.34.29-.83.73-1.49,1.34-.28.26-.44.42-.51.47v.08c.17-.15.49-.4.95-.78C10.43,11.38,10.9,11,11.17,10.74ZM9.6,8.94a3,3,0,0,1-.76.56c0,.05,0,.11,0,.18l0,0a5.38,5.38,0,0,1,.56-.59Zm3-.27c1.2-1.07,2-1.83,2.51-2.3-.64.48-2,1.64-4.16,3.46-1.23,1.05-1.91,1.61-2,1.69s0,.11,0,.22v.11l1.44-1.22a8.89,8.89,0,0,1,1.4-1.21l.38-.33A1.07,1.07,0,0,1,12.57,8.67ZM8.9,11.06h0Zm5.42-5.68A7.07,7.07,0,0,0,12.41,6.7L12,7.05q-1.5,1.32-3.11,3v.12c.14-.14.35-.33.62-.56s1.07-.94,2.08-1.81l2.76-2.45ZM9.21,10.69a1,1,0,0,1-.23.07l0,0Zm2.47,1.43v0a30.12,30.12,0,0,0-2.63,2.37.9.9,0,0,0,.22-.11l.17-.18c.22-.22.53-.5.93-.85s.61-.56,1-.88ZM9.17,9l.39-.35-.08.07ZM9.3,5.33l0,0,.08,0h0Zm0,9.34,0,0-.06,0,0,0Zm1.43-5.58-.33.28c-.37.32-.69.6-.93.83l.66-.56Zm.12-2.68c-.35.33-.69.64-1,.94l.37-.3.68-.6Zm-.08,8,.49-.5c-.15.13-.28.25-.41.35-.52.43-.86.69-1,.8l.19.05C10.35,14.91,10.6,14.68,10.82,14.45Zm-.7-8.35a1.44,1.44,0,0,1-.11.2,4.49,4.49,0,0,1,.46-.39.09.09,0,0,0-.06-.06Zm1.46,7.29a.59.59,0,0,0,0-.14l-.66.54s0,0,0,0l-.82.8-.08.1Q10.58,14.26,11.58,13.39Zm-.82-7.17-.06-.08a2,2,0,0,1-.31.35Zm0,8.86a.05.05,0,0,1,0,0l-.1.06Zm.94-3.33c0-.11,0-.22,0-.33l-1,1A4,4,0,0,1,11.7,11.75ZM15,5.67c-.18.16-.73.6-1.65,1.33l-.68.54-.26.25q-.6.63-1,1l2.7-2.29c.48-.4.79-.67.92-.8C15,5.69,15,5.69,15,5.67Zm-3.38,6.82v0Zm.23-2.68a.51.51,0,0,0,0-.09l-.18.13Zm.6-2.41.06,0,0,0Zm1,1A3,3,0,0,1,13.83,8l-.66.52.18,0A.6.6,0,0,1,13.46,8.45Zm0-3.18s0,0,0,0v0S13.4,5.28,13.42,5.27Zm1.15,8,.93-.91-.29.25a2,2,0,0,1-.21.19l-.08.08-.9.88a.8.8,0,0,1-.42.23.85.85,0,0,0,0,.17l.21-.21Zm-.93.37h0v0S13.62,13.64,13.64,13.64Zm2.81-2.7,0,0v0a8.42,8.42,0,0,1-1,.91c-.56.47-1,.81-1.17,1a2.89,2.89,0,0,0-.54.59,2.34,2.34,0,0,0,.64-.45q.33-.28,1.11-1A8.82,8.82,0,0,1,16.45,10.94Zm-2.66,1.67-.09,0v.06A.36.36,0,0,1,13.79,12.61Zm-.06-3a.09.09,0,0,0,0-.06l0,0Zm1.95.37c-.57.46-1.21,1-1.93,1.61a1.49,1.49,0,0,0,0,.21l.06,0,.72-.68Zm-1.85.1h-.08v0Zm-.08,1.14.9-.87-.9.74Zm0-.5,1-1-1,.76Zm2.66-.61a.66.66,0,0,1,0-.11l-1.87,1.51a4,4,0,0,0-.74.84A12.39,12.39,0,0,0,15,11.25,7.37,7.37,0,0,1,16.43,10.08ZM14,14.78h0l1-1-.12.09c-.5.46-.83.74-1,.86ZM16.2,7.25a.3.3,0,0,0,0-.1l-.35.27c-.58.47-1,.83-1.3,1.09a3.33,3.33,0,0,0-.58.64c.36-.28,1-.83,2-1.63A2.86,2.86,0,0,0,16.2,7.25Zm.08.41a.52.52,0,0,0,0-.14l-.19.18c-.35.29-.67.57-1,.83-.47.44-.82.78-1,1l1.09-1C15.75,8.09,16.12,7.77,16.28,7.66Zm-1.75,7.2.58-.56a4.38,4.38,0,0,1-.87.7l.08.06.06-.06A1.12,1.12,0,0,1,14.53,14.86Zm.29.35a.64.64,0,0,1,.2-.35,4.86,4.86,0,0,1-.41.31Zm.45-9.36-.43.41c.21-.17.37-.29.49-.37Zm.5.6-.48.49-.1.09a3,3,0,0,1,.72-.48l-.1-.14Zm-.31-.11-.15.15.35-.29,0,0Zm.88,1.76V8l-.25.23-.66.6Zm0,.51a1.41,1.41,0,0,0,0-.18l-.92.94A5.94,5.94,0,0,1,16,8.94Zm-.8,4,.87-.72v-.17a.25.25,0,0,0-.05.07l-.45.45a5.29,5.29,0,0,1-.47.45l.06,0S15.58,12.64,15.58,12.63ZM16.34,14v-.08l-.45.43-.41.39.51-.45C16.17,14.12,16.29,14,16.34,14Zm-.66-2.74.48-.43a3.22,3.22,0,0,0-.29.24Zm.72-2.2V9l-.53.52ZM16,6.8l-.14.12a.35.35,0,0,1,.18-.06Zm.39,2.88V9.56l-.35.35a.32.32,0,0,0-.1.1,4.4,4.4,0,0,1,.41-.31,0,0,0,0,0,0,0Zm-.35,5a.16.16,0,0,1,0-.06l-.05.06Zm.36-1.89v-.13a.31.31,0,0,1-.08.1.74.74,0,0,0-.13.12L16.1,13A1.06,1.06,0,0,1,16.43,12.76Zm0,.63v-.1l-.3.35C16.21,13.55,16.3,13.46,16.4,13.39Zm.05-1.13v0l0,0,0,0Z"/><path class="a" d="M26.28,9.52a.11.11,0,0,1,0,.18l-.05,0v.49a.29.29,0,0,1,0,.14.26.26,0,0,1,0,.11A7.65,7.65,0,0,1,26,12a.08.08,0,0,0,0,.06l-.15.5a.16.16,0,0,1,0,.12.76.76,0,0,1-.2.33c-.06.13-.12.25-.17.37s-.13.24-.2.37a.1.1,0,0,1,0,.09l-.07.08a5.1,5.1,0,0,1-1.23,1.34,3.72,3.72,0,0,1-.58.35,1.12,1.12,0,0,1-.58.29.13.13,0,0,1-.1,0,3,3,0,0,1-.8.1h-.11l-.06,0a.05.05,0,0,1-.06,0h0s-.06,0-.08-.06l0,0a4,4,0,0,1-.83-.21.24.24,0,0,1-.14.06.07.07,0,0,1-.07,0,.21.21,0,0,1-.06-.16l-.08,0,0,0-.09,0a.08.08,0,0,1-.07,0,.14.14,0,0,1,0-.09v0a6.89,6.89,0,0,1-.61-.49.19.19,0,0,1-.07-.06.09.09,0,0,1,0-.08l-.14-.15-.31-.41a.11.11,0,0,1-.14,0,.11.11,0,0,1,0-.17h0a3.81,3.81,0,0,1-.23-.45.1.1,0,0,1-.1,0,.09.09,0,0,1-.07,0c-.06-.06,0-.12,0-.17l0,0H18.4a.12.12,0,0,1-.08,0c-.05-.07,0-.15,0-.25a2.81,2.81,0,0,1-.16-.49h0a.18.18,0,0,1-.13-.06c-.07-.09-.05-.21.05-.35s-.07-.43-.09-.66h0a.14.14,0,0,1,0-.17v0a.19.19,0,0,1-.08,0,.1.1,0,0,1,0-.1A.31.31,0,0,1,18,11v0h0a.12.12,0,0,1-.1-.06.34.34,0,0,1,0-.16.78.78,0,0,1,.14-.27v-.08l0,0a.11.11,0,0,1,0-.11.33.33,0,0,1,.08-.16.16.16,0,0,1,0-.09h0a.31.31,0,0,1-.06-.3A.35.35,0,0,1,18,9.56v0a.1.1,0,0,1,0-.08l0,0,0,0a6.94,6.94,0,0,1,.27-1.09c0-.08,0-.19.11-.33.15-.34.3-.66.47-1a4.8,4.8,0,0,1,1.36-1.53,2.62,2.62,0,0,1,.43-.27,3.24,3.24,0,0,1,1.55-.41.58.58,0,0,1,.35-.12.19.19,0,0,1,.16.08l0,.08.11,0a.78.78,0,0,1,.26-.06.19.19,0,0,1,.15.08.17.17,0,0,1,.06.11,3.07,3.07,0,0,1,.87.47.35.35,0,0,1,.25.12.19.19,0,0,1,0,.11c.12.12.24.24.35.37a4.67,4.67,0,0,1,.51.7.12.12,0,0,1,.08,0,.13.13,0,0,1,.09,0,.23.23,0,0,1,0,.2V7l0,0c0,.06,0,.12,0,.2l.12.25,0,0a.17.17,0,0,1,0,.16l0,0h0a.14.14,0,0,1,.09,0q.06.1-.06.24a1.15,1.15,0,0,1,.08.29l0,0a.27.27,0,0,1,0,.19v.12s0,0,.06,0a.09.09,0,0,1,0,.15l0,0a.9.9,0,0,1,0,.18h0a.15.15,0,0,1,.09.06c0,.05,0,.11,0,.19l0,0a1.79,1.79,0,0,1,0,.23A.11.11,0,0,1,26.28,9.52Zm-7,.49a.54.54,0,0,1,.12-.14c.53-.54.93-.93,1.19-1.17s.47-.34.61-.33l.08,0v0a2.18,2.18,0,0,1,.6-.64,1.15,1.15,0,0,1,.35-.15,21.58,21.58,0,0,0,2-1.69l0-.08-.12-.1a.59.59,0,0,0-.17,0,18,18,0,0,1-2.86,2.41,2.43,2.43,0,0,1-.25.2,21.25,21.25,0,0,1-2.08,1.82l-.62.64Zm-1.07.21v0a17.5,17.5,0,0,1,1.4-1.19c.26-.25.51-.5.76-.73-.27.23-.52.43-.74.6C18.89,9.58,18.42,10,18.22,10.22Zm.06,1.44.43-.35c.71-.58,1.23-1,1.55-1.32a6,6,0,0,0,.58-.6l.06-.16c-.52.36-1.4,1.11-2.66,2.23a1.8,1.8,0,0,1,0,.22Zm0-2.1a1,1,0,0,1,0,.16c.23-.17.64-.5,1.22-1a3,3,0,0,1,.32-.27l-1.27.92Zm.1,2.68a13.22,13.22,0,0,0,1-.93,2.91,2.91,0,0,1,.25-.25l-.72.6a4.6,4.6,0,0,0-.52.56Zm.09.23s0,0,0,0v0Zm.1-4.1-.06.22a40.33,40.33,0,0,1,3.95-3.46l.05-.08-.19,0c-.14.11-.34.26-.58.47s-.77.72-1.46,1.38A10.23,10.23,0,0,1,18.57,8.37Zm0,4.49.12-.13a.09.09,0,0,1,.06,0h0l-.16.13Zm.12.31v0l1.69-1.57a9.66,9.66,0,0,0-.8.7C19.26,12.58,19,12.86,18.65,13.17Zm.15.35.31-.33-.35.27Zm.28-6.27a2.69,2.69,0,0,0-.16.29q.2-.18.54-.45a.77.77,0,0,1-.36.16ZM20,12.73c-.43.4-.71.68-.85.83A16,16,0,0,0,20.84,12a.69.69,0,0,0,0-.1C20.69,12,20.4,12.3,20,12.73Zm-.76,1.47a1.89,1.89,0,0,1,.33-.41l.76-.75c.27-.25.46-.42.56-.53a6.46,6.46,0,0,0-.56.45l-.23.23-.94.9A.44.44,0,0,1,19.19,14.2Zm.86-8.08a7.88,7.88,0,0,0-.76.8,17.86,17.86,0,0,0,2-1.69,2.17,2.17,0,0,0-.41.19A7.33,7.33,0,0,1,20.05,6.12Zm2,.25q-1.29.9-2.1,1.56l0,0c-.19.17-.39.35-.58.54C20.51,7.64,21.41,6.93,22.05,6.37ZM19.5,14.59l.16-.19.6-.7c.3-.33.51-.56.62-.7-.18.14-.41.34-.7.6s-.56.55-.79.8l0,0a.19.19,0,0,0,.06.07A.86.86,0,0,1,19.5,14.59Zm.88-3.9c-.16.13-.38.34-.68.64C20,11.06,20.22,10.84,20.38,10.69Zm-.58,4.19.07-.08.22-.19c.32-.3.58-.54.77-.74l-1.16.93Zm.21.18,5.36-4.67c-.35.25-.82.62-1.4,1.11l-1.24,1.07a1.61,1.61,0,0,1-.45.45l-.1.06-1.12,1-1.07,1Zm1.3-2.2c0,.05-.12.16-.25.31l-.6.7s0,0,0,0l0,0L21.48,13a1.2,1.2,0,0,1-.17-.16Zm-.82-2.58.2-.08v-.12Zm.06.56.12-.08v0Zm.14.27,0,0h0Zm.06,4.2,0,0v0l0,0,0,0c1-.85,1.83-1.54,2.45-2.08l-.13.1L21.23,14.8A3.48,3.48,0,0,0,20.75,15.31Zm.29.27c.81-.67,1.6-1.33,2.35-2,1-.85,1.66-1.49,2.08-1.9q-1.11.81-4.45,3.71l-.16.11A.48.48,0,0,0,21,15.58Zm2.12-5c-.06,0,0-.12,0-.2l0,0a2.11,2.11,0,0,0,0-.35l-.06,0a.12.12,0,0,1,0-.18l0,0a.47.47,0,0,0,0-.17l0,0a.36.36,0,0,1,0-.29.49.49,0,0,0,0-.12h0a.1.1,0,0,1-.09,0,.15.15,0,0,1,0-.1A.07.07,0,0,1,23.08,9l0,0A2.35,2.35,0,0,0,22.67,8a1.24,1.24,0,0,0-.19-.16l-1.11.85a2.44,2.44,0,0,0-.1.24q.07.19-.21.54v0l0,0a.13.13,0,0,1,0,.18L21,9.81a5,5,0,0,0-.08.86s0,0,0,0a.11.11,0,0,1,0,.17l0,0a2,2,0,0,1,0,.25s0,0,0,0a.15.15,0,0,1,0,.18,1.23,1.23,0,0,0,0,.19c0,.13.06.25.1.37s0,0,0,0a.17.17,0,0,1,0,.12.19.19,0,0,1,0,.07.13.13,0,0,1,.13.08.18.18,0,0,1,0,.2,3.29,3.29,0,0,0,.23.33.48.48,0,0,0,.33.19.49.49,0,0,0,.22-.06,4.4,4.4,0,0,0,.39-.35c0-.1.13-.3.41-.6,0-.09.07-.19.11-.29a.12.12,0,0,1,0-.12l0,0,.12-.35a.08.08,0,0,1,0,0,.06.06,0,0,1,0-.09s0-.09.1-.14l0-.17Zm-2.1,2,.06,0,0,0Zm1.16.83-.89.78.08-.06Zm-.5,2.2-.1,0h0l0,0Zm4.06-3.94-.43.44c-.4.38-1,.88-1.67,1.52l-2,1.71a17.05,17.05,0,0,0,2-1.61c.71-.64,1.41-1.3,2.1-2l0,0Zm-4-6.63v0a.07.07,0,0,0,.06,0Zm.28,10.61v0l0,0Zm0-9.66.56-.4L23,5.42v0A7.29,7.29,0,0,0,22.09,6Zm.85,9.13.49-.46-.57.44a6.67,6.67,0,0,0-.5.47,3.34,3.34,0,0,0,.37-.21A2,2,0,0,1,22.94,15.17Zm-.33-9.85a.21.21,0,0,1,0,.06A3.05,3.05,0,0,1,23,5.13l-.06,0Zm.33,1.09a4.34,4.34,0,0,1-.37.35L23,6.45l.35-.31Zm1.65-.11a2.86,2.86,0,0,0-.56.42c-.21.19-.51.46-.89.84l-.31.29h0v0A1.09,1.09,0,0,1,23,8l0,0,.27-.26c.4-.39.69-.68.88-.89A2.86,2.86,0,0,0,24.59,6.3Zm-1.05-1c-.05.05-.18.14-.38.29l-.24.27.66-.55S23.54,5.32,23.54,5.31ZM24,14.69l.8-.78-.76.7c-.39.35-.72.63-1,.86l.15-.08A9.66,9.66,0,0,0,24,14.69Zm-.83-6.32a1.49,1.49,0,0,1,.15-.19v0a1.26,1.26,0,0,1-.19.14A.25.25,0,0,0,23.18,8.37Zm.27,2.69-.06,0,0,0Zm1.76-4.14-.13-.22c-.31.29-.6.57-.88.86a5.88,5.88,0,0,0-.79.91A17.56,17.56,0,0,0,25.18,7l0,0S25.21,6.93,25.21,6.92Zm-1.65,3.63a.15.15,0,0,0-.09.06v0s0,0,0,0l0,0Zm-.07-1v0l1.16-.95a9.76,9.76,0,0,0,.78-.76l-1.11.93C23.87,9.24,23.59,9.48,23.49,9.56Zm0,.54.23-.23c.36-.36.65-.65.87-.85l-.06,0c-.32.28-.67.56-1,.86Zm1.94-2.7c-.07.07-.19.18-.37.33-.52.46-.89.79-1.11,1l-.37.39q.18-.14.57-.48a17.13,17.13,0,0,1,1.34-1.13Zm-.78,4.26a11.32,11.32,0,0,0,1.17-1.11c-.29.22-1,.83-2.06,1.83l0,0ZM24.2,11c.89-.74,1.47-1.2,1.75-1.38a.36.36,0,0,0,0-.14.57.57,0,0,1-.11.1l-1.73,1.53A.56.56,0,0,1,24.2,11ZM25.74,8.2c-.12.13-.28.3-.49.5s-.54.56-.93.94c.45-.38.94-.81,1.46-1.28A1.24,1.24,0,0,1,25.74,8.2Zm-.91-1.85a1.54,1.54,0,0,1-.37.55,4.62,4.62,0,0,0,.46-.41S24.86,6.41,24.83,6.35Zm.23,3-.27.23-.31.27.33-.27A2.51,2.51,0,0,1,25.06,9.33ZM24.51,6v0s0,0,0,0Zm1.38,3-.56.54.56-.45Zm0,2.13v0s0,0,0,0Z"/><path class="a" d="M36.36,12.59c.07.09.06.21,0,.37a6.09,6.09,0,0,1,0,.95,1.58,1.58,0,0,1-.95,1.4.34.34,0,0,1-.18.08h0a.16.16,0,0,0-.1,0,2,2,0,0,1-.35,0l-.23,0s-.06,0-.08,0h0a.22.22,0,0,1-.07-.06s0,0,0,0l-.31-.12h-.06a.13.13,0,0,1-.1,0,.19.19,0,0,1,0-.08L33.53,15a1.55,1.55,0,0,1-.41-.78l-.06,0A.21.21,0,0,1,33,14a1,1,0,0,0,.06-.14s0,0,0,0,0-.18,0-.31a1.23,1.23,0,0,1,0-.19.2.2,0,0,1,0-.18c0-.13,0-.22,0-.29v-.13a.13.13,0,0,1,0-.18l0,0c0-.11,0-.23,0-.35a.1.1,0,0,1-.08,0c-.05-.06,0-.15.1-.27q0-.78-.06-2s0,0,0,0a.11.11,0,0,1,0-.17h0a1.8,1.8,0,0,0,0-.22h0a.08.08,0,0,1-.08,0c-.07-.09,0-.2.06-.35a.39.39,0,0,0,0-.15.07.07,0,0,1-.11,0c-.06,0,0-.11,0-.17h0l-.1-.06a.09.09,0,0,1,0-.09.2.2,0,0,1,.05-.09l0,0a.08.08,0,0,0,0-.05l-.1,0h0l-.06,0h-.11a1.45,1.45,0,0,0-1,.4l-.12.1a2,2,0,0,0-.51,1v.07s0,0,0,0q0,.25,0,.66l.05,0a.11.11,0,0,1,0,.13.56.56,0,0,1-.09.2v.17a.27.27,0,0,1,0,.12l0,.1v.4a.23.23,0,0,1,.09.08q.12.13-.09.45c0,.67,0,1.16-.06,1.46.05.07,0,.17,0,.29s0,.24-.08.33a1.46,1.46,0,0,1-1,1,.64.64,0,0,1-.33.17.14.14,0,0,1-.12-.06h-.37a1.4,1.4,0,0,1-1.2-.88.21.21,0,0,1-.08-.06.15.15,0,0,1,0-.13,2.68,2.68,0,0,1-.11-.49,3.22,3.22,0,0,1,0-.5.25.25,0,0,1,0-.16.12.12,0,0,1,0-.08s0,0,0,0a.22.22,0,0,1,0-.16.74.74,0,0,1,.07-.21v-.17h0a.25.25,0,0,1,0-.19.35.35,0,0,1,.06-.18v-.58q0-1.23,0-2.1c0-.22,0-.46,0-.72l0,0c0-.06,0-.13,0-.21l0-.47,0,0a.17.17,0,0,1,0-.14.43.43,0,0,1,.08-.21s0,0,0,0,0-.23.08-.42.07-.55.08-.7a1.53,1.53,0,0,1,.12-.49A1.61,1.61,0,0,1,28,5.77a.08.08,0,0,1,0-.08l0,0A1.53,1.53,0,0,1,29.29,5a.42.42,0,0,1,.24-.11.26.26,0,0,1,.13.08.09.09,0,0,1,0,.07l.18,0A.29.29,0,0,1,30.05,5a.18.18,0,0,1,.08.06.16.16,0,0,1,0,.12.26.26,0,0,1,.13.06,1.15,1.15,0,0,1,.33.29.09.09,0,0,1,.08,0,.12.12,0,0,1,0,.11,1.86,1.86,0,0,1,.1.2l.54-.35.1-.06.08,0a4.49,4.49,0,0,1,.89-.31l.08-.06a.11.11,0,0,1,.17,0l.35,0h.22l0,0a.11.11,0,0,1,.08,0,.19.19,0,0,1,.09,0s0,0,0,0a3.9,3.9,0,0,1,.8.25h.06a.11.11,0,0,1,.09,0,.16.16,0,0,1,0,.09l.16.12.07,0a.11.11,0,0,1,.12.15l.18.16,0,0s0,0,0,0l.14.15.1,0s.06,0,.08.06a.17.17,0,0,1,0,.18v.06a1,1,0,0,1,.08.11,4.14,4.14,0,0,1,.51.92h0s.07,0,.08,0a.13.13,0,0,1,0,.18l0,0c0,.08,0,.15.08.21l0,0a.07.07,0,0,1,0,.08V8l0,.09.06,0a.14.14,0,0,1,0,.18.45.45,0,0,1,0,.08s.07,0,.09,0,0,.13,0,.23a4.7,4.7,0,0,1,0,.76v.09l0,0q.09.1,0,.18h0c0,.32,0,.64,0,1h0a.16.16,0,0,1,.08.06q.08.09-.06.21l0,0c0,.23,0,.46,0,.68a.25.25,0,0,1,0,.17l0,0v.31l0,0c0,.06,0,.13,0,.22v.19ZM27.74,9.83c0,.11,0,.21,0,.31a2.62,2.62,0,0,1,.37-.41A.61.61,0,0,1,27.74,9.83Zm0,1.32L28,11a.26.26,0,0,1-.15,0h-.08Zm3.63-3.07c.87-.79,1.77-1.64,2.7-2.56a.24.24,0,0,1-.11-.06,7.73,7.73,0,0,1-1.69,1.4l-1,.89c-.78.64-1.82,1.45-3.13,2.43l-.25.18a.62.62,0,0,0-.12.27.3.3,0,0,0,0,.1h0Q28.39,10.77,31.35,8.08ZM27.76,9.17a3,3,0,0,1,0,.31c1.17-1,2.19-1.95,3.09-2.78l-3,2.43A.1.1,0,0,1,27.76,9.17Zm.1,2.39a.58.58,0,0,0-.12.27l.14-.09.23-.26A1,1,0,0,1,27.86,11.56Zm2.83-1.15v-.27l-1.42,1.21a12.75,12.75,0,0,0-1.47,1.43,10,10,0,0,1,.83-.7c.11-.09.26-.22.45-.4.54-.52.92-.86,1.14-1s.36-.25.43-.24ZM27.84,8c0,.1,0,.2,0,.31l.27-.28L29.33,6.8l-.95.78L27.91,8Zm0,6.09a.07.07,0,0,0,0,.06c.06-.06.15-.15.27-.25l.19-.19A3.34,3.34,0,0,1,27.84,14.12Zm.07-6.76a.58.58,0,0,0,0,.1l0,0L28.46,7c.21-.18.52-.47.95-.87s.69-.65.76-.7l-.2-.1-1,1A10.19,10.19,0,0,0,27.91,7.36Zm2.76,4.84v-.13a9.44,9.44,0,0,0-1.45,1.18c-.41.36-.83.76-1.27,1.2a1.59,1.59,0,0,0,.14.26l0,0c.47-.39.92-.8,1.38-1.23A11.4,11.4,0,0,0,30.67,12.2ZM28,6.43a.59.59,0,0,0,0,.14l.2-.18a.32.32,0,0,1-.16,0Zm.12,5.42a.21.21,0,0,0-.08.06L28,12ZM28,13.33l1.79-1.44a.71.71,0,0,0-.14.1A13.25,13.25,0,0,0,28,13.33Zm2.12-3.61L31,8.94c-.75.61-1.58,1.25-2.5,1.94l-.31.31A11.84,11.84,0,0,0,30.13,9.72ZM30.44,6l-.62.66L28.26,8.24l0,0c.53-.39,1.33-1.08,2.4-2.06l0-.12a1.08,1.08,0,0,0-.05-.21Zm-2,9,.23-.27a1,1,0,0,1-.43.21l.14.12Zm.33-9.56c-.19.21-.36.41-.51.61.09-.1.24-.24.43-.45s.19-.19.25-.25l-.13,0A.07.07,0,0,1,28.79,5.4Zm3.71.06L32,6c-.41.38-1,.9-1.7,1.55S29,8.67,28.34,9.29c.52-.36,1.3-1,2.35-1.93C31.42,6.73,32.18,6,33,5.29a2,2,0,0,0-.36,0Zm-1.85,7.81c0-.09,0-.19,0-.31-.87.88-1.48,1.53-1.84,1.94l.39-.33c.22-.19.53-.49,1-.89A2.22,2.22,0,0,1,30.65,13.27Zm-1.8,1.9s0,0,0,0S28.85,15.19,28.85,15.17Zm.44-9.85c-.09.08-.22.22-.4.41l0,0A5.8,5.8,0,0,0,29.29,5.32Zm.12,9.87.1-.07a.47.47,0,0,0-.12.09h0Zm1.34-5.46a.77.77,0,0,1,0-.15l-.51.39a3.22,3.22,0,0,1-.25.23A3,3,0,0,1,30.75,9.73Zm-.08,2.88v0l-.15.16Zm-.06,1.15s0,0,0,0l-.09.09s0,0,0,0Zm.26-7.39-.06,0,1.11-.89a1.73,1.73,0,0,0-.31.14l0,0-.18.16Zm1.53,0-.66.55.35-.25C32.19,6.56,32.3,6.46,32.4,6.37Zm-.08,1.15c.39-.34.72-.63,1-.89a7.58,7.58,0,0,0,.66-.7c-.58.57-1.15,1.11-1.7,1.63C32.28,7.56,32.3,7.55,32.32,7.52Zm.3.52a.67.67,0,0,1,.15-.19l-.27.21.08,0Zm.58-2.62-.22.2.16-.1S33.18,5.45,33.2,5.42Zm-.1,2.84.12-.1.37-.35a13.22,13.22,0,0,1,1.3-1.16l.17-.22c-.11.11-.34.31-.68.6A14.52,14.52,0,0,1,33,8.18Zm.62-1-.52.46C33.34,7.64,33.52,7.48,33.72,7.29Zm-.39-1.62c0,.06-.07.11-.11.18l.39-.33Zm-.07,3.07a.31.31,0,0,1,0,.08l.79-.7c.36-.3.62-.51.76-.64Zm.09-1.69-.05,0,0,0Zm0,6.84V14a2,2,0,0,0,.55-.39l.27-.25a2.85,2.85,0,0,1-.82.54Zm.76-5.17c-.35.29-.59.48-.74.59l0,0v.07C33.6,9.19,33.84,9,34.07,8.72Zm-.46,1a1,1,0,0,1-.24.13.13.13,0,0,0,0,.08Zm-.24,4.54s0,0,0,0l0,0Zm0-1.61v.17l.06-.05c.17-.16.49-.43.95-.82s1-.8,1.19-1,.48-.5.48-.6c-.17,0-.63.31-1.38,1Zm0-2.08.2-.16-.14.1s0,0-.06,0Zm0,1.44v.25l.91-.93a1.45,1.45,0,0,0,.18-.16l.85-.87C34.82,10.74,34.17,11.31,33.43,12Zm0-1a6.77,6.77,0,0,1,.49-.53l-.49.39Zm.06.5,0,0v0A.15.15,0,0,0,33.49,11.52Zm.1,3.13a.3.3,0,0,1,0-.1.22.22,0,0,1-.1,0A.21.21,0,0,0,33.59,14.65Zm.87-4.33a1.89,1.89,0,0,0,.2-.2c-.19.17-.34.32-.47.45a7.84,7.84,0,0,0-.56.6C33.77,11,34.05,10.76,34.46,10.32Zm-.83,4a5.45,5.45,0,0,0,.54-.41q.31-.27,1-.93c.47-.45.76-.72.87-.8V12.1a11.68,11.68,0,0,1-1.06,1l-1,.81A2.5,2.5,0,0,0,33.63,14.3Zm2.44-3.07,0-.06v0l-.42.35c-.72.59-1.24,1-1.58,1.32l-.35.31,1.19-.91A2.14,2.14,0,0,0,35.2,12l.1-.08A4.31,4.31,0,0,1,36.07,11.23Zm-2.15,3.69.07-.06a.34.34,0,0,1-.15,0,.09.09,0,0,0,.06.06A0,0,0,0,1,33.92,14.92Zm2.13-2.31,0,.06-.8.72c-.74.66-1.19,1.08-1.34,1.26a6.6,6.6,0,0,0,1.22-1c.31-.3.64-.62,1-1Zm-1.71,2.54,1.17-1.32c-.25.24-.58.53-1,.9l-.39.35A.58.58,0,0,0,34.34,15.15Zm.33-9.22a2.2,2.2,0,0,1-.23.25L34.71,6ZM36,8.14q-.66.51-1.23,1Zm-.9,7a3,3,0,0,1,.33-.48l0,0,0,0c-.25.22-.45.38-.59.48a.67.67,0,0,0,.24,0A.18.18,0,0,0,35.08,15.13Zm-.11-9,0,0,0,0Zm.58.83a2,2,0,0,1-.47.57l.47-.41.08,0Zm.17.35a.88.88,0,0,1-.07.12,3.54,3.54,0,0,1-.28.29,2.32,2.32,0,0,1-.27.29l.66-.6A.3.3,0,0,0,35.72,7.36Zm.33,6.43a.86.86,0,0,0,0-.23l-.73.84.71-.59Zm-.15-6,0,0v0l-.16.14Zm.19,1-.33.31A.58.58,0,0,1,36,9a.15.15,0,0,1,.1,0A.86.86,0,0,0,36.09,8.8Zm-.27,5.77a.37.37,0,0,0,.08-.15l-.06.07-.06.1Zm0-4.91a1.43,1.43,0,0,1,.33-.22v0l0,0A3,3,0,0,0,35.8,9.66Zm.08-1.07.17-.14,0,0Zm.23,1.49V9.89l-.21.21a.35.35,0,0,1,.17,0Zm0,.7v0a.75.75,0,0,1-.15.16l.11-.08,0,0Z"/><path class="a" d="M44.43,4.53c0,.06,0,.14-.08.23l0,0a1.39,1.39,0,0,1-.1.53.07.07,0,0,1,0,.07,1.34,1.34,0,0,1-.56.66,1.53,1.53,0,0,1-.86.26H42v.91a.15.15,0,0,1,.09.06c.06.05,0,.1,0,.15v0l0,0c0,.32,0,.71,0,1.15a.09.09,0,0,1,0,.07c0,.2,0,.46,0,.8,0,1.84.08,3.06.09,3.65,0,0,0,0,0,0a.1.1,0,0,1,0,.16l0,.06v0h0a1.47,1.47,0,0,1,0,.32,0,0,0,0,1,0,.07.58.58,0,0,1,0,.19.75.75,0,0,1,0,.16h0a.13.13,0,0,1,0,.18.1.1,0,0,0,0,0,1.51,1.51,0,0,1-.6.74,1.59,1.59,0,0,1-.92.29h0A1.58,1.58,0,0,1,39.41,15a.11.11,0,0,1-.09,0,.15.15,0,0,1,0-.1,1.32,1.32,0,0,1-.29-.5h0a.21.21,0,0,1-.1-.06.16.16,0,0,1,0-.15.24.24,0,0,1,.06-.14s0,0,0,0-.07-.1,0-.15,0,0,0,0v-.31c0-.3,0-.68,0-1.15a.23.23,0,0,1,0-.25c0-.38,0-1-.08-1.81,0-1-.06-1.7-.06-2.14l0,0a.34.34,0,0,1,0-.17,1.42,1.42,0,0,1,0-.16V6.3H37.9a1.57,1.57,0,0,1-1-.37l0,0a1.58,1.58,0,0,1-.43-.6.3.3,0,0,1,0-.1L36.36,5l0,0c-.06,0,0-.13,0-.24A1.56,1.56,0,0,1,37.9,3.19h.66l.17-.12V2.84a.09.09,0,0,1-.07,0s0-.14.07-.25V2.2a1.83,1.83,0,0,1,.33-.94A1.57,1.57,0,0,1,39.82.7l0,0a.18.18,0,0,1,.1,0l.06,0a1.66,1.66,0,0,1,.33,0h0a1.63,1.63,0,0,1,1,.37.38.38,0,0,1,.13,0,.12.12,0,0,1,.1.06.12.12,0,0,1,0,.18,1.42,1.42,0,0,1,.27.48h0a.12.12,0,0,1,.1.06c0,.05,0,.13,0,.22s0,.2,0,.31v.95h.17a.25.25,0,0,1,.18,0,.17.17,0,0,1,.11,0h.27a1.54,1.54,0,0,1,1.17.5h0l.1.06a.17.17,0,0,1,0,.12.1.1,0,0,0,0,.06.07.07,0,0,1,.07,0,.09.09,0,0,1,0,.13.3.3,0,0,1,0,.08h0a.14.14,0,0,1,.12.06.22.22,0,0,1,0,.25Zm-7.66.27v0l-.13.12v0Zm.66-1.24-.6.83q.12-.1.33-.33l.6-.58A1.32,1.32,0,0,0,37.43,3.56Zm-.58,1.55A11,11,0,0,0,39,3.46H38.6l-.43.33-.82.7L37,5A.45.45,0,0,0,36.85,5.11Zm0,.39a.87.87,0,0,1,.12.14c.57-.5,1.13-1,1.69-1.5A11.49,11.49,0,0,1,36.87,5.5Zm.52.39a1.72,1.72,0,0,0,.22-.2l.68-.62c1.16-1.06,2-1.84,2.54-2.35L39.55,3.87a27.6,27.6,0,0,1-2.29,2l.11.06Zm.3.06A6.28,6.28,0,0,0,39.4,4.68C40.21,4,41,3.18,41.73,2.39c0,0,0,0,0,0a.62.62,0,0,1,0-.13V2.18a.3.3,0,0,0-.08.08l-.92.87c-.47.45-1.24,1.16-2.29,2.12C38.06,5.61,37.8,5.84,37.69,6Zm1.24,0q1.92-1.69,2.64-2.49a34.48,34.48,0,0,0-3,2.54h.33Zm.81-4.06c-.23.22-.48.46-.73.73V2.8l0,.06,0,0,.08-.1L39.84,2c.18-.19.38-.4.58-.64ZM39,3.27v.17c.38-.35.79-.73,1.2-1.15a4.65,4.65,0,0,1-.52.37c-.22.2-.44.39-.64.59Zm.09,2.95H39V6.3l0,0ZM39,6.63v0l.17-.17a.21.21,0,0,1,.06-.08Zm0-4.39.11-.14L39,2.2v0Zm.13,5-.1,0,0,.12A.44.44,0,0,1,39.16,7.21ZM39,7.73v.06l.17-.13-.14,0Zm0,.57a.44.44,0,0,0,0,.15l.42-.39A1.12,1.12,0,0,1,39,8.3Zm0,.44v.08l.11-.13,0,0A.09.09,0,0,1,39.05,8.74Zm0,.65v0l.24-.27c.23-.23.56-.55,1-1l1.07-.95a9,9,0,0,0-1,.87c-.43.42-.83.82-1.21,1.23Zm0,.5V10l.2-.23-.18.15Zm0,.58a2.58,2.58,0,0,1,0,.35c.48-.4.92-.77,1.3-1.12a5.77,5.77,0,0,0,1.36-1.5A23.13,23.13,0,0,0,39.1,10.47Zm0,.68a.94.94,0,0,1,0,.22l1.71-1.65L40.5,10A16.83,16.83,0,0,1,39.12,11.15Zm0,1v.22l1.67-1.68C40.33,11.16,39.77,11.64,39.16,12.2Zm0,1.13v.15a.65.65,0,0,0,.12-.11c1.27-1.17,2.06-1.95,2.39-2.33a2,2,0,0,0-.35.27c-.17.15-.45.44-.84.85A4.67,4.67,0,0,1,39.18,13.33Zm.12,1c.06-.07.15-.16.25-.29l.85-.9-1.16,1A.44.44,0,0,0,39.3,14.3Zm.7-1.94a5.6,5.6,0,0,0-.74.68A8.59,8.59,0,0,0,40,12.36Zm-.61-5A15.08,15.08,0,0,0,42,5.15c-.74.57-1.33,1-1.77,1.42S39.61,7.1,39.39,7.31Zm1.33,3.94c.62-.65,1-1,1.12-1v-.18l-2.35,2.35a1.46,1.46,0,0,0,.25-.21C39.94,12.05,40.26,11.73,40.72,11.25Zm-.63-5.11c-.2.18-.38.34-.52.49a2,2,0,0,0,.19-.16ZM39.92,1a5.06,5.06,0,0,0-.33.39l.66-.54L40,.93S40,1,39.92,1ZM39.76,14.9l.1-.15-.15.11Zm2-7.19-1.16,1c-.25.22-.46.42-.64.61l.25-.24A9.38,9.38,0,0,1,41.78,8Zm0,1.83a.88.88,0,0,0-.15.14l-1.44,1.24a2,2,0,0,0-.21.19l.27-.23a11.78,11.78,0,0,1,1.53-1.2Zm-.93,4.7c.27-.26.61-.57,1-.93v-.08A10.71,10.71,0,0,1,41,14a4.66,4.66,0,0,0-1,1,6.55,6.55,0,0,0,.58-.43Zm1-2.21c-.71.67-1.31,1.27-1.81,1.78l1.83-1.47C41.9,12.25,41.89,12.14,41.88,12ZM40.39,8.45c.68-.57,1.14-.94,1.37-1.1V7.21c-.59.52-1.13,1-1.61,1.44ZM41,1v0l-.72.76c.37-.31.66-.54.85-.68Zm-.49,14a5.4,5.4,0,0,0,.53-.51,3.65,3.65,0,0,1-.32.26A3.1,3.1,0,0,0,40.54,15Zm0-2.43.82-.6c.12-.1.22-.2.29-.27Q41.36,11.91,40.58,12.55Zm.21,2.57a.21.21,0,0,0,0-.06l-.08.07ZM42.17,3.5a13,13,0,0,0-1.32,1.24A17.09,17.09,0,0,0,42.17,3.5Zm-.39,5.75,0,0c0-.08,0-.13,0-.16l-.17.18-.72.74ZM41,5.64c.39-.32.9-.71,1.53-1.19l.9-.7.07-.08,0,0-.78.58-.88.64c-.11.12-.29.29-.54.52A2.11,2.11,0,0,1,41,5.64Zm1.47-1.77c-.59.5-1.07.92-1.43,1.24l.58-.45C41.94,4.33,42.22,4.06,42.44,3.87Zm-.69,3h0a1.77,1.77,0,0,1,0-.23l-.55.46A1.16,1.16,0,0,1,41.75,6.82Zm-.3-5L41.36,2a2.86,2.86,0,0,1,.29-.21.21.21,0,0,0-.06-.1A.66.66,0,0,1,41.45,1.85Zm.41,9.34-.15.2a.29.29,0,0,1,.15-.06Zm.9-7.57a.4.4,0,0,0-.12.07l.29-.21h0l-.06.06Zm-.08,2.15A13.28,13.28,0,0,0,44,4.53c-.18.14-.53.46-1,1A3.47,3.47,0,0,1,42.68,5.77ZM43,6a.72.72,0,0,1,.09-.24,2.64,2.64,0,0,1-.29.25Zm.54-2.08s0,0,0,0a.42.42,0,0,1,.16-.12,0,0,0,0,0,0,0S43.62,3.89,43.57,3.93Zm.37,1.34A.53.53,0,0,0,44,5.13l-.47.51.14-.12Z"/><path class="a" d="M53.22,9a.65.65,0,0,1-.13.27V9.5a.17.17,0,0,1,.06.06q.09.09-.06.33c0,1.54,0,2.6,0,3.17a.13.13,0,0,1,0,.15c0,.13,0,.24,0,.33a1.8,1.8,0,0,1-.49,1.38,1.77,1.77,0,0,1-.83.47l-.06,0a.13.13,0,0,1-.08,0h0a.14.14,0,0,1-.07-.06h-.12a2.46,2.46,0,0,1-.37,0,0,0,0,0,1,0,0l0,0c-.05.05-.1,0-.15,0s-.06-.06,0-.1a1.3,1.3,0,0,1-.29-.14.12.12,0,0,1-.08-.05,1.38,1.38,0,0,1-.31-.28,1.41,1.41,0,0,1-.35-.66.85.85,0,0,1,0-.17.09.09,0,0,1-.06-.06.15.15,0,0,1,0-.21,1.5,1.5,0,0,0,0-.22v0a.22.22,0,0,1-.06-.17.53.53,0,0,1,.06-.14q0-.87,0-2.43a.14.14,0,0,1,0-.09c0-.86,0-1.49,0-1.89v0a.79.79,0,0,0-.06-.4h0l-.08-.06a.18.18,0,0,1,0-.1l-.11,0h-.06l-.54.43v0a.13.13,0,0,1,0,.09h0A2.93,2.93,0,0,0,48.43,10v.6a0,0,0,0,0,0,0,.11.11,0,0,1,0,.1.3.3,0,0,1,0,.11.12.12,0,0,1,.08,0,.54.54,0,0,1,.05.21.8.8,0,0,1-.15.32c0,.16,0,.37,0,.62a.14.14,0,0,1,0,.09v0h0v.14a.1.1,0,0,1,.09,0,.18.18,0,0,1,0,.17.65.65,0,0,1-.13.29c0,.34,0,.58,0,.72a.28.28,0,0,1,0,.18.88.88,0,0,1,0,.17c0,.07,0,.18-.08.35a2.1,2.1,0,0,1-.21.55,1.66,1.66,0,0,1-.62.64,1.7,1.7,0,0,1-.86.23l-.23,0a1.54,1.54,0,0,1-1-.56.12.12,0,0,1-.18,0,.23.23,0,0,1,0-.22.17.17,0,0,1,0-.07,1.76,1.76,0,0,1-.09-.2.27.27,0,0,1-.16-.08.11.11,0,0,1,0-.08.26.26,0,0,1,0-.09.15.15,0,0,1,.06,0,1.7,1.7,0,0,1-.06-.35l-.08-.06a.21.21,0,0,1,0-.17.84.84,0,0,1,.08-.2.11.11,0,0,1,0-.11,1.72,1.72,0,0,0,0-.31.18.18,0,0,1-.08-.06.1.1,0,0,1,0-.09.18.18,0,0,1,0-.09l0,0c0-.72-.06-1.45-.07-2.17a.05.05,0,0,1-.06,0,.13.13,0,0,1,0-.18l.06-.05V9.64a.32.32,0,0,1-.06-.27.56.56,0,0,1,.08-.2c0-.18,0-.37,0-.56,0,0,0,0,0,0s-.06-.18,0-.29a1.15,1.15,0,0,0,0-.29l0,0a.12.12,0,0,1,0-.18l0,0s0-.15,0-.29h0a.21.21,0,0,1,0-.17.31.31,0,0,1,.08-.18,1.66,1.66,0,0,0,0-.27.12.12,0,0,1,0-.1.21.21,0,0,1,0-.11V6.6a.29.29,0,0,1,0-.09c0-.14,0-.32,0-.52l-.06,0c-.06-.08,0-.19.1-.33,0-.29.08-.6.12-.94a.07.07,0,0,1,0-.09c0-.27.09-.67.15-1.19a.26.26,0,0,1,0-.07.25.25,0,0,0,0-.08s0,0-.08,0,0-.27.16-.49c0-.1,0-.19,0-.27a.12.12,0,0,1,0-.08V2.31a.37.37,0,0,0,0-.09,3.32,3.32,0,0,1,.13-.55,1.18,1.18,0,0,1,.16-.29.08.08,0,0,1,0-.08v0A1.47,1.47,0,0,1,47.05.62a2.6,2.6,0,0,1,.37,0,.1.1,0,0,0,.07,0h0a.1.1,0,0,1,.16,0s0,0,0,.06a2,2,0,0,1,.41.25.19.19,0,0,1,.15.08.19.19,0,0,1,0,.12v0a1.61,1.61,0,0,1,.31,1.1c0,.28,0,.66-.06,1.17l0,0a.21.21,0,0,1,0,.17.27.27,0,0,1,0,.14,0,0,0,0,1,0,0,.29.29,0,0,1,.06.19.65.65,0,0,1-.16.29v.51l.06,0c.07.08,0,.18-.07.31v.1a.53.53,0,0,1,.25-.12l.06,0a3.48,3.48,0,0,1,.83-.18.43.43,0,0,1,.14,0,.13.13,0,0,1,.07,0H50a3.68,3.68,0,0,1,.66.06A.3.3,0,0,1,50.78,5a.1.1,0,0,1,.07,0,.13.13,0,0,1,0,.06,3.19,3.19,0,0,1,1.19.54s0,0,.06,0l0,0a1.83,1.83,0,0,1,.13.16,3.53,3.53,0,0,1,.78,2.27v.56l.08,0A.31.31,0,0,1,53.22,9ZM45,9.23s0,0,0,0v0l2.41-2c1.29-1.08,2.12-1.75,2.48-2l-.13,0-.45.31c-.3.24-.87.73-1.71,1.45a25.81,25.81,0,0,1-2.56,2.1S45,9.2,45,9.23Zm0,.39v0l2.68-2.22,2-1.63L50,5.6a.34.34,0,0,0,.06-.12C49.39,6,47.7,7.36,45,9.62ZM45,10v.15l.89-.79Zm0,.48v.18a2,2,0,0,1,.21-.26c.13-.14.29-.3.49-.48Zm0,.84a2.16,2.16,0,0,1,.43-.37,1,1,0,0,1-.45.19C45,11.22,45,11.28,45,11.31Zm0-2.74a.9.9,0,0,0,0,.21,7.16,7.16,0,0,1,.56-.58c.42-.4,1-.87,1.69-1.42.25-.19.51-.39.78-.58a3.56,3.56,0,0,0,.52-.62s0,0,0,0l-.09,0-.1.06c-.26.21-.73.62-1.42,1.25A22.82,22.82,0,0,1,45.05,8.57Zm0,3.73v.31c.55-.43,1.06-.84,1.51-1.22a10.27,10.27,0,0,0,1.48-1.5l-.43.43c-.66.67-1.19,1.17-1.58,1.5a1.76,1.76,0,0,1-.89.5h0Zm0-4.76,0,0A.05.05,0,0,0,45.09,7.54Zm0,5.46c0,.08,0,.12,0,.13l.29-.29a1.92,1.92,0,0,1,.17-.19A5.21,5.21,0,0,1,45.09,13Zm0-5.77a8.18,8.18,0,0,0,.73-.66l-.19.15-.12.1A5.68,5.68,0,0,0,45.11,7.23Zm0,6.43a7.53,7.53,0,0,0,1.67-1.3c.35-.33.73-.69,1.13-1.09l-.72.54-.29.2s0,0,0,0a9.73,9.73,0,0,1-1.78,1.51s0,0,0,0Zm3.11-4.22a1.28,1.28,0,0,1,.08-.35L48,9.37a31.38,31.38,0,0,1-2.58,2.25c-.21.23-.31.39-.3.46s.42-.18.92-.6c.29-.27.75-.72,1.38-1.34A3.85,3.85,0,0,1,48.25,9.44Zm-3.07,4.65c.56-.44,1.06-.87,1.52-1.27A14.8,14.8,0,0,0,48,11.56l-1,.93a7.28,7.28,0,0,1-1.87,1.42A1,1,0,0,0,45.18,14.09Zm.37-7.7c-.18.15-.3.26-.37.33a1.19,1.19,0,0,0,.33-.19l.22-.19.06,0L46,6.08A4.64,4.64,0,0,1,45.55,6.39Zm-.11,4.88-.26.23.1-.08Zm5.73-5.79a.71.71,0,0,1-.16.18L50.64,6,49.38,7.05c-1.3,1.09-2.23,1.89-2.8,2.39A13.47,13.47,0,0,0,45.2,10.8c.22-.14.6-.44,1.15-.89s1.24-1.06,2.35-2c1.53-1.36,2.43-2.12,2.7-2.29Zm-5.93.33,0,.1a2.71,2.71,0,0,1,.24-.25q.4-.44,1.14-1.11a.21.21,0,0,1,.08-.06l-.35.29C46,5.11,45.6,5.45,45.24,5.81ZM47,5c.44-.41.89-.85,1.36-1.32a2.83,2.83,0,0,0,0-.3,20.63,20.63,0,0,0-3,2.92l.14-.08c.18-.14.48-.38.91-.7l.21-.16ZM45.36,4.8s0,.09,0,.1l.12-.14Zm.1-.82c0,.11,0,.21,0,.32l.33-.3c.68-.6,1.19-1.06,1.51-1.38a5.15,5.15,0,0,0,.84-.93,2.48,2.48,0,0,0-.63.41l-.17.14q-.27.22-.6.54c-.43.39-.84.78-1.23,1.19Zm2.27,1.54L48.27,5V4.9l-2.8,2.62c.19-.13.39-.29.63-.49S47,6.21,47.73,5.52Zm-2.26,9.13,2.7-2.18v-.11l-.64.46c-.2.2-.46.42-.75.66l-.33.3a8.81,8.81,0,0,1-1,.85A0,0,0,0,0,45.47,14.65Zm2.84-12.3c-.09.09-.25.25-.49.47-.38.38-.72.69-1,.93l-.6.58c-.33.34-.57.59-.72.76l.2-.13.89-.8c.58-.52,1.17-1,1.77-1.52a0,0,0,0,1,0,0,3,3,0,0,1,0-.31v0ZM45.61,15a7.1,7.1,0,0,1,1.22-1.11c.5-.39.84-.66,1-.83L45.55,14.9A.21.21,0,0,0,45.61,15Zm0-11.89L45.71,3Zm.37,12.14a.62.62,0,0,1,.18-.25l-.26.19A.21.21,0,0,0,45.94,15.23ZM48.31,1.79A14.9,14.9,0,0,1,45.9,4.2l0,0,.7-.58a.31.31,0,0,1,.1-.08c.25-.25.54-.53.89-.84l.12-.1.45-.44L48.37,2A.49.49,0,0,0,48.31,1.79Zm-1.44-.16c-.45.39-.77.68-.95.86L46.47,2c.76-.62,1.18-1,1.26-1A.35.35,0,0,1,47.59,1a.54.54,0,0,1-.13.14C47.37,1.2,47.17,1.38,46.87,1.63Zm-.4,13.6.05-.06-.23.18,0,0a1.33,1.33,0,0,1,.12-.12ZM47.16.88l-.54.52.62-.52Zm.92,13.24a.39.39,0,0,1-.1.08c-.23.22-.6.55-1.09,1a2,2,0,0,0-.25.24,1.55,1.55,0,0,0,.47-.08s0-.05,0-.06A8.31,8.31,0,0,0,48.08,14.12Zm.09-3.51v-.2L46.7,11.89l.08-.06A8.36,8.36,0,0,1,48.17,10.61Zm1.19-2.76c.34-.27.63-.52.89-.74a11,11,0,0,0,1-1,1.46,1.46,0,0,0,.26-.35c-.28.17-1.16.92-2.67,2.25-1,.89-1.69,1.51-2.11,1.87l.52-.41c.6-.45,1-.8,1.34-1.05a1.12,1.12,0,0,1,.64-.5l0,0,0,0Zm-2.47-2,.62-.58-.11.09ZM48,1.32a8.28,8.28,0,0,0-.74.66l.1-.07A7.32,7.32,0,0,0,48,1.32Zm0,3.25c.13-.12.23-.22.31-.31v0c-.14.14-.33.31-.56.5a1.26,1.26,0,0,0-.2.2A2.78,2.78,0,0,1,48,4.57Zm.19,9v-.08a4.6,4.6,0,0,1-.44.43Zm0-8,.08-.08Zm2.55-.2L49.51,6.45c-.16.16-.36.33-.6.53l-.21.19L50.89,5.4Zm-1.81.08a1.11,1.11,0,0,1-.07.22l.33-.24,0-.06Zm.94,2.76,0,.08.1-.12.41-.41,0,0Zm0,4.12v.25a30.26,30.26,0,0,0,2.94-2.76V9.73l-.2.12c-.34.35-.66.67-1,1a13.79,13.79,0,0,1-1.09.92C50.19,12.12,50,12.32,49.9,12.32Zm1-2.45-1,.89a.07.07,0,0,1,0,.06Zm-.7,1.07.45-.41-.68.58a.11.11,0,0,1-.08,0v.1h0A3.9,3.9,0,0,1,50.21,10.94ZM50,11.6h0l-.1,0v.12Zm-.12,1.67v0A6.82,6.82,0,0,0,51,12.26l-.7.56A3,3,0,0,0,49.9,13.27Zm0-.45v.06a.16.16,0,0,0,.08-.06A.06.06,0,0,1,49.9,12.82Zm.2-3.07a.41.41,0,0,1-.16,0h0v.12Zm.41-1.1a2.38,2.38,0,0,1-.57.48v.29c1.32-1.23,2.14-2,2.45-2.42a3,3,0,0,0-.72.52l-.06.06c-.13.12-.28.25-.44.41S50.79,8.36,50.51,8.65Zm-.57-.1a.79.79,0,0,1,0,.23l.12-.11c.1-.11.3-.29.58-.55L51,7.79l.41-.39a3.44,3.44,0,0,0,.27-.27L51.85,7c-.5.4-1.11.91-1.85,1.53ZM50,14.14c.45-.4.87-.79,1.26-1.16l.14-.12A7.55,7.55,0,0,1,50,14a1,1,0,0,0,0,.13Zm2.25-4.7.57-.54v0l-.37.37-1.17,1-1.07,1a3.79,3.79,0,0,0,.68-.51C51.21,10.47,51.66,10,52.27,9.44ZM51,12.94l-.7.56c.15-.1.32-.24.53-.41Zm-.6,1.65a11.81,11.81,0,0,0,1-.91,5.76,5.76,0,0,1,1.48-1.25V12.2l-.64.55-.16.17c-.63.63-1.08,1.06-1.34,1.28A2.2,2.2,0,0,0,50.37,14.59Zm.1.23h0l0,0Zm1.4-.52a5.46,5.46,0,0,0,1-1.11,1.88,1.88,0,0,0-.51.37q-.27.24-.87.84l-.68.64.21.08C51.31,14.83,51.61,14.56,51.87,14.3Zm-1-2.27.37-.29c.53-.42.9-.71,1.09-.88l.23-.23C52.24,10.91,51.68,11.38,50.91,12Zm.37.31-.13.13c.45-.37.79-.66,1-.87a4.2,4.2,0,0,0,.6-.62,1.56,1.56,0,0,0-.53.37C52.06,11.52,51.74,11.85,51.28,12.34Zm.61,2.52c.28-.31.49-.54.62-.7l-1.21,1h.12a.47.47,0,0,0,.17,0s0,0,0,0Zm.62-7.3c-.16.13-.47.43-.94.89l.6-.53C52.31,7.78,52.43,7.66,52.51,7.56Zm.31.21a.88.88,0,0,0,0-.17,9,9,0,0,1-1.17,1.14l1.17-1S52.8,7.77,52.82,7.77Zm-1-2a1.17,1.17,0,0,1-.14.27.77.77,0,0,0,.12-.13.31.31,0,0,1,.1-.08A.16.16,0,0,1,51.79,5.77Zm.31.66-.27.27a2.2,2.2,0,0,1,.48-.35.19.19,0,0,0-.06-.07v0Zm.48,6.41-.68.62A8.4,8.4,0,0,0,52.58,12.84ZM52.1,6l0,0h0Zm.35.53a.85.85,0,0,1-.08.17l.12,0h0A1.09,1.09,0,0,1,52.45,6.57Zm.25.64c0-.07,0-.12,0-.18l-.23.3A.42.42,0,0,1,52.7,7.21Zm0,2.16-.21.21a.05.05,0,0,1,0,0Zm.14-.9V8.39l-.26.26A1.34,1.34,0,0,1,52.84,8.47Zm0,3.25a2.4,2.4,0,0,1-.24.31,1.61,1.61,0,0,1,.24-.18Zm0,1.92v0Z"/><path class="a" d="M58,8.76s0,0,0,0,0,0,0,0v.33l0,0c.06.07,0,.15,0,.25,0,.37,0,.76,0,1.17a.09.09,0,0,1,.07,0,.24.24,0,0,1,0,.19.67.67,0,0,1-.13.25v.39a.13.13,0,0,1,0,.18h0v.7c0,.35,0,.76-.06,1.24a.23.23,0,0,1,0,.25,1.41,1.41,0,0,1-.12.47.17.17,0,0,1,0,.14h0a1.65,1.65,0,0,1-.43.6,1.44,1.44,0,0,1-.64.32.33.33,0,0,1-.13.06h0l0,0h-.17a2.59,2.59,0,0,1-.41,0s0,0,0,0h0l-.09,0-.09-.05a.12.12,0,0,1,0-.1,1.62,1.62,0,0,1-.54-.41l0,0a.08.08,0,0,1-.09,0,.1.1,0,0,1-.08-.05c-.06-.06-.05-.14,0-.23a.3.3,0,0,1,0-.08l0,0a.11.11,0,0,1,0-.09c0-.1-.07-.19-.1-.28s0,0,0,0a.15.15,0,0,1,0-.15.44.44,0,0,1,0-.1c0-.15,0-.32,0-.48a.17.17,0,0,1,0-.14V13a.09.09,0,0,1-.07,0q-.11-.13.09-.39v-.8c0-.9,0-1.54.06-1.9l0,0c0-.06,0-.14,0-.23,0-.53,0-1,0-1.38,0,0,0,0,0,0s0-.15.06-.25v-.1l-.08,0a.29.29,0,0,1-.06-.19.7.7,0,0,1,.14-.27V7.27a.21.21,0,0,1,0-.2V6.86l0,0a.24.24,0,0,1-.06-.19.55.55,0,0,1,.08-.18v0a.19.19,0,0,1-.06-.17.91.91,0,0,1,.08-.2V5.93a.11.11,0,0,1,0-.08V5.79a2.92,2.92,0,0,1,0-.33.12.12,0,0,1,0-.14c0-.5,0-.86,0-1.08a2.64,2.64,0,0,0,0-.29s0,0,0,0,0-.16,0-.28,0-.25,0-.4a.09.09,0,0,1,0-.16l0,0c0-.18,0-.39,0-.62a.11.11,0,0,1,0-.06c0-.06,0-.14,0-.23a.05.05,0,0,0,0,0c0-.07,0-.17.08-.31a.08.08,0,0,1,0,0,1.64,1.64,0,0,1,.14-.33.11.11,0,0,1,0-.14s0,0,0,0l0,0A1.44,1.44,0,0,1,56,.72l0,0a1.62,1.62,0,0,1,.49-.08h.13a1.52,1.52,0,0,1,.8.31l.14,0,.13,0a.28.28,0,0,1,0,.28A1.48,1.48,0,0,1,58,2.29c0,.15,0,.31,0,.49a.09.09,0,0,1,.08,0,.21.21,0,0,1,0,.14.54.54,0,0,1-.14.23v.6l0,0a.25.25,0,0,1,0,.16A.69.69,0,0,1,58,4.1v.45a.09.09,0,0,1,.06,0,.15.15,0,0,1,0,.13A.38.38,0,0,1,58,4.9.54.54,0,0,1,58,5a.31.31,0,0,1,0,.09.1.1,0,0,1,0,.14c0,.37,0,.67,0,.89v.39c.09.1.09.24,0,.41v.66a.21.21,0,0,1,.08.06c0,.06,0,.14-.06.23l0,0v.7a.05.05,0,0,1,.06,0C58.11,8.66,58.11,8.71,58,8.76ZM54.88,13c.07-.08.24-.23.48-.45.51-.45.9-.81,1.19-1.09l-1.67,1.36V13Zm0-1.13V12a29.11,29.11,0,0,0,2.81-2.56,3.57,3.57,0,0,0-.6.44c-.25.22-.64.59-1.18,1.11A7.52,7.52,0,0,1,54.9,11.87Zm0-.52a.32.32,0,0,0,0,.13l.31-.31,0,0A1.07,1.07,0,0,1,54.92,11.35Zm0,2.52.13-.11a.08.08,0,0,1-.06,0Zm0-4.12v.18l.24-.25c.26-.26.61-.61,1.07-1l.07-.08Zm0-.58v.18c.13-.12.39-.33.78-.65.7-.56,1.19-1,1.48-1.26a3,3,0,0,0,.48-.5ZM55,8.1v.26l.26-.26,1-1Zm2.78.53v-.1l-.39.31c-.71.58-1.24,1-1.59,1.34A4.46,4.46,0,0,0,55,11c.18-.13.64-.53,1.38-1.21A16.39,16.39,0,0,1,57.75,8.63ZM55,7.42v0c.21-.15.63-.52,1.27-1.1-.38.28-.66.51-.86.69A3.19,3.19,0,0,0,55,7.42Zm0-.89c.3-.21.85-.65,1.65-1.34l0,0c-.58.43-1,.73-1.2.91A3.86,3.86,0,0,0,55,6.53Zm0-1.63v.17l.53-.48a22.73,22.73,0,0,0,2.06-2,5.3,5.3,0,0,0-1.37,1c-.42.42-.82.82-1.18,1.21Zm.1-1.63,0,.09L56,2.61A14.31,14.31,0,0,0,57.4,1.25a14.8,14.8,0,0,0-1.13,1A9.44,9.44,0,0,1,55.15,3.27ZM56,5c.52-.42,1.08-.9,1.67-1.41a.13.13,0,0,1,.1,0v-.1c-.18.17-.53.46-1,.88s-1,.77-1.18,1a2.35,2.35,0,0,0-.39.4l.1-.07Zm.57-.11-.41.31c-.31.26-.56.46-.76.6a2.51,2.51,0,0,1-.25.23C55.43,5.8,55.9,5.42,56.55,4.88Zm1.16-3.09L57.5,2l-.74.64a14.37,14.37,0,0,0-1.61,1.5,2.72,2.72,0,0,0,.62-.45c.17-.13.37-.29.6-.5A1.45,1.45,0,0,1,56.55,3c.39-.36.78-.75,1.18-1.16A.24.24,0,0,0,57.71,1.79Zm-2.5.74a1.83,1.83,0,0,1,0,.21l.44-.5A2.47,2.47,0,0,1,55.21,2.53ZM56.74,7l.47-.44a2.16,2.16,0,0,1,.28-.26c.08-.08.15-.12.18-.15a.19.19,0,0,1,.12,0V5.85c-1.22,1.23-2.07,2.09-2.54,2.58.1-.07.23-.18.38-.31S56.24,7.55,56.74,7ZM55.58,14.8l.17-.15c.52-.48.91-.86,1.19-1.15l.48-.54-2.16,1.75a2.18,2.18,0,0,0,.22.21A.58.58,0,0,1,55.58,14.8Zm2.19-7V7.5c-1.1,1-1.92,1.83-2.45,2.37.34-.32.92-.83,1.75-1.51l.68-.59S57.77,7.77,57.77,7.75Zm-.1,4.3a1,1,0,0,0,0-.2c-.92.79-1.64,1.45-2.15,2,.09-.07.22-.2.4-.37A9.19,9.19,0,0,1,57.67,12.05Zm0-1.85s0-.06,0-.12l-.17.16-.92.8c-.44.36-.75.63-1,.81Zm-2,4.86.12-.12-.14.12ZM57.64,4.68c-.12.11-.35.31-.68.63s-.79.69-1,.91c.55-.45,1.16-1,1.82-1.54V4.59A1.35,1.35,0,0,1,57.64,4.68ZM56.33,15.17a3.58,3.58,0,0,1,.72-.83L57.4,14c-.34.27-.78.66-1.34,1.16a1.14,1.14,0,0,0,.25,0ZM56.08,1l.06,0h0Zm1,0-1,1.11h0c.56-.54.93-.89,1.11-1Zm.29,12.57c-.19.16-.5.44-.93.86l-.16.13a1.45,1.45,0,0,1,.2-.15A12.16,12.16,0,0,0,57.36,13.56ZM56.74.88a.76.76,0,0,1-.15.21L56.8.9ZM57.5,14.3l0-.08-.31.29a5.09,5.09,0,0,0-.41.41C57,14.75,57.24,14.55,57.5,14.3Zm.29-8.78a.13.13,0,0,1,0-.08l-.8.72c.09-.08.19-.15.3-.23.27-.22.42-.35.46-.37A.15.15,0,0,0,57.79,5.52Zm-.23-4.08A6.77,6.77,0,0,1,57,2l.59-.48A.3.3,0,0,1,57.56,1.44Zm.15,9.3v-.07c-.11.13-.27.29-.46.48Zm0-2.56s0,0,0-.06l-.31.31Zm-.1,4.93v0a.09.09,0,0,0,0,.05Zm.12-10.82h0l-.1.09h0l.08,0v-.1Zm0,4.26v0h0l-.1.12.08-.06Zm0,2.56v0a.05.05,0,0,0,0,0s0,0,0,0Zm-.06-6.17.06,0v0A.33.33,0,0,1,57.69,2.94Z"/><path class="a" d="M68.43,6.32a1.63,1.63,0,0,1,0,.54,10.56,10.56,0,0,1-.3,1.07c.06.06,0,.12,0,.17l0,0c-.1.3-.21.63-.35,1v.1a1,1,0,0,1-.16.33,1.21,1.21,0,0,1-.08.19.15.15,0,0,1,0,.09.12.12,0,0,1,0,.09l-.07.06-.12.27q-.13.38-.21.54a4,4,0,0,1-.16.43.39.39,0,0,1,0,.23,1.23,1.23,0,0,1-.33.55,3.33,3.33,0,0,1-.14.31.12.12,0,0,1,0,.15h0s0,0,0,0a2.83,2.83,0,0,1-.11.31.46.46,0,0,1,0,.2,1.43,1.43,0,0,1-.31.58c-.07.16-.14.34-.22.56a.08.08,0,0,1,0,.1.4.4,0,0,1-.15.25l-.07.2-.07.15L65,16.24a.22.22,0,0,1,0,.14.76.76,0,0,1-.2.33c-.06.17-.12.32-.17.45h0c.09.11,0,.28-.22.53l-.15.41a.11.11,0,0,1,0,.11,3.65,3.65,0,0,1-.14.35c0,.07-.05.15-.07.24v0c.06.06,0,.14,0,.23a.17.17,0,0,0-.06.06c-.07.18-.13.33-.18.44a.07.07,0,0,1,0,.06.1.1,0,0,1,0,.14l0,0,0,0a1.51,1.51,0,0,1-1.32.7,1.81,1.81,0,0,1-.51-.08l-.15-.06a.15.15,0,0,1-.12,0,.13.13,0,0,1-.1,0,.12.12,0,0,1,0-.12l-.15-.11a.19.19,0,0,1-.12,0,.18.18,0,0,1-.1,0A.17.17,0,0,1,61,20h0a.26.26,0,0,1-.13-.08.21.21,0,0,1,0-.17.16.16,0,0,1,0-.1,1.59,1.59,0,0,1-.12-.27l-.06,0a.11.11,0,0,1-.07-.06c-.07-.08,0-.19.07-.35a1.85,1.85,0,0,1,0-.41.49.49,0,0,0,0-.11v-.06a.34.34,0,0,1,.08-.2.41.41,0,0,0,0-.07c.06-.2.14-.42.23-.68v0a.1.1,0,0,1,0-.08l.16-.49c-.06-.06,0-.16.09-.29v0s0-.06,0-.07l0,0a.37.37,0,0,1-.07-.29,1.26,1.26,0,0,1,.27-.51v0a.64.64,0,0,1,.21-.31l0-.06a.51.51,0,0,1,0-.13.77.77,0,0,1,.2-.33.68.68,0,0,0-.08-.39.12.12,0,0,1-.1-.06.07.07,0,0,1,0-.08.31.31,0,0,1,0-.08,1.12,1.12,0,0,0-.08-.17.13.13,0,0,1-.13,0c-.06-.06,0-.12,0-.17l0,0-.61-1.31h0a.14.14,0,0,1-.09,0c-.05-.07-.05-.13,0-.18l0,0-.08-.15h0a.39.39,0,0,1-.14-.08c0-.07,0-.14,0-.22-.15-.35-.3-.68-.43-1a.11.11,0,0,1-.07,0,.13.13,0,0,1,0-.18c-.09-.23-.18-.46-.28-.68h0a.12.12,0,0,1-.1,0,.21.21,0,0,1,0-.17.19.19,0,0,1,0-.12c-.12-.32-.22-.62-.31-.89a.05.05,0,0,1,0,0,.11.11,0,0,1,0-.14,14.51,14.51,0,0,1-.39-1.4,1.79,1.79,0,0,1,0-.23l0,0a.26.26,0,0,1,0-.27,1,1,0,0,1,0-.18V6.32a.26.26,0,0,1,0-.22,1.4,1.4,0,0,1,.39-.69A1.5,1.5,0,0,1,60.2,5a2.21,2.21,0,0,1,.37,0,1.74,1.74,0,0,1,.5.08h0s0,0,.08,0a1.61,1.61,0,0,1,.7.64,4.61,4.61,0,0,1,.17.47.14.14,0,0,0,0,.06,13.53,13.53,0,0,0,.55,1.32h0a.19.19,0,0,1,0,.08c0,.09.08.19.13.31h0s.07,0,.08,0a.14.14,0,0,1,0,.17.93.93,0,0,0,0,.1l0,.07a.18.18,0,0,1,.09.08s0,.09,0,.16l.1.19.08,0a.12.12,0,0,1,.1.06c0,.05,0,.12-.06.21a2.08,2.08,0,0,0,.13.3,0,0,0,0,0,0,0,.15.15,0,0,1,0,.11l0,.06,0,.06h0a.13.13,0,0,1,.1,0,.2.2,0,0,1,0,.21l.08.18h0a.11.11,0,0,1,.08,0l0,0,0,0c.06-.18.13-.34.19-.5V9.42a1,1,0,0,1,.22-.4l.15-.37a.24.24,0,0,1,0-.12,1.11,1.11,0,0,1,.22-.41.31.31,0,0,0,0-.09s0-.08,0-.1c.25-.58.43-1,.55-1.3-.09-.11,0-.31.23-.61a1.54,1.54,0,0,1,.87-.93l0,0a.12.12,0,0,1,.1,0A1.4,1.4,0,0,1,66.94,5a2.58,2.58,0,0,1,.39,0l.15,0,.14,0a.17.17,0,0,1,.12.06.12.12,0,0,1,0,.1,1.48,1.48,0,0,1,.4.39s0,0,.06,0a.08.08,0,0,1,.08.06.12.12,0,0,1,0,.13.44.44,0,0,1,0,.1c0,.1.07.21.1.31A.12.12,0,0,1,68.43,6.32Zm-8.21-.61a10.1,10.1,0,0,0-.86.84c.16-.12.41-.33.76-.64a1.61,1.61,0,0,1,.23-.22l.1-.11.35-.33-.13,0a.74.74,0,0,1-.14.17Zm-.78,1.67c.38-.38.72-.74,1-1.06l-.17.15a9.19,9.19,0,0,1-.92.74Zm.1.39L60,7.38l.8-.75.51-.53c-.46.35-1,.87-1.79,1.56A.43.43,0,0,0,59.54,7.77Zm.08.27a1.46,1.46,0,0,0,.05.2c.06-.07.11-.14.18-.21l.83-.86c.39-.39.66-.66.8-.82l-.35.3a.87.87,0,0,0-.15.13L60.74,7l-.56.53,0,0A4,4,0,0,1,59.62,8Zm.13-2.33-.06.08a2.58,2.58,0,0,0,.22-.23,3.31,3.31,0,0,0,.27-.27l-.12,0a.44.44,0,0,1-.09.16A1.89,1.89,0,0,1,59.75,5.71Zm.12,3.09a1.31,1.31,0,0,1,.19-.21L60.59,8c.4-.38.69-.68.87-.87l-1.69,1.4A2.29,2.29,0,0,1,59.87,8.8Zm1.22-3.46c-.19.19-.39.36-.58.53l-.21.21-.51.51.35-.31a10.37,10.37,0,0,1,1.07-.88ZM60,9.05h0v0Zm.24.41q.39-.29,1.2-1l-.15.14c-.42.31-.7.53-.86.66Zm.06.49.09-.12.35-.39.22-.23c-.33.27-.57.46-.72.56A.76.76,0,0,0,60.28,10Zm.11.25.06.16.47-.47a6.25,6.25,0,0,0,.44-.45A8.81,8.81,0,0,1,60.39,10.2Zm.26.64q1.4-1.46,2-2.1a7.85,7.85,0,0,0-1.09.9l-.45.42-.54.55A1.15,1.15,0,0,0,60.65,10.84Zm.15.41a1.14,1.14,0,0,1,.1-.19.45.45,0,0,1-.16,0A.46.46,0,0,1,60.8,11.25Zm.84-4.7-.76.78c.55-.46.89-.72,1-.8a1.84,1.84,0,0,1-.06-.18h0Zm-.68,5,0,0-.06,0a.1.1,0,0,0,0,.06Zm0,7.11.31-.31c.37-.38.9-.87,1.59-1.48q.64-.59,1.44-1.26l-.45.33a2.62,2.62,0,0,1-.29.21,1.9,1.9,0,0,1-.2.18c-.58.52-1.3,1.2-2.17,2a1.57,1.57,0,0,1-.21.19v0A.12.12,0,0,0,61,18.67Zm.09-7.4a6.36,6.36,0,0,0,1.17-.93l1-.9-.1-.21L63,9.29c-.55.49-1,.88-1.23,1.16A4.31,4.31,0,0,0,61.05,11.27Zm.06.7,0,0s0,0,0,0a6.14,6.14,0,0,1,.45-.43A2.92,2.92,0,0,1,61.11,12Zm.06,7.69a2.29,2.29,0,0,0,.27-.17.69.69,0,0,1-.25.09s0,0,0,.06A0,0,0,0,1,61.17,19.66ZM61.4,5.58a.77.77,0,0,1-.19.27,2.24,2.24,0,0,1,.29-.19A.39.39,0,0,0,61.4,5.58Zm-.13,6.76,0,0s0,0,0,.05c.29-.26.57-.52.83-.78C61.74,12,61.45,12.21,61.27,12.34Zm0,5.2a.69.69,0,0,0,0,.1l.06,0,.17-.13Zm1.18-9.63-.08.1-.52.54-.6.64.6-.5.56-.47a.48.48,0,0,0,.12-.1C62.53,8,62.5,8,62.49,7.91ZM61.4,19.06c.24-.2.62-.49,1.15-.88.12-.11.28-.29.5-.52-.54.43-.95.76-1.22,1Zm.14-6.41.33-.29a8.91,8.91,0,0,1,.91-.86c.33-.31.56-.54.7-.7a4.45,4.45,0,0,0-.48.41c-.25.21-.61.53-1.07,1-.29.29-.46.45-.51.49s0,0,0,.06A.3.3,0,0,0,61.54,12.65ZM62.1,7A.53.53,0,0,0,62,6.88a4.71,4.71,0,0,1-.58.66A7.66,7.66,0,0,1,62.1,7Zm-.6,13,.21-.23-.25.19Zm0-3.13a.14.14,0,0,0,0,.06l0,.08a4.4,4.4,0,0,1,.35-.27A.87.87,0,0,1,61.54,16.88ZM62.72,9l-.79.83c-.13.13-.27.27-.41.43l1-.89L63,9a.43.43,0,0,0-.08-.14Zm2.1,4.83c-1.62,1.36-2.65,2.26-3.09,2.68a10.49,10.49,0,0,0,.94-.72c.4-.34,1-.93,1.94-1.76A2,2,0,0,0,64.82,13.85Zm-2.93-.44c.1,0,.38-.19.83-.59.29-.27.81-.79,1.56-1.57l.21-.23-2.41,2a.75.75,0,0,0-.21.39S61.88,13.39,61.89,13.41Zm0,2.33a.4.4,0,0,0-.06.13l3.42-2.78c-.34.25-.82.59-1.46,1l-.43.3,0,0C62.56,15.19,62.08,15.62,61.93,15.74Zm.13,4.5a2.65,2.65,0,0,1,.18-.29,3.6,3.6,0,0,1-.33.25A.28.28,0,0,0,62.06,20.24ZM62,13.83c0,.06.06.11.09.18l.63-.49.95-.89,1.09-1C63.85,12.31,62.93,13.06,62,13.83Zm1.51-2.56-.33.27-.17.14c-.17.17-.43.4-.78.72l0,0a.08.08,0,0,1,0,0l0,0a5.55,5.55,0,0,0,.53-.44C62.83,11.86,63.13,11.59,63.46,11.27Zm-.37,6.82-.08.06c-.12.09-.23.16-.31.23l-.64.6a1.84,1.84,0,0,0,.22-.17l.4-.35ZM65,15.64c0-.05,0-.13.08-.23a1.26,1.26,0,0,1,.07-.18l-2,1.71-1,.95c.21-.17.41-.33.6-.5.35-.3.66-.56.94-.78l.64-.51c.15-.13.28-.22.39-.3l.21-.13Zm-2.86,4.1L63,19Zm.23-12.06s0,0,0,0S62.35,7.66,62.35,7.68Zm2.45,4.44c-.45.38-.94.77-1.47,1.19a6.76,6.76,0,0,0-.94,1,24.73,24.73,0,0,0,2.16-1.86l1-.92C65.33,11.7,65.07,11.9,64.8,12.12Zm-2,8.05a1.15,1.15,0,0,1,.31-.55l-.7.64A1.24,1.24,0,0,0,62.84,20.17Zm3.81-8.94a.45.45,0,0,0,0-.08c-.25.24-.83.71-1.75,1.42S63.34,13.85,63,14.16l-.31.29Zm-.86,2.23a2.55,2.55,0,0,0,.1-.25c-.18.16-.55.49-1.11,1-.92.86-1.58,1.46-2,1.81.75-.57,1.36-1.06,1.83-1.46A8.29,8.29,0,0,0,65.79,13.46Zm-2.5-3.18-.37.39c.19-.16.38-.32.56-.49a.19.19,0,0,0,0-.1A1.3,1.3,0,0,1,63.29,10.28Zm.5,8.55a.52.52,0,0,1,.06-.2l-.58.56A2,2,0,0,1,63.79,18.83Zm-.33.81v0l0,0v0Zm1.17-3.05a.79.79,0,0,0,0-.13,3.22,3.22,0,0,0-.41.35c-.14.12-.33.3-.55.52q.3-.21.51-.39ZM68,7.42c0-.19.09-.39.13-.58a.07.07,0,0,1-.06,0l0,0-.16,0C66,8.47,64.8,9.53,64.26,10a1.48,1.48,0,0,1-.2.19c0,.12-.09.25-.15.41l1-.78L66.4,8.51c.36-.32.69-.59,1-.8A1.23,1.23,0,0,1,68,7.42Zm-3.25,3.81a21.66,21.66,0,0,0,2.7-2.43h0A1,1,0,0,0,67,9a6.9,6.9,0,0,0-.81.68q-.49.45-.81.78l-.91.93a2.52,2.52,0,0,1-.33.33Zm-.4,6h0Zm.11-8.14a1.43,1.43,0,0,1-.08.22l.74-.59a11.47,11.47,0,0,1,2.59-2.15l.44-.37a.57.57,0,0,0,0-.14,16.4,16.4,0,0,1-1.51,1.25A19.14,19.14,0,0,0,64.49,9.13ZM65,8.08l-.08.1.11-.1Zm.27-.83v0a.07.07,0,0,0,0,.06.24.24,0,0,1,.1-.1Zm.44-1.09v0c.29-.23.66-.54,1.08-.93a.66.66,0,0,0-.27.06A9.87,9.87,0,0,0,65.73,6.16Zm1.52-.43L65.87,7.05l.66-.5.57-.43.64-.62-.16-.1A2.44,2.44,0,0,1,67.25,5.73Zm-.33,4.78a2.29,2.29,0,0,1,.1-.23l-.63.46a2,2,0,0,1-.21.2c.38-.3.62-.44.72-.43ZM66.55,8.7c.69-.5,1.12-.84,1.3-1a6,6,0,0,0-1,.77Zm.58,1,.14-.18L67,9.75Zm0-4.45a.63.63,0,0,1,0,.09l.1-.07A.08.08,0,0,0,67.15,5.25Zm.49,3.36a1.67,1.67,0,0,1,.08-.2l-.18.16A.13.13,0,0,1,67.64,8.61Zm.25-2.86.06,0,0,0A.15.15,0,0,1,67.89,5.75Zm.31.84v0l0,0S68.19,6.57,68.2,6.59Z"/></svg>