<svg xmlns="http://www.w3.org/2000/svg" viewBox="0 0 106.98 46.47"><defs><style>.a{fill:#29abe2;}</style></defs><path class="a" d="M32.05,24.16a.42.42,0,0,1,0,.46,48.44,48.44,0,0,1-.09,5.3.84.84,0,0,1,0,.27c0,.28-.06.5-.09.68V31l.09.1c.12.12.07.28-.14.49a.14.14,0,0,1-.05.09,1.63,1.63,0,0,1-.13.37,3.51,3.51,0,0,1-2,2.26.74.74,0,0,1-.41.23h0a4.08,4.08,0,0,1-1.18.18,1.61,1.61,0,0,1-.37,0,3.53,3.53,0,0,1-2.58-1.41.48.48,0,0,1-.27.09c-.06,0-.12,0-.18-.13s-.11-.31,0-.55a3.49,3.49,0,0,1-.36-1.58,16.32,16.32,0,0,1,.14-1.91c.06-.6.09-1,.09-1.31s0-.56,0-1v-.27c0-.84.06-1.48.09-1.9l-.18-.09c-.12-.12-.1-.26.05-.41l.13-.14a27,27,0,0,0-.18-3.94.14.14,0,0,1-.09-.05c-.12-.15-.11-.34.05-.59a1.62,1.62,0,0,0-.1-.18l-.18-.09a1.45,1.45,0,0,0-.54-.09,2.28,2.28,0,0,0-.63.09,1,1,0,0,1-.37.18c-.24.22-.45.4-.63.55l-.12.11-.11.11a2,2,0,0,0-.18.59l0,.09V21a14.16,14.16,0,0,0-.31,1.72l0,0a.67.67,0,0,1,.16.5,1.49,1.49,0,0,1-.29.68,1.49,1.49,0,0,1-.05.36.34.34,0,0,1,0,.41C21,25.27,21,26,20.9,26.84a.27.27,0,0,1,0,.36,7.52,7.52,0,0,0,0,.82c0,.24,0,.38,0,.41s.09.06.09.09a.29.29,0,0,1,.09.22.18.18,0,0,1-.14.18s0,.07-.09.1v.49l.09.09c.19.22.12.55-.18,1v.18a6.06,6.06,0,0,1-.27,1.41,3.37,3.37,0,0,1-1.25,1.72,3.31,3.31,0,0,1-2,.64,1.32,1.32,0,0,1-.59.27h0a.68.68,0,0,1-.32-.18.52.52,0,0,1-.05-.23,2.59,2.59,0,0,1-.45-.14A5.05,5.05,0,0,1,14,33a.48.48,0,0,1-.38-.18.32.32,0,0,1,0-.41,4.07,4.07,0,0,1-.49-2v-.73a.32.32,0,0,1-.23-.09.3.3,0,0,1-.05-.27c0-.12.11-.29.32-.5v-.64h0a.87.87,0,0,1-.09-.4,1.43,1.43,0,0,1,.18-.41q0-.49.09-1.41.09-1.5.09-2.31a.32.32,0,0,1-.14-.14c-.12-.15-.07-.33.14-.54h0v-.45A11.18,11.18,0,0,0,13,20a.2.2,0,0,1-.14,0,.18.18,0,0,1-.18-.09q-.18-.22.09-.54c-.33-.7-.73-1-1.18-1a2.08,2.08,0,0,0-1.18.45.14.14,0,0,1,0,.07l-.07,0s-.13.12-.32.27a3.6,3.6,0,0,0-1,2c-.06.51-.11,1.12-.14,1.81l.1.09c.12.12.07.3-.14.54v1.27a.49.49,0,0,1,0,.37.69.69,0,0,1,0,.22v.5a42.78,42.78,0,0,1-.18,4.63,4.31,4.31,0,0,1-.86,2.17,4.44,4.44,0,0,1-1.77,1.41.78.78,0,0,1-.41.22.12.12,0,0,1-.09,0,2.93,2.93,0,0,1-1.13.23H4.22a3.25,3.25,0,0,1-2.14-.73H2a.29.29,0,0,1-.27-.14.42.42,0,0,1-.13-.31,5.34,5.34,0,0,1-.55-1,.55.55,0,0,1-.22-.14.18.18,0,0,1,0-.22.45.45,0,0,1,.09-.23l-.09-.27a14.51,14.51,0,0,1-.45-3.18c0-.57-.06-1.16-.09-1.76a.87.87,0,0,1-.05-.28.41.41,0,0,1,.05-.18V23.76a.29.29,0,0,1,0-.37c0-.54,0-1.08,0-1.63a.68.68,0,0,1-.18-.13A.41.41,0,0,1,0,21.35a1.86,1.86,0,0,1,.32-.54c0-.6.07-1.19.13-1.77a.63.63,0,0,1,0-.41.14.14,0,0,1,0-.09c-.15-.15-.09-.37.18-.68.06-.78.14-1.58.23-2.4l-.09-.09a.48.48,0,0,1-.09-.27,1.18,1.18,0,0,1,.27-.5c0-.15,0-.36.05-.64v-.31a.14.14,0,0,0-.09-.05c-.16-.18-.07-.5.27-.95A4.51,4.51,0,0,1,1.31,12a.4.4,0,0,1,.14-.27l.09,0A3,3,0,0,1,3,10.43a.82.82,0,0,1,.41-.23.14.14,0,0,1,.09.05,4.54,4.54,0,0,1,.68-.14h.27a3.67,3.67,0,0,1,1.14.18.39.39,0,0,1,.18,0,.68.68,0,0,1,.18.13.12.12,0,0,1,0,.09,3.65,3.65,0,0,1,1.59,1.59A6.82,6.82,0,0,1,10,10.52c.34-.09.68-.17,1-.23l.18-.13a.25.25,0,0,1,.41,0c.36,0,.71,0,1,0h.27a1.3,1.3,0,0,1,.77-.19.61.61,0,0,1,.5.23.14.14,0,0,0,.05.09,6.34,6.34,0,0,1,1.35.32,1.65,1.65,0,0,1,.48-.09.32.32,0,0,1,.3.18.26.26,0,0,1,.09.18.14.14,0,0,0-.05.09,6.23,6.23,0,0,1,2.36,1.86c.39-.36.71-.63.95-.82a9.19,9.19,0,0,1,2.4-1.27c.34-.24.56-.34.68-.31a.21.21,0,0,1,.19.09,8.3,8.3,0,0,1,1.72-.18h.68a1.32,1.32,0,0,1,.32-.05,1,1,0,0,1,.31.14,4,4,0,0,1,.55.13.82.82,0,0,1,.86.23l0,.05a1,1,0,0,0,.28.13,1.08,1.08,0,0,1,.4-.09.46.46,0,0,1,.37.18.32.32,0,0,1,.09.23.36.36,0,0,1-.05.13l.14.1v0a.25.25,0,0,1,.22-.07.46.46,0,0,1,.23.12.29.29,0,0,1,0,.31,3,3,0,0,1,.32.27h0a.28.28,0,0,1,.23.12.32.32,0,0,1,.09.2,1.84,1.84,0,0,1,.23.27h.13a.32.32,0,0,1,.23.09.4.4,0,0,1,0,.37s0,0,0,0a6.77,6.77,0,0,1,1.17,3h.09a.3.3,0,0,1,.23.09c.09.15,0,.32-.13.5,0,0-.07,0-.1.09a1.7,1.7,0,0,1,.05.41.56.56,0,0,1,.14.09c.12.12.1.26-.05.41l0,0a5.69,5.69,0,0,1,0,.77l.05.05a.27.27,0,0,1,0,.36V19a2.13,2.13,0,0,0,0,.49.38.38,0,0,0,.14.09c.12.16.09.37-.09.64,0,.67,0,1.63,0,2.9ZM.77,24.89a.14.14,0,0,1,.09-.05H.77Zm0-2.13a1.84,1.84,0,0,0,.27-.23.84.84,0,0,1-.27,0v.27ZM4.4,21.49c1.06-1,2.05-1.89,3-2.77l1-.9c1.11-1.06,2-1.91,2.72-2.54q-3.67,2.9-5.85,4.8c-1,.85-1.88,1.58-2.54,2.2S1.6,23.35,1.36,23.62a4.88,4.88,0,0,0-.5.63,12.17,12.17,0,0,0,2.54-1.9C3.7,22.11,4,21.82,4.4,21.49Zm1.09,3.08C7.18,23.06,8.08,22,8.21,21.49a25.53,25.53,0,0,0-3.36,3q-3.31,3.21-4,3.35v.55l.86-.68A42.27,42.27,0,0,1,5.49,24.57ZM1,29.74a6.7,6.7,0,0,0,.13.68Q2.95,28.61,4.62,27l-2.2,1.76c-.52.43-.87.69-1,.8A2,2,0,0,1,1,29.74ZM6.57,17.41A46.11,46.11,0,0,0,1,22h.05a2.46,2.46,0,0,0,1-.32l.36-.36Q4.22,19.72,7.3,17c.12-.12.38-.35.77-.68C7.65,16.58,7.15,17,6.57,17.41ZM8.43,20.9a3.58,3.58,0,0,1,.14-.54L5.26,23.17a48.78,48.78,0,0,0-4.13,3.94,37.11,37.11,0,0,0,3.31-3C5.71,22.88,6.62,22,7.16,21.56s.95-.69,1.23-.66ZM1.18,17.27q.5-.49,2-1.77C5,14,6.09,13,6.57,12.51a28.07,28.07,0,0,0-2.72,2.22c-.9.82-1.8,1.65-2.67,2.5Zm3.67,5.49c-.33.21-.69.47-1.09.77s-.89.62-1.13.77c-.61.57-1.07,1-1.41,1.41Q2.36,24.84,4.85,22.76ZM1.31,16l0,.09q.09,0,.09-.09Zm0,15.33c.25-.21.65-.55,1.23-1v0q4.08-4.08,5.17-4.35a2,2,0,0,0,.45-.59v-.09a68.19,68.19,0,0,0-6.85,5.81h0A.84.84,0,0,0,1.31,31.33Zm.41,1C3.11,31,4.4,29.8,5.58,28.65c-.49.4-1.14.91-1.95,1.54L3,30.74c-.73.72-1.2,1.18-1.41,1.36a1.16,1.16,0,0,0,.14.27ZM3.45,10.84a16.59,16.59,0,0,0-1.82,2q.54-.47,1.77-1.68c.24-.21.41-.36.5-.46ZM8.21,23.21a.19.19,0,0,1-.1.05c-1.17,1-2.29,1.92-3.35,2.76L2.22,28.11l-.14,0,0,.05a3.9,3.9,0,0,0-.36.41C3,27.61,5.15,25.81,8.21,23.21ZM2.54,32.82a2.18,2.18,0,0,0-.27.32c.24-.15.63-.44,1.18-.86A4.15,4.15,0,0,1,2.54,32.82Zm.41.91A3.66,3.66,0,0,1,3.49,33a5.82,5.82,0,0,1-.82.59Zm6-20.81c-1.06.91-2.7,2.43-4.94,4.58-.3.3-.57.56-.82.77.58-.45,1.41-1.12,2.5-2l.68-.55A62.58,62.58,0,0,1,11.61,11,14.36,14.36,0,0,0,8.93,12.92ZM4.53,33.14l.09-.09-1,.86A2.3,2.3,0,0,0,4,34,3.46,3.46,0,0,1,4.53,33.14ZM4.85,10.7,3.67,12l1.41-1.23A.53.53,0,0,1,4.85,10.7Zm-.68,2-.09,0,0,.05a0,0,0,0,0,0-.05A.12.12,0,0,0,4.17,12.65Zm4,14.55v-.36c-.15.18-.38.42-.68.72-.51.55-1.24,1.27-2.18,2.18a5.57,5.57,0,0,0-.45.41,1.79,1.79,0,0,1,.32-.23c.33-.27.59-.47.77-.59.72-.72,1.39-1.4,2-2A.32.32,0,0,1,8.16,27.2Zm4.31-16.14c-.31.61-2.22,2.31-5.76,5.13-.27.27-.67.65-1.18,1.13-.24.24-.45.47-.63.68.36-.3.81-.65,1.36-1,2.44-1.91,4.14-3.25,5.07-4a19.17,19.17,0,0,0,2.27-2.13,4.27,4.27,0,0,0-.59,0C12.86,10.84,12.68,10.94,12.47,11.06ZM8,30.47v-.14C6.88,31.45,6,32.4,5.26,33.19l.63-.64q1.64-1.68,2-1.68C8,30.75,8,30.62,8,30.47ZM5.71,11.33c-.12.09-.25.22-.41.37a0,0,0,0,0,0,0,2,2,0,0,0,.36-.36ZM5.44,30.6c.42-.36.86-.75,1.31-1.18a2.1,2.1,0,0,0-.45.37c-.18.15-.36.31-.54.49A1.94,1.94,0,0,0,5.44,30.6Zm2.63-1a4.44,4.44,0,0,0,0-.63c-.9.91-1.72,1.75-2.44,2.54l2.26-1.86A.2.2,0,0,1,8.07,29.6ZM6.71,11.74a.26.26,0,0,1-.14.09.33.33,0,0,1,.14,0Zm.5.91a3,3,0,0,0-.27.32,1.64,1.64,0,0,1,.31-.23Zm1,12v-.41c-.12.12-.26.27-.41.45a9.29,9.29,0,0,0-.77.77A9,9,0,0,1,8.16,24.62Zm-1-4.17a65.28,65.28,0,0,0,7.62-6.08l-.16.14-.16.13Q9.7,18.36,7.16,20.45ZM14,14q-2.13,1.59-5.57,4.63c-.22.21-.43.41-.64.59l-.18.18q2.31-1.91,6.53-5.17c1.12-.88,1.84-1.47,2.18-1.77h0A15.45,15.45,0,0,0,14,14Zm-4-2.81h0l.09,0Zm2.23,6.76a1,1,0,0,1,.22-.41l-.41.32Zm1,.95h0v.05S13.19,18.89,13.19,18.86Zm.32.95a29.45,29.45,0,0,1,4.67-3.9l1.95-1.45c.87-.75,1.62-1.4,2.22-2,.36-.3.69-.57,1-.81a2,2,0,0,0,.41-.68q-1.05.4-5.67,4.44-2.17,1.86-4.63,4.08A.86.86,0,0,1,13.51,19.81Zm7.07,3.9c-1.15,1-2.19,1.86-3.13,2.68q-2.89,2.45-3.8,3a1.7,1.7,0,0,0-.05.41c.24-.21.79-.65,1.63-1.31A34.87,34.87,0,0,0,20.58,23.71Zm-6.21-6.44-.68.5,0,.09Zm-.54,13.92c.18-.21.45-.5.81-.86L15,30a4.2,4.2,0,0,1-1.36.77c0,.21.06.41.09.59A.56.56,0,0,0,13.83,31.19Zm5.35-7.52a6.08,6.08,0,0,0,1.4-1.55,18.85,18.85,0,0,0-2.22,1.68q-1.18,1-3.49,3.13c-.63.6-1,1-1.18,1.09v.18c.39-.33,1.13-.94,2.22-1.81C17.45,25.15,18.54,24.24,19.18,23.67ZM15.5,19.45a6.63,6.63,0,0,1-1.76,1.31c0,.13.06.26.09.41l.09-.09a18,18,0,0,1,1.31-1.36A1.15,1.15,0,0,1,15.5,19.45Zm6.94-.64c2.81-2.47,4.76-4.26,5.85-5.35q-2.22,1.68-9.7,8.07-4.3,3.67-4.76,3.95c0,.09,0,.26-.05.5v.27q1.63-1.37,3.36-2.86a21.91,21.91,0,0,1,3.26-2.81c.3-.27.6-.53.91-.77A2.53,2.53,0,0,1,22.44,18.81Zm-8.57,5.58v.05l.05-.05ZM26.52,11.15q-1.18.31-4.44,3.09l-.91.81q-3.5,3.09-7.25,7.07v.28c.33-.34.81-.77,1.45-1.32.88-.78,2.49-2.19,4.85-4.21q5.45-4.82,6.44-5.72ZM14.6,23.53a2.68,2.68,0,0,1-.55.18L14,23.8Zm5.76,3.35v-.09a62.16,62.16,0,0,0-6.12,5.53,2.73,2.73,0,0,0,.49-.27c.12-.12.26-.25.41-.41.52-.51,1.24-1.17,2.18-2,.66-.63,1.42-1.32,2.26-2C20,27.25,20.2,27,20.36,26.88Zm-5.85-7.34c.24-.21.54-.48.9-.82l-.18.19A7.72,7.72,0,0,0,14.51,19.54ZM14.8,11l-.07.07.19-.09h-.05A.08.08,0,0,0,14.8,11Zm.12,21.78-.05,0-.14.09,0,0A1.1,1.1,0,0,0,14.92,32.82Zm3.35-13c-.27.21-.53.43-.77.64-.88.75-1.6,1.4-2.18,1.95l1.54-1.32C17.29,20.72,17.76,20.3,18.27,19.81Zm.27-6.25c-.81.75-1.62,1.48-2.4,2.17l.86-.68c.73-.66,1.25-1.13,1.59-1.4Zm-.18,18.76c.45-.45.83-.84,1.13-1.17-.33.3-.65.57-.95.81-1.21,1-2,1.62-2.36,1.86a2.69,2.69,0,0,0,.46.14C17.27,33.38,17.85,32.84,18.36,32.32ZM16.73,12.83a4.4,4.4,0,0,1-.27.45,13.26,13.26,0,0,1,1.08-.9.29.29,0,0,0-.13-.14C17.32,12.33,17.09,12.53,16.73,12.83Zm3.4,17a1,1,0,0,0,0-.32c-.54.46-1.05.88-1.54,1.27,0,0,0,0,0,0-.88.88-1.51,1.49-1.91,1.86a1.42,1.42,0,0,0-.18.22Q17.78,31.88,20.13,29.83ZM18.22,13.1a.68.68,0,0,1-.13-.18,6.37,6.37,0,0,1-.73.82C17.67,13.5,18,13.28,18.22,13.1Zm0,20.68a.19.19,0,0,1,.05-.1.49.49,0,0,1-.23.14A.39.39,0,0,0,18.22,33.78ZM20.4,26a6.23,6.23,0,0,1,.05-.77l-2.36,2.36A8.86,8.86,0,0,1,20.4,26Zm7.75-14.19c-.42.37-1.7,1.39-3.85,3.09l-1.59,1.27-.59.58c-.93,1-1.7,1.74-2.31,2.32,1.48-1.27,3.58-3.06,6.3-5.35q1.68-1.41,2.13-1.86A.14.14,0,0,1,28.15,11.83ZM20.26,27.75v0Zm.55-6.26a.74.74,0,0,0,0-.23l-.4.32A1,1,0,0,1,20.81,21.49Zm1.4-5.62a.56.56,0,0,1,.14-.09.14.14,0,0,0,0-.09Zm2.32,2.45a6,6,0,0,1,.86-1l-1.54,1.22.4.09A2.36,2.36,0,0,1,24.53,18.32Zm-.09-7.44a.19.19,0,0,0-.1,0v0S24.38,10.91,24.44,10.88Zm2.67,18.68c1-1,1.69-1.68,2.18-2.13l-.68.59c-.15.15-.32.3-.5.45l-.18.18c-1,1-1.7,1.68-2.11,2a1.72,1.72,0,0,1-1,.55c0,.15.06.28.09.4l.5-.49C25.71,30.87,26.26,30.35,27.11,29.56Zm-2.18.86h0v0S24.9,30.42,24.93,30.42Zm6.58-6.3a0,0,0,0,1-.05-.05V24A19.57,19.57,0,0,1,29,26.11c-1.3,1.09-2.2,1.88-2.72,2.36A7.42,7.42,0,0,0,25,29.83a5.33,5.33,0,0,0,1.49-1c.52-.46,1.38-1.27,2.59-2.45A21,21,0,0,1,31.51,24.12ZM25.3,28a.74.74,0,0,1-.23,0v.14A1.54,1.54,0,0,1,25.3,28ZM25.16,21a.56.56,0,0,0,.09-.14.12.12,0,0,1-.09,0Zm4.53.86c-1.33,1.08-2.82,2.34-4.48,3.76a2.57,2.57,0,0,0-.05.5l.14-.14c.3-.27.86-.8,1.67-1.58Zm-4.3.22a.41.41,0,0,1-.18,0v.09A.73.73,0,0,0,25.39,22Zm-.18,2.68,2.08-2c-.66.57-1.36,1.15-2.08,1.72Zm0-1.18,2.22-2.22-2.22,1.77Zm6.21-1.41a1.82,1.82,0,0,1,0-.27l-4.35,3.54a8.7,8.7,0,0,0-1.73,1.95,25.76,25.76,0,0,0,2.81-2.5A16.74,16.74,0,0,1,31.46,22.12Zm-5.75,11h0l2.36-2.41a1.84,1.84,0,0,1-.27.23c-1.18,1.06-1.95,1.72-2.32,2Zm5.21-17.6a1.65,1.65,0,0,0-.09-.22l-.82.63c-1.36,1.09-2.37,1.94-3,2.54A8.56,8.56,0,0,0,25.61,20q1.28-1,4.58-3.81A5.86,5.86,0,0,0,30.92,15.5Zm.18,1a1,1,0,0,0-.05-.32c-.12.12-.27.26-.45.41-.81.69-1.56,1.34-2.22,1.95-1.12,1-1.93,1.83-2.45,2.4l2.54-2.22C29.86,17.47,30.74,16.73,31.1,16.46ZM27,33.28c.48-.49.94-.93,1.36-1.32a9.64,9.64,0,0,1-2,1.63.73.73,0,0,0,.18.14l.14-.14Zm.68.81a1.39,1.39,0,0,1,.45-.81c-.42.33-.74.57-.95.72Zm1-21.85c-.3.3-.63.62-1,.95.48-.39.86-.68,1.13-.86A.56.56,0,0,0,28.74,12.24Zm1.18,1.41-1.13,1.13-.23.23a6.78,6.78,0,0,1,1.68-1.14L30,13.56Zm-.72-.28-.37.37.82-.68L29.56,13C29.47,13.06,29.35,13.19,29.2,13.37Zm2,4.13v-.23l-.59.55c-.64.57-1.15,1-1.54,1.4Zm.09,1.18a2.17,2.17,0,0,0,0-.41l-2.13,2.18a14,14,0,0,1,1.23-1Zm-1.86,9.38c1.21-1,1.89-1.58,2-1.67V26a1.26,1.26,0,0,0-.14.18l-1,1a12.69,12.69,0,0,1-1.09,1,.3.3,0,0,0,.14-.06Q29.47,28.1,29.47,28.06Zm1.77,3.18v-.18c-.22.21-.56.54-1,1l-1,.91,1.18-1C30.84,31.55,31.12,31.33,31.24,31.24Zm-1.55-6.4,1.14-1a6.52,6.52,0,0,0-.68.54Zm1.68-5.12v-.23l-1.22,1.23C30.72,20.24,31.13,19.9,31.37,19.72Zm-.86-5.26a2.18,2.18,0,0,0-.32.27.81.81,0,0,1,.41-.13A.56.56,0,0,0,30.51,14.46Zm.91,6.71V20.9c-.21.21-.49.48-.82.82a.66.66,0,0,0-.22.22c.3-.24.61-.48.95-.72,0,0,0,0,0,0ZM30.6,32.78a.56.56,0,0,1,.09-.14l-.13.14Zm.86-4.4v-.32a.91.91,0,0,1-.2.23,2.76,2.76,0,0,0-.3.29q-.13.17-.27.3A1.87,1.87,0,0,1,31.46,28.38Zm-.09,1.45V29.6l-.68.82Zm.14-2.63v0l-.05,0-.09.09A.56.56,0,0,1,31.51,27.2Z"/><path class="a" d="M50.91,9.16q.14.23-.18.54l0,.05A3.38,3.38,0,0,1,50.46,11a.18.18,0,0,1-.09.18,3.4,3.4,0,0,1-1.32,1.54,3.52,3.52,0,0,1-2,.59H45.33v2.13a.53.53,0,0,1,.23.14c.12.12.11.24,0,.36V16l-.14.09c0,.75,0,1.65,0,2.67a.21.21,0,0,1,0,.19c0,.45,0,1.07,0,1.85q.18,6.45.23,8.53s.06,0,.09.09a.22.22,0,0,1,0,.36l-.09.14V30a4.48,4.48,0,0,1-.05.72.19.19,0,0,1,0,.18,1.91,1.91,0,0,1,0,.43l-.09.39h0a.31.31,0,0,1,0,.41.56.56,0,0,0-.14.09A3.53,3.53,0,0,1,44,33.93a3.77,3.77,0,0,1-2.16.66h-.09a3.63,3.63,0,0,1-2.54-1.09.29.29,0,0,1-.22-.09.48.48,0,0,1-.05-.22A3.38,3.38,0,0,1,38.26,32h0a.59.59,0,0,1-.23-.14.37.37,0,0,1-.09-.36.58.58,0,0,1,.14-.32c-.07,0-.09-.06-.09-.09q-.24-.18,0-.36s0-.06.09-.09v-.73c0-.69,0-1.59,0-2.67a.52.52,0,0,1,0-.59c0-.88-.09-2.28-.18-4.22-.09-2.29-.14-4-.14-5l0,0a.68.68,0,0,1-.14-.41,1.78,1.78,0,0,1,.14-.36V13.28h-2a3.58,3.58,0,0,1-2.36-.86l0,0a3.48,3.48,0,0,1-1-1.41.49.49,0,0,1-.05-.23,3.29,3.29,0,0,1-.13-.58c-.06,0-.09-.06-.09-.1s-.11-.3,0-.54a3.45,3.45,0,0,1,1.11-2.47,3.52,3.52,0,0,1,2.52-1h1.54a4.86,4.86,0,0,0,.41-.27V5.21a.26.26,0,0,1-.18-.09c-.09-.12,0-.31.18-.59V3.72a4.16,4.16,0,0,1,.77-2.2A3.48,3.48,0,0,1,40.17.23q0-.09.09-.09a.29.29,0,0,1,.22-.09.33.33,0,0,1,.14,0A3.19,3.19,0,0,1,41.39,0h.09a3.66,3.66,0,0,1,2.4.86A.74.74,0,0,1,44.2.77a.28.28,0,0,1,.23.14.25.25,0,0,1,0,.4A4,4,0,0,1,45,2.45h0a.27.27,0,0,1,.23.13c.12.13.1.29,0,.5l.09.73V6h.41a.55.55,0,0,1,.41-.09.48.48,0,0,1,.27.09h.64a3.54,3.54,0,0,1,2.72,1.18h0a.58.58,0,0,1,.23.13.32.32,0,0,1,0,.28.36.36,0,0,0,0,.13.18.18,0,0,1,.18.09.26.26,0,0,1,0,.32l.09.18h0a.34.34,0,0,1,.28.14.52.52,0,0,1,0,.59A.36.36,0,0,0,50.91,9.16Zm-17.86.63v0a2.18,2.18,0,0,1-.32.27v.09Zm1.54-2.9q-.77,1.1-1.41,2L34,8.07c.66-.66,1.13-1.12,1.4-1.36A3.21,3.21,0,0,0,34.59,6.89Zm-1.36,3.63a25.08,25.08,0,0,0,5-3.86h-.91c-.36.28-.7.53-1,.78-.75.63-1.39,1.17-1.9,1.63l-.95,1.13A1.24,1.24,0,0,0,33.23,10.52Zm.05.9c.09.1.18.2.27.32q2-1.72,3.94-3.49A27.06,27.06,0,0,1,33.28,11.42Zm1.22.91a5.07,5.07,0,0,0,.5-.45l1.58-1.45q4.08-3.72,5.94-5.49c-.63.58-1.63,1.47-3,2.68a62.25,62.25,0,0,1-5.35,4.62,1.16,1.16,0,0,0,.27.14Zm.68.14a14.47,14.47,0,0,0,4-3C41.08,7.8,42.89,6,44.61,4.17a.12.12,0,0,0,.09,0,1.39,1.39,0,0,1-.05-.32V3.67l-.18.18q-.72.73-2.13,2-1.68,1.59-5.35,5Zm2.9,0q4.48-3.94,6.17-5.8a84.73,84.73,0,0,0-7,5.94H38A.56.56,0,0,1,38.08,12.51ZM40,3c-.55.51-1.12,1.09-1.73,1.72v.36l.05.14.13-.09a1.54,1.54,0,0,1,.18-.23l1.59-1.77c.42-.45.88-.95,1.36-1.49C41.15,2,40.62,2.46,40,3ZM38.26,6.21v.41c.91-.82,1.85-1.71,2.81-2.68a13.39,13.39,0,0,1-1.22.87c-.52.45-1,.9-1.5,1.36A.12.12,0,0,1,38.26,6.21Zm.23,6.89h-.23v.18l.12-.09Zm-.23,1v.14l.41-.41a.73.73,0,0,1,.14-.18Zm.05-10.24a3,3,0,0,0,.27-.32l-.27.23v.09Zm.31,11.6a.48.48,0,0,1-.22.05l-.09.27A1.57,1.57,0,0,1,38.62,15.41Zm-.31,1.23v.13l.41-.31a1.08,1.08,0,0,1-.32,0A.56.56,0,0,0,38.31,16.64Zm0,1.31a2,2,0,0,0,0,.37l1-.91A2.54,2.54,0,0,1,38.31,18Zm0,1.05v.18a3,3,0,0,0,.27-.32s-.06,0-.11.07A.24.24,0,0,1,38.35,19Zm0,1.49v.09l.54-.63q.83-.82,2.31-2.22c.73-.67,1.56-1.41,2.5-2.23a21.61,21.61,0,0,0-2.45,2c-1,1-1.93,1.92-2.81,2.86Zm0,1.18v.14l.46-.55a3.7,3.7,0,0,0-.41.37ZM38.49,23c0,.36,0,.64,0,.82,1.12-.94,2.14-1.82,3-2.63a14.07,14.07,0,0,0,3.18-3.49A52.24,52.24,0,0,0,38.49,23Zm0,1.59a4,4,0,0,1,0,.5q2.22-2.13,4-3.86l-.82.68A33.61,33.61,0,0,1,38.53,24.62Zm.09,2.45v.49l3.9-3.89C41.35,24.63,40,25.77,38.62,27.07Zm.05,2.63v.36a1.15,1.15,0,0,0,.27-.27c3-2.72,4.82-4.54,5.58-5.44a5.49,5.49,0,0,0-.82.63c-.39.36-1,1-2,2C40.12,28.73,39.09,29.63,38.67,29.7ZM38.94,32a8.73,8.73,0,0,0,.59-.68c.48-.51,1.15-1.21,2-2.08-.88.75-1.79,1.55-2.72,2.4A1.74,1.74,0,0,0,38.94,32Zm1.63-4.53A13.75,13.75,0,0,0,38.85,29,19.22,19.22,0,0,0,40.57,27.43Zm-1.4-11.79a34.3,34.3,0,0,0,6.07-5q-2.58,2-4.12,3.31C40.33,14.58,39.68,15.16,39.17,15.64Zm3.08,9.2c1.45-1.51,2.33-2.28,2.63-2.31v-.41L39.4,27.61a4.63,4.63,0,0,0,.59-.5C40.44,26.72,41.19,26,42.25,24.84ZM40.8,12.92c-.48.42-.89.8-1.22,1.13l.45-.36ZM40.39,1c-.15.15-.4.45-.77.9L41.16.63c-.21,0-.42.08-.63.14A2.38,2.38,0,0,1,40.39,1ZM40,33.37a3.13,3.13,0,0,1,.23-.37l-.37.28A.42.42,0,0,1,40,33.37Zm4.72-16.78c-1,.88-1.91,1.7-2.72,2.45-.58.52-1.08,1-1.5,1.41.21-.18.41-.37.59-.55a20.13,20.13,0,0,1,3.63-2.76Zm.09,4.26a3.67,3.67,0,0,0-.37.32q-2.13,1.86-3.35,2.9c-.18.16-.35.31-.5.46l.63-.55a28.3,28.3,0,0,1,3.59-2.81Zm-2.18,11c.63-.61,1.42-1.33,2.36-2.18v-.18q-.51.54-2,1.86a11.37,11.37,0,0,0-2.36,2.22,10.64,10.64,0,0,0,1.36-1C42.16,32.34,42.39,32.1,42.66,31.83ZM45,26.66c-1.66,1.57-3.07,3-4.21,4.17L45,27.38A6.71,6.71,0,0,0,45,26.66Zm-3.49-8.34c1.6-1.33,2.68-2.2,3.22-2.59v-.32c-1.39,1.21-2.65,2.33-3.76,3.36ZM43,1V1L41.3,2.81c.88-.72,1.54-1.25,2-1.59A1.16,1.16,0,0,0,43,1ZM41.84,33.55a12.8,12.8,0,0,0,1.23-1.18c-.24.21-.49.41-.73.59Zm.09-5.67c.88-.63,1.52-1.1,1.91-1.4a5.53,5.53,0,0,0,.68-.64C44,26.2,43.14,26.88,41.93,27.88Zm.5,6a.56.56,0,0,0,.09-.14l-.18.18A.12.12,0,0,0,42.43,33.87ZM45.65,6.75a33.52,33.52,0,0,0-3.08,2.91A40.45,40.45,0,0,0,45.65,6.75Zm-.9,13.42.09,0a3.12,3.12,0,0,1-.05-.36l-.41.4c-.42.46-1,1-1.67,1.73C43.4,21.29,44.08,20.72,44.75,20.17Zm-1.91-8.43Q44.21,10.66,46.42,9l2.09-1.64.18-.18a.56.56,0,0,1-.14-.09c-.18.15-.78.61-1.81,1.36l-2,1.5c-.27.27-.7.68-1.27,1.22A4.67,4.67,0,0,1,42.84,11.74Zm3.45-4.12c-1.39,1.18-2.51,2.14-3.36,2.9l1.36-1C45.11,8.69,45.77,8.07,46.29,7.62Zm-1.64,6.89h.05a3.31,3.31,0,0,1-.05-.55l-1.26,1.09A2.59,2.59,0,0,1,44.65,14.51ZM44,2.9a1.74,1.74,0,0,0-.22.27c.27-.21.5-.37.68-.5a.55.55,0,0,0-.14-.22A1.57,1.57,0,0,1,44,2.9Zm1,21.81c-.09.12-.22.27-.37.45a.78.78,0,0,1,.37-.13ZM47,7a2,2,0,0,0-.27.18c.27-.21.5-.38.68-.5h-.09l-.14.14Zm-.18,5A29.66,29.66,0,0,0,50,9.16c-.42.33-1.24,1.07-2.44,2.22C47.25,11.68,47,11.91,46.83,12.06Zm.82.54a1.85,1.85,0,0,1,.22-.54c-.27.24-.49.44-.68.59A2.4,2.4,0,0,0,47.65,12.6Zm1.27-4.85q-.09,0-.09.09a1.41,1.41,0,0,1,.36-.27s0,0,0,0A.74.74,0,0,1,48.92,7.75Zm.86,3.13a2.4,2.4,0,0,0,.13-.32l-1.08,1.18a2.18,2.18,0,0,0,.31-.27C49.48,11.17,49.69,11,49.78,10.88Z"/><path class="a" d="M71.43,19.58a1.35,1.35,0,0,1-.3.64v.54a.32.32,0,0,1,.14.14c.15.15.1.41-.14.77q0,5.4,0,7.39a.33.33,0,0,1,0,.36,5.88,5.88,0,0,1,0,.77A4.17,4.17,0,0,1,70,33.41a4,4,0,0,1-2,1.09l-.14.11a.27.27,0,0,1-.18.07h0a.28.28,0,0,1-.19-.13h-.27a4.41,4.41,0,0,1-.86-.09,0,0,0,0,1,0,0l-.1.09c-.12.12-.24.11-.36,0a.19.19,0,0,1-.09-.23A4.72,4.72,0,0,1,65.1,34a.28.28,0,0,1-.18-.13,4.47,4.47,0,0,1-.73-.64,3.46,3.46,0,0,1-.81-1.54c0-.12-.06-.26-.09-.41a.29.29,0,0,1-.14-.13.36.36,0,0,1,.05-.5,2.57,2.57,0,0,0-.05-.5v0a.54.54,0,0,1-.13-.4,1.35,1.35,0,0,1,.13-.32q0-2,0-5.67a.3.3,0,0,1,0-.23c0-2,.06-3.46.09-4.39V19a1.83,1.83,0,0,0-.13-.95h0a.45.45,0,0,1-.27-.36.86.86,0,0,0-.27-.05h-.14l-1.27,1v0A.32.32,0,0,1,61,19h0a6.85,6.85,0,0,0-.73,2.95v1.4a.11.11,0,0,0,0,.09.21.21,0,0,1,0,.23.48.48,0,0,1-.09.27.26.26,0,0,1,.18.09,1,1,0,0,1,.14.5,2,2,0,0,1-.36.73c0,.39,0,.87,0,1.45a.28.28,0,0,1,0,.22V27h0v.31a.32.32,0,0,1,.23.09.5.5,0,0,1,.09.41,1.91,1.91,0,0,1-.32.68c0,.79,0,1.35,0,1.68a.58.58,0,0,1,0,.41,1.62,1.62,0,0,1-.05.4c.12.16.06.43-.18.82a4.88,4.88,0,0,1-.5,1.27,3.75,3.75,0,0,1-1.43,1.5,3.94,3.94,0,0,1-2,.54,2.47,2.47,0,0,1-.54-.05,3.57,3.57,0,0,1-2.4-1.31.25.25,0,0,1-.41,0,.54.54,0,0,1-.14-.49.49.49,0,0,1,.05-.19,3.19,3.19,0,0,1-.23-.45.68.68,0,0,1-.36-.18.23.23,0,0,1-.07-.2A.43.43,0,0,1,52,32a.56.56,0,0,1,.14-.09,5.66,5.66,0,0,1-.14-.81.73.73,0,0,1-.18-.14.5.5,0,0,1-.09-.41,1.41,1.41,0,0,1,.18-.45.22.22,0,0,1,0-.27,6.53,6.53,0,0,0,0-.73.39.39,0,0,1-.21-.14.23.23,0,0,1,0-.2.37.37,0,0,1,.11-.2l.09-.05c-.09-1.69-.15-3.38-.18-5.08a.14.14,0,0,1-.13-.09.26.26,0,0,1,0-.41l.13-.13V21.08a.85.85,0,0,1-.13-.63,1.56,1.56,0,0,1,.18-.46c0-.42,0-.86,0-1.31-.06,0-.09,0-.09-.05s-.12-.4.09-.68a3.62,3.62,0,0,0,0-.68l0,0a.26.26,0,0,1,0-.41l0-.05c0-.12,0-.34,0-.68h0a.48.48,0,0,1-.09-.4.69.69,0,0,1,.18-.41c0-.3,0-.52,0-.64a.2.2,0,0,1,0-.22.48.48,0,0,1,.09-.27V14a.46.46,0,0,1,.05-.21c0-.33.06-.74.09-1.22a.56.56,0,0,1-.14-.09c-.15-.18-.07-.44.23-.77.09-.67.18-1.39.27-2.18a.3.3,0,0,1,0-.23c.09-.63.21-1.55.37-2.76a.6.6,0,0,1,0-.16,1.68,1.68,0,0,0,0-.2.26.26,0,0,1-.18-.09c-.18-.25-.06-.62.36-1.14a5.27,5.27,0,0,0,0-.63.39.39,0,0,1,0-.18V4a.8.8,0,0,0,.05-.23,7.15,7.15,0,0,1,.32-1.27A3.17,3.17,0,0,1,54,1.81.18.18,0,0,1,54,1.63v0A3.45,3.45,0,0,1,57,.05a4.41,4.41,0,0,1,.86.09.39.39,0,0,0,.18,0h0c.12-.12.24-.1.36.05a.14.14,0,0,1,.09.13,4.29,4.29,0,0,1,1,.59.43.43,0,0,1,.37.18.49.49,0,0,1,.09.28v0A3.82,3.82,0,0,1,60.7,4c0,.63-.07,1.54-.13,2.71l.09.1a.48.48,0,0,1,.09.4.74.74,0,0,1-.09.32s0,0,0,0a.73.73,0,0,1,.14.45,1.67,1.67,0,0,1-.36.68V9.93a.48.48,0,0,1,.13.09q.22.27-.18.72V11A1.32,1.32,0,0,1,61,10.7a.56.56,0,0,1,.14.09,7.93,7.93,0,0,1,2-.41.71.71,0,0,1,.31-.09.26.26,0,0,1,.18.09h.23a8.91,8.91,0,0,1,1.54.14.52.52,0,0,1,.37-.16.24.24,0,0,1,.18.11.56.56,0,0,1,.09.14,6.92,6.92,0,0,1,2.76,1.27.15.15,0,0,1,.14.09l.09.09a3.45,3.45,0,0,1,.32.36,8.34,8.34,0,0,1,1.81,5.31V19a.26.26,0,0,1,.18.09A.66.66,0,0,1,71.43,19.58Zm-19.11.55s0,0,0,.09v.05l5.62-4.63c3-2.51,5-4.08,5.81-4.71a1.08,1.08,0,0,1-.32,0l-1,.73q-1.05.86-4,3.4a59,59,0,0,1-6,4.89A.2.2,0,0,0,52.32,20.13Zm0,.91v.09L58.53,16l4.71-3.81.68-.5a1.16,1.16,0,0,0,.14-.27Q61.71,13.15,52.27,21Zm0,.86v.36l2.09-1.86Zm0,1.13v.41a4,4,0,0,1,.5-.59c.3-.33.68-.71,1.13-1.13Zm0,1.95a6.31,6.31,0,0,1,1-.86,2.43,2.43,0,0,1-1,.45C52.3,24.78,52.32,24.92,52.32,25Zm0-6.39a3.62,3.62,0,0,0,0,.5,15.75,15.75,0,0,1,1.31-1.36,44.52,44.52,0,0,1,3.95-3.31c.57-.46,1.17-.91,1.81-1.36a8.47,8.47,0,0,0,1.22-1.45q-.09,0-.09.09a.54.54,0,0,0-.22.13l-.23.14q-.91.72-3.31,2.9A46.05,46.05,0,0,1,52.36,18.59Zm0,8.7V28c1.3-1,2.47-1.95,3.53-2.86a23.08,23.08,0,0,0,3.45-3.49c-.18.21-.52.54-1,1Q56.08,25,54.7,26.18a4.08,4.08,0,0,1-2.07,1.16h0A.41.41,0,0,1,52.41,27.29Zm0-11.1.09-.05A.14.14,0,0,0,52.45,16.19Zm0,12.73c0,.19,0,.29,0,.32l.68-.68c.18-.21.32-.36.41-.45A9.29,9.29,0,0,1,52.45,28.92Zm0-13.46a22.25,22.25,0,0,0,1.72-1.54l-.45.36a1.84,1.84,0,0,0-.27.23A9.77,9.77,0,0,0,52.5,15.46Zm.09,15a18.41,18.41,0,0,0,3.9-3c.81-.76,1.69-1.6,2.63-2.54-.34.24-.9.66-1.68,1.27l-.68.45a.14.14,0,0,1,0,.09Q53.32,30,52.54,30.24s.05,0,.05.09Zm7.25-9.84a3.3,3.3,0,0,1,.18-.82c-.15.12-.37.34-.68.64a64.19,64.19,0,0,1-6,5.26c-.48.54-.71.9-.68,1.08.28,0,1-.43,2.13-1.4q1.05-1,3.22-3.13A8.33,8.33,0,0,1,59.84,20.63ZM52.68,31.46c1.3-1,2.48-2,3.53-2.94a34.17,34.17,0,0,0,3-2.95L57,27.75q-3.23,2.94-4.36,3.31A1.62,1.62,0,0,0,52.68,31.46Zm.86-18a6.26,6.26,0,0,0-.86.77,3.23,3.23,0,0,0,.77-.45c.15-.15.32-.3.5-.46a.48.48,0,0,0,.13-.09,5.07,5.07,0,0,0,.55-.5C54.21,13.09,53.84,13.33,53.54,13.51Zm-.27,11.38c-.24.21-.44.39-.59.54a1.54,1.54,0,0,1,.23-.18ZM66.64,11.38a1.24,1.24,0,0,1-.36.41c-.18.18-.47.44-.86.77l-3,2.49q-4.53,3.81-6.53,5.58a29.78,29.78,0,0,0-3.22,3.17,33.39,33.39,0,0,0,2.68-2.08Q57,20.4,60.88,17q5.35-4.77,6.31-5.35A5,5,0,0,0,66.64,11.38Zm-13.82.77,0,.23c.15-.18.33-.38.54-.59C54,11.12,54.84,10.26,56,9.2a.68.68,0,0,1,.18-.13l-.82.68C54.51,10.5,53.66,11.3,52.82,12.15Zm4-2Q58.35,8.75,60,7.07a4.88,4.88,0,0,0,0-.68q-6.3,5.4-7.11,6.8a1.15,1.15,0,0,0,.31-.18l2.13-1.63.5-.36Zm-3.71-.37A1.65,1.65,0,0,0,53,10a3,3,0,0,0,.27-.32Zm.22-1.9-.09.72c.15-.12.41-.34.77-.68,1.61-1.42,2.78-2.49,3.54-3.22a12.32,12.32,0,0,0,1.95-2.17,5.32,5.32,0,0,0-1.45,1l-.41.32c-.42.36-.89.78-1.41,1.27-1,.9-1.94,1.83-2.85,2.76A0,0,0,0,1,53.31,7.89Zm5.31,3.58c.66-.63,1.09-1,1.27-1.18V10l-6.53,6.12c.42-.3.91-.68,1.45-1.13C55.66,14.25,56.92,13.07,58.62,11.47ZM53.36,32.78l6.3-5.08v-.27c-.48.33-1,.69-1.49,1.09s-1.08,1-1.77,1.54c-.25.21-.5.44-.77.68a20.35,20.35,0,0,1-2.23,2S53.36,32.75,53.36,32.78ZM60,4.08,58.84,5.17c-.9.88-1.69,1.6-2.35,2.17s-1,1-1.41,1.36q-1.17,1.19-1.68,1.77l.46-.31c.57-.52,1.27-1.14,2.08-1.86q2-1.82,4.13-3.54s0,0,0,0a5.08,5.08,0,0,1,0-.72V3.94A.73.73,0,0,0,60,4.08Zm-6.3,29.47A17.13,17.13,0,0,1,56.53,31c1.15-.9,1.95-1.55,2.41-1.94l-5.4,4.35A.73.73,0,0,0,53.68,33.55ZM53.59,5.8a3.91,3.91,0,0,0,.31-.27A3.91,3.91,0,0,1,53.59,5.8Zm.86,28.34a1.51,1.51,0,0,1,.41-.59l-.59.45A.73.73,0,0,0,54.45,34.14ZM60,2.77c-.33.69-2.21,2.56-5.62,5.62l0,0c.45-.36,1-.81,1.63-1.36a1,1,0,0,1,.23-.18c.57-.57,1.27-1.22,2.08-1.95l.28-.23,1-1,.54-.5A1.57,1.57,0,0,0,60,2.77ZM56.62,2.4c-1.06.91-1.8,1.57-2.22,2,.46-.39.88-.74,1.27-1.05C57.45,1.9,58.44,1.12,58.62,1A1,1,0,0,1,58.3.86a1.59,1.59,0,0,1-.32.32C57.77,1.39,57.32,1.8,56.62,2.4Zm-.95,31.74.14-.14-.55.41.05.05.27-.28A.12.12,0,0,0,55.67,34.14ZM57.3.63,56,1.86,57.48.63Zm2.13,30.92-.22.19c-.55.51-1.39,1.26-2.54,2.26a3.74,3.74,0,0,0-.59.55,3.25,3.25,0,0,0,1.09-.19.17.17,0,0,1,0-.13A19.14,19.14,0,0,0,59.43,31.55Zm.23-8.2v-.46l-3.45,3.45a1,1,0,0,0,.19-.14A19.39,19.39,0,0,1,59.66,23.35Zm2.77-6.44c.78-.63,1.48-1.21,2.08-1.72a30.47,30.47,0,0,0,2.36-2.27,3.14,3.14,0,0,0,.59-.82q-1,.6-6.21,5.26-3.45,3.09-4.94,4.36c.33-.28.74-.59,1.22-1,1.39-1.05,2.43-1.87,3.13-2.44a2.6,2.6,0,0,1,1.49-1.18l.05-.05.09-.09A.56.56,0,0,1,62.43,16.91Zm-5.76-4.67,1.45-1.36a2.56,2.56,0,0,1-.27.23C57.51,11.41,57.12,11.79,56.67,12.24ZM59.16,1.68a13.07,13.07,0,0,0-1.72,1.54A1.54,1.54,0,0,0,57.67,3,17.51,17.51,0,0,0,59.16,1.68Zm.05,7.57a8,8,0,0,0,.72-.73V8.43a17.46,17.46,0,0,1-1.31,1.18,3.18,3.18,0,0,0-.45.45A6.63,6.63,0,0,1,59.21,9.25Zm.45,20.9V30a12,12,0,0,1-1,1Zm0-18.59.18-.18Zm5.94-.45-2.81,2.54c-.39.36-.86.77-1.41,1.22l-.5.45L66,11.2Zm-4.22.18a2,2,0,0,1-.18.5c.24-.18.5-.37.77-.55l.14-.13Zm2.18,6.44.09.18a2.56,2.56,0,0,0,.23-.27l.95-1,.09-.09C64.47,17,64,17.36,63.56,17.73Zm.14,9.61v.59a72.07,72.07,0,0,0,6.84-6.44v-.18a4.4,4.4,0,0,0-.45.27c-.79.82-1.54,1.56-2.27,2.22a29.75,29.75,0,0,1-2.54,2.13C64.38,26.87,63.85,27.34,63.7,27.34Zm2.35-5.71c-.78.69-1.55,1.39-2.31,2.08a.33.33,0,0,1,0,.14Zm-1.63,2.49,1-.95c-.54.45-1.07.9-1.58,1.36a.39.39,0,0,1-.18,0v.23h0A7.15,7.15,0,0,1,64.42,24.12ZM64,25.66h0l-.22-.09v.27Zm-.27,3.9v.09a16.52,16.52,0,0,0,2.58-2.45c-.7.55-1.24,1-1.63,1.32A6.13,6.13,0,0,0,63.7,29.56Zm0-1v.13a.68.68,0,0,0,.18-.13A.19.19,0,0,1,63.7,28.52Zm.45-7.17a1,1,0,0,1-.36.09h0v.28A4.13,4.13,0,0,0,64.15,21.35Zm.95-2.58a5.51,5.51,0,0,1-1.31,1.13v.68a77.61,77.61,0,0,0,5.71-5.66,7.72,7.72,0,0,0-1.68,1.22l-.13.14c-.31.27-.65.59-1,.95Zm-1.31-.23a3,3,0,0,1,0,.55l.27-.28c.24-.24.7-.66,1.36-1.27l.87-.77c.36-.36.67-.66,1-.9a6.29,6.29,0,0,0,.63-.64l.32-.31c-1.15.93-2.58,2.13-4.31,3.58A.3.3,0,0,0,63.79,18.54ZM64,31.6c1.06-.94,2-1.84,2.94-2.72a2.26,2.26,0,0,0,.32-.27,18.24,18.24,0,0,1-3.35,2.63c0,.12.06.22.09.31Zm5.26-11,1.31-1.27v-.09a11.34,11.34,0,0,1-.86.86c-.48.45-1.39,1.27-2.72,2.45l-2.49,2.26a9.77,9.77,0,0,0,1.58-1.17Q67.1,22.71,69.23,20.63Zm-3,8.16c-.76.6-1.3,1-1.63,1.31.33-.24.74-.56,1.22-1A5,5,0,0,1,66.19,28.79Zm-1.41,3.85a26.53,26.53,0,0,0,2.27-2.13q2.81-2.81,3.45-2.9v-.54L69,28.33a2.56,2.56,0,0,1-.36.41c-1.48,1.48-2.53,2.48-3.13,3A5.93,5.93,0,0,0,64.78,32.64Zm.23.55H65l.05,0ZM68.27,32a13.08,13.08,0,0,0,2.27-2.58,5.06,5.06,0,0,0-1.18.86q-.63.54-2,1.95c-.81.79-1.34,1.28-1.58,1.49a4.56,4.56,0,0,0,.49.19C67,33.2,67.67,32.57,68.27,32Zm-2.22-5.3c.24-.21.53-.44.86-.68,1.24-1,2.09-1.65,2.54-2l.55-.55C69.15,24.06,67.84,25.15,66.05,26.66Zm.86.72-.31.32c1.05-.88,1.86-1.56,2.4-2a8,8,0,0,0,1.41-1.45,3.82,3.82,0,0,0-1.23.86C68.73,25.46,68,26.23,66.91,27.38Zm1.41,5.9c.66-.73,1.15-1.27,1.45-1.64L67,34h.27a1.73,1.73,0,0,0,.41,0,.14.14,0,0,0,.09-.05A7.75,7.75,0,0,1,68.32,33.28Zm1.45-17c-.36.3-1.09,1-2.18,2.09L69,17.07A7.1,7.1,0,0,0,69.77,16.23Zm.73.5a1.7,1.7,0,0,0,0-.41A20.06,20.06,0,0,1,67.73,19l2.72-2.23S70.47,16.73,70.5,16.73Zm-2.41-4.67a3,3,0,0,1-.31.63,2.86,2.86,0,0,0,.27-.31,1,1,0,0,1,.22-.18A.73.73,0,0,1,68.09,12.06Zm.73,1.54-.64.64a5,5,0,0,1,1.14-.82.73.73,0,0,0-.14-.18v0A2.75,2.75,0,0,0,68.82,13.6Zm1.13,15c-.36.3-.89.79-1.58,1.45C69.09,29.38,69.62,28.89,70,28.56ZM68.82,12.69l0,.05h0Zm.81,1.23a1.56,1.56,0,0,1-.18.41,1.28,1.28,0,0,1,.28-.05h.09C69.75,14.16,69.7,14,69.63,13.92Zm.59,1.49c0-.15-.06-.28-.09-.4l-.54.68C69.86,15.48,70.07,15.38,70.22,15.41Zm0,5-.49.5a.12.12,0,0,1,.09-.05A5.39,5.39,0,0,0,70.22,20.45Zm.32-2.09v-.18l-.59.59A3,3,0,0,1,70.54,18.36Zm0,7.57a4.63,4.63,0,0,1-.55.73,3.11,3.11,0,0,1,.55-.41Zm0,4.49v0Z"/><path class="a" d="M82.69,19a.12.12,0,0,1,0,.09.14.14,0,0,1-.09.05V20l0,0a.49.49,0,0,1,0,.59c0,.85,0,1.76,0,2.72a.26.26,0,0,1,.18.09.59.59,0,0,1,.09.46,1.58,1.58,0,0,1-.32.59v.9a.26.26,0,0,1,0,.41h0v1.63c0,.82-.08,1.79-.14,2.9a.52.52,0,0,1,0,.59A3.18,3.18,0,0,1,82,32a.39.39,0,0,1,0,.32s0,0,0,0,0,0,0,0a4.08,4.08,0,0,1-1,1.39,3.42,3.42,0,0,1-1.48.75.79.79,0,0,1-.31.13h0a.12.12,0,0,1-.09,0h-.41a4.86,4.86,0,0,1-1-.09s0,0,0,0,0,0,0,0a.24.24,0,0,1-.21.07.44.44,0,0,1-.2-.11.19.19,0,0,1,0-.23,3.45,3.45,0,0,1-1.27-.95l-.05,0a.2.2,0,0,1-.2.07.36.36,0,0,1-.21-.11.43.43,0,0,1,0-.55l-.09-.18-.05,0a.32.32,0,0,1-.09-.23,4.88,4.88,0,0,1-.23-.64s-.06,0-.09-.09a.37.37,0,0,1-.09-.36.87.87,0,0,1,.05-.23c0-.36-.05-.74-.05-1.13a.31.31,0,0,1,0-.32v-.63a.26.26,0,0,1-.18-.09c-.15-.21-.07-.52.23-.91V26c.06-2.11.1-3.59.13-4.44-.06,0-.09,0-.09,0s-.09-.33.09-.54c0-1.24,0-2.31,0-3.22t-.09-.09c-.12-.15-.08-.35.14-.59v-.22a.46.46,0,0,1-.19-.1.73.73,0,0,1-.13-.45,1.44,1.44,0,0,1,.32-.63v-.14a.46.46,0,0,1,0-.45v-.5l0,0a.51.51,0,0,1-.14-.45,1.56,1.56,0,0,1,.18-.41v0a.44.44,0,0,1-.14-.41,2.83,2.83,0,0,1,.19-.46v-.36a.15.15,0,0,1,0-.18V12.1a5.78,5.78,0,0,1,0-.77.29.29,0,0,1,0-.31c0-1.18,0-2,0-2.54a4.88,4.88,0,0,0,0-.68s0,0,0,0c-.13-.15-.09-.36.09-.63,0-.27.06-.59.09-1a.24.24,0,0,1,0-.37l0,0c0-.43.08-.91.14-1.45a.2.2,0,0,1,0-.14,4,4,0,0,1,.05-.54.14.14,0,0,0-.09,0q-.18-.22.18-.72a.14.14,0,0,1,.05-.09A6,6,0,0,1,76.07,2a.24.24,0,0,1,.05-.31.14.14,0,0,0,.09-.05l.09-.09A3.37,3.37,0,0,1,77.89.27a.12.12,0,0,1,.09,0A3.56,3.56,0,0,1,79.11.05h.32a3.51,3.51,0,0,1,1.86.72A.71.71,0,0,1,81.6.68a1,1,0,0,1,.32.14.59.59,0,0,1,0,.63,3.67,3.67,0,0,1,.73,2.49c0,.34-.05.71-.05,1.14a.26.26,0,0,1,.18.09.57.57,0,0,1,.09.32,1.28,1.28,0,0,1-.31.54V7.44a.12.12,0,0,0,.09,0,.64.64,0,0,1,.09.36,2.61,2.61,0,0,1-.14.32v1a.56.56,0,0,1,.14.09.49.49,0,0,1,.07.32.94.94,0,0,1-.21.41s0,.09,0,.18a1.11,1.11,0,0,1,0,.23.21.21,0,0,1,0,.31c0,.88,0,1.58,0,2.09v.91c.21.24.2.56,0,.95v1.54a.73.73,0,0,1,.18.14c.12.15.07.33-.14.54a.14.14,0,0,0-.09.05v1.63a.15.15,0,0,1,.14.09C82.86,18.8,82.84,18.92,82.69,19ZM75.3,28.92c.18-.18.56-.52,1.14-1,1.17-1.06,2.1-1.9,2.76-2.54l-3.9,3.18v.4Zm0-2.63v.19a64.66,64.66,0,0,0,6.57-6,9.47,9.47,0,0,0-1.4,1c-.58.52-1.5,1.38-2.77,2.59A15.55,15.55,0,0,1,75.35,26.29Zm0-1.22a1.33,1.33,0,0,0,0,.32l.72-.73a.56.56,0,0,1,.14-.09A2.16,2.16,0,0,1,75.39,25.07Zm0,5.89a2.18,2.18,0,0,0,.32-.27.2.2,0,0,1-.14,0A1.42,1.42,0,0,1,75.39,31Zm0-9.61v.41c.15-.18.33-.38.54-.59l2.5-2.45.18-.18Q77.11,19.86,75.44,21.35Zm0-1.36v.41c.31-.27.91-.77,1.82-1.49,1.63-1.33,2.78-2.32,3.44-2.95a8.52,8.52,0,0,0,1.14-1.18C80.64,15.81,78.51,17.54,75.48,20Zm0-2.49v.59l.59-.59,2.36-2.4C77.54,15.85,76.56,16.65,75.53,17.5ZM82,18.72V18.5l-.9.72c-1.67,1.36-2.91,2.41-3.72,3.13a10.26,10.26,0,0,0-1.86,2C76,24,77,23.11,78.75,21.53A42,42,0,0,1,82,18.72Zm-6.44-2.81V16c.49-.36,1.47-1.23,3-2.59a24.63,24.63,0,0,0-2,1.64A5.73,5.73,0,0,0,75.57,15.91Zm.05-2.08c.69-.49,2-1.53,3.85-3.13l-.09,0c-1.36,1-2.3,1.71-2.81,2.14A6.91,6.91,0,0,0,75.62,13.83ZM75.71,10v.41c.21-.21.62-.59,1.22-1.14a49,49,0,0,0,4.81-4.58,12.24,12.24,0,0,0-3.17,2.45c-1,1-1.92,1.91-2.77,2.81A.14.14,0,0,1,75.71,10Zm.23-3.81a1.65,1.65,0,0,0,0,.23c.36-.33,1-.92,2-1.77A34.15,34.15,0,0,0,81.2,1.5a29.49,29.49,0,0,0-2.63,2.4A21.6,21.6,0,0,1,75.94,6.21Zm2,4q1.8-1.5,3.9-3.31A.29.29,0,0,1,82,6.85V6.62c-.42.39-1.24,1.07-2.45,2-1.36,1.06-2.28,1.81-2.76,2.27a5.13,5.13,0,0,0-.91,1,1.54,1.54,0,0,1,.23-.18C76.54,11.33,77.13,10.85,77.89,10.25ZM79.2,10c-.39.31-.71.55-1,.73-.73.6-1.32,1.07-1.77,1.4a7,7,0,0,1-.59.55C76.59,12.14,77.69,11.24,79.2,10Zm2.72-7.2-.5.49c-.3.28-.87.78-1.72,1.5a35.51,35.51,0,0,0-3.76,3.49,7.5,7.5,0,0,0,1.45-1c.39-.3.86-.7,1.4-1.18a5,5,0,0,1,.41-.36C80.11,4.82,81,3.91,82,3A.41.41,0,0,0,81.92,2.77ZM76.07,4.49A3,3,0,0,1,76,5l1-1.18A5.28,5.28,0,0,1,76.07,4.49ZM79.65,15c.49-.46.85-.8,1.09-1s.46-.44.66-.61.34-.28.43-.34a.48.48,0,0,1,.27-.09v-.68q-4.26,4.3-5.94,6c.25-.18.55-.42.91-.73C77.61,17.06,78.48,16.22,79.65,15ZM76.93,33.14l.41-.36c1.21-1.12,2.13-2,2.77-2.68.48-.51.86-.93,1.13-1.27l-5,4.08a3.38,3.38,0,0,0,.5.5A1.21,1.21,0,0,1,76.93,33.14Zm5.13-16.46v-.59q-3.86,3.63-5.72,5.54,1.18-1.14,4.08-3.54L82,16.73A0,0,0,0,0,82.06,16.68Zm-.23,10c0-.24,0-.39,0-.45q-3.22,2.76-5,4.58l1-.86C80.09,27.88,81.44,26.79,81.83,26.7Zm.09-4.3a1.51,1.51,0,0,1,0-.28,4.13,4.13,0,0,0-.41.37q-.54.5-2.13,1.86c-1,.84-1.77,1.48-2.22,1.9ZM77.3,33.73l.27-.27-.32.27ZM81.74,9.52,80.15,11l-2.4,2.13Q79.7,11.51,82,9.52V9.29A2.56,2.56,0,0,1,81.74,9.52ZM78.7,34a8.08,8.08,0,0,1,1.68-2l.82-.81c-.79.63-1.83,1.54-3.13,2.72a4.18,4.18,0,0,0,.59,0ZM78.11.86a.56.56,0,0,1,.14-.09h0Zm2.31.05L78.11,3.49h0q1.95-1.9,2.58-2.4A2.28,2.28,0,0,0,80.42.91Zm.69,29.33c-.46.36-1.18,1-2.18,2a4.39,4.39,0,0,0-.36.32,3.83,3.83,0,0,1,.45-.36C80.05,31.28,80.74,30.63,81.11,30.24ZM79.65.63a1.48,1.48,0,0,1-.36.5,6.12,6.12,0,0,0,.5-.45A.26.26,0,0,1,79.65.63ZM81.42,32l.09-.18c-.18.15-.42.38-.72.68a11.71,11.71,0,0,0-1,.95C80.29,33,80.82,32.54,81.42,32Zm.68-20.49a.26.26,0,0,1,0-.18q-.91.81-1.86,1.68c.21-.19.44-.37.68-.55.63-.51,1-.8,1.09-.86A.48.48,0,0,0,82.1,11.47ZM81.56,2a15.69,15.69,0,0,1-1.27,1.31c.42-.36.88-.74,1.36-1.13Zm.36,21.72v-.19c-.27.31-.63.68-1.09,1.14C81.2,24.29,81.56,24,81.92,23.67Zm.09-6a.34.34,0,0,0,0-.14l-.73.73ZM81.79,29.2v-.09c-.07.06-.1.1-.1.13A.13.13,0,0,1,81.79,29.2Zm.27-25.26v0l-.23.23h0a.39.39,0,0,1,.18,0V3.94Zm0,9.93v0h0a1.84,1.84,0,0,1-.23.27A1.26,1.26,0,0,1,82,14Zm-.09,6v-.09a.12.12,0,0,0-.09.06c0,.05-.06.07-.09.07A.39.39,0,0,1,82,19.86ZM81.88,5.44A.48.48,0,0,1,82,5.35V5.26A.68.68,0,0,1,81.88,5.44Z"/><path class="a" d="M107,13.33a3.62,3.62,0,0,1,0,1.27,21.07,21.07,0,0,1-.68,2.49.25.25,0,0,1,0,.41l-.09.09q-.31,1.05-.81,2.31v.23a1.91,1.91,0,0,1-.36.77c-.07.18-.13.33-.19.45a.46.46,0,0,1,0,.21.28.28,0,0,1-.09.2,1.26,1.26,0,0,1-.18.14l-.27.63c-.22.58-.38,1-.5,1.27s-.22.64-.37,1a.87.87,0,0,1,.1.54,2.69,2.69,0,0,1-.78,1.27c-.12.3-.22.55-.31.73a.32.32,0,0,1-.05.36h0a.14.14,0,0,1,0,.09l-.27.73a.78.78,0,0,1,0,.45,3,3,0,0,1-.72,1.36c-.15.36-.32.8-.5,1.31a.22.22,0,0,1,0,.23,1,1,0,0,1-.37.59,2.78,2.78,0,0,1-.16.45c-.07.19-.13.31-.15.37-.55,1.48-.94,2.55-1.18,3.22a.37.37,0,0,1,0,.31,1.62,1.62,0,0,1-.45.77c-.15.4-.29.74-.41,1.05v0c.21.24,0,.65-.5,1.23-.12.33-.24.65-.36,1a.26.26,0,0,1-.09.27c-.09.27-.2.54-.32.82a5.66,5.66,0,0,0-.18.54l0,.05c.12.15.07.33-.14.54l-.14.14c-.15.42-.28.77-.4,1a.36.36,0,0,1,0,.13.24.24,0,0,1-.09.32.14.14,0,0,1-.09,0s0,.06-.09.09a3.5,3.5,0,0,1-3.08,1.63,4,4,0,0,1-1.18-.18,1.86,1.86,0,0,1-.37-.14c-.12.06-.21.08-.27.05a.32.32,0,0,1-.23-.09.27.27,0,0,1-.09-.28l-.36-.27c-.12.06-.21.08-.27,0a.32.32,0,0,1-.23-.09.31.31,0,0,1,0-.32h0a.68.68,0,0,1-.32-.18.5.5,0,0,1-.09-.41.45.45,0,0,1,.09-.23,2.85,2.85,0,0,1-.27-.63.33.33,0,0,1-.14,0,.28.28,0,0,1-.18-.13c-.15-.18-.09-.45.18-.82a3.31,3.31,0,0,1,0-1l.09-.27v-.14a.72.72,0,0,1,.18-.45.65.65,0,0,0,0-.18l.55-1.59v-.09A.26.26,0,0,1,89.9,39c.09-.27.21-.65.36-1.13-.12-.16,0-.38.23-.68v0a.46.46,0,0,0,.09-.18l0-.05a.86.86,0,0,1-.18-.68A3.24,3.24,0,0,1,91,35v0a1.61,1.61,0,0,1,.5-.73.3.3,0,0,0,0-.13,1,1,0,0,1,0-.32,2,2,0,0,1,.45-.77,1.54,1.54,0,0,0-.18-.91.27.27,0,0,1-.23-.13.14.14,0,0,1,0-.18.46.46,0,0,1,0-.19,3.49,3.49,0,0,0-.18-.4.32.32,0,0,1-.32-.09.26.26,0,0,1,0-.41l0,0c-.48-1.06-1-2.07-1.4-3h-.09a.32.32,0,0,1-.23-.09.25.25,0,0,1,0-.4l0-.05a2,2,0,0,0-.18-.36h0a.65.65,0,0,1-.31-.18c-.12-.15-.09-.32.09-.5-.37-.82-.7-1.6-1-2.36a.26.26,0,0,1-.18-.09.28.28,0,0,1,0-.41c-.21-.54-.42-1.07-.64-1.58h0a.29.29,0,0,1-.23-.1.48.48,0,0,1-.09-.4.54.54,0,0,1,.09-.28c-.27-.75-.51-1.45-.72-2.08a.14.14,0,0,1-.09-.05.24.24,0,0,1,0-.31c-.42-1.3-.72-2.39-.91-3.27a3.27,3.27,0,0,1,0-.54.14.14,0,0,1-.09,0,.59.59,0,0,1,0-.63,1.73,1.73,0,0,1,0-.41v-.18a.53.53,0,0,1,.09-.5,3.28,3.28,0,0,1,.91-1.61,3.42,3.42,0,0,1,1.63-.88,4,4,0,0,1,.86-.09,4,4,0,0,1,1.18.18h0a.26.26,0,0,1,.18.09A3.73,3.73,0,0,1,91.62,12c.12.28.26.64.41,1.09a.16.16,0,0,0,0,.14,30.6,30.6,0,0,0,1.26,3.08h0a.41.41,0,0,1,0,.18c.09.21.19.46.31.73h0a.18.18,0,0,1,.18.09.34.34,0,0,1,0,.41l.11.22a.46.46,0,0,1,.07.18.53.53,0,0,1,.23.19q.14.13,0,.36l.22.45a.41.41,0,0,1,.19,0,.25.25,0,0,1,.22.13c.09.12,0,.29-.13.5a4.69,4.69,0,0,0,.31.68,0,0,0,0,0,0,.05.48.48,0,0,1,.09.27.3.3,0,0,0,0,.13l.05.14h0a.29.29,0,0,1,.22.09.49.49,0,0,1,0,.5c.06.12.12.26.18.41H96a.3.3,0,0,1,.19.09.12.12,0,0,1,0,.09l.09-.09c.15-.42.3-.82.46-1.18v-.32a2.08,2.08,0,0,1,.49-.95c.12-.27.25-.56.37-.86a.42.42,0,0,1,0-.27,2.19,2.19,0,0,1,.5-1,.92.92,0,0,0,.11-.2l.11-.25c.58-1.36,1-2.37,1.27-3-.21-.24,0-.71.55-1.4a3.57,3.57,0,0,1,2-2.18l.09,0a.2.2,0,0,1,.22,0,3.32,3.32,0,0,1,1-.13,4.58,4.58,0,0,1,.9.09l.36.09a1.39,1.39,0,0,1,.32,0,.4.4,0,0,1,.27.14.2.2,0,0,1,0,.22,4.1,4.1,0,0,1,1,.91.2.2,0,0,1,.14,0,.17.17,0,0,1,.18.13.32.32,0,0,1,.09.32.8.8,0,0,1,0,.23,6.67,6.67,0,0,1,.23.72A.26.26,0,0,1,107,13.33ZM87.77,11.92c-1,.94-1.69,1.59-2,1.95.37-.27,1-.77,1.77-1.49a2.67,2.67,0,0,1,.55-.5,1.21,1.21,0,0,1,.22-.27l.82-.77a1.39,1.39,0,0,1-.32-.05,1.37,1.37,0,0,1-.32.41ZM86,15.82l2.4-2.49c-.09.09-.23.21-.41.36a21.17,21.17,0,0,1-2.13,1.72A2,2,0,0,0,86,15.82Zm.22.91c.36-.3.71-.61,1-.91l1.86-1.77c.49-.48.88-.89,1.18-1.22q-1.59,1.23-4.17,3.63A1.39,1.39,0,0,0,86.18,16.73Zm.18.63a2.44,2.44,0,0,0,.14.46l.41-.5,2-2c.9-.9,1.52-1.54,1.86-1.9a10.09,10.09,0,0,0-.82.68,3.45,3.45,0,0,0-.36.32L89,15l-1.31,1.23s-.05,0-.05,0A10.36,10.36,0,0,1,86.36,17.36Zm.32-5.44a.73.73,0,0,0-.14.18c.13-.12.29-.3.5-.54a6.4,6.4,0,0,0,.64-.63l-.27.09a1.36,1.36,0,0,1-.23.36A5.24,5.24,0,0,1,86.68,11.92ZM87,19.13a4.53,4.53,0,0,1,.46-.5c.21-.24.62-.66,1.22-1.27q1.41-1.35,2-2l-3.94,3.27A4.08,4.08,0,0,1,87,19.13Zm2.86-8.07c-.45.43-.91.83-1.36,1.23a3.91,3.91,0,0,0-.5.49c-.48.46-.88.85-1.18,1.18l.82-.72a25,25,0,0,1,2.49-2A1.16,1.16,0,0,1,89.81,11.06Zm-2.59,8.66h-.09v.05A.14.14,0,0,1,87.22,19.72Zm.55,1c.6-.45,1.54-1.22,2.81-2.31a4.39,4.39,0,0,1-.36.32c-1,.72-1.64,1.24-2,1.54Zm.13,1.14a2,2,0,0,0,.23-.28c.18-.21.45-.51.82-.9.15-.18.31-.36.5-.55q-1.14,1-1.68,1.32A3.15,3.15,0,0,0,87.9,21.81Zm.28.59a1.74,1.74,0,0,0,.13.36l1.09-1.09c.36-.33.71-.68,1-1A25.61,25.61,0,0,1,88.18,22.4Zm.59,1.49c2.17-2.26,3.71-3.9,4.62-4.89a16.74,16.74,0,0,0-2.54,2.08c-.33.3-.68.64-1,1l-1.27,1.27A3.13,3.13,0,0,0,88.77,23.89Zm.36.95a2.4,2.4,0,0,1,.23-.45.87.87,0,0,1-.37.09A1.14,1.14,0,0,1,89.13,24.84Zm2-11c-.33.37-.92,1-1.77,1.82,1.3-1.06,2.09-1.68,2.36-1.86l-.14-.41v-.05A4.82,4.82,0,0,1,91.08,13.87Zm-1.59,11.7a.14.14,0,0,0,.09-.05.17.17,0,0,1-.13,0,.3.3,0,0,0,0,.13Zm0,16.59.73-.72q1.31-1.32,3.71-3.45,1.5-1.37,3.36-3c-.3.22-.65.47-1,.78a8,8,0,0,1-.68.49c-.12.12-.28.26-.46.41q-2,1.81-5.07,4.76a4.85,4.85,0,0,1-.5.46v0A.41.41,0,0,0,89.49,42.16Zm.23-17.27a14.4,14.4,0,0,0,2.72-2.18c.69-.63,1.43-1.33,2.22-2.08-.06-.15-.14-.32-.23-.5l-.18.14C93,21.41,92,22.32,91.4,23A9.81,9.81,0,0,0,89.72,24.89Zm.13,1.63a.28.28,0,0,1,.07.09.15.15,0,0,1,0,.09c.34-.33.68-.66,1-1A5.9,5.9,0,0,1,89.85,26.52Zm.14,18a4.2,4.2,0,0,0,.63-.4,1.75,1.75,0,0,1-.58.22.39.39,0,0,0-.1.14S90,44.44,90,44.47Zm.54-32.86a2.05,2.05,0,0,1-.45.63c.3-.21.53-.36.68-.45A1.54,1.54,0,0,0,90.53,11.61Zm-.31,15.77s0,0,.06.07a.3.3,0,0,1,0,.11c.69-.6,1.34-1.2,2-1.81C91.32,26.54,90.64,27.08,90.22,27.38Zm.09,12.15a1.85,1.85,0,0,1-.09.23s.07,0,.13-.09l.41-.32A2.31,2.31,0,0,1,90.31,39.53Zm2.76-22.48a1.42,1.42,0,0,0-.18.22l-1.22,1.27q-1,1-1.41,1.5l1.41-1.18L93,17.77a2.26,2.26,0,0,0,.27-.23Zm-2.54,26c.55-.45,1.44-1.13,2.68-2l1.18-1.22c-1.27,1-2.22,1.76-2.86,2.31C91.14,42.48,90.81,42.8,90.53,43.07Zm.32-15,.77-.68a22.22,22.22,0,0,1,2.13-2c.76-.72,1.3-1.27,1.63-1.63a12.37,12.37,0,0,0-1.13.95c-.57.49-1.4,1.24-2.49,2.27-.67.67-1.06,1-1.18,1.13a.26.26,0,0,0,.09.14A.51.51,0,0,0,90.85,28.11ZM92.17,15a2.09,2.09,0,0,0-.19-.37,10.35,10.35,0,0,1-1.36,1.55A11.22,11.22,0,0,1,92.17,15ZM90.76,45.29a7.07,7.07,0,0,1,.5-.54l-.59.45Zm.09-7.3a.2.2,0,0,0,0,.14l-.09.18c.21-.18.48-.39.81-.64A1.75,1.75,0,0,1,90.85,38Zm2.77-18.36-1.86,1.95c-.3.3-.62.63-1,1l2.31-2.09c.51-.48.86-.81,1-1a.93.93,0,0,0-.18-.31Zm4.89,11.29q-5.67,4.76-7.21,6.26a26.68,26.68,0,0,0,2.18-1.68c.94-.82,2.45-2.19,4.53-4.13A5.64,5.64,0,0,0,98.51,30.92Zm-6.84-1c.24,0,.89-.43,2-1.36.66-.64,1.87-1.86,3.62-3.68.18-.21.35-.39.5-.54l-5.62,4.58a1.94,1.94,0,0,0-.5.91A.14.14,0,0,0,91.67,29.88Zm.09,5.44c0,.06-.08.16-.14.31l8-6.48c-.79.58-1.92,1.38-3.4,2.4l-1,.68a.48.48,0,0,1-.13.09C93.22,34.05,92.12,35,91.76,35.32Zm.32,10.51a4.14,4.14,0,0,1,.4-.68c-.3.25-.56.44-.77.59A.81.81,0,0,0,92.08,45.83Zm-.28-15a4.49,4.49,0,0,0,.23.41l1.45-1.13,2.22-2.09c1-1,1.88-1.77,2.54-2.4Q95.26,28.15,91.8,30.87Zm3.54-6c-.27.21-.53.42-.77.63s-.29.23-.41.32c-.39.39-1,.95-1.81,1.68l-.09.09-.09.09-.09.09a15.28,15.28,0,0,0,1.22-1Q94.16,26,95.34,24.89ZM94.48,40.8l-.18.14c-.31.21-.55.39-.73.54-.6.58-1.1,1.05-1.49,1.41a3.23,3.23,0,0,0,.49-.41c.31-.24.62-.51,1-.82Zm4.4-5.71a4.71,4.71,0,0,0,.2-.54,1.66,1.66,0,0,1,.16-.41c-1.66,1.42-3.21,2.75-4.63,4-.93.84-1.75,1.58-2.44,2.22.48-.39,1-.79,1.4-1.18.82-.7,1.54-1.3,2.18-1.81s1.13-.92,1.49-1.2.67-.52.91-.68a3.86,3.86,0,0,1,.5-.32A.46.46,0,0,1,98.88,35.09Zm-6.67,9.57,2.13-1.82Zm.55-28.16s0,0,0,0S92.76,16.47,92.76,16.5Zm5.71,10.38Q96.88,28.2,95,29.65a15.52,15.52,0,0,0-2.17,2.27,56.34,56.34,0,0,0,5-4.36l2.36-2.13ZM93.89,45.65a2.83,2.83,0,0,1,.72-1.27L93,45.88A2.9,2.9,0,0,0,93.89,45.65Zm8.88-20.85a.85.85,0,0,0,0-.18c-.57.54-1.93,1.65-4.08,3.31s-3.69,3-4.53,3.71c-.28.25-.52.47-.73.68Zm-2,5.21c.06-.15.14-.34.23-.59-.43.37-1.29,1.15-2.59,2.36-2.14,2-3.7,3.4-4.67,4.22,1.76-1.33,3.18-2.47,4.26-3.4A19.84,19.84,0,0,0,100.78,30Zm-5.85-7.43c-.24.27-.53.57-.86.9.45-.36.89-.74,1.31-1.13a.45.45,0,0,0-.09-.23A2.14,2.14,0,0,1,94.93,22.58Zm1.18,20a1.57,1.57,0,0,1,.14-.46c-.52.48-1,.92-1.36,1.32A4.6,4.6,0,0,1,96.11,42.53Zm-.77,1.9v0l0,.09v0Zm2.72-7.12a1.05,1.05,0,0,0,.09-.32c-.24.19-.56.46-1,.82s-.76.71-1.27,1.22c.45-.33.84-.63,1.18-.9ZM106,15.91c.12-.45.23-.9.32-1.36a.16.16,0,0,1-.14-.09.17.17,0,0,0-.13,0,1,1,0,0,0-.36.09Q99.1,20.27,97.2,22a3,3,0,0,1-.45.45c-.1.27-.22.59-.37.95l2.45-1.81q2.13-2,3.38-3.13a27,27,0,0,1,2.26-1.86,2.8,2.8,0,0,1,1.43-.68ZM98.42,24.8q5.63-4.66,6.3-5.67h0a2.28,2.28,0,0,0-1.13.52,21,21,0,0,0-1.89,1.59c-.77.71-1.4,1.32-1.9,1.84l-2.11,2.17a9.2,9.2,0,0,1-.77.77Zm-1,14.1h0Zm.27-19c-.06.18-.12.35-.18.5.36-.27.94-.72,1.72-1.36q4.26-4.26,6-5l1-.86c0-.12-.07-.23-.09-.32a39.62,39.62,0,0,1-3.54,2.9A45.42,45.42,0,0,0,97.74,19.9ZM99,17.45a1.54,1.54,0,0,1-.18.23,2.76,2.76,0,0,1,.27-.23Zm.63-1.95v.05a.33.33,0,0,0,0,.14.8.8,0,0,1,.22-.23A.39.39,0,0,1,99.6,15.5Zm1-2.53,0,0c.69-.54,1.54-1.27,2.54-2.17a1.63,1.63,0,0,0-.64.13A22.78,22.78,0,0,0,100.64,13Zm3.54-1L101,15.05l1.54-1.18,1.32-1c.57-.55,1.07-1,1.49-1.46a2.32,2.32,0,0,0-.36-.22A8.82,8.82,0,0,1,104.18,12Zm-.77,11.15a4.16,4.16,0,0,1,.23-.54l-1.45,1.09c-.16.15-.32.3-.5.45.87-.7,1.43-1,1.67-1Zm-.86-4.21c1.6-1.18,2.61-2,3-2.36a14,14,0,0,0-2.41,1.81Zm1.36,2.31.32-.41-.68.54A1.74,1.74,0,0,1,103.91,21.22Zm0-10.38a1.65,1.65,0,0,0-.09.22,1.54,1.54,0,0,1,.23-.18A.33.33,0,0,0,104,10.84Zm1.14,7.84.18-.45-.41.36A.32.32,0,0,1,105.09,18.68Zm.59-6.67a.48.48,0,0,1,.13-.09l0,0A.48.48,0,0,1,105.68,12Zm.72,2v-.09a.14.14,0,0,0-.09.05A.12.12,0,0,1,106.4,14Z"/></svg>