<svg xmlns="http://www.w3.org/2000/svg" viewBox="0 0 45 36"><defs><style>.a{fill:#29abe2;}</style></defs><path class="a" d="M13.43,10.79a.16.16,0,0,1,0,.19,22.06,22.06,0,0,1,0,2.24.5.5,0,0,1,0,.12,2,2,0,0,1,0,.29v0l0,0q.08.08-.06.21s0,0,0,0a1.42,1.42,0,0,1,0,.16,1.5,1.5,0,0,1-.83,1,.28.28,0,0,1-.17.1h0a1.74,1.74,0,0,1-.5.08l-.15,0a1.49,1.49,0,0,1-1.09-.6.19.19,0,0,1-.12,0s0,0-.08-.06,0-.12,0-.23a1.47,1.47,0,0,1-.15-.67,7.34,7.34,0,0,1,.06-.8c0-.26,0-.44,0-.56s0-.24,0-.4v-.12c0-.35,0-.62,0-.8l-.07,0c-.06-.05-.05-.11,0-.17l.05-.06a11,11,0,0,0-.07-1.67l0,0a.2.2,0,0,1,0-.25l0-.08-.08,0a.53.53,0,0,0-.23,0,.84.84,0,0,0-.27,0,.35.35,0,0,1-.15.07L9.17,9l-.05.05,0,0A1,1,0,0,0,9,9.35l0,0v0a7,7,0,0,0-.14.72l0,0a.3.3,0,0,1,.07.21.74.74,0,0,1-.12.29,1,1,0,0,1,0,.16.14.14,0,0,1,0,.17c0,.25,0,.56-.08.92a.11.11,0,0,1,0,.15c0,.12,0,.23,0,.35s0,.16,0,.17,0,0,0,0a.11.11,0,0,1,0,.09.08.08,0,0,1-.06.08s0,0,0,0v.21l0,0c.08.09.05.23-.08.42v.08a2.39,2.39,0,0,1-.11.59,1.44,1.44,0,0,1-1.36,1,.52.52,0,0,1-.25.11h0a.27.27,0,0,1-.14-.07.31.31,0,0,1,0-.1.76.76,0,0,1-.2-.06,2.08,2.08,0,0,1-.74-.55.23.23,0,0,1-.17-.08.14.14,0,0,1,0-.17,1.76,1.76,0,0,1-.21-.85v-.3a.1.1,0,0,1-.09,0,.11.11,0,0,1,0-.12.36.36,0,0,1,.13-.21v-.26h0a.53.53,0,0,1,0-.18.85.85,0,0,1,.08-.17c0-.14,0-.34,0-.59,0-.43,0-.75,0-1,0,0,0,0-.06-.06s0-.14.06-.23h0v-.19A5.05,5.05,0,0,0,5.35,9s0,0,0,0-.07,0-.08,0,0-.14,0-.23c-.14-.29-.31-.44-.5-.44a1,1,0,0,0-.5.19s0,0,0,0h0s-.06.05-.13.12a1.44,1.44,0,0,0-.44.84c0,.22,0,.48-.06.77l0,0c.05,0,0,.13-.06.23v.53a.21.21,0,0,1,0,.16.37.37,0,0,1,0,.09v.22a17.89,17.89,0,0,1-.08,2,1.86,1.86,0,0,1-.36.92,2,2,0,0,1-.75.6.34.34,0,0,1-.17.09s0,0,0,0a1.12,1.12,0,0,1-.48.1h0a1.31,1.31,0,0,1-.9-.31h0a.13.13,0,0,1-.11,0,.2.2,0,0,1-.06-.14,2.13,2.13,0,0,1-.23-.42.21.21,0,0,1-.1-.06.1.1,0,0,1,0-.09.26.26,0,0,1,0-.1.56.56,0,0,0,0-.12A6.1,6.1,0,0,1,0,12.55c0-.24,0-.49,0-.75a.36.36,0,0,1,0-.11.24.24,0,0,1,0-.08v-1a.14.14,0,0,1,0-.15c0-.23,0-.46,0-.69a.19.19,0,0,1-.07-.06.12.12,0,0,1,0-.11A.81.81,0,0,1,0,9.37Q0,9,.06,8.62a.25.25,0,0,1,0-.17l0,0C0,8.34,0,8.25.1,8.12c0-.33.06-.67.09-1l0,0A.19.19,0,0,1,.12,7a.53.53,0,0,1,.11-.21c0-.06,0-.15,0-.27V6.34s0,0,0,0,0-.21.12-.41a2.29,2.29,0,0,1,.09-.28.17.17,0,0,1,.06-.12l0,0A1.34,1.34,0,0,1,1.13,5a.36.36,0,0,1,.18-.09l0,0a1.36,1.36,0,0,1,.29-.06h.12a1.61,1.61,0,0,1,.48.08.1.1,0,0,1,.07,0A.21.21,0,0,1,2.38,5l0,0a1.57,1.57,0,0,1,.67.68,2.8,2.8,0,0,1,1-.66,3.12,3.12,0,0,1,.44-.09l.08-.06a.11.11,0,0,1,.17,0l.44,0h.11a.66.66,0,0,1,.33-.08.27.27,0,0,1,.21.1l0,0a2.72,2.72,0,0,1,.58.13.79.79,0,0,1,.2,0,.12.12,0,0,1,.12.08.1.1,0,0,1,0,.08.05.05,0,0,0,0,0,2.68,2.68,0,0,1,1,.78,4.08,4.08,0,0,1,.4-.34,3.83,3.83,0,0,1,1-.54C9.37,5,9.46,5,9.52,5a.08.08,0,0,1,.07,0,3.68,3.68,0,0,1,.73-.07h.29a.34.34,0,0,1,.13,0l.14,0,.23.06.11,0a.35.35,0,0,1,.25.12l0,0,.12.06a.38.38,0,0,1,.17,0,.18.18,0,0,1,.15.07.13.13,0,0,1,0,.1l0,.06a.09.09,0,0,1,.06,0v0a.1.1,0,0,1,.1,0,.12.12,0,0,1,.09.05.1.1,0,0,1,0,.13l.14.11h0a.14.14,0,0,1,.09.05.12.12,0,0,1,0,.09l.1.11h.05a.18.18,0,0,1,.1,0,.22.22,0,0,1,0,.16s0,0,0,0a2.81,2.81,0,0,1,.5,1.24h0a.13.13,0,0,1,.1,0q.06.09-.06.21l0,0a.47.47,0,0,1,0,.17l.06,0c.05.05.05.11,0,.17l0,0a1.62,1.62,0,0,1,0,.33l0,0a.11.11,0,0,1,0,.15v0a1.06,1.06,0,0,0,0,.21l.06,0c.05.06,0,.15,0,.27,0,.28,0,.69,0,1.23Zm-13.24.3,0,0h0Zm0-.9.12-.09-.12,0v.11Zm1.52-.53L3,8.49l.43-.39c.47-.45.85-.8,1.15-1.07-1,.82-1.86,1.49-2.48,2-.43.36-.79.67-1.07.93s-.47.45-.58.57a1.68,1.68,0,0,0-.21.27A5.63,5.63,0,0,0,1.31,10ZM2.19,11c.71-.64,1.1-1.07,1.15-1.3a10.63,10.63,0,0,0-1.42,1.28A7.34,7.34,0,0,1,.23,12.36v.23L.6,12.3A19.45,19.45,0,0,1,2.19,11ZM.29,13.15a1.57,1.57,0,0,0,.06.28L1.82,12c-.39.32-.7.57-.93.74a5,5,0,0,1-.44.34A1,1,0,0,1,.29,13.15ZM2.65,7.93A19.14,19.14,0,0,0,.31,9.87h0a1.05,1.05,0,0,0,.4-.14l.15-.15C1.4,9.13,2.09,8.52,3,7.74l.32-.29Zm.79,1.48a1.55,1.55,0,0,1,.05-.23c-.53.46-1,.85-1.4,1.18A20.37,20.37,0,0,0,.35,12a17.39,17.39,0,0,0,1.4-1.26c.53-.53.92-.89,1.15-1.09s.4-.29.52-.27ZM.37,7.87c.14-.14.42-.39.86-.75.74-.62,1.21-1,1.42-1.26A9.57,9.57,0,0,0,1.5,6.8c-.39.34-.76.69-1.13,1Zm1.55,2.32c-.14.09-.29.2-.46.33L1,10.84c-.26.25-.45.45-.59.6C.7,11.2,1.22,10.78,1.92,10.19ZM.42,7.33l0,0s0,0,0,0Zm0,6.49.52-.42v0a8.42,8.42,0,0,1,2.19-1.84,1.25,1.25,0,0,0,.19-.25v0A29.19,29.19,0,0,0,.42,13.7h0A.5.5,0,0,0,.42,13.82Zm.18.42,1.63-1.55-.83.65-.29.23a7.7,7.7,0,0,1-.59.57.34.34,0,0,0,.06.12Zm.73-9.09A6.41,6.41,0,0,0,.56,6c.15-.13.4-.36.75-.71l.21-.19Zm2,5.23a0,0,0,0,1,0,0c-.5.43-1,.82-1.42,1.17l-1.07.89-.06,0h0l-.15.18C1.13,12.24,2.05,11.48,3.34,10.38ZM.94,14.45a.6.6,0,0,0-.11.14l.5-.37A1.74,1.74,0,0,1,.94,14.45Zm.17.38a2.38,2.38,0,0,1,.23-.32,3.12,3.12,0,0,1-.34.25ZM3.65,6C3.2,6.41,2.5,7.06,1.56,8c-.13.13-.25.23-.35.32l1.06-.84.28-.23a26.39,26.39,0,0,1,2.23-2A6.18,6.18,0,0,0,3.65,6ZM1.79,14.59l0,0-.44.36.19,0A1.41,1.41,0,0,1,1.79,14.59Zm.13-9.5-.5.54L2,5.11Zm-.29.82,0,0,0,0s0,0,0,0S1.62,5.93,1.63,5.91Zm1.69,6.16v-.15a3.47,3.47,0,0,1-.29.31c-.21.23-.52.53-.92.92l-.19.17.13-.1L2.38,13c.31-.3.59-.59.84-.86A.18.18,0,0,1,3.32,12.07ZM5.14,5.24A14.37,14.37,0,0,1,2.71,7.41c-.12.12-.28.28-.5.48l-.27.29a6.83,6.83,0,0,1,.57-.44c1-.81,1.76-1.38,2.15-1.71a7.65,7.65,0,0,0,1-.9l-.25,0ZM3.26,13.45v0q-.72.7-1.17,1.2l.27-.26c.46-.48.75-.71.86-.71A.8.8,0,0,0,3.26,13.45Zm-1-8.09-.17.15s0,0,0,0a.71.71,0,0,0,.15-.15Zm-.11,8.15c.18-.15.36-.32.56-.5a.94.94,0,0,0-.2.16l-.23.21A.53.53,0,0,0,2.17,13.51Zm1.11-.42a2.45,2.45,0,0,0,0-.27c-.38.38-.73.74-1,1.07l1-.78ZM2.71,5.53l-.06,0,.06,0Zm.21.38-.12.14L2.94,6ZM3.32,11v-.17a1.72,1.72,0,0,0-.17.19l-.33.32A4.45,4.45,0,0,1,3.32,11ZM2.9,9.21A27,27,0,0,0,6.12,6.64a.14.14,0,0,1-.07.06L6,6.76C4.64,7.81,3.61,8.63,2.9,9.21ZM5.78,6.47c-.61.45-1.39,1.1-2.36,2l-.27.25-.08.07c.65-.53,1.57-1.26,2.76-2.18.48-.37.78-.62.92-.75h0A5.93,5.93,0,0,0,5.78,6.47ZM4.09,5.28h0l0,0ZM5,8.14A.4.4,0,0,1,5.12,8L5,8.1Zm.42.4h0v0S5.45,8.56,5.45,8.54ZM5.58,9a11.89,11.89,0,0,1,2-1.65l.82-.62c.38-.32.69-.59.94-.82l.43-.35a.77.77,0,0,0,.17-.29A15.84,15.84,0,0,0,7.52,7.1c-.61.53-1.26,1.1-2,1.73A.25.25,0,0,1,5.58,9Zm3,1.65c-.49.4-.93.78-1.33,1.13A19.6,19.6,0,0,1,5.64,13a.88.88,0,0,0,0,.17l.69-.55A15.59,15.59,0,0,0,8.58,10.6ZM6,7.87l-.29.21,0,0Zm-.23,5.89.34-.36.16-.16a1.62,1.62,0,0,1-.58.33c0,.09,0,.17,0,.25A.15.15,0,0,0,5.72,13.76ZM8,10.58a3,3,0,0,0,.6-.66,7.64,7.64,0,0,0-.94.71c-.34.29-.83.73-1.48,1.33l-.5.46v.07l.94-.76C7.25,11.2,7.71,10.82,8,10.58ZM6.43,8.79a2.85,2.85,0,0,1-.75.56c0,.05,0,.11,0,.17l0,0a6.51,6.51,0,0,1,.55-.57Zm2.93-.27c1.19-1,2-1.8,2.48-2.26Q10.9,7,7.73,9.67c-1.21,1-1.88,1.6-2,1.67s0,.11,0,.21v.12c.46-.38.93-.79,1.42-1.21A9.13,9.13,0,0,1,8.5,9.27L8.88,9A1.19,1.19,0,0,1,9.36,8.52ZM5.74,10.88v0l0,0Zm5.35-5.6A7.07,7.07,0,0,0,9.21,6.59l-.38.34q-1.49,1.3-3.07,3V10c.14-.14.34-.33.61-.56L8.42,7.7C10,6.34,10.87,5.54,11.15,5.28ZM6,10.52l-.23.08,0,0Zm2.44,1.42v0a27.18,27.18,0,0,0-2.59,2.34.92.92,0,0,0,.21-.12c.05,0,.11-.1.17-.17q.33-.33.93-.84c.28-.27.6-.56,1-.87ZM6,8.83l.38-.34-.08.07A2.7,2.7,0,0,0,6,8.83Zm.12-3.6,0,0,.08,0h0Zm0,9.22,0,0-.06,0,0,0A.21.21,0,0,0,6.18,14.45ZM7.6,9c-.12.09-.23.17-.33.26-.37.32-.68.6-.92.83L7,9.48ZM7.71,6.3c-.34.32-.68.63-1,.92l.36-.29c.31-.28.53-.48.67-.59Zm-.07,7.94.48-.5-.41.35q-.76.63-1,.78a.6.6,0,0,0,.19.06C7.18,14.69,7.42,14.46,7.64,14.24ZM7,6l-.12.19a5.49,5.49,0,0,1,.46-.38s0,0-.06-.06A3.35,3.35,0,0,1,7,6Zm1.43,7.19a.25.25,0,0,0,0-.13l-.65.54,0,0-.8.78-.08.1C7.21,14.2,7.72,13.76,8.38,13.18Zm-.8-7.07A.21.21,0,0,1,7.52,6a2.38,2.38,0,0,1-.31.35A2.65,2.65,0,0,1,7.58,6.11Zm0,8.74s0,0,0,0l-.1,0A.12.12,0,0,0,7.58,14.85Zm.92-3.28c0-.11,0-.22,0-.32l-1,1A4,4,0,0,1,8.5,11.57Zm3.28-6c-.18.15-.72.59-1.63,1.3l-.67.54-.25.25c-.4.41-.72.74-1,1l2.67-2.26c.47-.4.77-.66.9-.79ZM8.44,12.3v0Zm.23-2.64a.44.44,0,0,0,0-.1l-.17.13Zm.6-2.38a.1.1,0,0,1,.05,0,0,0,0,0,0,0,0Zm1,1a2.71,2.71,0,0,1,.36-.42L10,8.41l.17,0A.69.69,0,0,1,10.25,8.31Zm0-3.14s0,0,0,0v0S10.18,5.18,10.21,5.17Zm1.13,7.9c.41-.41.71-.71.92-.9l-.29.25a2,2,0,0,1-.21.19l-.08.08c-.42.42-.72.71-.89.86a.75.75,0,0,1-.41.23.85.85,0,0,0,0,.17l.21-.21Zm-.92.36h0v0S10.4,13.43,10.42,13.43Zm2.78-2.66,0,0v0a9.71,9.71,0,0,1-1,.9c-.55.46-.93.79-1.15,1a3.17,3.17,0,0,0-.53.57,2.15,2.15,0,0,0,.63-.44c.22-.19.58-.53,1.09-1A8.3,8.3,0,0,1,13.2,10.77Zm-2.63,1.65-.09,0v.05A.35.35,0,0,1,10.57,12.42Zm-.06-3,0-.06,0,0Zm1.92.36-1.9,1.59a1.49,1.49,0,0,0,0,.21l.06-.05c.13-.12.37-.34.71-.68Zm-1.82.1h-.08v0ZM10.53,11l.89-.87c-.29.25-.58.49-.89.73Zm0-.5.94-.94-.94.75Zm2.63-.6,0-.11L11.32,11.3a3.83,3.83,0,0,0-.73.83,10.16,10.16,0,0,0,1.19-1.06A7.49,7.49,0,0,1,13.18,9.92Zm-2.44,4.65h0l1-1-.11.1c-.5.44-.83.72-1,.84ZM13,7.12a.39.39,0,0,0,0-.09,3.37,3.37,0,0,0-.34.27c-.58.46-1,.81-1.29,1.07a3.53,3.53,0,0,0-.57.63c.35-.28,1-.81,1.93-1.61A2.86,2.86,0,0,0,13,7.12Zm.08.41a.59.59,0,0,0,0-.14l-.19.17c-.35.3-.66.57-.94.83a12.88,12.88,0,0,0-1,1l1.07-.94C12.5,8,12.87,7.64,13,7.53ZM11.3,14.64c.2-.2.4-.39.58-.55a4.59,4.59,0,0,1-.87.69l.08.05.06-.05A1.12,1.12,0,0,1,11.3,14.64Zm.29.35a.58.58,0,0,1,.19-.35l-.4.31ZM12,5.74l-.42.41a5.34,5.34,0,0,1,.48-.37Zm.5.6q-.12.11-.48.48l-.1.09a3,3,0,0,1,.71-.48s-.06-.08-.09-.13Zm-.31-.12-.15.16c.1-.09.21-.19.34-.29l0,0ZM13.08,8v-.1a2.21,2.21,0,0,1-.25.23l-.65.6Zm0,.5a.62.62,0,0,0,0-.18l-.9.92c.21-.17.38-.32.52-.42Zm-.78,4c.51-.44.79-.67.86-.71v-.18l-.06.08-.44.44a4,4,0,0,1-.46.44l.06,0Zm.74,1.34V13.7c-.09.09-.23.23-.44.42l-.4.39.5-.44Zm-.65-2.71.48-.42a3.14,3.14,0,0,0-.29.23Zm.71-2.16v-.1l-.52.52C12.87,9.12,13,9,13.14,8.91Zm-.36-2.23-.14.12a.35.35,0,0,1,.18-.06Zm.38,2.84V9.41l-.34.34a.32.32,0,0,0-.1.1l.4-.31a0,0,0,0,0,0,0Zm-.34,4.91,0-.06,0,.06Zm.36-1.86v-.13a.36.36,0,0,1-.09.09l-.12.13-.12.12A.72.72,0,0,1,13.18,12.57Zm0,.61v-.09l-.29.34Zm.06-1.11v0l0,0,0,0Z"/><path class="a" d="M21.41,4.44c0,.06,0,.14-.08.23l0,0a1.54,1.54,0,0,1-.09.52.08.08,0,0,1,0,.07,1.41,1.41,0,0,1-.56.65,1.46,1.46,0,0,1-.84.25h-.73v.9l.1.06c.05.05,0,.11,0,.16v0l-.06,0c0,.32,0,.7,0,1.14a.09.09,0,0,1,0,.07c0,.19,0,.46,0,.79.05,1.81.08,3,.09,3.6,0,0,0,0,0,0a.1.1,0,0,1,0,.16l0,0v0a1.37,1.37,0,0,1,0,.31.06.06,0,0,1,0,.08.55.55,0,0,1,0,.18l0,.16h0a.13.13,0,0,1,0,.17l-.06,0a1.49,1.49,0,0,1-.59.74,1.55,1.55,0,0,1-.91.28h0a1.52,1.52,0,0,1-1.07-.46.13.13,0,0,1-.1,0,.3.3,0,0,1,0-.1,1.39,1.39,0,0,1-.28-.49h0l-.1-.06a.17.17,0,0,1,0-.16.24.24,0,0,1,.06-.13s0,0,0,0a.08.08,0,0,1,0-.15s0,0,0,0v-.31c0-.29,0-.67,0-1.13a.22.22,0,0,1,0-.25c0-.37,0-1-.08-1.78,0-1,0-1.68,0-2.11l0,0a.27.27,0,0,1-.06-.17.52.52,0,0,1,.06-.16V6.18H15a1.51,1.51,0,0,1-1-.36l0,0a1.55,1.55,0,0,1-.43-.59.31.31,0,0,1,0-.1,1,1,0,0,1-.06-.25s0,0,0,0-.05-.13,0-.23a1.43,1.43,0,0,1,.47-1A1.47,1.47,0,0,1,15,3.11h.66L15.79,3V2.77a.1.1,0,0,1-.08,0s0-.13.08-.25V2.14a1.7,1.7,0,0,1,.32-.93,1.51,1.51,0,0,1,.75-.55s0,0,0,0a.18.18,0,0,1,.1,0l.05,0a1.86,1.86,0,0,1,.33,0h0a1.55,1.55,0,0,1,1,.37.24.24,0,0,1,.13,0,.12.12,0,0,1,.1.06.11.11,0,0,1,0,.17,1.59,1.59,0,0,1,.26.48h0a.12.12,0,0,1,.1.06c0,.05,0,.12,0,.21s0,.2,0,.3v.94h.17c.07,0,.12,0,.17,0l.12,0h.27a1.51,1.51,0,0,1,1.15.5h0l.09.06a.11.11,0,0,1,0,.12l0,0a.09.09,0,0,1,.08,0,.12.12,0,0,1,0,.14.25.25,0,0,0,0,.07h0a.11.11,0,0,1,.11.06.22.22,0,0,1,0,.25A.15.15,0,0,0,21.41,4.44Zm-7.56.27v0a.58.58,0,0,1-.13.11v0Zm.65-1.23c-.21.31-.41.58-.59.82.08-.07.18-.18.32-.32s.48-.48.6-.58A1.23,1.23,0,0,0,14.5,3.48ZM13.93,5A10.78,10.78,0,0,0,16,3.38h-.39l-.42.33-.8.69L14,4.88A.6.6,0,0,0,13.93,5Zm0,.39.11.13c.56-.48,1.12-1,1.67-1.48A12.31,12.31,0,0,1,14,5.4Zm.51.38a1.52,1.52,0,0,0,.22-.19L15.35,5c1.15-1,2-1.82,2.51-2.32L16.59,3.79a27.07,27.07,0,0,1-2.26,2l.12.06Zm.29.06a6.06,6.06,0,0,0,1.7-1.25c.8-.73,1.56-1.48,2.29-2.26l0,0a.78.78,0,0,1,0-.14v0l-.08.07q-.3.31-.9.87c-.47.44-1.22,1.14-2.26,2.09Zm1.23,0A34.42,34.42,0,0,0,18.59,3.4a36.08,36.08,0,0,0-3,2.51h.32Zm.81-4c-.23.22-.48.46-.73.73v.15l0,.06.05,0,.08-.1.67-.74.58-.64C17.28,1.41,17.05,1.61,16.79,1.85Zm-.73,1.34v.17c.38-.34.78-.72,1.19-1.13-.18.14-.36.26-.52.37l-.63.57Zm.09,2.92h-.09v.07l0,0Zm-.09.4v.06l.17-.18a.19.19,0,0,1,.06-.07Zm0-4.34L16.19,2l-.11.1v0Zm.13,4.91a.16.16,0,0,1-.1,0l0,.12A.57.57,0,0,1,16.21,7.08Zm-.13.52v.06l.17-.13-.14,0Zm0,.56a.44.44,0,0,0,0,.15l.42-.38A1.19,1.19,0,0,1,16.08,8.16Zm0,.44v.08l.11-.14-.05,0Zm0,.63v0c.07-.07.14-.16.23-.27l1-.94,1.06-.94a8.3,8.3,0,0,0-1,.87c-.42.41-.82.81-1.19,1.21Zm0,.5v.06l.2-.23-.18.15Zm0,.58a2.45,2.45,0,0,1,0,.34q.7-.59,1.29-1.11A5.82,5.82,0,0,0,18.8,8.06,22.19,22.19,0,0,0,16.15,10.31Zm0,.67c0,.09,0,.16,0,.21l1.69-1.63-.35.29A13.86,13.86,0,0,1,16.17,11Zm0,1v.22l1.65-1.65C17.36,11,16.81,11.47,16.21,12Zm0,1.12v.15a.56.56,0,0,0,.11-.11,31.36,31.36,0,0,0,2.36-2.31,2.6,2.6,0,0,0-.34.27c-.17.16-.44.44-.83.85C16.84,12.72,16.41,13.1,16.23,13.13Zm.11,1a2.92,2.92,0,0,0,.25-.29l.85-.88-1.15,1A1,1,0,0,0,16.34,14.09ZM17,12.17a5.85,5.85,0,0,0-.72.67A7.31,7.31,0,0,0,17,12.17Zm-.59-5A14.76,14.76,0,0,0,19,5.05c-.73.56-1.31,1-1.74,1.4S16.66,7,16.44,7.18Zm1.3,3.89c.62-.63,1-1,1.12-1V9.92l-2.32,2.32a2,2,0,0,0,.25-.21A12.2,12.2,0,0,0,17.74,11.07Zm-.61-5c-.2.18-.38.34-.52.48l.19-.15ZM17,1a4.62,4.62,0,0,0-.33.38l.65-.54A1.22,1.22,0,0,0,17,.89ZM16.8,14.68l.1-.15-.15.11Zm2-7.1c-.42.37-.81.72-1.15,1s-.46.42-.63.59A2.73,2.73,0,0,0,17.27,9,9,9,0,0,1,18.8,7.81Zm0,1.81a1.13,1.13,0,0,0-.16.13l-1.41,1.23-.22.19.27-.23a11.76,11.76,0,0,1,1.52-1.19ZM17.92,14l1-.92V13a10.49,10.49,0,0,1-.86.79,4.85,4.85,0,0,0-1,.94,6.42,6.42,0,0,0,.58-.42A3.85,3.85,0,0,1,17.92,14Zm1-2.19c-.71.67-1.3,1.26-1.79,1.77l1.8-1.46C18.91,12.06,18.91,12,18.9,11.84ZM17.42,8.31c.68-.56,1.13-.92,1.36-1.09V7.08c-.59.52-1.12,1-1.59,1.42ZM18.05,1h0l-.71.75c.37-.3.65-.53.85-.67A.42.42,0,0,0,18.05,1Zm-.48,13.77a5.25,5.25,0,0,0,.52-.5l-.31.25A3.1,3.1,0,0,0,17.57,14.76Zm0-2.4.81-.59a3.85,3.85,0,0,0,.28-.27C18.49,11.65,18.12,11.94,17.61,12.36Zm.21,2.53a.15.15,0,0,0,0-.06l-.08.08ZM19.18,3.42a13.05,13.05,0,0,0-1.3,1.23C18.53,4.07,19,3.66,19.18,3.42ZM18.8,9.1l0,0c0-.08,0-.13,0-.15l-.17.17-.71.73C18.23,9.57,18.52,9.33,18.8,9.1ZM18,5.53c.39-.31.89-.7,1.52-1.17l.88-.69a.6.6,0,0,0,.08-.08l-.06,0-.77.57-.86.63c-.11.12-.29.29-.54.52A2,2,0,0,1,18,5.53Zm1.46-1.74c-.59.49-1.06.9-1.42,1.22l.58-.44Q19.12,4.08,19.45,3.79ZM18.76,6.7h0a1.79,1.79,0,0,1,0-.23l-.54.46A1.14,1.14,0,0,1,18.76,6.7Zm-.29-4.91a.94.94,0,0,0-.09.12l.29-.22-.06-.09A.65.65,0,0,1,18.47,1.79ZM18.88,11l-.16.19a.35.35,0,0,1,.16-.06Zm.88-7.48a.4.4,0,0,0-.12.07l.29-.21h0l-.05.06Zm-.08,2.13A12.73,12.73,0,0,0,21,4.44c-.17.14-.52.45-1,.94ZM20,5.9a.68.68,0,0,1,.09-.23l-.28.24Zm.53-2.06,0,0a.48.48,0,0,1,.15-.11s0,0,0,0A.3.3,0,0,1,20.56,3.84Zm.37,1.33L21,5c-.2.21-.35.37-.46.5l.13-.11Z"/><path class="a" d="M30.09,8.85a.55.55,0,0,1-.13.27v.23a.09.09,0,0,1,.06.06c.06.06.05.17-.06.32,0,1.52,0,2.57,0,3.13a.14.14,0,0,1,0,.15,2.06,2.06,0,0,1,0,.33,1.7,1.7,0,0,1-1.3,1.82l-.06.05a.11.11,0,0,1-.08,0h0s-.07,0-.08-.06h-.12a1.59,1.59,0,0,1-.36,0,0,0,0,0,1,0,0l0,0c-.05.05-.1,0-.15,0a.09.09,0,0,1,0-.1,1.51,1.51,0,0,1-.29-.13.09.09,0,0,1-.07-.06,1.14,1.14,0,0,1-.31-.27,1.46,1.46,0,0,1-.35-.65l0-.17a.09.09,0,0,1-.06-.06.15.15,0,0,1,0-.21,1.25,1.25,0,0,0,0-.21v0a.24.24,0,0,1-.06-.17.53.53,0,0,1,.06-.14c0-.57,0-1.37,0-2.39a.09.09,0,0,1,0-.1c0-.84,0-1.46,0-1.86v0a.79.79,0,0,0-.06-.4h0s-.07,0-.08-.06a.18.18,0,0,1,0-.1l-.11,0h-.06l-.54.43v0a.14.14,0,0,1,0,.09h0a3,3,0,0,0-.31,1.25v.59a.05.05,0,0,0,0,0,.12.12,0,0,1,0,.1.17.17,0,0,1,0,.11.1.1,0,0,1,.08,0,.36.36,0,0,1,0,.21.77.77,0,0,1-.15.31c0,.16,0,.37,0,.61a.17.17,0,0,1,0,.1v0h0v.13a.13.13,0,0,1,.1,0,.2.2,0,0,1,0,.17.7.7,0,0,1-.13.29c0,.33,0,.57,0,.71a.17.17,0,0,1,0,.17.79.79,0,0,1,0,.17c.05.07,0,.18-.08.35a2.17,2.17,0,0,1-.21.54,1.52,1.52,0,0,1-.6.63,1.69,1.69,0,0,1-.85.23l-.23,0a1.54,1.54,0,0,1-1-.56.1.1,0,0,1-.17,0,.28.28,0,0,1-.06-.22.19.19,0,0,1,0-.07l-.1-.19a.36.36,0,0,1-.15-.08.09.09,0,0,1,0-.09.14.14,0,0,1,.05-.08.09.09,0,0,1,.06,0,1.7,1.7,0,0,1-.06-.35l-.08,0a.23.23,0,0,1,0-.18.77.77,0,0,1,.08-.19.08.08,0,0,1,0-.11c0-.09,0-.2,0-.31a.15.15,0,0,1-.09-.06s0-.05,0-.09a.22.22,0,0,1,.05-.08l0,0c0-.72-.06-1.43-.08-2.15a.05.05,0,0,1-.05,0,.11.11,0,0,1,0-.17l.05-.06V9.48a.34.34,0,0,1-.05-.27A.89.89,0,0,1,21.75,9c0-.18,0-.36,0-.55,0,0,0,0,0,0s-.05-.18,0-.29a1.11,1.11,0,0,0,0-.29l0,0a.11.11,0,0,1,0-.17l0,0s0-.15,0-.29h0a.21.21,0,0,1,0-.17A.29.29,0,0,1,21.85,7c0-.13,0-.22,0-.27a.09.09,0,0,1,0-.1.17.17,0,0,1,0-.11V6.48a.15.15,0,0,1,0-.09c0-.14,0-.31,0-.51l-.06,0c-.07-.08,0-.19.09-.33s.08-.59.12-.92a.14.14,0,0,1,0-.09q.06-.4.15-1.17s0,0,0-.07a.28.28,0,0,0,0-.09.12.12,0,0,1-.08,0c-.07-.1,0-.26.16-.48,0-.1,0-.19,0-.26a.11.11,0,0,1,0-.08V2.25a.51.51,0,0,0,0-.09,3,3,0,0,1,.13-.54,1.59,1.59,0,0,1,.15-.29.1.1,0,0,1,0-.08v0A1.48,1.48,0,0,1,24,.58a2.47,2.47,0,0,1,.36,0l.08,0h0c.05-.05.1,0,.15,0a.05.05,0,0,1,0,.06,1.41,1.41,0,0,1,.4.25.19.19,0,0,1,.16.07.27.27,0,0,1,0,.12v0a1.52,1.52,0,0,1,.31,1.09c0,.27,0,.65-.06,1.15l0,0a.21.21,0,0,1,0,.17.27.27,0,0,1,0,.14s0,0,0,0a.29.29,0,0,1,.06.19.89.89,0,0,1-.15.29v.49l.05,0c.07.08,0,.18-.07.31v.1a.49.49,0,0,1,.25-.12l0,0A3.14,3.14,0,0,1,26.57,5a.24.24,0,0,1,.13,0,.1.1,0,0,1,.08,0h.1a3.63,3.63,0,0,1,.65,0A.18.18,0,0,1,27.68,5a.1.1,0,0,1,.08,0,.21.21,0,0,0,0,.06A3.17,3.17,0,0,1,29,5.59a.05.05,0,0,1,.05,0l0,0,.14.15A3.54,3.54,0,0,1,30,8.06v.56a.1.1,0,0,1,.08,0A.29.29,0,0,1,30.09,8.85ZM22,9.08s0,0,0,0v0l2.38-2c1.28-1.06,2.1-1.73,2.46-2l-.14,0-.44.3L24.55,7A24.06,24.06,0,0,1,22,9,.11.11,0,0,0,22,9.08Zm0,.38v0l2.65-2.18,2-1.62.28-.21A.3.3,0,0,0,27,5.38C26.31,5.88,24.64,7.24,22,9.46Zm0,.37V10l.89-.78Zm0,.48v.17a2.14,2.14,0,0,1,.21-.25q.19-.21.48-.48Zm0,.82a2.89,2.89,0,0,1,.42-.36A1,1,0,0,1,22,11,.76.76,0,0,1,22,11.13Zm0-2.7c0,.09,0,.16,0,.21a7.16,7.16,0,0,1,.56-.58,20.11,20.11,0,0,1,1.67-1.4c.24-.19.5-.38.77-.57a3.49,3.49,0,0,0,.51-.62l0,0a.17.17,0,0,0-.1.06l-.1.06c-.25.2-.72.61-1.4,1.22A18.46,18.46,0,0,1,22,8.43Zm0,3.68v.31c.55-.42,1.05-.83,1.5-1.21A10,10,0,0,0,25,9.73a6,6,0,0,1-.43.42c-.65.67-1.17,1.16-1.56,1.49a1.68,1.68,0,0,1-.87.49h0Zm0-4.7,0,0Zm0,5.39c0,.08,0,.12,0,.14l.29-.29a1.19,1.19,0,0,1,.17-.19A3.19,3.19,0,0,1,22.06,12.8Zm0-5.7a9.36,9.36,0,0,0,.73-.65l-.19.16a.47.47,0,0,0-.12.09C22.31,6.87,22.17,7,22.08,7.1Zm0,6.35a7.49,7.49,0,0,0,1.65-1.28q.51-.48,1.11-1.08l-.71.54-.29.19s0,0,0,0a9.78,9.78,0,0,1-1.76,1.5s0,0,0,0Zm3.07-4.16A1.57,1.57,0,0,1,25.26,9L25,9.21a24.85,24.85,0,0,1-2.56,2.23c-.2.23-.3.38-.28.46s.41-.19.9-.6c.29-.26.75-.7,1.36-1.32A3.36,3.36,0,0,1,25.19,9.29Zm-3,4.59c.55-.44,1.05-.85,1.49-1.25a14.57,14.57,0,0,0,1.29-1.25l-1,.92a7.32,7.32,0,0,1-1.84,1.4A.52.52,0,0,0,22.16,13.88Zm.36-7.6a2.08,2.08,0,0,0-.36.33,1.49,1.49,0,0,0,.32-.2l.21-.19a.09.09,0,0,0,.06,0A2.19,2.19,0,0,0,23,6Zm-.11,4.81a3.22,3.22,0,0,0-.25.23.35.35,0,0,1,.09-.07Zm5.65-5.71s-.06.09-.15.17l-.36.33-1.25,1C25,8,24.1,8.79,23.54,9.29a12.08,12.08,0,0,0-1.36,1.34c.21-.14.59-.43,1.13-.88s1.22-1,2.32-2c1.51-1.35,2.4-2.1,2.66-2.27A1.57,1.57,0,0,0,28.06,5.38Zm-5.85.32,0,.1.23-.25c.27-.28.65-.65,1.14-1.09a.19.19,0,0,1,.07-.06l-.34.29C22.93,5,22.57,5.35,22.21,5.7Zm1.69-.84c.44-.4.88-.83,1.34-1.3a1.37,1.37,0,0,0,0-.29,20.1,20.1,0,0,0-3,2.88.7.7,0,0,0,.14-.08l.9-.69.21-.16Zm-1.57-.15,0,.09a.69.69,0,0,0,.11-.13A.25.25,0,0,0,22.33,4.71Zm.09-.81,0,.31.32-.29c.68-.6,1.18-1,1.5-1.36A5.62,5.62,0,0,0,25,1.64a2.36,2.36,0,0,0-.61.4l-.17.13-.6.54c-.42.39-.82.78-1.21,1.17C22.44,3.89,22.44,3.9,22.42,3.9Zm2.25,1.52c.28-.27.46-.44.54-.5V4.8L22.44,7.39c.18-.13.39-.29.62-.48S24,6.09,24.67,5.42Zm-2.23,9,2.67-2.15v-.11c-.2.14-.42.29-.63.46s-.46.41-.75.65l-.33.29a7.9,7.9,0,0,1-.94.84A0,0,0,0,0,22.44,14.43Zm2.8-12.14c-.08.09-.24.24-.47.46-.39.37-.72.68-1,.92l-.6.58c-.33.33-.57.58-.71.74l.2-.13.88-.79c.57-.51,1.15-1,1.74-1.49,0,0,0,0,0,0a2.69,2.69,0,0,1,0-.31v0ZM22.58,14.76a7,7,0,0,1,1.21-1.1c.48-.38.82-.65,1-.82l-2.28,1.84A.21.21,0,0,0,22.58,14.76ZM22.54,3a.81.81,0,0,0,.13-.12A.81.81,0,0,1,22.54,3Zm.36,12a.74.74,0,0,1,.18-.25l-.25.19S22.88,15,22.9,15ZM25.24,1.73a14.74,14.74,0,0,1-2.37,2.38l0,0,.69-.57.09-.08c.25-.24.54-.52.89-.83l.11-.09.44-.44.23-.21A.48.48,0,0,0,25.24,1.73Zm-1.41-.15c-.45.38-.77.66-.94.84L23.42,2c.76-.61,1.17-.94,1.25-1L24.54.93a.92.92,0,0,1-.14.13ZM23.42,15l.06-.06-.23.17,0,0,.11-.11ZM24.11.83c-.18.17-.36.34-.53.52l.61-.52ZM25,13.91a.36.36,0,0,1-.09.08q-.34.33-1.08,1a1.34,1.34,0,0,0-.24.23,1.54,1.54,0,0,0,.46-.08.07.07,0,0,1,0,0A7.46,7.46,0,0,0,25,13.91Zm.1-3.47v-.19l-1.46,1.46.08-.06A8.29,8.29,0,0,1,25.11,10.44Zm1.17-2.72c.33-.27.63-.51.88-.73.45-.4.78-.72,1-1a1.37,1.37,0,0,0,.25-.35c-.27.17-1.15.91-2.63,2.23-1,.87-1.67,1.48-2.09,1.84.14-.11.31-.25.52-.4.59-.45,1-.79,1.32-1a1.13,1.13,0,0,1,.64-.5v0l0,0Zm-2.44-2,.62-.57-.12.09ZM24.9,1.27a6.17,6.17,0,0,0-.73.66l.1-.08C24.57,1.59,24.78,1.4,24.9,1.27Zm0,3.21.31-.31v0c-.15.14-.33.31-.56.5a1.13,1.13,0,0,0-.19.19A2.28,2.28,0,0,1,24.92,4.48Zm.19,8.84v-.08a4.76,4.76,0,0,1-.44.42Zm0-7.87.08-.07Zm2.51-.19L26.43,6.34c-.16.15-.36.32-.59.51l-.21.2L27.8,5.3Zm-1.78.08a.8.8,0,0,1-.08.21c.1-.08.21-.15.33-.23l.06-.06Zm.92,2.72,0,.08A.74.74,0,0,0,26.89,8l.41-.4,0,0Zm.06,4.07v.25a30.14,30.14,0,0,0,2.89-2.72V9.58l-.19.11c-.33.35-.65.66-1,.94a13.62,13.62,0,0,1-1.07.91A2.72,2.72,0,0,1,26.82,12.13Zm1-2.42-1,.89,0,.05Zm-.69,1.06.45-.41-.68.58-.07,0v.1h0A2.4,2.4,0,0,1,27.12,10.77Zm-.19.65h0l-.09,0v.12Zm-.11,1.65v0a7.34,7.34,0,0,0,1.09-1l-.69.56A2.38,2.38,0,0,0,26.82,13.07Zm0-.44v.06l.07-.06Zm.19-3-.15,0h0v.11Zm.4-1.1c-.32.32-.5.48-.55.48v.29a28.48,28.48,0,0,0,2.41-2.4,3.57,3.57,0,0,0-.71.52l0,.06-.45.4C27.91,8,27.69,8.22,27.41,8.5Zm-.55-.09a1.4,1.4,0,0,1,0,.23L27,8.52c.1-.1.29-.28.58-.53l.36-.33.4-.38A2.29,2.29,0,0,0,28.6,7l.14-.14L26.91,8.39Zm.07,5.52c.45-.39.87-.78,1.25-1.15a.75.75,0,0,0,.13-.11,7.81,7.81,0,0,1-1.42,1.11c0,.05,0,.1,0,.13Zm2.23-4.64c.29-.28.48-.46.55-.54v0a3,3,0,0,1-.36.36l-1.15,1-1.06,1a3.49,3.49,0,0,0,.67-.49Q28.26,10.18,29.16,9.29Zm-1.29,3.45-.69.56.52-.4Zm-.59,1.63a11.49,11.49,0,0,0,1-.9,5.82,5.82,0,0,1,1.45-1.23V12l-.63.54a.66.66,0,0,1-.15.17c-.63.63-1.07,1-1.33,1.27A2.61,2.61,0,0,0,27.28,14.37Zm.09.23h0l0,0Zm1.38-.51a5.61,5.61,0,0,0,1-1.1,2.07,2.07,0,0,0-.49.37c-.18.15-.47.43-.87.82s-.57.55-.67.64l.21.07C28.21,14.61,28.5,14.34,28.75,14.09Zm-.94-2.25.37-.29c.52-.4.88-.69,1.07-.86l.23-.23C29.13,10.74,28.57,11.2,27.81,11.84Zm.37.31-.13.13,1-.86a3.83,3.83,0,0,0,.6-.61,1.39,1.39,0,0,0-.52.36C29,11.34,28.63,11.66,28.18,12.15Zm.59,2.49c.29-.3.49-.53.62-.69L28.2,15h.11l.18,0,0,0Zm.62-7.21c-.16.13-.46.42-.92.88l.58-.52A3.45,3.45,0,0,0,29.39,7.43Zm.3.21a.91.91,0,0,0,0-.17A8.84,8.84,0,0,1,28.52,8.6l1.16-.94S29.68,7.64,29.69,7.64Zm-1-2a1.37,1.37,0,0,1-.14.26.77.77,0,0,0,.12-.13l.09-.08Zm.31.65a3.37,3.37,0,0,0-.27.27,2.2,2.2,0,0,1,.48-.35l-.06-.08v0A.88.88,0,0,0,29,6.32Zm.47,6.33-.67.61C29.1,13,29.32,12.79,29.46,12.65ZM29,5.93l0,0h0Zm.34.52a.51.51,0,0,1-.08.17h.16C29.38,6.55,29.36,6.5,29.33,6.45Zm.25.63c0-.06,0-.12,0-.17l-.23.29A.42.42,0,0,1,29.58,7.08Zm0,2.13-.21.22s0,0,0,0S29.53,9.28,29.58,9.21Zm.13-.88V8.26l-.25.24A1.5,1.5,0,0,1,29.71,8.33Zm0,3.21a1.6,1.6,0,0,1-.23.3l.23-.17Zm0,1.89v0Z"/><path class="a" d="M34.86,8.62a.08.08,0,0,1,0,0l0,0V9l0,0a.21.21,0,0,1,0,.25c0,.36,0,.74,0,1.15l.08,0a.24.24,0,0,1,0,.19.54.54,0,0,1-.13.25v.39a.11.11,0,0,1,0,.17h0v.69q0,.51-.06,1.23c0,.06,0,.14,0,.25a1.41,1.41,0,0,1-.11.46.19.19,0,0,1,0,.13h0a1.57,1.57,0,0,1-.43.58,1.4,1.4,0,0,1-.63.32.28.28,0,0,1-.13.06h0l0,0h-.17a1.75,1.75,0,0,1-.4,0h0a.09.09,0,0,1-.09,0,.14.14,0,0,1-.08,0,.07.07,0,0,1,0-.09,1.44,1.44,0,0,1-.54-.41l0,0a.08.08,0,0,1-.09,0,.14.14,0,0,1-.08,0,.17.17,0,0,1,0-.23l0-.07,0,0a.13.13,0,0,1,0-.1,1.43,1.43,0,0,1-.09-.27s0,0,0,0a.15.15,0,0,1,0-.15.44.44,0,0,1,0-.1c0-.15,0-.31,0-.48a.1.1,0,0,1,0-.13v-.27a.1.1,0,0,1-.08,0c-.06-.09,0-.21.1-.38v-.79c0-.89,0-1.52.06-1.88,0,0,0,0,0,0s0-.14,0-.23c0-.52,0-1,0-1.36,0,0,0,0,0,0s0-.14.05-.25V7.7l-.07,0a.29.29,0,0,1-.06-.19.66.66,0,0,1,.13-.27V7.14a.22.22,0,0,1,0-.19V6.74l0,0a.2.2,0,0,1-.05-.19.47.47,0,0,1,.07-.17v0a.17.17,0,0,1-.05-.18A.76.76,0,0,1,31.63,6V5.82a.11.11,0,0,1,0-.08V5.68a2.88,2.88,0,0,1,0-.32.17.17,0,0,1,0-.14c0-.49,0-.85,0-1.07a2.64,2.64,0,0,0,0-.29l0,0c-.05-.06,0-.15,0-.27s0-.24,0-.4a.09.09,0,0,1,0-.15l0,0c0-.18,0-.38.05-.61a.08.08,0,0,1,0-.06,2.15,2.15,0,0,1,0-.23l0,0c-.05-.07,0-.17.08-.31s0,0,0,0a3.05,3.05,0,0,1,.13-.32.14.14,0,0,1,0-.14s0,0,0,0l0,0a1.4,1.4,0,0,1,.67-.54l0,0a1.51,1.51,0,0,1,.48-.08h.13a1.48,1.48,0,0,1,.79.31.27.27,0,0,1,.13,0,.3.3,0,0,1,.14.06.26.26,0,0,1,0,.27,1.56,1.56,0,0,1,.31,1.05,3.54,3.54,0,0,0,0,.48.09.09,0,0,1,.07,0,.2.2,0,0,1,0,.13.5.5,0,0,1-.13.23v.6a.05.05,0,0,0,0,0,.33.33,0,0,1,0,.15s0,.08,0,.14v.44a.1.1,0,0,1,0,0,.14.14,0,0,1,0,.13.29.29,0,0,1-.08.17.28.28,0,0,0,0,.08s0,.07,0,.09a.12.12,0,0,1,0,.14c0,.37,0,.66,0,.88v.39c.08.1.08.23,0,.4v.65a.19.19,0,0,1,.07.06c.05.06,0,.14,0,.23s0,0,0,0v.69a.05.05,0,0,1,0,0C34.93,8.52,34.92,8.57,34.86,8.62ZM31.73,12.8l.48-.44,1.17-1.07-1.65,1.34v.17Zm0-1.11v.08a26.82,26.82,0,0,0,2.78-2.54,5.29,5.29,0,0,0-.6.44l-1.17,1.1A7,7,0,0,1,31.75,11.69Zm0-.52a.34.34,0,0,0,0,.13c.07-.07.18-.17.3-.3l.06,0A.85.85,0,0,1,31.77,11.17Zm0,2.49a.58.58,0,0,0,.13-.11l-.06,0A.35.35,0,0,1,31.77,13.66Zm0-4.06v.17A2.51,2.51,0,0,1,32,9.52c.25-.25.6-.6,1-1l.08-.08C32.71,8.78,32.26,9.18,31.79,9.6Zm0-.58V9.2c.12-.12.38-.33.76-.64.69-.56,1.18-1,1.46-1.24a3.5,3.5,0,0,0,.48-.5Zm0-1v.25L32.07,8c.25-.25.58-.58,1-1Zm2.75.52v-.1l-.39.31c-.7.57-1.22,1-1.57,1.32a4.74,4.74,0,0,0-.79.84,18.06,18.06,0,0,0,1.37-1.19A15.93,15.93,0,0,1,34.57,8.49ZM31.84,7.3v0c.21-.16.62-.52,1.25-1.1a10.45,10.45,0,0,0-.84.69A2.23,2.23,0,0,0,31.84,7.3Zm0-.89c.3-.2.84-.64,1.63-1.32l0,0c-.57.42-1,.72-1.18.9A3.15,3.15,0,0,0,31.86,6.41Zm0-1.61V5l.52-.47a22.06,22.06,0,0,0,2-1.94,4.93,4.93,0,0,0-1.34,1c-.42.41-.81.81-1.17,1.19A0,0,0,0,1,31.9,4.8ZM32,3.19a.24.24,0,0,0,0,.1l.84-.75a13.9,13.9,0,0,0,1.4-1.34,11.08,11.08,0,0,0-1.11,1A9.19,9.19,0,0,1,32,3.19Zm.82,1.71c.51-.42,1.06-.89,1.65-1.4a.13.13,0,0,1,.1,0v-.1c-.18.17-.53.46-1,.87s-1,.76-1.17,1a1.7,1.7,0,0,0-.38.4.73.73,0,0,1,.09-.08C32.25,5.36,32.5,5.15,32.82,4.9Zm.56-.12-.4.31c-.31.26-.56.45-.75.59L32,5.91C32.27,5.7,32.74,5.32,33.38,4.78Zm1.15-3.05-.21.21-.73.64A15.49,15.49,0,0,0,32,4.05a2.94,2.94,0,0,0,.61-.44,6.56,6.56,0,0,0,.6-.5A1.29,1.29,0,0,1,33.38,3c.38-.36.77-.74,1.17-1.15A.24.24,0,0,0,34.53,1.73Zm-2.48.73a1.48,1.48,0,0,1,0,.21l.44-.5A2.24,2.24,0,0,1,32.05,2.46Zm1.52,4.45L34,6.47l.28-.26a1.12,1.12,0,0,1,.18-.14.19.19,0,0,1,.12,0V5.74L32.09,8.29c.11-.07.23-.18.39-.3S33.07,7.42,33.57,6.91Zm-1.15,7.68a1.46,1.46,0,0,1,.17-.16c.51-.47.9-.85,1.17-1.13s.37-.4.48-.54l-2.13,1.73a2.08,2.08,0,0,0,.21.21Zm2.17-7V7.37c-1.09,1-1.9,1.81-2.42,2.34.33-.32.91-.82,1.73-1.49l.67-.58S34.59,7.64,34.59,7.62Zm-.1,4.24c0-.1,0-.16,0-.19-.91.78-1.62,1.43-2.13,1.94l.4-.37A9,9,0,0,1,34.49,11.86Zm0-1.82a1,1,0,0,1,0-.12,1.2,1.2,0,0,0-.17.16l-.91.78c-.43.36-.74.63-.94.81Zm-2,4.79.12-.11-.14.11ZM34.45,4.59l-.67.62-1,.9c.55-.45,1.16-1,1.81-1.52V4.5ZM33.17,15a3.2,3.2,0,0,1,.71-.83l.34-.34c-.33.27-.77.65-1.32,1.15l.25,0Zm-.25-14,.06,0h0Zm1,0L32.92,2h0c.55-.54.91-.88,1.09-1Zm.28,12.41c-.19.15-.49.43-.92.84l-.15.14.19-.16C33.74,13.8,34,13.52,34.18,13.36ZM33.57.83a.69.69,0,0,1-.15.21l.21-.19Zm.75,13.26a.3.3,0,0,1,0-.08,3.47,3.47,0,0,0-.31.29,4.84,4.84,0,0,0-.4.4Zm.29-8.67s0,0,0-.08l-.79.71.29-.23.46-.37Zm-.23-4c-.12.14-.3.32-.54.55l.57-.48Zm.15,9.19V10.5l-.46.48C34.22,10.84,34.38,10.7,34.53,10.58Zm0-2.54,0,0-.31.3Zm-.1,4.88v0s0,0,0,.06Zm.12-10.69v0l-.1.1h0l.08,0v-.1Zm0,4.2v0h0l-.1.12.08-.06Zm0,2.53v0s0,0,0,0l0,0Zm-.06-6.09a.09.09,0,0,1,.06,0v0Z"/><path class="a" d="M45.12,6.2a1.63,1.63,0,0,1,0,.54,9.43,9.43,0,0,1-.29,1,.12.12,0,0,1,0,.18l0,0c-.09.29-.2.62-.34,1v.1a1,1,0,0,1-.16.33,2,2,0,0,1-.07.19.19.19,0,0,1,0,.08.15.15,0,0,1,0,.09l-.08.06c0,.09-.08.18-.11.27a4.82,4.82,0,0,1-.22.53,2.47,2.47,0,0,1-.15.43.37.37,0,0,1,0,.23,1.1,1.1,0,0,1-.33.53c-.05.13-.09.23-.13.31a.14.14,0,0,1,0,.15h0a.05.05,0,0,1,0,0c0,.1-.07.21-.11.31a.41.41,0,0,1,0,.19,1.43,1.43,0,0,1-.31.58,4.6,4.6,0,0,0-.21.55.12.12,0,0,1,0,.1.41.41,0,0,1-.16.25,1.3,1.3,0,0,1-.06.19l-.07.15L41.74,16a.17.17,0,0,1,0,.14.65.65,0,0,1-.19.32c-.07.17-.12.32-.17.45v0c.08.1,0,.27-.22.51l-.15.41A.11.11,0,0,1,41,18c0,.12-.08.23-.13.35a2,2,0,0,0-.08.23l0,0c.05.06,0,.14-.06.23l-.05.05c-.07.18-.13.33-.18.44a.07.07,0,0,1,0,.06.1.1,0,0,1,0,.14l0,0s0,0,0,0a1.48,1.48,0,0,1-1.31.69,1.66,1.66,0,0,1-.49-.07.76.76,0,0,1-.16-.06.12.12,0,0,1-.11,0,.13.13,0,0,1-.1,0,.11.11,0,0,1,0-.11L38,19.84a.14.14,0,0,1-.12,0,.11.11,0,0,1-.09,0,.1.1,0,0,1,0-.13h0a.39.39,0,0,1-.14-.08.2.2,0,0,1,0-.17.22.22,0,0,1,0-.1,1.53,1.53,0,0,1-.11-.27.08.08,0,0,1-.06,0,.1.1,0,0,1-.07-.05c-.07-.08,0-.2.07-.35a1.73,1.73,0,0,1,0-.4s0-.08,0-.12v-.06a.34.34,0,0,1,.08-.19l0-.07c.06-.2.14-.42.23-.68v0a.13.13,0,0,1,0-.08l.16-.48c-.05-.06,0-.16.09-.29v0s0-.06,0-.07l0,0a.37.37,0,0,1-.07-.29,1.32,1.32,0,0,1,.26-.5v0a.77.77,0,0,1,.22-.31.11.11,0,0,0,0-.05.61.61,0,0,1,0-.14.75.75,0,0,1,.19-.32.68.68,0,0,0-.08-.39.14.14,0,0,1-.1-.05s0-.06,0-.08a.22.22,0,0,1,0-.08.87.87,0,0,0-.07-.17.15.15,0,0,1-.14,0,.11.11,0,0,1,0-.17l0,0c-.2-.45-.4-.88-.59-1.29h0a.17.17,0,0,1-.1,0,.12.12,0,0,1,0-.18l0,0a.53.53,0,0,0-.08-.15h0a.25.25,0,0,1-.14-.08c0-.06,0-.13,0-.21q-.23-.51-.42-1s0,0-.08,0a.13.13,0,0,1,0-.18l-.27-.67h0a.11.11,0,0,1-.09,0,.2.2,0,0,1,0-.17.17.17,0,0,1,0-.11c-.12-.32-.22-.62-.31-.89h0a.12.12,0,0,1,0-.14A13.9,13.9,0,0,1,35.91,7a1.79,1.79,0,0,1,0-.23l0,0q-.08-.09,0-.27a.88.88,0,0,1,0-.17V6.2a.24.24,0,0,1,0-.21,1.35,1.35,0,0,1,.38-.68A1.55,1.55,0,0,1,37,4.94a1.5,1.5,0,0,1,.37,0,1.77,1.77,0,0,1,.5.07h0a.13.13,0,0,1,.07,0,1.53,1.53,0,0,1,.69.64c0,.11.11.26.18.46,0,0,0,0,0,0a10.08,10.08,0,0,0,.53,1.31h0a.19.19,0,0,1,0,.08l.13.3h0a.09.09,0,0,1,.08,0,.14.14,0,0,1,0,.17l0,.1a.2.2,0,0,1,0,.08.13.13,0,0,1,.09.07s0,.09,0,.16l.1.19.08,0a.11.11,0,0,1,.09.06q.06.08-.06.21a2.59,2.59,0,0,0,.14.29s0,0,0,0a.28.28,0,0,1,0,.12.1.1,0,0,0,0,.06v0h0a.18.18,0,0,1,.1,0,.2.2,0,0,1,0,.21,1.59,1.59,0,0,1,.08.18h0a.11.11,0,0,1,.08,0l0,0,0,0c.06-.17.13-.34.19-.49V9.27a.9.9,0,0,1,.21-.4l.16-.37a.11.11,0,0,1,0-.11.86.86,0,0,1,.21-.4.26.26,0,0,0,0-.09l0-.11L42,6.51c-.09-.1,0-.3.23-.6A1.54,1.54,0,0,1,43.1,5l0,0a.09.09,0,0,1,.1,0,1.29,1.29,0,0,1,.4-.06,1.58,1.58,0,0,1,.38,0l.16,0h.13a.16.16,0,0,1,.12,0,.12.12,0,0,1,0,.1,1.79,1.79,0,0,1,.4.38l.06,0a.07.07,0,0,1,.07.06.14.14,0,0,1,0,.14.51.51,0,0,1,0,.09c0,.1.07.21.1.31A.11.11,0,0,1,45.12,6.2ZM37,5.61a11.43,11.43,0,0,0-.84.82q.23-.16.75-.63a.93.93,0,0,1,.23-.21.36.36,0,0,1,.09-.12l.35-.32-.14,0a.46.46,0,0,1-.13.17Zm-.76,1.65,1-1.06-.17.16a8.33,8.33,0,0,1-.9.72A.76.76,0,0,0,36.24,7.26Zm.09.38.44-.38.79-.75.5-.52c-.45.35-1,.86-1.77,1.54Zm.08.27a.7.7,0,0,0,.06.19l.17-.21c.15-.15.43-.43.82-.84l.79-.81c-.1.08-.22.17-.35.29l-.15.13-.23.23L37,7.41s0,0,0,0A6.89,6.89,0,0,1,36.41,7.91Zm.13-2.3,0,.07a2.88,2.88,0,0,0,.21-.23L37,5.19l-.11,0a.64.64,0,0,1-.1.16A1.48,1.48,0,0,1,36.54,5.61Zm.12,3.05a1.31,1.31,0,0,1,.19-.21c.09-.11.26-.28.52-.54s.68-.67.86-.86L36.56,8.43A1.6,1.6,0,0,1,36.66,8.66Zm1.21-3.42c-.2.18-.39.36-.58.52L37.08,6c-.21.19-.37.36-.5.5.08-.06.19-.16.35-.31a11.26,11.26,0,0,1,1-.86A.24.24,0,0,1,37.87,5.24Zm-1.1,3.67h0v0Zm.23.4c.26-.19.65-.52,1.19-1L38,8.47c-.41.3-.69.52-.85.65Zm.06.48a.69.69,0,0,0,.1-.12l.34-.38.21-.23c-.32.27-.55.45-.71.56A1.77,1.77,0,0,0,37.06,9.79Zm.12.25a.88.88,0,0,0,0,.15c.16-.15.31-.3.46-.46a6.09,6.09,0,0,0,.44-.44C37.56,9.76,37.24,10,37.18,10Zm.24.63c.93-1,1.58-1.65,2-2.07a7.48,7.48,0,0,0-1.07.88l-.44.42c-.2.2-.37.38-.54.54A1.57,1.57,0,0,0,37.42,10.67Zm.16.4c0-.06.06-.12.09-.19a.28.28,0,0,1-.15,0A.53.53,0,0,1,37.58,11.07Zm.82-4.64c-.14.16-.39.41-.75.77.55-.45.89-.71,1-.79l-.06-.17v0A1.2,1.2,0,0,1,38.4,6.43Zm-.67,5a0,0,0,0,0,0,0s0,0-.06,0a.14.14,0,0,0,0,.06Zm0,7,.31-.3c.37-.38.89-.86,1.57-1.46.42-.39.9-.8,1.42-1.25l-.44.33a3.09,3.09,0,0,1-.29.21,1.72,1.72,0,0,1-.19.17c-.58.51-1.29,1.18-2.15,2a1.45,1.45,0,0,1-.21.2v0A.19.19,0,0,0,37.73,18.4Zm.1-7.31A5.93,5.93,0,0,0,39,10.17c.29-.27.61-.56.94-.88l-.1-.21-.07.06c-.54.48-.94.87-1.21,1.15A4.23,4.23,0,0,0,37.83,11.09Zm.06.69,0,0a.08.08,0,0,1,0,0l.44-.42A2.28,2.28,0,0,1,37.89,11.78Zm0,7.6a2.29,2.29,0,0,0,.27-.17.69.69,0,0,1-.25.09l0,.06S37.94,19.37,37.94,19.38Zm.23-13.91a.77.77,0,0,1-.19.27l.29-.19ZM38,12.15s0,0,0,0,0,0,0,.05c.29-.26.57-.52.82-.77C38.51,11.79,38.22,12,38,12.15Zm0,5.14,0,.1.06,0,.17-.14A.87.87,0,0,1,38.08,17.29Zm1.17-9.51a.36.36,0,0,0-.08.09l-.52.54L38.06,9l.59-.5.56-.46L39.32,8C39.29,7.88,39.26,7.81,39.25,7.78Zm-1.08,11c.23-.2.61-.48,1.13-.87.12-.11.29-.29.5-.52-.53.43-.94.75-1.21,1Zm.14-6.33.32-.29a11.54,11.54,0,0,1,.9-.85c.32-.3.55-.53.7-.69a4.45,4.45,0,0,0-.48.41c-.25.2-.6.52-1.06,1-.28.28-.45.44-.5.48s0,0,0,0S38.28,12.49,38.31,12.46Zm.55-5.55a1.07,1.07,0,0,0-.07-.15,4.25,4.25,0,0,1-.58.65A5.83,5.83,0,0,1,38.86,6.91Zm-.59,12.82a1.41,1.41,0,0,1,.21-.23l-.25.19Zm0-3.09s0,0,0,.05a.59.59,0,0,1,0,.08l.34-.27A.9.9,0,0,1,38.31,16.64Zm1.17-7.77-.79.82-.4.43,1-.89.44-.42a.36.36,0,0,0-.08-.13Zm2.07,4.78c-1.6,1.34-2.62,2.22-3,2.64a10.83,10.83,0,0,0,.92-.71q.6-.51,1.92-1.74Zm-2.9-.45c.1,0,.38-.17.83-.57q.42-.41,1.53-1.56l.21-.23-2.38,1.94a1,1,0,0,0-.21.39Zm0,2.31-.06.13L42,12.9c-.33.24-.81.58-1.44,1l-.42.29-.06,0C39.31,15,38.84,15.39,38.69,15.51ZM38.83,20a1.21,1.21,0,0,1,.17-.29l-.33.25A.42.42,0,0,0,38.83,20Zm-.12-6.33.1.17.61-.48.94-.88,1.07-1C40.59,12.12,39.68,12.86,38.71,13.63Zm1.5-2.54-.33.27-.17.14c-.17.16-.42.4-.77.71l0,0,0,0,0,0a5.59,5.59,0,0,0,.51-.44C39.59,11.68,39.87,11.41,40.21,11.09Zm-.37,6.74-.07.05-.31.23-.63.6.21-.17.4-.35Zm1.86-2.42a1.1,1.1,0,0,0,.09-.23c0-.1.05-.16.07-.17l-2,1.68c-.4.36-.74.68-1,.94.21-.16.41-.33.6-.49s.65-.55.92-.77l.63-.51c.16-.12.28-.22.39-.29l.21-.13Zm-2.82,4.05.9-.77Zm.23-11.91s0,0,0,0S39.11,7.53,39.11,7.55Zm2.42,4.39c-.45.37-.93.76-1.46,1.17a7.63,7.63,0,0,0-.92,1,23.31,23.31,0,0,0,2.13-1.84l1-.91Zm-1.94,7.94a1.18,1.18,0,0,1,.31-.54c-.22.19-.45.4-.69.64A1.41,1.41,0,0,0,39.59,19.88Zm3.76-8.82,0-.08c-.24.23-.82.7-1.72,1.4S40.08,13.65,39.73,14c-.12.1-.22.2-.31.29Zm-.84,2.2c0-.06.06-.15.09-.25l-1.09,1c-.91.84-1.57,1.44-2,1.78.75-.56,1.35-1,1.81-1.44A8.17,8.17,0,0,0,42.51,13.26ZM40,10.12l-.36.38c.19-.15.38-.31.56-.48a.26.26,0,0,0,0-.1A.94.94,0,0,1,40,10.12Zm.5,8.44a.52.52,0,0,1,.06-.2l-.58.56A2,2,0,0,1,40.53,18.56Zm-.32.8v0l0,0v0Zm1.15-3a.79.79,0,0,0,0-.13,4,4,0,0,0-.41.34c-.14.13-.32.3-.53.52.19-.14.35-.27.49-.39Zm3.35-9c.06-.2.1-.39.14-.58a.05.05,0,0,1-.06,0l-.06,0a.56.56,0,0,0-.15,0c-1.85,1.63-3,2.68-3.59,3.17a1.61,1.61,0,0,1-.19.19c0,.11-.09.25-.15.4l1-.77,1.43-1.32a11,11,0,0,1,1-.79c.29-.2.49-.3.61-.28Zm-3.2,3.76a24,24,0,0,0,2.67-2.4h0a.89.89,0,0,0-.48.22,9.4,9.4,0,0,0-.8.67c-.32.3-.59.56-.8.78l-.9.92a2.39,2.39,0,0,1-.32.32Zm-.4,6h0Zm.11-8c0,.08,0,.15-.07.22l.73-.58a11.36,11.36,0,0,1,2.55-2.13l.44-.36,0-.14a13.78,13.78,0,0,1-1.5,1.23A19.4,19.4,0,0,0,41.22,9Zm.52-1a.36.36,0,0,1-.08.09L41.78,8ZM42,7.12v0l0,.06a.47.47,0,0,1,.1-.1A.13.13,0,0,1,42,7.12Zm.44-1.07,0,0c.3-.23.65-.54,1.08-.92a.66.66,0,0,0-.27.06A7.36,7.36,0,0,0,42.45,6.05ZM44,5.63l-1.37,1.3.66-.5L43.79,6l.64-.61-.16-.1A4.09,4.09,0,0,1,44,5.63Zm-.33,4.72a1.6,1.6,0,0,1,.1-.23l-.62.46-.21.19c.37-.3.61-.44.71-.42Zm-.36-1.79c.67-.5,1.1-.83,1.28-1a7.28,7.28,0,0,0-1,.77Zm.57,1L44,9.37l-.29.23Zm0-4.39a.63.63,0,0,1,0,.09l.1-.07A.1.1,0,0,0,43.85,5.15Zm.48,3.32.08-.2-.18.16A.13.13,0,0,1,44.33,8.47Zm.25-2.82a.09.09,0,0,1,.06,0l0,0Zm.31.82v0a.05.05,0,0,0,0,0Z"/></svg>