<svg xmlns="http://www.w3.org/2000/svg" viewBox="0 0 2499.24 1000"><defs><style>.a{fill:#79848f;}</style></defs><path class="a" d="M195.44,316.22c-29.31,0-38.11,12.9-38.11,41.63v47.49H235.9l-7.62,77.39H157.33V716.67H62.94V482.73H-.38v-76.8H62.94V359.61C62.94,281,94.6,240,182,240a435.72,435.72,0,0,1,55.11,3.52v72.7m5.28,235.11c0-86.77,41-152.44,127.81-152.44,46.91,0,75.63,24,89.71,54.53V405.93h90.29V717.25H459.28v-46.9c-12.9,29.9-42.8,53.35-89.7,53.35-86.19,0-127.82-65.08-127.82-152.43m95,1.17c0,46.32,17,77.39,61,77.39,38.69,0,58-28.14,58-72.7V545.47c0-44.56-19.93-72.7-58-72.7-44,0-61,30.48-61,77.39v22.28ZM746,398.89c36.35,0,71.53,7.62,90.29,21.11l-21.1,66.84a144.37,144.37,0,0,0-62.74-14.07c-51,0-73.29,29.31-73.29,79.73v18.18c0,50.42,22.28,79.74,73.29,79.74a144.93,144.93,0,0,0,62.74-14.66l21.1,66.84c-18.76,12.9-53.35,21.1-90.29,21.1-110.81,0-160.64-59.21-160.64-154.78V554.26c0-95.57,49.83-155.37,160.64-155.37M848.59,573V545.47c0-88.53,50.42-146.58,153-146.58,96.74,0,139.54,58.63,139.54,145.41v49.83H943c1.76,42.8,21.11,61.56,73.29,61.56a281.51,281.51,0,0,0,100.26-18.76l17,64.49c-24.63,12.9-75.63,22.87-120.78,22.87C893.14,723.7,848.59,664.49,848.59,573M943,532h113.74v-7.62c0-34-13.48-61-55.11-61-42.21,0-58.63,27-58.63,68.59m547.61,39.29c0,86.77-41.63,152.43-128.4,152.43-46.91,0-79.74-23.45-92.64-53.35v46.9h-89.12V249.38l94.4-8.2V449.31c13.48-27.55,44-49.83,87.94-49.83,86.19,0,128.4,65.08,128.4,152.44m-95-2.35c0-44-17-76.8-62.14-76.8-38.7,0-59.22,27.55-59.22,72.11v32.83c0,44.56,21.11,72.12,59.22,72.12,45.14,0,62.14-32.83,62.14-76.81V549.57Zm125.47,19.35V553.09c0-89.7,51-154.2,154.79-154.2s154.78,64.5,154.78,154.2v15.83c0,89.7-51,154.2-154.78,154.2s-154.79-63.91-154.79-154.2m215.76-22.28c0-41-17-73.87-61-73.87s-61,32.83-61,73.87V576c0,41,17,73.87,61,73.87s61-32.83,61-73.87Zm126.06,22.28V553.09c0-89.7,51-154.2,154.78-154.2s154.79,64.5,154.79,154.2v15.83c0,89.7-51,154.2-154.79,154.2s-154.78-63.91-154.78-154.2m215.76-22.28c0-41-17-73.87-61-73.87s-61,32.83-61,73.87V576c0,41,17,73.87,61,73.87s61-32.83,61-73.87Zm223.38,7.62,93.22-148.92h99.67l-97.32,154.2,101.43,157.71H2399.36l-96.74-152.43V717.25h-93.81V249.38l93.81-8.79M1317.15,980.41a.18.18,0,1,0,.18.18A.18.18,0,0,0,1317.15,980.41Zm.93-998.7a.18.18,0,0,0-.17.18.18.18,0,0,0,.17.18.18.18,0,0,0,.18-.18A.18.18,0,0,0,1318.08-18.29Z"/></svg>