<svg xmlns="http://www.w3.org/2000/svg" viewBox="0 0 2500 484.29"><defs><style>.a{fill:#79848f;}</style></defs><path class="a" d="M195.83,76.22c-29.32,0-38.11,12.9-38.11,41.63v47.49h78.56l-7.62,77.39H157.72V476.67H63.32V242.73H0V165.92H63.32V119.61C63.32,41,95,0,182.34,0a433.76,433.76,0,0,1,55.11,3.52v72.7m5.28,235.11c0-86.78,41-152.44,127.81-152.44,46.91,0,75.64,24,89.71,54.52V165.92h90.29V477.25H459.66v-46.9c-12.9,29.9-42.8,53.35-89.7,53.35-86.19,0-127.82-65.08-127.82-152.44m95,1.17c0,46.32,17,77.4,61,77.4,38.7,0,58-28.15,58-72.71V305.46c0-44.55-19.93-72.7-58-72.7-44,0-61,30.49-61,77.39v22.28ZM746.36,158.89c36.36,0,71.53,7.62,90.3,21.11l-21.11,66.83a144.37,144.37,0,0,0-62.74-14.07c-51,0-73.28,29.32-73.28,79.74v18.18c0,50.42,22.28,79.73,73.28,79.73a144.92,144.92,0,0,0,62.74-14.65l21.11,66.83c-18.77,12.9-53.36,21.11-90.3,21.11-110.81,0-160.64-59.22-160.64-154.78V314.26c0-95.57,49.83-155.37,160.64-155.37M849,333V305.46c0-88.53,50.42-146.57,153-146.57,96.74,0,139.54,58.63,139.54,145.4v49.84H943.36c1.76,42.8,21.11,61.56,73.29,61.56a281.47,281.47,0,0,0,100.26-18.76l17,64.49c-24.62,12.9-75.63,22.87-120.78,22.87C893.53,483.7,849,424.48,849,333m94.39-41h113.75v-7.62c0-34-13.49-61-55.12-61-42.21,0-58.63,27-58.63,68.6M1491,331.26c0,86.77-41.63,152.44-128.4,152.44-46.9,0-79.74-23.45-92.64-53.35v46.9h-89.11V9.38l94.39-8.21V209.31c13.49-27.56,44-49.84,88-49.84,86.18,0,128.4,65.08,128.4,152.44m-95-2.34c0-44-17-76.81-62.15-76.81-38.7,0-59.22,27.56-59.22,72.12v32.83c0,44.56,21.11,72.12,59.22,72.12,45.14,0,62.15-32.84,62.15-76.81V309.57Zm125.47,19.35V313.09c0-89.71,51-154.2,154.78-154.2s154.78,64.49,154.78,154.2v15.83c0,89.7-51,154.19-154.78,154.19s-154.78-63.9-154.78-154.19m215.75-22.28c0-41-17-73.88-61-73.88s-61,32.84-61,73.88V336c0,41,17,73.88,61,73.88s61-32.84,61-73.88Zm126.06,22.28V313.09c0-89.71,51-154.2,154.78-154.2s154.79,64.49,154.79,154.2v15.83c0,89.7-51,154.19-154.79,154.19s-154.78-63.9-154.78-154.19m215.76-22.28c0-41-17-73.88-61-73.88s-61,32.84-61,73.88V336c0,41,17,73.88,61,73.88s61-32.84,61-73.88ZM2303,314.26l93.22-148.92h99.68l-97.33,154.2L2500,477.25H2399.74L2303,324.81V477.25h-93.81V9.38L2303,.59"/></svg>