<svg xmlns="http://www.w3.org/2000/svg" viewBox="0 0 2499.24 1000"><defs><style>.a{fill:#79848f;}</style></defs><path class="a" d="M195.44,334.08c-29.31,0-38.11,12.89-38.11,41.62v47.49H235.9l-7.62,77.4H157.33V734.52H62.94V500.59H-.38V423.78H62.94V377.46c0-78.56,31.66-119.6,119-119.6a435.71,435.71,0,0,1,55.11,3.51v72.71m5.28,235.1c0-86.77,41-152.44,127.81-152.44,46.91,0,75.63,24,89.71,54.53V423.78h90.29V735.11H459.28V688.2c-12.9,29.91-42.8,53.36-89.7,53.36-86.19,0-127.82-65.08-127.82-152.44m95,1.17c0,46.32,17,77.39,61,77.39,38.69,0,58-28.14,58-72.7V563.32c0-44.56-19.93-72.7-58-72.7-44,0-61,30.49-61,77.39v22.28ZM746,416.74c36.35,0,71.53,7.63,90.29,21.11l-21.1,66.84a144.37,144.37,0,0,0-62.74-14.07c-51,0-73.29,29.31-73.29,79.74v18.17c0,50.42,22.28,79.74,73.29,79.74a144.93,144.93,0,0,0,62.74-14.66l21.1,66.84c-18.76,12.9-53.35,21.11-90.29,21.11-110.81,0-160.64-59.22-160.64-154.79V572.12c0-95.57,49.83-155.38,160.64-155.38M848.59,590.88V563.32c0-88.53,50.42-146.58,153-146.58,96.74,0,139.54,58.64,139.54,145.41V612H943c1.76,42.8,21.11,61.57,73.29,61.57a281.3,281.3,0,0,0,100.26-18.77l17,64.5c-24.63,12.9-75.63,22.86-120.78,22.86-119.61-.58-164.16-59.8-164.16-151.26m94.39-41h113.74v-7.63c0-34-13.48-61-55.11-61-42.21,0-58.63,27-58.63,68.6m547.61,39.28c0,86.77-41.63,152.44-128.4,152.44-46.91,0-79.74-23.45-92.64-53.36v46.91h-89.12V267.24l94.4-8.21V467.17c13.48-27.56,44-49.84,87.94-49.84,86.19,0,128.4,65.08,128.4,152.44m-95-2.35c0-44-17-76.8-62.14-76.8-38.7,0-59.22,27.56-59.22,72.11v32.84c0,44.56,21.11,72.11,59.22,72.11,45.14,0,62.14-32.83,62.14-76.8V567.42Zm125.47,19.35V570.94c0-89.7,51-154.2,154.79-154.2s154.78,64.5,154.78,154.2v15.83c0,89.71-51,154.2-154.78,154.2s-154.79-63.91-154.79-154.2m215.76-22.28c0-41-17-73.87-61-73.87s-61,32.83-61,73.87v29.32c0,41,17,73.87,61,73.87s61-32.83,61-73.87Zm126.06,22.28V570.94c0-89.7,51-154.2,154.78-154.2s154.79,64.5,154.79,154.2v15.83c0,89.71-51,154.2-154.79,154.2s-154.78-63.91-154.78-154.2m215.76-22.28c0-41-17-73.87-61-73.87s-61,32.83-61,73.87v29.32c0,41,17,73.87,61,73.87s61-32.83,61-73.87Zm223.38,7.63,93.22-148.93h99.67l-97.32,154.2,101.43,157.72H2399.36l-96.74-152.44V735.11h-93.81V267.24l93.81-8.8M1317.15,998.26a.18.18,0,1,0,.18.18A.18.18,0,0,0,1317.15,998.26Zm.93-998.7a.18.18,0,0,0-.17.18.18.18,0,0,0,.17.18.18.18,0,0,0,.18-.18A.18.18,0,0,0,1318.08-.44Z"/></svg>