<svg xmlns="http://www.w3.org/2000/svg" viewBox="0 0 2514.2 1000"><defs><style>.a{fill:#79848f;stroke:#79848f;stroke-miterlimit:10;stroke-width:13px;}</style></defs><path class="a" d="M136,233C84.85,254.38,28.62,314.85,10.86,390.8-11.64,487,82,527.69,89.65,514.37c9-15.68-16.78-21-22.09-70.9C60.69,379,90.67,307,128.39,275.35c7-5.87,6.68,2.3,6.68,17.42,0,27-1.49,269.75-1.49,320.41,0,68.54-2.83,90.18-7.92,111.57-5.15,21.67-13.43,36.31-7.16,42,7,6.31,36.95-8.7,54.28-32.89,20.78-29,28.06-63.85,29.36-101.69,1.58-45.61,1.51-118,1.58-159.26.06-37.86.64-148.73-.66-215.38C202.74,241.14,157.4,224,136,233ZM2495.39,593c-7.42,0-10.8,7.65-13.61,20.53-9.72,44.77-19.93,54.87-33.1,54.87-14.71,0-27.94-22.17-31.34-66.54-2.67-34.89-2.24-99.13,1.18-163,.7-13.13-2.93-26.12-38.14-38.91-15.15-5.51-37.18-13.61-48.15,12.87-31,74.79-43.11,134.17-46,158.29-.15,1.24-1.68,1.5-1.95-1.42-1.82-19.32-5.88-54.43-6.39-128.18-.09-14.4-3.14-26.65-19-36.68-10.3-6.51-41.6-18-52.87-4.32-9.76,11.2-21.07,41.34-32.82,77.06-9.55,29-16.2,48.67-16.2,48.67s.12-78.34.24-108.06c.05-11.21-7.64-14.95-10-15.62-10.44-3-31-8.09-39.73-8.09-10.77,0-13.41,6-13.41,14.79,0,1.15-1.7,103.15-1.7,174.47,0,3.1,0,6.48,0,10.07-6,32.78-25.28,77.28-46.28,77.28s-31-18.6-31-103.63c0-49.6,1.49-71.17,2.22-107,.43-20.67,1.25-36.54,1.2-40.14-.16-11-19.25-16.6-28.14-18.67s-16.68-2.87-22.74-2.53c-8.57.49-14.64,6.11-14.64,13.85,0,4.14,0,12,0,12-11-17.36-28.81-29.43-40.62-32.93-31.83-9.45-65-1.08-90.09,34-19.91,27.85-31.92,59.4-36.64,104.72-3.45,33.14-2.33,66.74,3.81,95.16-7.42,32.06-21.18,45.2-36.26,45.2-21.89,0-37.76-35.72-35.92-97.51,1.22-40.65,9.35-69.16,18.24-110.42,3.79-17.6.71-26.8-7-35.63-7.09-8.1-22.18-12.23-43.88-7.14-15.45,3.62-37.56,7.53-57.77,10.52a117,117,0,0,0,2.22-13.45c5.26-45-43.65-41.35-59.25-27-9.31,8.58-15.65,18.71-18.06,36.9-3.81,28.88,19.74,42.51,19.74,42.51-7.73,35.38-26.68,81.58-46.23,115C1515,602.77,1507,616,1496.63,630.14q-.06-7.86-.09-15.73c-.24-74.37.76-132.9,1.19-154,.43-20.66,1.26-36.11,1.21-39.71-.12-8.07-4.83-11.13-14.64-15a104,104,0,0,0-29.57-6.6c-13.43-1-21.52,6.07-21.31,14.5,0,1.59,0,11.35,0,11.35-11-17.35-28.81-29.43-40.62-32.93-31.83-9.45-65-1.07-90.1,34-19.9,27.85-32.94,66.94-36.63,104.38-3.45,34.89-2.81,64.55,1.88,89.53-5.06,25-19.61,51.17-36.06,51.17-21,0-33-18.6-33-103.63,0-49.6,1.49-71.17,2.22-107,.43-20.67,1.25-36.54,1.2-40.14-.16-11-19.25-16.61-28.14-18.67-9.29-2.15-17.32-2.94-23.48-2.48-8.14.6-13.85,7.88-13.85,13.31V425c-11-17.35-28.81-29.43-40.62-32.93-31.83-9.45-64.86-.94-90.1,34-16.45,22.77-29.78,48-36.63,103.88a351,351,0,0,0-2.75,45.4c-6.56,40.13-35.54,86.39-59.25,86.39-13.88,0-27.09-26.91-27.09-84.26,0-76.4,4.73-185.16,5.53-195.65,0,0,29.95-.51,35.75-.57,14.95-.17,28.48.19,48.38-.83,10-.51,19.6-36.34,9.3-40.77-4.67-2-37.67-3.77-50.75-4C917.65,335.31,887,333,887,333s2.75-72.2,3.39-79.82c.54-6.36-7.68-9.63-12.4-11.62-11.47-4.85-21.73-7.17-33.89-9.68-16.8-3.47-24.43-.08-25.91,14.11-2.24,21.52-3.41,84.56-3.41,84.56-12.33,0-54.44-2.41-66.78-2.41-11.46,0-23.83,49.28-8,49.89,18.22.7,50,1.31,71.05,1.95,0,0-.94,110.56-.94,144.7,0,3.63,0,7.12,0,10.52-11.59,60.41-52.42,93-52.42,93,8.77-40-9.14-70-41.39-95.38-11.89-9.37-35.35-27.08-61.6-46.51,0,0,15.2-15,28.69-45.13,9.55-21.36,10-45.79-13.49-51.18-38.74-8.91-70.69,19.54-80.22,49.92-7.38,23.54-3.44,41,11,59.14,1.05,1.32,2.2,2.67,3.38,4-8.75,16.85-20.76,39.55-30.94,57.15-28.25,48.87-49.58,87.52-65.71,87.52-12.89,0-12.71-39.24-12.71-76,0-31.68,2.34-79.3,4.21-128.6.62-16.31-7.54-25.6-21.21-34-8.3-5.11-26-15.16-36.29-15.16-15.36,0-59.69,2.09-101.57,123.24-5.28,15.27-15.65,43.1-15.65,43.1l.89-145.69c0-3.42-1.82-6.73-6-9-7.05-3.82-25.9-11.66-42.66-11.66q-12,0-12,11.12l-1.46,227.94c0,17.32.45,37.52,2.17,46.35s4.46,16,7.89,20.33,7.37,7.54,13.89,8.88c6.06,1.25,39.29,5.52,41-7.18,2.07-15.21,2.15-31.67,19.6-93,27.15-95.56,62.56-142.18,79.21-158.74,2.91-2.89,6.23-3.07,6.07,1.67-.7,20.95-3.2,73.3-4.89,117.78-4.51,119,17.14,141.07,48.09,141.07,23.67,0,57-23.52,92.81-83,22.29-37.11,43.95-73.49,59.51-99.71,10.84,10,23,20.84,35.16,32.38,28.25,26.81,37.53,52.29,31.38,76.46-4.71,18.48-22.44,37.53-54,19-9.2-5.4-13.13-9.57-22.37-15.66-5-3.27-12.55-4.25-17.09-.82-11.82,8.9-18.58,20.23-22.44,34.26C575.35,686.8,589,694,603.19,700.32c12.2,5.43,38.42,10.35,55.14,10.91C723.48,713.41,775.68,679.78,812,593c6.51,74.93,34.19,117.34,82.28,117.34,32.15,0,64.39-41.56,78.49-82.45,4.05,16.67,10,31.16,17.77,43.42,37.06,58.71,109,46.07,145.06-3.78,11.16-15.41,12.87-20.95,12.87-20.95,5.26,47.08,43.17,63.53,64.88,63.53,24.31,0,49.42-11.49,67-51.1a117.55,117.55,0,0,0,6.77,12.3c37.06,58.71,108.95,46.08,145.06-3.78,1.7-2.34,3.18-4.46,4.46-6.37l1.06,30.93-33.24,30.49c-55.73,51.08-98.06,89.82-101.18,134.93-4,57.53,42.67,78.9,78,81.71,37.45,3,69.58-17.74,89.3-46.72,17.36-25.5,28.71-80.39,27.88-134.61-.33-21.72-.88-49.32-1.31-78.91a632.16,632.16,0,0,0,61.89-85c22.12-36.63,45.82-85.81,58-124.09,0,0,20.59.18,42.57-1.26,7-.46,9,1,7.74,6.13-1.56,6.22-27.76,107.27-3.85,174.58,16.36,46.07,53.25,60.9,75.12,60.9,25.6,0,50.09-19.34,63.22-48.05a102.21,102.21,0,0,0,5,9.16c37.06,58.71,108.69,46,145.06-3.78a149.11,149.11,0,0,0,12.86-20.94c7.81,48.72,45.7,63.77,67.4,63.77,22.61,0,44.06-9.27,61.46-50.45.73,18.13,1.88,33,3.69,37.63,1.1,2.86,7.52,6.45,12.2,8.19,20.68,7.66,41.77,4,49.57,2.46,5.41-1.09,9.62-5.43,10.2-16.63,1.51-29.4.58-78.81,9.5-115.53,15-61.62,28.92-85.53,35.54-97.36,3.71-6.63,7.89-7.72,8-.71.31,14.2,1,55.9,6.82,111.91,4.25,41.2,9.94,65.55,14.31,73.26,12.47,22,27.88,23.08,40.42,23.08,8,0,24.67-2.2,23.18-16.23-.73-6.83.54-49.08,15.3-109.79,9.63-39.64,25.69-75.46,31.48-88.56,2.14-4.83,3.13-1,3.1-.28-1.22,27.3-4,116.6,7.17,165.44,15.07,66.17,58.68,73.57,73.88,73.57,32.45,0,59-24.68,67.93-89.62,2.17-15.65-1-27.72-10.57-27.72ZM1136.21,552.88c-1.86,34.37-8.56,63.1-19.32,84-19.47,37.78-58,49.75-75-4.83-12.24-39.35-8.07-93-3-122,7.56-43,26.49-73.52,56-70.63C1125.33,442.36,1140.09,481.37,1136.21,552.88Zm296.59.5c-1.74,32.45-10.15,65.06-19.33,83.48-19,38-58.56,49.92-75-4.83-11.23-37.41-8.54-85.83-3-116.33,7.2-39.59,24.67-76.31,56-76.31C1422.06,439.39,1437.1,472.85,1432.8,553.38Zm7.74,221.42c-.41,59.21-9.73,111.12-29.71,126.2-28.34,21.38-66.43,5.34-58.55-37.86,7-38.23,40-77.28,88.34-125C1440.62,738.16,1440.72,749,1440.54,774.8Zm512-221.08c-1.65,35.63-9.54,63.49-19.33,83.13-19,38-58.28,49.85-75-4.83-9.1-29.8-9.53-79.57-3-121.16,6.66-42.36,25.26-74.36,56-71.47C1941.65,442.23,1955.86,481.37,1952.52,553.72ZM1391.59,1000a.18.18,0,0,1-.36,0,.18.18,0,1,1,.36,0Zm.93-998.7a.18.18,0,0,1-.18.17.18.18,0,0,1-.17-.17.18.18,0,0,1,.17-.18A.18.18,0,0,1,1392.52,1.31Z"/></svg>