<svg xmlns="http://www.w3.org/2000/svg" viewBox="0 0 2499.24 1000"><defs><style>.a{fill:#79848f;}</style></defs><path class="a" d="M128.63,233C77.48,254.38,21.24,314.85,3.48,390.8-19,487,74.59,527.69,82.27,514.37c9-15.68-16.77-21-22.09-70.9C53.32,379,83.29,307,121,275.35c7-5.87,6.68,2.3,6.68,17.42,0,27-1.5,269.75-1.5,320.41,0,68.54-2.83,90.18-7.92,111.57-5.15,21.67-13.43,36.31-7.16,42,7,6.31,36.95-8.7,54.28-32.89,20.79-29,28.06-63.85,29.37-101.69,1.58-45.61,1.51-118,1.58-159.26.06-37.86.63-148.73-.67-215.38C195.37,241.14,150,224,128.63,233ZM2488,593c-7.42,0-10.8,7.65-13.6,20.53-9.72,44.77-19.93,54.87-33.1,54.87-14.72,0-27.95-22.17-31.34-66.54-2.67-34.89-2.24-99.13,1.17-163,.7-13.13-2.92-26.12-38.14-38.91-15.15-5.51-37.18-13.61-48.14,12.87-31,74.79-43.11,134.17-46,158.29-.14,1.24-1.67,1.5-1.95-1.42-1.81-19.32-5.88-54.43-6.38-128.18-.1-14.4-3.15-26.65-19-36.68-10.31-6.51-41.61-18-52.88-4.32-9.76,11.2-21.07,41.34-32.82,77.06-9.55,29-16.2,48.67-16.2,48.67s.12-78.34.24-108.06c.05-11.21-7.64-14.95-10-15.62-10.43-3-31-8.09-39.72-8.09-10.78,0-13.41,6-13.41,14.79,0,1.15-1.7,103.15-1.7,174.47,0,3.1,0,6.48,0,10.07-6,32.78-25.27,77.28-46.28,77.28s-31-18.6-31-103.63c0-49.6,1.49-71.17,2.21-107,.43-20.67,1.25-36.54,1.2-40.14-.15-11-19.25-16.6-28.13-18.67s-16.69-2.87-22.75-2.53c-8.57.49-14.63,6.11-14.63,13.85,0,4.14,0,12,0,12-11-17.36-28.81-29.43-40.63-32.93-31.82-9.45-65-1.08-90.09,34-19.91,27.85-31.91,59.4-36.64,104.72-3.45,33.14-2.32,66.74,3.82,95.16-7.42,32.06-21.19,45.2-36.27,45.2-21.89,0-37.75-35.72-35.91-97.51,1.22-40.65,9.35-69.16,18.24-110.42,3.79-17.6.71-26.8-7-35.63-7.08-8.1-22.17-12.23-43.87-7.14-15.46,3.62-37.56,7.53-57.78,10.52a118,118,0,0,0,2.23-13.45c5.25-45-43.65-41.35-59.25-27-9.32,8.58-15.66,18.71-18.06,36.9-3.82,28.88,19.73,42.51,19.73,42.51-7.73,35.38-26.67,81.58-46.22,115-10.48,17.9-18.5,31.17-28.84,45.27q-.06-7.86-.08-15.73c-.24-74.37.75-132.9,1.18-154,.43-20.66,1.26-36.11,1.21-39.71-.11-8.07-4.83-11.13-14.64-15a103.92,103.92,0,0,0-29.57-6.6c-13.42-1-21.52,6.07-21.3,14.5,0,1.59,0,11.35,0,11.35-11-17.35-28.81-29.43-40.62-32.93-31.83-9.45-65-1.07-90.09,34-19.91,27.85-33,66.94-36.64,104.38-3.44,34.89-2.81,64.55,1.88,89.53-5.06,25-19.61,51.17-36.06,51.17-21,0-33-18.6-33-103.63,0-49.6,1.49-71.17,2.21-107,.43-20.67,1.25-36.54,1.2-40.14-.15-11-19.25-16.61-28.13-18.67-9.3-2.15-17.33-2.94-23.49-2.48-8.13.6-13.85,7.88-13.85,13.31V425c-11-17.35-28.81-29.43-40.62-32.93-31.83-9.45-64.85-.94-90.09,34-16.46,22.77-29.78,48-36.64,103.88a349.17,349.17,0,0,0-2.74,45.4c-6.56,40.13-35.54,86.39-59.26,86.39-13.87,0-27.09-26.91-27.09-84.26,0-76.4,4.74-185.16,5.53-195.65,0,0,30-.51,35.76-.57,14.95-.17,28.48.19,48.38-.83,10-.51,19.6-36.34,9.29-40.77-4.66-2-37.67-3.77-50.75-4-11-.25-41.63-2.52-41.63-2.52s2.75-72.2,3.39-79.82c.55-6.36-7.68-9.63-12.39-11.62-11.48-4.85-21.73-7.17-33.89-9.68-16.81-3.47-24.43-.08-25.92,14.11-2.24,21.52-3.4,84.56-3.4,84.56-12.34,0-54.45-2.41-66.78-2.41-11.47,0-23.83,49.28-8,49.89,18.23.7,50,1.31,71.05,1.95,0,0-.93,110.56-.93,144.7,0,3.63,0,7.12,0,10.52-11.59,60.41-52.41,93-52.41,93,8.76-40-9.14-70-41.4-95.38-11.89-9.37-35.34-27.08-61.59-46.51,0,0,15.2-15,28.68-45.13,9.56-21.36,10-45.79-13.48-51.18-38.75-8.91-70.7,19.54-80.22,49.92-7.39,23.54-3.45,41,11,59.14,1.06,1.32,2.2,2.67,3.39,4C588,520,576,542.73,565.85,560.33c-28.25,48.87-49.58,87.52-65.71,87.52-12.89,0-12.72-39.24-12.72-76,0-31.68,2.34-79.3,4.21-128.6.62-16.31-7.54-25.6-21.21-34-8.3-5.11-26-15.16-36.28-15.16-15.37,0-59.69,2.09-101.58,123.24-5.28,15.27-15.65,43.1-15.65,43.1l.9-145.69c0-3.42-1.83-6.73-6-9-7.06-3.82-25.91-11.66-42.67-11.66q-12,0-12,11.12l-1.47,227.94c0,17.32.45,37.52,2.17,46.35s4.47,16,7.89,20.33,7.37,7.54,13.89,8.88c6.07,1.25,39.29,5.52,41-7.18,2.07-15.21,2.14-31.67,19.59-93,27.16-95.56,62.57-142.18,79.22-158.74,2.91-2.89,6.23-3.07,6.07,1.67-.71,20.95-3.21,73.3-4.89,117.78-4.51,119,17.14,141.07,48.08,141.07,23.67,0,57-23.52,92.81-83,22.3-37.11,44-73.49,59.51-99.71,10.84,10,23,20.84,35.17,32.38,28.25,26.81,37.52,52.29,31.37,76.46-4.71,18.48-22.43,37.53-54,19-9.19-5.4-13.12-9.57-22.36-15.66-5-3.27-12.55-4.25-17.1-.82-11.82,8.9-18.57,20.23-22.43,34.26C568,686.8,581.64,694,595.81,700.32c12.2,5.43,38.42,10.35,55.15,10.91,65.15,2.18,117.35-31.45,153.68-118.22,6.5,74.93,34.18,117.34,82.28,117.34,32.15,0,64.39-41.56,78.48-82.45,4.05,16.67,10,31.16,17.78,43.42,37.05,58.71,109,46.07,145.06-3.78,11.16-15.41,12.86-20.95,12.86-20.95,5.27,47.08,43.18,63.53,64.89,63.53,24.31,0,49.41-11.49,67-51.1a121.35,121.35,0,0,0,6.77,12.3c37.06,58.71,109,46.08,145.06-3.78,1.7-2.34,3.18-4.46,4.47-6.37l1.06,30.93-33.24,30.49c-55.73,51.08-98.07,89.82-101.18,134.93-4,57.53,42.66,78.9,78,81.71,37.45,3,69.58-17.74,89.3-46.72,17.35-25.5,28.7-80.39,27.88-134.61-.34-21.72-.88-49.32-1.32-78.91a632.15,632.15,0,0,0,61.9-85c22.12-36.63,45.82-85.81,58-124.09,0,0,20.59.18,42.57-1.26,7-.46,9,1,7.75,6.13-1.57,6.22-27.77,107.27-3.86,174.58,16.37,46.07,53.26,60.9,75.13,60.9,25.6,0,50.09-19.34,63.21-48.05a102.21,102.21,0,0,0,5,9.16c37.06,58.71,108.7,46,145.06-3.78a149.83,149.83,0,0,0,12.87-20.94c7.8,48.72,45.69,63.77,67.39,63.77,22.61,0,44.07-9.27,61.47-50.45.73,18.13,1.87,33,3.68,37.63,1.1,2.86,7.53,6.45,12.2,8.19,20.68,7.66,41.77,4,49.58,2.46,5.4-1.09,9.62-5.43,10.19-16.63,1.51-29.4.59-78.81,9.5-115.53,15-61.62,28.93-85.53,35.55-97.36,3.7-6.63,7.88-7.72,8-.71.3,14.2,1,55.9,6.81,111.91,4.26,41.2,9.94,65.55,14.31,73.26,12.48,22,27.88,23.08,40.43,23.08,8,0,24.66-2.2,23.17-16.23-.73-6.83.55-49.08,15.3-109.79,9.64-39.64,25.7-75.46,31.49-88.56,2.14-4.83,3.13-1,3.1-.28-1.22,27.3-4,116.6,7.16,165.44,15.08,66.17,58.69,73.57,73.89,73.57,32.45,0,59-24.68,67.92-89.62,2.18-15.65-1-27.72-10.57-27.72ZM1128.84,552.88c-1.86,34.37-8.57,63.1-19.33,84-19.47,37.78-58,49.75-75-4.83-12.25-39.35-8.08-93-3-122,7.56-43,26.5-73.52,56-70.63C1118,442.36,1132.71,481.37,1128.84,552.88Zm296.58.5c-1.73,32.45-10.14,65.06-19.32,83.48-18.95,38-58.56,49.92-75-4.83-11.22-37.41-8.53-85.83-3-116.33,7.21-39.59,24.67-76.31,56-76.31C1414.68,439.39,1429.72,472.85,1425.42,553.38Zm7.74,221.42c-.41,59.21-9.72,111.12-29.71,126.2-28.34,21.38-66.43,5.34-58.54-37.86,7-38.23,40-77.28,88.34-125C1433.24,738.16,1433.34,749,1433.16,774.8Zm512-221.08c-1.65,35.63-9.54,63.49-19.33,83.13-19,38-58.28,49.85-75-4.83-9.1-29.8-9.52-79.57-3-121.16,6.66-42.36,25.25-74.36,56-71.47C1934.27,442.23,1948.49,481.37,1945.14,553.72Z"/></svg>