<svg xmlns="http://www.w3.org/2000/svg" viewBox="0 0 2450.68 649.12"><defs><style>.a{fill:#79848f;}</style></defs><path class="a" d="M0,543.74H269.19V455.35H97.43V118.18H0Zm405.48,0V250.62H308.05V543.74Zm-48.7-333.13c34,0,55.11-22.51,55.11-50.65-.63-28.76-21.15-50.63-54.47-50.63S302.3,131.21,302.3,160c0,28.14,21.15,50.65,53.84,50.65Zm93.93,333.13h97.43V380c0-8.76.63-17.52,3.21-23.76,7-17.5,23.06-35.64,50-35.64,35.26,0,49.37,26.89,49.37,66.27V543.73h97.41V375.67c0-90-48.07-131.93-112.18-131.93-52.55,0-75.63,29.37-88.45,49.39h.66V250.62H450.71C452,278.13,450.71,543.74,450.71,543.74ZM885.55,118.18H788.13V543.74h97.42v-95l24.35-30.65,76.28,125.69H1106l-128.18-182L1090,238H972.73s-80.12,110.74-87.18,123.88Zm481,303.29a237.14,237.14,0,0,0,3.21-38.3c0-75.76-38.46-152.69-139.73-152.69-108.32,0-158.32,85.67-158.32,163.37C1071.72,490,1132.62,550,1239,550c42.31,0,81.39-6.23,113.45-19.37l-12.82-64.34c-26.29,8.72-53.2,13.08-86.53,13.08-45.5,0-85.23-18.68-88.44-58.49l201.89.61v0ZM1164,355.56c2.56-25,19.24-61.92,60.9-61.92,44.21,0,54.48,39.4,54.48,61.92H1164Zm446.22-237.38V265.5H1609c-14.1-20.62-43.59-34.38-82.66-34.38-75,0-141,60-140.39,162.55,0,95,59.62,156.94,134,156.94,40.39,0,78.83-17.52,98.07-51.28h1.92l3.86,44.41h86.52c-1.28-20.64-2.58-56.28-2.58-91.29V118.17h-97.41Zm0,289.88a107.69,107.69,0,0,1-1.94,21.24c-5.74,26.9-28.82,45.64-57,45.64-40.37,0-66.66-32.5-66.66-83.77,0-48.14,22.45-86.9,67.31-86.9,30.12,0,51.27,20.62,57,46.25,1.28,5.64,1.28,11.9,1.28,17.52v40ZM1805.64,46.49ZM2403,0H1853.32c-26.32,0-47.67,20.83-47.68,46.49V602.64c0,25.67,21.36,46.48,47.68,46.48H2403c26.33,0,47.67-20.81,47.67-46.49V46.5C2450.68,20.83,2429.34,0,2403,0ZM1903.75,543.38V250.27h97.43V543.38Zm48.73-333.13h-.64c-32.7,0-53.83-22.51-53.83-50.63,0-28.77,21.77-50.65,55.12-50.65s53.83,21.88,54.47,50.65C2007.6,187.74,1986.45,210.25,1952.48,210.25Zm400,333.13h-97.42V386.59c0-39.41-14.11-66.29-49.35-66.29-26.92,0-42.95,18.13-50,35.64-2.57,6.25-3.21,15-3.21,23.77V543.38H2055.1s1.28-265.62,0-293.12h97.42v41.5c12.94-20,36.11-48.37,87.8-48.37,64.1,0,112.16,41.89,112.16,131.92Z"/></svg>