<svg xmlns="http://www.w3.org/2000/svg" viewBox="0 0 2499.24 1000"><defs><style>.a{fill:#79848f;}</style></defs><path class="a" d="M337.12,312H642l-28.17,83.86h-79.9v321h-98v-321H337.12ZM1145,312v83.86h98.76v321h98.15v-321h79.76L1449.84,312ZM708.29,407.6a47.5,47.5,0,1,0-47.53-47.46h0a47.46,47.46,0,0,0,47.46,47.46ZM660.76,716.86H757V441.17H660.76Zm442.41-311.67H990.61l-97,97V312.35H798l-.29,404.51h96.52V611.46l30-27.35,93.69,132.62h103.18L985.41,522.79Zm923.1,117.66,117.66-117.66H2031.41l-97,97V312.35H1838.8l-.45,404.51h96.55V611.46l30.31-27.35,93.69,132.62h103.22ZM1778.85,553c0,91.41-75.11,165.54-167.76,165.54S1443.33,644.42,1443.33,553s75.12-165.55,167.76-165.55,167.76,74.17,167.76,165.61Zm-85.46,0a82.3,82.3,0,1,0-82.3,82.3h0a82.3,82.3,0,0,0,82.3-82.24Zm163.09,451.16a.18.18,0,1,0,.18.18A.18.18,0,0,0,1856.48,1004.17Zm.93-998.7a.18.18,0,0,0,0,.36.18.18,0,0,0,0-.36ZM.18,582.3a.18.18,0,1,0,.18.18A.18.18,0,0,0,.18,582.3ZM2499.06,472.84a.18.18,0,1,0,.18.18A.18.18,0,0,0,2499.06,472.84Z"/></svg>