<svg xmlns="http://www.w3.org/2000/svg" viewBox="0 0 2499.24 1000"><defs><style>.a{fill:#79848f;}</style></defs><path class="a" d="M337.12,306.74H642L613.79,390.6h-79.9v321h-98v-321H337.12Zm807.88,0V390.6h98.76v321h98.15v-321h79.76l28.17-83.86ZM708.29,402.31a47.5,47.5,0,1,0-47.53-47.46h0a47.46,47.46,0,0,0,47.46,47.46ZM660.76,711.57H757V435.88H660.76ZM1103.17,399.9H990.61l-97,97V307.06H798l-.29,404.51h96.52V606.17l30-27.35,93.69,132.62h103.18L985.41,517.5Zm923.1,117.66L2143.93,399.9H2031.41l-97,97V307.06H1838.8l-.45,404.51h96.55V606.17l30.31-27.35,93.69,132.62h103.22Zm-247.42,30.16c0,91.41-75.11,165.54-167.76,165.54s-167.76-74.13-167.76-165.54,75.12-165.55,167.76-165.55,167.76,74.17,167.76,165.61Zm-85.46,0a82.3,82.3,0,1,0-82.3,82.3h0a82.3,82.3,0,0,0,82.3-82.24Zm163.09,451.16a.18.18,0,1,0,.18.18A.18.18,0,0,0,1856.48,998.88Zm.93-998.7a.18.18,0,0,0-.17.18.18.18,0,0,0,.17.18.18.18,0,0,0,0-.36ZM.18,577a.18.18,0,1,0,.18.18A.18.18,0,0,0,.18,577ZM2499.06,467.55a.18.18,0,1,0,.18.18A.18.18,0,0,0,2499.06,467.55Z"/></svg>