<svg xmlns="http://www.w3.org/2000/svg" viewBox="0 0 1825 406.53"><defs><style>.a{fill:#79848f;}</style></defs><path class="a" d="M0,0H304.84L276.67,83.86h-79.9v321h-98v-321H0ZM807.88,0V83.86h98.76v321h98.15v-321h79.76L1112.72,0ZM371.17,95.57a47.49,47.49,0,1,0-47.53-47.46h0A47.46,47.46,0,0,0,371.1,95.57ZM323.64,404.84h96.23V129.14H323.64ZM766.05,93.17H653.5l-97,97V.33h-95.6l-.3,404.51h96.52V299.44l30-27.36,93.69,132.63H784L648.29,210.76Zm923.1,117.66L1806.82,93.17H1694.29l-97,97V.33h-95.58l-.45,404.51h96.55V299.44l30.32-27.36,93.68,132.63H1825ZM1441.73,241c0,91.41-75.11,165.55-167.76,165.55S1106.22,332.39,1106.22,241,1181.33,75.44,1274,75.44s167.76,74.17,167.76,165.61Zm-85.46,0a82.3,82.3,0,1,0-82.3,82.3h0a82.29,82.29,0,0,0,82.3-82.23Z"/></svg>